<?xml version="1.0" encoding="utf-8"?>
<svg xmlns="http://www.w3.org/2000/svg" xmlns:xlink="http://www.w3.org/1999/xlink" width="600" height="400" viewBox="0 0 2400 1600">
<defs>
  <clipPath id="clip480">
    <rect x="0" y="0" width="2400" height="1600"/>
  </clipPath>
</defs>
<path clip-path="url(#clip480)" d="
M0 1600 L2400 1600 L2400 0 L0 0  Z
  " fill="#ffffff" fill-rule="evenodd" fill-opacity="1"/>
<defs>
  <clipPath id="clip481">
    <rect x="480" y="0" width="1681" height="1600"/>
  </clipPath>
</defs>
<path clip-path="url(#clip480)" d="
M193.936 1486.45 L2352.76 1486.45 L2352.76 47.2441 L193.936 47.2441  Z
  " fill="#ffffff" fill-rule="evenodd" fill-opacity="1"/>
<defs>
  <clipPath id="clip482">
    <rect x="193" y="47" width="2160" height="1440"/>
  </clipPath>
</defs>
<polyline clip-path="url(#clip482)" style="stroke:#000000; stroke-linecap:butt; stroke-linejoin:round; stroke-width:2; stroke-opacity:0.1; fill:none" points="
  255.035,1486.45 255.035,47.2441 
  "/>
<polyline clip-path="url(#clip482)" style="stroke:#000000; stroke-linecap:butt; stroke-linejoin:round; stroke-width:2; stroke-opacity:0.1; fill:none" points="
  579.173,1486.45 579.173,47.2441 
  "/>
<polyline clip-path="url(#clip482)" style="stroke:#000000; stroke-linecap:butt; stroke-linejoin:round; stroke-width:2; stroke-opacity:0.1; fill:none" points="
  903.312,1486.45 903.312,47.2441 
  "/>
<polyline clip-path="url(#clip482)" style="stroke:#000000; stroke-linecap:butt; stroke-linejoin:round; stroke-width:2; stroke-opacity:0.1; fill:none" points="
  1227.45,1486.45 1227.45,47.2441 
  "/>
<polyline clip-path="url(#clip482)" style="stroke:#000000; stroke-linecap:butt; stroke-linejoin:round; stroke-width:2; stroke-opacity:0.1; fill:none" points="
  1551.59,1486.45 1551.59,47.2441 
  "/>
<polyline clip-path="url(#clip482)" style="stroke:#000000; stroke-linecap:butt; stroke-linejoin:round; stroke-width:2; stroke-opacity:0.1; fill:none" points="
  1875.73,1486.45 1875.73,47.2441 
  "/>
<polyline clip-path="url(#clip482)" style="stroke:#000000; stroke-linecap:butt; stroke-linejoin:round; stroke-width:2; stroke-opacity:0.1; fill:none" points="
  2199.87,1486.45 2199.87,47.2441 
  "/>
<polyline clip-path="url(#clip480)" style="stroke:#000000; stroke-linecap:butt; stroke-linejoin:round; stroke-width:4; stroke-opacity:1; fill:none" points="
  193.936,1486.45 2352.76,1486.45 
  "/>
<polyline clip-path="url(#clip480)" style="stroke:#000000; stroke-linecap:butt; stroke-linejoin:round; stroke-width:4; stroke-opacity:1; fill:none" points="
  255.035,1486.45 255.035,1467.55 
  "/>
<polyline clip-path="url(#clip480)" style="stroke:#000000; stroke-linecap:butt; stroke-linejoin:round; stroke-width:4; stroke-opacity:1; fill:none" points="
  579.173,1486.45 579.173,1467.55 
  "/>
<polyline clip-path="url(#clip480)" style="stroke:#000000; stroke-linecap:butt; stroke-linejoin:round; stroke-width:4; stroke-opacity:1; fill:none" points="
  903.312,1486.45 903.312,1467.55 
  "/>
<polyline clip-path="url(#clip480)" style="stroke:#000000; stroke-linecap:butt; stroke-linejoin:round; stroke-width:4; stroke-opacity:1; fill:none" points="
  1227.45,1486.45 1227.45,1467.55 
  "/>
<polyline clip-path="url(#clip480)" style="stroke:#000000; stroke-linecap:butt; stroke-linejoin:round; stroke-width:4; stroke-opacity:1; fill:none" points="
  1551.59,1486.45 1551.59,1467.55 
  "/>
<polyline clip-path="url(#clip480)" style="stroke:#000000; stroke-linecap:butt; stroke-linejoin:round; stroke-width:4; stroke-opacity:1; fill:none" points="
  1875.73,1486.45 1875.73,1467.55 
  "/>
<polyline clip-path="url(#clip480)" style="stroke:#000000; stroke-linecap:butt; stroke-linejoin:round; stroke-width:4; stroke-opacity:1; fill:none" points="
  2199.87,1486.45 2199.87,1467.55 
  "/>
<path clip-path="url(#clip480)" d="M255.035 1517.37 Q251.424 1517.37 249.595 1520.93 Q247.789 1524.47 247.789 1531.6 Q247.789 1538.71 249.595 1542.27 Q251.424 1545.82 255.035 1545.82 Q258.669 1545.82 260.474 1542.27 Q262.303 1538.71 262.303 1531.6 Q262.303 1524.47 260.474 1520.93 Q258.669 1517.37 255.035 1517.37 M255.035 1513.66 Q260.845 1513.66 263.9 1518.27 Q266.979 1522.85 266.979 1531.6 Q266.979 1540.33 263.9 1544.94 Q260.845 1549.52 255.035 1549.52 Q249.225 1549.52 246.146 1544.94 Q243.09 1540.33 243.09 1531.6 Q243.09 1522.85 246.146 1518.27 Q249.225 1513.66 255.035 1513.66 Z" fill="#000000" fill-rule="evenodd" fill-opacity="1" /><path clip-path="url(#clip480)" d="M573.826 1544.91 L590.145 1544.91 L590.145 1548.85 L568.201 1548.85 L568.201 1544.91 Q570.863 1542.16 575.446 1537.53 Q580.053 1532.88 581.233 1531.53 Q583.479 1529.01 584.358 1527.27 Q585.261 1525.51 585.261 1523.82 Q585.261 1521.07 583.317 1519.33 Q581.395 1517.6 578.294 1517.6 Q576.095 1517.6 573.641 1518.36 Q571.21 1519.13 568.433 1520.68 L568.433 1515.95 Q571.257 1514.82 573.71 1514.24 Q576.164 1513.66 578.201 1513.66 Q583.571 1513.66 586.766 1516.35 Q589.96 1519.03 589.96 1523.52 Q589.96 1525.65 589.15 1527.57 Q588.363 1529.47 586.257 1532.07 Q585.678 1532.74 582.576 1535.95 Q579.474 1539.15 573.826 1544.91 Z" fill="#000000" fill-rule="evenodd" fill-opacity="1" /><path clip-path="url(#clip480)" d="M906.321 1518.36 L894.516 1536.81 L906.321 1536.81 L906.321 1518.36 M905.094 1514.29 L910.974 1514.29 L910.974 1536.81 L915.904 1536.81 L915.904 1540.7 L910.974 1540.7 L910.974 1548.85 L906.321 1548.85 L906.321 1540.7 L890.719 1540.7 L890.719 1536.19 L905.094 1514.29 Z" fill="#000000" fill-rule="evenodd" fill-opacity="1" /><path clip-path="url(#clip480)" d="M1227.86 1529.7 Q1224.71 1529.7 1222.86 1531.86 Q1221.03 1534.01 1221.03 1537.76 Q1221.03 1541.49 1222.86 1543.66 Q1224.71 1545.82 1227.86 1545.82 Q1231 1545.82 1232.83 1543.66 Q1234.68 1541.49 1234.68 1537.76 Q1234.68 1534.01 1232.83 1531.86 Q1231 1529.7 1227.86 1529.7 M1237.14 1515.05 L1237.14 1519.31 Q1235.38 1518.48 1233.57 1518.04 Q1231.79 1517.6 1230.03 1517.6 Q1225.4 1517.6 1222.95 1520.72 Q1220.52 1523.85 1220.17 1530.17 Q1221.54 1528.15 1223.6 1527.09 Q1225.66 1526 1228.13 1526 Q1233.34 1526 1236.35 1529.17 Q1239.38 1532.32 1239.38 1537.76 Q1239.38 1543.08 1236.23 1546.3 Q1233.09 1549.52 1227.86 1549.52 Q1221.86 1549.52 1218.69 1544.94 Q1215.52 1540.33 1215.52 1531.6 Q1215.52 1523.41 1219.41 1518.55 Q1223.3 1513.66 1229.85 1513.66 Q1231.61 1513.66 1233.39 1514.01 Q1235.19 1514.36 1237.14 1515.05 Z" fill="#000000" fill-rule="evenodd" fill-opacity="1" /><path clip-path="url(#clip480)" d="M1551.59 1532.44 Q1548.26 1532.44 1546.33 1534.22 Q1544.44 1536 1544.44 1539.13 Q1544.44 1542.25 1546.33 1544.03 Q1548.26 1545.82 1551.59 1545.82 Q1554.92 1545.82 1556.84 1544.03 Q1558.76 1542.23 1558.76 1539.13 Q1558.76 1536 1556.84 1534.22 Q1554.95 1532.44 1551.59 1532.44 M1546.91 1530.45 Q1543.9 1529.7 1542.21 1527.64 Q1540.55 1525.58 1540.55 1522.62 Q1540.55 1518.48 1543.49 1516.07 Q1546.45 1513.66 1551.59 1513.66 Q1556.75 1513.66 1559.69 1516.07 Q1562.63 1518.48 1562.63 1522.62 Q1562.63 1525.58 1560.94 1527.64 Q1559.27 1529.7 1556.29 1530.45 Q1559.67 1531.23 1561.54 1533.52 Q1563.44 1535.82 1563.44 1539.13 Q1563.44 1544.15 1560.36 1546.83 Q1557.31 1549.52 1551.59 1549.52 Q1545.87 1549.52 1542.79 1546.83 Q1539.74 1544.15 1539.74 1539.13 Q1539.74 1535.82 1541.64 1533.52 Q1543.53 1531.23 1546.91 1530.45 M1545.2 1523.06 Q1545.2 1525.75 1546.87 1527.25 Q1548.56 1528.76 1551.59 1528.76 Q1554.6 1528.76 1556.29 1527.25 Q1558 1525.75 1558 1523.06 Q1558 1520.38 1556.29 1518.87 Q1554.6 1517.37 1551.59 1517.37 Q1548.56 1517.37 1546.87 1518.87 Q1545.2 1520.38 1545.2 1523.06 Z" fill="#000000" fill-rule="evenodd" fill-opacity="1" /><path clip-path="url(#clip480)" d="M1850.42 1544.91 L1858.05 1544.91 L1858.05 1518.55 L1849.74 1520.21 L1849.74 1515.95 L1858.01 1514.29 L1862.68 1514.29 L1862.68 1544.91 L1870.32 1544.91 L1870.32 1548.85 L1850.42 1548.85 L1850.42 1544.91 Z" fill="#000000" fill-rule="evenodd" fill-opacity="1" /><path clip-path="url(#clip480)" d="M1889.77 1517.37 Q1886.16 1517.37 1884.33 1520.93 Q1882.52 1524.47 1882.52 1531.6 Q1882.52 1538.71 1884.33 1542.27 Q1886.16 1545.82 1889.77 1545.82 Q1893.4 1545.82 1895.21 1542.27 Q1897.04 1538.71 1897.04 1531.6 Q1897.04 1524.47 1895.21 1520.93 Q1893.4 1517.37 1889.77 1517.37 M1889.77 1513.66 Q1895.58 1513.66 1898.63 1518.27 Q1901.71 1522.85 1901.71 1531.6 Q1901.71 1540.33 1898.63 1544.94 Q1895.58 1549.52 1889.77 1549.52 Q1883.96 1549.52 1880.88 1544.94 Q1877.82 1540.33 1877.82 1531.6 Q1877.82 1522.85 1880.88 1518.27 Q1883.96 1513.66 1889.77 1513.66 Z" fill="#000000" fill-rule="evenodd" fill-opacity="1" /><path clip-path="url(#clip480)" d="M2175.35 1544.91 L2182.99 1544.91 L2182.99 1518.55 L2174.68 1520.21 L2174.68 1515.95 L2182.94 1514.29 L2187.62 1514.29 L2187.62 1544.91 L2195.26 1544.91 L2195.26 1548.85 L2175.35 1548.85 L2175.35 1544.91 Z" fill="#000000" fill-rule="evenodd" fill-opacity="1" /><path clip-path="url(#clip480)" d="M2208.73 1544.91 L2225.05 1544.91 L2225.05 1548.85 L2203.11 1548.85 L2203.11 1544.91 Q2205.77 1542.16 2210.35 1537.53 Q2214.96 1532.88 2216.14 1531.53 Q2218.38 1529.01 2219.26 1527.27 Q2220.17 1525.51 2220.17 1523.82 Q2220.17 1521.07 2218.22 1519.33 Q2216.3 1517.6 2213.2 1517.6 Q2211 1517.6 2208.55 1518.36 Q2206.12 1519.13 2203.34 1520.68 L2203.34 1515.95 Q2206.16 1514.82 2208.62 1514.24 Q2211.07 1513.66 2213.11 1513.66 Q2218.48 1513.66 2221.67 1516.35 Q2224.87 1519.03 2224.87 1523.52 Q2224.87 1525.65 2224.06 1527.57 Q2223.27 1529.47 2221.16 1532.07 Q2220.58 1532.74 2217.48 1535.95 Q2214.38 1539.15 2208.73 1544.91 Z" fill="#000000" fill-rule="evenodd" fill-opacity="1" /><polyline clip-path="url(#clip482)" style="stroke:#000000; stroke-linecap:butt; stroke-linejoin:round; stroke-width:2; stroke-opacity:0.1; fill:none" points="
  193.936,1445.73 2352.76,1445.73 
  "/>
<polyline clip-path="url(#clip482)" style="stroke:#000000; stroke-linecap:butt; stroke-linejoin:round; stroke-width:2; stroke-opacity:0.1; fill:none" points="
  193.936,1122.55 2352.76,1122.55 
  "/>
<polyline clip-path="url(#clip482)" style="stroke:#000000; stroke-linecap:butt; stroke-linejoin:round; stroke-width:2; stroke-opacity:0.1; fill:none" points="
  193.936,799.365 2352.76,799.365 
  "/>
<polyline clip-path="url(#clip482)" style="stroke:#000000; stroke-linecap:butt; stroke-linejoin:round; stroke-width:2; stroke-opacity:0.1; fill:none" points="
  193.936,476.185 2352.76,476.185 
  "/>
<polyline clip-path="url(#clip482)" style="stroke:#000000; stroke-linecap:butt; stroke-linejoin:round; stroke-width:2; stroke-opacity:0.1; fill:none" points="
  193.936,153.005 2352.76,153.005 
  "/>
<polyline clip-path="url(#clip480)" style="stroke:#000000; stroke-linecap:butt; stroke-linejoin:round; stroke-width:4; stroke-opacity:1; fill:none" points="
  193.936,1486.45 193.936,47.2441 
  "/>
<polyline clip-path="url(#clip480)" style="stroke:#000000; stroke-linecap:butt; stroke-linejoin:round; stroke-width:4; stroke-opacity:1; fill:none" points="
  193.936,1445.73 212.834,1445.73 
  "/>
<polyline clip-path="url(#clip480)" style="stroke:#000000; stroke-linecap:butt; stroke-linejoin:round; stroke-width:4; stroke-opacity:1; fill:none" points="
  193.936,1122.55 212.834,1122.55 
  "/>
<polyline clip-path="url(#clip480)" style="stroke:#000000; stroke-linecap:butt; stroke-linejoin:round; stroke-width:4; stroke-opacity:1; fill:none" points="
  193.936,799.365 212.834,799.365 
  "/>
<polyline clip-path="url(#clip480)" style="stroke:#000000; stroke-linecap:butt; stroke-linejoin:round; stroke-width:4; stroke-opacity:1; fill:none" points="
  193.936,476.185 212.834,476.185 
  "/>
<polyline clip-path="url(#clip480)" style="stroke:#000000; stroke-linecap:butt; stroke-linejoin:round; stroke-width:4; stroke-opacity:1; fill:none" points="
  193.936,153.005 212.834,153.005 
  "/>
<path clip-path="url(#clip480)" d="M50.9921 1446.18 L80.6679 1446.18 L80.6679 1450.11 L50.9921 1450.11 L50.9921 1446.18 Z" fill="#000000" fill-rule="evenodd" fill-opacity="1" /><path clip-path="url(#clip480)" d="M91.5706 1459.07 L99.2095 1459.07 L99.2095 1432.7 L90.8993 1434.37 L90.8993 1430.11 L99.1632 1428.45 L103.839 1428.45 L103.839 1459.07 L111.478 1459.07 L111.478 1463.01 L91.5706 1463.01 L91.5706 1459.07 Z" fill="#000000" fill-rule="evenodd" fill-opacity="1" /><path clip-path="url(#clip480)" d="M120.922 1457.13 L125.807 1457.13 L125.807 1463.01 L120.922 1463.01 L120.922 1457.13 Z" fill="#000000" fill-rule="evenodd" fill-opacity="1" /><path clip-path="url(#clip480)" d="M145.992 1431.52 Q142.381 1431.52 140.552 1435.09 Q138.746 1438.63 138.746 1445.76 Q138.746 1452.87 140.552 1456.43 Q142.381 1459.97 145.992 1459.97 Q149.626 1459.97 151.431 1456.43 Q153.26 1452.87 153.26 1445.76 Q153.26 1438.63 151.431 1435.09 Q149.626 1431.52 145.992 1431.52 M145.992 1427.82 Q151.802 1427.82 154.857 1432.43 Q157.936 1437.01 157.936 1445.76 Q157.936 1454.49 154.857 1459.09 Q151.802 1463.68 145.992 1463.68 Q140.181 1463.68 137.103 1459.09 Q134.047 1454.49 134.047 1445.76 Q134.047 1437.01 137.103 1432.43 Q140.181 1427.82 145.992 1427.82 Z" fill="#000000" fill-rule="evenodd" fill-opacity="1" /><path clip-path="url(#clip480)" d="M51.9875 1123 L81.6633 1123 L81.6633 1126.93 L51.9875 1126.93 L51.9875 1123 Z" fill="#000000" fill-rule="evenodd" fill-opacity="1" /><path clip-path="url(#clip480)" d="M101.756 1108.34 Q98.1447 1108.34 96.316 1111.91 Q94.5104 1115.45 94.5104 1122.58 Q94.5104 1129.69 96.316 1133.25 Q98.1447 1136.79 101.756 1136.79 Q105.39 1136.79 107.196 1133.25 Q109.024 1129.69 109.024 1122.58 Q109.024 1115.45 107.196 1111.91 Q105.39 1108.34 101.756 1108.34 M101.756 1104.64 Q107.566 1104.64 110.621 1109.25 Q113.7 1113.83 113.7 1122.58 Q113.7 1131.31 110.621 1135.91 Q107.566 1140.5 101.756 1140.5 Q95.9456 1140.5 92.8669 1135.91 Q89.8114 1131.31 89.8114 1122.58 Q89.8114 1113.83 92.8669 1109.25 Q95.9456 1104.64 101.756 1104.64 Z" fill="#000000" fill-rule="evenodd" fill-opacity="1" /><path clip-path="url(#clip480)" d="M121.918 1133.95 L126.802 1133.95 L126.802 1139.83 L121.918 1139.83 L121.918 1133.95 Z" fill="#000000" fill-rule="evenodd" fill-opacity="1" /><path clip-path="url(#clip480)" d="M137.033 1105.27 L155.39 1105.27 L155.39 1109.2 L141.316 1109.2 L141.316 1117.67 Q142.334 1117.33 143.353 1117.16 Q144.371 1116.98 145.39 1116.98 Q151.177 1116.98 154.556 1120.15 Q157.936 1123.32 157.936 1128.74 Q157.936 1134.32 154.464 1137.42 Q150.992 1140.5 144.672 1140.5 Q142.496 1140.5 140.228 1140.13 Q137.982 1139.76 135.575 1139.01 L135.575 1134.32 Q137.658 1135.45 139.881 1136.01 Q142.103 1136.56 144.58 1136.56 Q148.584 1136.56 150.922 1134.45 Q153.26 1132.35 153.26 1128.74 Q153.26 1125.13 150.922 1123.02 Q148.584 1120.91 144.58 1120.91 Q142.705 1120.91 140.83 1121.33 Q138.978 1121.75 137.033 1122.63 L137.033 1105.27 Z" fill="#000000" fill-rule="evenodd" fill-opacity="1" /><path clip-path="url(#clip480)" d="M100.76 785.164 Q97.1493 785.164 95.3206 788.729 Q93.515 792.27 93.515 799.4 Q93.515 806.506 95.3206 810.071 Q97.1493 813.613 100.76 813.613 Q104.395 813.613 106.2 810.071 Q108.029 806.506 108.029 799.4 Q108.029 792.27 106.2 788.729 Q104.395 785.164 100.76 785.164 M100.76 781.46 Q106.571 781.46 109.626 786.067 Q112.705 790.65 112.705 799.4 Q112.705 808.127 109.626 812.733 Q106.571 817.317 100.76 817.317 Q94.9502 817.317 91.8715 812.733 Q88.816 808.127 88.816 799.4 Q88.816 790.65 91.8715 786.067 Q94.9502 781.46 100.76 781.46 Z" fill="#000000" fill-rule="evenodd" fill-opacity="1" /><path clip-path="url(#clip480)" d="M120.922 810.766 L125.807 810.766 L125.807 816.645 L120.922 816.645 L120.922 810.766 Z" fill="#000000" fill-rule="evenodd" fill-opacity="1" /><path clip-path="url(#clip480)" d="M145.992 785.164 Q142.381 785.164 140.552 788.729 Q138.746 792.27 138.746 799.4 Q138.746 806.506 140.552 810.071 Q142.381 813.613 145.992 813.613 Q149.626 813.613 151.431 810.071 Q153.26 806.506 153.26 799.4 Q153.26 792.27 151.431 788.729 Q149.626 785.164 145.992 785.164 M145.992 781.46 Q151.802 781.46 154.857 786.067 Q157.936 790.65 157.936 799.4 Q157.936 808.127 154.857 812.733 Q151.802 817.317 145.992 817.317 Q140.181 817.317 137.103 812.733 Q134.047 808.127 134.047 799.4 Q134.047 790.65 137.103 786.067 Q140.181 781.46 145.992 781.46 Z" fill="#000000" fill-rule="evenodd" fill-opacity="1" /><path clip-path="url(#clip480)" d="M101.756 461.984 Q98.1447 461.984 96.316 465.549 Q94.5104 469.09 94.5104 476.22 Q94.5104 483.326 96.316 486.891 Q98.1447 490.433 101.756 490.433 Q105.39 490.433 107.196 486.891 Q109.024 483.326 109.024 476.22 Q109.024 469.09 107.196 465.549 Q105.39 461.984 101.756 461.984 M101.756 458.28 Q107.566 458.28 110.621 462.887 Q113.7 467.47 113.7 476.22 Q113.7 484.947 110.621 489.553 Q107.566 494.137 101.756 494.137 Q95.9456 494.137 92.8669 489.553 Q89.8114 484.947 89.8114 476.22 Q89.8114 467.47 92.8669 462.887 Q95.9456 458.28 101.756 458.28 Z" fill="#000000" fill-rule="evenodd" fill-opacity="1" /><path clip-path="url(#clip480)" d="M121.918 487.586 L126.802 487.586 L126.802 493.465 L121.918 493.465 L121.918 487.586 Z" fill="#000000" fill-rule="evenodd" fill-opacity="1" /><path clip-path="url(#clip480)" d="M137.033 458.905 L155.39 458.905 L155.39 462.84 L141.316 462.84 L141.316 471.313 Q142.334 470.965 143.353 470.803 Q144.371 470.618 145.39 470.618 Q151.177 470.618 154.556 473.789 Q157.936 476.961 157.936 482.377 Q157.936 487.956 154.464 491.058 Q150.992 494.137 144.672 494.137 Q142.496 494.137 140.228 493.766 Q137.982 493.396 135.575 492.655 L135.575 487.956 Q137.658 489.09 139.881 489.646 Q142.103 490.201 144.58 490.201 Q148.584 490.201 150.922 488.095 Q153.26 485.988 153.26 482.377 Q153.26 478.766 150.922 476.66 Q148.584 474.553 144.58 474.553 Q142.705 474.553 140.83 474.97 Q138.978 475.387 137.033 476.266 L137.033 458.905 Z" fill="#000000" fill-rule="evenodd" fill-opacity="1" /><path clip-path="url(#clip480)" d="M91.5706 166.35 L99.2095 166.35 L99.2095 139.985 L90.8993 141.651 L90.8993 137.392 L99.1632 135.725 L103.839 135.725 L103.839 166.35 L111.478 166.35 L111.478 170.285 L91.5706 170.285 L91.5706 166.35 Z" fill="#000000" fill-rule="evenodd" fill-opacity="1" /><path clip-path="url(#clip480)" d="M120.922 164.406 L125.807 164.406 L125.807 170.285 L120.922 170.285 L120.922 164.406 Z" fill="#000000" fill-rule="evenodd" fill-opacity="1" /><path clip-path="url(#clip480)" d="M145.992 138.804 Q142.381 138.804 140.552 142.369 Q138.746 145.911 138.746 153.04 Q138.746 160.147 140.552 163.711 Q142.381 167.253 145.992 167.253 Q149.626 167.253 151.431 163.711 Q153.26 160.147 153.26 153.04 Q153.26 145.911 151.431 142.369 Q149.626 138.804 145.992 138.804 M145.992 135.1 Q151.802 135.1 154.857 139.707 Q157.936 144.29 157.936 153.04 Q157.936 161.767 154.857 166.373 Q151.802 170.957 145.992 170.957 Q140.181 170.957 137.103 166.373 Q134.047 161.767 134.047 153.04 Q134.047 144.29 137.103 139.707 Q140.181 135.1 145.992 135.1 Z" fill="#000000" fill-rule="evenodd" fill-opacity="1" /><polyline clip-path="url(#clip482)" style="stroke:#009af9; stroke-linecap:butt; stroke-linejoin:round; stroke-width:8; stroke-opacity:1; fill:none" points="
  255.035,799.365 287.449,670.093 319.862,543.398 352.276,424.331 384.69,317.638 417.104,227.573 449.518,157.727 481.932,110.885 514.346,88.9127 546.759,92.6874 
  579.173,122.058 611.587,175.854 644.001,251.931 676.415,347.255 708.829,458.027 741.242,579.83 773.656,707.808 806.07,836.86 838.484,961.84 870.898,1077.77 
  903.312,1180.02 935.726,1264.51 968.139,1327.89 1000.55,1367.62 1032.97,1382.12 1065.38,1370.81 1097.79,1334.14 1130.21,1273.57 1162.62,1191.52 1195.04,1091.26 
  1227.45,976.791 1259.86,852.668 1292.28,723.843 1324.69,595.452 1357.11,472.614 1389.52,360.225 1421.93,262.767 1454.35,184.124 1486.76,127.432 1519.18,94.9512 
  1551.59,87.9763 1584,106.785 1616.42,150.629 1648.83,217.758 1681.24,305.498 1713.66,410.349 1746.07,528.133 1778.49,654.153 1810.9,783.385 1843.31,910.677 
  1875.73,1030.96 1908.14,1139.42 1940.56,1231.76 1972.97,1304.28 2005.38,1354.09 2037.8,1379.21 2070.21,1378.64 2102.62,1352.4 2135.04,1301.53 2167.45,1228.07 
  2199.87,1134.93 2232.28,1025.85 2264.69,905.156 
  "/>
<polyline clip-path="url(#clip482)" style="stroke:#e26f46; stroke-linecap:butt; stroke-linejoin:round; stroke-width:8; stroke-opacity:1; fill:none" stroke-dasharray="32, 20" points="
  255.035,799.365 258.35,786.146 261.664,772.932 264.979,759.729 268.294,746.543 283.62,685.954 298.945,626.378 314.27,568.348 329.596,512.381 337.259,485.33 
  344.921,458.98 352.584,433.39 360.247,408.619 367.91,384.721 375.572,361.75 383.235,339.757 390.898,318.791 400.108,295.017 409.318,272.872 418.527,252.426 
  427.737,233.746 436.947,216.892 446.157,201.918 455.367,188.873 464.577,177.8 472.364,170.001 480.151,163.656 487.938,158.777 495.725,155.377 503.512,153.463 
  511.299,153.04 519.085,154.109 526.872,156.667 535.331,161.127 543.79,167.324 552.249,175.243 560.707,184.862 569.166,196.154 577.625,209.089 586.084,223.631 
  594.542,239.742 602.341,255.946 610.139,273.407 617.937,292.086 625.735,311.94 633.533,332.921 641.332,354.982 649.13,378.072 656.928,402.138 665.289,428.958 
  673.649,456.763 682.01,485.48 690.37,515.033 707.091,576.326 723.812,639.991 762.558,792.856 801.304,946.09 818.52,1012.01 835.737,1075.53 844.345,1106.16 
  852.953,1135.93 861.561,1164.75 870.17,1192.54 877.718,1216 885.267,1238.56 892.815,1260.16 900.364,1280.77 907.913,1300.33 915.461,1318.8 923.01,1336.15 
  930.558,1352.33 938.788,1368.6 947.018,1383.41 955.248,1396.71 963.478,1408.48 971.708,1418.67 979.938,1427.26 988.168,1434.24 996.398,1439.58 1004.68,1443.28 
  1012.96,1445.31 1021.24,1445.65 1029.51,1444.3 1037.79,1441.28 1046.07,1436.57 1054.35,1430.21 1062.63,1422.2 1071.78,1411.45 1080.94,1398.75 1090.09,1384.14 
  1099.24,1367.67 1108.4,1349.38 1117.55,1329.34 1126.7,1307.6 1135.86,1284.25 1144.57,1260.59 1153.28,1235.61 1161.98,1209.36 1170.69,1181.93 1179.4,1153.39 
  1188.11,1123.84 1196.82,1093.34 1205.53,1062 1223.64,994.499 1241.75,924.565 1259.86,853.069 1277.98,780.903 1293.22,720.296 1308.47,660.389 1323.71,601.71 
  1338.96,544.78 1348.27,511.102 1357.57,478.374 1366.88,446.705 1376.19,416.198 1385.49,386.955 1394.8,359.071 1404.11,332.638 1413.41,307.744 1421.94,286.36 
  1430.46,266.395 1438.99,247.905 1447.51,230.94 1456.04,215.548 1464.57,201.771 1473.09,189.648 1481.62,179.211 1489.49,171.095 1497.36,164.462 1505.24,159.327 
  1513.11,155.703 1520.99,153.598 1528.86,153.016 1536.73,153.96 1544.61,156.427 1552.58,160.473 1560.56,166.066 1568.54,173.193 1576.51,181.836 1584.49,191.974 
  1592.46,203.583 1600.44,216.635 1608.42,231.098 1617.36,248.94 1626.29,268.456 1635.23,289.587 1644.17,312.269 1653.11,336.432 1662.05,362.002 1670.99,388.903 
  1679.93,417.052 1688.03,443.567 1696.13,470.97 1704.23,499.193 1712.33,528.165 1728.53,588.068 1744.73,650.081 1781.83,796.667 1818.92,943.395 1836.1,1009.23 
  1853.27,1072.72 1861.86,1103.35 1870.44,1133.13 1879.03,1161.98 1887.62,1189.8 1896.08,1216.17 1904.55,1241.39 1913.01,1265.41 1921.48,1288.16 1929.95,1309.57 
  1938.41,1329.6 1946.88,1348.17 1955.34,1365.25 1963.56,1380.36 1971.78,1393.97 1980,1406.05 1988.22,1416.58 1996.44,1425.51 2004.66,1432.84 2012.88,1438.53 
  2021.1,1442.59 2029.53,1445.02 2037.95,1445.72 2046.38,1444.66 2054.8,1441.86 2063.23,1437.33 2071.66,1431.07 2080.08,1423.11 2088.51,1413.45 2097.74,1400.98 
  2106.97,1386.55 2116.2,1370.21 2125.44,1352.03 2134.67,1332.05 2143.9,1310.34 2153.13,1286.98 2162.36,1262.03 2175.77,1223.14 2189.18,1181.36 2202.59,1136.95 
  2216,1090.24 2229.42,1041.54 2242.83,991.179 2256.24,939.506 2269.65,886.875 2275.15,865.086 2280.65,843.221 2286.15,821.306 2291.66,799.365 
  "/>
<path clip-path="url(#clip480)" d="
M1609.72 250.738 L2280.8 250.738 L2280.8 95.2176 L1609.72 95.2176  Z
  " fill="#ffffff" fill-rule="evenodd" fill-opacity="1"/>
<polyline clip-path="url(#clip480)" style="stroke:#000000; stroke-linecap:butt; stroke-linejoin:round; stroke-width:4; stroke-opacity:1; fill:none" points="
  1609.72,250.738 2280.8,250.738 2280.8,95.2176 1609.72,95.2176 1609.72,250.738 
  "/>
<polyline clip-path="url(#clip480)" style="stroke:#009af9; stroke-linecap:butt; stroke-linejoin:round; stroke-width:4; stroke-opacity:1; fill:none" points="
  1633.71,147.058 1777.63,147.058 
  "/>
<path clip-path="url(#clip480)" d="M1801.62 129.778 L1821.48 129.778 L1821.48 133.713 L1806.3 133.713 L1806.3 143.898 L1820 143.898 L1820 147.833 L1806.3 147.833 L1806.3 164.338 L1801.62 164.338 L1801.62 129.778 Z" fill="#000000" fill-rule="evenodd" fill-opacity="1" /><path clip-path="url(#clip480)" d="M1828.89 129.778 L1850.74 129.778 L1850.74 133.713 L1833.56 133.713 L1833.56 143.944 L1850.02 143.944 L1850.02 147.879 L1833.56 147.879 L1833.56 160.402 L1851.16 160.402 L1851.16 164.338 L1828.89 164.338 L1828.89 129.778 Z" fill="#000000" fill-rule="evenodd" fill-opacity="1" /><path clip-path="url(#clip480)" d="M1893.91 143.389 Q1895.51 140.518 1897.73 139.153 Q1899.95 137.787 1902.96 137.787 Q1907.01 137.787 1909.21 140.634 Q1911.41 143.458 1911.41 148.689 L1911.41 164.338 L1907.13 164.338 L1907.13 148.828 Q1907.13 145.102 1905.81 143.296 Q1904.49 141.49 1901.78 141.49 Q1898.47 141.49 1896.55 143.69 Q1894.63 145.889 1894.63 149.685 L1894.63 164.338 L1890.35 164.338 L1890.35 148.828 Q1890.35 145.078 1889.03 143.296 Q1887.71 141.49 1884.95 141.49 Q1881.69 141.49 1879.77 143.713 Q1877.85 145.912 1877.85 149.685 L1877.85 164.338 L1873.56 164.338 L1873.56 138.412 L1877.85 138.412 L1877.85 142.44 Q1879.3 140.055 1881.34 138.921 Q1883.38 137.787 1886.18 137.787 Q1889 137.787 1890.97 139.222 Q1892.96 140.657 1893.91 143.389 Z" fill="#000000" fill-rule="evenodd" fill-opacity="1" /><path clip-path="url(#clip480)" d="M1942.08 150.31 L1942.08 152.393 L1922.5 152.393 Q1922.78 156.791 1925.14 159.106 Q1927.52 161.398 1931.76 161.398 Q1934.21 161.398 1936.5 160.796 Q1938.82 160.194 1941.09 158.99 L1941.09 163.018 Q1938.8 163.99 1936.39 164.5 Q1933.98 165.009 1931.5 165.009 Q1925.3 165.009 1921.67 161.398 Q1918.05 157.787 1918.05 151.629 Q1918.05 145.264 1921.48 141.537 Q1924.93 137.787 1930.76 137.787 Q1935.99 137.787 1939.03 141.166 Q1942.08 144.523 1942.08 150.31 M1937.82 149.06 Q1937.78 145.565 1935.86 143.481 Q1933.96 141.398 1930.81 141.398 Q1927.24 141.398 1925.09 143.412 Q1922.96 145.426 1922.64 149.083 L1937.82 149.06 Z" fill="#000000" fill-rule="evenodd" fill-opacity="1" /><path clip-path="url(#clip480)" d="M1953.29 131.051 L1953.29 138.412 L1962.06 138.412 L1962.06 141.722 L1953.29 141.722 L1953.29 155.796 Q1953.29 158.967 1954.14 159.87 Q1955.02 160.773 1957.68 160.773 L1962.06 160.773 L1962.06 164.338 L1957.68 164.338 Q1952.75 164.338 1950.88 162.509 Q1949 160.657 1949 155.796 L1949 141.722 L1945.88 141.722 L1945.88 138.412 L1949 138.412 L1949 131.051 L1953.29 131.051 Z" fill="#000000" fill-rule="evenodd" fill-opacity="1" /><path clip-path="url(#clip480)" d="M1989.21 148.689 L1989.21 164.338 L1984.95 164.338 L1984.95 148.828 Q1984.95 145.148 1983.52 143.319 Q1982.08 141.49 1979.21 141.49 Q1975.76 141.49 1973.77 143.69 Q1971.78 145.889 1971.78 149.685 L1971.78 164.338 L1967.5 164.338 L1967.5 128.319 L1971.78 128.319 L1971.78 142.44 Q1973.31 140.102 1975.37 138.944 Q1977.45 137.787 1980.16 137.787 Q1984.63 137.787 1986.92 140.565 Q1989.21 143.319 1989.21 148.689 Z" fill="#000000" fill-rule="evenodd" fill-opacity="1" /><path clip-path="url(#clip480)" d="M2007.75 141.398 Q2004.33 141.398 2002.34 144.083 Q2000.35 146.745 2000.35 151.398 Q2000.35 156.051 2002.31 158.736 Q2004.3 161.398 2007.75 161.398 Q2011.16 161.398 2013.15 158.713 Q2015.14 156.027 2015.14 151.398 Q2015.14 146.791 2013.15 144.106 Q2011.16 141.398 2007.75 141.398 M2007.75 137.787 Q2013.31 137.787 2016.48 141.398 Q2019.65 145.009 2019.65 151.398 Q2019.65 157.764 2016.48 161.398 Q2013.31 165.009 2007.75 165.009 Q2002.17 165.009 1999 161.398 Q1995.86 157.764 1995.86 151.398 Q1995.86 145.009 1999 141.398 Q2002.17 137.787 2007.75 137.787 Z" fill="#000000" fill-rule="evenodd" fill-opacity="1" /><path clip-path="url(#clip480)" d="M2043.77 142.347 L2043.77 128.319 L2048.03 128.319 L2048.03 164.338 L2043.77 164.338 L2043.77 160.449 Q2042.43 162.763 2040.37 163.898 Q2038.33 165.009 2035.46 165.009 Q2030.76 165.009 2027.8 161.259 Q2024.86 157.509 2024.86 151.398 Q2024.86 145.287 2027.8 141.537 Q2030.76 137.787 2035.46 137.787 Q2038.33 137.787 2040.37 138.921 Q2042.43 140.032 2043.77 142.347 M2029.26 151.398 Q2029.26 156.097 2031.18 158.782 Q2033.12 161.444 2036.5 161.444 Q2039.88 161.444 2041.83 158.782 Q2043.77 156.097 2043.77 151.398 Q2043.77 146.699 2041.83 144.037 Q2039.88 141.352 2036.5 141.352 Q2033.12 141.352 2031.18 144.037 Q2029.26 146.699 2029.26 151.398 Z" fill="#000000" fill-rule="evenodd" fill-opacity="1" /><polyline clip-path="url(#clip480)" style="stroke:#e26f46; stroke-linecap:butt; stroke-linejoin:round; stroke-width:4; stroke-opacity:1; fill:none" stroke-dasharray="16, 10" points="
  1633.71,198.898 1777.63,198.898 
  "/>
<path clip-path="url(#clip480)" d="M1817.45 186.224 L1811.11 203.423 L1823.82 203.423 L1817.45 186.224 M1814.81 181.618 L1820.12 181.618 L1833.29 216.178 L1828.43 216.178 L1825.28 207.312 L1809.7 207.312 L1806.55 216.178 L1801.62 216.178 L1814.81 181.618 Z" fill="#000000" fill-rule="evenodd" fill-opacity="1" /><path clip-path="url(#clip480)" d="M1859.7 200.529 L1859.7 216.178 L1855.44 216.178 L1855.44 200.668 Q1855.44 196.988 1854 195.159 Q1852.57 193.33 1849.7 193.33 Q1846.25 193.33 1844.26 195.53 Q1842.27 197.729 1842.27 201.525 L1842.27 216.178 L1837.99 216.178 L1837.99 190.252 L1842.27 190.252 L1842.27 194.28 Q1843.8 191.942 1845.86 190.784 Q1847.94 189.627 1850.65 189.627 Q1855.12 189.627 1857.41 192.405 Q1859.7 195.159 1859.7 200.529 Z" fill="#000000" fill-rule="evenodd" fill-opacity="1" /><path clip-path="url(#clip480)" d="M1879.98 203.145 Q1874.81 203.145 1872.82 204.326 Q1870.83 205.506 1870.83 208.354 Q1870.83 210.622 1872.31 211.965 Q1873.82 213.284 1876.39 213.284 Q1879.93 213.284 1882.06 210.784 Q1884.21 208.261 1884.21 204.094 L1884.21 203.145 L1879.98 203.145 M1888.47 201.386 L1888.47 216.178 L1884.21 216.178 L1884.21 212.242 Q1882.75 214.603 1880.58 215.738 Q1878.4 216.849 1875.25 216.849 Q1871.27 216.849 1868.91 214.627 Q1866.57 212.381 1866.57 208.631 Q1866.57 204.256 1869.49 202.034 Q1872.43 199.812 1878.24 199.812 L1884.21 199.812 L1884.21 199.395 Q1884.21 196.455 1882.27 194.858 Q1880.35 193.238 1876.85 193.238 Q1874.63 193.238 1872.52 193.77 Q1870.42 194.303 1868.47 195.367 L1868.47 191.432 Q1870.81 190.53 1873.01 190.09 Q1875.21 189.627 1877.29 189.627 Q1882.92 189.627 1885.69 192.543 Q1888.47 195.46 1888.47 201.386 Z" fill="#000000" fill-rule="evenodd" fill-opacity="1" /><path clip-path="url(#clip480)" d="M1897.24 180.159 L1901.5 180.159 L1901.5 216.178 L1897.24 216.178 L1897.24 180.159 Z" fill="#000000" fill-rule="evenodd" fill-opacity="1" /><path clip-path="url(#clip480)" d="M1921.2 218.585 Q1919.4 223.215 1917.68 224.627 Q1915.97 226.039 1913.1 226.039 L1909.7 226.039 L1909.7 222.474 L1912.2 222.474 Q1913.96 222.474 1914.93 221.64 Q1915.9 220.807 1917.08 217.705 L1917.85 215.761 L1907.36 190.252 L1911.87 190.252 L1919.98 210.529 L1928.08 190.252 L1932.59 190.252 L1921.2 218.585 Z" fill="#000000" fill-rule="evenodd" fill-opacity="1" /><path clip-path="url(#clip480)" d="M1942.68 182.891 L1942.68 190.252 L1951.46 190.252 L1951.46 193.562 L1942.68 193.562 L1942.68 207.636 Q1942.68 210.807 1943.54 211.71 Q1944.42 212.613 1947.08 212.613 L1951.46 212.613 L1951.46 216.178 L1947.08 216.178 Q1942.15 216.178 1940.28 214.349 Q1938.4 212.497 1938.4 207.636 L1938.4 193.562 L1935.28 193.562 L1935.28 190.252 L1938.4 190.252 L1938.4 182.891 L1942.68 182.891 Z" fill="#000000" fill-rule="evenodd" fill-opacity="1" /><path clip-path="url(#clip480)" d="M1957.06 190.252 L1961.32 190.252 L1961.32 216.178 L1957.06 216.178 L1957.06 190.252 M1957.06 180.159 L1961.32 180.159 L1961.32 185.553 L1957.06 185.553 L1957.06 180.159 Z" fill="#000000" fill-rule="evenodd" fill-opacity="1" /><path clip-path="url(#clip480)" d="M1988.89 191.247 L1988.89 195.229 Q1987.08 194.233 1985.25 193.747 Q1983.45 193.238 1981.6 193.238 Q1977.45 193.238 1975.16 195.877 Q1972.87 198.492 1972.87 203.238 Q1972.87 207.983 1975.16 210.622 Q1977.45 213.238 1981.6 213.238 Q1983.45 213.238 1985.25 212.752 Q1987.08 212.242 1988.89 211.247 L1988.89 215.182 Q1987.11 216.016 1985.18 216.432 Q1983.29 216.849 1981.13 216.849 Q1975.28 216.849 1971.83 213.168 Q1968.38 209.488 1968.38 203.238 Q1968.38 196.895 1971.85 193.261 Q1975.35 189.627 1981.41 189.627 Q1983.38 189.627 1985.25 190.043 Q1987.13 190.437 1988.89 191.247 Z" fill="#000000" fill-rule="evenodd" fill-opacity="1" /><path clip-path="url(#clip480)" d="M2008.08 203.145 Q2002.92 203.145 2000.92 204.326 Q1998.93 205.506 1998.93 208.354 Q1998.93 210.622 2000.42 211.965 Q2001.92 213.284 2004.49 213.284 Q2008.03 213.284 2010.16 210.784 Q2012.31 208.261 2012.31 204.094 L2012.31 203.145 L2008.08 203.145 M2016.57 201.386 L2016.57 216.178 L2012.31 216.178 L2012.31 212.242 Q2010.86 214.603 2008.68 215.738 Q2006.5 216.849 2003.36 216.849 Q1999.37 216.849 1997.01 214.627 Q1994.67 212.381 1994.67 208.631 Q1994.67 204.256 1997.59 202.034 Q2000.53 199.812 2006.34 199.812 L2012.31 199.812 L2012.31 199.395 Q2012.31 196.455 2010.37 194.858 Q2008.45 193.238 2004.95 193.238 Q2002.73 193.238 2000.62 193.77 Q1998.52 194.303 1996.57 195.367 L1996.57 191.432 Q1998.91 190.53 2001.11 190.09 Q2003.31 189.627 2005.39 189.627 Q2011.02 189.627 2013.79 192.543 Q2016.57 195.46 2016.57 201.386 Z" fill="#000000" fill-rule="evenodd" fill-opacity="1" /><path clip-path="url(#clip480)" d="M2025.35 180.159 L2029.6 180.159 L2029.6 216.178 L2025.35 216.178 L2025.35 180.159 Z" fill="#000000" fill-rule="evenodd" fill-opacity="1" /><path clip-path="url(#clip480)" d="M2070.11 191.016 L2070.11 195.043 Q2068.31 194.117 2066.36 193.655 Q2064.42 193.192 2062.34 193.192 Q2059.16 193.192 2057.57 194.164 Q2055.99 195.136 2055.99 197.08 Q2055.99 198.562 2057.13 199.418 Q2058.26 200.252 2061.69 201.016 L2063.15 201.34 Q2067.68 202.312 2069.58 204.094 Q2071.5 205.854 2071.5 209.025 Q2071.5 212.636 2068.63 214.742 Q2065.79 216.849 2060.79 216.849 Q2058.7 216.849 2056.43 216.432 Q2054.19 216.039 2051.69 215.228 L2051.69 210.83 Q2054.05 212.057 2056.34 212.682 Q2058.63 213.284 2060.88 213.284 Q2063.89 213.284 2065.51 212.266 Q2067.13 211.224 2067.13 209.349 Q2067.13 207.613 2065.95 206.687 Q2064.79 205.761 2060.83 204.904 L2059.35 204.557 Q2055.39 203.724 2053.63 202.011 Q2051.87 200.275 2051.87 197.266 Q2051.87 193.608 2054.47 191.618 Q2057.06 189.627 2061.83 189.627 Q2064.19 189.627 2066.27 189.974 Q2068.35 190.321 2070.11 191.016 Z" fill="#000000" fill-rule="evenodd" fill-opacity="1" /><path clip-path="url(#clip480)" d="M2088.33 193.238 Q2084.91 193.238 2082.91 195.923 Q2080.92 198.585 2080.92 203.238 Q2080.92 207.891 2082.89 210.576 Q2084.88 213.238 2088.33 213.238 Q2091.73 213.238 2093.72 210.553 Q2095.72 207.867 2095.72 203.238 Q2095.72 198.631 2093.72 195.946 Q2091.73 193.238 2088.33 193.238 M2088.33 189.627 Q2093.89 189.627 2097.06 193.238 Q2100.23 196.849 2100.23 203.238 Q2100.23 209.604 2097.06 213.238 Q2093.89 216.849 2088.33 216.849 Q2082.75 216.849 2079.58 213.238 Q2076.43 209.604 2076.43 203.238 Q2076.43 196.849 2079.58 193.238 Q2082.75 189.627 2088.33 189.627 Z" fill="#000000" fill-rule="evenodd" fill-opacity="1" /><path clip-path="url(#clip480)" d="M2107.29 180.159 L2111.55 180.159 L2111.55 216.178 L2107.29 216.178 L2107.29 180.159 Z" fill="#000000" fill-rule="evenodd" fill-opacity="1" /><path clip-path="url(#clip480)" d="M2120.02 205.946 L2120.02 190.252 L2124.28 190.252 L2124.28 205.784 Q2124.28 209.465 2125.72 211.316 Q2127.15 213.145 2130.02 213.145 Q2133.47 213.145 2135.46 210.946 Q2137.47 208.747 2137.47 204.951 L2137.47 190.252 L2141.73 190.252 L2141.73 216.178 L2137.47 216.178 L2137.47 212.196 Q2135.92 214.557 2133.86 215.715 Q2131.83 216.849 2129.12 216.849 Q2124.65 216.849 2122.34 214.071 Q2120.02 211.293 2120.02 205.946 M2130.74 189.627 L2130.74 189.627 Z" fill="#000000" fill-rule="evenodd" fill-opacity="1" /><path clip-path="url(#clip480)" d="M2154.72 182.891 L2154.72 190.252 L2163.49 190.252 L2163.49 193.562 L2154.72 193.562 L2154.72 207.636 Q2154.72 210.807 2155.58 211.71 Q2156.46 212.613 2159.12 212.613 L2163.49 212.613 L2163.49 216.178 L2159.12 216.178 Q2154.19 216.178 2152.31 214.349 Q2150.44 212.497 2150.44 207.636 L2150.44 193.562 L2147.31 193.562 L2147.31 190.252 L2150.44 190.252 L2150.44 182.891 L2154.72 182.891 Z" fill="#000000" fill-rule="evenodd" fill-opacity="1" /><path clip-path="url(#clip480)" d="M2169.09 190.252 L2173.35 190.252 L2173.35 216.178 L2169.09 216.178 L2169.09 190.252 M2169.09 180.159 L2173.35 180.159 L2173.35 185.553 L2169.09 185.553 L2169.09 180.159 Z" fill="#000000" fill-rule="evenodd" fill-opacity="1" /><path clip-path="url(#clip480)" d="M2192.31 193.238 Q2188.89 193.238 2186.9 195.923 Q2184.91 198.585 2184.91 203.238 Q2184.91 207.891 2186.87 210.576 Q2188.86 213.238 2192.31 213.238 Q2195.72 213.238 2197.71 210.553 Q2199.7 207.867 2199.7 203.238 Q2199.7 198.631 2197.71 195.946 Q2195.72 193.238 2192.31 193.238 M2192.31 189.627 Q2197.87 189.627 2201.04 193.238 Q2204.21 196.849 2204.21 203.238 Q2204.21 209.604 2201.04 213.238 Q2197.87 216.849 2192.31 216.849 Q2186.73 216.849 2183.56 213.238 Q2180.41 209.604 2180.41 203.238 Q2180.41 196.849 2183.56 193.238 Q2186.73 189.627 2192.31 189.627 Z" fill="#000000" fill-rule="evenodd" fill-opacity="1" /><path clip-path="url(#clip480)" d="M2232.82 200.529 L2232.82 216.178 L2228.56 216.178 L2228.56 200.668 Q2228.56 196.988 2227.13 195.159 Q2225.69 193.33 2222.82 193.33 Q2219.37 193.33 2217.38 195.53 Q2215.39 197.729 2215.39 201.525 L2215.39 216.178 L2211.11 216.178 L2211.11 190.252 L2215.39 190.252 L2215.39 194.28 Q2216.92 191.942 2218.98 190.784 Q2221.06 189.627 2223.77 189.627 Q2228.24 189.627 2230.53 192.405 Q2232.82 195.159 2232.82 200.529 Z" fill="#000000" fill-rule="evenodd" fill-opacity="1" /></svg>
