<?xml version="1.0" encoding="utf-8"?>
<svg xmlns="http://www.w3.org/2000/svg" xmlns:xlink="http://www.w3.org/1999/xlink" width="600" height="400" viewBox="0 0 2400 1600">
<defs>
  <clipPath id="clip090">
    <rect x="0" y="0" width="2400" height="1600"/>
  </clipPath>
</defs>
<path clip-path="url(#clip090)" d="
M0 1600 L2400 1600 L2400 0 L0 0  Z
  " fill="#ffffff" fill-rule="evenodd" fill-opacity="1"/>
<defs>
  <clipPath id="clip091">
    <rect x="480" y="0" width="1681" height="1600"/>
  </clipPath>
</defs>
<path clip-path="url(#clip090)" d="
M234.125 1423.18 L2352.76 1423.18 L2352.76 123.472 L234.125 123.472  Z
  " fill="#ffffff" fill-rule="evenodd" fill-opacity="1"/>
<defs>
  <clipPath id="clip092">
    <rect x="234" y="123" width="2120" height="1301"/>
  </clipPath>
</defs>
<polyline clip-path="url(#clip092)" style="stroke:#000000; stroke-linecap:butt; stroke-linejoin:round; stroke-width:2; stroke-opacity:0.1; fill:none" points="
  294.087,1423.18 294.087,123.472 
  "/>
<polyline clip-path="url(#clip092)" style="stroke:#000000; stroke-linecap:butt; stroke-linejoin:round; stroke-width:2; stroke-opacity:0.1; fill:none" points="
  793.014,1423.18 793.014,123.472 
  "/>
<polyline clip-path="url(#clip092)" style="stroke:#000000; stroke-linecap:butt; stroke-linejoin:round; stroke-width:2; stroke-opacity:0.1; fill:none" points="
  1291.94,1423.18 1291.94,123.472 
  "/>
<polyline clip-path="url(#clip092)" style="stroke:#000000; stroke-linecap:butt; stroke-linejoin:round; stroke-width:2; stroke-opacity:0.1; fill:none" points="
  1790.87,1423.18 1790.87,123.472 
  "/>
<polyline clip-path="url(#clip092)" style="stroke:#000000; stroke-linecap:butt; stroke-linejoin:round; stroke-width:2; stroke-opacity:0.1; fill:none" points="
  2289.8,1423.18 2289.8,123.472 
  "/>
<polyline clip-path="url(#clip090)" style="stroke:#000000; stroke-linecap:butt; stroke-linejoin:round; stroke-width:4; stroke-opacity:1; fill:none" points="
  234.125,1423.18 2352.76,1423.18 
  "/>
<polyline clip-path="url(#clip090)" style="stroke:#000000; stroke-linecap:butt; stroke-linejoin:round; stroke-width:4; stroke-opacity:1; fill:none" points="
  294.087,1423.18 294.087,1404.28 
  "/>
<polyline clip-path="url(#clip090)" style="stroke:#000000; stroke-linecap:butt; stroke-linejoin:round; stroke-width:4; stroke-opacity:1; fill:none" points="
  793.014,1423.18 793.014,1404.28 
  "/>
<polyline clip-path="url(#clip090)" style="stroke:#000000; stroke-linecap:butt; stroke-linejoin:round; stroke-width:4; stroke-opacity:1; fill:none" points="
  1291.94,1423.18 1291.94,1404.28 
  "/>
<polyline clip-path="url(#clip090)" style="stroke:#000000; stroke-linecap:butt; stroke-linejoin:round; stroke-width:4; stroke-opacity:1; fill:none" points="
  1790.87,1423.18 1790.87,1404.28 
  "/>
<polyline clip-path="url(#clip090)" style="stroke:#000000; stroke-linecap:butt; stroke-linejoin:round; stroke-width:4; stroke-opacity:1; fill:none" points="
  2289.8,1423.18 2289.8,1404.28 
  "/>
<path clip-path="url(#clip090)" d="M271.471 1454.1 Q267.86 1454.1 266.031 1457.66 Q264.226 1461.2 264.226 1468.33 Q264.226 1475.44 266.031 1479.01 Q267.86 1482.55 271.471 1482.55 Q275.105 1482.55 276.911 1479.01 Q278.74 1475.44 278.74 1468.33 Q278.74 1461.2 276.911 1457.66 Q275.105 1454.1 271.471 1454.1 M271.471 1450.39 Q277.281 1450.39 280.337 1455 Q283.415 1459.58 283.415 1468.33 Q283.415 1477.06 280.337 1481.67 Q277.281 1486.25 271.471 1486.25 Q265.661 1486.25 262.582 1481.67 Q259.527 1477.06 259.527 1468.33 Q259.527 1459.58 262.582 1455 Q265.661 1450.39 271.471 1450.39 Z" fill="#000000" fill-rule="evenodd" fill-opacity="1" /><path clip-path="url(#clip090)" d="M291.633 1479.7 L296.517 1479.7 L296.517 1485.58 L291.633 1485.58 L291.633 1479.7 Z" fill="#000000" fill-rule="evenodd" fill-opacity="1" /><path clip-path="url(#clip090)" d="M316.702 1454.1 Q313.091 1454.1 311.263 1457.66 Q309.457 1461.2 309.457 1468.33 Q309.457 1475.44 311.263 1479.01 Q313.091 1482.55 316.702 1482.55 Q320.337 1482.55 322.142 1479.01 Q323.971 1475.44 323.971 1468.33 Q323.971 1461.2 322.142 1457.66 Q320.337 1454.1 316.702 1454.1 M316.702 1450.39 Q322.512 1450.39 325.568 1455 Q328.647 1459.58 328.647 1468.33 Q328.647 1477.06 325.568 1481.67 Q322.512 1486.25 316.702 1486.25 Q310.892 1486.25 307.813 1481.67 Q304.758 1477.06 304.758 1468.33 Q304.758 1459.58 307.813 1455 Q310.892 1450.39 316.702 1450.39 Z" fill="#000000" fill-rule="evenodd" fill-opacity="1" /><path clip-path="url(#clip090)" d="M764.75 1481.64 L781.07 1481.64 L781.07 1485.58 L759.125 1485.58 L759.125 1481.64 Q761.787 1478.89 766.371 1474.26 Q770.977 1469.61 772.158 1468.27 Q774.403 1465.74 775.283 1464.01 Q776.186 1462.25 776.186 1460.56 Q776.186 1457.8 774.241 1456.07 Q772.32 1454.33 769.218 1454.33 Q767.019 1454.33 764.565 1455.09 Q762.135 1455.86 759.357 1457.41 L759.357 1452.69 Q762.181 1451.55 764.635 1450.97 Q767.088 1450.39 769.125 1450.39 Q774.496 1450.39 777.69 1453.08 Q780.885 1455.77 780.885 1460.26 Q780.885 1462.39 780.074 1464.31 Q779.287 1466.2 777.181 1468.8 Q776.602 1469.47 773.5 1472.69 Q770.399 1475.88 764.75 1481.64 Z" fill="#000000" fill-rule="evenodd" fill-opacity="1" /><path clip-path="url(#clip090)" d="M790.885 1479.7 L795.769 1479.7 L795.769 1485.58 L790.885 1485.58 L790.885 1479.7 Z" fill="#000000" fill-rule="evenodd" fill-opacity="1" /><path clip-path="url(#clip090)" d="M806 1451.02 L824.357 1451.02 L824.357 1454.96 L810.283 1454.96 L810.283 1463.43 Q811.301 1463.08 812.32 1462.92 Q813.338 1462.73 814.357 1462.73 Q820.144 1462.73 823.523 1465.9 Q826.903 1469.08 826.903 1474.49 Q826.903 1480.07 823.431 1483.17 Q819.958 1486.25 813.639 1486.25 Q811.463 1486.25 809.195 1485.88 Q806.949 1485.51 804.542 1484.77 L804.542 1480.07 Q806.625 1481.2 808.847 1481.76 Q811.07 1482.32 813.546 1482.32 Q817.551 1482.32 819.889 1480.21 Q822.227 1478.1 822.227 1474.49 Q822.227 1470.88 819.889 1468.77 Q817.551 1466.67 813.546 1466.67 Q811.671 1466.67 809.796 1467.08 Q807.945 1467.5 806 1468.38 L806 1451.02 Z" fill="#000000" fill-rule="evenodd" fill-opacity="1" /><path clip-path="url(#clip090)" d="M1259.11 1451.02 L1277.46 1451.02 L1277.46 1454.96 L1263.39 1454.96 L1263.39 1463.43 Q1264.41 1463.08 1265.43 1462.92 Q1266.44 1462.73 1267.46 1462.73 Q1273.25 1462.73 1276.63 1465.9 Q1280.01 1469.08 1280.01 1474.49 Q1280.01 1480.07 1276.54 1483.17 Q1273.06 1486.25 1266.74 1486.25 Q1264.57 1486.25 1262.3 1485.88 Q1260.06 1485.51 1257.65 1484.77 L1257.65 1480.07 Q1259.73 1481.2 1261.95 1481.76 Q1264.18 1482.32 1266.65 1482.32 Q1270.66 1482.32 1272.99 1480.21 Q1275.33 1478.1 1275.33 1474.49 Q1275.33 1470.88 1272.99 1468.77 Q1270.66 1466.67 1266.65 1466.67 Q1264.78 1466.67 1262.9 1467.08 Q1261.05 1467.5 1259.11 1468.38 L1259.11 1451.02 Z" fill="#000000" fill-rule="evenodd" fill-opacity="1" /><path clip-path="url(#clip090)" d="M1289.22 1479.7 L1294.11 1479.7 L1294.11 1485.58 L1289.22 1485.58 L1289.22 1479.7 Z" fill="#000000" fill-rule="evenodd" fill-opacity="1" /><path clip-path="url(#clip090)" d="M1314.29 1454.1 Q1310.68 1454.1 1308.85 1457.66 Q1307.05 1461.2 1307.05 1468.33 Q1307.05 1475.44 1308.85 1479.01 Q1310.68 1482.55 1314.29 1482.55 Q1317.93 1482.55 1319.73 1479.01 Q1321.56 1475.44 1321.56 1468.33 Q1321.56 1461.2 1319.73 1457.66 Q1317.93 1454.1 1314.29 1454.1 M1314.29 1450.39 Q1320.1 1450.39 1323.16 1455 Q1326.24 1459.58 1326.24 1468.33 Q1326.24 1477.06 1323.16 1481.67 Q1320.1 1486.25 1314.29 1486.25 Q1308.48 1486.25 1305.4 1481.67 Q1302.35 1477.06 1302.35 1468.33 Q1302.35 1459.58 1305.4 1455 Q1308.48 1450.39 1314.29 1450.39 Z" fill="#000000" fill-rule="evenodd" fill-opacity="1" /><path clip-path="url(#clip090)" d="M1757.19 1451.02 L1779.41 1451.02 L1779.41 1453.01 L1766.86 1485.58 L1761.98 1485.58 L1773.79 1454.96 L1757.19 1454.96 L1757.19 1451.02 Z" fill="#000000" fill-rule="evenodd" fill-opacity="1" /><path clip-path="url(#clip090)" d="M1788.53 1479.7 L1793.42 1479.7 L1793.42 1485.58 L1788.53 1485.58 L1788.53 1479.7 Z" fill="#000000" fill-rule="evenodd" fill-opacity="1" /><path clip-path="url(#clip090)" d="M1803.65 1451.02 L1822 1451.02 L1822 1454.96 L1807.93 1454.96 L1807.93 1463.43 Q1808.95 1463.08 1809.97 1462.92 Q1810.98 1462.73 1812 1462.73 Q1817.79 1462.73 1821.17 1465.9 Q1824.55 1469.08 1824.55 1474.49 Q1824.55 1480.07 1821.08 1483.17 Q1817.6 1486.25 1811.29 1486.25 Q1809.11 1486.25 1806.84 1485.88 Q1804.6 1485.51 1802.19 1484.77 L1802.19 1480.07 Q1804.27 1481.2 1806.49 1481.76 Q1808.72 1482.32 1811.19 1482.32 Q1815.2 1482.32 1817.54 1480.21 Q1819.87 1478.1 1819.87 1474.49 Q1819.87 1470.88 1817.54 1468.77 Q1815.2 1466.67 1811.19 1466.67 Q1809.32 1466.67 1807.44 1467.08 Q1805.59 1467.5 1803.65 1468.38 L1803.65 1451.02 Z" fill="#000000" fill-rule="evenodd" fill-opacity="1" /><path clip-path="url(#clip090)" d="M2241.87 1481.64 L2249.51 1481.64 L2249.51 1455.28 L2241.2 1456.95 L2241.2 1452.69 L2249.46 1451.02 L2254.14 1451.02 L2254.14 1481.64 L2261.78 1481.64 L2261.78 1485.58 L2241.87 1485.58 L2241.87 1481.64 Z" fill="#000000" fill-rule="evenodd" fill-opacity="1" /><path clip-path="url(#clip090)" d="M2281.22 1454.1 Q2277.61 1454.1 2275.78 1457.66 Q2273.97 1461.2 2273.97 1468.33 Q2273.97 1475.44 2275.78 1479.01 Q2277.61 1482.55 2281.22 1482.55 Q2284.85 1482.55 2286.66 1479.01 Q2288.49 1475.44 2288.49 1468.33 Q2288.49 1461.2 2286.66 1457.66 Q2284.85 1454.1 2281.22 1454.1 M2281.22 1450.39 Q2287.03 1450.39 2290.09 1455 Q2293.16 1459.58 2293.16 1468.33 Q2293.16 1477.06 2290.09 1481.67 Q2287.03 1486.25 2281.22 1486.25 Q2275.41 1486.25 2272.33 1481.67 Q2269.28 1477.06 2269.28 1468.33 Q2269.28 1459.58 2272.33 1455 Q2275.41 1450.39 2281.22 1450.39 Z" fill="#000000" fill-rule="evenodd" fill-opacity="1" /><path clip-path="url(#clip090)" d="M2301.38 1479.7 L2306.27 1479.7 L2306.27 1485.58 L2301.38 1485.58 L2301.38 1479.7 Z" fill="#000000" fill-rule="evenodd" fill-opacity="1" /><path clip-path="url(#clip090)" d="M2326.45 1454.1 Q2322.84 1454.1 2321.01 1457.66 Q2319.21 1461.2 2319.21 1468.33 Q2319.21 1475.44 2321.01 1479.01 Q2322.84 1482.55 2326.45 1482.55 Q2330.09 1482.55 2331.89 1479.01 Q2333.72 1475.44 2333.72 1468.33 Q2333.72 1461.2 2331.89 1457.66 Q2330.09 1454.1 2326.45 1454.1 M2326.45 1450.39 Q2332.26 1450.39 2335.32 1455 Q2338.4 1459.58 2338.4 1468.33 Q2338.4 1477.06 2335.32 1481.67 Q2332.26 1486.25 2326.45 1486.25 Q2320.64 1486.25 2317.56 1481.67 Q2314.51 1477.06 2314.51 1468.33 Q2314.51 1459.58 2317.56 1455 Q2320.64 1450.39 2326.45 1450.39 Z" fill="#000000" fill-rule="evenodd" fill-opacity="1" /><path clip-path="url(#clip090)" d="M1232.6 1522.27 L1232.6 1532.4 L1244.66 1532.4 L1244.66 1536.95 L1232.6 1536.95 L1232.6 1556.3 Q1232.6 1560.66 1233.78 1561.9 Q1234.99 1563.14 1238.65 1563.14 L1244.66 1563.14 L1244.66 1568.04 L1238.65 1568.04 Q1231.87 1568.04 1229.29 1565.53 Q1226.71 1562.98 1226.71 1556.3 L1226.71 1536.95 L1222.42 1536.95 L1222.42 1532.4 L1226.71 1532.4 L1226.71 1522.27 L1232.6 1522.27 Z" fill="#000000" fill-rule="evenodd" fill-opacity="1" /><path clip-path="url(#clip090)" d="M1252.37 1532.4 L1258.22 1532.4 L1258.22 1568.04 L1252.37 1568.04 L1252.37 1532.4 M1252.37 1518.52 L1258.22 1518.52 L1258.22 1525.93 L1252.37 1525.93 L1252.37 1518.52 Z" fill="#000000" fill-rule="evenodd" fill-opacity="1" /><path clip-path="url(#clip090)" d="M1298.23 1539.24 Q1300.43 1535.29 1303.48 1533.41 Q1306.54 1531.54 1310.68 1531.54 Q1316.25 1531.54 1319.27 1535.45 Q1322.29 1539.33 1322.29 1546.53 L1322.29 1568.04 L1316.4 1568.04 L1316.4 1546.72 Q1316.4 1541.59 1314.59 1539.11 Q1312.78 1536.63 1309.05 1536.63 Q1304.5 1536.63 1301.86 1539.65 Q1299.22 1542.68 1299.22 1547.9 L1299.22 1568.04 L1293.33 1568.04 L1293.33 1546.72 Q1293.33 1541.56 1291.52 1539.11 Q1289.7 1536.63 1285.91 1536.63 Q1281.43 1536.63 1278.78 1539.68 Q1276.14 1542.71 1276.14 1547.9 L1276.14 1568.04 L1270.25 1568.04 L1270.25 1532.4 L1276.14 1532.4 L1276.14 1537.93 Q1278.15 1534.66 1280.95 1533.1 Q1283.75 1531.54 1287.6 1531.54 Q1291.48 1531.54 1294.19 1533.51 Q1296.93 1535.48 1298.23 1539.24 Z" fill="#000000" fill-rule="evenodd" fill-opacity="1" /><path clip-path="url(#clip090)" d="M1364.47 1548.76 L1364.47 1551.62 L1337.54 1551.62 Q1337.92 1557.67 1341.17 1560.85 Q1344.45 1564 1350.27 1564 Q1353.64 1564 1356.8 1563.17 Q1359.98 1562.35 1363.1 1560.69 L1363.1 1566.23 Q1359.95 1567.57 1356.64 1568.27 Q1353.33 1568.97 1349.92 1568.97 Q1341.39 1568.97 1336.39 1564 Q1331.43 1559.04 1331.43 1550.57 Q1331.43 1541.82 1336.14 1536.69 Q1340.88 1531.54 1348.9 1531.54 Q1356.1 1531.54 1360.26 1536.18 Q1364.47 1540.8 1364.47 1548.76 M1358.61 1547.04 Q1358.55 1542.23 1355.9 1539.37 Q1353.29 1536.5 1348.97 1536.5 Q1344.06 1536.5 1341.1 1539.27 Q1338.18 1542.04 1337.73 1547.07 L1358.61 1547.04 Z" fill="#000000" fill-rule="evenodd" fill-opacity="1" /><polyline clip-path="url(#clip092)" style="stroke:#000000; stroke-linecap:butt; stroke-linejoin:round; stroke-width:2; stroke-opacity:0.1; fill:none" points="
  234.125,1386.4 2352.76,1386.4 
  "/>
<polyline clip-path="url(#clip092)" style="stroke:#000000; stroke-linecap:butt; stroke-linejoin:round; stroke-width:2; stroke-opacity:0.1; fill:none" points="
  234.125,1079.86 2352.76,1079.86 
  "/>
<polyline clip-path="url(#clip092)" style="stroke:#000000; stroke-linecap:butt; stroke-linejoin:round; stroke-width:2; stroke-opacity:0.1; fill:none" points="
  234.125,773.326 2352.76,773.326 
  "/>
<polyline clip-path="url(#clip092)" style="stroke:#000000; stroke-linecap:butt; stroke-linejoin:round; stroke-width:2; stroke-opacity:0.1; fill:none" points="
  234.125,466.791 2352.76,466.791 
  "/>
<polyline clip-path="url(#clip092)" style="stroke:#000000; stroke-linecap:butt; stroke-linejoin:round; stroke-width:2; stroke-opacity:0.1; fill:none" points="
  234.125,160.256 2352.76,160.256 
  "/>
<polyline clip-path="url(#clip090)" style="stroke:#000000; stroke-linecap:butt; stroke-linejoin:round; stroke-width:4; stroke-opacity:1; fill:none" points="
  234.125,1423.18 234.125,123.472 
  "/>
<polyline clip-path="url(#clip090)" style="stroke:#000000; stroke-linecap:butt; stroke-linejoin:round; stroke-width:4; stroke-opacity:1; fill:none" points="
  234.125,1386.4 253.023,1386.4 
  "/>
<polyline clip-path="url(#clip090)" style="stroke:#000000; stroke-linecap:butt; stroke-linejoin:round; stroke-width:4; stroke-opacity:1; fill:none" points="
  234.125,1079.86 253.023,1079.86 
  "/>
<polyline clip-path="url(#clip090)" style="stroke:#000000; stroke-linecap:butt; stroke-linejoin:round; stroke-width:4; stroke-opacity:1; fill:none" points="
  234.125,773.326 253.023,773.326 
  "/>
<polyline clip-path="url(#clip090)" style="stroke:#000000; stroke-linecap:butt; stroke-linejoin:round; stroke-width:4; stroke-opacity:1; fill:none" points="
  234.125,466.791 253.023,466.791 
  "/>
<polyline clip-path="url(#clip090)" style="stroke:#000000; stroke-linecap:butt; stroke-linejoin:round; stroke-width:4; stroke-opacity:1; fill:none" points="
  234.125,160.256 253.023,160.256 
  "/>
<path clip-path="url(#clip090)" d="M186.181 1372.19 Q182.57 1372.19 180.741 1375.76 Q178.936 1379.3 178.936 1386.43 Q178.936 1393.54 180.741 1397.1 Q182.57 1400.64 186.181 1400.64 Q189.815 1400.64 191.621 1397.1 Q193.45 1393.54 193.45 1386.43 Q193.45 1379.3 191.621 1375.76 Q189.815 1372.19 186.181 1372.19 M186.181 1368.49 Q191.991 1368.49 195.047 1373.1 Q198.125 1377.68 198.125 1386.43 Q198.125 1395.16 195.047 1399.76 Q191.991 1404.35 186.181 1404.35 Q180.371 1404.35 177.292 1399.76 Q174.237 1395.16 174.237 1386.43 Q174.237 1377.68 177.292 1373.1 Q180.371 1368.49 186.181 1368.49 Z" fill="#000000" fill-rule="evenodd" fill-opacity="1" /><path clip-path="url(#clip090)" d="M146.066 1062.58 L164.422 1062.58 L164.422 1066.52 L150.348 1066.52 L150.348 1074.99 Q151.366 1074.64 152.385 1074.48 Q153.403 1074.29 154.422 1074.29 Q160.209 1074.29 163.589 1077.47 Q166.968 1080.64 166.968 1086.05 Q166.968 1091.63 163.496 1094.73 Q160.024 1097.81 153.704 1097.81 Q151.528 1097.81 149.26 1097.44 Q147.015 1097.07 144.607 1096.33 L144.607 1091.63 Q146.691 1092.77 148.913 1093.32 Q151.135 1093.88 153.612 1093.88 Q157.616 1093.88 159.954 1091.77 Q162.292 1089.66 162.292 1086.05 Q162.292 1082.44 159.954 1080.34 Q157.616 1078.23 153.612 1078.23 Q151.737 1078.23 149.862 1078.65 Q148.01 1079.06 146.066 1079.94 L146.066 1062.58 Z" fill="#000000" fill-rule="evenodd" fill-opacity="1" /><path clip-path="url(#clip090)" d="M186.181 1065.66 Q182.57 1065.66 180.741 1069.22 Q178.936 1072.77 178.936 1079.9 Q178.936 1087 180.741 1090.57 Q182.57 1094.11 186.181 1094.11 Q189.815 1094.11 191.621 1090.57 Q193.45 1087 193.45 1079.9 Q193.45 1072.77 191.621 1069.22 Q189.815 1065.66 186.181 1065.66 M186.181 1061.96 Q191.991 1061.96 195.047 1066.56 Q198.125 1071.15 198.125 1079.9 Q198.125 1088.62 195.047 1093.23 Q191.991 1097.81 186.181 1097.81 Q180.371 1097.81 177.292 1093.23 Q174.237 1088.62 174.237 1079.9 Q174.237 1071.15 177.292 1066.56 Q180.371 1061.96 186.181 1061.96 Z" fill="#000000" fill-rule="evenodd" fill-opacity="1" /><path clip-path="url(#clip090)" d="M116.668 786.671 L124.306 786.671 L124.306 760.305 L115.996 761.972 L115.996 757.713 L124.26 756.046 L128.936 756.046 L128.936 786.671 L136.575 786.671 L136.575 790.606 L116.668 790.606 L116.668 786.671 Z" fill="#000000" fill-rule="evenodd" fill-opacity="1" /><path clip-path="url(#clip090)" d="M156.019 759.125 Q152.408 759.125 150.579 762.689 Q148.774 766.231 148.774 773.361 Q148.774 780.467 150.579 784.032 Q152.408 787.574 156.019 787.574 Q159.653 787.574 161.459 784.032 Q163.288 780.467 163.288 773.361 Q163.288 766.231 161.459 762.689 Q159.653 759.125 156.019 759.125 M156.019 755.421 Q161.829 755.421 164.885 760.027 Q167.964 764.611 167.964 773.361 Q167.964 782.088 164.885 786.694 Q161.829 791.277 156.019 791.277 Q150.209 791.277 147.13 786.694 Q144.075 782.088 144.075 773.361 Q144.075 764.611 147.13 760.027 Q150.209 755.421 156.019 755.421 Z" fill="#000000" fill-rule="evenodd" fill-opacity="1" /><path clip-path="url(#clip090)" d="M186.181 759.125 Q182.57 759.125 180.741 762.689 Q178.936 766.231 178.936 773.361 Q178.936 780.467 180.741 784.032 Q182.57 787.574 186.181 787.574 Q189.815 787.574 191.621 784.032 Q193.45 780.467 193.45 773.361 Q193.45 766.231 191.621 762.689 Q189.815 759.125 186.181 759.125 M186.181 755.421 Q191.991 755.421 195.047 760.027 Q198.125 764.611 198.125 773.361 Q198.125 782.088 195.047 786.694 Q191.991 791.277 186.181 791.277 Q180.371 791.277 177.292 786.694 Q174.237 782.088 174.237 773.361 Q174.237 764.611 177.292 760.027 Q180.371 755.421 186.181 755.421 Z" fill="#000000" fill-rule="evenodd" fill-opacity="1" /><path clip-path="url(#clip090)" d="M116.668 480.136 L124.306 480.136 L124.306 453.77 L115.996 455.437 L115.996 451.178 L124.26 449.511 L128.936 449.511 L128.936 480.136 L136.575 480.136 L136.575 484.071 L116.668 484.071 L116.668 480.136 Z" fill="#000000" fill-rule="evenodd" fill-opacity="1" /><path clip-path="url(#clip090)" d="M146.066 449.511 L164.422 449.511 L164.422 453.446 L150.348 453.446 L150.348 461.918 Q151.366 461.571 152.385 461.409 Q153.403 461.224 154.422 461.224 Q160.209 461.224 163.589 464.395 Q166.968 467.567 166.968 472.983 Q166.968 478.562 163.496 481.664 Q160.024 484.742 153.704 484.742 Q151.528 484.742 149.26 484.372 Q147.015 484.002 144.607 483.261 L144.607 478.562 Q146.691 479.696 148.913 480.252 Q151.135 480.807 153.612 480.807 Q157.616 480.807 159.954 478.701 Q162.292 476.594 162.292 472.983 Q162.292 469.372 159.954 467.266 Q157.616 465.159 153.612 465.159 Q151.737 465.159 149.862 465.576 Q148.01 465.993 146.066 466.872 L146.066 449.511 Z" fill="#000000" fill-rule="evenodd" fill-opacity="1" /><path clip-path="url(#clip090)" d="M186.181 452.59 Q182.57 452.59 180.741 456.155 Q178.936 459.696 178.936 466.826 Q178.936 473.932 180.741 477.497 Q182.57 481.039 186.181 481.039 Q189.815 481.039 191.621 477.497 Q193.45 473.932 193.45 466.826 Q193.45 459.696 191.621 456.155 Q189.815 452.59 186.181 452.59 M186.181 448.886 Q191.991 448.886 195.047 453.493 Q198.125 458.076 198.125 466.826 Q198.125 475.553 195.047 480.159 Q191.991 484.742 186.181 484.742 Q180.371 484.742 177.292 480.159 Q174.237 475.553 174.237 466.826 Q174.237 458.076 177.292 453.493 Q180.371 448.886 186.181 448.886 Z" fill="#000000" fill-rule="evenodd" fill-opacity="1" /><path clip-path="url(#clip090)" d="M119.885 173.601 L136.204 173.601 L136.204 177.536 L114.26 177.536 L114.26 173.601 Q116.922 170.847 121.505 166.217 Q126.112 161.564 127.292 160.222 Q129.538 157.698 130.417 155.962 Q131.32 154.203 131.32 152.513 Q131.32 149.759 129.376 148.023 Q127.455 146.286 124.353 146.286 Q122.154 146.286 119.7 147.05 Q117.269 147.814 114.492 149.365 L114.492 144.643 Q117.316 143.509 119.769 142.93 Q122.223 142.351 124.26 142.351 Q129.63 142.351 132.825 145.036 Q136.019 147.722 136.019 152.212 Q136.019 154.342 135.209 156.263 Q134.422 158.161 132.316 160.754 Q131.737 161.425 128.635 164.643 Q125.533 167.837 119.885 173.601 Z" fill="#000000" fill-rule="evenodd" fill-opacity="1" /><path clip-path="url(#clip090)" d="M156.019 146.055 Q152.408 146.055 150.579 149.62 Q148.774 153.161 148.774 160.291 Q148.774 167.397 150.579 170.962 Q152.408 174.504 156.019 174.504 Q159.653 174.504 161.459 170.962 Q163.288 167.397 163.288 160.291 Q163.288 153.161 161.459 149.62 Q159.653 146.055 156.019 146.055 M156.019 142.351 Q161.829 142.351 164.885 146.958 Q167.964 151.541 167.964 160.291 Q167.964 169.018 164.885 173.624 Q161.829 178.208 156.019 178.208 Q150.209 178.208 147.13 173.624 Q144.075 169.018 144.075 160.291 Q144.075 151.541 147.13 146.958 Q150.209 142.351 156.019 142.351 Z" fill="#000000" fill-rule="evenodd" fill-opacity="1" /><path clip-path="url(#clip090)" d="M186.181 146.055 Q182.57 146.055 180.741 149.62 Q178.936 153.161 178.936 160.291 Q178.936 167.397 180.741 170.962 Q182.57 174.504 186.181 174.504 Q189.815 174.504 191.621 170.962 Q193.45 167.397 193.45 160.291 Q193.45 153.161 191.621 149.62 Q189.815 146.055 186.181 146.055 M186.181 142.351 Q191.991 142.351 195.047 146.958 Q198.125 151.541 198.125 160.291 Q198.125 169.018 195.047 173.624 Q191.991 178.208 186.181 178.208 Q180.371 178.208 177.292 173.624 Q174.237 169.018 174.237 160.291 Q174.237 151.541 177.292 146.958 Q180.371 142.351 186.181 142.351 Z" fill="#000000" fill-rule="evenodd" fill-opacity="1" /><path clip-path="url(#clip090)" d="M35.3266 985.829 L35.3266 995.091 L45.9574 997.765 L45.9574 988.439 L35.3266 985.829 M17.2162 990.603 L30.4251 993.914 L30.4251 984.62 L17.2162 981.278 L17.2162 976.185 L30.4251 979.463 L30.4251 969.533 L35.3266 969.533 L35.3266 980.705 L45.9574 983.315 L45.9574 973.193 L50.8271 973.193 L50.8271 984.556 L64.0042 987.866 L64.0042 992.959 L50.8271 989.68 L50.8271 999.006 L64.0042 1002.28 L64.0042 1007.41 L50.8271 1004.1 L50.8271 1014.12 L45.9574 1014.12 L45.9574 1002.92 L35.3266 1000.25 L35.3266 1010.5 L30.4251 1010.5 L30.4251 999.006 L17.2162 995.76 L17.2162 990.603 Z" fill="#000000" fill-rule="evenodd" fill-opacity="1" /><path clip-path="url(#clip090)" d="M32.4621 923.859 Q32.4621 928.57 36.1542 931.307 Q39.8145 934.044 46.212 934.044 Q52.6095 934.044 56.3017 931.339 Q59.9619 928.601 59.9619 923.859 Q59.9619 919.18 56.2698 916.443 Q52.5777 913.706 46.212 913.706 Q39.8781 913.706 36.186 916.443 Q32.4621 919.18 32.4621 923.859 M27.4968 923.859 Q27.4968 916.22 32.4621 911.86 Q37.4273 907.499 46.212 907.499 Q54.9649 907.499 59.9619 911.86 Q64.9272 916.22 64.9272 923.859 Q64.9272 931.53 59.9619 935.89 Q54.9649 940.219 46.212 940.219 Q37.4273 940.219 32.4621 935.89 Q27.4968 931.53 27.4968 923.859 Z" fill="#000000" fill-rule="evenodd" fill-opacity="1" /><path clip-path="url(#clip090)" d="M14.479 879.745 L19.3487 879.745 L19.3487 885.347 Q19.3487 888.498 20.6219 889.739 Q21.895 890.948 25.2052 890.948 L28.3562 890.948 L28.3562 881.304 L32.9077 881.304 L32.9077 890.948 L64.0042 890.948 L64.0042 896.837 L32.9077 896.837 L32.9077 902.438 L28.3562 902.438 L28.3562 896.837 L25.8736 896.837 Q19.9216 896.837 17.2162 894.068 Q14.479 891.298 14.479 885.283 L14.479 879.745 Z" fill="#000000" fill-rule="evenodd" fill-opacity="1" /><path clip-path="url(#clip090)" d="M35.1993 826.368 Q31.2526 824.172 29.3747 821.117 Q27.4968 818.061 27.4968 813.923 Q27.4968 808.353 31.4117 805.33 Q35.2948 802.306 42.4881 802.306 L64.0042 802.306 L64.0042 808.194 L42.679 808.194 Q37.5546 808.194 35.072 810.008 Q32.5894 811.823 32.5894 815.547 Q32.5894 820.098 35.6131 822.74 Q38.6368 825.382 43.8567 825.382 L64.0042 825.382 L64.0042 831.27 L42.679 831.27 Q37.5228 831.27 35.072 833.084 Q32.5894 834.898 32.5894 838.686 Q32.5894 843.174 35.6449 845.815 Q38.6686 848.457 43.8567 848.457 L64.0042 848.457 L64.0042 854.346 L28.3562 854.346 L28.3562 848.457 L33.8944 848.457 Q30.616 846.452 29.0564 843.651 Q27.4968 840.85 27.4968 836.999 Q27.4968 833.116 29.4702 830.41 Q31.4436 827.673 35.1993 826.368 Z" fill="#000000" fill-rule="evenodd" fill-opacity="1" /><path clip-path="url(#clip090)" d="M32.4621 776.811 Q32.4621 781.522 36.1542 784.259 Q39.8145 786.996 46.212 786.996 Q52.6095 786.996 56.3017 784.291 Q59.9619 781.554 59.9619 776.811 Q59.9619 772.132 56.2698 769.395 Q52.5777 766.658 46.212 766.658 Q39.8781 766.658 36.186 769.395 Q32.4621 772.132 32.4621 776.811 M27.4968 776.811 Q27.4968 769.172 32.4621 764.812 Q37.4273 760.451 46.212 760.451 Q54.9649 760.451 59.9619 764.812 Q64.9272 769.172 64.9272 776.811 Q64.9272 784.482 59.9619 788.842 Q54.9649 793.171 46.212 793.171 Q37.4273 793.171 32.4621 788.842 Q27.4968 784.482 27.4968 776.811 Z" fill="#000000" fill-rule="evenodd" fill-opacity="1" /><path clip-path="url(#clip090)" d="M14.479 750.744 L14.479 744.887 L64.0042 744.887 L64.0042 750.744 L14.479 750.744 Z" fill="#000000" fill-rule="evenodd" fill-opacity="1" /><path clip-path="url(#clip090)" d="M44.7161 702.141 L47.5806 702.141 L47.5806 729.068 Q53.6281 728.686 56.8109 725.44 Q59.9619 722.162 59.9619 716.337 Q59.9619 712.963 59.1344 709.812 Q58.3069 706.629 56.6518 703.51 L62.1899 703.51 Q63.5267 706.661 64.227 709.971 Q64.9272 713.281 64.9272 716.687 Q64.9272 725.217 59.9619 730.214 Q54.9967 735.179 46.5303 735.179 Q37.7774 735.179 32.6531 730.469 Q27.4968 725.726 27.4968 717.706 Q27.4968 710.512 32.1438 706.343 Q36.7589 702.141 44.7161 702.141 M42.9973 707.998 Q38.1912 708.062 35.3266 710.703 Q32.4621 713.313 32.4621 717.642 Q32.4621 722.544 35.2312 725.504 Q38.0002 728.432 43.0292 728.877 L42.9973 707.998 Z" fill="#000000" fill-rule="evenodd" fill-opacity="1" /><path clip-path="url(#clip090)" d="M29.7248 666.875 L35.1993 666.875 Q33.8307 669.358 33.1623 671.873 Q32.4621 674.355 32.4621 676.901 Q32.4621 682.599 36.0905 685.75 Q39.6872 688.901 46.212 688.901 Q52.7369 688.901 56.3653 685.75 Q59.9619 682.599 59.9619 676.901 Q59.9619 674.355 59.2935 671.873 Q58.5933 669.358 57.2247 666.875 L62.6355 666.875 Q63.7814 669.326 64.3543 671.968 Q64.9272 674.578 64.9272 677.538 Q64.9272 685.591 59.8664 690.333 Q54.8057 695.076 46.212 695.076 Q37.491 695.076 32.4939 690.301 Q27.4968 685.495 27.4968 677.156 Q27.4968 674.451 28.0697 671.873 Q28.6108 669.294 29.7248 666.875 Z" fill="#000000" fill-rule="evenodd" fill-opacity="1" /><path clip-path="url(#clip090)" d="M49.9359 657.295 L28.3562 657.295 L28.3562 651.439 L49.7131 651.439 Q54.7739 651.439 57.3202 649.465 Q59.8346 647.492 59.8346 643.545 Q59.8346 638.803 56.8109 636.065 Q53.7872 633.296 48.5673 633.296 L28.3562 633.296 L28.3562 627.44 L64.0042 627.44 L64.0042 633.296 L58.5296 633.296 Q61.7762 635.429 63.3676 638.262 Q64.9272 641.063 64.9272 644.786 Q64.9272 650.929 61.1078 654.112 Q57.2883 657.295 49.9359 657.295 M27.4968 642.558 L27.4968 642.558 Z" fill="#000000" fill-rule="evenodd" fill-opacity="1" /><path clip-path="url(#clip090)" d="M14.479 615.377 L14.479 609.52 L64.0042 609.52 L64.0042 615.377 L14.479 615.377 Z" fill="#000000" fill-rule="evenodd" fill-opacity="1" /><path clip-path="url(#clip090)" d="M44.7161 566.775 L47.5806 566.775 L47.5806 593.702 Q53.6281 593.32 56.8109 590.073 Q59.9619 586.795 59.9619 580.97 Q59.9619 577.596 59.1344 574.445 Q58.3069 571.263 56.6518 568.143 L62.1899 568.143 Q63.5267 571.294 64.227 574.605 Q64.9272 577.915 64.9272 581.32 Q64.9272 589.85 59.9619 594.847 Q54.9967 599.813 46.5303 599.813 Q37.7774 599.813 32.6531 595.102 Q27.4968 590.36 27.4968 582.339 Q27.4968 575.146 32.1438 570.976 Q36.7589 566.775 44.7161 566.775 M42.9973 572.631 Q38.1912 572.695 35.3266 575.337 Q32.4621 577.947 32.4621 582.275 Q32.4621 587.177 35.2312 590.137 Q38.0002 593.065 43.0292 593.511 L42.9973 572.631 Z" fill="#000000" fill-rule="evenodd" fill-opacity="1" /><path clip-path="url(#clip090)" d="M29.4065 534.437 L34.9447 534.437 Q33.6716 536.92 33.035 539.593 Q32.3984 542.267 32.3984 545.131 Q32.3984 549.492 33.7352 551.688 Q35.072 553.852 37.7456 553.852 Q39.7826 553.852 40.9603 552.293 Q42.1061 550.733 43.1565 546.023 L43.6021 544.017 Q44.9389 537.779 47.3897 535.169 Q49.8086 532.527 54.1691 532.527 Q59.1344 532.527 62.0308 536.474 Q64.9272 540.389 64.9272 547.264 Q64.9272 550.128 64.3543 553.248 Q63.8132 556.335 62.6992 559.772 L56.6518 559.772 Q58.3387 556.526 59.198 553.375 Q60.0256 550.224 60.0256 547.137 Q60.0256 542.999 58.6251 540.771 Q57.1929 538.543 54.6147 538.543 Q52.2276 538.543 50.9545 540.166 Q49.6813 541.757 48.5037 547.2 L48.0262 549.237 Q46.8804 554.68 44.5251 557.099 Q42.138 559.518 38.0002 559.518 Q32.9713 559.518 30.2341 555.953 Q27.4968 552.388 27.4968 545.832 Q27.4968 542.585 27.9743 539.72 Q28.4517 536.856 29.4065 534.437 Z" fill="#000000" fill-rule="evenodd" fill-opacity="1" /><path clip-path="url(#clip090)" d="M791.129 14.0809 L791.129 22.0612 Q786.47 19.8332 782.338 18.7395 Q778.206 17.6457 774.358 17.6457 Q767.674 17.6457 764.028 20.2383 Q760.423 22.8309 760.423 27.611 Q760.423 31.6214 762.813 33.6873 Q765.243 35.7128 771.968 36.9686 L776.91 37.9813 Q786.065 39.7232 790.399 44.1387 Q794.774 48.5136 794.774 55.8863 Q794.774 64.6767 788.86 69.2137 Q782.986 73.7508 771.603 73.7508 Q767.309 73.7508 762.448 72.7785 Q757.628 71.8063 752.442 69.9024 L752.442 61.4765 Q757.425 64.2716 762.205 65.6895 Q766.985 67.1073 771.603 67.1073 Q778.611 67.1073 782.419 64.3527 Q786.227 61.598 786.227 56.4939 Q786.227 52.0379 783.472 49.5264 Q780.758 47.0148 774.52 45.759 L769.537 44.7868 Q760.382 42.9639 756.291 39.075 Q752.199 35.1862 752.199 28.2591 Q752.199 20.2383 757.83 15.6203 Q763.501 11.0023 773.426 11.0023 Q777.68 11.0023 782.095 11.7719 Q786.511 12.5416 791.129 14.0809 Z" fill="#000000" fill-rule="evenodd" fill-opacity="1" /><path clip-path="url(#clip090)" d="M843.79 14.0809 L843.79 22.0612 Q839.132 19.8332 835 18.7395 Q830.868 17.6457 827.02 17.6457 Q820.336 17.6457 816.69 20.2383 Q813.084 22.8309 813.084 27.611 Q813.084 31.6214 815.474 33.6873 Q817.905 35.7128 824.63 36.9686 L829.572 37.9813 Q838.727 39.7232 843.061 44.1387 Q847.436 48.5136 847.436 55.8863 Q847.436 64.6767 841.522 69.2137 Q835.648 73.7508 824.265 73.7508 Q819.971 73.7508 815.11 72.7785 Q810.289 71.8063 805.104 69.9024 L805.104 61.4765 Q810.087 64.2716 814.867 65.6895 Q819.647 67.1073 824.265 67.1073 Q831.273 67.1073 835.081 64.3527 Q838.889 61.598 838.889 56.4939 Q838.889 52.0379 836.134 49.5264 Q833.42 47.0148 827.182 45.759 L822.199 44.7868 Q813.044 42.9639 808.953 39.075 Q804.861 35.1862 804.861 28.2591 Q804.861 20.2383 810.492 15.6203 Q816.163 11.0023 826.088 11.0023 Q830.341 11.0023 834.757 11.7719 Q839.172 12.5416 843.79 14.0809 Z" fill="#000000" fill-rule="evenodd" fill-opacity="1" /><path clip-path="url(#clip090)" d="M881.95 20.1573 L870.85 50.2555 L893.09 50.2555 L881.95 20.1573 M877.332 12.096 L886.608 12.096 L909.658 72.576 L901.151 72.576 L895.642 57.061 L868.379 57.061 L862.87 72.576 L854.242 72.576 L877.332 12.096 Z" fill="#000000" fill-rule="evenodd" fill-opacity="1" /><path clip-path="url(#clip090)" d="M962.441 9.62495 Q957.013 18.942 954.38 28.0566 Q951.747 37.1711 951.747 46.5287 Q951.747 55.8863 954.38 65.0818 Q957.054 74.2369 962.441 83.5134 L955.96 83.5134 Q949.883 73.9938 946.845 64.7983 Q943.848 55.6027 943.848 46.5287 Q943.848 37.4952 946.845 28.3401 Q949.843 19.1851 955.96 9.62495 L962.441 9.62495 Z" fill="#000000" fill-rule="evenodd" fill-opacity="1" /><path clip-path="url(#clip090)" d="M979.374 65.6895 L992.742 65.6895 L992.742 19.5497 L978.199 22.4663 L978.199 15.0127 L992.661 12.096 L1000.84 12.096 L1000.84 65.6895 L1014.21 65.6895 L1014.21 72.576 L979.374 72.576 L979.374 65.6895 Z" fill="#000000" fill-rule="evenodd" fill-opacity="1" /><path clip-path="url(#clip090)" d="M1058.61 28.5427 L1058.61 35.5912 Q1055.45 33.9709 1052.05 33.1607 Q1048.64 32.3505 1045 32.3505 Q1039.45 32.3505 1036.65 34.0519 Q1033.9 35.7533 1033.9 39.156 Q1033.9 41.7486 1035.88 43.2475 Q1037.87 44.7058 1043.86 46.0426 L1046.42 46.6097 Q1054.36 48.3111 1057.68 51.4303 Q1061.04 54.509 1061.04 60.0587 Q1061.04 66.3781 1056.02 70.0644 Q1051.03 73.7508 1042.28 73.7508 Q1038.64 73.7508 1034.67 73.0216 Q1030.74 72.3329 1026.36 70.9151 L1026.36 63.2184 Q1030.5 65.3654 1034.51 66.4591 Q1038.52 67.5124 1042.45 67.5124 Q1047.71 67.5124 1050.55 65.73 Q1053.38 63.9071 1053.38 60.6258 Q1053.38 57.5877 1051.32 55.9673 Q1049.29 54.3469 1042.37 52.8481 L1039.77 52.2405 Q1032.85 50.7821 1029.77 47.7845 Q1026.69 44.7463 1026.69 39.4801 Q1026.69 33.0797 1031.23 29.5959 Q1035.76 26.1121 1044.11 26.1121 Q1048.24 26.1121 1051.89 26.7198 Q1055.53 27.3274 1058.61 28.5427 Z" fill="#000000" fill-rule="evenodd" fill-opacity="1" /><path clip-path="url(#clip090)" d="M1080.28 14.324 L1080.28 27.2059 L1095.64 27.2059 L1095.64 32.9987 L1080.28 32.9987 L1080.28 57.6282 Q1080.28 63.1779 1081.78 64.7578 Q1083.32 66.3376 1087.98 66.3376 L1095.64 66.3376 L1095.64 72.576 L1087.98 72.576 Q1079.35 72.576 1076.07 69.3758 Q1072.79 66.1351 1072.79 57.6282 L1072.79 32.9987 L1067.32 32.9987 L1067.32 27.2059 L1072.79 27.2059 L1072.79 14.324 L1080.28 14.324 Z" fill="#000000" fill-rule="evenodd" fill-opacity="1" /><path clip-path="url(#clip090)" d="M1158.1 34.1734 Q1156.84 33.4443 1155.35 33.1202 Q1153.89 32.7556 1152.1 32.7556 Q1145.79 32.7556 1142.38 36.8875 Q1139.02 40.9789 1139.02 48.6757 L1139.02 72.576 L1131.53 72.576 L1131.53 27.2059 L1139.02 27.2059 L1139.02 34.2544 Q1141.37 30.1225 1145.14 28.1376 Q1148.9 26.1121 1154.29 26.1121 Q1155.06 26.1121 1155.99 26.2337 Q1156.93 26.3147 1158.06 26.5172 L1158.1 34.1734 Z" fill="#000000" fill-rule="evenodd" fill-opacity="1" /><path clip-path="url(#clip090)" d="M1202.9 48.0275 L1202.9 51.6733 L1168.63 51.6733 Q1169.12 59.3701 1173.25 63.421 Q1177.42 67.4314 1184.84 67.4314 Q1189.13 67.4314 1193.14 66.3781 Q1197.19 65.3249 1201.16 63.2184 L1201.16 70.267 Q1197.15 71.9684 1192.94 72.8596 Q1188.72 73.7508 1184.39 73.7508 Q1173.53 73.7508 1167.17 67.4314 Q1160.85 61.1119 1160.85 50.3365 Q1160.85 39.1965 1166.85 32.6746 Q1172.89 26.1121 1183.09 26.1121 Q1192.25 26.1121 1197.56 32.0264 Q1202.9 37.9003 1202.9 48.0275 M1195.45 45.84 Q1195.37 39.7232 1192.01 36.0774 Q1188.68 32.4315 1183.18 32.4315 Q1176.94 32.4315 1173.17 35.9558 Q1169.44 39.4801 1168.88 45.8805 L1195.45 45.84 Z" fill="#000000" fill-rule="evenodd" fill-opacity="1" /><path clip-path="url(#clip090)" d="M1235.76 49.7694 Q1226.72 49.7694 1223.24 51.8354 Q1219.75 53.9013 1219.75 58.8839 Q1219.75 62.8538 1222.35 65.2034 Q1224.98 67.5124 1229.48 67.5124 Q1235.67 67.5124 1239.4 63.1374 Q1243.17 58.7219 1243.17 51.4303 L1243.17 49.7694 L1235.76 49.7694 M1250.62 46.6907 L1250.62 72.576 L1243.17 72.576 L1243.17 65.6895 Q1240.62 69.8214 1236.81 71.8063 Q1233 73.7508 1227.49 73.7508 Q1220.52 73.7508 1216.39 69.8619 Q1212.3 65.9325 1212.3 59.3701 Q1212.3 51.7138 1217.41 47.825 Q1222.55 43.9361 1232.72 43.9361 L1243.17 43.9361 L1243.17 43.2069 Q1243.17 38.0623 1239.77 35.2672 Q1236.4 32.4315 1230.29 32.4315 Q1226.4 32.4315 1222.71 33.3632 Q1219.03 34.295 1215.62 36.1584 L1215.62 29.2718 Q1219.71 27.692 1223.56 26.9223 Q1227.41 26.1121 1231.06 26.1121 Q1240.9 26.1121 1245.76 31.2163 Q1250.62 36.3204 1250.62 46.6907 Z" fill="#000000" fill-rule="evenodd" fill-opacity="1" /><path clip-path="url(#clip090)" d="M1298.63 28.9478 L1298.63 35.9153 Q1295.47 34.1734 1292.27 33.3227 Q1289.11 32.4315 1285.87 32.4315 Q1278.61 32.4315 1274.6 37.0496 Q1270.59 41.6271 1270.59 49.9314 Q1270.59 58.2358 1274.6 62.8538 Q1278.61 67.4314 1285.87 67.4314 Q1289.11 67.4314 1292.27 66.5807 Q1295.47 65.6895 1298.63 63.9476 L1298.63 70.8341 Q1295.51 72.2924 1292.14 73.0216 Q1288.82 73.7508 1285.06 73.7508 Q1274.81 73.7508 1268.77 67.3098 Q1262.73 60.8689 1262.73 49.9314 Q1262.73 38.832 1268.81 32.472 Q1274.93 26.1121 1285.54 26.1121 Q1288.98 26.1121 1292.27 26.8413 Q1295.55 27.5299 1298.63 28.9478 Z" fill="#000000" fill-rule="evenodd" fill-opacity="1" /><path clip-path="url(#clip090)" d="M1318.96 14.324 L1318.96 27.2059 L1334.31 27.2059 L1334.31 32.9987 L1318.96 32.9987 L1318.96 57.6282 Q1318.96 63.1779 1320.46 64.7578 Q1322 66.3376 1326.66 66.3376 L1334.31 66.3376 L1334.31 72.576 L1326.66 72.576 Q1318.03 72.576 1314.75 69.3758 Q1311.47 66.1351 1311.47 57.6282 L1311.47 32.9987 L1306 32.9987 L1306 27.2059 L1311.47 27.2059 L1311.47 14.324 L1318.96 14.324 Z" fill="#000000" fill-rule="evenodd" fill-opacity="1" /><path clip-path="url(#clip090)" d="M1344.12 27.2059 L1351.57 27.2059 L1351.57 72.576 L1344.12 72.576 L1344.12 27.2059 M1344.12 9.54393 L1351.57 9.54393 L1351.57 18.9825 L1344.12 18.9825 L1344.12 9.54393 Z" fill="#000000" fill-rule="evenodd" fill-opacity="1" /><path clip-path="url(#clip090)" d="M1384.75 32.4315 Q1378.75 32.4315 1375.27 37.1306 Q1371.79 41.7891 1371.79 49.9314 Q1371.79 58.0738 1375.23 62.7728 Q1378.71 67.4314 1384.75 67.4314 Q1390.7 67.4314 1394.19 62.7323 Q1397.67 58.0333 1397.67 49.9314 Q1397.67 41.8701 1394.19 37.1711 Q1390.7 32.4315 1384.75 32.4315 M1384.75 26.1121 Q1394.47 26.1121 1400.02 32.4315 Q1405.57 38.7509 1405.57 49.9314 Q1405.57 61.0714 1400.02 67.4314 Q1394.47 73.7508 1384.75 73.7508 Q1374.99 73.7508 1369.44 67.4314 Q1363.93 61.0714 1363.93 49.9314 Q1363.93 38.7509 1369.44 32.4315 Q1374.99 26.1121 1384.75 26.1121 Z" fill="#000000" fill-rule="evenodd" fill-opacity="1" /><path clip-path="url(#clip090)" d="M1455.64 45.1919 L1455.64 72.576 L1448.19 72.576 L1448.19 45.4349 Q1448.19 38.994 1445.67 35.7938 Q1443.16 32.5936 1438.14 32.5936 Q1432.1 32.5936 1428.62 36.4419 Q1425.14 40.2903 1425.14 46.9338 L1425.14 72.576 L1417.64 72.576 L1417.64 27.2059 L1425.14 27.2059 L1425.14 34.2544 Q1427.81 30.163 1431.41 28.1376 Q1435.06 26.1121 1439.8 26.1121 Q1447.62 26.1121 1451.63 30.9732 Q1455.64 35.7938 1455.64 45.1919 Z" fill="#000000" fill-rule="evenodd" fill-opacity="1" /><path clip-path="url(#clip090)" d="M1532.2 35.9153 Q1535 30.8922 1538.88 28.5022 Q1542.77 26.1121 1548.04 26.1121 Q1555.13 26.1121 1558.98 31.0947 Q1562.83 36.0368 1562.83 45.1919 L1562.83 72.576 L1555.33 72.576 L1555.33 45.4349 Q1555.33 38.913 1553.02 35.7533 Q1550.71 32.5936 1545.97 32.5936 Q1540.18 32.5936 1536.82 36.4419 Q1533.46 40.2903 1533.46 46.9338 L1533.46 72.576 L1525.96 72.576 L1525.96 45.4349 Q1525.96 38.8725 1523.65 35.7533 Q1521.34 32.5936 1516.52 32.5936 Q1510.81 32.5936 1507.45 36.4824 Q1504.09 40.3308 1504.09 46.9338 L1504.09 72.576 L1496.59 72.576 L1496.59 27.2059 L1504.09 27.2059 L1504.09 34.2544 Q1506.64 30.082 1510.2 28.0971 Q1513.77 26.1121 1518.67 26.1121 Q1523.61 26.1121 1527.06 28.6237 Q1530.54 31.1352 1532.2 35.9153 Z" fill="#000000" fill-rule="evenodd" fill-opacity="1" /><path clip-path="url(#clip090)" d="M1616.5 48.0275 L1616.5 51.6733 L1582.23 51.6733 Q1582.72 59.3701 1586.85 63.421 Q1591.02 67.4314 1598.43 67.4314 Q1602.73 67.4314 1606.74 66.3781 Q1610.79 65.3249 1614.76 63.2184 L1614.76 70.267 Q1610.75 71.9684 1606.54 72.8596 Q1602.32 73.7508 1597.99 73.7508 Q1587.13 73.7508 1580.77 67.4314 Q1574.45 61.1119 1574.45 50.3365 Q1574.45 39.1965 1580.45 32.6746 Q1586.48 26.1121 1596.69 26.1121 Q1605.85 26.1121 1611.15 32.0264 Q1616.5 37.9003 1616.5 48.0275 M1609.05 45.84 Q1608.97 39.7232 1605.6 36.0774 Q1602.28 32.4315 1596.77 32.4315 Q1590.53 32.4315 1586.77 35.9558 Q1583.04 39.4801 1582.47 45.8805 L1609.05 45.84 Z" fill="#000000" fill-rule="evenodd" fill-opacity="1" /><path clip-path="url(#clip090)" d="M1636.11 14.324 L1636.11 27.2059 L1651.46 27.2059 L1651.46 32.9987 L1636.11 32.9987 L1636.11 57.6282 Q1636.11 63.1779 1637.61 64.7578 Q1639.14 66.3376 1643.8 66.3376 L1651.46 66.3376 L1651.46 72.576 L1643.8 72.576 Q1635.17 72.576 1631.89 69.3758 Q1628.61 66.1351 1628.61 57.6282 L1628.61 32.9987 L1623.14 32.9987 L1623.14 27.2059 L1628.61 27.2059 L1628.61 14.324 L1636.11 14.324 Z" fill="#000000" fill-rule="evenodd" fill-opacity="1" /><path clip-path="url(#clip090)" d="M1698.98 45.1919 L1698.98 72.576 L1691.52 72.576 L1691.52 45.4349 Q1691.52 38.994 1689.01 35.7938 Q1686.5 32.5936 1681.48 32.5936 Q1675.44 32.5936 1671.96 36.4419 Q1668.47 40.2903 1668.47 46.9338 L1668.47 72.576 L1660.98 72.576 L1660.98 9.54393 L1668.47 9.54393 L1668.47 34.2544 Q1671.15 30.163 1674.75 28.1376 Q1678.4 26.1121 1683.14 26.1121 Q1690.96 26.1121 1694.97 30.9732 Q1698.98 35.7938 1698.98 45.1919 Z" fill="#000000" fill-rule="evenodd" fill-opacity="1" /><path clip-path="url(#clip090)" d="M1731.42 32.4315 Q1725.43 32.4315 1721.95 37.1306 Q1718.46 41.7891 1718.46 49.9314 Q1718.46 58.0738 1721.9 62.7728 Q1725.39 67.4314 1731.42 67.4314 Q1737.38 67.4314 1740.86 62.7323 Q1744.35 58.0333 1744.35 49.9314 Q1744.35 41.8701 1740.86 37.1711 Q1737.38 32.4315 1731.42 32.4315 M1731.42 26.1121 Q1741.15 26.1121 1746.7 32.4315 Q1752.25 38.7509 1752.25 49.9314 Q1752.25 61.0714 1746.7 67.4314 Q1741.15 73.7508 1731.42 73.7508 Q1721.66 73.7508 1716.11 67.4314 Q1710.6 61.0714 1710.6 49.9314 Q1710.6 38.7509 1716.11 32.4315 Q1721.66 26.1121 1731.42 26.1121 Z" fill="#000000" fill-rule="evenodd" fill-opacity="1" /><path clip-path="url(#clip090)" d="M1794.46 34.0924 L1794.46 9.54393 L1801.91 9.54393 L1801.91 72.576 L1794.46 72.576 L1794.46 65.7705 Q1792.11 69.8214 1788.5 71.8063 Q1784.94 73.7508 1779.91 73.7508 Q1771.69 73.7508 1766.51 67.1883 Q1761.36 60.6258 1761.36 49.9314 Q1761.36 39.2371 1766.51 32.6746 Q1771.69 26.1121 1779.91 26.1121 Q1784.94 26.1121 1788.5 28.0971 Q1792.11 30.0415 1794.46 34.0924 M1769.06 49.9314 Q1769.06 58.1548 1772.42 62.8538 Q1775.82 67.5124 1781.74 67.5124 Q1787.65 67.5124 1791.05 62.8538 Q1794.46 58.1548 1794.46 49.9314 Q1794.46 41.7081 1791.05 37.0496 Q1787.65 32.3505 1781.74 32.3505 Q1775.82 32.3505 1772.42 37.0496 Q1769.06 41.7081 1769.06 49.9314 Z" fill="#000000" fill-rule="evenodd" fill-opacity="1" /><path clip-path="url(#clip090)" d="M1816.09 9.62495 L1822.57 9.62495 Q1828.65 19.1851 1831.64 28.3401 Q1834.68 37.4952 1834.68 46.5287 Q1834.68 55.6027 1831.64 64.7983 Q1828.65 73.9938 1822.57 83.5134 L1816.09 83.5134 Q1821.48 74.2369 1824.11 65.0818 Q1826.78 55.8863 1826.78 46.5287 Q1826.78 37.1711 1824.11 28.0566 Q1821.48 18.942 1816.09 9.62495 Z" fill="#000000" fill-rule="evenodd" fill-opacity="1" /><polyline clip-path="url(#clip092)" style="stroke:#009af9; stroke-linecap:butt; stroke-linejoin:round; stroke-width:4; stroke-opacity:1; fill:none" points="
  294.087,160.256 297.385,166.387 297.665,172.518 297.707,178.648 299.126,184.779 300.554,190.91 300.606,197.04 300.646,203.171 300.936,209.302 301.648,215.433 
  304.505,221.563 304.668,227.694 304.808,233.825 305.148,239.955 306.681,246.086 306.697,252.217 307.121,258.347 307.635,264.478 308.335,270.609 308.82,276.74 
  309.28,282.87 309.9,289.001 310.242,295.132 314.967,301.262 315.892,307.393 316.735,313.524 319.068,319.654 319.414,325.785 319.478,331.916 319.86,338.047 
  319.978,344.177 324.331,350.308 324.814,356.439 325.11,362.569 325.2,368.7 325.675,374.831 326.458,380.961 326.654,387.092 326.971,393.223 328.901,399.353 
  328.977,405.484 329.551,411.615 331.767,417.746 333.193,423.876 337.526,430.007 337.914,436.138 339.412,442.268 339.62,448.399 340.048,454.53 340.064,448.399 
  340.407,454.53 340.413,460.66 342.036,466.791 342.28,472.922 345.06,479.053 346.747,485.183 346.75,491.314 349.342,497.445 349.372,503.575 350.095,509.706 
  351.213,503.575 352.661,497.445 352.783,503.575 353.505,509.706 353.846,515.837 354.207,509.706 354.352,515.837 354.803,509.706 355.004,515.837 355.013,521.967 
  355.885,528.098 355.921,534.229 358.433,528.098 359.629,534.229 360.725,540.36 361.358,546.49 361.752,540.36 361.789,546.49 364.012,552.621 365.297,558.752 
  366.581,564.882 366.697,571.013 369.393,577.144 369.527,583.274 371.936,577.144 372.207,583.274 373.535,589.405 374.329,595.536 375.907,589.405 378.649,583.274 
  379.173,589.405 379.713,595.536 380.1,601.666 380.543,595.536 380.779,601.666 383.564,607.797 385.141,613.928 388.705,607.797 388.992,601.666 391.276,607.797 
  392.568,601.666 392.998,595.536 393.072,589.405 393.504,583.274 393.618,589.405 395.839,583.274 395.958,589.405 396.924,595.536 396.968,601.666 398.632,607.797 
  399.161,613.928 400.873,607.797 401.781,613.928 402.852,620.059 404.924,626.189 405.068,632.32 405.118,638.451 405.313,644.581 405.329,650.712 406.131,656.843 
  407.585,662.973 408.345,669.104 410.158,675.235 411.568,681.366 412.975,687.496 413.548,693.627 414.748,699.758 417.428,705.888 418.572,712.019 420.415,718.15 
  420.571,724.28 421.469,730.411 422.649,724.28 422.833,718.15 423.129,712.019 423.179,718.15 426.073,724.28 429.367,730.411 430.157,724.28 431.528,730.411 
  432.026,724.28 434.097,730.411 435.163,736.542 435.266,742.673 437.143,748.803 438.501,754.934 438.682,761.065 439.922,754.934 442.547,748.803 444.565,754.934 
  446.262,761.065 448.2,767.195 449.641,761.065 452.898,767.195 453.941,773.326 455.645,779.457 455.683,785.587 455.906,791.718 456.533,785.587 456.88,791.718 
  457.124,797.849 458.382,803.979 463.113,797.849 463.796,803.979 464.224,797.849 466.622,803.979 468.12,810.11 468.219,816.241 469.181,822.372 469.919,828.502 
  475.359,822.372 477.221,816.241 477.503,822.372 478.163,828.502 480.23,822.372 482.609,816.241 484.669,810.11 490.643,816.241 492.387,822.372 495.284,828.502 
  497.999,822.372 498.977,816.241 500.319,810.11 500.484,816.241 501.401,822.372 502.699,828.502 503.427,822.372 504.316,828.502 509.04,834.633 516.767,840.764 
  516.857,846.894 518.512,853.025 520.414,846.894 523.671,853.025 523.721,859.156 523.982,853.025 524.291,859.156 525.608,853.025 526.295,859.156 530.697,865.286 
  531.251,871.417 532.128,877.548 534.03,883.679 534.689,877.548 534.773,883.679 537.79,877.548 538.341,883.679 539.723,877.548 540.489,883.679 541.57,889.809 
  544.095,883.679 547.971,889.809 548.52,883.679 550.015,877.548 550.475,883.679 554.185,889.809 554.384,895.94 556.171,889.809 558.514,895.94 558.827,902.071 
  559.236,908.201 560.783,902.071 562.003,908.201 562.677,914.332 563.287,920.463 564.73,914.332 569.108,920.463 570.093,926.593 570.435,920.463 570.919,914.332 
  572.078,920.463 572.801,926.593 574.908,920.463 577.674,914.332 580.29,908.201 580.854,914.332 581.292,920.463 583.571,926.593 585.111,932.724 589.338,926.593 
  589.782,932.724 590.014,938.855 595.394,944.985 597.375,951.116 603.458,944.985 606.575,951.116 606.62,944.985 609.731,938.855 611.361,932.724 612.448,926.593 
  612.913,932.724 613.784,926.593 616.309,920.463 619.115,926.593 622.172,932.724 622.389,926.593 622.832,920.463 623.12,926.593 624.978,932.724 625.788,938.855 
  631.775,944.985 632.139,951.116 634.575,944.985 639.502,951.116 643.381,957.247 647.988,951.116 649.986,957.247 650.553,963.378 650.805,957.247 651.509,951.116 
  651.511,957.247 651.976,963.378 652.642,969.508 653.098,975.639 653.216,981.77 655.274,975.639 655.634,969.508 661.185,975.639 662.824,969.508 663.826,963.378 
  666.005,969.508 671.746,963.378 674.374,969.508 678.701,975.639 679.051,981.77 679.87,987.9 684.489,981.77 685.636,987.9 686.255,981.77 686.762,987.9 
  687.493,994.031 689.285,1000.16 692.504,1006.29 692.958,1000.16 693.846,1006.29 694.626,1000.16 695.347,1006.29 696.013,1000.16 697.569,1006.29 698.113,1000.16 
  700.506,1006.29 701.978,1000.16 703.902,994.031 703.956,1000.16 705.557,994.031 705.633,1000.16 708.399,994.031 709.504,1000.16 711,1006.29 712.583,1000.16 
  715.776,994.031 717.706,987.9 717.985,994.031 718.984,987.9 720.403,994.031 720.744,1000.16 721.437,1006.29 723.818,1012.42 724.597,1018.55 725.342,1012.42 
  725.512,1006.29 726.329,1000.16 726.499,1006.29 728.604,1000.16 730.774,1006.29 733.811,1012.42 735.023,1018.55 738.346,1012.42 739.542,1006.29 740.21,1000.16 
  741.963,994.031 743.624,1000.16 744.675,994.031 744.765,987.9 745.023,994.031 745.099,1000.16 746.148,994.031 747.251,987.9 747.629,994.031 751.764,987.9 
  752.612,981.77 753.059,987.9 753.135,981.77 754.096,975.639 755.148,969.508 755.665,963.378 757.878,957.247 760.568,951.116 762.986,957.247 764.812,951.116 
  766.169,957.247 767.299,951.116 768.875,944.985 770.395,951.116 771.209,957.247 771.487,963.378 773.224,969.508 773.659,975.639 774.306,981.77 774.934,987.9 
  781.766,981.77 782.15,987.9 782.582,994.031 785.073,1000.16 786.864,1006.29 787.644,1000.16 789.647,1006.29 790.736,1000.16 790.913,1006.29 791.847,1012.42 
  793.332,1006.29 795.91,1012.42 797.442,1006.29 797.487,1012.42 800.237,1018.55 800.424,1012.42 803.389,1018.55 803.532,1012.42 804.449,1006.29 806.53,1000.16 
  808.623,994.031 809.16,1000.16 812.813,994.031 814.439,987.9 819.648,994.031 819.688,1000.16 821.546,994.031 822.115,987.9 822.451,981.77 823.915,975.639 
  824.9,981.77 826.519,975.639 828.679,969.508 829.757,975.639 831.395,981.77 833.974,987.9 834.1,981.77 835.151,987.9 835.768,981.77 839.639,975.639 
  844.727,981.77 845.351,987.9 845.475,981.77 847.045,975.639 847.494,969.508 848.311,975.639 848.322,969.508 848.349,975.639 849.27,981.77 850.636,987.9 
  851.37,994.031 855.538,1000.16 856.47,994.031 859.109,987.9 859.11,981.77 861.027,987.9 865.534,994.031 865.594,1000.16 869.681,1006.29 870.987,1000.16 
  871.651,994.031 873.14,987.9 873.203,981.77 875.552,975.639 875.564,981.77 876.387,975.639 878.688,981.77 879.004,987.9 880.745,994.031 884.102,987.9 
  886.408,994.031 886.69,987.9 891.366,994.031 895.109,987.9 900.905,994.031 901.134,987.9 901.808,981.77 901.888,975.639 906.983,981.77 910.138,987.9 
  910.316,981.77 911.874,975.639 914.397,981.77 919.328,975.639 920.932,981.77 920.968,987.9 922.41,994.031 923.607,1000.16 925.107,994.031 925.799,1000.16 
  926.279,994.031 926.455,987.9 928.298,981.77 931.46,975.639 934.615,969.508 935.239,963.378 935.46,957.247 937.522,951.116 937.658,944.985 942.755,938.855 
  949.322,944.985 950.692,951.116 951.383,957.247 952.859,951.116 954.982,957.247 956.741,951.116 959.477,957.247 962.589,951.116 963.106,944.985 963.853,951.116 
  963.874,957.247 965.396,963.378 965.454,969.508 967.302,975.639 968.352,969.508 972.807,963.378 975.201,957.247 977.318,951.116 978.332,957.247 978.826,951.116 
  980.448,957.247 980.472,963.378 987.609,957.247 992.55,951.116 992.707,944.985 993.611,938.855 995.749,944.985 995.779,951.116 997.22,944.985 997.927,938.855 
  1000.12,932.724 1003.09,938.855 1004.46,932.724 1005.06,938.855 1005.38,932.724 1007.07,938.855 1007.41,944.985 1007.55,938.855 1008,944.985 1008.07,938.855 
  1009.11,932.724 1011.04,938.855 1011.32,944.985 1011.68,951.116 1012.86,957.247 1014.51,951.116 1015.9,957.247 1016.7,963.378 1018.66,957.247 1018.98,963.378 
  1020.58,969.508 1020.6,963.378 1020.61,969.508 1023.52,963.378 1027.69,969.508 1031.23,975.639 1031.75,981.77 1032.58,987.9 1038.28,981.77 1038.42,987.9 
  1040.25,981.77 1040.41,975.639 1040.91,969.508 1041.31,963.378 1041.7,969.508 1042.14,975.639 1042.31,981.77 1042.54,975.639 1043.68,981.77 1044.85,987.9 
  1051.87,981.77 1052.85,987.9 1055.63,994.031 1057.93,987.9 1058.54,981.77 1058.91,975.639 1059.04,969.508 1059.3,975.639 1059.72,969.508 1060.56,975.639 
  1063.38,969.508 1063.94,963.378 1065.84,969.508 1066.5,963.378 1067.39,969.508 1068.12,963.378 1070.39,957.247 1070.46,951.116 1070.56,957.247 1071.59,951.116 
  1076.42,957.247 1079.49,963.378 1080.29,969.508 1082.36,975.639 1082.54,981.77 1082.78,975.639 1082.95,981.77 1085.53,987.9 1087.74,994.031 1088.53,1000.16 
  1089.07,994.031 1089.95,987.9 1091.24,994.031 1091.4,1000.16 1105.73,1006.29 1106.6,1000.16 1107.65,994.031 1108.86,987.9 1110.56,981.77 1113.3,975.639 
  1115.61,981.77 1117.07,987.9 1119.43,994.031 1120.4,1000.16 1123.09,1006.29 1126.52,1000.16 1127.23,1006.29 1129.44,1012.42 1130.53,1006.29 1131.36,1000.16 
  1131.66,994.031 1132.19,987.9 1135.48,994.031 1136,987.9 1136.11,981.77 1140.9,987.9 1143.79,994.031 1145.37,1000.16 1145.76,1006.29 1146.25,1012.42 
  1146.9,1006.29 1149.39,1000.16 1152.35,994.031 1152.63,987.9 1153.73,994.031 1153.77,987.9 1154,981.77 1157.32,975.639 1159.43,969.508 1160.38,975.639 
  1161.88,981.77 1163.44,987.9 1163.8,981.77 1164.78,987.9 1165.95,994.031 1166.59,987.9 1168.72,981.77 1169,987.9 1171.6,981.77 1177.08,987.9 
  1181.34,981.77 1182.53,987.9 1182.91,981.77 1182.95,987.9 1189.84,981.77 1190.73,987.9 1193.99,981.77 1194.62,987.9 1195.73,981.77 1197.29,975.639 
  1198.35,969.508 1198.43,975.639 1201.42,981.77 1203.06,987.9 1203.97,994.031 1204.33,1000.16 1204.35,1006.29 1204.75,1012.42 1204.88,1006.29 1204.9,1012.42 
  1206.44,1006.29 1206.49,1000.16 1206.55,994.031 1207.12,1000.16 1207.41,994.031 1208.14,1000.16 1208.88,994.031 1209.77,1000.16 1211.31,1006.29 1215.87,1000.16 
  1216.92,1006.29 1217.79,1000.16 1220.1,994.031 1223.08,987.9 1226.29,981.77 1228.51,987.9 1229.68,994.031 1230.35,1000.16 1230.37,994.031 1231.44,1000.16 
  1231.69,994.031 1232.67,1000.16 1232.85,994.031 1235.62,987.9 1238.36,994.031 1240.17,1000.16 1242.11,1006.29 1243.64,1000.16 1246.22,1006.29 1246.57,1000.16 
  1247.6,994.031 1248.12,1000.16 1249.13,1006.29 1249.17,1000.16 1249.34,994.031 1249.42,987.9 1250.92,981.77 1251.5,987.9 1252.23,981.77 1253.27,975.639 
  1254.01,981.77 1255.21,975.639 1256.51,981.77 1258.27,975.639 1261.22,969.508 1262.86,963.378 1264.09,957.247 1268.9,951.116 1271.25,957.247 1271.62,951.116 
  1274.42,957.247 1277.52,963.378 1279.01,957.247 1280.22,951.116 1280.42,944.985 1281.42,951.116 1281.48,957.247 1281.56,951.116 1287.26,957.247 1288.63,963.378 
  1290.23,969.508 1290.79,975.639 1291.22,969.508 1292.08,975.639 1292.29,981.77 1294.15,975.639 1294.36,981.77 1294.95,987.9 1295.71,981.77 1297.21,975.639 
  1299,969.508 1299.49,963.378 1300.79,969.508 1301.67,963.378 1305.29,957.247 1305.44,963.378 1308.62,957.247 1310.1,963.378 1311.06,957.247 1312.07,963.378 
  1315.13,957.247 1316.59,963.378 1317.39,957.247 1324.45,951.116 1328.56,944.985 1329.3,951.116 1330.96,944.985 1334.78,951.116 1336.05,957.247 1336.83,951.116 
  1341.61,944.985 1344.18,951.116 1348.32,944.985 1352.24,951.116 1354.46,944.985 1355.41,951.116 1355.77,957.247 1357.66,963.378 1359.04,969.508 1364.21,975.639 
  1365.11,969.508 1365.18,963.378 1365.53,957.247 1366.34,963.378 1367.5,969.508 1367.78,963.378 1368.55,957.247 1368.76,963.378 1371.71,957.247 1373.17,963.378 
  1373.29,969.508 1373.33,963.378 1374.68,957.247 1375.1,963.378 1377.2,969.508 1378.79,963.378 1380.99,957.247 1382.6,951.116 1386,957.247 1390.37,963.378 
  1391.34,969.508 1391.59,975.639 1391.74,981.77 1392.14,987.9 1393.15,981.77 1394.22,975.639 1394.47,981.77 1395.54,975.639 1395.77,969.508 1397.64,963.378 
  1398.46,969.508 1402.06,963.378 1402.97,969.508 1403.07,963.378 1408.61,969.508 1408.77,963.378 1410.92,969.508 1413.73,963.378 1413.84,957.247 1414.17,963.378 
  1415.3,969.508 1416.1,963.378 1418.18,969.508 1420.26,963.378 1421.24,957.247 1421.7,951.116 1426.98,957.247 1429.1,951.116 1429.69,957.247 1433.1,963.378 
  1433.87,957.247 1436.54,963.378 1436.55,969.508 1437.67,975.639 1440.03,981.77 1446.11,975.639 1447.36,981.77 1447.65,987.9 1447.87,994.031 1449.8,987.9 
  1453.17,981.77 1453.89,987.9 1456.95,994.031 1458.2,1000.16 1458.41,994.031 1459.27,1000.16 1461.28,994.031 1463.21,987.9 1467,994.031 1468.42,1000.16 
  1471.66,994.031 1472.63,987.9 1473.12,994.031 1476.41,1000.16 1476.67,994.031 1478.51,1000.16 1485.35,994.031 1485.83,1000.16 1486.85,1006.29 1487.69,1000.16 
  1489.64,994.031 1489.75,1000.16 1496.75,994.031 1497.4,1000.16 1499.45,1006.29 1499.83,1000.16 1500.7,994.031 1502.1,987.9 1502.57,981.77 1505.43,987.9 
  1506.18,994.031 1510.74,987.9 1512.45,981.77 1514.03,975.639 1514.52,981.77 1517.68,987.9 1519.38,981.77 1527.02,975.639 1527.42,981.77 1528.12,987.9 
  1528.45,981.77 1530.14,987.9 1531.87,994.031 1532.84,987.9 1533.01,981.77 1536.78,987.9 1537.59,994.031 1538.19,987.9 1541.61,994.031 1541.68,987.9 
  1541.72,994.031 1543.39,1000.16 1543.61,1006.29 1545.43,1000.16 1548.03,994.031 1548.47,987.9 1553.12,981.77 1553.31,975.639 1554.24,969.508 1555.18,963.378 
  1555.94,969.508 1556,975.639 1560.1,981.77 1560.43,975.639 1562.68,969.508 1563.88,963.378 1565.32,957.247 1566.26,951.116 1566.91,944.985 1568.71,951.116 
  1572.43,944.985 1574.03,951.116 1576.11,944.985 1576.19,951.116 1577.55,957.247 1581.62,963.378 1582.21,957.247 1582.47,963.378 1583.31,957.247 1584.43,963.378 
  1584.6,969.508 1585.09,975.639 1585.81,969.508 1586.13,975.639 1589.24,969.508 1590,963.378 1592.96,957.247 1595.22,963.378 1598.94,957.247 1600.15,951.116 
  1600.85,944.985 1603.23,938.855 1605.33,944.985 1607.79,951.116 1608.01,944.985 1608.42,951.116 1608.78,957.247 1610.35,951.116 1612.22,957.247 1612.87,951.116 
  1614.8,957.247 1614.86,951.116 1614.91,957.247 1615.25,951.116 1616.01,957.247 1616.43,963.378 1616.78,957.247 1617.93,951.116 1618.12,957.247 1621.11,963.378 
  1621.62,957.247 1622.15,963.378 1624.04,957.247 1625.35,963.378 1626.18,969.508 1628.18,963.378 1628.45,957.247 1632.05,963.378 1632.18,957.247 1632.31,963.378 
  1633.54,957.247 1635.13,963.378 1635.7,969.508 1635.79,975.639 1638.35,981.77 1638.48,987.9 1639.75,994.031 1640.76,987.9 1642.42,994.031 1644.08,987.9 
  1649.09,981.77 1649.56,975.639 1651.02,981.77 1654.82,987.9 1657.49,994.031 1657.91,987.9 1658.46,994.031 1658.74,987.9 1659.92,994.031 1661.49,1000.16 
  1663.04,994.031 1663.61,987.9 1664.5,981.77 1665.27,987.9 1668.17,981.77 1668.87,987.9 1670.92,994.031 1671.36,987.9 1671.75,981.77 1672.31,987.9 
  1673,994.031 1674.7,1000.16 1674.74,994.031 1675.49,1000.16 1675.81,994.031 1679.43,1000.16 1680.98,1006.29 1681.47,1000.16 1686.49,1006.29 1687.55,1012.42 
  1687.98,1018.55 1688.79,1024.68 1689.11,1030.82 1690.36,1024.68 1690.67,1030.82 1691.43,1036.95 1692.57,1030.82 1695.84,1024.68 1696.26,1018.55 1698.78,1024.68 
  1701.41,1030.82 1701.41,1024.68 1701.51,1030.82 1702.41,1024.68 1703.25,1030.82 1704.34,1036.95 1705.4,1030.82 1706.09,1036.95 1707.21,1043.08 1707.84,1049.21 
  1711.68,1043.08 1712.61,1049.21 1714.2,1055.34 1714.42,1049.21 1720,1043.08 1720.62,1049.21 1722.02,1055.34 1724.29,1049.21 1725.07,1055.34 1729.6,1061.47 
  1731.75,1055.34 1732.63,1049.21 1733.92,1055.34 1734.06,1061.47 1734.39,1055.34 1734.86,1049.21 1735.02,1055.34 1735.63,1061.47 1737.82,1055.34 1741.18,1049.21 
  1745.18,1043.08 1746.64,1049.21 1751.32,1043.08 1752.93,1036.95 1754.08,1043.08 1756.53,1049.21 1756.75,1043.08 1757.03,1049.21 1757.54,1043.08 1757.76,1049.21 
  1761.31,1055.34 1762.19,1061.47 1764.19,1055.34 1765.17,1049.21 1766.88,1043.08 1770.65,1049.21 1771.12,1055.34 1771.51,1049.21 1771.74,1043.08 1774.21,1036.95 
  1774.75,1043.08 1775.11,1036.95 1776.09,1030.82 1777.29,1036.95 1778.08,1030.82 1779.74,1036.95 1783.8,1030.82 1786.36,1024.68 1786.71,1030.82 1788.87,1036.95 
  1789.14,1030.82 1789.93,1024.68 1790.07,1018.55 1790.28,1012.42 1794.54,1006.29 1794.93,1012.42 1795.16,1018.55 1795.92,1012.42 1796.46,1018.55 1799.61,1024.68 
  1799.79,1018.55 1800.32,1012.42 1801.42,1018.55 1801.79,1012.42 1803.82,1018.55 1804.79,1012.42 1807.68,1006.29 1810.36,1000.16 1812.99,994.031 1814.13,1000.16 
  1819.05,1006.29 1821.96,1000.16 1822.31,994.031 1822.32,987.9 1823.23,981.77 1823.92,975.639 1824.57,981.77 1825.42,987.9 1827.1,994.031 1829.22,987.9 
  1829.82,994.031 1829.95,987.9 1833.86,994.031 1835.78,987.9 1836.66,981.77 1837.93,975.639 1839.03,969.508 1840.19,975.639 1840.72,981.77 1843.79,987.9 
  1845.2,981.77 1846.7,975.639 1847.34,981.77 1847.87,987.9 1854.21,981.77 1855.42,987.9 1856.69,981.77 1858.92,975.639 1859.12,969.508 1860.94,963.378 
  1862.92,969.508 1863.71,963.378 1863.9,957.247 1864.58,951.116 1865.4,957.247 1865.53,963.378 1867.18,957.247 1868.14,963.378 1873.15,969.508 1873.2,975.639 
  1873.44,981.77 1873.75,975.639 1876.71,969.508 1879.09,963.378 1880.15,969.508 1881.26,975.639 1881.51,981.77 1881.78,987.9 1882.02,981.77 1882.72,975.639 
  1883.04,981.77 1883.07,975.639 1885.92,969.508 1888.42,963.378 1889.03,957.247 1891.14,951.116 1891.31,944.985 1892.23,938.855 1892.89,932.724 1893.62,938.855 
  1894.19,944.985 1899.61,951.116 1903.14,957.247 1903.81,963.378 1905.32,969.508 1909.91,975.639 1912.86,969.508 1914.35,963.378 1915.5,957.247 1916.04,951.116 
  1916.23,957.247 1917.1,951.116 1919.45,944.985 1920.64,938.855 1920.69,944.985 1921.26,938.855 1925.37,944.985 1927.02,951.116 1929.59,944.985 1930.44,938.855 
  1931.74,932.724 1933.23,938.855 1936.14,944.985 1936.35,938.855 1936.49,944.985 1937.07,951.116 1940.03,944.985 1941.23,951.116 1941.59,957.247 1944.05,963.378 
  1945.24,957.247 1948.31,951.116 1949.95,944.985 1950.88,938.855 1951.02,932.724 1951.17,926.593 1952.42,932.724 1952.96,938.855 1956.55,932.724 1956.59,926.593 
  1957.7,920.463 1957.98,914.332 1958.94,908.201 1962.24,902.071 1966.42,895.94 1967.75,889.809 1968.59,883.679 1968.64,889.809 1969.73,895.94 1970.31,902.071 
  1971.98,908.201 1972.42,902.071 1974.73,908.201 1976.05,914.332 1978.07,908.201 1983.48,914.332 1983.49,920.463 1983.88,914.332 1983.97,920.463 1987.43,914.332 
  1989.86,908.201 1995.22,902.071 1995.29,895.94 1995.76,902.071 1996.4,908.201 1996.43,914.332 1996.86,920.463 1997.6,926.593 1998.57,932.724 1998.75,938.855 
  2001.96,944.985 2002.6,938.855 2004.5,932.724 2005.83,938.855 2008.17,932.724 2008.73,938.855 2009.06,944.985 2009.38,951.116 2009.87,957.247 2013.4,963.378 
  2016.35,957.247 2016.76,963.378 2017.29,957.247 2021.9,963.378 2023.64,969.508 2028.88,975.639 2029.2,981.77 2031.05,975.639 2031.72,969.508 2032.7,975.639 
  2033.13,981.77 2033.8,975.639 2033.93,969.508 2035.36,975.639 2035.41,981.77 2036.34,987.9 2038.02,994.031 2038.1,1000.16 2041.55,994.031 2044.58,987.9 
  2044.91,994.031 2045.11,987.9 2045.95,981.77 2046.01,987.9 2046.04,994.031 2048.81,987.9 2050.6,981.77 2053.55,975.639 2054.48,969.508 2062.6,963.378 
  2063.62,957.247 2064.17,951.116 2065.5,957.247 2066.9,963.378 2067.33,969.508 2067.79,963.378 2070.35,957.247 2070.78,963.378 2071.35,969.508 2071.36,975.639 
  2071.84,969.508 2073.22,963.378 2073.37,969.508 2074.11,963.378 2078.51,969.508 2078.55,963.378 2083.76,957.247 2083.94,951.116 2085.37,957.247 2086.61,951.116 
  2087.12,944.985 2088.75,951.116 2092.18,944.985 2093.08,951.116 2093.4,957.247 2096.84,963.378 2100.74,957.247 2102.32,963.378 2102.94,969.508 2103.46,963.378 
  2106.11,969.508 2106.95,975.639 2108.24,969.508 2111.74,963.378 2112.8,957.247 2114.81,963.378 2118.14,969.508 2119.36,975.639 2119.79,981.77 2120.48,987.9 
  2120.64,981.77 2123.7,975.639 2124.88,969.508 2125.38,975.639 2126.31,981.77 2127.12,975.639 2127.59,969.508 2129.43,975.639 2129.64,981.77 2132.68,975.639 
  2134.97,969.508 2137.1,963.378 2137.46,957.247 2139.7,963.378 2141.98,969.508 2143.82,963.378 2143.83,969.508 2144.18,975.639 2144.86,969.508 2145.23,963.378 
  2146.96,969.508 2147.11,963.378 2150.2,957.247 2150.81,951.116 2152.27,944.985 2153.18,938.855 2153.77,932.724 2155.66,926.593 2155.69,932.724 2158.23,926.593 
  2158.48,932.724 2160.34,938.855 2160.43,932.724 2160.48,938.855 2161.88,944.985 2163.59,938.855 2164.49,932.724 2166.14,926.593 2166.31,920.463 2167.33,914.332 
  2167.7,920.463 2167.83,926.593 2168.51,932.724 2168.58,938.855 2168.72,944.985 2170.93,938.855 2171.82,944.985 2174.29,938.855 2176.43,944.985 2178.05,938.855 
  2178.27,944.985 2179.06,938.855 2183.22,932.724 2184.06,938.855 2186.49,932.724 2186.79,926.593 2190.69,932.724 2197.49,938.855 2197.91,932.724 2203.33,938.855 
  2204.49,932.724 2205.09,926.593 2205.18,932.724 2205.4,926.593 2206.25,932.724 2211.08,926.593 2211.77,932.724 2212.28,938.855 2214.02,932.724 2214.49,926.593 
  2216.25,932.724 2220.67,938.855 2220.86,944.985 2228.21,938.855 2229.32,932.724 2229.7,938.855 2230.04,944.985 2231.27,938.855 2231.98,932.724 2232.79,938.855 
  2232.98,932.724 2234.38,926.593 2238.65,932.724 2241.37,938.855 2241.86,944.985 2244.21,938.855 2245.32,932.724 2246.83,938.855 2246.96,932.724 2247.04,926.593 
  2248.89,920.463 2249.17,926.593 2250.42,932.724 2251.47,926.593 2252,920.463 2252.62,914.332 2253.44,920.463 2253.71,926.593 2254.51,920.463 2255.19,914.332 
  2255.76,908.201 2255.99,914.332 2256.12,908.201 2257.03,914.332 2260.53,908.201 2261.56,914.332 2262.31,920.463 2264.24,926.593 2266.01,920.463 2266.97,914.332 
  2269.16,908.201 2271.63,902.071 2273.64,908.201 2275.4,902.071 2277.01,895.94 2279.25,902.071 2279.32,895.94 2281.94,902.071 2283.06,895.94 2284.54,889.809 
  2285.34,895.94 2285.82,889.809 2287.08,883.679 2288.86,889.809 2292.79,895.94 
  "/>
<polyline clip-path="url(#clip092)" style="stroke:#e26f46; stroke-linecap:butt; stroke-linejoin:round; stroke-width:4; stroke-opacity:1; fill:none" points="
  294.087,1386.4 297.385,1380.26 297.665,1374.13 297.707,1368 299.126,1361.87 300.554,1355.74 300.606,1349.61 300.646,1343.48 300.936,1337.35 301.648,1331.22 
  304.505,1325.09 304.668,1318.96 304.808,1312.83 305.148,1306.7 306.681,1300.57 306.697,1294.44 307.121,1288.3 307.635,1282.17 308.335,1276.04 308.82,1269.91 
  309.28,1263.78 309.9,1257.65 310.242,1251.52 314.967,1245.39 315.892,1239.26 316.735,1233.13 319.068,1227 319.414,1220.87 319.478,1214.74 319.86,1208.61 
  319.978,1202.47 324.331,1196.34 324.814,1190.21 325.11,1184.08 325.2,1177.95 325.675,1171.82 326.458,1165.69 326.654,1159.56 326.971,1153.43 328.901,1147.3 
  328.977,1141.17 329.551,1135.04 331.767,1128.91 333.193,1122.78 337.526,1116.65 337.914,1110.51 339.412,1104.38 339.62,1098.25 340.048,1092.12 340.064,1098.25 
  340.407,1092.12 340.413,1085.99 342.036,1079.86 342.28,1073.73 345.06,1067.6 346.747,1061.47 346.75,1055.34 349.342,1049.21 349.372,1043.08 350.095,1036.95 
  351.213,1043.08 352.661,1049.21 352.783,1043.08 353.505,1036.95 353.846,1030.82 354.207,1036.95 354.352,1030.82 354.803,1036.95 355.004,1030.82 355.013,1024.68 
  355.885,1018.55 355.921,1012.42 358.433,1018.55 359.629,1012.42 360.725,1006.29 361.358,1000.16 361.752,1006.29 361.789,1000.16 364.012,994.031 365.297,987.9 
  366.581,981.77 366.697,975.639 369.393,969.508 369.527,963.378 371.936,969.508 372.207,963.378 373.535,957.247 374.329,951.116 375.907,957.247 378.649,963.378 
  379.173,957.247 379.713,951.116 380.1,944.985 380.543,951.116 380.779,944.985 383.564,938.855 385.141,932.724 388.705,938.855 388.992,944.985 391.276,938.855 
  392.568,944.985 392.998,951.116 393.072,957.247 393.504,963.378 393.618,957.247 395.839,963.378 395.958,957.247 396.924,951.116 396.968,944.985 398.632,938.855 
  399.161,932.724 400.873,938.855 401.781,932.724 402.852,926.593 404.924,920.463 405.068,914.332 405.118,908.201 405.313,902.071 405.329,895.94 406.131,889.809 
  407.585,883.679 408.345,877.548 410.158,871.417 411.568,865.286 412.975,859.156 413.548,853.025 414.748,846.894 417.428,840.764 418.572,834.633 420.415,828.502 
  420.571,822.372 421.469,816.241 422.649,822.372 422.833,828.502 423.129,834.633 423.179,828.502 426.073,822.372 429.367,816.241 430.157,822.372 431.528,816.241 
  432.026,822.372 434.097,816.241 435.163,810.11 435.266,803.979 437.143,797.849 438.501,791.718 438.682,785.587 439.922,791.718 442.547,797.849 444.565,791.718 
  446.262,785.587 448.2,779.457 449.641,785.587 452.898,779.457 453.941,773.326 455.645,767.195 455.683,761.065 455.906,754.934 456.533,761.065 456.88,754.934 
  457.124,748.803 458.382,742.673 463.113,748.803 463.796,742.673 464.224,748.803 466.622,742.673 468.12,736.542 468.219,730.411 469.181,724.28 469.919,718.15 
  475.359,724.28 477.221,730.411 477.503,724.28 478.163,718.15 480.23,724.28 482.609,730.411 484.669,736.542 490.643,730.411 492.387,724.28 495.284,718.15 
  497.999,724.28 498.977,730.411 500.319,736.542 500.484,730.411 501.401,724.28 502.699,718.15 503.427,724.28 504.316,718.15 509.04,712.019 516.767,705.888 
  516.857,699.758 518.512,693.627 520.414,699.758 523.671,693.627 523.721,687.496 523.982,693.627 524.291,687.496 525.608,693.627 526.295,687.496 530.697,681.366 
  531.251,675.235 532.128,669.104 534.03,662.973 534.689,669.104 534.773,662.973 537.79,669.104 538.341,662.973 539.723,669.104 540.489,662.973 541.57,656.843 
  544.095,662.973 547.971,656.843 548.52,662.973 550.015,669.104 550.475,662.973 554.185,656.843 554.384,650.712 556.171,656.843 558.514,650.712 558.827,644.581 
  559.236,638.451 560.783,644.581 562.003,638.451 562.677,632.32 563.287,626.189 564.73,632.32 569.108,626.189 570.093,620.059 570.435,626.189 570.919,632.32 
  572.078,626.189 572.801,620.059 574.908,626.189 577.674,632.32 580.29,638.451 580.854,632.32 581.292,626.189 583.571,620.059 585.111,613.928 589.338,620.059 
  589.782,613.928 590.014,607.797 595.394,601.666 597.375,595.536 603.458,601.666 606.575,595.536 606.62,601.666 609.731,607.797 611.361,613.928 612.448,620.059 
  612.913,613.928 613.784,620.059 616.309,626.189 619.115,620.059 622.172,613.928 622.389,620.059 622.832,626.189 623.12,620.059 624.978,613.928 625.788,607.797 
  631.775,601.666 632.139,595.536 634.575,601.666 639.502,595.536 643.381,589.405 647.988,595.536 649.986,589.405 650.553,583.274 650.805,589.405 651.509,595.536 
  651.511,589.405 651.976,583.274 652.642,577.144 653.098,571.013 653.216,564.882 655.274,571.013 655.634,577.144 661.185,571.013 662.824,577.144 663.826,583.274 
  666.005,577.144 671.746,583.274 674.374,577.144 678.701,571.013 679.051,564.882 679.87,558.752 684.489,564.882 685.636,558.752 686.255,564.882 686.762,558.752 
  687.493,552.621 689.285,546.49 692.504,540.36 692.958,546.49 693.846,540.36 694.626,546.49 695.347,540.36 696.013,546.49 697.569,540.36 698.113,546.49 
  700.506,540.36 701.978,546.49 703.902,552.621 703.956,546.49 705.557,552.621 705.633,546.49 708.399,552.621 709.504,546.49 711,540.36 712.583,546.49 
  715.776,552.621 717.706,558.752 717.985,552.621 718.984,558.752 720.403,552.621 720.744,546.49 721.437,540.36 723.818,534.229 724.597,528.098 725.342,534.229 
  725.512,540.36 726.329,546.49 726.499,540.36 728.604,546.49 730.774,540.36 733.811,534.229 735.023,528.098 738.346,534.229 739.542,540.36 740.21,546.49 
  741.963,552.621 743.624,546.49 744.675,552.621 744.765,558.752 745.023,552.621 745.099,546.49 746.148,552.621 747.251,558.752 747.629,552.621 751.764,558.752 
  752.612,564.882 753.059,558.752 753.135,564.882 754.096,571.013 755.148,577.144 755.665,583.274 757.878,589.405 760.568,595.536 762.986,589.405 764.812,595.536 
  766.169,589.405 767.299,595.536 768.875,601.666 770.395,595.536 771.209,589.405 771.487,583.274 773.224,577.144 773.659,571.013 774.306,564.882 774.934,558.752 
  781.766,564.882 782.15,558.752 782.582,552.621 785.073,546.49 786.864,540.36 787.644,546.49 789.647,540.36 790.736,546.49 790.913,540.36 791.847,534.229 
  793.332,540.36 795.91,534.229 797.442,540.36 797.487,534.229 800.237,528.098 800.424,534.229 803.389,528.098 803.532,534.229 804.449,540.36 806.53,546.49 
  808.623,552.621 809.16,546.49 812.813,552.621 814.439,558.752 819.648,552.621 819.688,546.49 821.546,552.621 822.115,558.752 822.451,564.882 823.915,571.013 
  824.9,564.882 826.519,571.013 828.679,577.144 829.757,571.013 831.395,564.882 833.974,558.752 834.1,564.882 835.151,558.752 835.768,564.882 839.639,571.013 
  844.727,564.882 845.351,558.752 845.475,564.882 847.045,571.013 847.494,577.144 848.311,571.013 848.322,577.144 848.349,571.013 849.27,564.882 850.636,558.752 
  851.37,552.621 855.538,546.49 856.47,552.621 859.109,558.752 859.11,564.882 861.027,558.752 865.534,552.621 865.594,546.49 869.681,540.36 870.987,546.49 
  871.651,552.621 873.14,558.752 873.203,564.882 875.552,571.013 875.564,564.882 876.387,571.013 878.688,564.882 879.004,558.752 880.745,552.621 884.102,558.752 
  886.408,552.621 886.69,558.752 891.366,552.621 895.109,558.752 900.905,552.621 901.134,558.752 901.808,564.882 901.888,571.013 906.983,564.882 910.138,558.752 
  910.316,564.882 911.874,571.013 914.397,564.882 919.328,571.013 920.932,564.882 920.968,558.752 922.41,552.621 923.607,546.49 925.107,552.621 925.799,546.49 
  926.279,552.621 926.455,558.752 928.298,564.882 931.46,571.013 934.615,577.144 935.239,583.274 935.46,589.405 937.522,595.536 937.658,601.666 942.755,607.797 
  949.322,601.666 950.692,595.536 951.383,589.405 952.859,595.536 954.982,589.405 956.741,595.536 959.477,589.405 962.589,595.536 963.106,601.666 963.853,595.536 
  963.874,589.405 965.396,583.274 965.454,577.144 967.302,571.013 968.352,577.144 972.807,583.274 975.201,589.405 977.318,595.536 978.332,589.405 978.826,595.536 
  980.448,589.405 980.472,583.274 987.609,589.405 992.55,595.536 992.707,601.666 993.611,607.797 995.749,601.666 995.779,595.536 997.22,601.666 997.927,607.797 
  1000.12,613.928 1003.09,607.797 1004.46,613.928 1005.06,607.797 1005.38,613.928 1007.07,607.797 1007.41,601.666 1007.55,607.797 1008,601.666 1008.07,607.797 
  1009.11,613.928 1011.04,607.797 1011.32,601.666 1011.68,595.536 1012.86,589.405 1014.51,595.536 1015.9,589.405 1016.7,583.274 1018.66,589.405 1018.98,583.274 
  1020.58,577.144 1020.6,583.274 1020.61,577.144 1023.52,583.274 1027.69,577.144 1031.23,571.013 1031.75,564.882 1032.58,558.752 1038.28,564.882 1038.42,558.752 
  1040.25,564.882 1040.41,571.013 1040.91,577.144 1041.31,583.274 1041.7,577.144 1042.14,571.013 1042.31,564.882 1042.54,571.013 1043.68,564.882 1044.85,558.752 
  1051.87,564.882 1052.85,558.752 1055.63,552.621 1057.93,558.752 1058.54,564.882 1058.91,571.013 1059.04,577.144 1059.3,571.013 1059.72,577.144 1060.56,571.013 
  1063.38,577.144 1063.94,583.274 1065.84,577.144 1066.5,583.274 1067.39,577.144 1068.12,583.274 1070.39,589.405 1070.46,595.536 1070.56,589.405 1071.59,595.536 
  1076.42,589.405 1079.49,583.274 1080.29,577.144 1082.36,571.013 1082.54,564.882 1082.78,571.013 1082.95,564.882 1085.53,558.752 1087.74,552.621 1088.53,546.49 
  1089.07,552.621 1089.95,558.752 1091.24,552.621 1091.4,546.49 1105.73,540.36 1106.6,546.49 1107.65,552.621 1108.86,558.752 1110.56,564.882 1113.3,571.013 
  1115.61,564.882 1117.07,558.752 1119.43,552.621 1120.4,546.49 1123.09,540.36 1126.52,546.49 1127.23,540.36 1129.44,534.229 1130.53,540.36 1131.36,546.49 
  1131.66,552.621 1132.19,558.752 1135.48,552.621 1136,558.752 1136.11,564.882 1140.9,558.752 1143.79,552.621 1145.37,546.49 1145.76,540.36 1146.25,534.229 
  1146.9,540.36 1149.39,546.49 1152.35,552.621 1152.63,558.752 1153.73,552.621 1153.77,558.752 1154,564.882 1157.32,571.013 1159.43,577.144 1160.38,571.013 
  1161.88,564.882 1163.44,558.752 1163.8,564.882 1164.78,558.752 1165.95,552.621 1166.59,558.752 1168.72,564.882 1169,558.752 1171.6,564.882 1177.08,558.752 
  1181.34,564.882 1182.53,558.752 1182.91,564.882 1182.95,558.752 1189.84,564.882 1190.73,558.752 1193.99,564.882 1194.62,558.752 1195.73,564.882 1197.29,571.013 
  1198.35,577.144 1198.43,571.013 1201.42,564.882 1203.06,558.752 1203.97,552.621 1204.33,546.49 1204.35,540.36 1204.75,534.229 1204.88,540.36 1204.9,534.229 
  1206.44,540.36 1206.49,546.49 1206.55,552.621 1207.12,546.49 1207.41,552.621 1208.14,546.49 1208.88,552.621 1209.77,546.49 1211.31,540.36 1215.87,546.49 
  1216.92,540.36 1217.79,546.49 1220.1,552.621 1223.08,558.752 1226.29,564.882 1228.51,558.752 1229.68,552.621 1230.35,546.49 1230.37,552.621 1231.44,546.49 
  1231.69,552.621 1232.67,546.49 1232.85,552.621 1235.62,558.752 1238.36,552.621 1240.17,546.49 1242.11,540.36 1243.64,546.49 1246.22,540.36 1246.57,546.49 
  1247.6,552.621 1248.12,546.49 1249.13,540.36 1249.17,546.49 1249.34,552.621 1249.42,558.752 1250.92,564.882 1251.5,558.752 1252.23,564.882 1253.27,571.013 
  1254.01,564.882 1255.21,571.013 1256.51,564.882 1258.27,571.013 1261.22,577.144 1262.86,583.274 1264.09,589.405 1268.9,595.536 1271.25,589.405 1271.62,595.536 
  1274.42,589.405 1277.52,583.274 1279.01,589.405 1280.22,595.536 1280.42,601.666 1281.42,595.536 1281.48,589.405 1281.56,595.536 1287.26,589.405 1288.63,583.274 
  1290.23,577.144 1290.79,571.013 1291.22,577.144 1292.08,571.013 1292.29,564.882 1294.15,571.013 1294.36,564.882 1294.95,558.752 1295.71,564.882 1297.21,571.013 
  1299,577.144 1299.49,583.274 1300.79,577.144 1301.67,583.274 1305.29,589.405 1305.44,583.274 1308.62,589.405 1310.1,583.274 1311.06,589.405 1312.07,583.274 
  1315.13,589.405 1316.59,583.274 1317.39,589.405 1324.45,595.536 1328.56,601.666 1329.3,595.536 1330.96,601.666 1334.78,595.536 1336.05,589.405 1336.83,595.536 
  1341.61,601.666 1344.18,595.536 1348.32,601.666 1352.24,595.536 1354.46,601.666 1355.41,595.536 1355.77,589.405 1357.66,583.274 1359.04,577.144 1364.21,571.013 
  1365.11,577.144 1365.18,583.274 1365.53,589.405 1366.34,583.274 1367.5,577.144 1367.78,583.274 1368.55,589.405 1368.76,583.274 1371.71,589.405 1373.17,583.274 
  1373.29,577.144 1373.33,583.274 1374.68,589.405 1375.1,583.274 1377.2,577.144 1378.79,583.274 1380.99,589.405 1382.6,595.536 1386,589.405 1390.37,583.274 
  1391.34,577.144 1391.59,571.013 1391.74,564.882 1392.14,558.752 1393.15,564.882 1394.22,571.013 1394.47,564.882 1395.54,571.013 1395.77,577.144 1397.64,583.274 
  1398.46,577.144 1402.06,583.274 1402.97,577.144 1403.07,583.274 1408.61,577.144 1408.77,583.274 1410.92,577.144 1413.73,583.274 1413.84,589.405 1414.17,583.274 
  1415.3,577.144 1416.1,583.274 1418.18,577.144 1420.26,583.274 1421.24,589.405 1421.7,595.536 1426.98,589.405 1429.1,595.536 1429.69,589.405 1433.1,583.274 
  1433.87,589.405 1436.54,583.274 1436.55,577.144 1437.67,571.013 1440.03,564.882 1446.11,571.013 1447.36,564.882 1447.65,558.752 1447.87,552.621 1449.8,558.752 
  1453.17,564.882 1453.89,558.752 1456.95,552.621 1458.2,546.49 1458.41,552.621 1459.27,546.49 1461.28,552.621 1463.21,558.752 1467,552.621 1468.42,546.49 
  1471.66,552.621 1472.63,558.752 1473.12,552.621 1476.41,546.49 1476.67,552.621 1478.51,546.49 1485.35,552.621 1485.83,546.49 1486.85,540.36 1487.69,546.49 
  1489.64,552.621 1489.75,546.49 1496.75,552.621 1497.4,546.49 1499.45,540.36 1499.83,546.49 1500.7,552.621 1502.1,558.752 1502.57,564.882 1505.43,558.752 
  1506.18,552.621 1510.74,558.752 1512.45,564.882 1514.03,571.013 1514.52,564.882 1517.68,558.752 1519.38,564.882 1527.02,571.013 1527.42,564.882 1528.12,558.752 
  1528.45,564.882 1530.14,558.752 1531.87,552.621 1532.84,558.752 1533.01,564.882 1536.78,558.752 1537.59,552.621 1538.19,558.752 1541.61,552.621 1541.68,558.752 
  1541.72,552.621 1543.39,546.49 1543.61,540.36 1545.43,546.49 1548.03,552.621 1548.47,558.752 1553.12,564.882 1553.31,571.013 1554.24,577.144 1555.18,583.274 
  1555.94,577.144 1556,571.013 1560.1,564.882 1560.43,571.013 1562.68,577.144 1563.88,583.274 1565.32,589.405 1566.26,595.536 1566.91,601.666 1568.71,595.536 
  1572.43,601.666 1574.03,595.536 1576.11,601.666 1576.19,595.536 1577.55,589.405 1581.62,583.274 1582.21,589.405 1582.47,583.274 1583.31,589.405 1584.43,583.274 
  1584.6,577.144 1585.09,571.013 1585.81,577.144 1586.13,571.013 1589.24,577.144 1590,583.274 1592.96,589.405 1595.22,583.274 1598.94,589.405 1600.15,595.536 
  1600.85,601.666 1603.23,607.797 1605.33,601.666 1607.79,595.536 1608.01,601.666 1608.42,595.536 1608.78,589.405 1610.35,595.536 1612.22,589.405 1612.87,595.536 
  1614.8,589.405 1614.86,595.536 1614.91,589.405 1615.25,595.536 1616.01,589.405 1616.43,583.274 1616.78,589.405 1617.93,595.536 1618.12,589.405 1621.11,583.274 
  1621.62,589.405 1622.15,583.274 1624.04,589.405 1625.35,583.274 1626.18,577.144 1628.18,583.274 1628.45,589.405 1632.05,583.274 1632.18,589.405 1632.31,583.274 
  1633.54,589.405 1635.13,583.274 1635.7,577.144 1635.79,571.013 1638.35,564.882 1638.48,558.752 1639.75,552.621 1640.76,558.752 1642.42,552.621 1644.08,558.752 
  1649.09,564.882 1649.56,571.013 1651.02,564.882 1654.82,558.752 1657.49,552.621 1657.91,558.752 1658.46,552.621 1658.74,558.752 1659.92,552.621 1661.49,546.49 
  1663.04,552.621 1663.61,558.752 1664.5,564.882 1665.27,558.752 1668.17,564.882 1668.87,558.752 1670.92,552.621 1671.36,558.752 1671.75,564.882 1672.31,558.752 
  1673,552.621 1674.7,546.49 1674.74,552.621 1675.49,546.49 1675.81,552.621 1679.43,546.49 1680.98,540.36 1681.47,546.49 1686.49,540.36 1687.55,534.229 
  1687.98,528.098 1688.79,521.967 1689.11,515.837 1690.36,521.967 1690.67,515.837 1691.43,509.706 1692.57,515.837 1695.84,521.967 1696.26,528.098 1698.78,521.967 
  1701.41,515.837 1701.41,521.967 1701.51,515.837 1702.41,521.967 1703.25,515.837 1704.34,509.706 1705.4,515.837 1706.09,509.706 1707.21,503.575 1707.84,497.445 
  1711.68,503.575 1712.61,497.445 1714.2,491.314 1714.42,497.445 1720,503.575 1720.62,497.445 1722.02,491.314 1724.29,497.445 1725.07,491.314 1729.6,485.183 
  1731.75,491.314 1732.63,497.445 1733.92,491.314 1734.06,485.183 1734.39,491.314 1734.86,497.445 1735.02,491.314 1735.63,485.183 1737.82,491.314 1741.18,497.445 
  1745.18,503.575 1746.64,497.445 1751.32,503.575 1752.93,509.706 1754.08,503.575 1756.53,497.445 1756.75,503.575 1757.03,497.445 1757.54,503.575 1757.76,497.445 
  1761.31,491.314 1762.19,485.183 1764.19,491.314 1765.17,497.445 1766.88,503.575 1770.65,497.445 1771.12,491.314 1771.51,497.445 1771.74,503.575 1774.21,509.706 
  1774.75,503.575 1775.11,509.706 1776.09,515.837 1777.29,509.706 1778.08,515.837 1779.74,509.706 1783.8,515.837 1786.36,521.967 1786.71,515.837 1788.87,509.706 
  1789.14,515.837 1789.93,521.967 1790.07,528.098 1790.28,534.229 1794.54,540.36 1794.93,534.229 1795.16,528.098 1795.92,534.229 1796.46,528.098 1799.61,521.967 
  1799.79,528.098 1800.32,534.229 1801.42,528.098 1801.79,534.229 1803.82,528.098 1804.79,534.229 1807.68,540.36 1810.36,546.49 1812.99,552.621 1814.13,546.49 
  1819.05,540.36 1821.96,546.49 1822.31,552.621 1822.32,558.752 1823.23,564.882 1823.92,571.013 1824.57,564.882 1825.42,558.752 1827.1,552.621 1829.22,558.752 
  1829.82,552.621 1829.95,558.752 1833.86,552.621 1835.78,558.752 1836.66,564.882 1837.93,571.013 1839.03,577.144 1840.19,571.013 1840.72,564.882 1843.79,558.752 
  1845.2,564.882 1846.7,571.013 1847.34,564.882 1847.87,558.752 1854.21,564.882 1855.42,558.752 1856.69,564.882 1858.92,571.013 1859.12,577.144 1860.94,583.274 
  1862.92,577.144 1863.71,583.274 1863.9,589.405 1864.58,595.536 1865.4,589.405 1865.53,583.274 1867.18,589.405 1868.14,583.274 1873.15,577.144 1873.2,571.013 
  1873.44,564.882 1873.75,571.013 1876.71,577.144 1879.09,583.274 1880.15,577.144 1881.26,571.013 1881.51,564.882 1881.78,558.752 1882.02,564.882 1882.72,571.013 
  1883.04,564.882 1883.07,571.013 1885.92,577.144 1888.42,583.274 1889.03,589.405 1891.14,595.536 1891.31,601.666 1892.23,607.797 1892.89,613.928 1893.62,607.797 
  1894.19,601.666 1899.61,595.536 1903.14,589.405 1903.81,583.274 1905.32,577.144 1909.91,571.013 1912.86,577.144 1914.35,583.274 1915.5,589.405 1916.04,595.536 
  1916.23,589.405 1917.1,595.536 1919.45,601.666 1920.64,607.797 1920.69,601.666 1921.26,607.797 1925.37,601.666 1927.02,595.536 1929.59,601.666 1930.44,607.797 
  1931.74,613.928 1933.23,607.797 1936.14,601.666 1936.35,607.797 1936.49,601.666 1937.07,595.536 1940.03,601.666 1941.23,595.536 1941.59,589.405 1944.05,583.274 
  1945.24,589.405 1948.31,595.536 1949.95,601.666 1950.88,607.797 1951.02,613.928 1951.17,620.059 1952.42,613.928 1952.96,607.797 1956.55,613.928 1956.59,620.059 
  1957.7,626.189 1957.98,632.32 1958.94,638.451 1962.24,644.581 1966.42,650.712 1967.75,656.843 1968.59,662.973 1968.64,656.843 1969.73,650.712 1970.31,644.581 
  1971.98,638.451 1972.42,644.581 1974.73,638.451 1976.05,632.32 1978.07,638.451 1983.48,632.32 1983.49,626.189 1983.88,632.32 1983.97,626.189 1987.43,632.32 
  1989.86,638.451 1995.22,644.581 1995.29,650.712 1995.76,644.581 1996.4,638.451 1996.43,632.32 1996.86,626.189 1997.6,620.059 1998.57,613.928 1998.75,607.797 
  2001.96,601.666 2002.6,607.797 2004.5,613.928 2005.83,607.797 2008.17,613.928 2008.73,607.797 2009.06,601.666 2009.38,595.536 2009.87,589.405 2013.4,583.274 
  2016.35,589.405 2016.76,583.274 2017.29,589.405 2021.9,583.274 2023.64,577.144 2028.88,571.013 2029.2,564.882 2031.05,571.013 2031.72,577.144 2032.7,571.013 
  2033.13,564.882 2033.8,571.013 2033.93,577.144 2035.36,571.013 2035.41,564.882 2036.34,558.752 2038.02,552.621 2038.1,546.49 2041.55,552.621 2044.58,558.752 
  2044.91,552.621 2045.11,558.752 2045.95,564.882 2046.01,558.752 2046.04,552.621 2048.81,558.752 2050.6,564.882 2053.55,571.013 2054.48,577.144 2062.6,583.274 
  2063.62,589.405 2064.17,595.536 2065.5,589.405 2066.9,583.274 2067.33,577.144 2067.79,583.274 2070.35,589.405 2070.78,583.274 2071.35,577.144 2071.36,571.013 
  2071.84,577.144 2073.22,583.274 2073.37,577.144 2074.11,583.274 2078.51,577.144 2078.55,583.274 2083.76,589.405 2083.94,595.536 2085.37,589.405 2086.61,595.536 
  2087.12,601.666 2088.75,595.536 2092.18,601.666 2093.08,595.536 2093.4,589.405 2096.84,583.274 2100.74,589.405 2102.32,583.274 2102.94,577.144 2103.46,583.274 
  2106.11,577.144 2106.95,571.013 2108.24,577.144 2111.74,583.274 2112.8,589.405 2114.81,583.274 2118.14,577.144 2119.36,571.013 2119.79,564.882 2120.48,558.752 
  2120.64,564.882 2123.7,571.013 2124.88,577.144 2125.38,571.013 2126.31,564.882 2127.12,571.013 2127.59,577.144 2129.43,571.013 2129.64,564.882 2132.68,571.013 
  2134.97,577.144 2137.1,583.274 2137.46,589.405 2139.7,583.274 2141.98,577.144 2143.82,583.274 2143.83,577.144 2144.18,571.013 2144.86,577.144 2145.23,583.274 
  2146.96,577.144 2147.11,583.274 2150.2,589.405 2150.81,595.536 2152.27,601.666 2153.18,607.797 2153.77,613.928 2155.66,620.059 2155.69,613.928 2158.23,620.059 
  2158.48,613.928 2160.34,607.797 2160.43,613.928 2160.48,607.797 2161.88,601.666 2163.59,607.797 2164.49,613.928 2166.14,620.059 2166.31,626.189 2167.33,632.32 
  2167.7,626.189 2167.83,620.059 2168.51,613.928 2168.58,607.797 2168.72,601.666 2170.93,607.797 2171.82,601.666 2174.29,607.797 2176.43,601.666 2178.05,607.797 
  2178.27,601.666 2179.06,607.797 2183.22,613.928 2184.06,607.797 2186.49,613.928 2186.79,620.059 2190.69,613.928 2197.49,607.797 2197.91,613.928 2203.33,607.797 
  2204.49,613.928 2205.09,620.059 2205.18,613.928 2205.4,620.059 2206.25,613.928 2211.08,620.059 2211.77,613.928 2212.28,607.797 2214.02,613.928 2214.49,620.059 
  2216.25,613.928 2220.67,607.797 2220.86,601.666 2228.21,607.797 2229.32,613.928 2229.7,607.797 2230.04,601.666 2231.27,607.797 2231.98,613.928 2232.79,607.797 
  2232.98,613.928 2234.38,620.059 2238.65,613.928 2241.37,607.797 2241.86,601.666 2244.21,607.797 2245.32,613.928 2246.83,607.797 2246.96,613.928 2247.04,620.059 
  2248.89,626.189 2249.17,620.059 2250.42,613.928 2251.47,620.059 2252,626.189 2252.62,632.32 2253.44,626.189 2253.71,620.059 2254.51,626.189 2255.19,632.32 
  2255.76,638.451 2255.99,632.32 2256.12,638.451 2257.03,632.32 2260.53,638.451 2261.56,632.32 2262.31,626.189 2264.24,620.059 2266.01,626.189 2266.97,632.32 
  2269.16,638.451 2271.63,644.581 2273.64,638.451 2275.4,644.581 2277.01,650.712 2279.25,644.581 2279.32,650.712 2281.94,644.581 2283.06,650.712 2284.54,656.843 
  2285.34,650.712 2285.82,656.843 2287.08,662.973 2288.86,656.843 2292.79,650.712 
  "/>
<path clip-path="url(#clip090)" d="
M2015.07 322.316 L2282.13 322.316 L2282.13 166.796 L2015.07 166.796  Z
  " fill="#ffffff" fill-rule="evenodd" fill-opacity="1"/>
<polyline clip-path="url(#clip090)" style="stroke:#000000; stroke-linecap:butt; stroke-linejoin:round; stroke-width:4; stroke-opacity:1; fill:none" points="
  2015.07,322.316 2282.13,322.316 2282.13,166.796 2015.07,166.796 2015.07,322.316 
  "/>
<polyline clip-path="url(#clip090)" style="stroke:#009af9; stroke-linecap:butt; stroke-linejoin:round; stroke-width:4; stroke-opacity:1; fill:none" points="
  2038.61,218.636 2179.85,218.636 
  "/>
<path clip-path="url(#clip090)" d="M2219.22 205.962 L2212.88 223.161 L2225.59 223.161 L2219.22 205.962 M2216.58 201.356 L2221.88 201.356 L2235.05 235.916 L2230.19 235.916 L2227.04 227.05 L2211.47 227.05 L2208.32 235.916 L2203.39 235.916 L2216.58 201.356 Z" fill="#000000" fill-rule="evenodd" fill-opacity="1" /><polyline clip-path="url(#clip090)" style="stroke:#e26f46; stroke-linecap:butt; stroke-linejoin:round; stroke-width:4; stroke-opacity:1; fill:none" points="
  2038.61,270.476 2179.85,270.476 
  "/>
<path clip-path="url(#clip090)" d="M2208.06 271.251 L2208.06 283.913 L2215.56 283.913 Q2219.34 283.913 2221.14 282.362 Q2222.97 280.788 2222.97 277.571 Q2222.97 274.33 2221.14 272.802 Q2219.34 271.251 2215.56 271.251 L2208.06 271.251 M2208.06 257.038 L2208.06 267.455 L2214.98 267.455 Q2218.41 267.455 2220.08 266.182 Q2221.77 264.885 2221.77 262.247 Q2221.77 259.631 2220.08 258.335 Q2218.41 257.038 2214.98 257.038 L2208.06 257.038 M2203.39 253.196 L2215.33 253.196 Q2220.68 253.196 2223.57 255.418 Q2226.47 257.64 2226.47 261.737 Q2226.47 264.909 2224.98 266.784 Q2223.5 268.659 2220.63 269.122 Q2224.08 269.862 2225.98 272.223 Q2227.9 274.561 2227.9 278.08 Q2227.9 282.709 2224.75 285.233 Q2221.61 287.756 2215.8 287.756 L2203.39 287.756 L2203.39 253.196 Z" fill="#000000" fill-rule="evenodd" fill-opacity="1" /></svg>
