<?xml version="1.0" encoding="utf-8"?>
<svg xmlns="http://www.w3.org/2000/svg" xmlns:xlink="http://www.w3.org/1999/xlink" width="600" height="400" viewBox="0 0 2400 1600">
<defs>
  <clipPath id="clip990">
    <rect x="0" y="0" width="2400" height="1600"/>
  </clipPath>
</defs>
<path clip-path="url(#clip990)" d="
M0 1600 L2400 1600 L2400 0 L0 0  Z
  " fill="#ffffff" fill-rule="evenodd" fill-opacity="1"/>
<defs>
  <clipPath id="clip991">
    <rect x="480" y="0" width="1681" height="1600"/>
  </clipPath>
</defs>
<path clip-path="url(#clip990)" d="
M186.274 1423.18 L2352.76 1423.18 L2352.76 47.2441 L186.274 47.2441  Z
  " fill="#ffffff" fill-rule="evenodd" fill-opacity="1"/>
<defs>
  <clipPath id="clip992">
    <rect x="186" y="47" width="2167" height="1377"/>
  </clipPath>
</defs>
<polyline clip-path="url(#clip992)" style="stroke:#000000; stroke-linecap:butt; stroke-linejoin:round; stroke-width:2; stroke-opacity:0.1; fill:none" points="
  186.274,1423.18 186.274,47.2441 
  "/>
<polyline clip-path="url(#clip992)" style="stroke:#000000; stroke-linecap:butt; stroke-linejoin:round; stroke-width:2; stroke-opacity:0.1; fill:none" points="
  727.894,1423.18 727.894,47.2441 
  "/>
<polyline clip-path="url(#clip992)" style="stroke:#000000; stroke-linecap:butt; stroke-linejoin:round; stroke-width:2; stroke-opacity:0.1; fill:none" points="
  1269.51,1423.18 1269.51,47.2441 
  "/>
<polyline clip-path="url(#clip992)" style="stroke:#000000; stroke-linecap:butt; stroke-linejoin:round; stroke-width:2; stroke-opacity:0.1; fill:none" points="
  1811.14,1423.18 1811.14,47.2441 
  "/>
<polyline clip-path="url(#clip992)" style="stroke:#000000; stroke-linecap:butt; stroke-linejoin:round; stroke-width:2; stroke-opacity:0.1; fill:none" points="
  2352.76,1423.18 2352.76,47.2441 
  "/>
<polyline clip-path="url(#clip990)" style="stroke:#000000; stroke-linecap:butt; stroke-linejoin:round; stroke-width:4; stroke-opacity:1; fill:none" points="
  186.274,1423.18 2352.76,1423.18 
  "/>
<polyline clip-path="url(#clip990)" style="stroke:#000000; stroke-linecap:butt; stroke-linejoin:round; stroke-width:4; stroke-opacity:1; fill:none" points="
  186.274,1423.18 186.274,1404.28 
  "/>
<polyline clip-path="url(#clip990)" style="stroke:#000000; stroke-linecap:butt; stroke-linejoin:round; stroke-width:4; stroke-opacity:1; fill:none" points="
  727.894,1423.18 727.894,1404.28 
  "/>
<polyline clip-path="url(#clip990)" style="stroke:#000000; stroke-linecap:butt; stroke-linejoin:round; stroke-width:4; stroke-opacity:1; fill:none" points="
  1269.51,1423.18 1269.51,1404.28 
  "/>
<polyline clip-path="url(#clip990)" style="stroke:#000000; stroke-linecap:butt; stroke-linejoin:round; stroke-width:4; stroke-opacity:1; fill:none" points="
  1811.14,1423.18 1811.14,1404.28 
  "/>
<polyline clip-path="url(#clip990)" style="stroke:#000000; stroke-linecap:butt; stroke-linejoin:round; stroke-width:4; stroke-opacity:1; fill:none" points="
  2352.76,1423.18 2352.76,1404.28 
  "/>
<path clip-path="url(#clip990)" d="M186.274 1454.1 Q182.663 1454.1 180.834 1457.66 Q179.029 1461.2 179.029 1468.33 Q179.029 1475.44 180.834 1479.01 Q182.663 1482.55 186.274 1482.55 Q189.908 1482.55 191.714 1479.01 Q193.542 1475.44 193.542 1468.33 Q193.542 1461.2 191.714 1457.66 Q189.908 1454.1 186.274 1454.1 M186.274 1450.39 Q192.084 1450.39 195.14 1455 Q198.218 1459.58 198.218 1468.33 Q198.218 1477.06 195.14 1481.67 Q192.084 1486.25 186.274 1486.25 Q180.464 1486.25 177.385 1481.67 Q174.33 1477.06 174.33 1468.33 Q174.33 1459.58 177.385 1455 Q180.464 1450.39 186.274 1450.39 Z" fill="#000000" fill-rule="evenodd" fill-opacity="1" /><path clip-path="url(#clip990)" d="M718.172 1451.02 L736.529 1451.02 L736.529 1454.96 L722.455 1454.96 L722.455 1463.43 Q723.473 1463.08 724.492 1462.92 Q725.51 1462.73 726.529 1462.73 Q732.316 1462.73 735.695 1465.9 Q739.075 1469.08 739.075 1474.49 Q739.075 1480.07 735.603 1483.17 Q732.131 1486.25 725.811 1486.25 Q723.635 1486.25 721.367 1485.88 Q719.121 1485.51 716.714 1484.77 L716.714 1480.07 Q718.797 1481.2 721.02 1481.76 Q723.242 1482.32 725.719 1482.32 Q729.723 1482.32 732.061 1480.21 Q734.399 1478.1 734.399 1474.49 Q734.399 1470.88 732.061 1468.77 Q729.723 1466.67 725.719 1466.67 Q723.844 1466.67 721.969 1467.08 Q720.117 1467.5 718.172 1468.38 L718.172 1451.02 Z" fill="#000000" fill-rule="evenodd" fill-opacity="1" /><path clip-path="url(#clip990)" d="M1244.2 1481.64 L1251.84 1481.64 L1251.84 1455.28 L1243.53 1456.95 L1243.53 1452.69 L1251.8 1451.02 L1256.47 1451.02 L1256.47 1481.64 L1264.11 1481.64 L1264.11 1485.58 L1244.2 1485.58 L1244.2 1481.64 Z" fill="#000000" fill-rule="evenodd" fill-opacity="1" /><path clip-path="url(#clip990)" d="M1283.55 1454.1 Q1279.94 1454.1 1278.11 1457.66 Q1276.31 1461.2 1276.31 1468.33 Q1276.31 1475.44 1278.11 1479.01 Q1279.94 1482.55 1283.55 1482.55 Q1287.19 1482.55 1288.99 1479.01 Q1290.82 1475.44 1290.82 1468.33 Q1290.82 1461.2 1288.99 1457.66 Q1287.19 1454.1 1283.55 1454.1 M1283.55 1450.39 Q1289.36 1450.39 1292.42 1455 Q1295.5 1459.58 1295.5 1468.33 Q1295.5 1477.06 1292.42 1481.67 Q1289.36 1486.25 1283.55 1486.25 Q1277.74 1486.25 1274.67 1481.67 Q1271.61 1477.06 1271.61 1468.33 Q1271.61 1459.58 1274.67 1455 Q1277.74 1450.39 1283.55 1450.39 Z" fill="#000000" fill-rule="evenodd" fill-opacity="1" /><path clip-path="url(#clip990)" d="M1786.32 1481.64 L1793.96 1481.64 L1793.96 1455.28 L1785.65 1456.95 L1785.65 1452.69 L1793.91 1451.02 L1798.59 1451.02 L1798.59 1481.64 L1806.23 1481.64 L1806.23 1485.58 L1786.32 1485.58 L1786.32 1481.64 Z" fill="#000000" fill-rule="evenodd" fill-opacity="1" /><path clip-path="url(#clip990)" d="M1815.72 1451.02 L1834.08 1451.02 L1834.08 1454.96 L1820 1454.96 L1820 1463.43 Q1821.02 1463.08 1822.04 1462.92 Q1823.06 1462.73 1824.08 1462.73 Q1829.86 1462.73 1833.24 1465.9 Q1836.62 1469.08 1836.62 1474.49 Q1836.62 1480.07 1833.15 1483.17 Q1829.68 1486.25 1823.36 1486.25 Q1821.18 1486.25 1818.91 1485.88 Q1816.67 1485.51 1814.26 1484.77 L1814.26 1480.07 Q1816.34 1481.2 1818.57 1481.76 Q1820.79 1482.32 1823.26 1482.32 Q1827.27 1482.32 1829.61 1480.21 Q1831.95 1478.1 1831.95 1474.49 Q1831.95 1470.88 1829.61 1468.77 Q1827.27 1466.67 1823.26 1466.67 Q1821.39 1466.67 1819.52 1467.08 Q1817.66 1467.5 1815.72 1468.38 L1815.72 1451.02 Z" fill="#000000" fill-rule="evenodd" fill-opacity="1" /><path clip-path="url(#clip990)" d="M2331.53 1481.64 L2347.85 1481.64 L2347.85 1485.58 L2325.9 1485.58 L2325.9 1481.64 Q2328.57 1478.89 2333.15 1474.26 Q2337.76 1469.61 2338.94 1468.27 Q2341.18 1465.74 2342.06 1464.01 Q2342.96 1462.25 2342.96 1460.56 Q2342.96 1457.8 2341.02 1456.07 Q2339.1 1454.33 2336 1454.33 Q2333.8 1454.33 2331.34 1455.09 Q2328.91 1455.86 2326.14 1457.41 L2326.14 1452.69 Q2328.96 1451.55 2331.41 1450.97 Q2333.87 1450.39 2335.9 1450.39 Q2341.27 1450.39 2344.47 1453.08 Q2347.66 1455.77 2347.66 1460.26 Q2347.66 1462.39 2346.85 1464.31 Q2346.07 1466.2 2343.96 1468.8 Q2343.38 1469.47 2340.28 1472.69 Q2337.18 1475.88 2331.53 1481.64 Z" fill="#000000" fill-rule="evenodd" fill-opacity="1" /><path clip-path="url(#clip990)" d="M2367.66 1454.1 Q2364.05 1454.1 2362.22 1457.66 Q2360.42 1461.2 2360.42 1468.33 Q2360.42 1475.44 2362.22 1479.01 Q2364.05 1482.55 2367.66 1482.55 Q2371.3 1482.55 2373.1 1479.01 Q2374.93 1475.44 2374.93 1468.33 Q2374.93 1461.2 2373.1 1457.66 Q2371.3 1454.1 2367.66 1454.1 M2367.66 1450.39 Q2373.47 1450.39 2376.53 1455 Q2379.61 1459.58 2379.61 1468.33 Q2379.61 1477.06 2376.53 1481.67 Q2373.47 1486.25 2367.66 1486.25 Q2361.85 1486.25 2358.77 1481.67 Q2355.72 1477.06 2355.72 1468.33 Q2355.72 1459.58 2358.77 1455 Q2361.85 1450.39 2367.66 1450.39 Z" fill="#000000" fill-rule="evenodd" fill-opacity="1" /><path clip-path="url(#clip990)" d="M1268.58 1522.27 L1268.58 1532.4 L1280.64 1532.4 L1280.64 1536.95 L1268.58 1536.95 L1268.58 1556.3 Q1268.58 1560.66 1269.75 1561.9 Q1270.96 1563.14 1274.62 1563.14 L1280.64 1563.14 L1280.64 1568.04 L1274.62 1568.04 Q1267.84 1568.04 1265.27 1565.53 Q1262.69 1562.98 1262.69 1556.3 L1262.69 1536.95 L1258.39 1536.95 L1258.39 1532.4 L1262.69 1532.4 L1262.69 1522.27 L1268.58 1522.27 Z" fill="#000000" fill-rule="evenodd" fill-opacity="1" /><polyline clip-path="url(#clip992)" style="stroke:#000000; stroke-linecap:butt; stroke-linejoin:round; stroke-width:2; stroke-opacity:0.1; fill:none" points="
  186.274,1227.76 2352.76,1227.76 
  "/>
<polyline clip-path="url(#clip992)" style="stroke:#000000; stroke-linecap:butt; stroke-linejoin:round; stroke-width:2; stroke-opacity:0.1; fill:none" points="
  186.274,1032.17 2352.76,1032.17 
  "/>
<polyline clip-path="url(#clip992)" style="stroke:#000000; stroke-linecap:butt; stroke-linejoin:round; stroke-width:2; stroke-opacity:0.1; fill:none" points="
  186.274,836.575 2352.76,836.575 
  "/>
<polyline clip-path="url(#clip992)" style="stroke:#000000; stroke-linecap:butt; stroke-linejoin:round; stroke-width:2; stroke-opacity:0.1; fill:none" points="
  186.274,640.982 2352.76,640.982 
  "/>
<polyline clip-path="url(#clip992)" style="stroke:#000000; stroke-linecap:butt; stroke-linejoin:round; stroke-width:2; stroke-opacity:0.1; fill:none" points="
  186.274,445.388 2352.76,445.388 
  "/>
<polyline clip-path="url(#clip992)" style="stroke:#000000; stroke-linecap:butt; stroke-linejoin:round; stroke-width:2; stroke-opacity:0.1; fill:none" points="
  186.274,249.794 2352.76,249.794 
  "/>
<polyline clip-path="url(#clip992)" style="stroke:#000000; stroke-linecap:butt; stroke-linejoin:round; stroke-width:2; stroke-opacity:0.1; fill:none" points="
  186.274,54.2 2352.76,54.2 
  "/>
<polyline clip-path="url(#clip990)" style="stroke:#000000; stroke-linecap:butt; stroke-linejoin:round; stroke-width:4; stroke-opacity:1; fill:none" points="
  186.274,1423.18 186.274,47.2441 
  "/>
<polyline clip-path="url(#clip990)" style="stroke:#000000; stroke-linecap:butt; stroke-linejoin:round; stroke-width:4; stroke-opacity:1; fill:none" points="
  186.274,1227.76 205.172,1227.76 
  "/>
<polyline clip-path="url(#clip990)" style="stroke:#000000; stroke-linecap:butt; stroke-linejoin:round; stroke-width:4; stroke-opacity:1; fill:none" points="
  186.274,1032.17 205.172,1032.17 
  "/>
<polyline clip-path="url(#clip990)" style="stroke:#000000; stroke-linecap:butt; stroke-linejoin:round; stroke-width:4; stroke-opacity:1; fill:none" points="
  186.274,836.575 205.172,836.575 
  "/>
<polyline clip-path="url(#clip990)" style="stroke:#000000; stroke-linecap:butt; stroke-linejoin:round; stroke-width:4; stroke-opacity:1; fill:none" points="
  186.274,640.982 205.172,640.982 
  "/>
<polyline clip-path="url(#clip990)" style="stroke:#000000; stroke-linecap:butt; stroke-linejoin:round; stroke-width:4; stroke-opacity:1; fill:none" points="
  186.274,445.388 205.172,445.388 
  "/>
<polyline clip-path="url(#clip990)" style="stroke:#000000; stroke-linecap:butt; stroke-linejoin:round; stroke-width:4; stroke-opacity:1; fill:none" points="
  186.274,249.794 205.172,249.794 
  "/>
<polyline clip-path="url(#clip990)" style="stroke:#000000; stroke-linecap:butt; stroke-linejoin:round; stroke-width:4; stroke-opacity:1; fill:none" points="
  186.274,54.2 205.172,54.2 
  "/>
<path clip-path="url(#clip990)" d="M63.9319 1213.56 Q60.3208 1213.56 58.4921 1217.13 Q56.6865 1220.67 56.6865 1227.8 Q56.6865 1234.9 58.4921 1238.47 Q60.3208 1242.01 63.9319 1242.01 Q67.5661 1242.01 69.3717 1238.47 Q71.2004 1234.9 71.2004 1227.8 Q71.2004 1220.67 69.3717 1217.13 Q67.5661 1213.56 63.9319 1213.56 M63.9319 1209.86 Q69.742 1209.86 72.7976 1214.46 Q75.8763 1219.05 75.8763 1227.8 Q75.8763 1236.52 72.7976 1241.13 Q69.742 1245.71 63.9319 1245.71 Q58.1217 1245.71 55.043 1241.13 Q51.9875 1236.52 51.9875 1227.8 Q51.9875 1219.05 55.043 1214.46 Q58.1217 1209.86 63.9319 1209.86 Z" fill="#000000" fill-rule="evenodd" fill-opacity="1" /><path clip-path="url(#clip990)" d="M84.0938 1239.16 L88.978 1239.16 L88.978 1245.04 L84.0938 1245.04 L84.0938 1239.16 Z" fill="#000000" fill-rule="evenodd" fill-opacity="1" /><path clip-path="url(#clip990)" d="M109.163 1213.56 Q105.552 1213.56 103.723 1217.13 Q101.918 1220.67 101.918 1227.8 Q101.918 1234.9 103.723 1238.47 Q105.552 1242.01 109.163 1242.01 Q112.797 1242.01 114.603 1238.47 Q116.432 1234.9 116.432 1227.8 Q116.432 1220.67 114.603 1217.13 Q112.797 1213.56 109.163 1213.56 M109.163 1209.86 Q114.973 1209.86 118.029 1214.46 Q121.107 1219.05 121.107 1227.8 Q121.107 1236.52 118.029 1241.13 Q114.973 1245.71 109.163 1245.71 Q103.353 1245.71 100.274 1241.13 Q97.2187 1236.52 97.2187 1227.8 Q97.2187 1219.05 100.274 1214.46 Q103.353 1209.86 109.163 1209.86 Z" fill="#000000" fill-rule="evenodd" fill-opacity="1" /><path clip-path="url(#clip990)" d="M129.371 1210.48 L147.728 1210.48 L147.728 1214.42 L133.654 1214.42 L133.654 1222.89 Q134.672 1222.54 135.691 1222.38 Q136.709 1222.2 137.728 1222.2 Q143.515 1222.2 146.894 1225.37 Q150.274 1228.54 150.274 1233.96 Q150.274 1239.53 146.802 1242.64 Q143.33 1245.71 137.01 1245.71 Q134.834 1245.71 132.566 1245.34 Q130.32 1244.97 127.913 1244.23 L127.913 1239.53 Q129.996 1240.67 132.219 1241.22 Q134.441 1241.78 136.918 1241.78 Q140.922 1241.78 143.26 1239.67 Q145.598 1237.57 145.598 1233.96 Q145.598 1230.34 143.26 1228.24 Q140.922 1226.13 136.918 1226.13 Q135.043 1226.13 133.168 1226.55 Q131.316 1226.96 129.371 1227.84 L129.371 1210.48 Z" fill="#000000" fill-rule="evenodd" fill-opacity="1" /><path clip-path="url(#clip990)" d="M62.9365 1017.97 Q59.3254 1017.97 57.4967 1021.53 Q55.6912 1025.07 55.6912 1032.2 Q55.6912 1039.31 57.4967 1042.88 Q59.3254 1046.42 62.9365 1046.42 Q66.5707 1046.42 68.3763 1042.88 Q70.205 1039.31 70.205 1032.2 Q70.205 1025.07 68.3763 1021.53 Q66.5707 1017.97 62.9365 1017.97 M62.9365 1014.26 Q68.7467 1014.26 71.8022 1018.87 Q74.8809 1023.45 74.8809 1032.2 Q74.8809 1040.93 71.8022 1045.54 Q68.7467 1050.12 62.9365 1050.12 Q57.1264 1050.12 54.0477 1045.54 Q50.9921 1040.93 50.9921 1032.2 Q50.9921 1023.45 54.0477 1018.87 Q57.1264 1014.26 62.9365 1014.26 Z" fill="#000000" fill-rule="evenodd" fill-opacity="1" /><path clip-path="url(#clip990)" d="M83.0984 1043.57 L87.9827 1043.57 L87.9827 1049.45 L83.0984 1049.45 L83.0984 1043.57 Z" fill="#000000" fill-rule="evenodd" fill-opacity="1" /><path clip-path="url(#clip990)" d="M98.978 1045.51 L106.617 1045.51 L106.617 1019.15 L98.3067 1020.82 L98.3067 1016.56 L106.571 1014.89 L111.246 1014.89 L111.246 1045.51 L118.885 1045.51 L118.885 1049.45 L98.978 1049.45 L98.978 1045.51 Z" fill="#000000" fill-rule="evenodd" fill-opacity="1" /><path clip-path="url(#clip990)" d="M138.33 1017.97 Q134.719 1017.97 132.89 1021.53 Q131.084 1025.07 131.084 1032.2 Q131.084 1039.31 132.89 1042.88 Q134.719 1046.42 138.33 1046.42 Q141.964 1046.42 143.769 1042.88 Q145.598 1039.31 145.598 1032.2 Q145.598 1025.07 143.769 1021.53 Q141.964 1017.97 138.33 1017.97 M138.33 1014.26 Q144.14 1014.26 147.195 1018.87 Q150.274 1023.45 150.274 1032.2 Q150.274 1040.93 147.195 1045.54 Q144.14 1050.12 138.33 1050.12 Q132.519 1050.12 129.441 1045.54 Q126.385 1040.93 126.385 1032.2 Q126.385 1023.45 129.441 1018.87 Q132.519 1014.26 138.33 1014.26 Z" fill="#000000" fill-rule="evenodd" fill-opacity="1" /><path clip-path="url(#clip990)" d="M63.9319 822.374 Q60.3208 822.374 58.4921 825.939 Q56.6865 829.481 56.6865 836.61 Q56.6865 843.717 58.4921 847.281 Q60.3208 850.823 63.9319 850.823 Q67.5661 850.823 69.3717 847.281 Q71.2004 843.717 71.2004 836.61 Q71.2004 829.481 69.3717 825.939 Q67.5661 822.374 63.9319 822.374 M63.9319 818.67 Q69.742 818.67 72.7976 823.277 Q75.8763 827.86 75.8763 836.61 Q75.8763 845.337 72.7976 849.943 Q69.742 854.527 63.9319 854.527 Q58.1217 854.527 55.043 849.943 Q51.9875 845.337 51.9875 836.61 Q51.9875 827.86 55.043 823.277 Q58.1217 818.67 63.9319 818.67 Z" fill="#000000" fill-rule="evenodd" fill-opacity="1" /><path clip-path="url(#clip990)" d="M84.0938 847.976 L88.978 847.976 L88.978 853.855 L84.0938 853.855 L84.0938 847.976 Z" fill="#000000" fill-rule="evenodd" fill-opacity="1" /><path clip-path="url(#clip990)" d="M99.9733 849.92 L107.612 849.92 L107.612 823.555 L99.3021 825.221 L99.3021 820.962 L107.566 819.295 L112.242 819.295 L112.242 849.92 L119.881 849.92 L119.881 853.855 L99.9733 853.855 L99.9733 849.92 Z" fill="#000000" fill-rule="evenodd" fill-opacity="1" /><path clip-path="url(#clip990)" d="M129.371 819.295 L147.728 819.295 L147.728 823.231 L133.654 823.231 L133.654 831.703 Q134.672 831.356 135.691 831.194 Q136.709 831.008 137.728 831.008 Q143.515 831.008 146.894 834.18 Q150.274 837.351 150.274 842.768 Q150.274 848.346 146.802 851.448 Q143.33 854.527 137.01 854.527 Q134.834 854.527 132.566 854.156 Q130.32 853.786 127.913 853.045 L127.913 848.346 Q129.996 849.48 132.219 850.036 Q134.441 850.592 136.918 850.592 Q140.922 850.592 143.26 848.485 Q145.598 846.379 145.598 842.768 Q145.598 839.156 143.26 837.05 Q140.922 834.943 136.918 834.943 Q135.043 834.943 133.168 835.36 Q131.316 835.777 129.371 836.656 L129.371 819.295 Z" fill="#000000" fill-rule="evenodd" fill-opacity="1" /><path clip-path="url(#clip990)" d="M62.9365 626.78 Q59.3254 626.78 57.4967 630.345 Q55.6912 633.887 55.6912 641.016 Q55.6912 648.123 57.4967 651.688 Q59.3254 655.229 62.9365 655.229 Q66.5707 655.229 68.3763 651.688 Q70.205 648.123 70.205 641.016 Q70.205 633.887 68.3763 630.345 Q66.5707 626.78 62.9365 626.78 M62.9365 623.077 Q68.7467 623.077 71.8022 627.683 Q74.8809 632.266 74.8809 641.016 Q74.8809 649.743 71.8022 654.35 Q68.7467 658.933 62.9365 658.933 Q57.1264 658.933 54.0477 654.35 Q50.9921 649.743 50.9921 641.016 Q50.9921 632.266 54.0477 627.683 Q57.1264 623.077 62.9365 623.077 Z" fill="#000000" fill-rule="evenodd" fill-opacity="1" /><path clip-path="url(#clip990)" d="M83.0984 652.382 L87.9827 652.382 L87.9827 658.262 L83.0984 658.262 L83.0984 652.382 Z" fill="#000000" fill-rule="evenodd" fill-opacity="1" /><path clip-path="url(#clip990)" d="M102.196 654.326 L118.515 654.326 L118.515 658.262 L96.5706 658.262 L96.5706 654.326 Q99.2326 651.572 103.816 646.942 Q108.422 642.289 109.603 640.947 Q111.848 638.424 112.728 636.688 Q113.631 634.928 113.631 633.239 Q113.631 630.484 111.686 628.748 Q109.765 627.012 106.663 627.012 Q104.464 627.012 102.01 627.776 Q99.5798 628.539 96.8021 630.09 L96.8021 625.368 Q99.6261 624.234 102.08 623.655 Q104.534 623.077 106.571 623.077 Q111.941 623.077 115.135 625.762 Q118.33 628.447 118.33 632.938 Q118.33 635.067 117.52 636.989 Q116.733 638.887 114.626 641.479 Q114.047 642.151 110.946 645.368 Q107.844 648.563 102.196 654.326 Z" fill="#000000" fill-rule="evenodd" fill-opacity="1" /><path clip-path="url(#clip990)" d="M138.33 626.78 Q134.719 626.78 132.89 630.345 Q131.084 633.887 131.084 641.016 Q131.084 648.123 132.89 651.688 Q134.719 655.229 138.33 655.229 Q141.964 655.229 143.769 651.688 Q145.598 648.123 145.598 641.016 Q145.598 633.887 143.769 630.345 Q141.964 626.78 138.33 626.78 M138.33 623.077 Q144.14 623.077 147.195 627.683 Q150.274 632.266 150.274 641.016 Q150.274 649.743 147.195 654.35 Q144.14 658.933 138.33 658.933 Q132.519 658.933 129.441 654.35 Q126.385 649.743 126.385 641.016 Q126.385 632.266 129.441 627.683 Q132.519 623.077 138.33 623.077 Z" fill="#000000" fill-rule="evenodd" fill-opacity="1" /><path clip-path="url(#clip990)" d="M63.9319 431.186 Q60.3208 431.186 58.4921 434.751 Q56.6865 438.293 56.6865 445.422 Q56.6865 452.529 58.4921 456.094 Q60.3208 459.635 63.9319 459.635 Q67.5661 459.635 69.3717 456.094 Q71.2004 452.529 71.2004 445.422 Q71.2004 438.293 69.3717 434.751 Q67.5661 431.186 63.9319 431.186 M63.9319 427.483 Q69.742 427.483 72.7976 432.089 Q75.8763 436.672 75.8763 445.422 Q75.8763 454.149 72.7976 458.756 Q69.742 463.339 63.9319 463.339 Q58.1217 463.339 55.043 458.756 Q51.9875 454.149 51.9875 445.422 Q51.9875 436.672 55.043 432.089 Q58.1217 427.483 63.9319 427.483 Z" fill="#000000" fill-rule="evenodd" fill-opacity="1" /><path clip-path="url(#clip990)" d="M84.0938 456.788 L88.978 456.788 L88.978 462.668 L84.0938 462.668 L84.0938 456.788 Z" fill="#000000" fill-rule="evenodd" fill-opacity="1" /><path clip-path="url(#clip990)" d="M103.191 458.733 L119.51 458.733 L119.51 462.668 L97.566 462.668 L97.566 458.733 Q100.228 455.978 104.811 451.348 Q109.418 446.696 110.598 445.353 Q112.844 442.83 113.723 441.094 Q114.626 439.334 114.626 437.645 Q114.626 434.89 112.682 433.154 Q110.76 431.418 107.658 431.418 Q105.459 431.418 103.006 432.182 Q100.575 432.946 97.7974 434.497 L97.7974 429.774 Q100.621 428.64 103.075 428.061 Q105.529 427.483 107.566 427.483 Q112.936 427.483 116.131 430.168 Q119.325 432.853 119.325 437.344 Q119.325 439.473 118.515 441.395 Q117.728 443.293 115.621 445.885 Q115.043 446.557 111.941 449.774 Q108.839 452.969 103.191 458.733 Z" fill="#000000" fill-rule="evenodd" fill-opacity="1" /><path clip-path="url(#clip990)" d="M129.371 428.108 L147.728 428.108 L147.728 432.043 L133.654 432.043 L133.654 440.515 Q134.672 440.168 135.691 440.006 Q136.709 439.821 137.728 439.821 Q143.515 439.821 146.894 442.992 Q150.274 446.163 150.274 451.58 Q150.274 457.158 146.802 460.26 Q143.33 463.339 137.01 463.339 Q134.834 463.339 132.566 462.969 Q130.32 462.598 127.913 461.858 L127.913 457.158 Q129.996 458.293 132.219 458.848 Q134.441 459.404 136.918 459.404 Q140.922 459.404 143.26 457.297 Q145.598 455.191 145.598 451.58 Q145.598 447.969 143.26 445.862 Q140.922 443.756 136.918 443.756 Q135.043 443.756 133.168 444.172 Q131.316 444.589 129.371 445.469 L129.371 428.108 Z" fill="#000000" fill-rule="evenodd" fill-opacity="1" /><path clip-path="url(#clip990)" d="M62.9365 235.593 Q59.3254 235.593 57.4967 239.157 Q55.6912 242.699 55.6912 249.829 Q55.6912 256.935 57.4967 260.5 Q59.3254 264.041 62.9365 264.041 Q66.5707 264.041 68.3763 260.5 Q70.205 256.935 70.205 249.829 Q70.205 242.699 68.3763 239.157 Q66.5707 235.593 62.9365 235.593 M62.9365 231.889 Q68.7467 231.889 71.8022 236.495 Q74.8809 241.079 74.8809 249.829 Q74.8809 258.555 71.8022 263.162 Q68.7467 267.745 62.9365 267.745 Q57.1264 267.745 54.0477 263.162 Q50.9921 258.555 50.9921 249.829 Q50.9921 241.079 54.0477 236.495 Q57.1264 231.889 62.9365 231.889 Z" fill="#000000" fill-rule="evenodd" fill-opacity="1" /><path clip-path="url(#clip990)" d="M83.0984 261.194 L87.9827 261.194 L87.9827 267.074 L83.0984 267.074 L83.0984 261.194 Z" fill="#000000" fill-rule="evenodd" fill-opacity="1" /><path clip-path="url(#clip990)" d="M112.334 248.44 Q115.691 249.157 117.566 251.426 Q119.464 253.694 119.464 257.028 Q119.464 262.143 115.945 264.944 Q112.427 267.745 105.946 267.745 Q103.77 267.745 101.455 267.305 Q99.1632 266.889 96.7095 266.032 L96.7095 261.518 Q98.6539 262.653 100.969 263.231 Q103.284 263.81 105.807 263.81 Q110.205 263.81 112.496 262.074 Q114.811 260.338 114.811 257.028 Q114.811 253.972 112.658 252.259 Q110.529 250.523 106.709 250.523 L102.682 250.523 L102.682 246.68 L106.895 246.68 Q110.344 246.68 112.172 245.315 Q114.001 243.926 114.001 241.333 Q114.001 238.671 112.103 237.259 Q110.228 235.824 106.709 235.824 Q104.788 235.824 102.589 236.241 Q100.39 236.657 97.7511 237.537 L97.7511 233.37 Q100.413 232.63 102.728 232.259 Q105.066 231.889 107.126 231.889 Q112.45 231.889 115.552 234.319 Q118.654 236.727 118.654 240.847 Q118.654 243.717 117.01 245.708 Q115.367 247.676 112.334 248.44 Z" fill="#000000" fill-rule="evenodd" fill-opacity="1" /><path clip-path="url(#clip990)" d="M138.33 235.593 Q134.719 235.593 132.89 239.157 Q131.084 242.699 131.084 249.829 Q131.084 256.935 132.89 260.5 Q134.719 264.041 138.33 264.041 Q141.964 264.041 143.769 260.5 Q145.598 256.935 145.598 249.829 Q145.598 242.699 143.769 239.157 Q141.964 235.593 138.33 235.593 M138.33 231.889 Q144.14 231.889 147.195 236.495 Q150.274 241.079 150.274 249.829 Q150.274 258.555 147.195 263.162 Q144.14 267.745 138.33 267.745 Q132.519 267.745 129.441 263.162 Q126.385 258.555 126.385 249.829 Q126.385 241.079 129.441 236.495 Q132.519 231.889 138.33 231.889 Z" fill="#000000" fill-rule="evenodd" fill-opacity="1" /><path clip-path="url(#clip990)" d="M63.9319 39.9986 Q60.3208 39.9986 58.4921 43.5634 Q56.6865 47.1051 56.6865 54.2347 Q56.6865 61.3411 58.4921 64.9059 Q60.3208 68.4476 63.9319 68.4476 Q67.5661 68.4476 69.3717 64.9059 Q71.2004 61.3411 71.2004 54.2347 Q71.2004 47.1051 69.3717 43.5634 Q67.5661 39.9986 63.9319 39.9986 M63.9319 36.295 Q69.742 36.295 72.7976 40.9014 Q75.8763 45.4847 75.8763 54.2347 Q75.8763 62.9615 72.7976 67.5679 Q69.742 72.1512 63.9319 72.1512 Q58.1217 72.1512 55.043 67.5679 Q51.9875 62.9615 51.9875 54.2347 Q51.9875 45.4847 55.043 40.9014 Q58.1217 36.295 63.9319 36.295 Z" fill="#000000" fill-rule="evenodd" fill-opacity="1" /><path clip-path="url(#clip990)" d="M84.0938 65.6004 L88.978 65.6004 L88.978 71.48 L84.0938 71.48 L84.0938 65.6004 Z" fill="#000000" fill-rule="evenodd" fill-opacity="1" /><path clip-path="url(#clip990)" d="M113.33 52.8458 Q116.686 53.5634 118.561 55.8319 Q120.459 58.1004 120.459 61.4337 Q120.459 66.5494 116.941 69.3503 Q113.422 72.1512 106.941 72.1512 Q104.765 72.1512 102.45 71.7114 Q100.159 71.2948 97.7048 70.4383 L97.7048 65.9244 Q99.6493 67.0587 101.964 67.6374 Q104.279 68.2161 106.802 68.2161 Q111.2 68.2161 113.492 66.48 Q115.807 64.7439 115.807 61.4337 Q115.807 58.3782 113.654 56.6652 Q111.524 54.9291 107.705 54.9291 L103.677 54.9291 L103.677 51.0865 L107.89 51.0865 Q111.339 51.0865 113.168 49.7208 Q114.996 48.3319 114.996 45.7393 Q114.996 43.0773 113.098 41.6653 Q111.223 40.2301 107.705 40.2301 Q105.783 40.2301 103.584 40.6468 Q101.385 41.0634 98.7465 41.9431 L98.7465 37.7764 Q101.409 37.0357 103.723 36.6653 Q106.061 36.295 108.121 36.295 Q113.445 36.295 116.547 38.7255 Q119.649 41.1329 119.649 45.2532 Q119.649 48.1236 118.006 50.1143 Q116.362 52.0819 113.33 52.8458 Z" fill="#000000" fill-rule="evenodd" fill-opacity="1" /><path clip-path="url(#clip990)" d="M129.371 36.92 L147.728 36.92 L147.728 40.8551 L133.654 40.8551 L133.654 49.3273 Q134.672 48.9801 135.691 48.818 Q136.709 48.6329 137.728 48.6329 Q143.515 48.6329 146.894 51.8041 Q150.274 54.9754 150.274 60.392 Q150.274 65.9707 146.802 69.0726 Q143.33 72.1512 137.01 72.1512 Q134.834 72.1512 132.566 71.7809 Q130.32 71.4105 127.913 70.6698 L127.913 65.9707 Q129.996 67.105 132.219 67.6605 Q134.441 68.2161 136.918 68.2161 Q140.922 68.2161 143.26 66.1096 Q145.598 64.0031 145.598 60.392 Q145.598 56.781 143.26 54.6745 Q140.922 52.568 136.918 52.568 Q135.043 52.568 133.168 52.9847 Q131.316 53.4013 129.371 54.281 L129.371 36.92 Z" fill="#000000" fill-rule="evenodd" fill-opacity="1" /><polyline clip-path="url(#clip992)" style="stroke:#009af9; stroke-linecap:butt; stroke-linejoin:round; stroke-width:8; stroke-opacity:1; fill:none" points="
  186.274,1384.24 188.443,1383.69 190.611,1383.14 192.78,1382.58 194.949,1382.02 197.117,1381.44 199.286,1380.86 201.455,1380.27 203.623,1379.67 205.792,1379.07 
  207.961,1378.45 210.129,1377.83 212.298,1377.2 214.466,1376.56 216.635,1375.91 218.804,1375.25 220.972,1374.59 223.141,1373.91 225.31,1373.23 227.478,1372.54 
  229.647,1371.84 231.816,1371.12 233.984,1370.4 236.153,1369.67 238.322,1368.93 240.49,1368.18 242.659,1367.42 244.828,1366.65 246.996,1365.87 249.165,1365.08 
  251.334,1364.27 253.502,1363.46 255.671,1362.64 257.839,1361.8 260.008,1360.96 262.177,1360.1 264.345,1359.23 266.514,1358.35 268.683,1357.46 270.851,1356.56 
  273.02,1355.64 275.189,1354.71 277.357,1353.77 279.526,1352.82 281.695,1351.86 283.863,1350.88 286.032,1349.89 288.201,1348.89 290.369,1347.87 292.538,1346.84 
  294.707,1345.8 296.875,1344.74 299.044,1343.67 301.212,1342.59 303.381,1341.49 305.55,1340.38 307.718,1339.25 309.887,1338.11 312.056,1336.96 314.224,1335.79 
  316.393,1334.6 318.562,1333.4 320.73,1332.18 322.899,1330.95 325.068,1329.7 327.236,1328.44 329.405,1327.16 331.574,1325.86 333.742,1324.55 335.911,1323.22 
  338.08,1321.87 340.248,1320.51 342.417,1319.13 344.585,1317.73 346.754,1316.31 348.923,1314.88 351.091,1313.43 353.26,1311.96 355.429,1310.47 357.597,1308.96 
  359.766,1307.43 361.935,1305.89 364.103,1304.32 366.272,1302.74 368.441,1301.14 370.609,1299.51 372.778,1297.87 374.947,1296.21 377.115,1294.52 379.284,1292.82 
  381.453,1291.09 383.621,1289.35 385.79,1287.58 387.959,1285.79 390.127,1283.98 392.296,1282.15 394.464,1280.29 396.633,1278.41 398.802,1276.51 400.97,1274.59 
  403.139,1272.65 405.308,1270.68 407.476,1268.68 409.645,1266.67 411.814,1264.63 413.982,1262.57 416.151,1260.48 418.32,1258.36 420.488,1256.23 422.657,1254.07 
  424.826,1251.88 426.994,1249.66 429.163,1247.43 431.332,1245.16 433.5,1242.87 435.669,1240.55 437.837,1238.21 440.006,1235.84 442.175,1233.44 444.343,1231.02 
  446.512,1228.57 448.681,1226.09 450.849,1223.58 453.018,1221.05 455.187,1218.48 457.355,1215.89 459.524,1213.27 461.693,1210.62 463.861,1207.95 466.03,1205.24 
  468.199,1202.5 470.367,1199.74 472.536,1196.94 474.705,1194.11 476.873,1191.26 479.042,1188.37 481.21,1185.45 483.379,1182.5 485.548,1179.52 487.716,1176.51 
  489.885,1173.47 492.054,1170.4 494.222,1167.29 496.391,1164.16 498.56,1160.99 500.728,1157.78 502.897,1154.55 505.066,1151.28 507.234,1147.98 509.403,1144.65 
  511.572,1141.29 513.74,1137.89 515.909,1134.46 518.078,1130.99 520.246,1127.49 522.415,1123.96 524.583,1120.39 526.752,1116.79 528.921,1113.15 531.089,1109.48 
  533.258,1105.78 535.427,1102.04 537.595,1098.27 539.764,1094.46 541.933,1090.62 544.101,1086.74 546.27,1082.83 548.439,1078.88 550.607,1074.9 552.776,1070.88 
  554.945,1066.83 557.113,1062.74 559.282,1058.62 561.451,1054.46 563.619,1050.27 565.788,1046.04 567.956,1041.77 570.125,1037.48 572.294,1033.14 574.462,1028.78 
  576.631,1024.37 578.8,1019.93 580.968,1015.46 583.137,1010.95 585.306,1006.41 587.474,1001.83 589.643,997.217 591.812,992.57 593.98,987.887 596.149,983.171 
  598.318,978.42 600.486,973.635 602.655,968.815 604.824,963.962 606.992,959.075 609.161,954.155 611.33,949.201 613.498,944.215 615.667,939.195 617.835,934.142 
  620.004,929.057 622.173,923.94 624.341,918.791 626.51,913.61 628.679,908.398 630.847,903.154 633.016,897.88 635.185,892.575 637.353,887.24 639.522,881.875 
  641.691,876.48 643.859,871.057 646.028,865.604 648.197,860.124 650.365,854.615 652.534,849.079 654.703,843.515 656.871,837.925 659.04,832.309 661.208,826.667 
  663.377,820.999 665.546,815.307 667.714,809.59 669.883,803.849 672.052,798.085 674.22,792.298 676.389,786.489 678.558,780.658 680.726,774.806 682.895,768.934 
  685.064,763.041 687.232,757.129 689.401,751.198 691.57,745.249 693.738,739.282 695.907,733.299 698.076,727.299 700.244,721.284 702.413,715.254 704.581,709.209 
  706.75,703.151 708.919,697.08 711.087,690.997 713.256,684.903 715.425,678.798 717.593,672.684 719.762,666.559 721.931,660.426 724.099,654.284 726.268,648.136 
  728.437,641.98 730.605,635.82 732.774,629.655 734.943,623.486 737.111,617.315 739.28,611.142 741.449,604.968 743.617,598.794 745.786,592.622 747.954,586.451 
  750.123,580.283 752.292,574.119 754.46,567.959 756.629,561.805 758.798,555.658 760.966,549.518 763.135,543.386 765.304,537.263 767.472,531.151 769.641,525.049 
  771.81,518.959 773.978,512.882 776.147,506.818 778.316,500.769 780.484,494.735 782.653,488.718 784.822,482.717 786.99,476.735 789.159,470.772 791.328,464.828 
  793.496,458.905 795.665,453.003 797.833,447.124 800.002,441.268 802.171,435.436 804.339,429.629 806.508,423.848 808.677,418.093 810.845,412.366 813.014,406.668 
  815.183,400.998 817.351,395.359 819.52,389.75 821.689,384.174 823.857,378.63 826.026,373.119 828.195,367.643 830.363,362.202 832.532,356.797 834.701,351.428 
  836.869,346.098 839.038,340.805 841.206,335.552 843.375,330.34 845.544,325.168 847.712,320.038 849.881,314.95 852.05,309.906 854.218,304.906 856.387,299.951 
  858.556,295.042 860.724,290.18 862.893,285.365 865.062,280.599 867.23,275.881 869.399,271.211 871.568,266.592 873.736,262.022 875.905,257.504 878.074,253.036 
  880.242,248.621 882.411,244.257 884.579,239.947 886.748,235.69 888.917,231.488 891.085,227.339 893.254,223.246 895.423,219.208 897.591,215.226 899.76,211.3 
  901.929,207.431 904.097,203.619 906.266,199.864 908.435,196.168 910.603,192.529 912.772,188.95 914.941,185.429 917.109,181.967 919.278,178.565 921.447,175.223 
  923.615,171.941 925.784,168.72 927.952,165.559 930.121,162.459 932.29,159.42 934.458,156.442 936.627,153.526 938.796,150.672 940.964,147.879 943.133,145.149 
  945.302,142.48 947.47,139.874 949.639,137.331 951.808,134.85 953.976,132.431 956.145,130.075 958.314,127.782 960.482,125.551 962.651,123.383 964.82,121.278 
  966.988,119.236 969.157,117.256 971.326,115.339 973.494,113.485 975.663,111.693 977.831,109.964 980,108.297 982.169,106.693 984.337,105.15 986.506,103.67 
  988.675,102.252 990.843,100.895 993.012,99.6004 995.181,98.3669 997.349,97.1946 999.518,96.0833 1001.69,95.0327 1003.86,94.0426 1006.02,93.1128 1008.19,92.243 
  1010.36,91.4328 1012.53,90.682 1014.7,89.9903 1016.87,89.3573 1019.04,88.7828 1021.2,88.2662 1023.37,87.8073 1025.54,87.4057 1027.71,87.061 1029.88,86.7735 
  1032.05,86.5432 1034.22,86.3698 1036.39,86.2526 1038.55,86.1914 1040.72,86.1857 1042.89,86.2349 1045.06,86.3387 1047.23,86.4967 1049.4,86.7083 1051.57,86.9731 
  1053.73,87.2907 1055.9,87.6606 1058.07,88.0824 1060.24,88.5555 1062.41,89.0797 1064.58,89.6544 1066.75,90.2791 1068.91,90.9535 1071.08,91.677 1073.25,92.4492 
  1075.42,93.2697 1077.59,94.138 1079.76,95.0536 1081.93,96.0162 1084.1,97.0251 1086.26,98.0801 1088.43,99.1806 1090.6,100.326 1092.77,101.516 1094.94,102.751 
  1097.11,104.029 1099.28,105.35 1101.44,106.714 1103.61,108.12 1105.78,109.568 1107.95,111.058 1110.12,112.589 1112.29,114.16 1114.46,115.771 1116.63,117.421 
  1118.79,119.111 1120.96,120.839 1123.13,122.606 1125.3,124.41 1127.47,126.252 1129.64,128.13 1131.81,130.045 1133.97,131.995 1136.14,133.981 1138.31,136.002 
  1140.48,138.057 1142.65,140.146 1144.82,142.269 1146.99,144.425 1149.15,146.613 1151.32,148.834 1153.49,151.086 1155.66,153.369 1157.83,155.683 1160,158.027 
  1162.17,160.401 1164.34,162.805 1166.5,165.237 1168.67,167.697 1170.84,170.186 1173.01,172.702 1175.18,175.244 1177.35,177.814 1179.52,180.409 1181.68,183.03 
  1183.85,185.675 1186.02,188.346 1188.19,191.04 1190.36,193.758 1192.53,196.5 1194.7,199.263 1196.87,202.049 1199.03,204.857 1201.2,207.686 1203.37,210.536 
  1205.54,213.406 1207.71,216.296 1209.88,219.206 1212.05,222.135 1214.21,225.083 1216.38,228.049 1218.55,231.033 1220.72,234.035 1222.89,237.055 1225.06,240.091 
  1227.23,243.144 1229.39,246.213 1231.56,249.298 1233.73,252.399 1235.9,255.515 1238.07,258.645 1240.24,261.791 1242.41,264.95 1244.58,268.123 1246.74,271.309 
  1248.91,274.508 1251.08,277.72 1253.25,280.945 1255.42,284.181 1257.59,287.43 1259.76,290.69 1261.92,293.96 1264.09,297.242 1266.26,300.534 1268.43,303.837 
  1270.6,307.149 1272.77,310.47 1274.94,313.801 1277.11,317.141 1279.27,320.489 1281.44,323.846 1283.61,327.211 1285.78,330.583 1287.95,333.963 1290.12,337.351 
  1292.29,340.745 1294.45,344.145 1296.62,347.552 1298.79,350.965 1300.96,354.384 1303.13,357.809 1305.3,361.238 1307.47,364.673 1309.63,368.112 1311.8,371.556 
  1313.97,375.004 1316.14,378.457 1318.31,381.913 1320.48,385.372 1322.65,388.835 1324.82,392.3 1326.98,395.769 1329.15,399.24 1331.32,402.713 1333.49,406.188 
  1335.66,409.666 1337.83,413.145 1340,416.625 1342.16,420.107 1344.33,423.589 1346.5,427.073 1348.67,430.556 1350.84,434.041 1353.01,437.525 1355.18,441.01 
  1357.35,444.494 1359.51,447.978 1361.68,451.462 1363.85,454.944 1366.02,458.426 1368.19,461.906 1370.36,465.386 1372.53,468.863 1374.69,472.339 1376.86,475.813 
  1379.03,479.286 1381.2,482.756 1383.37,486.224 1385.54,489.689 1387.71,493.151 1389.88,496.611 1392.04,500.068 1394.21,503.522 1396.38,506.973 1398.55,510.42 
  1400.72,513.864 1402.89,517.304 1405.06,520.741 1407.22,524.173 1409.39,527.602 1411.56,531.026 1413.73,534.447 1415.9,537.862 1418.07,541.274 1420.24,544.68 
  1422.4,548.083 1424.57,551.48 1426.74,554.872 1428.91,558.26 1431.08,561.642 1433.25,565.019 1435.42,568.39 1437.59,571.756 1439.75,575.116 1441.92,578.47 
  1444.09,581.818 1446.26,585.16 1448.43,588.496 1450.6,591.826 1452.77,595.15 1454.93,598.467 1457.1,601.778 1459.27,605.083 1461.44,608.381 1463.61,611.672 
  1465.78,614.957 1467.95,618.235 1470.12,621.506 1472.28,624.77 1474.45,628.027 1476.62,631.277 1478.79,634.52 1480.96,637.756 1483.13,640.984 1485.3,644.205 
  1487.46,647.419 1489.63,650.625 1491.8,653.823 1493.97,657.014 1496.14,660.198 1498.31,663.373 1500.48,666.541 1502.64,669.701 1504.81,672.854 1506.98,675.998 
  1509.15,679.134 1511.32,682.262 1513.49,685.382 1515.66,688.494 1517.83,691.598 1519.99,694.693 1522.16,697.781 1524.33,700.859 1526.5,703.93 1528.67,706.992 
  1530.84,710.046 1533.01,713.091 1535.17,716.127 1537.34,719.155 1539.51,722.174 1541.68,725.185 1543.85,728.187 1546.02,731.18 1548.19,734.164 1550.36,737.14 
  1552.52,740.107 1554.69,743.064 1556.86,746.013 1559.03,748.953 1561.2,751.884 1563.37,754.807 1565.54,757.72 1567.7,760.624 1569.87,763.519 1572.04,766.405 
  1574.21,769.281 1576.38,772.149 1578.55,775.008 1580.72,777.857 1582.88,780.697 1585.05,783.528 1587.22,786.35 1589.39,789.163 1591.56,791.966 1593.73,794.761 
  1595.9,797.546 1598.07,800.321 1600.23,803.088 1602.4,805.845 1604.57,808.593 1606.74,811.331 1608.91,814.061 1611.08,816.781 1613.25,819.492 1615.41,822.193 
  1617.58,824.885 1619.75,827.568 1621.92,830.242 1624.09,832.906 1626.26,835.561 1628.43,838.207 1630.6,840.844 1632.76,843.471 1634.93,846.089 1637.1,848.698 
  1639.27,851.298 1641.44,853.888 1643.61,856.468 1645.78,859.04 1647.94,861.602 1650.11,864.155 1652.28,866.698 1654.45,869.232 1656.62,871.757 1658.79,874.273 
  1660.96,876.779 1663.13,879.276 1665.29,881.764 1667.46,884.242 1669.63,886.711 1671.8,889.171 1673.97,891.622 1676.14,894.064 1678.31,896.496 1680.47,898.919 
  1682.64,901.333 1684.81,903.738 1686.98,906.134 1689.15,908.521 1691.32,910.898 1693.49,913.267 1695.65,915.626 1697.82,917.976 1699.99,920.317 1702.16,922.649 
  1704.33,924.972 1706.5,927.286 1708.67,929.591 1710.84,931.887 1713,934.174 1715.17,936.452 1717.34,938.721 1719.51,940.981 1721.68,943.233 1723.85,945.475 
  1726.02,947.708 1728.18,949.933 1730.35,952.148 1732.52,954.355 1734.69,956.553 1736.86,958.742 1739.03,960.922 1741.2,963.094 1743.37,965.257 1745.53,967.411 
  1747.7,969.556 1749.87,971.692 1752.04,973.82 1754.21,975.939 1756.38,978.05 1758.55,980.151 1760.71,982.245 1762.88,984.329 1765.05,986.405 1767.22,988.472 
  1769.39,990.531 1771.56,992.582 1773.73,994.623 1775.89,996.657 1778.06,998.681 1780.23,1000.7 1782.4,1002.71 1784.57,1004.7 1786.74,1006.7 1788.91,1008.68 
  1791.08,1010.65 1793.24,1012.62 1795.41,1014.58 1797.58,1016.53 1799.75,1018.47 1801.92,1020.4 1804.09,1022.32 1806.26,1024.24 1808.42,1026.15 1810.59,1028.05 
  1812.76,1029.94 1814.93,1031.82 1817.1,1033.7 1819.27,1035.57 1821.44,1037.43 1823.61,1039.28 1825.77,1041.12 1827.94,1042.96 1830.11,1044.78 1832.28,1046.6 
  1834.45,1048.41 1836.62,1050.22 1838.79,1052.01 1840.95,1053.8 1843.12,1055.58 1845.29,1057.35 1847.46,1059.12 1849.63,1060.88 1851.8,1062.62 1853.97,1064.37 
  1856.13,1066.1 1858.3,1067.83 1860.47,1069.54 1862.64,1071.25 1864.81,1072.96 1866.98,1074.65 1869.15,1076.34 1871.32,1078.02 1873.48,1079.7 1875.65,1081.36 
  1877.82,1083.02 1879.99,1084.67 1882.16,1086.31 1884.33,1087.95 1886.5,1089.58 1888.66,1091.2 1890.83,1092.82 1893,1094.42 1895.17,1096.02 1897.34,1097.62 
  1899.51,1099.2 1901.68,1100.78 1903.85,1102.35 1906.01,1103.92 1908.18,1105.48 1910.35,1107.03 1912.52,1108.57 1914.69,1110.11 1916.86,1111.64 1919.03,1113.16 
  1921.19,1114.68 1923.36,1116.19 1925.53,1117.69 1927.7,1119.18 1929.87,1120.67 1932.04,1122.16 1934.21,1123.63 1936.37,1125.1 1938.54,1126.56 1940.71,1128.02 
  1942.88,1129.47 1945.05,1130.91 1947.22,1132.34 1949.39,1133.77 1951.56,1135.2 1953.72,1136.61 1955.89,1138.02 1958.06,1139.42 1960.23,1140.82 1962.4,1142.21 
  1964.57,1143.59 1966.74,1144.97 1968.9,1146.34 1971.07,1147.71 1973.24,1149.07 1975.41,1150.42 1977.58,1151.76 1979.75,1153.1 1981.92,1154.44 1984.09,1155.76 
  1986.25,1157.08 1988.42,1158.4 1990.59,1159.71 1992.76,1161.01 1994.93,1162.31 1997.1,1163.6 1999.27,1164.88 2001.43,1166.16 2003.6,1167.43 2005.77,1168.7 
  2007.94,1169.96 2010.11,1171.22 2012.28,1172.47 2014.45,1173.71 2016.62,1174.95 2018.78,1176.18 2020.95,1177.4 2023.12,1178.62 2025.29,1179.84 2027.46,1181.05 
  2029.63,1182.25 2031.8,1183.45 2033.96,1184.64 2036.13,1185.82 2038.3,1187 2040.47,1188.18 2042.64,1189.35 2044.81,1190.51 2046.98,1191.67 2049.14,1192.82 
  2051.31,1193.97 2053.48,1195.11 2055.65,1196.25 2057.82,1197.38 2059.99,1198.5 2062.16,1199.62 2064.33,1200.74 2066.49,1201.85 2068.66,1202.95 2070.83,1204.05 
  2073,1205.14 2075.17,1206.23 2077.34,1207.31 2079.51,1208.39 2081.67,1209.47 2083.84,1210.53 2086.01,1211.6 2088.18,1212.65 2090.35,1213.71 2092.52,1214.75 
  2094.69,1215.8 2096.86,1216.83 2099.02,1217.87 2101.19,1218.89 2103.36,1219.92 2105.53,1220.93 2107.7,1221.95 2109.87,1222.95 2112.04,1223.96 2114.2,1224.95 
  2116.37,1225.95 2118.54,1226.94 2120.71,1227.92 2122.88,1228.9 2125.05,1229.87 2127.22,1230.84 2129.38,1231.81 2131.55,1232.77 2133.72,1233.72 2135.89,1234.67 
  2138.06,1235.62 2140.23,1236.56 2142.4,1237.5 2144.57,1238.43 2146.73,1239.36 2148.9,1240.28 2151.07,1241.2 2153.24,1242.12 2155.41,1243.03 2157.58,1243.93 
  2159.75,1244.84 2161.91,1245.73 2164.08,1246.62 2166.25,1247.51 2168.42,1248.4 2170.59,1249.28 2172.76,1250.15 2174.93,1251.02 2177.1,1251.89 2179.26,1252.75 
  2181.43,1253.61 2183.6,1254.47 2185.77,1255.32 2187.94,1256.16 2190.11,1257.01 2192.28,1257.84 2194.44,1258.68 2196.61,1259.51 2198.78,1260.33 2200.95,1261.15 
  2203.12,1261.97 2205.29,1262.79 2207.46,1263.6 2209.62,1264.4 2211.79,1265.2 2213.96,1266 2216.13,1266.8 2218.3,1267.59 2220.47,1268.37 2222.64,1269.16 
  2224.81,1269.94 2226.97,1270.71 2229.14,1271.48 2231.31,1272.25 2233.48,1273.01 2235.65,1273.77 2237.82,1274.53 2239.99,1275.28 2242.15,1276.03 2244.32,1276.77 
  2246.49,1277.52 2248.66,1278.25 2250.83,1278.99 2253,1279.72 2255.17,1280.44 2257.34,1281.17 2259.5,1281.89 2261.67,1282.6 2263.84,1283.32 2266.01,1284.03 
  2268.18,1284.73 2270.35,1285.43 2272.52,1286.13 2274.68,1286.83 2276.85,1287.52 2279.02,1288.21 2281.19,1288.89 2283.36,1289.57 2285.53,1290.25 2287.7,1290.93 
  2289.87,1291.6 2292.03,1292.27 2294.2,1292.93 2296.37,1293.59 2298.54,1294.25 2300.71,1294.91 2302.88,1295.56 2305.05,1296.21 2307.21,1296.85 2309.38,1297.49 
  2311.55,1298.13 2313.72,1298.77 2315.89,1299.4 2318.06,1300.03 2320.23,1300.66 2322.39,1301.28 2324.56,1301.9 2326.73,1302.52 2328.9,1303.13 2331.07,1303.74 
  2333.24,1304.35 2335.41,1304.96 2337.58,1305.56 2339.74,1306.16 2341.91,1306.75 2344.08,1307.35 2346.25,1307.94 2348.42,1308.52 2350.59,1309.11 2352.76,1309.69 
  
  "/>
<path clip-path="url(#clip990)" d="
M1932.14 761.132 L2280.54 761.132 L2280.54 657.452 L1932.14 657.452  Z
  " fill="#ffffff" fill-rule="evenodd" fill-opacity="1"/>
<polyline clip-path="url(#clip990)" style="stroke:#000000; stroke-linecap:butt; stroke-linejoin:round; stroke-width:4; stroke-opacity:1; fill:none" points="
  1932.14,761.132 2280.54,761.132 2280.54,657.452 1932.14,657.452 1932.14,761.132 
  "/>
<polyline clip-path="url(#clip990)" style="stroke:#009af9; stroke-linecap:butt; stroke-linejoin:round; stroke-width:4; stroke-opacity:1; fill:none" points="
  1956.21,709.292 2100.64,709.292 
  "/>
<path clip-path="url(#clip990)" d="M2124.71 716.341 L2124.71 700.646 L2128.97 700.646 L2128.97 716.179 Q2128.97 719.859 2130.41 721.711 Q2131.84 723.54 2134.71 723.54 Q2138.16 723.54 2140.15 721.341 Q2142.16 719.141 2142.16 715.345 L2142.16 700.646 L2146.42 700.646 L2146.42 726.572 L2142.16 726.572 L2142.16 722.591 Q2140.61 724.952 2138.55 726.109 Q2136.52 727.243 2133.81 727.243 Q2129.34 727.243 2127.03 724.465 Q2124.71 721.688 2124.71 716.341 M2135.43 700.021 L2135.43 700.021 Z" fill="#000000" fill-rule="evenodd" fill-opacity="1" /><path clip-path="url(#clip990)" d="M2159.83 722.637 L2176.15 722.637 L2176.15 726.572 L2154.2 726.572 L2154.2 722.637 Q2156.86 719.882 2161.45 715.253 Q2166.05 710.6 2167.23 709.257 Q2169.48 706.734 2170.36 704.998 Q2171.26 703.239 2171.26 701.549 Q2171.26 698.794 2169.32 697.058 Q2167.4 695.322 2164.29 695.322 Q2162.1 695.322 2159.64 696.086 Q2157.21 696.85 2154.43 698.401 L2154.43 693.679 Q2157.26 692.544 2159.71 691.966 Q2162.16 691.387 2164.2 691.387 Q2169.57 691.387 2172.77 694.072 Q2175.96 696.757 2175.96 701.248 Q2175.96 703.378 2175.15 705.299 Q2174.36 707.197 2172.26 709.79 Q2171.68 710.461 2168.58 713.679 Q2165.47 716.873 2159.83 722.637 Z" fill="#000000" fill-rule="evenodd" fill-opacity="1" /><path clip-path="url(#clip990)" d="M2195.59 690.6 Q2192.49 695.924 2190.98 701.132 Q2189.48 706.341 2189.48 711.688 Q2189.48 717.035 2190.98 722.29 Q2192.51 727.521 2195.59 732.822 L2191.89 732.822 Q2188.41 727.382 2186.68 722.128 Q2184.97 716.873 2184.97 711.688 Q2184.97 706.526 2186.68 701.294 Q2188.39 696.063 2191.89 690.6 L2195.59 690.6 Z" fill="#000000" fill-rule="evenodd" fill-opacity="1" /><path clip-path="url(#clip990)" d="M2208.07 693.285 L2208.07 700.646 L2216.84 700.646 L2216.84 703.956 L2208.07 703.956 L2208.07 718.03 Q2208.07 721.202 2208.92 722.104 Q2209.8 723.007 2212.47 723.007 L2216.84 723.007 L2216.84 726.572 L2212.47 726.572 Q2207.53 726.572 2205.66 724.743 Q2203.78 722.891 2203.78 718.03 L2203.78 703.956 L2200.66 703.956 L2200.66 700.646 L2203.78 700.646 L2203.78 693.285 L2208.07 693.285 Z" fill="#000000" fill-rule="evenodd" fill-opacity="1" /><path clip-path="url(#clip990)" d="M2221.77 690.6 L2225.47 690.6 Q2228.95 696.063 2230.66 701.294 Q2232.4 706.526 2232.4 711.688 Q2232.4 716.873 2230.66 722.128 Q2228.95 727.382 2225.47 732.822 L2221.77 732.822 Q2224.85 727.521 2226.35 722.29 Q2227.88 717.035 2227.88 711.688 Q2227.88 706.341 2226.35 701.132 Q2224.85 695.924 2221.77 690.6 Z" fill="#000000" fill-rule="evenodd" fill-opacity="1" /></svg>
