<?xml version="1.0" encoding="utf-8"?>
<svg xmlns="http://www.w3.org/2000/svg" xmlns:xlink="http://www.w3.org/1999/xlink" width="600" height="400" viewBox="0 0 2400 1600">
<defs>
  <clipPath id="clip720">
    <rect x="0" y="0" width="2400" height="1600"/>
  </clipPath>
</defs>
<path clip-path="url(#clip720)" d="
M0 1600 L2400 1600 L2400 0 L0 0  Z
  " fill="#ffffff" fill-rule="evenodd" fill-opacity="1"/>
<defs>
  <clipPath id="clip721">
    <rect x="480" y="0" width="1681" height="1600"/>
  </clipPath>
</defs>
<path clip-path="url(#clip720)" d="
M193.288 1486.45 L2352.76 1486.45 L2352.76 123.472 L193.288 123.472  Z
  " fill="#ffffff" fill-rule="evenodd" fill-opacity="1"/>
<defs>
  <clipPath id="clip722">
    <rect x="193" y="123" width="2160" height="1364"/>
  </clipPath>
</defs>
<polyline clip-path="url(#clip722)" style="stroke:#000000; stroke-linecap:butt; stroke-linejoin:round; stroke-width:2; stroke-opacity:0.1; fill:none" points="
  254.405,1486.45 254.405,123.472 
  "/>
<polyline clip-path="url(#clip722)" style="stroke:#000000; stroke-linecap:butt; stroke-linejoin:round; stroke-width:2; stroke-opacity:0.1; fill:none" points="
  580.362,1486.45 580.362,123.472 
  "/>
<polyline clip-path="url(#clip722)" style="stroke:#000000; stroke-linecap:butt; stroke-linejoin:round; stroke-width:2; stroke-opacity:0.1; fill:none" points="
  906.32,1486.45 906.32,123.472 
  "/>
<polyline clip-path="url(#clip722)" style="stroke:#000000; stroke-linecap:butt; stroke-linejoin:round; stroke-width:2; stroke-opacity:0.1; fill:none" points="
  1232.28,1486.45 1232.28,123.472 
  "/>
<polyline clip-path="url(#clip722)" style="stroke:#000000; stroke-linecap:butt; stroke-linejoin:round; stroke-width:2; stroke-opacity:0.1; fill:none" points="
  1558.23,1486.45 1558.23,123.472 
  "/>
<polyline clip-path="url(#clip722)" style="stroke:#000000; stroke-linecap:butt; stroke-linejoin:round; stroke-width:2; stroke-opacity:0.1; fill:none" points="
  1884.19,1486.45 1884.19,123.472 
  "/>
<polyline clip-path="url(#clip722)" style="stroke:#000000; stroke-linecap:butt; stroke-linejoin:round; stroke-width:2; stroke-opacity:0.1; fill:none" points="
  2210.15,1486.45 2210.15,123.472 
  "/>
<polyline clip-path="url(#clip720)" style="stroke:#000000; stroke-linecap:butt; stroke-linejoin:round; stroke-width:4; stroke-opacity:1; fill:none" points="
  193.288,1486.45 2352.76,1486.45 
  "/>
<polyline clip-path="url(#clip720)" style="stroke:#000000; stroke-linecap:butt; stroke-linejoin:round; stroke-width:4; stroke-opacity:1; fill:none" points="
  254.405,1486.45 254.405,1467.55 
  "/>
<polyline clip-path="url(#clip720)" style="stroke:#000000; stroke-linecap:butt; stroke-linejoin:round; stroke-width:4; stroke-opacity:1; fill:none" points="
  580.362,1486.45 580.362,1467.55 
  "/>
<polyline clip-path="url(#clip720)" style="stroke:#000000; stroke-linecap:butt; stroke-linejoin:round; stroke-width:4; stroke-opacity:1; fill:none" points="
  906.32,1486.45 906.32,1467.55 
  "/>
<polyline clip-path="url(#clip720)" style="stroke:#000000; stroke-linecap:butt; stroke-linejoin:round; stroke-width:4; stroke-opacity:1; fill:none" points="
  1232.28,1486.45 1232.28,1467.55 
  "/>
<polyline clip-path="url(#clip720)" style="stroke:#000000; stroke-linecap:butt; stroke-linejoin:round; stroke-width:4; stroke-opacity:1; fill:none" points="
  1558.23,1486.45 1558.23,1467.55 
  "/>
<polyline clip-path="url(#clip720)" style="stroke:#000000; stroke-linecap:butt; stroke-linejoin:round; stroke-width:4; stroke-opacity:1; fill:none" points="
  1884.19,1486.45 1884.19,1467.55 
  "/>
<polyline clip-path="url(#clip720)" style="stroke:#000000; stroke-linecap:butt; stroke-linejoin:round; stroke-width:4; stroke-opacity:1; fill:none" points="
  2210.15,1486.45 2210.15,1467.55 
  "/>
<path clip-path="url(#clip720)" d="M254.405 1517.37 Q250.794 1517.37 248.965 1520.93 Q247.16 1524.47 247.16 1531.6 Q247.16 1538.71 248.965 1542.27 Q250.794 1545.82 254.405 1545.82 Q258.039 1545.82 259.845 1542.27 Q261.673 1538.71 261.673 1531.6 Q261.673 1524.47 259.845 1520.93 Q258.039 1517.37 254.405 1517.37 M254.405 1513.66 Q260.215 1513.66 263.271 1518.27 Q266.349 1522.85 266.349 1531.6 Q266.349 1540.33 263.271 1544.94 Q260.215 1549.52 254.405 1549.52 Q248.595 1549.52 245.516 1544.94 Q242.46 1540.33 242.46 1531.6 Q242.46 1522.85 245.516 1518.27 Q248.595 1513.66 254.405 1513.66 Z" fill="#000000" fill-rule="evenodd" fill-opacity="1" /><path clip-path="url(#clip720)" d="M575.015 1544.91 L591.334 1544.91 L591.334 1548.85 L569.39 1548.85 L569.39 1544.91 Q572.052 1542.16 576.635 1537.53 Q581.242 1532.88 582.422 1531.53 Q584.668 1529.01 585.547 1527.27 Q586.45 1525.51 586.45 1523.82 Q586.45 1521.07 584.506 1519.33 Q582.585 1517.6 579.483 1517.6 Q577.284 1517.6 574.83 1518.36 Q572.399 1519.13 569.622 1520.68 L569.622 1515.95 Q572.446 1514.82 574.899 1514.24 Q577.353 1513.66 579.39 1513.66 Q584.76 1513.66 587.955 1516.35 Q591.149 1519.03 591.149 1523.52 Q591.149 1525.65 590.339 1527.57 Q589.552 1529.47 587.446 1532.07 Q586.867 1532.74 583.765 1535.95 Q580.663 1539.15 575.015 1544.91 Z" fill="#000000" fill-rule="evenodd" fill-opacity="1" /><path clip-path="url(#clip720)" d="M909.329 1518.36 L897.524 1536.81 L909.329 1536.81 L909.329 1518.36 M908.102 1514.29 L913.982 1514.29 L913.982 1536.81 L918.912 1536.81 L918.912 1540.7 L913.982 1540.7 L913.982 1548.85 L909.329 1548.85 L909.329 1540.7 L893.727 1540.7 L893.727 1536.19 L908.102 1514.29 Z" fill="#000000" fill-rule="evenodd" fill-opacity="1" /><path clip-path="url(#clip720)" d="M1232.68 1529.7 Q1229.53 1529.7 1227.68 1531.86 Q1225.85 1534.01 1225.85 1537.76 Q1225.85 1541.49 1227.68 1543.66 Q1229.53 1545.82 1232.68 1545.82 Q1235.83 1545.82 1237.66 1543.66 Q1239.51 1541.49 1239.51 1537.76 Q1239.51 1534.01 1237.66 1531.86 Q1235.83 1529.7 1232.68 1529.7 M1241.96 1515.05 L1241.96 1519.31 Q1240.21 1518.48 1238.4 1518.04 Q1236.62 1517.6 1234.86 1517.6 Q1230.23 1517.6 1227.77 1520.72 Q1225.34 1523.85 1225 1530.17 Q1226.36 1528.15 1228.42 1527.09 Q1230.48 1526 1232.96 1526 Q1238.17 1526 1241.18 1529.17 Q1244.21 1532.32 1244.21 1537.76 Q1244.21 1543.08 1241.06 1546.3 Q1237.91 1549.52 1232.68 1549.52 Q1226.69 1549.52 1223.52 1544.94 Q1220.34 1540.33 1220.34 1531.6 Q1220.34 1523.41 1224.23 1518.55 Q1228.12 1513.66 1234.67 1513.66 Q1236.43 1513.66 1238.21 1514.01 Q1240.02 1514.36 1241.96 1515.05 Z" fill="#000000" fill-rule="evenodd" fill-opacity="1" /><path clip-path="url(#clip720)" d="M1558.23 1532.44 Q1554.9 1532.44 1552.98 1534.22 Q1551.08 1536 1551.08 1539.13 Q1551.08 1542.25 1552.98 1544.03 Q1554.9 1545.82 1558.23 1545.82 Q1561.57 1545.82 1563.49 1544.03 Q1565.41 1542.23 1565.41 1539.13 Q1565.41 1536 1563.49 1534.22 Q1561.59 1532.44 1558.23 1532.44 M1553.56 1530.45 Q1550.55 1529.7 1548.86 1527.64 Q1547.19 1525.58 1547.19 1522.62 Q1547.19 1518.48 1550.13 1516.07 Q1553.1 1513.66 1558.23 1513.66 Q1563.4 1513.66 1566.34 1516.07 Q1569.28 1518.48 1569.28 1522.62 Q1569.28 1525.58 1567.59 1527.64 Q1565.92 1529.7 1562.93 1530.45 Q1566.31 1531.23 1568.19 1533.52 Q1570.09 1535.82 1570.09 1539.13 Q1570.09 1544.15 1567.01 1546.83 Q1563.95 1549.52 1558.23 1549.52 Q1552.52 1549.52 1549.44 1546.83 Q1546.38 1544.15 1546.38 1539.13 Q1546.38 1535.82 1548.28 1533.52 Q1550.18 1531.23 1553.56 1530.45 M1551.85 1523.06 Q1551.85 1525.75 1553.51 1527.25 Q1555.2 1528.76 1558.23 1528.76 Q1561.24 1528.76 1562.93 1527.25 Q1564.65 1525.75 1564.65 1523.06 Q1564.65 1520.38 1562.93 1518.87 Q1561.24 1517.37 1558.23 1517.37 Q1555.2 1517.37 1553.51 1518.87 Q1551.85 1520.38 1551.85 1523.06 Z" fill="#000000" fill-rule="evenodd" fill-opacity="1" /><path clip-path="url(#clip720)" d="M1858.88 1544.91 L1866.52 1544.91 L1866.52 1518.55 L1858.21 1520.21 L1858.21 1515.95 L1866.47 1514.29 L1871.15 1514.29 L1871.15 1544.91 L1878.79 1544.91 L1878.79 1548.85 L1858.88 1548.85 L1858.88 1544.91 Z" fill="#000000" fill-rule="evenodd" fill-opacity="1" /><path clip-path="url(#clip720)" d="M1898.23 1517.37 Q1894.62 1517.37 1892.79 1520.93 Q1890.99 1524.47 1890.99 1531.6 Q1890.99 1538.71 1892.79 1542.27 Q1894.62 1545.82 1898.23 1545.82 Q1901.87 1545.82 1903.67 1542.27 Q1905.5 1538.71 1905.5 1531.6 Q1905.5 1524.47 1903.67 1520.93 Q1901.87 1517.37 1898.23 1517.37 M1898.23 1513.66 Q1904.04 1513.66 1907.1 1518.27 Q1910.18 1522.85 1910.18 1531.6 Q1910.18 1540.33 1907.1 1544.94 Q1904.04 1549.52 1898.23 1549.52 Q1892.42 1549.52 1889.34 1544.94 Q1886.29 1540.33 1886.29 1531.6 Q1886.29 1522.85 1889.34 1518.27 Q1892.42 1513.66 1898.23 1513.66 Z" fill="#000000" fill-rule="evenodd" fill-opacity="1" /><path clip-path="url(#clip720)" d="M2185.64 1544.91 L2193.27 1544.91 L2193.27 1518.55 L2184.96 1520.21 L2184.96 1515.95 L2193.23 1514.29 L2197.9 1514.29 L2197.9 1544.91 L2205.54 1544.91 L2205.54 1548.85 L2185.64 1548.85 L2185.64 1544.91 Z" fill="#000000" fill-rule="evenodd" fill-opacity="1" /><path clip-path="url(#clip720)" d="M2219.02 1544.91 L2235.33 1544.91 L2235.33 1548.85 L2213.39 1548.85 L2213.39 1544.91 Q2216.05 1542.16 2220.64 1537.53 Q2225.24 1532.88 2226.42 1531.53 Q2228.67 1529.01 2229.55 1527.27 Q2230.45 1525.51 2230.45 1523.82 Q2230.45 1521.07 2228.51 1519.33 Q2226.58 1517.6 2223.48 1517.6 Q2221.28 1517.6 2218.83 1518.36 Q2216.4 1519.13 2213.62 1520.68 L2213.62 1515.95 Q2216.45 1514.82 2218.9 1514.24 Q2221.35 1513.66 2223.39 1513.66 Q2228.76 1513.66 2231.95 1516.35 Q2235.15 1519.03 2235.15 1523.52 Q2235.15 1525.65 2234.34 1527.57 Q2233.55 1529.47 2231.45 1532.07 Q2230.87 1532.74 2227.77 1535.95 Q2224.66 1539.15 2219.02 1544.91 Z" fill="#000000" fill-rule="evenodd" fill-opacity="1" /><polyline clip-path="url(#clip722)" style="stroke:#000000; stroke-linecap:butt; stroke-linejoin:round; stroke-width:2; stroke-opacity:0.1; fill:none" points="
  193.288,1342.41 2352.76,1342.41 
  "/>
<polyline clip-path="url(#clip722)" style="stroke:#000000; stroke-linecap:butt; stroke-linejoin:round; stroke-width:2; stroke-opacity:0.1; fill:none" points="
  193.288,1070.02 2352.76,1070.02 
  "/>
<polyline clip-path="url(#clip722)" style="stroke:#000000; stroke-linecap:butt; stroke-linejoin:round; stroke-width:2; stroke-opacity:0.1; fill:none" points="
  193.288,797.63 2352.76,797.63 
  "/>
<polyline clip-path="url(#clip722)" style="stroke:#000000; stroke-linecap:butt; stroke-linejoin:round; stroke-width:2; stroke-opacity:0.1; fill:none" points="
  193.288,525.237 2352.76,525.237 
  "/>
<polyline clip-path="url(#clip722)" style="stroke:#000000; stroke-linecap:butt; stroke-linejoin:round; stroke-width:2; stroke-opacity:0.1; fill:none" points="
  193.288,252.844 2352.76,252.844 
  "/>
<polyline clip-path="url(#clip720)" style="stroke:#000000; stroke-linecap:butt; stroke-linejoin:round; stroke-width:4; stroke-opacity:1; fill:none" points="
  193.288,1486.45 193.288,123.472 
  "/>
<polyline clip-path="url(#clip720)" style="stroke:#000000; stroke-linecap:butt; stroke-linejoin:round; stroke-width:4; stroke-opacity:1; fill:none" points="
  193.288,1342.41 212.185,1342.41 
  "/>
<polyline clip-path="url(#clip720)" style="stroke:#000000; stroke-linecap:butt; stroke-linejoin:round; stroke-width:4; stroke-opacity:1; fill:none" points="
  193.288,1070.02 212.185,1070.02 
  "/>
<polyline clip-path="url(#clip720)" style="stroke:#000000; stroke-linecap:butt; stroke-linejoin:round; stroke-width:4; stroke-opacity:1; fill:none" points="
  193.288,797.63 212.185,797.63 
  "/>
<polyline clip-path="url(#clip720)" style="stroke:#000000; stroke-linecap:butt; stroke-linejoin:round; stroke-width:4; stroke-opacity:1; fill:none" points="
  193.288,525.237 212.185,525.237 
  "/>
<polyline clip-path="url(#clip720)" style="stroke:#000000; stroke-linecap:butt; stroke-linejoin:round; stroke-width:4; stroke-opacity:1; fill:none" points="
  193.288,252.844 212.185,252.844 
  "/>
<path clip-path="url(#clip720)" d="M50.9921 1342.87 L80.6679 1342.87 L80.6679 1346.8 L50.9921 1346.8 L50.9921 1342.87 Z" fill="#000000" fill-rule="evenodd" fill-opacity="1" /><path clip-path="url(#clip720)" d="M100.76 1328.21 Q97.1493 1328.21 95.3206 1331.78 Q93.515 1335.32 93.515 1342.45 Q93.515 1349.56 95.3206 1353.12 Q97.1493 1356.66 100.76 1356.66 Q104.395 1356.66 106.2 1353.12 Q108.029 1349.56 108.029 1342.45 Q108.029 1335.32 106.2 1331.78 Q104.395 1328.21 100.76 1328.21 M100.76 1324.51 Q106.571 1324.51 109.626 1329.12 Q112.705 1333.7 112.705 1342.45 Q112.705 1351.18 109.626 1355.78 Q106.571 1360.37 100.76 1360.37 Q94.9502 1360.37 91.8715 1355.78 Q88.816 1351.18 88.816 1342.45 Q88.816 1333.7 91.8715 1329.12 Q94.9502 1324.51 100.76 1324.51 Z" fill="#000000" fill-rule="evenodd" fill-opacity="1" /><path clip-path="url(#clip720)" d="M120.922 1353.82 L125.807 1353.82 L125.807 1359.69 L120.922 1359.69 L120.922 1353.82 Z" fill="#000000" fill-rule="evenodd" fill-opacity="1" /><path clip-path="url(#clip720)" d="M150.158 1341.06 Q153.515 1341.78 155.39 1344.05 Q157.288 1346.32 157.288 1349.65 Q157.288 1354.76 153.769 1357.57 Q150.251 1360.37 143.769 1360.37 Q141.593 1360.37 139.279 1359.93 Q136.987 1359.51 134.533 1358.65 L134.533 1354.14 Q136.478 1355.27 138.793 1355.85 Q141.107 1356.43 143.631 1356.43 Q148.029 1356.43 150.32 1354.69 Q152.635 1352.96 152.635 1349.65 Q152.635 1346.59 150.482 1344.88 Q148.353 1343.14 144.533 1343.14 L140.506 1343.14 L140.506 1339.3 L144.718 1339.3 Q148.168 1339.3 149.996 1337.94 Q151.825 1336.55 151.825 1333.95 Q151.825 1331.29 149.927 1329.88 Q148.052 1328.44 144.533 1328.44 Q142.612 1328.44 140.413 1328.86 Q138.214 1329.28 135.575 1330.16 L135.575 1325.99 Q138.237 1325.25 140.552 1324.88 Q142.89 1324.51 144.95 1324.51 Q150.274 1324.51 153.376 1326.94 Q156.478 1329.35 156.478 1333.47 Q156.478 1336.34 154.834 1338.33 Q153.191 1340.3 150.158 1341.06 Z" fill="#000000" fill-rule="evenodd" fill-opacity="1" /><path clip-path="url(#clip720)" d="M100.112 1055.82 Q96.5011 1055.82 94.6724 1059.39 Q92.8669 1062.93 92.8669 1070.06 Q92.8669 1077.16 94.6724 1080.73 Q96.5011 1084.27 100.112 1084.27 Q103.746 1084.27 105.552 1080.73 Q107.381 1077.16 107.381 1070.06 Q107.381 1062.93 105.552 1059.39 Q103.746 1055.82 100.112 1055.82 M100.112 1052.12 Q105.922 1052.12 108.978 1056.72 Q112.057 1061.31 112.057 1070.06 Q112.057 1078.78 108.978 1083.39 Q105.922 1087.97 100.112 1087.97 Q94.3021 1087.97 91.2234 1083.39 Q88.1679 1078.78 88.1679 1070.06 Q88.1679 1061.31 91.2234 1056.72 Q94.3021 1052.12 100.112 1052.12 Z" fill="#000000" fill-rule="evenodd" fill-opacity="1" /><path clip-path="url(#clip720)" d="M120.274 1081.42 L125.158 1081.42 L125.158 1087.3 L120.274 1087.3 L120.274 1081.42 Z" fill="#000000" fill-rule="evenodd" fill-opacity="1" /><path clip-path="url(#clip720)" d="M145.343 1055.82 Q141.732 1055.82 139.904 1059.39 Q138.098 1062.93 138.098 1070.06 Q138.098 1077.16 139.904 1080.73 Q141.732 1084.27 145.343 1084.27 Q148.978 1084.27 150.783 1080.73 Q152.612 1077.16 152.612 1070.06 Q152.612 1062.93 150.783 1059.39 Q148.978 1055.82 145.343 1055.82 M145.343 1052.12 Q151.154 1052.12 154.209 1056.72 Q157.288 1061.31 157.288 1070.06 Q157.288 1078.78 154.209 1083.39 Q151.154 1087.97 145.343 1087.97 Q139.533 1087.97 136.455 1083.39 Q133.399 1078.78 133.399 1070.06 Q133.399 1061.31 136.455 1056.72 Q139.533 1052.12 145.343 1052.12 Z" fill="#000000" fill-rule="evenodd" fill-opacity="1" /><path clip-path="url(#clip720)" d="M100.76 783.428 Q97.1493 783.428 95.3206 786.993 Q93.515 790.535 93.515 797.664 Q93.515 804.771 95.3206 808.335 Q97.1493 811.877 100.76 811.877 Q104.395 811.877 106.2 808.335 Q108.029 804.771 108.029 797.664 Q108.029 790.535 106.2 786.993 Q104.395 783.428 100.76 783.428 M100.76 779.725 Q106.571 779.725 109.626 784.331 Q112.705 788.914 112.705 797.664 Q112.705 806.391 109.626 810.997 Q106.571 815.581 100.76 815.581 Q94.9502 815.581 91.8715 810.997 Q88.816 806.391 88.816 797.664 Q88.816 788.914 91.8715 784.331 Q94.9502 779.725 100.76 779.725 Z" fill="#000000" fill-rule="evenodd" fill-opacity="1" /><path clip-path="url(#clip720)" d="M120.922 809.03 L125.807 809.03 L125.807 814.91 L120.922 814.91 L120.922 809.03 Z" fill="#000000" fill-rule="evenodd" fill-opacity="1" /><path clip-path="url(#clip720)" d="M150.158 796.275 Q153.515 796.993 155.39 799.261 Q157.288 801.53 157.288 804.863 Q157.288 809.979 153.769 812.78 Q150.251 815.581 143.769 815.581 Q141.593 815.581 139.279 815.141 Q136.987 814.724 134.533 813.868 L134.533 809.354 Q136.478 810.488 138.793 811.067 Q141.107 811.646 143.631 811.646 Q148.029 811.646 150.32 809.91 Q152.635 808.173 152.635 804.863 Q152.635 801.808 150.482 800.095 Q148.353 798.359 144.533 798.359 L140.506 798.359 L140.506 794.516 L144.718 794.516 Q148.168 794.516 149.996 793.15 Q151.825 791.761 151.825 789.169 Q151.825 786.507 149.927 785.095 Q148.052 783.66 144.533 783.66 Q142.612 783.66 140.413 784.076 Q138.214 784.493 135.575 785.373 L135.575 781.206 Q138.237 780.465 140.552 780.095 Q142.89 779.725 144.95 779.725 Q150.274 779.725 153.376 782.155 Q156.478 784.562 156.478 788.683 Q156.478 791.553 154.834 793.544 Q153.191 795.511 150.158 796.275 Z" fill="#000000" fill-rule="evenodd" fill-opacity="1" /><path clip-path="url(#clip720)" d="M99.9502 511.036 Q96.3391 511.036 94.5104 514.6 Q92.7049 518.142 92.7049 525.272 Q92.7049 532.378 94.5104 535.943 Q96.3391 539.485 99.9502 539.485 Q103.584 539.485 105.39 535.943 Q107.219 532.378 107.219 525.272 Q107.219 518.142 105.39 514.6 Q103.584 511.036 99.9502 511.036 M99.9502 507.332 Q105.76 507.332 108.816 511.938 Q111.895 516.522 111.895 525.272 Q111.895 533.998 108.816 538.605 Q105.76 543.188 99.9502 543.188 Q94.14 543.188 91.0614 538.605 Q88.0058 533.998 88.0058 525.272 Q88.0058 516.522 91.0614 511.938 Q94.14 507.332 99.9502 507.332 Z" fill="#000000" fill-rule="evenodd" fill-opacity="1" /><path clip-path="url(#clip720)" d="M120.112 536.637 L124.996 536.637 L124.996 542.517 L120.112 542.517 L120.112 536.637 Z" fill="#000000" fill-rule="evenodd" fill-opacity="1" /><path clip-path="url(#clip720)" d="M145.76 523.374 Q142.612 523.374 140.76 525.526 Q138.931 527.679 138.931 531.429 Q138.931 535.156 140.76 537.332 Q142.612 539.485 145.76 539.485 Q148.908 539.485 150.737 537.332 Q152.589 535.156 152.589 531.429 Q152.589 527.679 150.737 525.526 Q148.908 523.374 145.76 523.374 M155.042 508.721 L155.042 512.98 Q153.283 512.147 151.478 511.707 Q149.695 511.267 147.936 511.267 Q143.306 511.267 140.853 514.392 Q138.422 517.517 138.075 523.836 Q139.441 521.823 141.501 520.758 Q143.561 519.67 146.038 519.67 Q151.246 519.67 154.255 522.841 Q157.288 525.989 157.288 531.429 Q157.288 536.753 154.14 539.971 Q150.992 543.188 145.76 543.188 Q139.765 543.188 136.594 538.605 Q133.422 533.998 133.422 525.272 Q133.422 517.077 137.311 512.216 Q141.2 507.332 147.751 507.332 Q149.51 507.332 151.293 507.679 Q153.098 508.026 155.042 508.721 Z" fill="#000000" fill-rule="evenodd" fill-opacity="1" /><path clip-path="url(#clip720)" d="M100.297 238.643 Q96.6863 238.643 94.8576 242.208 Q93.0521 245.75 93.0521 252.879 Q93.0521 259.986 94.8576 263.55 Q96.6863 267.092 100.297 267.092 Q103.932 267.092 105.737 263.55 Q107.566 259.986 107.566 252.879 Q107.566 245.75 105.737 242.208 Q103.932 238.643 100.297 238.643 M100.297 234.939 Q106.108 234.939 109.163 239.546 Q112.242 244.129 112.242 252.879 Q112.242 261.606 109.163 266.212 Q106.108 270.796 100.297 270.796 Q94.4873 270.796 91.4086 266.212 Q88.353 261.606 88.353 252.879 Q88.353 244.129 91.4086 239.546 Q94.4873 234.939 100.297 234.939 Z" fill="#000000" fill-rule="evenodd" fill-opacity="1" /><path clip-path="url(#clip720)" d="M120.459 264.245 L125.344 264.245 L125.344 270.124 L120.459 270.124 L120.459 264.245 Z" fill="#000000" fill-rule="evenodd" fill-opacity="1" /><path clip-path="url(#clip720)" d="M135.668 269.407 L135.668 265.148 Q137.427 265.981 139.232 266.421 Q141.038 266.861 142.774 266.861 Q147.404 266.861 149.834 263.759 Q152.288 260.634 152.635 254.291 Q151.293 256.282 149.232 257.347 Q147.172 258.411 144.672 258.411 Q139.487 258.411 136.455 255.287 Q133.445 252.138 133.445 246.699 Q133.445 241.375 136.594 238.157 Q139.742 234.939 144.973 234.939 Q150.968 234.939 154.117 239.546 Q157.288 244.129 157.288 252.879 Q157.288 261.05 153.399 265.935 Q149.533 270.796 142.982 270.796 Q141.223 270.796 139.418 270.448 Q137.612 270.101 135.668 269.407 M144.973 254.754 Q148.121 254.754 149.95 252.601 Q151.802 250.449 151.802 246.699 Q151.802 242.972 149.95 240.819 Q148.121 238.643 144.973 238.643 Q141.825 238.643 139.973 240.819 Q138.144 242.972 138.144 246.699 Q138.144 250.449 139.973 252.601 Q141.825 254.754 144.973 254.754 Z" fill="#000000" fill-rule="evenodd" fill-opacity="1" /><path clip-path="url(#clip720)" d="M954.216 12.096 L1005.38 12.096 L1005.38 18.9825 L983.909 18.9825 L983.909 72.576 L975.686 72.576 L975.686 18.9825 L954.216 18.9825 L954.216 12.096 Z" fill="#000000" fill-rule="evenodd" fill-opacity="1" /><path clip-path="url(#clip720)" d="M994.887 27.2059 L1002.34 27.2059 L1011.66 62.6108 L1020.93 27.2059 L1029.72 27.2059 L1039.04 62.6108 L1048.32 27.2059 L1055.77 27.2059 L1043.9 72.576 L1035.11 72.576 L1025.35 35.3887 L1015.55 72.576 L1006.76 72.576 L994.887 27.2059 Z" fill="#000000" fill-rule="evenodd" fill-opacity="1" /><path clip-path="url(#clip720)" d="M1084.65 32.4315 Q1078.66 32.4315 1075.18 37.1306 Q1071.69 41.7891 1071.69 49.9314 Q1071.69 58.0738 1075.14 62.7728 Q1078.62 67.4314 1084.65 67.4314 Q1090.61 67.4314 1094.09 62.7323 Q1097.58 58.0333 1097.58 49.9314 Q1097.58 41.8701 1094.09 37.1711 Q1090.61 32.4315 1084.65 32.4315 M1084.65 26.1121 Q1094.38 26.1121 1099.93 32.4315 Q1105.48 38.7509 1105.48 49.9314 Q1105.48 61.0714 1099.93 67.4314 Q1094.38 73.7508 1084.65 73.7508 Q1074.89 73.7508 1069.34 67.4314 Q1063.83 61.0714 1063.83 49.9314 Q1063.83 38.7509 1069.34 32.4315 Q1074.89 26.1121 1084.65 26.1121 Z" fill="#000000" fill-rule="evenodd" fill-opacity="1" /><path clip-path="url(#clip720)" d="M1151.58 14.324 L1151.58 27.2059 L1166.93 27.2059 L1166.93 32.9987 L1151.58 32.9987 L1151.58 57.6282 Q1151.58 63.1779 1153.07 64.7578 Q1154.61 66.3376 1159.27 66.3376 L1166.93 66.3376 L1166.93 72.576 L1159.27 72.576 Q1150.64 72.576 1147.36 69.3758 Q1144.08 66.1351 1144.08 57.6282 L1144.08 32.9987 L1138.61 32.9987 L1138.61 27.2059 L1144.08 27.2059 L1144.08 14.324 L1151.58 14.324 Z" fill="#000000" fill-rule="evenodd" fill-opacity="1" /><path clip-path="url(#clip720)" d="M1176.73 27.2059 L1184.19 27.2059 L1184.19 72.576 L1176.73 72.576 L1176.73 27.2059 M1176.73 9.54393 L1184.19 9.54393 L1184.19 18.9825 L1176.73 18.9825 L1176.73 9.54393 Z" fill="#000000" fill-rule="evenodd" fill-opacity="1" /><path clip-path="url(#clip720)" d="M1235.11 35.9153 Q1237.9 30.8922 1241.79 28.5022 Q1245.68 26.1121 1250.94 26.1121 Q1258.03 26.1121 1261.88 31.0947 Q1265.73 36.0368 1265.73 45.1919 L1265.73 72.576 L1258.24 72.576 L1258.24 45.4349 Q1258.24 38.913 1255.93 35.7533 Q1253.62 32.5936 1248.88 32.5936 Q1243.09 32.5936 1239.72 36.4419 Q1236.36 40.2903 1236.36 46.9338 L1236.36 72.576 L1228.87 72.576 L1228.87 45.4349 Q1228.87 38.8725 1226.56 35.7533 Q1224.25 32.5936 1219.43 32.5936 Q1213.72 32.5936 1210.35 36.4824 Q1206.99 40.3308 1206.99 46.9338 L1206.99 72.576 L1199.5 72.576 L1199.5 27.2059 L1206.99 27.2059 L1206.99 34.2544 Q1209.54 30.082 1213.11 28.0971 Q1216.67 26.1121 1221.58 26.1121 Q1226.52 26.1121 1229.96 28.6237 Q1233.44 31.1352 1235.11 35.9153 Z" fill="#000000" fill-rule="evenodd" fill-opacity="1" /><path clip-path="url(#clip720)" d="M1319.4 48.0275 L1319.4 51.6733 L1285.13 51.6733 Q1285.62 59.3701 1289.75 63.421 Q1293.92 67.4314 1301.34 67.4314 Q1305.63 67.4314 1309.64 66.3781 Q1313.69 65.3249 1317.66 63.2184 L1317.66 70.267 Q1313.65 71.9684 1309.44 72.8596 Q1305.23 73.7508 1300.89 73.7508 Q1290.04 73.7508 1283.68 67.4314 Q1277.36 61.1119 1277.36 50.3365 Q1277.36 39.1965 1283.35 32.6746 Q1289.39 26.1121 1299.6 26.1121 Q1308.75 26.1121 1314.06 32.0264 Q1319.4 37.9003 1319.4 48.0275 M1311.95 45.84 Q1311.87 39.7232 1308.51 36.0774 Q1305.19 32.4315 1299.68 32.4315 Q1293.44 32.4315 1289.67 35.9558 Q1285.94 39.4801 1285.38 45.8805 L1311.95 45.84 Z" fill="#000000" fill-rule="evenodd" fill-opacity="1" /><path clip-path="url(#clip720)" d="M1386.93 28.5427 L1386.93 35.5912 Q1383.77 33.9709 1380.37 33.1607 Q1376.97 32.3505 1373.32 32.3505 Q1367.77 32.3505 1364.98 34.0519 Q1362.22 35.7533 1362.22 39.156 Q1362.22 41.7486 1364.21 43.2475 Q1366.19 44.7058 1372.19 46.0426 L1374.74 46.6097 Q1382.68 48.3111 1386 51.4303 Q1389.36 54.509 1389.36 60.0587 Q1389.36 66.3781 1384.34 70.0644 Q1379.36 73.7508 1370.61 73.7508 Q1366.96 73.7508 1362.99 73.0216 Q1359.06 72.3329 1354.69 70.9151 L1354.69 63.2184 Q1358.82 65.3654 1362.83 66.4591 Q1366.84 67.5124 1370.77 67.5124 Q1376.04 67.5124 1378.87 65.73 Q1381.71 63.9071 1381.71 60.6258 Q1381.71 57.5877 1379.64 55.9673 Q1377.62 54.3469 1370.69 52.8481 L1368.1 52.2405 Q1361.17 50.7821 1358.09 47.7845 Q1355.01 44.7463 1355.01 39.4801 Q1355.01 33.0797 1359.55 29.5959 Q1364.09 26.1121 1372.43 26.1121 Q1376.56 26.1121 1380.21 26.7198 Q1383.85 27.3274 1386.93 28.5427 Z" fill="#000000" fill-rule="evenodd" fill-opacity="1" /><path clip-path="url(#clip720)" d="M1440.04 48.0275 L1440.04 51.6733 L1405.77 51.6733 Q1406.26 59.3701 1410.39 63.421 Q1414.56 67.4314 1421.97 67.4314 Q1426.27 67.4314 1430.28 66.3781 Q1434.33 65.3249 1438.3 63.2184 L1438.3 70.267 Q1434.29 71.9684 1430.08 72.8596 Q1425.86 73.7508 1421.53 73.7508 Q1410.67 73.7508 1404.31 67.4314 Q1397.99 61.1119 1397.99 50.3365 Q1397.99 39.1965 1403.99 32.6746 Q1410.02 26.1121 1420.23 26.1121 Q1429.39 26.1121 1434.69 32.0264 Q1440.04 37.9003 1440.04 48.0275 M1432.59 45.84 Q1432.51 39.7232 1429.14 36.0774 Q1425.82 32.4315 1420.31 32.4315 Q1414.07 32.4315 1410.31 35.9558 Q1406.58 39.4801 1406.01 45.8805 L1432.59 45.84 Z" fill="#000000" fill-rule="evenodd" fill-opacity="1" /><path clip-path="url(#clip720)" d="M1478.56 34.1734 Q1477.31 33.4443 1475.81 33.1202 Q1474.35 32.7556 1472.57 32.7556 Q1466.25 32.7556 1462.85 36.8875 Q1459.49 40.9789 1459.49 48.6757 L1459.49 72.576 L1451.99 72.576 L1451.99 27.2059 L1459.49 27.2059 L1459.49 34.2544 Q1461.83 30.1225 1465.6 28.1376 Q1469.37 26.1121 1474.76 26.1121 Q1475.53 26.1121 1476.46 26.2337 Q1477.39 26.3147 1478.52 26.5172 L1478.56 34.1734 Z" fill="#000000" fill-rule="evenodd" fill-opacity="1" /><path clip-path="url(#clip720)" d="M1486.38 27.2059 L1493.84 27.2059 L1493.84 72.576 L1486.38 72.576 L1486.38 27.2059 M1486.38 9.54393 L1493.84 9.54393 L1493.84 18.9825 L1486.38 18.9825 L1486.38 9.54393 Z" fill="#000000" fill-rule="evenodd" fill-opacity="1" /><path clip-path="url(#clip720)" d="M1548.24 48.0275 L1548.24 51.6733 L1513.97 51.6733 Q1514.46 59.3701 1518.59 63.421 Q1522.76 67.4314 1530.17 67.4314 Q1534.47 67.4314 1538.48 66.3781 Q1542.53 65.3249 1546.5 63.2184 L1546.5 70.267 Q1542.49 71.9684 1538.28 72.8596 Q1534.06 73.7508 1529.73 73.7508 Q1518.87 73.7508 1512.51 67.4314 Q1506.19 61.1119 1506.19 50.3365 Q1506.19 39.1965 1512.19 32.6746 Q1518.22 26.1121 1528.43 26.1121 Q1537.59 26.1121 1542.89 32.0264 Q1548.24 37.9003 1548.24 48.0275 M1540.79 45.84 Q1540.71 39.7232 1537.34 36.0774 Q1534.02 32.4315 1528.51 32.4315 Q1522.27 32.4315 1518.51 35.9558 Q1514.78 39.4801 1514.21 45.8805 L1540.79 45.84 Z" fill="#000000" fill-rule="evenodd" fill-opacity="1" /><path clip-path="url(#clip720)" d="M1589.4 28.5427 L1589.4 35.5912 Q1586.24 33.9709 1582.84 33.1607 Q1579.43 32.3505 1575.79 32.3505 Q1570.24 32.3505 1567.44 34.0519 Q1564.69 35.7533 1564.69 39.156 Q1564.69 41.7486 1566.67 43.2475 Q1568.66 44.7058 1574.65 46.0426 L1577.2 46.6097 Q1585.14 48.3111 1588.47 51.4303 Q1591.83 54.509 1591.83 60.0587 Q1591.83 66.3781 1586.8 70.0644 Q1581.82 73.7508 1573.07 73.7508 Q1569.43 73.7508 1565.46 73.0216 Q1561.53 72.3329 1557.15 70.9151 L1557.15 63.2184 Q1561.28 65.3654 1565.29 66.4591 Q1569.31 67.5124 1573.23 67.5124 Q1578.5 67.5124 1581.34 65.73 Q1584.17 63.9071 1584.17 60.6258 Q1584.17 57.5877 1582.11 55.9673 Q1580.08 54.3469 1573.15 52.8481 L1570.56 52.2405 Q1563.63 50.7821 1560.56 47.7845 Q1557.48 44.7463 1557.48 39.4801 Q1557.48 33.0797 1562.01 29.5959 Q1566.55 26.1121 1574.9 26.1121 Q1579.03 26.1121 1582.67 26.7198 Q1586.32 27.3274 1589.4 28.5427 Z" fill="#000000" fill-rule="evenodd" fill-opacity="1" /><polyline clip-path="url(#clip722)" style="stroke:#000000; stroke-linecap:butt; stroke-linejoin:round; stroke-width:4; stroke-opacity:1; fill:none" points="
  254.405,305.987 270.703,260.897 287.001,224.192 303.298,196.232 319.596,176.941 335.894,165.834 352.192,162.064 368.49,164.493 384.788,171.781 401.086,182.476 
  417.384,195.106 433.681,208.257 449.979,220.649 466.277,231.184 482.575,238.992 498.873,243.459 515.171,244.242 531.469,241.282 547.767,234.804 564.064,225.312 
  580.362,213.571 596.66,200.589 612.958,187.577 629.256,175.9 645.554,167.016 661.852,162.395 678.15,163.435 694.447,171.369 710.745,187.174 727.043,211.495 
  743.341,244.581 759.639,286.255 775.937,335.91 792.235,392.54 808.533,454.802 824.83,521.094 841.128,589.659 857.426,658.68 873.724,726.381 890.022,791.105 
  906.32,851.375 922.618,905.929 938.916,953.736 955.213,993.992 971.511,1026.1 987.809,1049.62 1004.11,1064.29 1020.4,1069.95 1036.7,1066.54 1053,1054.09 
  1069.3,1032.74 1085.6,1002.73 1101.89,964.441 1118.19,918.438 1134.49,865.469 1150.79,806.507 1167.09,742.757 1183.38,675.645 1199.68,606.788 1215.98,537.941 
  1232.28,470.918 1248.58,407.501 1264.87,349.338 1281.17,297.847 1297.47,254.123 1313.77,218.876 1330.06,192.39 1346.36,174.52 1362.66,164.715 1378.96,162.073 
  1395.26,165.417 1411.55,173.381 1427.85,184.504 1444.15,197.317 1460.45,210.427 1476.75,222.577 1493.04,232.708 1509.34,239.99 1525.64,243.853 1541.94,244.003 
  1558.23,240.428 1574.53,233.401 1590.83,223.47 1607.13,211.445 1623.43,198.368 1639.72,185.481 1656.02,174.171 1672.32,165.901 1688.62,162.137 1704.92,164.256 
  1721.21,173.454 1737.51,190.656 1753.81,216.445 1770.11,250.999 1786.4,294.069 1802.7,344.977 1819,402.656 1835.3,465.713 1851.6,532.513 1867.89,601.282 
  1884.19,670.203 1900.49,737.515 1916.79,801.588 1933.09,860.979 1949.38,914.464 1965.68,961.052 1981.98,999.974 1998.28,1030.66 2014.58,1052.71 2030.87,1065.88 
  2047.17,1070.01 2063.47,1065.08 2079.77,1051.12 2096.06,1028.29 2112.36,996.854 2128.66,957.228 2144.96,909.995 2161.26,855.944 2177.55,796.086 2193.85,731.665 
  2210.15,664.142 2226.45,595.162 2242.75,526.495 2259.04,459.956 2275.34,397.312 2291.64,340.179 
  "/>
<polyline clip-path="url(#clip722)" style="stroke:#008000; stroke-linecap:butt; stroke-linejoin:round; stroke-width:4; stroke-opacity:1; fill:none" points="
  254.405,1447.87 270.703,1443.74 287.001,1431.34 303.298,1410.63 319.596,1381.59 335.894,1344.23 352.192,1298.65 368.49,1245.11 384.788,1184.04 401.086,1116.14 
  417.384,1042.34 433.681,963.851 449.979,882.132 466.277,798.838 482.575,715.747 498.873,634.668 515.171,557.344 531.469,485.338 547.767,419.948 564.064,362.131 
  580.362,312.458 596.66,271.099 612.958,237.843 629.256,212.141 645.554,193.175 661.852,179.94 678.15,171.329 694.447,166.221 710.745,163.562 727.043,162.43 
  743.341,162.092 759.639,162.047 775.937,162.048 792.235,162.118 808.533,162.547 824.83,163.879 841.128,166.882 857.426,172.502 873.724,181.812 890.022,195.934 
  906.32,215.966 922.618,242.887 938.916,277.476 955.213,320.228 971.511,371.294 987.809,430.435 1004.11,497.014 1020.4,570.013 1036.7,648.085 1053,729.626 
  1069.3,812.879 1085.6,896.03 1101.89,977.317 1118.19,1055.11 1134.49,1128 1150.79,1194.81 1167.09,1254.65 1183.38,1306.88 1199.68,1351.09 1215.98,1387.06 
  1232.28,1414.7 1248.58,1434.01 1264.87,1445.02 1281.17,1447.76 1297.47,1442.24 1313.77,1428.44 1330.06,1406.33 1346.36,1375.89 1362.66,1337.13 1378.96,1290.19 
  1395.26,1235.35 1411.55,1173.08 1427.85,1104.11 1444.15,1029.43 1460.45,950.293 1476.75,868.19 1493.04,784.803 1509.34,701.924 1525.64,621.359 1541.94,544.825 
  1558.23,473.849 1574.53,409.676 1590.83,353.199 1607.13,304.923 1623.43,264.951 1639.72,233.012 1656.02,208.506 1672.32,190.578 1688.62,178.2 1704.92,170.255 
  1721.21,165.63 1737.51,163.287 1753.81,162.334 1770.11,162.074 1786.4,162.047 1802.7,162.05 1819,162.153 1835.3,162.69 1851.6,164.244 1867.89,167.615 
  1884.19,173.779 1900.49,183.819 1916.79,198.861 1933.09,219.987 1949.38,248.15 1965.68,284.085 1981.98,328.235 1998.28,380.686 2014.58,441.133 2030.87,508.873 
  2047.17,582.827 2063.47,661.599 2079.77,743.555 2096.06,826.917 2112.36,909.875 2128.66,990.683 2144.96,1067.75 2161.26,1139.69 2177.55,1205.38 2193.85,1263.98 
  2210.15,1314.88 2226.45,1357.72 2242.75,1392.29 2259.04,1418.53 2275.34,1436.44 2291.64,1446.05 
  "/>
<path clip-path="url(#clip720)" d="
M1999.44 324.425 L2280.77 324.425 L2280.77 168.905 L1999.44 168.905  Z
  " fill="#ffffff" fill-rule="evenodd" fill-opacity="1"/>
<polyline clip-path="url(#clip720)" style="stroke:#000000; stroke-linecap:butt; stroke-linejoin:round; stroke-width:4; stroke-opacity:1; fill:none" points="
  1999.44,324.425 2280.77,324.425 2280.77,168.905 1999.44,168.905 1999.44,324.425 
  "/>
<polyline clip-path="url(#clip720)" style="stroke:#000000; stroke-linecap:butt; stroke-linejoin:round; stroke-width:4; stroke-opacity:1; fill:none" points="
  2023.44,220.745 2167.4,220.745 
  "/>
<path clip-path="url(#clip720)" d="M2207.9 202.006 L2207.9 205.548 L2203.83 205.548 Q2201.54 205.548 2200.63 206.474 Q2199.75 207.4 2199.75 209.807 L2199.75 212.099 L2206.77 212.099 L2206.77 215.409 L2199.75 215.409 L2199.75 238.025 L2195.47 238.025 L2195.47 215.409 L2191.4 215.409 L2191.4 212.099 L2195.47 212.099 L2195.47 210.293 Q2195.47 205.965 2197.48 203.997 Q2199.5 202.006 2203.87 202.006 L2207.9 202.006 Z" fill="#000000" fill-rule="evenodd" fill-opacity="1" /><path clip-path="url(#clip720)" d="M2212.88 234.089 L2220.52 234.089 L2220.52 207.724 L2212.21 209.391 L2212.21 205.131 L2220.47 203.465 L2225.15 203.465 L2225.15 234.089 L2232.79 234.089 L2232.79 238.025 L2212.88 238.025 L2212.88 234.089 Z" fill="#000000" fill-rule="evenodd" fill-opacity="1" /><polyline clip-path="url(#clip720)" style="stroke:#008000; stroke-linecap:butt; stroke-linejoin:round; stroke-width:4; stroke-opacity:1; fill:none" points="
  2023.44,272.585 2167.4,272.585 
  "/>
<path clip-path="url(#clip720)" d="M2207.9 253.846 L2207.9 257.388 L2203.83 257.388 Q2201.54 257.388 2200.63 258.314 Q2199.75 259.24 2199.75 261.647 L2199.75 263.939 L2206.77 263.939 L2206.77 267.249 L2199.75 267.249 L2199.75 289.865 L2195.47 289.865 L2195.47 267.249 L2191.4 267.249 L2191.4 263.939 L2195.47 263.939 L2195.47 262.133 Q2195.47 257.805 2197.48 255.837 Q2199.5 253.846 2203.87 253.846 L2207.9 253.846 Z" fill="#000000" fill-rule="evenodd" fill-opacity="1" /><path clip-path="url(#clip720)" d="M2216.1 285.929 L2232.42 285.929 L2232.42 289.865 L2210.47 289.865 L2210.47 285.929 Q2213.13 283.175 2217.72 278.545 Q2222.32 273.893 2223.5 272.55 Q2225.75 270.027 2226.63 268.291 Q2227.53 266.531 2227.53 264.842 Q2227.53 262.087 2225.59 260.351 Q2223.67 258.615 2220.56 258.615 Q2218.36 258.615 2215.91 259.379 Q2213.48 260.143 2210.7 261.694 L2210.7 256.971 Q2213.53 255.837 2215.98 255.258 Q2218.43 254.68 2220.47 254.68 Q2225.84 254.68 2229.04 257.365 Q2232.23 260.05 2232.23 264.541 Q2232.23 266.67 2231.42 268.592 Q2230.63 270.49 2228.53 273.082 Q2227.95 273.754 2224.85 276.971 Q2221.74 280.166 2216.1 285.929 Z" fill="#000000" fill-rule="evenodd" fill-opacity="1" /></svg>
