<?xml version="1.0" encoding="utf-8"?>
<svg xmlns="http://www.w3.org/2000/svg" xmlns:xlink="http://www.w3.org/1999/xlink" width="600" height="400" viewBox="0 0 2400 1600">
<defs>
  <clipPath id="clip640">
    <rect x="0" y="0" width="2400" height="1600"/>
  </clipPath>
</defs>
<path clip-path="url(#clip640)" d="
M0 1600 L2400 1600 L2400 0 L0 0  Z
  " fill="#ffffff" fill-rule="evenodd" fill-opacity="1"/>
<defs>
  <clipPath id="clip641">
    <rect x="480" y="0" width="1681" height="1600"/>
  </clipPath>
</defs>
<path clip-path="url(#clip640)" d="
M257.204 1423.18 L2352.76 1423.18 L2352.76 123.472 L257.204 123.472  Z
  " fill="#ffffff" fill-rule="evenodd" fill-opacity="1"/>
<defs>
  <clipPath id="clip642">
    <rect x="257" y="123" width="2097" height="1301"/>
  </clipPath>
</defs>
<polyline clip-path="url(#clip642)" style="stroke:#000000; stroke-linecap:butt; stroke-linejoin:round; stroke-width:2; stroke-opacity:0.1; fill:none" points="
  257.204,1423.18 257.204,123.472 
  "/>
<polyline clip-path="url(#clip642)" style="stroke:#000000; stroke-linecap:butt; stroke-linejoin:round; stroke-width:2; stroke-opacity:0.1; fill:none" points="
  676.314,1423.18 676.314,123.472 
  "/>
<polyline clip-path="url(#clip642)" style="stroke:#000000; stroke-linecap:butt; stroke-linejoin:round; stroke-width:2; stroke-opacity:0.1; fill:none" points="
  1095.42,1423.18 1095.42,123.472 
  "/>
<polyline clip-path="url(#clip642)" style="stroke:#000000; stroke-linecap:butt; stroke-linejoin:round; stroke-width:2; stroke-opacity:0.1; fill:none" points="
  1514.54,1423.18 1514.54,123.472 
  "/>
<polyline clip-path="url(#clip642)" style="stroke:#000000; stroke-linecap:butt; stroke-linejoin:round; stroke-width:2; stroke-opacity:0.1; fill:none" points="
  1933.65,1423.18 1933.65,123.472 
  "/>
<polyline clip-path="url(#clip642)" style="stroke:#000000; stroke-linecap:butt; stroke-linejoin:round; stroke-width:2; stroke-opacity:0.1; fill:none" points="
  2352.76,1423.18 2352.76,123.472 
  "/>
<polyline clip-path="url(#clip640)" style="stroke:#000000; stroke-linecap:butt; stroke-linejoin:round; stroke-width:4; stroke-opacity:1; fill:none" points="
  257.204,1423.18 2352.76,1423.18 
  "/>
<polyline clip-path="url(#clip640)" style="stroke:#000000; stroke-linecap:butt; stroke-linejoin:round; stroke-width:4; stroke-opacity:1; fill:none" points="
  257.204,123.472 2352.76,123.472 
  "/>
<polyline clip-path="url(#clip640)" style="stroke:#000000; stroke-linecap:butt; stroke-linejoin:round; stroke-width:4; stroke-opacity:1; fill:none" points="
  257.204,1423.18 257.204,1404.28 
  "/>
<polyline clip-path="url(#clip640)" style="stroke:#000000; stroke-linecap:butt; stroke-linejoin:round; stroke-width:4; stroke-opacity:1; fill:none" points="
  676.314,1423.18 676.314,1404.28 
  "/>
<polyline clip-path="url(#clip640)" style="stroke:#000000; stroke-linecap:butt; stroke-linejoin:round; stroke-width:4; stroke-opacity:1; fill:none" points="
  1095.42,1423.18 1095.42,1404.28 
  "/>
<polyline clip-path="url(#clip640)" style="stroke:#000000; stroke-linecap:butt; stroke-linejoin:round; stroke-width:4; stroke-opacity:1; fill:none" points="
  1514.54,1423.18 1514.54,1404.28 
  "/>
<polyline clip-path="url(#clip640)" style="stroke:#000000; stroke-linecap:butt; stroke-linejoin:round; stroke-width:4; stroke-opacity:1; fill:none" points="
  1933.65,1423.18 1933.65,1404.28 
  "/>
<polyline clip-path="url(#clip640)" style="stroke:#000000; stroke-linecap:butt; stroke-linejoin:round; stroke-width:4; stroke-opacity:1; fill:none" points="
  2352.76,1423.18 2352.76,1404.28 
  "/>
<path clip-path="url(#clip640)" d="M257.204 1454.1 Q253.593 1454.1 251.764 1457.66 Q249.959 1461.2 249.959 1468.33 Q249.959 1475.44 251.764 1479.01 Q253.593 1482.55 257.204 1482.55 Q260.838 1482.55 262.644 1479.01 Q264.473 1475.44 264.473 1468.33 Q264.473 1461.2 262.644 1457.66 Q260.838 1454.1 257.204 1454.1 M257.204 1450.39 Q263.014 1450.39 266.07 1455 Q269.148 1459.58 269.148 1468.33 Q269.148 1477.06 266.07 1481.67 Q263.014 1486.25 257.204 1486.25 Q251.394 1486.25 248.315 1481.67 Q245.26 1477.06 245.26 1468.33 Q245.26 1459.58 248.315 1455 Q251.394 1450.39 257.204 1450.39 Z" fill="#000000" fill-rule="evenodd" fill-opacity="1" /><path clip-path="url(#clip640)" d="M666.696 1481.64 L674.335 1481.64 L674.335 1455.28 L666.025 1456.95 L666.025 1452.69 L674.289 1451.02 L678.965 1451.02 L678.965 1481.64 L686.604 1481.64 L686.604 1485.58 L666.696 1485.58 L666.696 1481.64 Z" fill="#000000" fill-rule="evenodd" fill-opacity="1" /><path clip-path="url(#clip640)" d="M1090.08 1481.64 L1106.4 1481.64 L1106.4 1485.58 L1084.45 1485.58 L1084.45 1481.64 Q1087.11 1478.89 1091.7 1474.26 Q1096.3 1469.61 1097.48 1468.27 Q1099.73 1465.74 1100.61 1464.01 Q1101.51 1462.25 1101.51 1460.56 Q1101.51 1457.8 1099.57 1456.07 Q1097.65 1454.33 1094.55 1454.33 Q1092.35 1454.33 1089.89 1455.09 Q1087.46 1455.86 1084.68 1457.41 L1084.68 1452.69 Q1087.51 1451.55 1089.96 1450.97 Q1092.42 1450.39 1094.45 1450.39 Q1099.82 1450.39 1103.02 1453.08 Q1106.21 1455.77 1106.21 1460.26 Q1106.21 1462.39 1105.4 1464.31 Q1104.61 1466.2 1102.51 1468.8 Q1101.93 1469.47 1098.83 1472.69 Q1095.73 1475.88 1090.08 1481.64 Z" fill="#000000" fill-rule="evenodd" fill-opacity="1" /><path clip-path="url(#clip640)" d="M1518.78 1466.95 Q1522.14 1467.66 1524.01 1469.93 Q1525.91 1472.2 1525.91 1475.53 Q1525.91 1480.65 1522.39 1483.45 Q1518.88 1486.25 1512.39 1486.25 Q1510.22 1486.25 1507.9 1485.81 Q1505.61 1485.39 1503.16 1484.54 L1503.16 1480.02 Q1505.1 1481.16 1507.42 1481.74 Q1509.73 1482.32 1512.26 1482.32 Q1516.65 1482.32 1518.94 1480.58 Q1521.26 1478.84 1521.26 1475.53 Q1521.26 1472.48 1519.11 1470.77 Q1516.98 1469.03 1513.16 1469.03 L1509.13 1469.03 L1509.13 1465.19 L1513.34 1465.19 Q1516.79 1465.19 1518.62 1463.82 Q1520.45 1462.43 1520.45 1459.84 Q1520.45 1457.18 1518.55 1455.77 Q1516.68 1454.33 1513.16 1454.33 Q1511.24 1454.33 1509.04 1454.75 Q1506.84 1455.16 1504.2 1456.04 L1504.2 1451.88 Q1506.86 1451.14 1509.18 1450.77 Q1511.51 1450.39 1513.57 1450.39 Q1518.9 1450.39 1522 1452.83 Q1525.1 1455.23 1525.1 1459.35 Q1525.1 1462.22 1523.46 1464.21 Q1521.82 1466.18 1518.78 1466.95 Z" fill="#000000" fill-rule="evenodd" fill-opacity="1" /><path clip-path="url(#clip640)" d="M1936.65 1455.09 L1924.85 1473.54 L1936.65 1473.54 L1936.65 1455.09 M1935.43 1451.02 L1941.31 1451.02 L1941.31 1473.54 L1946.24 1473.54 L1946.24 1477.43 L1941.31 1477.43 L1941.31 1485.58 L1936.65 1485.58 L1936.65 1477.43 L1921.05 1477.43 L1921.05 1472.92 L1935.43 1451.02 Z" fill="#000000" fill-rule="evenodd" fill-opacity="1" /><path clip-path="url(#clip640)" d="M2343.03 1451.02 L2361.39 1451.02 L2361.39 1454.96 L2347.32 1454.96 L2347.32 1463.43 Q2348.33 1463.08 2349.35 1462.92 Q2350.37 1462.73 2351.39 1462.73 Q2357.18 1462.73 2360.56 1465.9 Q2363.94 1469.08 2363.94 1474.49 Q2363.94 1480.07 2360.46 1483.17 Q2356.99 1486.25 2350.67 1486.25 Q2348.5 1486.25 2346.23 1485.88 Q2343.98 1485.51 2341.58 1484.77 L2341.58 1480.07 Q2343.66 1481.2 2345.88 1481.76 Q2348.1 1482.32 2350.58 1482.32 Q2354.58 1482.32 2356.92 1480.21 Q2359.26 1478.1 2359.26 1474.49 Q2359.26 1470.88 2356.92 1468.77 Q2354.58 1466.67 2350.58 1466.67 Q2348.71 1466.67 2346.83 1467.08 Q2344.98 1467.5 2343.03 1468.38 L2343.03 1451.02 Z" fill="#000000" fill-rule="evenodd" fill-opacity="1" /><path clip-path="url(#clip640)" d="M1244.14 1522.27 L1244.14 1532.4 L1256.2 1532.4 L1256.2 1536.95 L1244.14 1536.95 L1244.14 1556.3 Q1244.14 1560.66 1245.32 1561.9 Q1246.53 1563.14 1250.19 1563.14 L1256.2 1563.14 L1256.2 1568.04 L1250.19 1568.04 Q1243.41 1568.04 1240.83 1565.53 Q1238.25 1562.98 1238.25 1556.3 L1238.25 1536.95 L1233.95 1536.95 L1233.95 1532.4 L1238.25 1532.4 L1238.25 1522.27 L1244.14 1522.27 Z" fill="#000000" fill-rule="evenodd" fill-opacity="1" /><path clip-path="url(#clip640)" d="M1263.91 1532.4 L1269.76 1532.4 L1269.76 1568.04 L1263.91 1568.04 L1263.91 1532.4 M1263.91 1518.52 L1269.76 1518.52 L1269.76 1525.93 L1263.91 1525.93 L1263.91 1518.52 Z" fill="#000000" fill-rule="evenodd" fill-opacity="1" /><path clip-path="url(#clip640)" d="M1309.77 1539.24 Q1311.97 1535.29 1315.02 1533.41 Q1318.08 1531.54 1322.22 1531.54 Q1327.79 1531.54 1330.81 1535.45 Q1333.83 1539.33 1333.83 1546.53 L1333.83 1568.04 L1327.94 1568.04 L1327.94 1546.72 Q1327.94 1541.59 1326.13 1539.11 Q1324.32 1536.63 1320.59 1536.63 Q1316.04 1536.63 1313.4 1539.65 Q1310.76 1542.68 1310.76 1547.9 L1310.76 1568.04 L1304.87 1568.04 L1304.87 1546.72 Q1304.87 1541.56 1303.05 1539.11 Q1301.24 1536.63 1297.45 1536.63 Q1292.96 1536.63 1290.32 1539.68 Q1287.68 1542.71 1287.68 1547.9 L1287.68 1568.04 L1281.79 1568.04 L1281.79 1532.4 L1287.68 1532.4 L1287.68 1537.93 Q1289.69 1534.66 1292.49 1533.1 Q1295.29 1531.54 1299.14 1531.54 Q1303.02 1531.54 1305.73 1533.51 Q1308.47 1535.48 1309.77 1539.24 Z" fill="#000000" fill-rule="evenodd" fill-opacity="1" /><path clip-path="url(#clip640)" d="M1376.01 1548.76 L1376.01 1551.62 L1349.08 1551.62 Q1349.46 1557.67 1352.71 1560.85 Q1355.99 1564 1361.81 1564 Q1365.18 1564 1368.33 1563.17 Q1371.52 1562.35 1374.64 1560.69 L1374.64 1566.23 Q1371.49 1567.57 1368.18 1568.27 Q1364.87 1568.97 1361.46 1568.97 Q1352.93 1568.97 1347.93 1564 Q1342.97 1559.04 1342.97 1550.57 Q1342.97 1541.82 1347.68 1536.69 Q1352.42 1531.54 1360.44 1531.54 Q1367.63 1531.54 1371.8 1536.18 Q1376.01 1540.8 1376.01 1548.76 M1370.15 1547.04 Q1370.09 1542.23 1367.44 1539.37 Q1364.83 1536.5 1360.5 1536.5 Q1355.6 1536.5 1352.64 1539.27 Q1349.71 1542.04 1349.27 1547.07 L1370.15 1547.04 Z" fill="#000000" fill-rule="evenodd" fill-opacity="1" /><polyline clip-path="url(#clip642)" style="stroke:#000000; stroke-linecap:butt; stroke-linejoin:round; stroke-width:2; stroke-opacity:0.1; fill:none" points="
  257.204,1423.18 2352.76,1423.18 
  "/>
<polyline clip-path="url(#clip642)" style="stroke:#000000; stroke-linecap:butt; stroke-linejoin:round; stroke-width:2; stroke-opacity:0.1; fill:none" points="
  257.204,1163.24 2352.76,1163.24 
  "/>
<polyline clip-path="url(#clip642)" style="stroke:#000000; stroke-linecap:butt; stroke-linejoin:round; stroke-width:2; stroke-opacity:0.1; fill:none" points="
  257.204,903.297 2352.76,903.297 
  "/>
<polyline clip-path="url(#clip642)" style="stroke:#000000; stroke-linecap:butt; stroke-linejoin:round; stroke-width:2; stroke-opacity:0.1; fill:none" points="
  257.204,643.355 2352.76,643.355 
  "/>
<polyline clip-path="url(#clip642)" style="stroke:#000000; stroke-linecap:butt; stroke-linejoin:round; stroke-width:2; stroke-opacity:0.1; fill:none" points="
  257.204,383.414 2352.76,383.414 
  "/>
<polyline clip-path="url(#clip642)" style="stroke:#000000; stroke-linecap:butt; stroke-linejoin:round; stroke-width:2; stroke-opacity:0.1; fill:none" points="
  257.204,123.472 2352.76,123.472 
  "/>
<polyline clip-path="url(#clip640)" style="stroke:#000000; stroke-linecap:butt; stroke-linejoin:round; stroke-width:4; stroke-opacity:1; fill:none" points="
  257.204,1423.18 257.204,123.472 
  "/>
<polyline clip-path="url(#clip640)" style="stroke:#000000; stroke-linecap:butt; stroke-linejoin:round; stroke-width:4; stroke-opacity:1; fill:none" points="
  2352.76,1423.18 2352.76,123.472 
  "/>
<polyline clip-path="url(#clip640)" style="stroke:#000000; stroke-linecap:butt; stroke-linejoin:round; stroke-width:4; stroke-opacity:1; fill:none" points="
  257.204,1423.18 276.102,1423.18 
  "/>
<polyline clip-path="url(#clip640)" style="stroke:#000000; stroke-linecap:butt; stroke-linejoin:round; stroke-width:4; stroke-opacity:1; fill:none" points="
  257.204,1163.24 276.102,1163.24 
  "/>
<polyline clip-path="url(#clip640)" style="stroke:#000000; stroke-linecap:butt; stroke-linejoin:round; stroke-width:4; stroke-opacity:1; fill:none" points="
  257.204,903.297 276.102,903.297 
  "/>
<polyline clip-path="url(#clip640)" style="stroke:#000000; stroke-linecap:butt; stroke-linejoin:round; stroke-width:4; stroke-opacity:1; fill:none" points="
  257.204,643.355 276.102,643.355 
  "/>
<polyline clip-path="url(#clip640)" style="stroke:#000000; stroke-linecap:butt; stroke-linejoin:round; stroke-width:4; stroke-opacity:1; fill:none" points="
  257.204,383.414 276.102,383.414 
  "/>
<polyline clip-path="url(#clip640)" style="stroke:#000000; stroke-linecap:butt; stroke-linejoin:round; stroke-width:4; stroke-opacity:1; fill:none" points="
  257.204,123.472 276.102,123.472 
  "/>
<path clip-path="url(#clip640)" d="M114.26 1423.63 L143.936 1423.63 L143.936 1427.57 L114.26 1427.57 L114.26 1423.63 Z" fill="#000000" fill-rule="evenodd" fill-opacity="1" /><path clip-path="url(#clip640)" d="M154.839 1436.52 L162.477 1436.52 L162.477 1410.16 L154.167 1411.83 L154.167 1407.57 L162.431 1405.9 L167.107 1405.9 L167.107 1436.52 L174.746 1436.52 L174.746 1440.46 L154.839 1440.46 L154.839 1436.52 Z" fill="#000000" fill-rule="evenodd" fill-opacity="1" /><path clip-path="url(#clip640)" d="M184.19 1434.58 L189.075 1434.58 L189.075 1440.46 L184.19 1440.46 L184.19 1434.58 Z" fill="#000000" fill-rule="evenodd" fill-opacity="1" /><path clip-path="url(#clip640)" d="M209.26 1408.98 Q205.649 1408.98 203.82 1412.54 Q202.014 1416.08 202.014 1423.21 Q202.014 1430.32 203.82 1433.89 Q205.649 1437.43 209.26 1437.43 Q212.894 1437.43 214.699 1433.89 Q216.528 1430.32 216.528 1423.21 Q216.528 1416.08 214.699 1412.54 Q212.894 1408.98 209.26 1408.98 M209.26 1405.27 Q215.07 1405.27 218.125 1409.88 Q221.204 1414.46 221.204 1423.21 Q221.204 1431.94 218.125 1436.55 Q215.07 1441.13 209.26 1441.13 Q203.449 1441.13 200.371 1436.55 Q197.315 1431.94 197.315 1423.21 Q197.315 1414.46 200.371 1409.88 Q203.449 1405.27 209.26 1405.27 Z" fill="#000000" fill-rule="evenodd" fill-opacity="1" /><path clip-path="url(#clip640)" d="M115.256 1163.69 L144.931 1163.69 L144.931 1167.62 L115.256 1167.62 L115.256 1163.69 Z" fill="#000000" fill-rule="evenodd" fill-opacity="1" /><path clip-path="url(#clip640)" d="M165.024 1149.04 Q161.413 1149.04 159.584 1152.6 Q157.778 1156.14 157.778 1163.27 Q157.778 1170.38 159.584 1173.94 Q161.413 1177.49 165.024 1177.49 Q168.658 1177.49 170.464 1173.94 Q172.292 1170.38 172.292 1163.27 Q172.292 1156.14 170.464 1152.6 Q168.658 1149.04 165.024 1149.04 M165.024 1145.33 Q170.834 1145.33 173.889 1149.94 Q176.968 1154.52 176.968 1163.27 Q176.968 1172 173.889 1176.61 Q170.834 1181.19 165.024 1181.19 Q159.214 1181.19 156.135 1176.61 Q153.079 1172 153.079 1163.27 Q153.079 1154.52 156.135 1149.94 Q159.214 1145.33 165.024 1145.33 Z" fill="#000000" fill-rule="evenodd" fill-opacity="1" /><path clip-path="url(#clip640)" d="M185.186 1174.64 L190.07 1174.64 L190.07 1180.52 L185.186 1180.52 L185.186 1174.64 Z" fill="#000000" fill-rule="evenodd" fill-opacity="1" /><path clip-path="url(#clip640)" d="M200.301 1145.96 L218.658 1145.96 L218.658 1149.89 L204.584 1149.89 L204.584 1158.37 Q205.602 1158.02 206.621 1157.86 Q207.639 1157.67 208.658 1157.67 Q214.445 1157.67 217.824 1160.84 Q221.204 1164.01 221.204 1169.43 Q221.204 1175.01 217.732 1178.11 Q214.26 1181.19 207.94 1181.19 Q205.764 1181.19 203.496 1180.82 Q201.25 1180.45 198.843 1179.71 L198.843 1175.01 Q200.926 1176.14 203.149 1176.7 Q205.371 1177.25 207.848 1177.25 Q211.852 1177.25 214.19 1175.15 Q216.528 1173.04 216.528 1169.43 Q216.528 1165.82 214.19 1163.71 Q211.852 1161.61 207.848 1161.61 Q205.973 1161.61 204.098 1162.02 Q202.246 1162.44 200.301 1163.32 L200.301 1145.96 Z" fill="#000000" fill-rule="evenodd" fill-opacity="1" /><path clip-path="url(#clip640)" d="M164.028 889.095 Q160.417 889.095 158.589 892.66 Q156.783 896.202 156.783 903.331 Q156.783 910.438 158.589 914.003 Q160.417 917.544 164.028 917.544 Q167.663 917.544 169.468 914.003 Q171.297 910.438 171.297 903.331 Q171.297 896.202 169.468 892.66 Q167.663 889.095 164.028 889.095 M164.028 885.392 Q169.839 885.392 172.894 889.998 Q175.973 894.582 175.973 903.331 Q175.973 912.058 172.894 916.665 Q169.839 921.248 164.028 921.248 Q158.218 921.248 155.14 916.665 Q152.084 912.058 152.084 903.331 Q152.084 894.582 155.14 889.998 Q158.218 885.392 164.028 885.392 Z" fill="#000000" fill-rule="evenodd" fill-opacity="1" /><path clip-path="url(#clip640)" d="M184.19 914.697 L189.075 914.697 L189.075 920.577 L184.19 920.577 L184.19 914.697 Z" fill="#000000" fill-rule="evenodd" fill-opacity="1" /><path clip-path="url(#clip640)" d="M209.26 889.095 Q205.649 889.095 203.82 892.66 Q202.014 896.202 202.014 903.331 Q202.014 910.438 203.82 914.003 Q205.649 917.544 209.26 917.544 Q212.894 917.544 214.699 914.003 Q216.528 910.438 216.528 903.331 Q216.528 896.202 214.699 892.66 Q212.894 889.095 209.26 889.095 M209.26 885.392 Q215.07 885.392 218.125 889.998 Q221.204 894.582 221.204 903.331 Q221.204 912.058 218.125 916.665 Q215.07 921.248 209.26 921.248 Q203.449 921.248 200.371 916.665 Q197.315 912.058 197.315 903.331 Q197.315 894.582 200.371 889.998 Q203.449 885.392 209.26 885.392 Z" fill="#000000" fill-rule="evenodd" fill-opacity="1" /><path clip-path="url(#clip640)" d="M165.024 629.154 Q161.413 629.154 159.584 632.719 Q157.778 636.26 157.778 643.39 Q157.778 650.496 159.584 654.061 Q161.413 657.603 165.024 657.603 Q168.658 657.603 170.464 654.061 Q172.292 650.496 172.292 643.39 Q172.292 636.26 170.464 632.719 Q168.658 629.154 165.024 629.154 M165.024 625.45 Q170.834 625.45 173.889 630.057 Q176.968 634.64 176.968 643.39 Q176.968 652.117 173.889 656.723 Q170.834 661.307 165.024 661.307 Q159.214 661.307 156.135 656.723 Q153.079 652.117 153.079 643.39 Q153.079 634.64 156.135 630.057 Q159.214 625.45 165.024 625.45 Z" fill="#000000" fill-rule="evenodd" fill-opacity="1" /><path clip-path="url(#clip640)" d="M185.186 654.756 L190.07 654.756 L190.07 660.635 L185.186 660.635 L185.186 654.756 Z" fill="#000000" fill-rule="evenodd" fill-opacity="1" /><path clip-path="url(#clip640)" d="M200.301 626.075 L218.658 626.075 L218.658 630.01 L204.584 630.01 L204.584 638.483 Q205.602 638.135 206.621 637.973 Q207.639 637.788 208.658 637.788 Q214.445 637.788 217.824 640.959 Q221.204 644.131 221.204 649.547 Q221.204 655.126 217.732 658.228 Q214.26 661.307 207.94 661.307 Q205.764 661.307 203.496 660.936 Q201.25 660.566 198.843 659.825 L198.843 655.126 Q200.926 656.26 203.149 656.816 Q205.371 657.371 207.848 657.371 Q211.852 657.371 214.19 655.265 Q216.528 653.158 216.528 649.547 Q216.528 645.936 214.19 643.83 Q211.852 641.723 207.848 641.723 Q205.973 641.723 204.098 642.14 Q202.246 642.557 200.301 643.436 L200.301 626.075 Z" fill="#000000" fill-rule="evenodd" fill-opacity="1" /><path clip-path="url(#clip640)" d="M154.839 396.759 L162.477 396.759 L162.477 370.393 L154.167 372.06 L154.167 367.8 L162.431 366.134 L167.107 366.134 L167.107 396.759 L174.746 396.759 L174.746 400.694 L154.839 400.694 L154.839 396.759 Z" fill="#000000" fill-rule="evenodd" fill-opacity="1" /><path clip-path="url(#clip640)" d="M184.19 394.814 L189.075 394.814 L189.075 400.694 L184.19 400.694 L184.19 394.814 Z" fill="#000000" fill-rule="evenodd" fill-opacity="1" /><path clip-path="url(#clip640)" d="M209.26 369.212 Q205.649 369.212 203.82 372.777 Q202.014 376.319 202.014 383.448 Q202.014 390.555 203.82 394.12 Q205.649 397.661 209.26 397.661 Q212.894 397.661 214.699 394.12 Q216.528 390.555 216.528 383.448 Q216.528 376.319 214.699 372.777 Q212.894 369.212 209.26 369.212 M209.26 365.509 Q215.07 365.509 218.125 370.115 Q221.204 374.698 221.204 383.448 Q221.204 392.175 218.125 396.782 Q215.07 401.365 209.26 401.365 Q203.449 401.365 200.371 396.782 Q197.315 392.175 197.315 383.448 Q197.315 374.698 200.371 370.115 Q203.449 365.509 209.26 365.509 Z" fill="#000000" fill-rule="evenodd" fill-opacity="1" /><path clip-path="url(#clip640)" d="M155.834 136.817 L163.473 136.817 L163.473 110.451 L155.163 112.118 L155.163 107.859 L163.427 106.192 L168.102 106.192 L168.102 136.817 L175.741 136.817 L175.741 140.752 L155.834 140.752 L155.834 136.817 Z" fill="#000000" fill-rule="evenodd" fill-opacity="1" /><path clip-path="url(#clip640)" d="M185.186 134.873 L190.07 134.873 L190.07 140.752 L185.186 140.752 L185.186 134.873 Z" fill="#000000" fill-rule="evenodd" fill-opacity="1" /><path clip-path="url(#clip640)" d="M200.301 106.192 L218.658 106.192 L218.658 110.127 L204.584 110.127 L204.584 118.599 Q205.602 118.252 206.621 118.09 Q207.639 117.905 208.658 117.905 Q214.445 117.905 217.824 121.076 Q221.204 124.248 221.204 129.664 Q221.204 135.243 217.732 138.345 Q214.26 141.423 207.94 141.423 Q205.764 141.423 203.496 141.053 Q201.25 140.683 198.843 139.942 L198.843 135.243 Q200.926 136.377 203.149 136.933 Q205.371 137.488 207.848 137.488 Q211.852 137.488 214.19 135.382 Q216.528 133.275 216.528 129.664 Q216.528 126.053 214.19 123.947 Q211.852 121.84 207.848 121.84 Q205.973 121.84 204.098 122.257 Q202.246 122.674 200.301 123.553 L200.301 106.192 Z" fill="#000000" fill-rule="evenodd" fill-opacity="1" /><path clip-path="url(#clip640)" d="M16.4842 913.626 L16.4842 904.046 L48.8219 891.919 L16.4842 879.729 L16.4842 870.148 L64.0042 870.148 L64.0042 876.419 L22.277 876.419 L54.8694 888.673 L54.8694 895.134 L22.277 907.388 L64.0042 907.388 L64.0042 913.626 L16.4842 913.626 Z" fill="#000000" fill-rule="evenodd" fill-opacity="1" /><path clip-path="url(#clip640)" d="M67.3143 842.808 Q73.68 845.29 75.6216 847.646 Q77.5631 850.001 77.5631 853.948 L77.5631 858.626 L72.6615 858.626 L72.6615 855.189 Q72.6615 852.77 71.5157 851.433 Q70.3699 850.096 66.1048 848.473 L63.4312 847.423 L28.3562 861.841 L28.3562 855.635 L56.238 844.495 L28.3562 833.355 L28.3562 827.148 L67.3143 842.808 Z" fill="#000000" fill-rule="evenodd" fill-opacity="1" /><path clip-path="url(#clip640)" d="M16.4842 798.089 L16.4842 788.508 L48.8219 776.382 L16.4842 764.191 L16.4842 754.611 L64.0042 754.611 L64.0042 760.881 L22.277 760.881 L54.8694 773.135 L54.8694 779.596 L22.277 791.85 L64.0042 791.85 L64.0042 798.089 L16.4842 798.089 Z" fill="#000000" fill-rule="evenodd" fill-opacity="1" /><path clip-path="url(#clip640)" d="M32.4621 728.289 Q32.4621 732.999 36.1542 735.736 Q39.8145 738.474 46.212 738.474 Q52.6095 738.474 56.3017 735.768 Q59.9619 733.031 59.9619 728.289 Q59.9619 723.61 56.2698 720.873 Q52.5777 718.135 46.212 718.135 Q39.8781 718.135 36.186 720.873 Q32.4621 723.61 32.4621 728.289 M27.4968 728.289 Q27.4968 720.65 32.4621 716.289 Q37.4273 711.929 46.212 711.929 Q54.9649 711.929 59.9619 716.289 Q64.9272 720.65 64.9272 728.289 Q64.9272 735.959 59.9619 740.32 Q54.9649 744.648 46.212 744.648 Q37.4273 744.648 32.4621 740.32 Q27.4968 735.959 27.4968 728.289 Z" fill="#000000" fill-rule="evenodd" fill-opacity="1" /><path clip-path="url(#clip640)" d="M32.4621 688.407 Q32.4621 693.118 36.1542 695.855 Q39.8145 698.593 46.212 698.593 Q52.6095 698.593 56.3017 695.887 Q59.9619 693.15 59.9619 688.407 Q59.9619 683.729 56.2698 680.991 Q52.5777 678.254 46.212 678.254 Q39.8781 678.254 36.186 680.991 Q32.4621 683.729 32.4621 688.407 M27.4968 688.407 Q27.4968 680.769 32.4621 676.408 Q37.4273 672.048 46.212 672.048 Q54.9649 672.048 59.9619 676.408 Q64.9272 680.769 64.9272 688.407 Q64.9272 696.078 59.9619 700.439 Q54.9649 704.767 46.212 704.767 Q37.4273 704.767 32.4621 700.439 Q27.4968 696.078 27.4968 688.407 Z" fill="#000000" fill-rule="evenodd" fill-opacity="1" /><path clip-path="url(#clip640)" d="M33.7671 638.882 L14.479 638.882 L14.479 633.026 L64.0042 633.026 L64.0042 638.882 L58.657 638.882 Q61.8398 640.728 63.3994 643.561 Q64.9272 646.362 64.9272 650.309 Q64.9272 656.77 59.771 660.844 Q54.6147 664.886 46.212 664.886 Q37.8093 664.886 32.6531 660.844 Q27.4968 656.77 27.4968 650.309 Q27.4968 646.362 29.0564 643.561 Q30.5842 640.728 33.7671 638.882 M46.212 658.839 Q52.6732 658.839 56.3653 656.197 Q60.0256 653.523 60.0256 648.876 Q60.0256 644.229 56.3653 641.556 Q52.6732 638.882 46.212 638.882 Q39.7508 638.882 36.0905 641.556 Q32.3984 644.229 32.3984 648.876 Q32.3984 653.523 36.0905 656.197 Q39.7508 658.839 46.212 658.839 Z" fill="#000000" fill-rule="evenodd" fill-opacity="1" /><path clip-path="url(#clip640)" d="M1148.84 12.096 L1161.03 12.096 L1176.47 53.2532 L1191.98 12.096 L1204.17 12.096 L1204.17 72.576 L1196.19 72.576 L1196.19 19.4686 L1180.6 60.9499 L1172.37 60.9499 L1156.78 19.4686 L1156.78 72.576 L1148.84 72.576 L1148.84 12.096 Z" fill="#000000" fill-rule="evenodd" fill-opacity="1" /><path clip-path="url(#clip640)" d="M1238.97 76.7889 Q1235.81 84.8907 1232.81 87.3618 Q1229.82 89.8329 1224.79 89.8329 L1218.84 89.8329 L1218.84 83.5945 L1223.21 83.5945 Q1226.29 83.5945 1227.99 82.1361 Q1229.69 80.6778 1231.76 75.2496 L1233.1 71.8468 L1214.75 27.2059 L1222.65 27.2059 L1236.82 62.6918 L1251 27.2059 L1258.9 27.2059 L1238.97 76.7889 Z" fill="#000000" fill-rule="evenodd" fill-opacity="1" /><path clip-path="url(#clip640)" d="M1287.5 12.096 L1338.66 12.096 L1338.66 18.9825 L1317.19 18.9825 L1317.19 72.576 L1308.97 72.576 L1308.97 18.9825 L1287.5 18.9825 L1287.5 12.096 Z" fill="#000000" fill-rule="evenodd" fill-opacity="1" /><path clip-path="url(#clip640)" d="M1343.69 27.2059 L1351.14 27.2059 L1351.14 72.576 L1343.69 72.576 L1343.69 27.2059 M1343.69 9.54393 L1351.14 9.54393 L1351.14 18.9825 L1343.69 18.9825 L1343.69 9.54393 Z" fill="#000000" fill-rule="evenodd" fill-opacity="1" /><path clip-path="url(#clip640)" d="M1374.11 14.324 L1374.11 27.2059 L1389.46 27.2059 L1389.46 32.9987 L1374.11 32.9987 L1374.11 57.6282 Q1374.11 63.1779 1375.61 64.7578 Q1377.15 66.3376 1381.81 66.3376 L1389.46 66.3376 L1389.46 72.576 L1381.81 72.576 Q1373.18 72.576 1369.9 69.3758 Q1366.61 66.1351 1366.61 57.6282 L1366.61 32.9987 L1361.15 32.9987 L1361.15 27.2059 L1366.61 27.2059 L1366.61 14.324 L1374.11 14.324 Z" fill="#000000" fill-rule="evenodd" fill-opacity="1" /><path clip-path="url(#clip640)" d="M1399.26 9.54393 L1406.72 9.54393 L1406.72 72.576 L1399.26 72.576 L1399.26 9.54393 Z" fill="#000000" fill-rule="evenodd" fill-opacity="1" /><path clip-path="url(#clip640)" d="M1461.12 48.0275 L1461.12 51.6733 L1426.85 51.6733 Q1427.34 59.3701 1431.47 63.421 Q1435.64 67.4314 1443.06 67.4314 Q1447.35 67.4314 1451.36 66.3781 Q1455.41 65.3249 1459.38 63.2184 L1459.38 70.267 Q1455.37 71.9684 1451.16 72.8596 Q1446.94 73.7508 1442.61 73.7508 Q1431.75 73.7508 1425.39 67.4314 Q1419.07 61.1119 1419.07 50.3365 Q1419.07 39.1965 1425.07 32.6746 Q1431.1 26.1121 1441.31 26.1121 Q1450.47 26.1121 1455.77 32.0264 Q1461.12 37.9003 1461.12 48.0275 M1453.67 45.84 Q1453.59 39.7232 1450.23 36.0774 Q1446.9 32.4315 1441.39 32.4315 Q1435.16 32.4315 1431.39 35.9558 Q1427.66 39.4801 1427.09 45.8805 L1453.67 45.84 Z" fill="#000000" fill-rule="evenodd" fill-opacity="1" /><polyline clip-path="url(#clip642)" style="stroke:#ff0000; stroke-linecap:butt; stroke-linejoin:round; stroke-width:12; stroke-opacity:1; fill:none" points="
  257.204,465.83 299.115,440.012 341.026,418.997 382.937,402.987 424.848,391.942 466.759,385.582 508.67,383.424 550.581,384.814 592.492,388.987 634.403,395.111 
  676.314,402.342 718.225,409.873 760.136,416.968 802.048,423 843.959,427.471 885.87,430.028 927.781,430.476 969.692,428.782 1011.6,425.073 1053.51,419.638 
  1095.42,412.915 1137.34,405.482 1179.25,398.032 1221.16,391.346 1263.07,386.259 1304.98,383.613 1346.89,384.208 1388.8,388.751 1430.71,397.801 1472.62,411.727 
  1514.54,430.671 1556.45,454.532 1598.36,482.963 1640.27,515.388 1682.18,551.038 1724.09,588.995 1766,628.253 1807.91,667.773 1849.82,706.537 1891.73,743.596 
  1933.65,778.105 1975.56,809.341 2017.47,836.715 2059.38,859.764 2101.29,878.145 2143.2,891.616 2185.11,900.017 2227.02,903.257 2268.93,901.303 2310.84,894.175 
  2352.76,881.948 2394.67,864.764 2436.58,842.844 2478.49,816.504 2520.4,786.175 2562.31,752.415 2604.22,715.913 2646.13,677.487 2688.04,638.061 2729.96,598.641 
  2771.87,560.265 2813.78,523.954 2855.69,490.652 2897.6,461.169 2939.51,436.134 2981.42,415.953 3023.33,400.788 3065.24,390.556 3107.15,384.941 3149.07,383.429 
  3190.98,385.344 3232.89,389.903 3274.8,396.272 3316.71,403.609 3358.62,411.115 3400.53,418.072 3442.44,423.872 3484.35,428.042 3526.26,430.254 3568.18,430.34 
  3610.09,428.293 3652,424.269 3693.91,418.583 3735.82,411.698 3777.73,404.21 3819.64,396.832 3861.55,390.356 3903.46,385.621 3945.38,383.466 3987.29,384.679 
  4029.2,389.945 4071.11,399.795 4113.02,414.561 4154.93,434.345 4196.84,459.006 4238.75,488.155 4280.66,521.18 4322.57,557.285 4364.49,595.533 4406.4,634.908 
  4448.31,674.371 4490.22,712.912 4532.13,749.599 4574.04,783.604 4615.95,814.228 4657.86,840.903 4699.77,863.189 4741.69,880.759 4783.6,893.386 4825.51,900.924 
  4867.42,903.292 4909.33,900.465 4951.24,892.472 4993.15,879.401 5035.06,861.402 5076.97,838.714 5118.88,811.669 5160.8,780.721 5202.71,746.448 5244.62,709.562 
  5286.53,670.901 5328.44,631.404 5370.35,592.087 5412.26,553.988 5454.17,518.12 5496.08,485.408 
  "/>
<path clip-path="url(#clip640)" d="
M956.302 1379.86 L1351.55 1379.86 L1351.55 1276.18 L956.302 1276.18  Z
  " fill="#ffffff" fill-rule="evenodd" fill-opacity="1"/>
<polyline clip-path="url(#clip640)" style="stroke:#000000; stroke-linecap:butt; stroke-linejoin:round; stroke-width:4; stroke-opacity:1; fill:none" points="
  956.302,1379.86 1351.55,1379.86 1351.55,1276.18 956.302,1276.18 956.302,1379.86 
  "/>
<polyline clip-path="url(#clip640)" style="stroke:#ff0000; stroke-linecap:butt; stroke-linejoin:round; stroke-width:4; stroke-opacity:1; fill:none" points="
  979.586,1328.02 1119.29,1328.02 
  "/>
<path clip-path="url(#clip640)" d="M1142.57 1310.74 L1149.54 1310.74 L1158.36 1334.25 L1167.23 1310.74 L1174.19 1310.74 L1174.19 1345.3 L1169.63 1345.3 L1169.63 1314.95 L1160.72 1338.65 L1156.02 1338.65 L1147.11 1314.95 L1147.11 1345.3 L1142.57 1345.3 L1142.57 1310.74 Z" fill="#000000" fill-rule="evenodd" fill-opacity="1" /><path clip-path="url(#clip640)" d="M1194.08 1347.7 Q1192.27 1352.33 1190.56 1353.75 Q1188.85 1355.16 1185.98 1355.16 L1182.57 1355.16 L1182.57 1351.59 L1185.07 1351.59 Q1186.83 1351.59 1187.8 1350.76 Q1188.78 1349.93 1189.96 1346.82 L1190.72 1344.88 L1180.24 1319.37 L1184.75 1319.37 L1192.85 1339.65 L1200.95 1319.37 L1205.47 1319.37 L1194.08 1347.7 Z" fill="#000000" fill-rule="evenodd" fill-opacity="1" /><path clip-path="url(#clip640)" d="M1226.42 1309.28 L1230.67 1309.28 L1230.67 1345.3 L1226.42 1345.3 L1226.42 1309.28 Z" fill="#000000" fill-rule="evenodd" fill-opacity="1" /><path clip-path="url(#clip640)" d="M1239.59 1319.37 L1243.85 1319.37 L1243.85 1345.3 L1239.59 1345.3 L1239.59 1319.37 M1239.59 1309.28 L1243.85 1309.28 L1243.85 1314.67 L1239.59 1314.67 L1239.59 1309.28 Z" fill="#000000" fill-rule="evenodd" fill-opacity="1" /><path clip-path="url(#clip640)" d="M1274.31 1329.65 L1274.31 1345.3 L1270.05 1345.3 L1270.05 1329.79 Q1270.05 1326.11 1268.61 1324.28 Q1267.18 1322.45 1264.31 1322.45 Q1260.86 1322.45 1258.87 1324.65 Q1256.88 1326.85 1256.88 1330.64 L1256.88 1345.3 L1252.6 1345.3 L1252.6 1319.37 L1256.88 1319.37 L1256.88 1323.4 Q1258.41 1321.06 1260.47 1319.9 Q1262.55 1318.75 1265.26 1318.75 Q1269.73 1318.75 1272.02 1321.52 Q1274.31 1324.28 1274.31 1329.65 Z" fill="#000000" fill-rule="evenodd" fill-opacity="1" /><path clip-path="url(#clip640)" d="M1304.98 1331.27 L1304.98 1333.35 L1285.4 1333.35 Q1285.67 1337.75 1288.04 1340.06 Q1290.42 1342.36 1294.66 1342.36 Q1297.11 1342.36 1299.4 1341.75 Q1301.72 1341.15 1303.98 1339.95 L1303.98 1343.98 Q1301.69 1344.95 1299.29 1345.46 Q1296.88 1345.97 1294.4 1345.97 Q1288.2 1345.97 1284.56 1342.36 Q1280.95 1338.75 1280.95 1332.59 Q1280.95 1326.22 1284.38 1322.5 Q1287.83 1318.75 1293.66 1318.75 Q1298.89 1318.75 1301.92 1322.13 Q1304.98 1325.48 1304.98 1331.27 M1300.72 1330.02 Q1300.67 1326.52 1298.75 1324.44 Q1296.86 1322.36 1293.71 1322.36 Q1290.14 1322.36 1287.99 1324.37 Q1285.86 1326.38 1285.54 1330.04 L1300.72 1330.02 Z" fill="#000000" fill-rule="evenodd" fill-opacity="1" /></svg>
