<?xml version="1.0" encoding="utf-8"?>
<svg xmlns="http://www.w3.org/2000/svg" xmlns:xlink="http://www.w3.org/1999/xlink" width="600" height="400" viewBox="0 0 2400 1600">
<defs>
  <clipPath id="clip880">
    <rect x="0" y="0" width="2400" height="1600"/>
  </clipPath>
</defs>
<path clip-path="url(#clip880)" d="
M0 1600 L2400 1600 L2400 0 L0 0  Z
  " fill="#ffffff" fill-rule="evenodd" fill-opacity="1"/>
<defs>
  <clipPath id="clip881">
    <rect x="480" y="0" width="1681" height="1600"/>
  </clipPath>
</defs>
<path clip-path="url(#clip880)" d="
M193.288 686.448 L2352.76 686.448 L2352.76 47.2441 L193.288 47.2441  Z
  " fill="#ffffff" fill-rule="evenodd" fill-opacity="1"/>
<defs>
  <clipPath id="clip882">
    <rect x="193" y="47" width="2160" height="640"/>
  </clipPath>
</defs>
<polyline clip-path="url(#clip882)" style="stroke:#000000; stroke-linecap:butt; stroke-linejoin:round; stroke-width:2; stroke-opacity:0.1; fill:none" points="
  254.405,686.448 254.405,47.2441 
  "/>
<polyline clip-path="url(#clip882)" style="stroke:#000000; stroke-linecap:butt; stroke-linejoin:round; stroke-width:2; stroke-opacity:0.1; fill:none" points="
  580.362,686.448 580.362,47.2441 
  "/>
<polyline clip-path="url(#clip882)" style="stroke:#000000; stroke-linecap:butt; stroke-linejoin:round; stroke-width:2; stroke-opacity:0.1; fill:none" points="
  906.32,686.448 906.32,47.2441 
  "/>
<polyline clip-path="url(#clip882)" style="stroke:#000000; stroke-linecap:butt; stroke-linejoin:round; stroke-width:2; stroke-opacity:0.1; fill:none" points="
  1232.28,686.448 1232.28,47.2441 
  "/>
<polyline clip-path="url(#clip882)" style="stroke:#000000; stroke-linecap:butt; stroke-linejoin:round; stroke-width:2; stroke-opacity:0.1; fill:none" points="
  1558.23,686.448 1558.23,47.2441 
  "/>
<polyline clip-path="url(#clip882)" style="stroke:#000000; stroke-linecap:butt; stroke-linejoin:round; stroke-width:2; stroke-opacity:0.1; fill:none" points="
  1884.19,686.448 1884.19,47.2441 
  "/>
<polyline clip-path="url(#clip882)" style="stroke:#000000; stroke-linecap:butt; stroke-linejoin:round; stroke-width:2; stroke-opacity:0.1; fill:none" points="
  2210.15,686.448 2210.15,47.2441 
  "/>
<polyline clip-path="url(#clip880)" style="stroke:#000000; stroke-linecap:butt; stroke-linejoin:round; stroke-width:4; stroke-opacity:1; fill:none" points="
  193.288,686.448 2352.76,686.448 
  "/>
<polyline clip-path="url(#clip880)" style="stroke:#000000; stroke-linecap:butt; stroke-linejoin:round; stroke-width:4; stroke-opacity:1; fill:none" points="
  254.405,686.448 254.405,667.55 
  "/>
<polyline clip-path="url(#clip880)" style="stroke:#000000; stroke-linecap:butt; stroke-linejoin:round; stroke-width:4; stroke-opacity:1; fill:none" points="
  580.362,686.448 580.362,667.55 
  "/>
<polyline clip-path="url(#clip880)" style="stroke:#000000; stroke-linecap:butt; stroke-linejoin:round; stroke-width:4; stroke-opacity:1; fill:none" points="
  906.32,686.448 906.32,667.55 
  "/>
<polyline clip-path="url(#clip880)" style="stroke:#000000; stroke-linecap:butt; stroke-linejoin:round; stroke-width:4; stroke-opacity:1; fill:none" points="
  1232.28,686.448 1232.28,667.55 
  "/>
<polyline clip-path="url(#clip880)" style="stroke:#000000; stroke-linecap:butt; stroke-linejoin:round; stroke-width:4; stroke-opacity:1; fill:none" points="
  1558.23,686.448 1558.23,667.55 
  "/>
<polyline clip-path="url(#clip880)" style="stroke:#000000; stroke-linecap:butt; stroke-linejoin:round; stroke-width:4; stroke-opacity:1; fill:none" points="
  1884.19,686.448 1884.19,667.55 
  "/>
<polyline clip-path="url(#clip880)" style="stroke:#000000; stroke-linecap:butt; stroke-linejoin:round; stroke-width:4; stroke-opacity:1; fill:none" points="
  2210.15,686.448 2210.15,667.55 
  "/>
<path clip-path="url(#clip880)" d="M254.405 717.367 Q250.794 717.367 248.965 720.931 Q247.16 724.473 247.16 731.603 Q247.16 738.709 248.965 742.274 Q250.794 745.815 254.405 745.815 Q258.039 745.815 259.845 742.274 Q261.673 738.709 261.673 731.603 Q261.673 724.473 259.845 720.931 Q258.039 717.367 254.405 717.367 M254.405 713.663 Q260.215 713.663 263.271 718.269 Q266.349 722.853 266.349 731.603 Q266.349 740.329 263.271 744.936 Q260.215 749.519 254.405 749.519 Q248.595 749.519 245.516 744.936 Q242.46 740.329 242.46 731.603 Q242.46 722.853 245.516 718.269 Q248.595 713.663 254.405 713.663 Z" fill="#000000" fill-rule="evenodd" fill-opacity="1" /><path clip-path="url(#clip880)" d="M575.015 744.913 L591.334 744.913 L591.334 748.848 L569.39 748.848 L569.39 744.913 Q572.052 742.158 576.635 737.528 Q581.242 732.876 582.422 731.533 Q584.668 729.01 585.547 727.274 Q586.45 725.515 586.45 723.825 Q586.45 721.07 584.506 719.334 Q582.585 717.598 579.483 717.598 Q577.284 717.598 574.83 718.362 Q572.399 719.126 569.622 720.677 L569.622 715.955 Q572.446 714.82 574.899 714.242 Q577.353 713.663 579.39 713.663 Q584.76 713.663 587.955 716.348 Q591.149 719.033 591.149 723.524 Q591.149 725.654 590.339 727.575 Q589.552 729.473 587.446 732.066 Q586.867 732.737 583.765 735.954 Q580.663 739.149 575.015 744.913 Z" fill="#000000" fill-rule="evenodd" fill-opacity="1" /><path clip-path="url(#clip880)" d="M909.329 718.362 L897.524 736.811 L909.329 736.811 L909.329 718.362 M908.102 714.288 L913.982 714.288 L913.982 736.811 L918.912 736.811 L918.912 740.7 L913.982 740.7 L913.982 748.848 L909.329 748.848 L909.329 740.7 L893.727 740.7 L893.727 736.186 L908.102 714.288 Z" fill="#000000" fill-rule="evenodd" fill-opacity="1" /><path clip-path="url(#clip880)" d="M1232.68 729.704 Q1229.53 729.704 1227.68 731.857 Q1225.85 734.01 1225.85 737.76 Q1225.85 741.487 1227.68 743.663 Q1229.53 745.815 1232.68 745.815 Q1235.83 745.815 1237.66 743.663 Q1239.51 741.487 1239.51 737.76 Q1239.51 734.01 1237.66 731.857 Q1235.83 729.704 1232.68 729.704 M1241.96 715.052 L1241.96 719.311 Q1240.21 718.478 1238.4 718.038 Q1236.62 717.598 1234.86 717.598 Q1230.23 717.598 1227.77 720.723 Q1225.34 723.848 1225 730.167 Q1226.36 728.154 1228.42 727.089 Q1230.48 726.001 1232.96 726.001 Q1238.17 726.001 1241.18 729.172 Q1244.21 732.32 1244.21 737.76 Q1244.21 743.084 1241.06 746.302 Q1237.91 749.519 1232.68 749.519 Q1226.69 749.519 1223.52 744.936 Q1220.34 740.329 1220.34 731.603 Q1220.34 723.408 1224.23 718.547 Q1228.12 713.663 1234.67 713.663 Q1236.43 713.663 1238.21 714.01 Q1240.02 714.357 1241.96 715.052 Z" fill="#000000" fill-rule="evenodd" fill-opacity="1" /><path clip-path="url(#clip880)" d="M1558.23 732.436 Q1554.9 732.436 1552.98 734.218 Q1551.08 736.001 1551.08 739.126 Q1551.08 742.251 1552.98 744.033 Q1554.9 745.815 1558.23 745.815 Q1561.57 745.815 1563.49 744.033 Q1565.41 742.228 1565.41 739.126 Q1565.41 736.001 1563.49 734.218 Q1561.59 732.436 1558.23 732.436 M1553.56 730.445 Q1550.55 729.704 1548.86 727.644 Q1547.19 725.584 1547.19 722.621 Q1547.19 718.478 1550.13 716.07 Q1553.1 713.663 1558.23 713.663 Q1563.4 713.663 1566.34 716.07 Q1569.28 718.478 1569.28 722.621 Q1569.28 725.584 1567.59 727.644 Q1565.92 729.704 1562.93 730.445 Q1566.31 731.232 1568.19 733.524 Q1570.09 735.816 1570.09 739.126 Q1570.09 744.149 1567.01 746.834 Q1563.95 749.519 1558.23 749.519 Q1552.52 749.519 1549.44 746.834 Q1546.38 744.149 1546.38 739.126 Q1546.38 735.816 1548.28 733.524 Q1550.18 731.232 1553.56 730.445 M1551.85 723.061 Q1551.85 725.746 1553.51 727.251 Q1555.2 728.755 1558.23 728.755 Q1561.24 728.755 1562.93 727.251 Q1564.65 725.746 1564.65 723.061 Q1564.65 720.376 1562.93 718.871 Q1561.24 717.367 1558.23 717.367 Q1555.2 717.367 1553.51 718.871 Q1551.85 720.376 1551.85 723.061 Z" fill="#000000" fill-rule="evenodd" fill-opacity="1" /><path clip-path="url(#clip880)" d="M1858.88 744.913 L1866.52 744.913 L1866.52 718.547 L1858.21 720.214 L1858.21 715.955 L1866.47 714.288 L1871.15 714.288 L1871.15 744.913 L1878.79 744.913 L1878.79 748.848 L1858.88 748.848 L1858.88 744.913 Z" fill="#000000" fill-rule="evenodd" fill-opacity="1" /><path clip-path="url(#clip880)" d="M1898.23 717.367 Q1894.62 717.367 1892.79 720.931 Q1890.99 724.473 1890.99 731.603 Q1890.99 738.709 1892.79 742.274 Q1894.62 745.815 1898.23 745.815 Q1901.87 745.815 1903.67 742.274 Q1905.5 738.709 1905.5 731.603 Q1905.5 724.473 1903.67 720.931 Q1901.87 717.367 1898.23 717.367 M1898.23 713.663 Q1904.04 713.663 1907.1 718.269 Q1910.18 722.853 1910.18 731.603 Q1910.18 740.329 1907.1 744.936 Q1904.04 749.519 1898.23 749.519 Q1892.42 749.519 1889.34 744.936 Q1886.29 740.329 1886.29 731.603 Q1886.29 722.853 1889.34 718.269 Q1892.42 713.663 1898.23 713.663 Z" fill="#000000" fill-rule="evenodd" fill-opacity="1" /><path clip-path="url(#clip880)" d="M2185.64 744.913 L2193.27 744.913 L2193.27 718.547 L2184.96 720.214 L2184.96 715.955 L2193.23 714.288 L2197.9 714.288 L2197.9 744.913 L2205.54 744.913 L2205.54 748.848 L2185.64 748.848 L2185.64 744.913 Z" fill="#000000" fill-rule="evenodd" fill-opacity="1" /><path clip-path="url(#clip880)" d="M2219.02 744.913 L2235.33 744.913 L2235.33 748.848 L2213.39 748.848 L2213.39 744.913 Q2216.05 742.158 2220.64 737.528 Q2225.24 732.876 2226.42 731.533 Q2228.67 729.01 2229.55 727.274 Q2230.45 725.515 2230.45 723.825 Q2230.45 721.07 2228.51 719.334 Q2226.58 717.598 2223.48 717.598 Q2221.28 717.598 2218.83 718.362 Q2216.4 719.126 2213.62 720.677 L2213.62 715.955 Q2216.45 714.82 2218.9 714.242 Q2221.35 713.663 2223.39 713.663 Q2228.76 713.663 2231.95 716.348 Q2235.15 719.033 2235.15 723.524 Q2235.15 725.654 2234.34 727.575 Q2233.55 729.473 2231.45 732.066 Q2230.87 732.737 2227.77 735.954 Q2224.66 739.149 2219.02 744.913 Z" fill="#000000" fill-rule="evenodd" fill-opacity="1" /><polyline clip-path="url(#clip882)" style="stroke:#000000; stroke-linecap:butt; stroke-linejoin:round; stroke-width:2; stroke-opacity:0.1; fill:none" points="
  193.288,668.363 2352.76,668.363 
  "/>
<polyline clip-path="url(#clip882)" style="stroke:#000000; stroke-linecap:butt; stroke-linejoin:round; stroke-width:2; stroke-opacity:0.1; fill:none" points="
  193.288,517.603 2352.76,517.603 
  "/>
<polyline clip-path="url(#clip882)" style="stroke:#000000; stroke-linecap:butt; stroke-linejoin:round; stroke-width:2; stroke-opacity:0.1; fill:none" points="
  193.288,366.843 2352.76,366.843 
  "/>
<polyline clip-path="url(#clip882)" style="stroke:#000000; stroke-linecap:butt; stroke-linejoin:round; stroke-width:2; stroke-opacity:0.1; fill:none" points="
  193.288,216.083 2352.76,216.083 
  "/>
<polyline clip-path="url(#clip882)" style="stroke:#000000; stroke-linecap:butt; stroke-linejoin:round; stroke-width:2; stroke-opacity:0.1; fill:none" points="
  193.288,65.3233 2352.76,65.3233 
  "/>
<polyline clip-path="url(#clip880)" style="stroke:#000000; stroke-linecap:butt; stroke-linejoin:round; stroke-width:4; stroke-opacity:1; fill:none" points="
  193.288,686.448 193.288,47.2441 
  "/>
<polyline clip-path="url(#clip880)" style="stroke:#000000; stroke-linecap:butt; stroke-linejoin:round; stroke-width:4; stroke-opacity:1; fill:none" points="
  193.288,668.363 212.185,668.363 
  "/>
<polyline clip-path="url(#clip880)" style="stroke:#000000; stroke-linecap:butt; stroke-linejoin:round; stroke-width:4; stroke-opacity:1; fill:none" points="
  193.288,517.603 212.185,517.603 
  "/>
<polyline clip-path="url(#clip880)" style="stroke:#000000; stroke-linecap:butt; stroke-linejoin:round; stroke-width:4; stroke-opacity:1; fill:none" points="
  193.288,366.843 212.185,366.843 
  "/>
<polyline clip-path="url(#clip880)" style="stroke:#000000; stroke-linecap:butt; stroke-linejoin:round; stroke-width:4; stroke-opacity:1; fill:none" points="
  193.288,216.083 212.185,216.083 
  "/>
<polyline clip-path="url(#clip880)" style="stroke:#000000; stroke-linecap:butt; stroke-linejoin:round; stroke-width:4; stroke-opacity:1; fill:none" points="
  193.288,65.3233 212.185,65.3233 
  "/>
<path clip-path="url(#clip880)" d="M69.9504 654.162 Q66.3393 654.162 64.5106 657.727 Q62.705 661.268 62.705 668.398 Q62.705 675.504 64.5106 679.069 Q66.3393 682.611 69.9504 682.611 Q73.5846 682.611 75.3901 679.069 Q77.2188 675.504 77.2188 668.398 Q77.2188 661.268 75.3901 657.727 Q73.5846 654.162 69.9504 654.162 M69.9504 650.458 Q75.7605 650.458 78.8161 655.065 Q81.8947 659.648 81.8947 668.398 Q81.8947 677.125 78.8161 681.731 Q75.7605 686.314 69.9504 686.314 Q64.1402 686.314 61.0615 681.731 Q58.006 677.125 58.006 668.398 Q58.006 659.648 61.0615 655.065 Q64.1402 650.458 69.9504 650.458 Z" fill="#000000" fill-rule="evenodd" fill-opacity="1" /><path clip-path="url(#clip880)" d="M90.1123 679.764 L94.9965 679.764 L94.9965 685.643 L90.1123 685.643 L90.1123 679.764 Z" fill="#000000" fill-rule="evenodd" fill-opacity="1" /><path clip-path="url(#clip880)" d="M115.182 654.162 Q111.571 654.162 109.742 657.727 Q107.936 661.268 107.936 668.398 Q107.936 675.504 109.742 679.069 Q111.571 682.611 115.182 682.611 Q118.816 682.611 120.621 679.069 Q122.45 675.504 122.45 668.398 Q122.45 661.268 120.621 657.727 Q118.816 654.162 115.182 654.162 M115.182 650.458 Q120.992 650.458 124.047 655.065 Q127.126 659.648 127.126 668.398 Q127.126 677.125 124.047 681.731 Q120.992 686.314 115.182 686.314 Q109.371 686.314 106.293 681.731 Q103.237 677.125 103.237 668.398 Q103.237 659.648 106.293 655.065 Q109.371 650.458 115.182 650.458 Z" fill="#000000" fill-rule="evenodd" fill-opacity="1" /><path clip-path="url(#clip880)" d="M145.343 654.162 Q141.732 654.162 139.904 657.727 Q138.098 661.268 138.098 668.398 Q138.098 675.504 139.904 679.069 Q141.732 682.611 145.343 682.611 Q148.978 682.611 150.783 679.069 Q152.612 675.504 152.612 668.398 Q152.612 661.268 150.783 657.727 Q148.978 654.162 145.343 654.162 M145.343 650.458 Q151.154 650.458 154.209 655.065 Q157.288 659.648 157.288 668.398 Q157.288 677.125 154.209 681.731 Q151.154 686.314 145.343 686.314 Q139.533 686.314 136.455 681.731 Q133.399 677.125 133.399 668.398 Q133.399 659.648 136.455 655.065 Q139.533 650.458 145.343 650.458 Z" fill="#000000" fill-rule="evenodd" fill-opacity="1" /><path clip-path="url(#clip880)" d="M70.9457 503.402 Q67.3346 503.402 65.5059 506.967 Q63.7004 510.508 63.7004 517.638 Q63.7004 524.744 65.5059 528.309 Q67.3346 531.851 70.9457 531.851 Q74.58 531.851 76.3855 528.309 Q78.2142 524.744 78.2142 517.638 Q78.2142 510.508 76.3855 506.967 Q74.58 503.402 70.9457 503.402 M70.9457 499.698 Q76.7559 499.698 79.8114 504.305 Q82.8901 508.888 82.8901 517.638 Q82.8901 526.365 79.8114 530.971 Q76.7559 535.554 70.9457 535.554 Q65.1356 535.554 62.0569 530.971 Q59.0013 526.365 59.0013 517.638 Q59.0013 508.888 62.0569 504.305 Q65.1356 499.698 70.9457 499.698 Z" fill="#000000" fill-rule="evenodd" fill-opacity="1" /><path clip-path="url(#clip880)" d="M91.1077 529.004 L95.9919 529.004 L95.9919 534.883 L91.1077 534.883 L91.1077 529.004 Z" fill="#000000" fill-rule="evenodd" fill-opacity="1" /><path clip-path="url(#clip880)" d="M110.205 530.948 L126.524 530.948 L126.524 534.883 L104.58 534.883 L104.58 530.948 Q107.242 528.193 111.825 523.564 Q116.432 518.911 117.612 517.568 Q119.857 515.045 120.737 513.309 Q121.64 511.55 121.64 509.86 Q121.64 507.106 119.695 505.369 Q117.774 503.633 114.672 503.633 Q112.473 503.633 110.02 504.397 Q107.589 505.161 104.811 506.712 L104.811 501.99 Q107.635 500.856 110.089 500.277 Q112.543 499.698 114.58 499.698 Q119.95 499.698 123.145 502.383 Q126.339 505.069 126.339 509.559 Q126.339 511.689 125.529 513.61 Q124.742 515.508 122.635 518.101 Q122.057 518.772 118.955 521.99 Q115.853 525.184 110.205 530.948 Z" fill="#000000" fill-rule="evenodd" fill-opacity="1" /><path clip-path="url(#clip880)" d="M136.385 500.323 L154.742 500.323 L154.742 504.258 L140.668 504.258 L140.668 512.731 Q141.686 512.383 142.705 512.221 Q143.723 512.036 144.742 512.036 Q150.529 512.036 153.908 515.207 Q157.288 518.379 157.288 523.795 Q157.288 529.374 153.816 532.476 Q150.343 535.554 144.024 535.554 Q141.848 535.554 139.58 535.184 Q137.334 534.814 134.927 534.073 L134.927 529.374 Q137.01 530.508 139.232 531.064 Q141.455 531.619 143.931 531.619 Q147.936 531.619 150.274 529.513 Q152.612 527.406 152.612 523.795 Q152.612 520.184 150.274 518.078 Q147.936 515.971 143.931 515.971 Q142.056 515.971 140.181 516.388 Q138.33 516.805 136.385 517.684 L136.385 500.323 Z" fill="#000000" fill-rule="evenodd" fill-opacity="1" /><path clip-path="url(#clip880)" d="M69.9504 352.642 Q66.3393 352.642 64.5106 356.207 Q62.705 359.748 62.705 366.878 Q62.705 373.984 64.5106 377.549 Q66.3393 381.091 69.9504 381.091 Q73.5846 381.091 75.3901 377.549 Q77.2188 373.984 77.2188 366.878 Q77.2188 359.748 75.3901 356.207 Q73.5846 352.642 69.9504 352.642 M69.9504 348.938 Q75.7605 348.938 78.8161 353.545 Q81.8947 358.128 81.8947 366.878 Q81.8947 375.605 78.8161 380.211 Q75.7605 384.795 69.9504 384.795 Q64.1402 384.795 61.0615 380.211 Q58.006 375.605 58.006 366.878 Q58.006 358.128 61.0615 353.545 Q64.1402 348.938 69.9504 348.938 Z" fill="#000000" fill-rule="evenodd" fill-opacity="1" /><path clip-path="url(#clip880)" d="M90.1123 378.244 L94.9965 378.244 L94.9965 384.123 L90.1123 384.123 L90.1123 378.244 Z" fill="#000000" fill-rule="evenodd" fill-opacity="1" /><path clip-path="url(#clip880)" d="M105.228 349.563 L123.584 349.563 L123.584 353.498 L109.51 353.498 L109.51 361.971 Q110.529 361.623 111.547 361.461 Q112.566 361.276 113.584 361.276 Q119.371 361.276 122.751 364.447 Q126.131 367.619 126.131 373.035 Q126.131 378.614 122.658 381.716 Q119.186 384.795 112.867 384.795 Q110.691 384.795 108.422 384.424 Q106.177 384.054 103.77 383.313 L103.77 378.614 Q105.853 379.748 108.075 380.304 Q110.297 380.859 112.774 380.859 Q116.779 380.859 119.117 378.753 Q121.455 376.646 121.455 373.035 Q121.455 369.424 119.117 367.318 Q116.779 365.211 112.774 365.211 Q110.899 365.211 109.024 365.628 Q107.172 366.045 105.228 366.924 L105.228 349.563 Z" fill="#000000" fill-rule="evenodd" fill-opacity="1" /><path clip-path="url(#clip880)" d="M145.343 352.642 Q141.732 352.642 139.904 356.207 Q138.098 359.748 138.098 366.878 Q138.098 373.984 139.904 377.549 Q141.732 381.091 145.343 381.091 Q148.978 381.091 150.783 377.549 Q152.612 373.984 152.612 366.878 Q152.612 359.748 150.783 356.207 Q148.978 352.642 145.343 352.642 M145.343 348.938 Q151.154 348.938 154.209 353.545 Q157.288 358.128 157.288 366.878 Q157.288 375.605 154.209 380.211 Q151.154 384.795 145.343 384.795 Q139.533 384.795 136.455 380.211 Q133.399 375.605 133.399 366.878 Q133.399 358.128 136.455 353.545 Q139.533 348.938 145.343 348.938 Z" fill="#000000" fill-rule="evenodd" fill-opacity="1" /><path clip-path="url(#clip880)" d="M70.9457 201.882 Q67.3346 201.882 65.5059 205.447 Q63.7004 208.988 63.7004 216.118 Q63.7004 223.224 65.5059 226.789 Q67.3346 230.331 70.9457 230.331 Q74.58 230.331 76.3855 226.789 Q78.2142 223.224 78.2142 216.118 Q78.2142 208.988 76.3855 205.447 Q74.58 201.882 70.9457 201.882 M70.9457 198.178 Q76.7559 198.178 79.8114 202.785 Q82.8901 207.368 82.8901 216.118 Q82.8901 224.845 79.8114 229.451 Q76.7559 234.035 70.9457 234.035 Q65.1356 234.035 62.0569 229.451 Q59.0013 224.845 59.0013 216.118 Q59.0013 207.368 62.0569 202.785 Q65.1356 198.178 70.9457 198.178 Z" fill="#000000" fill-rule="evenodd" fill-opacity="1" /><path clip-path="url(#clip880)" d="M91.1077 227.484 L95.9919 227.484 L95.9919 233.363 L91.1077 233.363 L91.1077 227.484 Z" fill="#000000" fill-rule="evenodd" fill-opacity="1" /><path clip-path="url(#clip880)" d="M104.996 198.803 L127.219 198.803 L127.219 200.794 L114.672 233.363 L109.788 233.363 L121.594 202.738 L104.996 202.738 L104.996 198.803 Z" fill="#000000" fill-rule="evenodd" fill-opacity="1" /><path clip-path="url(#clip880)" d="M136.385 198.803 L154.742 198.803 L154.742 202.738 L140.668 202.738 L140.668 211.211 Q141.686 210.863 142.705 210.701 Q143.723 210.516 144.742 210.516 Q150.529 210.516 153.908 213.687 Q157.288 216.859 157.288 222.275 Q157.288 227.854 153.816 230.956 Q150.343 234.035 144.024 234.035 Q141.848 234.035 139.58 233.664 Q137.334 233.294 134.927 232.553 L134.927 227.854 Q137.01 228.988 139.232 229.544 Q141.455 230.099 143.931 230.099 Q147.936 230.099 150.274 227.993 Q152.612 225.886 152.612 222.275 Q152.612 218.664 150.274 216.558 Q147.936 214.451 143.931 214.451 Q142.056 214.451 140.181 214.868 Q138.33 215.285 136.385 216.164 L136.385 198.803 Z" fill="#000000" fill-rule="evenodd" fill-opacity="1" /><path clip-path="url(#clip880)" d="M60.7606 78.6682 L68.3994 78.6682 L68.3994 52.3026 L60.0893 53.9692 L60.0893 49.71 L68.3531 48.0433 L73.029 48.0433 L73.029 78.6682 L80.6679 78.6682 L80.6679 82.6033 L60.7606 82.6033 L60.7606 78.6682 Z" fill="#000000" fill-rule="evenodd" fill-opacity="1" /><path clip-path="url(#clip880)" d="M90.1123 76.7238 L94.9965 76.7238 L94.9965 82.6033 L90.1123 82.6033 L90.1123 76.7238 Z" fill="#000000" fill-rule="evenodd" fill-opacity="1" /><path clip-path="url(#clip880)" d="M115.182 51.122 Q111.571 51.122 109.742 54.6868 Q107.936 58.2285 107.936 65.3581 Q107.936 72.4645 109.742 76.0293 Q111.571 79.571 115.182 79.571 Q118.816 79.571 120.621 76.0293 Q122.45 72.4645 122.45 65.3581 Q122.45 58.2285 120.621 54.6868 Q118.816 51.122 115.182 51.122 M115.182 47.4184 Q120.992 47.4184 124.047 52.0248 Q127.126 56.6081 127.126 65.3581 Q127.126 74.0849 124.047 78.6913 Q120.992 83.2746 115.182 83.2746 Q109.371 83.2746 106.293 78.6913 Q103.237 74.0849 103.237 65.3581 Q103.237 56.6081 106.293 52.0248 Q109.371 47.4184 115.182 47.4184 Z" fill="#000000" fill-rule="evenodd" fill-opacity="1" /><path clip-path="url(#clip880)" d="M145.343 51.122 Q141.732 51.122 139.904 54.6868 Q138.098 58.2285 138.098 65.3581 Q138.098 72.4645 139.904 76.0293 Q141.732 79.571 145.343 79.571 Q148.978 79.571 150.783 76.0293 Q152.612 72.4645 152.612 65.3581 Q152.612 58.2285 150.783 54.6868 Q148.978 51.122 145.343 51.122 M145.343 47.4184 Q151.154 47.4184 154.209 52.0248 Q157.288 56.6081 157.288 65.3581 Q157.288 74.0849 154.209 78.6913 Q151.154 83.2746 145.343 83.2746 Q139.533 83.2746 136.455 78.6913 Q133.399 74.0849 133.399 65.3581 Q133.399 56.6081 136.455 52.0248 Q139.533 47.4184 145.343 47.4184 Z" fill="#000000" fill-rule="evenodd" fill-opacity="1" /><polyline clip-path="url(#clip882)" style="stroke:#009af9; stroke-linecap:butt; stroke-linejoin:round; stroke-width:4; stroke-opacity:1; fill:none" points="
  254.405,160.923 270.703,130.975 287.001,106.598 303.298,88.0277 319.596,75.2156 335.894,67.8389 352.192,65.3348 368.49,66.948 384.788,71.7883 401.086,78.8916 
  417.384,87.2796 433.681,96.0144 449.979,104.245 466.277,111.242 482.575,116.427 498.873,119.394 515.171,119.914 531.469,117.948 547.767,113.646 564.064,107.341 
  580.362,99.5438 596.66,90.9217 612.958,82.2796 629.256,74.5243 645.554,68.6235 661.852,65.5543 678.15,66.245 694.447,71.5145 710.745,82.012 727.043,98.1649 
  743.341,120.139 759.639,147.817 775.937,180.796 792.235,218.407 808.533,259.759 824.83,303.788 841.128,349.325 857.426,395.167 873.724,440.131 890.022,483.118 
  906.32,523.147 922.618,559.379 938.916,591.131 955.213,617.867 971.511,639.189 987.809,654.814 1004.11,664.559 1020.4,668.317 1036.7,666.05 1053,657.782 
  1069.3,643.6 1085.6,623.667 1101.89,598.241 1118.19,567.687 1134.49,532.507 1150.79,493.347 1167.09,451.007 1183.38,406.434 1199.68,360.702 1215.98,314.977 
  1232.28,270.463 1248.58,228.344 1264.87,189.715 1281.17,155.516 1297.47,126.477 1313.77,103.067 1330.06,85.4762 1346.36,73.6076 1362.66,67.0955 1378.96,65.341 
  1395.26,67.5619 1411.55,72.8512 1427.85,80.2385 1444.15,88.7486 1460.45,97.4551 1476.75,105.525 1493.04,112.253 1509.34,117.09 1525.64,119.656 1541.94,119.755 
  1558.23,117.381 1574.53,112.714 1590.83,106.118 1607.13,98.1313 1623.43,89.4464 1639.72,80.8877 1656.02,73.3756 1672.32,67.8832 1688.62,65.3835 1704.92,66.7907 
  1721.21,72.8993 1737.51,84.3246 1753.81,101.452 1770.11,124.402 1786.4,153.007 1802.7,186.818 1819,225.126 1835.3,267.006 1851.6,311.372 1867.89,357.045 
  1884.19,402.82 1900.49,447.526 1916.79,490.08 1933.09,529.525 1949.38,565.048 1965.68,595.99 1981.98,621.84 1998.28,642.22 2014.58,656.868 2030.87,665.611 
  2047.17,668.357 2063.47,665.078 2079.77,655.807 2096.06,640.645 2112.36,619.768 2128.66,593.45 2144.96,562.08 2161.26,526.181 2177.55,486.426 2193.85,443.64 
  2210.15,398.794 2226.45,352.981 2242.75,307.375 2259.04,263.182 2275.34,221.576 2291.64,183.632 
  "/>
<path clip-path="url(#clip880)" d="
M1988.4 172.231 L2280.77 172.231 L2280.77 68.5509 L1988.4 68.5509  Z
  " fill="#ffffff" fill-rule="evenodd" fill-opacity="1"/>
<polyline clip-path="url(#clip880)" style="stroke:#000000; stroke-linecap:butt; stroke-linejoin:round; stroke-width:4; stroke-opacity:1; fill:none" points="
  1988.4,172.231 2280.77,172.231 2280.77,68.5509 1988.4,68.5509 1988.4,172.231 
  "/>
<polyline clip-path="url(#clip880)" style="stroke:#009af9; stroke-linecap:butt; stroke-linejoin:round; stroke-width:4; stroke-opacity:1; fill:none" points="
  2012.4,120.391 2156.36,120.391 
  "/>
<path clip-path="url(#clip880)" d="M2194.2 140.078 Q2192.39 144.708 2190.68 146.12 Q2188.97 147.532 2186.1 147.532 L2182.69 147.532 L2182.69 143.967 L2185.19 143.967 Q2186.95 143.967 2187.92 143.134 Q2188.9 142.3 2190.08 139.199 L2190.84 137.254 L2180.36 111.745 L2184.87 111.745 L2192.97 132.023 L2201.07 111.745 L2205.59 111.745 L2194.2 140.078 Z" fill="#000000" fill-rule="evenodd" fill-opacity="1" /><path clip-path="url(#clip880)" d="M2212.88 133.736 L2220.52 133.736 L2220.52 107.37 L2212.21 109.037 L2212.21 104.778 L2220.47 103.111 L2225.15 103.111 L2225.15 133.736 L2232.79 133.736 L2232.79 137.671 L2212.88 137.671 L2212.88 133.736 Z" fill="#000000" fill-rule="evenodd" fill-opacity="1" /><path clip-path="url(#clip880)" d="
M193.288 1486.45 L2352.76 1486.45 L2352.76 847.244 L193.288 847.244  Z
  " fill="#ffffff" fill-rule="evenodd" fill-opacity="1"/>
<defs>
  <clipPath id="clip883">
    <rect x="193" y="847" width="2160" height="640"/>
  </clipPath>
</defs>
<polyline clip-path="url(#clip883)" style="stroke:#000000; stroke-linecap:butt; stroke-linejoin:round; stroke-width:2; stroke-opacity:0.1; fill:none" points="
  254.405,1486.45 254.405,847.244 
  "/>
<polyline clip-path="url(#clip883)" style="stroke:#000000; stroke-linecap:butt; stroke-linejoin:round; stroke-width:2; stroke-opacity:0.1; fill:none" points="
  580.362,1486.45 580.362,847.244 
  "/>
<polyline clip-path="url(#clip883)" style="stroke:#000000; stroke-linecap:butt; stroke-linejoin:round; stroke-width:2; stroke-opacity:0.1; fill:none" points="
  906.32,1486.45 906.32,847.244 
  "/>
<polyline clip-path="url(#clip883)" style="stroke:#000000; stroke-linecap:butt; stroke-linejoin:round; stroke-width:2; stroke-opacity:0.1; fill:none" points="
  1232.28,1486.45 1232.28,847.244 
  "/>
<polyline clip-path="url(#clip883)" style="stroke:#000000; stroke-linecap:butt; stroke-linejoin:round; stroke-width:2; stroke-opacity:0.1; fill:none" points="
  1558.23,1486.45 1558.23,847.244 
  "/>
<polyline clip-path="url(#clip883)" style="stroke:#000000; stroke-linecap:butt; stroke-linejoin:round; stroke-width:2; stroke-opacity:0.1; fill:none" points="
  1884.19,1486.45 1884.19,847.244 
  "/>
<polyline clip-path="url(#clip883)" style="stroke:#000000; stroke-linecap:butt; stroke-linejoin:round; stroke-width:2; stroke-opacity:0.1; fill:none" points="
  2210.15,1486.45 2210.15,847.244 
  "/>
<polyline clip-path="url(#clip880)" style="stroke:#000000; stroke-linecap:butt; stroke-linejoin:round; stroke-width:4; stroke-opacity:1; fill:none" points="
  193.288,1486.45 2352.76,1486.45 
  "/>
<polyline clip-path="url(#clip880)" style="stroke:#000000; stroke-linecap:butt; stroke-linejoin:round; stroke-width:4; stroke-opacity:1; fill:none" points="
  254.405,1486.45 254.405,1467.55 
  "/>
<polyline clip-path="url(#clip880)" style="stroke:#000000; stroke-linecap:butt; stroke-linejoin:round; stroke-width:4; stroke-opacity:1; fill:none" points="
  580.362,1486.45 580.362,1467.55 
  "/>
<polyline clip-path="url(#clip880)" style="stroke:#000000; stroke-linecap:butt; stroke-linejoin:round; stroke-width:4; stroke-opacity:1; fill:none" points="
  906.32,1486.45 906.32,1467.55 
  "/>
<polyline clip-path="url(#clip880)" style="stroke:#000000; stroke-linecap:butt; stroke-linejoin:round; stroke-width:4; stroke-opacity:1; fill:none" points="
  1232.28,1486.45 1232.28,1467.55 
  "/>
<polyline clip-path="url(#clip880)" style="stroke:#000000; stroke-linecap:butt; stroke-linejoin:round; stroke-width:4; stroke-opacity:1; fill:none" points="
  1558.23,1486.45 1558.23,1467.55 
  "/>
<polyline clip-path="url(#clip880)" style="stroke:#000000; stroke-linecap:butt; stroke-linejoin:round; stroke-width:4; stroke-opacity:1; fill:none" points="
  1884.19,1486.45 1884.19,1467.55 
  "/>
<polyline clip-path="url(#clip880)" style="stroke:#000000; stroke-linecap:butt; stroke-linejoin:round; stroke-width:4; stroke-opacity:1; fill:none" points="
  2210.15,1486.45 2210.15,1467.55 
  "/>
<path clip-path="url(#clip880)" d="M254.405 1517.37 Q250.794 1517.37 248.965 1520.93 Q247.16 1524.47 247.16 1531.6 Q247.16 1538.71 248.965 1542.27 Q250.794 1545.82 254.405 1545.82 Q258.039 1545.82 259.845 1542.27 Q261.673 1538.71 261.673 1531.6 Q261.673 1524.47 259.845 1520.93 Q258.039 1517.37 254.405 1517.37 M254.405 1513.66 Q260.215 1513.66 263.271 1518.27 Q266.349 1522.85 266.349 1531.6 Q266.349 1540.33 263.271 1544.94 Q260.215 1549.52 254.405 1549.52 Q248.595 1549.52 245.516 1544.94 Q242.46 1540.33 242.46 1531.6 Q242.46 1522.85 245.516 1518.27 Q248.595 1513.66 254.405 1513.66 Z" fill="#000000" fill-rule="evenodd" fill-opacity="1" /><path clip-path="url(#clip880)" d="M575.015 1544.91 L591.334 1544.91 L591.334 1548.85 L569.39 1548.85 L569.39 1544.91 Q572.052 1542.16 576.635 1537.53 Q581.242 1532.88 582.422 1531.53 Q584.668 1529.01 585.547 1527.27 Q586.45 1525.51 586.45 1523.82 Q586.45 1521.07 584.506 1519.33 Q582.585 1517.6 579.483 1517.6 Q577.284 1517.6 574.83 1518.36 Q572.399 1519.13 569.622 1520.68 L569.622 1515.95 Q572.446 1514.82 574.899 1514.24 Q577.353 1513.66 579.39 1513.66 Q584.76 1513.66 587.955 1516.35 Q591.149 1519.03 591.149 1523.52 Q591.149 1525.65 590.339 1527.57 Q589.552 1529.47 587.446 1532.07 Q586.867 1532.74 583.765 1535.95 Q580.663 1539.15 575.015 1544.91 Z" fill="#000000" fill-rule="evenodd" fill-opacity="1" /><path clip-path="url(#clip880)" d="M909.329 1518.36 L897.524 1536.81 L909.329 1536.81 L909.329 1518.36 M908.102 1514.29 L913.982 1514.29 L913.982 1536.81 L918.912 1536.81 L918.912 1540.7 L913.982 1540.7 L913.982 1548.85 L909.329 1548.85 L909.329 1540.7 L893.727 1540.7 L893.727 1536.19 L908.102 1514.29 Z" fill="#000000" fill-rule="evenodd" fill-opacity="1" /><path clip-path="url(#clip880)" d="M1232.68 1529.7 Q1229.53 1529.7 1227.68 1531.86 Q1225.85 1534.01 1225.85 1537.76 Q1225.85 1541.49 1227.68 1543.66 Q1229.53 1545.82 1232.68 1545.82 Q1235.83 1545.82 1237.66 1543.66 Q1239.51 1541.49 1239.51 1537.76 Q1239.51 1534.01 1237.66 1531.86 Q1235.83 1529.7 1232.68 1529.7 M1241.96 1515.05 L1241.96 1519.31 Q1240.21 1518.48 1238.4 1518.04 Q1236.62 1517.6 1234.86 1517.6 Q1230.23 1517.6 1227.77 1520.72 Q1225.34 1523.85 1225 1530.17 Q1226.36 1528.15 1228.42 1527.09 Q1230.48 1526 1232.96 1526 Q1238.17 1526 1241.18 1529.17 Q1244.21 1532.32 1244.21 1537.76 Q1244.21 1543.08 1241.06 1546.3 Q1237.91 1549.52 1232.68 1549.52 Q1226.69 1549.52 1223.52 1544.94 Q1220.34 1540.33 1220.34 1531.6 Q1220.34 1523.41 1224.23 1518.55 Q1228.12 1513.66 1234.67 1513.66 Q1236.43 1513.66 1238.21 1514.01 Q1240.02 1514.36 1241.96 1515.05 Z" fill="#000000" fill-rule="evenodd" fill-opacity="1" /><path clip-path="url(#clip880)" d="M1558.23 1532.44 Q1554.9 1532.44 1552.98 1534.22 Q1551.08 1536 1551.08 1539.13 Q1551.08 1542.25 1552.98 1544.03 Q1554.9 1545.82 1558.23 1545.82 Q1561.57 1545.82 1563.49 1544.03 Q1565.41 1542.23 1565.41 1539.13 Q1565.41 1536 1563.49 1534.22 Q1561.59 1532.44 1558.23 1532.44 M1553.56 1530.45 Q1550.55 1529.7 1548.86 1527.64 Q1547.19 1525.58 1547.19 1522.62 Q1547.19 1518.48 1550.13 1516.07 Q1553.1 1513.66 1558.23 1513.66 Q1563.4 1513.66 1566.34 1516.07 Q1569.28 1518.48 1569.28 1522.62 Q1569.28 1525.58 1567.59 1527.64 Q1565.92 1529.7 1562.93 1530.45 Q1566.31 1531.23 1568.19 1533.52 Q1570.09 1535.82 1570.09 1539.13 Q1570.09 1544.15 1567.01 1546.83 Q1563.95 1549.52 1558.23 1549.52 Q1552.52 1549.52 1549.44 1546.83 Q1546.38 1544.15 1546.38 1539.13 Q1546.38 1535.82 1548.28 1533.52 Q1550.18 1531.23 1553.56 1530.45 M1551.85 1523.06 Q1551.85 1525.75 1553.51 1527.25 Q1555.2 1528.76 1558.23 1528.76 Q1561.24 1528.76 1562.93 1527.25 Q1564.65 1525.75 1564.65 1523.06 Q1564.65 1520.38 1562.93 1518.87 Q1561.24 1517.37 1558.23 1517.37 Q1555.2 1517.37 1553.51 1518.87 Q1551.85 1520.38 1551.85 1523.06 Z" fill="#000000" fill-rule="evenodd" fill-opacity="1" /><path clip-path="url(#clip880)" d="M1858.88 1544.91 L1866.52 1544.91 L1866.52 1518.55 L1858.21 1520.21 L1858.21 1515.95 L1866.47 1514.29 L1871.15 1514.29 L1871.15 1544.91 L1878.79 1544.91 L1878.79 1548.85 L1858.88 1548.85 L1858.88 1544.91 Z" fill="#000000" fill-rule="evenodd" fill-opacity="1" /><path clip-path="url(#clip880)" d="M1898.23 1517.37 Q1894.62 1517.37 1892.79 1520.93 Q1890.99 1524.47 1890.99 1531.6 Q1890.99 1538.71 1892.79 1542.27 Q1894.62 1545.82 1898.23 1545.82 Q1901.87 1545.82 1903.67 1542.27 Q1905.5 1538.71 1905.5 1531.6 Q1905.5 1524.47 1903.67 1520.93 Q1901.87 1517.37 1898.23 1517.37 M1898.23 1513.66 Q1904.04 1513.66 1907.1 1518.27 Q1910.18 1522.85 1910.18 1531.6 Q1910.18 1540.33 1907.1 1544.94 Q1904.04 1549.52 1898.23 1549.52 Q1892.42 1549.52 1889.34 1544.94 Q1886.29 1540.33 1886.29 1531.6 Q1886.29 1522.85 1889.34 1518.27 Q1892.42 1513.66 1898.23 1513.66 Z" fill="#000000" fill-rule="evenodd" fill-opacity="1" /><path clip-path="url(#clip880)" d="M2185.64 1544.91 L2193.27 1544.91 L2193.27 1518.55 L2184.96 1520.21 L2184.96 1515.95 L2193.23 1514.29 L2197.9 1514.29 L2197.9 1544.91 L2205.54 1544.91 L2205.54 1548.85 L2185.64 1548.85 L2185.64 1544.91 Z" fill="#000000" fill-rule="evenodd" fill-opacity="1" /><path clip-path="url(#clip880)" d="M2219.02 1544.91 L2235.33 1544.91 L2235.33 1548.85 L2213.39 1548.85 L2213.39 1544.91 Q2216.05 1542.16 2220.64 1537.53 Q2225.24 1532.88 2226.42 1531.53 Q2228.67 1529.01 2229.55 1527.27 Q2230.45 1525.51 2230.45 1523.82 Q2230.45 1521.07 2228.51 1519.33 Q2226.58 1517.6 2223.48 1517.6 Q2221.28 1517.6 2218.83 1518.36 Q2216.4 1519.13 2213.62 1520.68 L2213.62 1515.95 Q2216.45 1514.82 2218.9 1514.24 Q2221.35 1513.66 2223.39 1513.66 Q2228.76 1513.66 2231.95 1516.35 Q2235.15 1519.03 2235.15 1523.52 Q2235.15 1525.65 2234.34 1527.57 Q2233.55 1529.47 2231.45 1532.07 Q2230.87 1532.74 2227.77 1535.95 Q2224.66 1539.15 2219.02 1544.91 Z" fill="#000000" fill-rule="evenodd" fill-opacity="1" /><polyline clip-path="url(#clip883)" style="stroke:#000000; stroke-linecap:butt; stroke-linejoin:round; stroke-width:2; stroke-opacity:0.1; fill:none" points="
  193.288,1418.9 2352.76,1418.9 
  "/>
<polyline clip-path="url(#clip883)" style="stroke:#000000; stroke-linecap:butt; stroke-linejoin:round; stroke-width:2; stroke-opacity:0.1; fill:none" points="
  193.288,1291.15 2352.76,1291.15 
  "/>
<polyline clip-path="url(#clip883)" style="stroke:#000000; stroke-linecap:butt; stroke-linejoin:round; stroke-width:2; stroke-opacity:0.1; fill:none" points="
  193.288,1163.41 2352.76,1163.41 
  "/>
<polyline clip-path="url(#clip883)" style="stroke:#000000; stroke-linecap:butt; stroke-linejoin:round; stroke-width:2; stroke-opacity:0.1; fill:none" points="
  193.288,1035.66 2352.76,1035.66 
  "/>
<polyline clip-path="url(#clip883)" style="stroke:#000000; stroke-linecap:butt; stroke-linejoin:round; stroke-width:2; stroke-opacity:0.1; fill:none" points="
  193.288,907.917 2352.76,907.917 
  "/>
<polyline clip-path="url(#clip880)" style="stroke:#000000; stroke-linecap:butt; stroke-linejoin:round; stroke-width:4; stroke-opacity:1; fill:none" points="
  193.288,1486.45 193.288,847.244 
  "/>
<polyline clip-path="url(#clip880)" style="stroke:#000000; stroke-linecap:butt; stroke-linejoin:round; stroke-width:4; stroke-opacity:1; fill:none" points="
  193.288,1418.9 212.185,1418.9 
  "/>
<polyline clip-path="url(#clip880)" style="stroke:#000000; stroke-linecap:butt; stroke-linejoin:round; stroke-width:4; stroke-opacity:1; fill:none" points="
  193.288,1291.15 212.185,1291.15 
  "/>
<polyline clip-path="url(#clip880)" style="stroke:#000000; stroke-linecap:butt; stroke-linejoin:round; stroke-width:4; stroke-opacity:1; fill:none" points="
  193.288,1163.41 212.185,1163.41 
  "/>
<polyline clip-path="url(#clip880)" style="stroke:#000000; stroke-linecap:butt; stroke-linejoin:round; stroke-width:4; stroke-opacity:1; fill:none" points="
  193.288,1035.66 212.185,1035.66 
  "/>
<polyline clip-path="url(#clip880)" style="stroke:#000000; stroke-linecap:butt; stroke-linejoin:round; stroke-width:4; stroke-opacity:1; fill:none" points="
  193.288,907.917 212.185,907.917 
  "/>
<path clip-path="url(#clip880)" d="M50.9921 1419.35 L80.6679 1419.35 L80.6679 1423.29 L50.9921 1423.29 L50.9921 1419.35 Z" fill="#000000" fill-rule="evenodd" fill-opacity="1" /><path clip-path="url(#clip880)" d="M100.76 1404.7 Q97.1493 1404.7 95.3206 1408.26 Q93.515 1411.8 93.515 1418.93 Q93.515 1426.04 95.3206 1429.61 Q97.1493 1433.15 100.76 1433.15 Q104.395 1433.15 106.2 1429.61 Q108.029 1426.04 108.029 1418.93 Q108.029 1411.8 106.2 1408.26 Q104.395 1404.7 100.76 1404.7 M100.76 1400.99 Q106.571 1400.99 109.626 1405.6 Q112.705 1410.18 112.705 1418.93 Q112.705 1427.66 109.626 1432.27 Q106.571 1436.85 100.76 1436.85 Q94.9502 1436.85 91.8715 1432.27 Q88.816 1427.66 88.816 1418.93 Q88.816 1410.18 91.8715 1405.6 Q94.9502 1400.99 100.76 1400.99 Z" fill="#000000" fill-rule="evenodd" fill-opacity="1" /><path clip-path="url(#clip880)" d="M120.922 1430.3 L125.807 1430.3 L125.807 1436.18 L120.922 1436.18 L120.922 1430.3 Z" fill="#000000" fill-rule="evenodd" fill-opacity="1" /><path clip-path="url(#clip880)" d="M150.158 1417.55 Q153.515 1418.26 155.39 1420.53 Q157.288 1422.8 157.288 1426.13 Q157.288 1431.25 153.769 1434.05 Q150.251 1436.85 143.769 1436.85 Q141.593 1436.85 139.279 1436.41 Q136.987 1435.99 134.533 1435.14 L134.533 1430.62 Q136.478 1431.76 138.793 1432.34 Q141.107 1432.92 143.631 1432.92 Q148.029 1432.92 150.32 1431.18 Q152.635 1429.44 152.635 1426.13 Q152.635 1423.08 150.482 1421.36 Q148.353 1419.63 144.533 1419.63 L140.506 1419.63 L140.506 1415.79 L144.718 1415.79 Q148.168 1415.79 149.996 1414.42 Q151.825 1413.03 151.825 1410.44 Q151.825 1407.78 149.927 1406.36 Q148.052 1404.93 144.533 1404.93 Q142.612 1404.93 140.413 1405.35 Q138.214 1405.76 135.575 1406.64 L135.575 1402.48 Q138.237 1401.74 140.552 1401.37 Q142.89 1400.99 144.95 1400.99 Q150.274 1400.99 153.376 1403.43 Q156.478 1405.83 156.478 1409.95 Q156.478 1412.82 154.834 1414.81 Q153.191 1416.78 150.158 1417.55 Z" fill="#000000" fill-rule="evenodd" fill-opacity="1" /><path clip-path="url(#clip880)" d="M100.112 1276.95 Q96.5011 1276.95 94.6724 1280.52 Q92.8669 1284.06 92.8669 1291.19 Q92.8669 1298.3 94.6724 1301.86 Q96.5011 1305.4 100.112 1305.4 Q103.746 1305.4 105.552 1301.86 Q107.381 1298.3 107.381 1291.19 Q107.381 1284.06 105.552 1280.52 Q103.746 1276.95 100.112 1276.95 M100.112 1273.25 Q105.922 1273.25 108.978 1277.86 Q112.057 1282.44 112.057 1291.19 Q112.057 1299.92 108.978 1304.52 Q105.922 1309.11 100.112 1309.11 Q94.3021 1309.11 91.2234 1304.52 Q88.1679 1299.92 88.1679 1291.19 Q88.1679 1282.44 91.2234 1277.86 Q94.3021 1273.25 100.112 1273.25 Z" fill="#000000" fill-rule="evenodd" fill-opacity="1" /><path clip-path="url(#clip880)" d="M120.274 1302.55 L125.158 1302.55 L125.158 1308.43 L120.274 1308.43 L120.274 1302.55 Z" fill="#000000" fill-rule="evenodd" fill-opacity="1" /><path clip-path="url(#clip880)" d="M145.343 1276.95 Q141.732 1276.95 139.904 1280.52 Q138.098 1284.06 138.098 1291.19 Q138.098 1298.3 139.904 1301.86 Q141.732 1305.4 145.343 1305.4 Q148.978 1305.4 150.783 1301.86 Q152.612 1298.3 152.612 1291.19 Q152.612 1284.06 150.783 1280.52 Q148.978 1276.95 145.343 1276.95 M145.343 1273.25 Q151.154 1273.25 154.209 1277.86 Q157.288 1282.44 157.288 1291.19 Q157.288 1299.92 154.209 1304.52 Q151.154 1309.11 145.343 1309.11 Q139.533 1309.11 136.455 1304.52 Q133.399 1299.92 133.399 1291.19 Q133.399 1282.44 136.455 1277.86 Q139.533 1273.25 145.343 1273.25 Z" fill="#000000" fill-rule="evenodd" fill-opacity="1" /><path clip-path="url(#clip880)" d="M100.76 1149.21 Q97.1493 1149.21 95.3206 1152.77 Q93.515 1156.31 93.515 1163.44 Q93.515 1170.55 95.3206 1174.11 Q97.1493 1177.66 100.76 1177.66 Q104.395 1177.66 106.2 1174.11 Q108.029 1170.55 108.029 1163.44 Q108.029 1156.31 106.2 1152.77 Q104.395 1149.21 100.76 1149.21 M100.76 1145.5 Q106.571 1145.5 109.626 1150.11 Q112.705 1154.69 112.705 1163.44 Q112.705 1172.17 109.626 1176.78 Q106.571 1181.36 100.76 1181.36 Q94.9502 1181.36 91.8715 1176.78 Q88.816 1172.17 88.816 1163.44 Q88.816 1154.69 91.8715 1150.11 Q94.9502 1145.5 100.76 1145.5 Z" fill="#000000" fill-rule="evenodd" fill-opacity="1" /><path clip-path="url(#clip880)" d="M120.922 1174.81 L125.807 1174.81 L125.807 1180.69 L120.922 1180.69 L120.922 1174.81 Z" fill="#000000" fill-rule="evenodd" fill-opacity="1" /><path clip-path="url(#clip880)" d="M150.158 1162.05 Q153.515 1162.77 155.39 1165.04 Q157.288 1167.31 157.288 1170.64 Q157.288 1175.76 153.769 1178.56 Q150.251 1181.36 143.769 1181.36 Q141.593 1181.36 139.279 1180.92 Q136.987 1180.5 134.533 1179.65 L134.533 1175.13 Q136.478 1176.27 138.793 1176.85 Q141.107 1177.42 143.631 1177.42 Q148.029 1177.42 150.32 1175.69 Q152.635 1173.95 152.635 1170.64 Q152.635 1167.59 150.482 1165.87 Q148.353 1164.14 144.533 1164.14 L140.506 1164.14 L140.506 1160.29 L144.718 1160.29 Q148.168 1160.29 149.996 1158.93 Q151.825 1157.54 151.825 1154.95 Q151.825 1152.29 149.927 1150.87 Q148.052 1149.44 144.533 1149.44 Q142.612 1149.44 140.413 1149.85 Q138.214 1150.27 135.575 1151.15 L135.575 1146.98 Q138.237 1146.24 140.552 1145.87 Q142.89 1145.5 144.95 1145.5 Q150.274 1145.5 153.376 1147.93 Q156.478 1150.34 156.478 1154.46 Q156.478 1157.33 154.834 1159.32 Q153.191 1161.29 150.158 1162.05 Z" fill="#000000" fill-rule="evenodd" fill-opacity="1" /><path clip-path="url(#clip880)" d="M99.9502 1021.46 Q96.3391 1021.46 94.5104 1025.03 Q92.7049 1028.57 92.7049 1035.7 Q92.7049 1042.8 94.5104 1046.37 Q96.3391 1049.91 99.9502 1049.91 Q103.584 1049.91 105.39 1046.37 Q107.219 1042.8 107.219 1035.7 Q107.219 1028.57 105.39 1025.03 Q103.584 1021.46 99.9502 1021.46 M99.9502 1017.76 Q105.76 1017.76 108.816 1022.36 Q111.895 1026.95 111.895 1035.7 Q111.895 1044.42 108.816 1049.03 Q105.76 1053.61 99.9502 1053.61 Q94.14 1053.61 91.0614 1049.03 Q88.0058 1044.42 88.0058 1035.7 Q88.0058 1026.95 91.0614 1022.36 Q94.14 1017.76 99.9502 1017.76 Z" fill="#000000" fill-rule="evenodd" fill-opacity="1" /><path clip-path="url(#clip880)" d="M120.112 1047.06 L124.996 1047.06 L124.996 1052.94 L120.112 1052.94 L120.112 1047.06 Z" fill="#000000" fill-rule="evenodd" fill-opacity="1" /><path clip-path="url(#clip880)" d="M145.76 1033.8 Q142.612 1033.8 140.76 1035.95 Q138.931 1038.1 138.931 1041.85 Q138.931 1045.58 140.76 1047.76 Q142.612 1049.91 145.76 1049.91 Q148.908 1049.91 150.737 1047.76 Q152.589 1045.58 152.589 1041.85 Q152.589 1038.1 150.737 1035.95 Q148.908 1033.8 145.76 1033.8 M155.042 1019.15 L155.042 1023.41 Q153.283 1022.57 151.478 1022.13 Q149.695 1021.69 147.936 1021.69 Q143.306 1021.69 140.853 1024.82 Q138.422 1027.94 138.075 1034.26 Q139.441 1032.25 141.501 1031.18 Q143.561 1030.1 146.038 1030.1 Q151.246 1030.1 154.255 1033.27 Q157.288 1036.41 157.288 1041.85 Q157.288 1047.18 154.14 1050.4 Q150.992 1053.61 145.76 1053.61 Q139.765 1053.61 136.594 1049.03 Q133.422 1044.42 133.422 1035.7 Q133.422 1027.5 137.311 1022.64 Q141.2 1017.76 147.751 1017.76 Q149.51 1017.76 151.293 1018.1 Q153.098 1018.45 155.042 1019.15 Z" fill="#000000" fill-rule="evenodd" fill-opacity="1" /><path clip-path="url(#clip880)" d="M100.297 893.715 Q96.6863 893.715 94.8576 897.28 Q93.0521 900.822 93.0521 907.951 Q93.0521 915.058 94.8576 918.623 Q96.6863 922.164 100.297 922.164 Q103.932 922.164 105.737 918.623 Q107.566 915.058 107.566 907.951 Q107.566 900.822 105.737 897.28 Q103.932 893.715 100.297 893.715 M100.297 890.012 Q106.108 890.012 109.163 894.618 Q112.242 899.201 112.242 907.951 Q112.242 916.678 109.163 921.285 Q106.108 925.868 100.297 925.868 Q94.4873 925.868 91.4086 921.285 Q88.353 916.678 88.353 907.951 Q88.353 899.201 91.4086 894.618 Q94.4873 890.012 100.297 890.012 Z" fill="#000000" fill-rule="evenodd" fill-opacity="1" /><path clip-path="url(#clip880)" d="M120.459 919.317 L125.344 919.317 L125.344 925.197 L120.459 925.197 L120.459 919.317 Z" fill="#000000" fill-rule="evenodd" fill-opacity="1" /><path clip-path="url(#clip880)" d="M135.668 924.479 L135.668 920.22 Q137.427 921.053 139.232 921.493 Q141.038 921.933 142.774 921.933 Q147.404 921.933 149.834 918.831 Q152.288 915.706 152.635 909.363 Q151.293 911.354 149.232 912.419 Q147.172 913.484 144.672 913.484 Q139.487 913.484 136.455 910.359 Q133.445 907.211 133.445 901.771 Q133.445 896.447 136.594 893.229 Q139.742 890.012 144.973 890.012 Q150.968 890.012 154.117 894.618 Q157.288 899.201 157.288 907.951 Q157.288 916.123 153.399 921.007 Q149.533 925.868 142.982 925.868 Q141.223 925.868 139.418 925.521 Q137.612 925.174 135.668 924.479 M144.973 909.826 Q148.121 909.826 149.95 907.674 Q151.802 905.521 151.802 901.771 Q151.802 898.044 149.95 895.891 Q148.121 893.715 144.973 893.715 Q141.825 893.715 139.973 895.891 Q138.144 898.044 138.144 901.771 Q138.144 905.521 139.973 907.674 Q141.825 909.826 144.973 909.826 Z" fill="#000000" fill-rule="evenodd" fill-opacity="1" /><polyline clip-path="url(#clip883)" style="stroke:#009af9; stroke-linecap:butt; stroke-linejoin:round; stroke-width:4; stroke-opacity:1; fill:none" points="
  254.405,1468.36 270.703,1466.42 287.001,1460.6 303.298,1450.89 319.596,1437.27 335.894,1419.75 352.192,1398.37 368.49,1373.26 384.788,1344.63 401.086,1312.78 
  417.384,1278.17 433.681,1241.36 449.979,1203.04 466.277,1163.98 482.575,1125.01 498.873,1086.98 515.171,1050.72 531.469,1016.95 547.767,986.284 564.064,959.17 
  580.362,935.874 596.66,916.478 612.958,900.881 629.256,888.828 645.554,879.933 661.852,873.726 678.15,869.688 694.447,867.292 710.745,866.045 727.043,865.514 
  743.341,865.356 759.639,865.335 775.937,865.335 792.235,865.368 808.533,865.569 824.83,866.194 841.128,867.602 857.426,870.238 873.724,874.604 890.022,881.227 
  906.32,890.622 922.618,903.247 938.916,919.468 955.213,939.518 971.511,963.467 987.809,991.202 1004.11,1022.43 1020.4,1056.66 1036.7,1093.28 1053,1131.52 
  1069.3,1170.56 1085.6,1209.56 1101.89,1247.68 1118.19,1284.16 1134.49,1318.34 1150.79,1349.68 1167.09,1377.74 1183.38,1402.23 1199.68,1422.97 1215.98,1439.84 
  1232.28,1452.8 1248.58,1461.85 1264.87,1467.02 1281.17,1468.3 1297.47,1465.71 1313.77,1459.24 1330.06,1448.88 1346.36,1434.6 1362.66,1416.42 1378.96,1394.41 
  1395.26,1368.69 1411.55,1339.49 1427.85,1307.14 1444.15,1272.12 1460.45,1235 1476.75,1196.5 1493.04,1157.39 1509.34,1118.52 1525.64,1080.74 1541.94,1044.85 
  1558.23,1011.56 1574.53,981.467 1590.83,954.981 1607.13,932.34 1623.43,913.594 1639.72,898.616 1656.02,887.123 1672.32,878.715 1688.62,872.91 1704.92,869.184 
  1721.21,867.015 1737.51,865.917 1753.81,865.469 1770.11,865.348 1786.4,865.335 1802.7,865.336 1819,865.385 1835.3,865.636 1851.6,866.365 1867.89,867.946 
  1884.19,870.837 1900.49,875.545 1916.79,882.6 1933.09,892.507 1949.38,905.715 1965.68,922.568 1981.98,943.273 1998.28,967.871 2014.58,996.22 2030.87,1027.99 
  2047.17,1062.67 2063.47,1099.61 2079.77,1138.05 2096.06,1177.14 2112.36,1216.05 2128.66,1253.95 2144.96,1290.09 2161.26,1323.82 2177.55,1354.63 2193.85,1382.12 
  2210.15,1405.99 2226.45,1426.08 2242.75,1442.29 2259.04,1454.59 2275.34,1462.99 2291.64,1467.5 
  "/>
<path clip-path="url(#clip880)" d="
M1988.4 972.231 L2280.77 972.231 L2280.77 868.551 L1988.4 868.551  Z
  " fill="#ffffff" fill-rule="evenodd" fill-opacity="1"/>
<polyline clip-path="url(#clip880)" style="stroke:#000000; stroke-linecap:butt; stroke-linejoin:round; stroke-width:4; stroke-opacity:1; fill:none" points="
  1988.4,972.231 2280.77,972.231 2280.77,868.551 1988.4,868.551 1988.4,972.231 
  "/>
<polyline clip-path="url(#clip880)" style="stroke:#009af9; stroke-linecap:butt; stroke-linejoin:round; stroke-width:4; stroke-opacity:1; fill:none" points="
  2012.4,920.391 2156.36,920.391 
  "/>
<path clip-path="url(#clip880)" d="M2194.2 940.078 Q2192.39 944.708 2190.68 946.12 Q2188.97 947.532 2186.1 947.532 L2182.69 947.532 L2182.69 943.967 L2185.19 943.967 Q2186.95 943.967 2187.92 943.134 Q2188.9 942.3 2190.08 939.199 L2190.84 937.254 L2180.36 911.745 L2184.87 911.745 L2192.97 932.023 L2201.07 911.745 L2205.59 911.745 L2194.2 940.078 Z" fill="#000000" fill-rule="evenodd" fill-opacity="1" /><path clip-path="url(#clip880)" d="M2212.88 933.736 L2220.52 933.736 L2220.52 907.37 L2212.21 909.037 L2212.21 904.778 L2220.47 903.111 L2225.15 903.111 L2225.15 933.736 L2232.79 933.736 L2232.79 937.671 L2212.88 937.671 L2212.88 933.736 Z" fill="#000000" fill-rule="evenodd" fill-opacity="1" /></svg>
