<?xml version="1.0" encoding="utf-8"?>
<svg xmlns="http://www.w3.org/2000/svg" xmlns:xlink="http://www.w3.org/1999/xlink" width="600" height="400" viewBox="0 0 2400 1600">
<defs>
  <clipPath id="clip520">
    <rect x="0" y="0" width="2400" height="1600"/>
  </clipPath>
</defs>
<path clip-path="url(#clip520)" d="
M0 1600 L2400 1600 L2400 0 L0 0  Z
  " fill="#ffffff" fill-rule="evenodd" fill-opacity="1"/>
<defs>
  <clipPath id="clip521">
    <rect x="480" y="0" width="1681" height="1600"/>
  </clipPath>
</defs>
<path clip-path="url(#clip520)" d="
M186.274 1486.45 L2352.76 1486.45 L2352.76 47.2441 L186.274 47.2441  Z
  " fill="#ffffff" fill-rule="evenodd" fill-opacity="1"/>
<defs>
  <clipPath id="clip522">
    <rect x="186" y="47" width="2167" height="1440"/>
  </clipPath>
</defs>
<polyline clip-path="url(#clip522)" style="stroke:#000000; stroke-linecap:butt; stroke-linejoin:round; stroke-width:2; stroke-opacity:0.1; fill:none" points="
  247.59,1486.45 247.59,47.2441 
  "/>
<polyline clip-path="url(#clip522)" style="stroke:#000000; stroke-linecap:butt; stroke-linejoin:round; stroke-width:2; stroke-opacity:0.1; fill:none" points="
  574.606,1486.45 574.606,47.2441 
  "/>
<polyline clip-path="url(#clip522)" style="stroke:#000000; stroke-linecap:butt; stroke-linejoin:round; stroke-width:2; stroke-opacity:0.1; fill:none" points="
  901.622,1486.45 901.622,47.2441 
  "/>
<polyline clip-path="url(#clip522)" style="stroke:#000000; stroke-linecap:butt; stroke-linejoin:round; stroke-width:2; stroke-opacity:0.1; fill:none" points="
  1228.64,1486.45 1228.64,47.2441 
  "/>
<polyline clip-path="url(#clip522)" style="stroke:#000000; stroke-linecap:butt; stroke-linejoin:round; stroke-width:2; stroke-opacity:0.1; fill:none" points="
  1555.65,1486.45 1555.65,47.2441 
  "/>
<polyline clip-path="url(#clip522)" style="stroke:#000000; stroke-linecap:butt; stroke-linejoin:round; stroke-width:2; stroke-opacity:0.1; fill:none" points="
  1882.67,1486.45 1882.67,47.2441 
  "/>
<polyline clip-path="url(#clip522)" style="stroke:#000000; stroke-linecap:butt; stroke-linejoin:round; stroke-width:2; stroke-opacity:0.1; fill:none" points="
  2209.69,1486.45 2209.69,47.2441 
  "/>
<polyline clip-path="url(#clip520)" style="stroke:#000000; stroke-linecap:butt; stroke-linejoin:round; stroke-width:4; stroke-opacity:1; fill:none" points="
  186.274,1486.45 2352.76,1486.45 
  "/>
<polyline clip-path="url(#clip520)" style="stroke:#000000; stroke-linecap:butt; stroke-linejoin:round; stroke-width:4; stroke-opacity:1; fill:none" points="
  247.59,1486.45 247.59,1467.55 
  "/>
<polyline clip-path="url(#clip520)" style="stroke:#000000; stroke-linecap:butt; stroke-linejoin:round; stroke-width:4; stroke-opacity:1; fill:none" points="
  574.606,1486.45 574.606,1467.55 
  "/>
<polyline clip-path="url(#clip520)" style="stroke:#000000; stroke-linecap:butt; stroke-linejoin:round; stroke-width:4; stroke-opacity:1; fill:none" points="
  901.622,1486.45 901.622,1467.55 
  "/>
<polyline clip-path="url(#clip520)" style="stroke:#000000; stroke-linecap:butt; stroke-linejoin:round; stroke-width:4; stroke-opacity:1; fill:none" points="
  1228.64,1486.45 1228.64,1467.55 
  "/>
<polyline clip-path="url(#clip520)" style="stroke:#000000; stroke-linecap:butt; stroke-linejoin:round; stroke-width:4; stroke-opacity:1; fill:none" points="
  1555.65,1486.45 1555.65,1467.55 
  "/>
<polyline clip-path="url(#clip520)" style="stroke:#000000; stroke-linecap:butt; stroke-linejoin:round; stroke-width:4; stroke-opacity:1; fill:none" points="
  1882.67,1486.45 1882.67,1467.55 
  "/>
<polyline clip-path="url(#clip520)" style="stroke:#000000; stroke-linecap:butt; stroke-linejoin:round; stroke-width:4; stroke-opacity:1; fill:none" points="
  2209.69,1486.45 2209.69,1467.55 
  "/>
<path clip-path="url(#clip520)" d="M247.59 1517.37 Q243.978 1517.37 242.15 1520.93 Q240.344 1524.47 240.344 1531.6 Q240.344 1538.71 242.15 1542.27 Q243.978 1545.82 247.59 1545.82 Q251.224 1545.82 253.029 1542.27 Q254.858 1538.71 254.858 1531.6 Q254.858 1524.47 253.029 1520.93 Q251.224 1517.37 247.59 1517.37 M247.59 1513.66 Q253.4 1513.66 256.455 1518.27 Q259.534 1522.85 259.534 1531.6 Q259.534 1540.33 256.455 1544.94 Q253.4 1549.52 247.59 1549.52 Q241.779 1549.52 238.701 1544.94 Q235.645 1540.33 235.645 1531.6 Q235.645 1522.85 238.701 1518.27 Q241.779 1513.66 247.59 1513.66 Z" fill="#000000" fill-rule="evenodd" fill-opacity="1" /><path clip-path="url(#clip520)" d="M569.258 1544.91 L585.578 1544.91 L585.578 1548.85 L563.634 1548.85 L563.634 1544.91 Q566.296 1542.16 570.879 1537.53 Q575.485 1532.88 576.666 1531.53 Q578.911 1529.01 579.791 1527.27 Q580.694 1525.51 580.694 1523.82 Q580.694 1521.07 578.749 1519.33 Q576.828 1517.6 573.726 1517.6 Q571.527 1517.6 569.073 1518.36 Q566.643 1519.13 563.865 1520.68 L563.865 1515.95 Q566.689 1514.82 569.143 1514.24 Q571.596 1513.66 573.633 1513.66 Q579.004 1513.66 582.198 1516.35 Q585.393 1519.03 585.393 1523.52 Q585.393 1525.65 584.582 1527.57 Q583.795 1529.47 581.689 1532.07 Q581.11 1532.74 578.008 1535.95 Q574.907 1539.15 569.258 1544.91 Z" fill="#000000" fill-rule="evenodd" fill-opacity="1" /><path clip-path="url(#clip520)" d="M904.631 1518.36 L892.826 1536.81 L904.631 1536.81 L904.631 1518.36 M903.404 1514.29 L909.284 1514.29 L909.284 1536.81 L914.214 1536.81 L914.214 1540.7 L909.284 1540.7 L909.284 1548.85 L904.631 1548.85 L904.631 1540.7 L889.029 1540.7 L889.029 1536.19 L903.404 1514.29 Z" fill="#000000" fill-rule="evenodd" fill-opacity="1" /><path clip-path="url(#clip520)" d="M1229.04 1529.7 Q1225.89 1529.7 1224.04 1531.86 Q1222.21 1534.01 1222.21 1537.76 Q1222.21 1541.49 1224.04 1543.66 Q1225.89 1545.82 1229.04 1545.82 Q1232.19 1545.82 1234.02 1543.66 Q1235.87 1541.49 1235.87 1537.76 Q1235.87 1534.01 1234.02 1531.86 Q1232.19 1529.7 1229.04 1529.7 M1238.33 1515.05 L1238.33 1519.31 Q1236.57 1518.48 1234.76 1518.04 Q1232.98 1517.6 1231.22 1517.6 Q1226.59 1517.6 1224.14 1520.72 Q1221.71 1523.85 1221.36 1530.17 Q1222.72 1528.15 1224.78 1527.09 Q1226.84 1526 1229.32 1526 Q1234.53 1526 1237.54 1529.17 Q1240.57 1532.32 1240.57 1537.76 Q1240.57 1543.08 1237.42 1546.3 Q1234.27 1549.52 1229.04 1549.52 Q1223.05 1549.52 1219.88 1544.94 Q1216.71 1540.33 1216.71 1531.6 Q1216.71 1523.41 1220.59 1518.55 Q1224.48 1513.66 1231.03 1513.66 Q1232.79 1513.66 1234.58 1514.01 Q1236.38 1514.36 1238.33 1515.05 Z" fill="#000000" fill-rule="evenodd" fill-opacity="1" /><path clip-path="url(#clip520)" d="M1555.65 1532.44 Q1552.32 1532.44 1550.4 1534.22 Q1548.5 1536 1548.5 1539.13 Q1548.5 1542.25 1550.4 1544.03 Q1552.32 1545.82 1555.65 1545.82 Q1558.99 1545.82 1560.91 1544.03 Q1562.83 1542.23 1562.83 1539.13 Q1562.83 1536 1560.91 1534.22 Q1559.01 1532.44 1555.65 1532.44 M1550.98 1530.45 Q1547.97 1529.7 1546.28 1527.64 Q1544.61 1525.58 1544.61 1522.62 Q1544.61 1518.48 1547.55 1516.07 Q1550.52 1513.66 1555.65 1513.66 Q1560.82 1513.66 1563.76 1516.07 Q1566.7 1518.48 1566.7 1522.62 Q1566.7 1525.58 1565.01 1527.64 Q1563.34 1529.7 1560.35 1530.45 Q1563.73 1531.23 1565.61 1533.52 Q1567.51 1535.82 1567.51 1539.13 Q1567.51 1544.15 1564.43 1546.83 Q1561.37 1549.52 1555.65 1549.52 Q1549.94 1549.52 1546.86 1546.83 Q1543.8 1544.15 1543.8 1539.13 Q1543.8 1535.82 1545.7 1533.52 Q1547.6 1531.23 1550.98 1530.45 M1549.27 1523.06 Q1549.27 1525.75 1550.93 1527.25 Q1552.62 1528.76 1555.65 1528.76 Q1558.66 1528.76 1560.35 1527.25 Q1562.07 1525.75 1562.07 1523.06 Q1562.07 1520.38 1560.35 1518.87 Q1558.66 1517.37 1555.65 1517.37 Q1552.62 1517.37 1550.93 1518.87 Q1549.27 1520.38 1549.27 1523.06 Z" fill="#000000" fill-rule="evenodd" fill-opacity="1" /><path clip-path="url(#clip520)" d="M1857.36 1544.91 L1865 1544.91 L1865 1518.55 L1856.69 1520.21 L1856.69 1515.95 L1864.95 1514.29 L1869.63 1514.29 L1869.63 1544.91 L1877.27 1544.91 L1877.27 1548.85 L1857.36 1548.85 L1857.36 1544.91 Z" fill="#000000" fill-rule="evenodd" fill-opacity="1" /><path clip-path="url(#clip520)" d="M1896.71 1517.37 Q1893.1 1517.37 1891.27 1520.93 Q1889.46 1524.47 1889.46 1531.6 Q1889.46 1538.71 1891.27 1542.27 Q1893.1 1545.82 1896.71 1545.82 Q1900.34 1545.82 1902.15 1542.27 Q1903.98 1538.71 1903.98 1531.6 Q1903.98 1524.47 1902.15 1520.93 Q1900.34 1517.37 1896.71 1517.37 M1896.71 1513.66 Q1902.52 1513.66 1905.58 1518.27 Q1908.65 1522.85 1908.65 1531.6 Q1908.65 1540.33 1905.58 1544.94 Q1902.52 1549.52 1896.71 1549.52 Q1890.9 1549.52 1887.82 1544.94 Q1884.77 1540.33 1884.77 1531.6 Q1884.77 1522.85 1887.82 1518.27 Q1890.9 1513.66 1896.71 1513.66 Z" fill="#000000" fill-rule="evenodd" fill-opacity="1" /><path clip-path="url(#clip520)" d="M2185.17 1544.91 L2192.81 1544.91 L2192.81 1518.55 L2184.5 1520.21 L2184.5 1515.95 L2192.77 1514.29 L2197.44 1514.29 L2197.44 1544.91 L2205.08 1544.91 L2205.08 1548.85 L2185.17 1548.85 L2185.17 1544.91 Z" fill="#000000" fill-rule="evenodd" fill-opacity="1" /><path clip-path="url(#clip520)" d="M2218.55 1544.91 L2234.87 1544.91 L2234.87 1548.85 L2212.93 1548.85 L2212.93 1544.91 Q2215.59 1542.16 2220.17 1537.53 Q2224.78 1532.88 2225.96 1531.53 Q2228.2 1529.01 2229.08 1527.27 Q2229.99 1525.51 2229.99 1523.82 Q2229.99 1521.07 2228.04 1519.33 Q2226.12 1517.6 2223.02 1517.6 Q2220.82 1517.6 2218.37 1518.36 Q2215.94 1519.13 2213.16 1520.68 L2213.16 1515.95 Q2215.98 1514.82 2218.44 1514.24 Q2220.89 1513.66 2222.93 1513.66 Q2228.3 1513.66 2231.49 1516.35 Q2234.69 1519.03 2234.69 1523.52 Q2234.69 1525.65 2233.88 1527.57 Q2233.09 1529.47 2230.98 1532.07 Q2230.4 1532.74 2227.3 1535.95 Q2224.2 1539.15 2218.55 1544.91 Z" fill="#000000" fill-rule="evenodd" fill-opacity="1" /><polyline clip-path="url(#clip522)" style="stroke:#000000; stroke-linecap:butt; stroke-linejoin:round; stroke-width:2; stroke-opacity:0.1; fill:none" points="
  186.274,1445.73 2352.76,1445.73 
  "/>
<polyline clip-path="url(#clip522)" style="stroke:#000000; stroke-linecap:butt; stroke-linejoin:round; stroke-width:2; stroke-opacity:0.1; fill:none" points="
  186.274,1106.28 2352.76,1106.28 
  "/>
<polyline clip-path="url(#clip522)" style="stroke:#000000; stroke-linecap:butt; stroke-linejoin:round; stroke-width:2; stroke-opacity:0.1; fill:none" points="
  186.274,766.84 2352.76,766.84 
  "/>
<polyline clip-path="url(#clip522)" style="stroke:#000000; stroke-linecap:butt; stroke-linejoin:round; stroke-width:2; stroke-opacity:0.1; fill:none" points="
  186.274,427.395 2352.76,427.395 
  "/>
<polyline clip-path="url(#clip522)" style="stroke:#000000; stroke-linecap:butt; stroke-linejoin:round; stroke-width:2; stroke-opacity:0.1; fill:none" points="
  186.274,87.9506 2352.76,87.9506 
  "/>
<polyline clip-path="url(#clip520)" style="stroke:#000000; stroke-linecap:butt; stroke-linejoin:round; stroke-width:4; stroke-opacity:1; fill:none" points="
  186.274,1486.45 186.274,47.2441 
  "/>
<polyline clip-path="url(#clip520)" style="stroke:#000000; stroke-linecap:butt; stroke-linejoin:round; stroke-width:4; stroke-opacity:1; fill:none" points="
  186.274,1445.73 205.172,1445.73 
  "/>
<polyline clip-path="url(#clip520)" style="stroke:#000000; stroke-linecap:butt; stroke-linejoin:round; stroke-width:4; stroke-opacity:1; fill:none" points="
  186.274,1106.28 205.172,1106.28 
  "/>
<polyline clip-path="url(#clip520)" style="stroke:#000000; stroke-linecap:butt; stroke-linejoin:round; stroke-width:4; stroke-opacity:1; fill:none" points="
  186.274,766.84 205.172,766.84 
  "/>
<polyline clip-path="url(#clip520)" style="stroke:#000000; stroke-linecap:butt; stroke-linejoin:round; stroke-width:4; stroke-opacity:1; fill:none" points="
  186.274,427.395 205.172,427.395 
  "/>
<polyline clip-path="url(#clip520)" style="stroke:#000000; stroke-linecap:butt; stroke-linejoin:round; stroke-width:4; stroke-opacity:1; fill:none" points="
  186.274,87.9506 205.172,87.9506 
  "/>
<path clip-path="url(#clip520)" d="M62.9365 1431.53 Q59.3254 1431.53 57.4967 1435.09 Q55.6912 1438.63 55.6912 1445.76 Q55.6912 1452.87 57.4967 1456.43 Q59.3254 1459.98 62.9365 1459.98 Q66.5707 1459.98 68.3763 1456.43 Q70.205 1452.87 70.205 1445.76 Q70.205 1438.63 68.3763 1435.09 Q66.5707 1431.53 62.9365 1431.53 M62.9365 1427.82 Q68.7467 1427.82 71.8022 1432.43 Q74.8809 1437.01 74.8809 1445.76 Q74.8809 1454.49 71.8022 1459.1 Q68.7467 1463.68 62.9365 1463.68 Q57.1264 1463.68 54.0477 1459.1 Q50.9921 1454.49 50.9921 1445.76 Q50.9921 1437.01 54.0477 1432.43 Q57.1264 1427.82 62.9365 1427.82 Z" fill="#000000" fill-rule="evenodd" fill-opacity="1" /><path clip-path="url(#clip520)" d="M83.0984 1457.13 L87.9827 1457.13 L87.9827 1463.01 L83.0984 1463.01 L83.0984 1457.13 Z" fill="#000000" fill-rule="evenodd" fill-opacity="1" /><path clip-path="url(#clip520)" d="M108.168 1431.53 Q104.557 1431.53 102.728 1435.09 Q100.922 1438.63 100.922 1445.76 Q100.922 1452.87 102.728 1456.43 Q104.557 1459.98 108.168 1459.98 Q111.802 1459.98 113.608 1456.43 Q115.436 1452.87 115.436 1445.76 Q115.436 1438.63 113.608 1435.09 Q111.802 1431.53 108.168 1431.53 M108.168 1427.82 Q113.978 1427.82 117.033 1432.43 Q120.112 1437.01 120.112 1445.76 Q120.112 1454.49 117.033 1459.1 Q113.978 1463.68 108.168 1463.68 Q102.358 1463.68 99.2789 1459.1 Q96.2234 1454.49 96.2234 1445.76 Q96.2234 1437.01 99.2789 1432.43 Q102.358 1427.82 108.168 1427.82 Z" fill="#000000" fill-rule="evenodd" fill-opacity="1" /><path clip-path="url(#clip520)" d="M138.33 1431.53 Q134.719 1431.53 132.89 1435.09 Q131.084 1438.63 131.084 1445.76 Q131.084 1452.87 132.89 1456.43 Q134.719 1459.98 138.33 1459.98 Q141.964 1459.98 143.769 1456.43 Q145.598 1452.87 145.598 1445.76 Q145.598 1438.63 143.769 1435.09 Q141.964 1431.53 138.33 1431.53 M138.33 1427.82 Q144.14 1427.82 147.195 1432.43 Q150.274 1437.01 150.274 1445.76 Q150.274 1454.49 147.195 1459.1 Q144.14 1463.68 138.33 1463.68 Q132.519 1463.68 129.441 1459.1 Q126.385 1454.49 126.385 1445.76 Q126.385 1437.01 129.441 1432.43 Q132.519 1427.82 138.33 1427.82 Z" fill="#000000" fill-rule="evenodd" fill-opacity="1" /><path clip-path="url(#clip520)" d="M63.9319 1092.08 Q60.3208 1092.08 58.4921 1095.65 Q56.6865 1099.19 56.6865 1106.32 Q56.6865 1113.43 58.4921 1116.99 Q60.3208 1120.53 63.9319 1120.53 Q67.5661 1120.53 69.3717 1116.99 Q71.2004 1113.43 71.2004 1106.32 Q71.2004 1099.19 69.3717 1095.65 Q67.5661 1092.08 63.9319 1092.08 M63.9319 1088.38 Q69.742 1088.38 72.7976 1092.99 Q75.8763 1097.57 75.8763 1106.32 Q75.8763 1115.05 72.7976 1119.65 Q69.742 1124.24 63.9319 1124.24 Q58.1217 1124.24 55.043 1119.65 Q51.9875 1115.05 51.9875 1106.32 Q51.9875 1097.57 55.043 1092.99 Q58.1217 1088.38 63.9319 1088.38 Z" fill="#000000" fill-rule="evenodd" fill-opacity="1" /><path clip-path="url(#clip520)" d="M84.0938 1117.68 L88.978 1117.68 L88.978 1123.56 L84.0938 1123.56 L84.0938 1117.68 Z" fill="#000000" fill-rule="evenodd" fill-opacity="1" /><path clip-path="url(#clip520)" d="M103.191 1119.63 L119.51 1119.63 L119.51 1123.56 L97.566 1123.56 L97.566 1119.63 Q100.228 1116.87 104.811 1112.24 Q109.418 1107.59 110.598 1106.25 Q112.844 1103.73 113.723 1101.99 Q114.626 1100.23 114.626 1098.54 Q114.626 1095.79 112.682 1094.05 Q110.76 1092.31 107.658 1092.31 Q105.459 1092.31 103.006 1093.08 Q100.575 1093.84 97.7974 1095.39 L97.7974 1090.67 Q100.621 1089.54 103.075 1088.96 Q105.529 1088.38 107.566 1088.38 Q112.936 1088.38 116.131 1091.06 Q119.325 1093.75 119.325 1098.24 Q119.325 1100.37 118.515 1102.29 Q117.728 1104.19 115.621 1106.78 Q115.043 1107.45 111.941 1110.67 Q108.839 1113.87 103.191 1119.63 Z" fill="#000000" fill-rule="evenodd" fill-opacity="1" /><path clip-path="url(#clip520)" d="M129.371 1089 L147.728 1089 L147.728 1092.94 L133.654 1092.94 L133.654 1101.41 Q134.672 1101.06 135.691 1100.9 Q136.709 1100.72 137.728 1100.72 Q143.515 1100.72 146.894 1103.89 Q150.274 1107.06 150.274 1112.48 Q150.274 1118.06 146.802 1121.16 Q143.33 1124.24 137.01 1124.24 Q134.834 1124.24 132.566 1123.87 Q130.32 1123.49 127.913 1122.75 L127.913 1118.06 Q129.996 1119.19 132.219 1119.74 Q134.441 1120.3 136.918 1120.3 Q140.922 1120.3 143.26 1118.19 Q145.598 1116.09 145.598 1112.48 Q145.598 1108.87 143.26 1106.76 Q140.922 1104.65 136.918 1104.65 Q135.043 1104.65 133.168 1105.07 Q131.316 1105.49 129.371 1106.37 L129.371 1089 Z" fill="#000000" fill-rule="evenodd" fill-opacity="1" /><path clip-path="url(#clip520)" d="M62.9365 752.638 Q59.3254 752.638 57.4967 756.203 Q55.6912 759.745 55.6912 766.875 Q55.6912 773.981 57.4967 777.546 Q59.3254 781.087 62.9365 781.087 Q66.5707 781.087 68.3763 777.546 Q70.205 773.981 70.205 766.875 Q70.205 759.745 68.3763 756.203 Q66.5707 752.638 62.9365 752.638 M62.9365 748.935 Q68.7467 748.935 71.8022 753.541 Q74.8809 758.125 74.8809 766.875 Q74.8809 775.601 71.8022 780.208 Q68.7467 784.791 62.9365 784.791 Q57.1264 784.791 54.0477 780.208 Q50.9921 775.601 50.9921 766.875 Q50.9921 758.125 54.0477 753.541 Q57.1264 748.935 62.9365 748.935 Z" fill="#000000" fill-rule="evenodd" fill-opacity="1" /><path clip-path="url(#clip520)" d="M83.0984 778.24 L87.9827 778.24 L87.9827 784.12 L83.0984 784.12 L83.0984 778.24 Z" fill="#000000" fill-rule="evenodd" fill-opacity="1" /><path clip-path="url(#clip520)" d="M98.2141 749.56 L116.57 749.56 L116.57 753.495 L102.496 753.495 L102.496 761.967 Q103.515 761.62 104.534 761.458 Q105.552 761.273 106.571 761.273 Q112.358 761.273 115.737 764.444 Q119.117 767.615 119.117 773.032 Q119.117 778.611 115.645 781.712 Q112.172 784.791 105.853 784.791 Q103.677 784.791 101.409 784.421 Q99.1632 784.05 96.7558 783.31 L96.7558 778.611 Q98.8391 779.745 101.061 780.3 Q103.284 780.856 105.76 780.856 Q109.765 780.856 112.103 778.749 Q114.441 776.643 114.441 773.032 Q114.441 769.421 112.103 767.314 Q109.765 765.208 105.76 765.208 Q103.885 765.208 102.01 765.625 Q100.159 766.041 98.2141 766.921 L98.2141 749.56 Z" fill="#000000" fill-rule="evenodd" fill-opacity="1" /><path clip-path="url(#clip520)" d="M138.33 752.638 Q134.719 752.638 132.89 756.203 Q131.084 759.745 131.084 766.875 Q131.084 773.981 132.89 777.546 Q134.719 781.087 138.33 781.087 Q141.964 781.087 143.769 777.546 Q145.598 773.981 145.598 766.875 Q145.598 759.745 143.769 756.203 Q141.964 752.638 138.33 752.638 M138.33 748.935 Q144.14 748.935 147.195 753.541 Q150.274 758.125 150.274 766.875 Q150.274 775.601 147.195 780.208 Q144.14 784.791 138.33 784.791 Q132.519 784.791 129.441 780.208 Q126.385 775.601 126.385 766.875 Q126.385 758.125 129.441 753.541 Q132.519 748.935 138.33 748.935 Z" fill="#000000" fill-rule="evenodd" fill-opacity="1" /><path clip-path="url(#clip520)" d="M63.9319 413.194 Q60.3208 413.194 58.4921 416.759 Q56.6865 420.3 56.6865 427.43 Q56.6865 434.536 58.4921 438.101 Q60.3208 441.643 63.9319 441.643 Q67.5661 441.643 69.3717 438.101 Q71.2004 434.536 71.2004 427.43 Q71.2004 420.3 69.3717 416.759 Q67.5661 413.194 63.9319 413.194 M63.9319 409.49 Q69.742 409.49 72.7976 414.097 Q75.8763 418.68 75.8763 427.43 Q75.8763 436.157 72.7976 440.763 Q69.742 445.346 63.9319 445.346 Q58.1217 445.346 55.043 440.763 Q51.9875 436.157 51.9875 427.43 Q51.9875 418.68 55.043 414.097 Q58.1217 409.49 63.9319 409.49 Z" fill="#000000" fill-rule="evenodd" fill-opacity="1" /><path clip-path="url(#clip520)" d="M84.0938 438.796 L88.978 438.796 L88.978 444.675 L84.0938 444.675 L84.0938 438.796 Z" fill="#000000" fill-rule="evenodd" fill-opacity="1" /><path clip-path="url(#clip520)" d="M97.9826 410.115 L120.205 410.115 L120.205 412.106 L107.658 444.675 L102.774 444.675 L114.58 414.05 L97.9826 414.05 L97.9826 410.115 Z" fill="#000000" fill-rule="evenodd" fill-opacity="1" /><path clip-path="url(#clip520)" d="M129.371 410.115 L147.728 410.115 L147.728 414.05 L133.654 414.05 L133.654 422.523 Q134.672 422.175 135.691 422.013 Q136.709 421.828 137.728 421.828 Q143.515 421.828 146.894 424.999 Q150.274 428.171 150.274 433.587 Q150.274 439.166 146.802 442.268 Q143.33 445.346 137.01 445.346 Q134.834 445.346 132.566 444.976 Q130.32 444.606 127.913 443.865 L127.913 439.166 Q129.996 440.3 132.219 440.856 Q134.441 441.411 136.918 441.411 Q140.922 441.411 143.26 439.305 Q145.598 437.198 145.598 433.587 Q145.598 429.976 143.26 427.87 Q140.922 425.763 136.918 425.763 Q135.043 425.763 133.168 426.18 Q131.316 426.597 129.371 427.476 L129.371 410.115 Z" fill="#000000" fill-rule="evenodd" fill-opacity="1" /><path clip-path="url(#clip520)" d="M53.7467 101.295 L61.3856 101.295 L61.3856 74.9298 L53.0754 76.5965 L53.0754 72.3372 L61.3393 70.6706 L66.0152 70.6706 L66.0152 101.295 L73.654 101.295 L73.654 105.231 L53.7467 105.231 L53.7467 101.295 Z" fill="#000000" fill-rule="evenodd" fill-opacity="1" /><path clip-path="url(#clip520)" d="M83.0984 99.351 L87.9827 99.351 L87.9827 105.231 L83.0984 105.231 L83.0984 99.351 Z" fill="#000000" fill-rule="evenodd" fill-opacity="1" /><path clip-path="url(#clip520)" d="M108.168 73.7493 Q104.557 73.7493 102.728 77.3141 Q100.922 80.8557 100.922 87.9853 Q100.922 95.0917 102.728 98.6565 Q104.557 102.198 108.168 102.198 Q111.802 102.198 113.608 98.6565 Q115.436 95.0917 115.436 87.9853 Q115.436 80.8557 113.608 77.3141 Q111.802 73.7493 108.168 73.7493 M108.168 70.0456 Q113.978 70.0456 117.033 74.652 Q120.112 79.2353 120.112 87.9853 Q120.112 96.7121 117.033 101.319 Q113.978 105.902 108.168 105.902 Q102.358 105.902 99.2789 101.319 Q96.2234 96.7121 96.2234 87.9853 Q96.2234 79.2353 99.2789 74.652 Q102.358 70.0456 108.168 70.0456 Z" fill="#000000" fill-rule="evenodd" fill-opacity="1" /><path clip-path="url(#clip520)" d="M138.33 73.7493 Q134.719 73.7493 132.89 77.3141 Q131.084 80.8557 131.084 87.9853 Q131.084 95.0917 132.89 98.6565 Q134.719 102.198 138.33 102.198 Q141.964 102.198 143.769 98.6565 Q145.598 95.0917 145.598 87.9853 Q145.598 80.8557 143.769 77.3141 Q141.964 73.7493 138.33 73.7493 M138.33 70.0456 Q144.14 70.0456 147.195 74.652 Q150.274 79.2353 150.274 87.9853 Q150.274 96.7121 147.195 101.319 Q144.14 105.902 138.33 105.902 Q132.519 105.902 129.441 101.319 Q126.385 96.7121 126.385 87.9853 Q126.385 79.2353 129.441 74.652 Q132.519 70.0456 138.33 70.0456 Z" fill="#000000" fill-rule="evenodd" fill-opacity="1" /><circle clip-path="url(#clip522)" cx="247.59" cy="303.198" r="14.4" fill="#009af9" fill-rule="evenodd" fill-opacity="1" stroke="#000000" stroke-opacity="1" stroke-width="3.2"/>
<circle clip-path="url(#clip522)" cx="263.94" cy="235.769" r="14.4" fill="#009af9" fill-rule="evenodd" fill-opacity="1" stroke="#000000" stroke-opacity="1" stroke-width="3.2"/>
<circle clip-path="url(#clip522)" cx="280.291" cy="180.882" r="14.4" fill="#009af9" fill-rule="evenodd" fill-opacity="1" stroke="#000000" stroke-opacity="1" stroke-width="3.2"/>
<circle clip-path="url(#clip522)" cx="296.642" cy="139.071" r="14.4" fill="#009af9" fill-rule="evenodd" fill-opacity="1" stroke="#000000" stroke-opacity="1" stroke-width="3.2"/>
<circle clip-path="url(#clip522)" cx="312.993" cy="110.223" r="14.4" fill="#009af9" fill-rule="evenodd" fill-opacity="1" stroke="#000000" stroke-opacity="1" stroke-width="3.2"/>
<circle clip-path="url(#clip522)" cx="329.344" cy="93.6144" r="14.4" fill="#009af9" fill-rule="evenodd" fill-opacity="1" stroke="#000000" stroke-opacity="1" stroke-width="3.2"/>
<circle clip-path="url(#clip522)" cx="345.694" cy="87.9763" r="14.4" fill="#009af9" fill-rule="evenodd" fill-opacity="1" stroke="#000000" stroke-opacity="1" stroke-width="3.2"/>
<circle clip-path="url(#clip522)" cx="362.045" cy="91.6086" r="14.4" fill="#009af9" fill-rule="evenodd" fill-opacity="1" stroke="#000000" stroke-opacity="1" stroke-width="3.2"/>
<circle clip-path="url(#clip522)" cx="378.396" cy="102.507" r="14.4" fill="#009af9" fill-rule="evenodd" fill-opacity="1" stroke="#000000" stroke-opacity="1" stroke-width="3.2"/>
<circle clip-path="url(#clip522)" cx="394.747" cy="118.5" r="14.4" fill="#009af9" fill-rule="evenodd" fill-opacity="1" stroke="#000000" stroke-opacity="1" stroke-width="3.2"/>
<circle clip-path="url(#clip522)" cx="411.098" cy="137.386" r="14.4" fill="#009af9" fill-rule="evenodd" fill-opacity="1" stroke="#000000" stroke-opacity="1" stroke-width="3.2"/>
<circle clip-path="url(#clip522)" cx="427.448" cy="157.053" r="14.4" fill="#009af9" fill-rule="evenodd" fill-opacity="1" stroke="#000000" stroke-opacity="1" stroke-width="3.2"/>
<circle clip-path="url(#clip522)" cx="443.799" cy="175.584" r="14.4" fill="#009af9" fill-rule="evenodd" fill-opacity="1" stroke="#000000" stroke-opacity="1" stroke-width="3.2"/>
<circle clip-path="url(#clip522)" cx="460.15" cy="191.338" r="14.4" fill="#009af9" fill-rule="evenodd" fill-opacity="1" stroke="#000000" stroke-opacity="1" stroke-width="3.2"/>
<circle clip-path="url(#clip522)" cx="476.501" cy="203.014" r="14.4" fill="#009af9" fill-rule="evenodd" fill-opacity="1" stroke="#000000" stroke-opacity="1" stroke-width="3.2"/>
<circle clip-path="url(#clip522)" cx="492.852" cy="209.693" r="14.4" fill="#009af9" fill-rule="evenodd" fill-opacity="1" stroke="#000000" stroke-opacity="1" stroke-width="3.2"/>
<circle clip-path="url(#clip522)" cx="509.202" cy="210.864" r="14.4" fill="#009af9" fill-rule="evenodd" fill-opacity="1" stroke="#000000" stroke-opacity="1" stroke-width="3.2"/>
<circle clip-path="url(#clip522)" cx="525.553" cy="206.438" r="14.4" fill="#009af9" fill-rule="evenodd" fill-opacity="1" stroke="#000000" stroke-opacity="1" stroke-width="3.2"/>
<circle clip-path="url(#clip522)" cx="541.904" cy="196.751" r="14.4" fill="#009af9" fill-rule="evenodd" fill-opacity="1" stroke="#000000" stroke-opacity="1" stroke-width="3.2"/>
<circle clip-path="url(#clip522)" cx="558.255" cy="182.557" r="14.4" fill="#009af9" fill-rule="evenodd" fill-opacity="1" stroke="#000000" stroke-opacity="1" stroke-width="3.2"/>
<circle clip-path="url(#clip522)" cx="574.606" cy="165" r="14.4" fill="#009af9" fill-rule="evenodd" fill-opacity="1" stroke="#000000" stroke-opacity="1" stroke-width="3.2"/>
<circle clip-path="url(#clip522)" cx="590.956" cy="145.587" r="14.4" fill="#009af9" fill-rule="evenodd" fill-opacity="1" stroke="#000000" stroke-opacity="1" stroke-width="3.2"/>
<circle clip-path="url(#clip522)" cx="607.307" cy="126.128" r="14.4" fill="#009af9" fill-rule="evenodd" fill-opacity="1" stroke="#000000" stroke-opacity="1" stroke-width="3.2"/>
<circle clip-path="url(#clip522)" cx="623.658" cy="108.667" r="14.4" fill="#009af9" fill-rule="evenodd" fill-opacity="1" stroke="#000000" stroke-opacity="1" stroke-width="3.2"/>
<circle clip-path="url(#clip522)" cx="640.009" cy="95.3811" r="14.4" fill="#009af9" fill-rule="evenodd" fill-opacity="1" stroke="#000000" stroke-opacity="1" stroke-width="3.2"/>
<circle clip-path="url(#clip522)" cx="656.36" cy="88.4705" r="14.4" fill="#009af9" fill-rule="evenodd" fill-opacity="1" stroke="#000000" stroke-opacity="1" stroke-width="3.2"/>
<circle clip-path="url(#clip522)" cx="672.711" cy="90.0258" r="14.4" fill="#009af9" fill-rule="evenodd" fill-opacity="1" stroke="#000000" stroke-opacity="1" stroke-width="3.2"/>
<circle clip-path="url(#clip522)" cx="689.061" cy="101.89" r="14.4" fill="#009af9" fill-rule="evenodd" fill-opacity="1" stroke="#000000" stroke-opacity="1" stroke-width="3.2"/>
<circle clip-path="url(#clip522)" cx="705.412" cy="125.526" r="14.4" fill="#009af9" fill-rule="evenodd" fill-opacity="1" stroke="#000000" stroke-opacity="1" stroke-width="3.2"/>
<circle clip-path="url(#clip522)" cx="721.763" cy="161.895" r="14.4" fill="#009af9" fill-rule="evenodd" fill-opacity="1" stroke="#000000" stroke-opacity="1" stroke-width="3.2"/>
<circle clip-path="url(#clip522)" cx="738.114" cy="211.372" r="14.4" fill="#009af9" fill-rule="evenodd" fill-opacity="1" stroke="#000000" stroke-opacity="1" stroke-width="3.2"/>
<circle clip-path="url(#clip522)" cx="754.465" cy="273.69" r="14.4" fill="#009af9" fill-rule="evenodd" fill-opacity="1" stroke="#000000" stroke-opacity="1" stroke-width="3.2"/>
<circle clip-path="url(#clip522)" cx="770.815" cy="347.943" r="14.4" fill="#009af9" fill-rule="evenodd" fill-opacity="1" stroke="#000000" stroke-opacity="1" stroke-width="3.2"/>
<circle clip-path="url(#clip522)" cx="787.166" cy="432.628" r="14.4" fill="#009af9" fill-rule="evenodd" fill-opacity="1" stroke="#000000" stroke-opacity="1" stroke-width="3.2"/>
<circle clip-path="url(#clip522)" cx="803.517" cy="525.734" r="14.4" fill="#009af9" fill-rule="evenodd" fill-opacity="1" stroke="#000000" stroke-opacity="1" stroke-width="3.2"/>
<circle clip-path="url(#clip522)" cx="819.868" cy="624.867" r="14.4" fill="#009af9" fill-rule="evenodd" fill-opacity="1" stroke="#000000" stroke-opacity="1" stroke-width="3.2"/>
<circle clip-path="url(#clip522)" cx="836.219" cy="727.398" r="14.4" fill="#009af9" fill-rule="evenodd" fill-opacity="1" stroke="#000000" stroke-opacity="1" stroke-width="3.2"/>
<circle clip-path="url(#clip522)" cx="852.569" cy="830.611" r="14.4" fill="#009af9" fill-rule="evenodd" fill-opacity="1" stroke="#000000" stroke-opacity="1" stroke-width="3.2"/>
<circle clip-path="url(#clip522)" cx="868.92" cy="931.851" r="14.4" fill="#009af9" fill-rule="evenodd" fill-opacity="1" stroke="#000000" stroke-opacity="1" stroke-width="3.2"/>
<circle clip-path="url(#clip522)" cx="885.271" cy="1028.64" r="14.4" fill="#009af9" fill-rule="evenodd" fill-opacity="1" stroke="#000000" stroke-opacity="1" stroke-width="3.2"/>
<circle clip-path="url(#clip522)" cx="901.622" cy="1118.77" r="14.4" fill="#009af9" fill-rule="evenodd" fill-opacity="1" stroke="#000000" stroke-opacity="1" stroke-width="3.2"/>
<circle clip-path="url(#clip522)" cx="917.973" cy="1200.35" r="14.4" fill="#009af9" fill-rule="evenodd" fill-opacity="1" stroke="#000000" stroke-opacity="1" stroke-width="3.2"/>
<circle clip-path="url(#clip522)" cx="934.323" cy="1271.84" r="14.4" fill="#009af9" fill-rule="evenodd" fill-opacity="1" stroke="#000000" stroke-opacity="1" stroke-width="3.2"/>
<circle clip-path="url(#clip522)" cx="950.674" cy="1332.03" r="14.4" fill="#009af9" fill-rule="evenodd" fill-opacity="1" stroke="#000000" stroke-opacity="1" stroke-width="3.2"/>
<circle clip-path="url(#clip522)" cx="967.025" cy="1380.04" r="14.4" fill="#009af9" fill-rule="evenodd" fill-opacity="1" stroke="#000000" stroke-opacity="1" stroke-width="3.2"/>
<circle clip-path="url(#clip522)" cx="983.376" cy="1415.22" r="14.4" fill="#009af9" fill-rule="evenodd" fill-opacity="1" stroke="#000000" stroke-opacity="1" stroke-width="3.2"/>
<circle clip-path="url(#clip522)" cx="999.727" cy="1437.16" r="14.4" fill="#009af9" fill-rule="evenodd" fill-opacity="1" stroke="#000000" stroke-opacity="1" stroke-width="3.2"/>
<circle clip-path="url(#clip522)" cx="1016.08" cy="1445.62" r="14.4" fill="#009af9" fill-rule="evenodd" fill-opacity="1" stroke="#000000" stroke-opacity="1" stroke-width="3.2"/>
<circle clip-path="url(#clip522)" cx="1032.43" cy="1440.52" r="14.4" fill="#009af9" fill-rule="evenodd" fill-opacity="1" stroke="#000000" stroke-opacity="1" stroke-width="3.2"/>
<circle clip-path="url(#clip522)" cx="1048.78" cy="1421.9" r="14.4" fill="#009af9" fill-rule="evenodd" fill-opacity="1" stroke="#000000" stroke-opacity="1" stroke-width="3.2"/>
<circle clip-path="url(#clip522)" cx="1065.13" cy="1389.97" r="14.4" fill="#009af9" fill-rule="evenodd" fill-opacity="1" stroke="#000000" stroke-opacity="1" stroke-width="3.2"/>
<circle clip-path="url(#clip522)" cx="1081.48" cy="1345.09" r="14.4" fill="#009af9" fill-rule="evenodd" fill-opacity="1" stroke="#000000" stroke-opacity="1" stroke-width="3.2"/>
<circle clip-path="url(#clip522)" cx="1097.83" cy="1287.84" r="14.4" fill="#009af9" fill-rule="evenodd" fill-opacity="1" stroke="#000000" stroke-opacity="1" stroke-width="3.2"/>
<circle clip-path="url(#clip522)" cx="1114.18" cy="1219.05" r="14.4" fill="#009af9" fill-rule="evenodd" fill-opacity="1" stroke="#000000" stroke-opacity="1" stroke-width="3.2"/>
<circle clip-path="url(#clip522)" cx="1130.53" cy="1139.84" r="14.4" fill="#009af9" fill-rule="evenodd" fill-opacity="1" stroke="#000000" stroke-opacity="1" stroke-width="3.2"/>
<circle clip-path="url(#clip522)" cx="1146.88" cy="1051.67" r="14.4" fill="#009af9" fill-rule="evenodd" fill-opacity="1" stroke="#000000" stroke-opacity="1" stroke-width="3.2"/>
<circle clip-path="url(#clip522)" cx="1163.23" cy="956.339" r="14.4" fill="#009af9" fill-rule="evenodd" fill-opacity="1" stroke="#000000" stroke-opacity="1" stroke-width="3.2"/>
<circle clip-path="url(#clip522)" cx="1179.59" cy="855.98" r="14.4" fill="#009af9" fill-rule="evenodd" fill-opacity="1" stroke="#000000" stroke-opacity="1" stroke-width="3.2"/>
<circle clip-path="url(#clip522)" cx="1195.94" cy="753.013" r="14.4" fill="#009af9" fill-rule="evenodd" fill-opacity="1" stroke="#000000" stroke-opacity="1" stroke-width="3.2"/>
<circle clip-path="url(#clip522)" cx="1212.29" cy="650.06" r="14.4" fill="#009af9" fill-rule="evenodd" fill-opacity="1" stroke="#000000" stroke-opacity="1" stroke-width="3.2"/>
<circle clip-path="url(#clip522)" cx="1228.64" cy="549.834" r="14.4" fill="#009af9" fill-rule="evenodd" fill-opacity="1" stroke="#000000" stroke-opacity="1" stroke-width="3.2"/>
<circle clip-path="url(#clip522)" cx="1244.99" cy="455" r="14.4" fill="#009af9" fill-rule="evenodd" fill-opacity="1" stroke="#000000" stroke-opacity="1" stroke-width="3.2"/>
<circle clip-path="url(#clip522)" cx="1261.34" cy="368.025" r="14.4" fill="#009af9" fill-rule="evenodd" fill-opacity="1" stroke="#000000" stroke-opacity="1" stroke-width="3.2"/>
<circle clip-path="url(#clip522)" cx="1277.69" cy="291.025" r="14.4" fill="#009af9" fill-rule="evenodd" fill-opacity="1" stroke="#000000" stroke-opacity="1" stroke-width="3.2"/>
<circle clip-path="url(#clip522)" cx="1294.04" cy="225.641" r="14.4" fill="#009af9" fill-rule="evenodd" fill-opacity="1" stroke="#000000" stroke-opacity="1" stroke-width="3.2"/>
<circle clip-path="url(#clip522)" cx="1310.39" cy="172.932" r="14.4" fill="#009af9" fill-rule="evenodd" fill-opacity="1" stroke="#000000" stroke-opacity="1" stroke-width="3.2"/>
<circle clip-path="url(#clip522)" cx="1326.74" cy="133.326" r="14.4" fill="#009af9" fill-rule="evenodd" fill-opacity="1" stroke="#000000" stroke-opacity="1" stroke-width="3.2"/>
<circle clip-path="url(#clip522)" cx="1343.09" cy="106.603" r="14.4" fill="#009af9" fill-rule="evenodd" fill-opacity="1" stroke="#000000" stroke-opacity="1" stroke-width="3.2"/>
<circle clip-path="url(#clip522)" cx="1359.44" cy="91.9407" r="14.4" fill="#009af9" fill-rule="evenodd" fill-opacity="1" stroke="#000000" stroke-opacity="1" stroke-width="3.2"/>
<circle clip-path="url(#clip522)" cx="1375.8" cy="87.9902" r="14.4" fill="#009af9" fill-rule="evenodd" fill-opacity="1" stroke="#000000" stroke-opacity="1" stroke-width="3.2"/>
<circle clip-path="url(#clip522)" cx="1392.15" cy="92.9908" r="14.4" fill="#009af9" fill-rule="evenodd" fill-opacity="1" stroke="#000000" stroke-opacity="1" stroke-width="3.2"/>
<circle clip-path="url(#clip522)" cx="1408.5" cy="104.9" r="14.4" fill="#009af9" fill-rule="evenodd" fill-opacity="1" stroke="#000000" stroke-opacity="1" stroke-width="3.2"/>
<circle clip-path="url(#clip522)" cx="1424.85" cy="121.533" r="14.4" fill="#009af9" fill-rule="evenodd" fill-opacity="1" stroke="#000000" stroke-opacity="1" stroke-width="3.2"/>
<circle clip-path="url(#clip522)" cx="1441.2" cy="140.694" r="14.4" fill="#009af9" fill-rule="evenodd" fill-opacity="1" stroke="#000000" stroke-opacity="1" stroke-width="3.2"/>
<circle clip-path="url(#clip522)" cx="1457.55" cy="160.297" r="14.4" fill="#009af9" fill-rule="evenodd" fill-opacity="1" stroke="#000000" stroke-opacity="1" stroke-width="3.2"/>
<circle clip-path="url(#clip522)" cx="1473.9" cy="178.467" r="14.4" fill="#009af9" fill-rule="evenodd" fill-opacity="1" stroke="#000000" stroke-opacity="1" stroke-width="3.2"/>
<circle clip-path="url(#clip522)" cx="1490.25" cy="193.616" r="14.4" fill="#009af9" fill-rule="evenodd" fill-opacity="1" stroke="#000000" stroke-opacity="1" stroke-width="3.2"/>
<circle clip-path="url(#clip522)" cx="1506.6" cy="204.506" r="14.4" fill="#009af9" fill-rule="evenodd" fill-opacity="1" stroke="#000000" stroke-opacity="1" stroke-width="3.2"/>
<circle clip-path="url(#clip522)" cx="1522.95" cy="210.283" r="14.4" fill="#009af9" fill-rule="evenodd" fill-opacity="1" stroke="#000000" stroke-opacity="1" stroke-width="3.2"/>
<circle clip-path="url(#clip522)" cx="1539.3" cy="210.507" r="14.4" fill="#009af9" fill-rule="evenodd" fill-opacity="1" stroke="#000000" stroke-opacity="1" stroke-width="3.2"/>
<circle clip-path="url(#clip522)" cx="1555.65" cy="205.162" r="14.4" fill="#009af9" fill-rule="evenodd" fill-opacity="1" stroke="#000000" stroke-opacity="1" stroke-width="3.2"/>
<circle clip-path="url(#clip522)" cx="1572" cy="194.653" r="14.4" fill="#009af9" fill-rule="evenodd" fill-opacity="1" stroke="#000000" stroke-opacity="1" stroke-width="3.2"/>
<circle clip-path="url(#clip522)" cx="1588.36" cy="179.803" r="14.4" fill="#009af9" fill-rule="evenodd" fill-opacity="1" stroke="#000000" stroke-opacity="1" stroke-width="3.2"/>
<circle clip-path="url(#clip522)" cx="1604.71" cy="161.82" r="14.4" fill="#009af9" fill-rule="evenodd" fill-opacity="1" stroke="#000000" stroke-opacity="1" stroke-width="3.2"/>
<circle clip-path="url(#clip522)" cx="1621.06" cy="142.265" r="14.4" fill="#009af9" fill-rule="evenodd" fill-opacity="1" stroke="#000000" stroke-opacity="1" stroke-width="3.2"/>
<circle clip-path="url(#clip522)" cx="1637.41" cy="122.994" r="14.4" fill="#009af9" fill-rule="evenodd" fill-opacity="1" stroke="#000000" stroke-opacity="1" stroke-width="3.2"/>
<circle clip-path="url(#clip522)" cx="1653.76" cy="106.081" r="14.4" fill="#009af9" fill-rule="evenodd" fill-opacity="1" stroke="#000000" stroke-opacity="1" stroke-width="3.2"/>
<circle clip-path="url(#clip522)" cx="1670.11" cy="93.7142" r="14.4" fill="#009af9" fill-rule="evenodd" fill-opacity="1" stroke="#000000" stroke-opacity="1" stroke-width="3.2"/>
<circle clip-path="url(#clip522)" cx="1686.46" cy="88.0859" r="14.4" fill="#009af9" fill-rule="evenodd" fill-opacity="1" stroke="#000000" stroke-opacity="1" stroke-width="3.2"/>
<circle clip-path="url(#clip522)" cx="1702.81" cy="91.2545" r="14.4" fill="#009af9" fill-rule="evenodd" fill-opacity="1" stroke="#000000" stroke-opacity="1" stroke-width="3.2"/>
<circle clip-path="url(#clip522)" cx="1719.16" cy="105.008" r="14.4" fill="#009af9" fill-rule="evenodd" fill-opacity="1" stroke="#000000" stroke-opacity="1" stroke-width="3.2"/>
<circle clip-path="url(#clip522)" cx="1735.51" cy="130.733" r="14.4" fill="#009af9" fill-rule="evenodd" fill-opacity="1" stroke="#000000" stroke-opacity="1" stroke-width="3.2"/>
<circle clip-path="url(#clip522)" cx="1751.86" cy="169.297" r="14.4" fill="#009af9" fill-rule="evenodd" fill-opacity="1" stroke="#000000" stroke-opacity="1" stroke-width="3.2"/>
<circle clip-path="url(#clip522)" cx="1768.21" cy="220.969" r="14.4" fill="#009af9" fill-rule="evenodd" fill-opacity="1" stroke="#000000" stroke-opacity="1" stroke-width="3.2"/>
<circle clip-path="url(#clip522)" cx="1784.57" cy="285.375" r="14.4" fill="#009af9" fill-rule="evenodd" fill-opacity="1" stroke="#000000" stroke-opacity="1" stroke-width="3.2"/>
<circle clip-path="url(#clip522)" cx="1800.92" cy="361.502" r="14.4" fill="#009af9" fill-rule="evenodd" fill-opacity="1" stroke="#000000" stroke-opacity="1" stroke-width="3.2"/>
<circle clip-path="url(#clip522)" cx="1817.27" cy="447.756" r="14.4" fill="#009af9" fill-rule="evenodd" fill-opacity="1" stroke="#000000" stroke-opacity="1" stroke-width="3.2"/>
<circle clip-path="url(#clip522)" cx="1833.62" cy="542.051" r="14.4" fill="#009af9" fill-rule="evenodd" fill-opacity="1" stroke="#000000" stroke-opacity="1" stroke-width="3.2"/>
<circle clip-path="url(#clip522)" cx="1849.97" cy="641.943" r="14.4" fill="#009af9" fill-rule="evenodd" fill-opacity="1" stroke="#000000" stroke-opacity="1" stroke-width="3.2"/>
<circle clip-path="url(#clip522)" cx="1866.32" cy="744.779" r="14.4" fill="#009af9" fill-rule="evenodd" fill-opacity="1" stroke="#000000" stroke-opacity="1" stroke-width="3.2"/>
<circle clip-path="url(#clip522)" cx="1882.67" cy="847.843" r="14.4" fill="#009af9" fill-rule="evenodd" fill-opacity="1" stroke="#000000" stroke-opacity="1" stroke-width="3.2"/>
<circle clip-path="url(#clip522)" cx="1899.02" cy="948.501" r="14.4" fill="#009af9" fill-rule="evenodd" fill-opacity="1" stroke="#000000" stroke-opacity="1" stroke-width="3.2"/>
<circle clip-path="url(#clip522)" cx="1915.37" cy="1044.32" r="14.4" fill="#009af9" fill-rule="evenodd" fill-opacity="1" stroke="#000000" stroke-opacity="1" stroke-width="3.2"/>
<circle clip-path="url(#clip522)" cx="1931.72" cy="1133.13" r="14.4" fill="#009af9" fill-rule="evenodd" fill-opacity="1" stroke="#000000" stroke-opacity="1" stroke-width="3.2"/>
<circle clip-path="url(#clip522)" cx="1948.07" cy="1213.11" r="14.4" fill="#009af9" fill-rule="evenodd" fill-opacity="1" stroke="#000000" stroke-opacity="1" stroke-width="3.2"/>
<circle clip-path="url(#clip522)" cx="1964.42" cy="1282.78" r="14.4" fill="#009af9" fill-rule="evenodd" fill-opacity="1" stroke="#000000" stroke-opacity="1" stroke-width="3.2"/>
<circle clip-path="url(#clip522)" cx="1980.78" cy="1340.98" r="14.4" fill="#009af9" fill-rule="evenodd" fill-opacity="1" stroke="#000000" stroke-opacity="1" stroke-width="3.2"/>
<circle clip-path="url(#clip522)" cx="1997.13" cy="1386.87" r="14.4" fill="#009af9" fill-rule="evenodd" fill-opacity="1" stroke="#000000" stroke-opacity="1" stroke-width="3.2"/>
<circle clip-path="url(#clip522)" cx="2013.48" cy="1419.85" r="14.4" fill="#009af9" fill-rule="evenodd" fill-opacity="1" stroke="#000000" stroke-opacity="1" stroke-width="3.2"/>
<circle clip-path="url(#clip522)" cx="2029.83" cy="1439.53" r="14.4" fill="#009af9" fill-rule="evenodd" fill-opacity="1" stroke="#000000" stroke-opacity="1" stroke-width="3.2"/>
<circle clip-path="url(#clip522)" cx="2046.18" cy="1445.72" r="14.4" fill="#009af9" fill-rule="evenodd" fill-opacity="1" stroke="#000000" stroke-opacity="1" stroke-width="3.2"/>
<circle clip-path="url(#clip522)" cx="2062.53" cy="1438.33" r="14.4" fill="#009af9" fill-rule="evenodd" fill-opacity="1" stroke="#000000" stroke-opacity="1" stroke-width="3.2"/>
<circle clip-path="url(#clip522)" cx="2078.88" cy="1417.46" r="14.4" fill="#009af9" fill-rule="evenodd" fill-opacity="1" stroke="#000000" stroke-opacity="1" stroke-width="3.2"/>
<circle clip-path="url(#clip522)" cx="2095.23" cy="1383.32" r="14.4" fill="#009af9" fill-rule="evenodd" fill-opacity="1" stroke="#000000" stroke-opacity="1" stroke-width="3.2"/>
<circle clip-path="url(#clip522)" cx="2111.58" cy="1336.31" r="14.4" fill="#009af9" fill-rule="evenodd" fill-opacity="1" stroke="#000000" stroke-opacity="1" stroke-width="3.2"/>
<circle clip-path="url(#clip522)" cx="2127.93" cy="1277.06" r="14.4" fill="#009af9" fill-rule="evenodd" fill-opacity="1" stroke="#000000" stroke-opacity="1" stroke-width="3.2"/>
<circle clip-path="url(#clip522)" cx="2144.28" cy="1206.43" r="14.4" fill="#009af9" fill-rule="evenodd" fill-opacity="1" stroke="#000000" stroke-opacity="1" stroke-width="3.2"/>
<circle clip-path="url(#clip522)" cx="2160.63" cy="1125.6" r="14.4" fill="#009af9" fill-rule="evenodd" fill-opacity="1" stroke="#000000" stroke-opacity="1" stroke-width="3.2"/>
<circle clip-path="url(#clip522)" cx="2176.98" cy="1036.09" r="14.4" fill="#009af9" fill-rule="evenodd" fill-opacity="1" stroke="#000000" stroke-opacity="1" stroke-width="3.2"/>
<circle clip-path="url(#clip522)" cx="2193.34" cy="939.753" r="14.4" fill="#009af9" fill-rule="evenodd" fill-opacity="1" stroke="#000000" stroke-opacity="1" stroke-width="3.2"/>
<circle clip-path="url(#clip522)" cx="2209.69" cy="838.78" r="14.4" fill="#009af9" fill-rule="evenodd" fill-opacity="1" stroke="#000000" stroke-opacity="1" stroke-width="3.2"/>
<circle clip-path="url(#clip522)" cx="2226.04" cy="735.628" r="14.4" fill="#009af9" fill-rule="evenodd" fill-opacity="1" stroke="#000000" stroke-opacity="1" stroke-width="3.2"/>
<circle clip-path="url(#clip522)" cx="2242.39" cy="632.943" r="14.4" fill="#009af9" fill-rule="evenodd" fill-opacity="1" stroke="#000000" stroke-opacity="1" stroke-width="3.2"/>
<circle clip-path="url(#clip522)" cx="2258.74" cy="533.441" r="14.4" fill="#009af9" fill-rule="evenodd" fill-opacity="1" stroke="#000000" stroke-opacity="1" stroke-width="3.2"/>
<circle clip-path="url(#clip522)" cx="2275.09" cy="439.763" r="14.4" fill="#009af9" fill-rule="evenodd" fill-opacity="1" stroke="#000000" stroke-opacity="1" stroke-width="3.2"/>
<circle clip-path="url(#clip522)" cx="2291.44" cy="354.328" r="14.4" fill="#009af9" fill-rule="evenodd" fill-opacity="1" stroke="#000000" stroke-opacity="1" stroke-width="3.2"/>
<path clip-path="url(#clip520)" d="
M1987.39 198.898 L2280.54 198.898 L2280.54 95.2176 L1987.39 95.2176  Z
  " fill="#ffffff" fill-rule="evenodd" fill-opacity="1"/>
<polyline clip-path="url(#clip520)" style="stroke:#000000; stroke-linecap:butt; stroke-linejoin:round; stroke-width:4; stroke-opacity:1; fill:none" points="
  1987.39,198.898 2280.54,198.898 2280.54,95.2176 1987.39,95.2176 1987.39,198.898 
  "/>
<circle clip-path="url(#clip520)" cx="2083.68" cy="147.058" r="23.04" fill="#009af9" fill-rule="evenodd" fill-opacity="1" stroke="#000000" stroke-opacity="1" stroke-width="5.12"/>
<path clip-path="url(#clip520)" d="M2193.81 166.745 Q2192 171.375 2190.29 172.787 Q2188.58 174.199 2185.71 174.199 L2182.3 174.199 L2182.3 170.634 L2184.8 170.634 Q2186.56 170.634 2187.53 169.8 Q2188.51 168.967 2189.69 165.865 L2190.45 163.921 L2179.97 138.412 L2184.48 138.412 L2192.58 158.689 L2200.68 138.412 L2205.2 138.412 L2193.81 166.745 Z" fill="#000000" fill-rule="evenodd" fill-opacity="1" /><path clip-path="url(#clip520)" d="M2212.49 160.402 L2220.13 160.402 L2220.13 134.037 L2211.82 135.703 L2211.82 131.444 L2220.08 129.778 L2224.76 129.778 L2224.76 160.402 L2232.4 160.402 L2232.4 164.338 L2212.49 164.338 L2212.49 160.402 Z" fill="#000000" fill-rule="evenodd" fill-opacity="1" /></svg>
