<?xml version="1.0" encoding="utf-8"?>
<svg xmlns="http://www.w3.org/2000/svg" xmlns:xlink="http://www.w3.org/1999/xlink" width="600" height="400" viewBox="0 0 2400 1600">
<defs>
  <clipPath id="clip110">
    <rect x="0" y="0" width="2400" height="1600"/>
  </clipPath>
</defs>
<path clip-path="url(#clip110)" d="
M0 1600 L2400 1600 L2400 0 L0 0  Z
  " fill="#ffffff" fill-rule="evenodd" fill-opacity="1"/>
<defs>
  <clipPath id="clip111">
    <rect x="480" y="0" width="1681" height="1600"/>
  </clipPath>
</defs>
<path clip-path="url(#clip110)" d="
M186.274 1423.18 L2352.76 1423.18 L2352.76 47.2441 L186.274 47.2441  Z
  " fill="#ffffff" fill-rule="evenodd" fill-opacity="1"/>
<defs>
  <clipPath id="clip112">
    <rect x="186" y="47" width="2167" height="1377"/>
  </clipPath>
</defs>
<polyline clip-path="url(#clip112)" style="stroke:#000000; stroke-linecap:butt; stroke-linejoin:round; stroke-width:2; stroke-opacity:0.1; fill:none" points="
  186.274,1423.18 186.274,47.2441 
  "/>
<polyline clip-path="url(#clip112)" style="stroke:#000000; stroke-linecap:butt; stroke-linejoin:round; stroke-width:2; stroke-opacity:0.1; fill:none" points="
  727.894,1423.18 727.894,47.2441 
  "/>
<polyline clip-path="url(#clip112)" style="stroke:#000000; stroke-linecap:butt; stroke-linejoin:round; stroke-width:2; stroke-opacity:0.1; fill:none" points="
  1269.51,1423.18 1269.51,47.2441 
  "/>
<polyline clip-path="url(#clip112)" style="stroke:#000000; stroke-linecap:butt; stroke-linejoin:round; stroke-width:2; stroke-opacity:0.1; fill:none" points="
  1811.14,1423.18 1811.14,47.2441 
  "/>
<polyline clip-path="url(#clip112)" style="stroke:#000000; stroke-linecap:butt; stroke-linejoin:round; stroke-width:2; stroke-opacity:0.1; fill:none" points="
  2352.76,1423.18 2352.76,47.2441 
  "/>
<polyline clip-path="url(#clip110)" style="stroke:#000000; stroke-linecap:butt; stroke-linejoin:round; stroke-width:4; stroke-opacity:1; fill:none" points="
  186.274,1423.18 2352.76,1423.18 
  "/>
<polyline clip-path="url(#clip110)" style="stroke:#000000; stroke-linecap:butt; stroke-linejoin:round; stroke-width:4; stroke-opacity:1; fill:none" points="
  186.274,1423.18 186.274,1404.28 
  "/>
<polyline clip-path="url(#clip110)" style="stroke:#000000; stroke-linecap:butt; stroke-linejoin:round; stroke-width:4; stroke-opacity:1; fill:none" points="
  727.894,1423.18 727.894,1404.28 
  "/>
<polyline clip-path="url(#clip110)" style="stroke:#000000; stroke-linecap:butt; stroke-linejoin:round; stroke-width:4; stroke-opacity:1; fill:none" points="
  1269.51,1423.18 1269.51,1404.28 
  "/>
<polyline clip-path="url(#clip110)" style="stroke:#000000; stroke-linecap:butt; stroke-linejoin:round; stroke-width:4; stroke-opacity:1; fill:none" points="
  1811.14,1423.18 1811.14,1404.28 
  "/>
<polyline clip-path="url(#clip110)" style="stroke:#000000; stroke-linecap:butt; stroke-linejoin:round; stroke-width:4; stroke-opacity:1; fill:none" points="
  2352.76,1423.18 2352.76,1404.28 
  "/>
<path clip-path="url(#clip110)" d="M186.274 1454.1 Q182.663 1454.1 180.834 1457.66 Q179.029 1461.2 179.029 1468.33 Q179.029 1475.44 180.834 1479.01 Q182.663 1482.55 186.274 1482.55 Q189.908 1482.55 191.714 1479.01 Q193.542 1475.44 193.542 1468.33 Q193.542 1461.2 191.714 1457.66 Q189.908 1454.1 186.274 1454.1 M186.274 1450.39 Q192.084 1450.39 195.14 1455 Q198.218 1459.58 198.218 1468.33 Q198.218 1477.06 195.14 1481.67 Q192.084 1486.25 186.274 1486.25 Q180.464 1486.25 177.385 1481.67 Q174.33 1477.06 174.33 1468.33 Q174.33 1459.58 177.385 1455 Q180.464 1450.39 186.274 1450.39 Z" fill="#000000" fill-rule="evenodd" fill-opacity="1" /><path clip-path="url(#clip110)" d="M718.172 1451.02 L736.529 1451.02 L736.529 1454.96 L722.455 1454.96 L722.455 1463.43 Q723.473 1463.08 724.492 1462.92 Q725.51 1462.73 726.529 1462.73 Q732.316 1462.73 735.695 1465.9 Q739.075 1469.08 739.075 1474.49 Q739.075 1480.07 735.603 1483.17 Q732.131 1486.25 725.811 1486.25 Q723.635 1486.25 721.367 1485.88 Q719.121 1485.51 716.714 1484.77 L716.714 1480.07 Q718.797 1481.2 721.02 1481.76 Q723.242 1482.32 725.719 1482.32 Q729.723 1482.32 732.061 1480.21 Q734.399 1478.1 734.399 1474.49 Q734.399 1470.88 732.061 1468.77 Q729.723 1466.67 725.719 1466.67 Q723.844 1466.67 721.969 1467.08 Q720.117 1467.5 718.172 1468.38 L718.172 1451.02 Z" fill="#000000" fill-rule="evenodd" fill-opacity="1" /><path clip-path="url(#clip110)" d="M1244.2 1481.64 L1251.84 1481.64 L1251.84 1455.28 L1243.53 1456.95 L1243.53 1452.69 L1251.8 1451.02 L1256.47 1451.02 L1256.47 1481.64 L1264.11 1481.64 L1264.11 1485.58 L1244.2 1485.58 L1244.2 1481.64 Z" fill="#000000" fill-rule="evenodd" fill-opacity="1" /><path clip-path="url(#clip110)" d="M1283.55 1454.1 Q1279.94 1454.1 1278.11 1457.66 Q1276.31 1461.2 1276.31 1468.33 Q1276.31 1475.44 1278.11 1479.01 Q1279.94 1482.55 1283.55 1482.55 Q1287.19 1482.55 1288.99 1479.01 Q1290.82 1475.44 1290.82 1468.33 Q1290.82 1461.2 1288.99 1457.66 Q1287.19 1454.1 1283.55 1454.1 M1283.55 1450.39 Q1289.36 1450.39 1292.42 1455 Q1295.5 1459.58 1295.5 1468.33 Q1295.5 1477.06 1292.42 1481.67 Q1289.36 1486.25 1283.55 1486.25 Q1277.74 1486.25 1274.67 1481.67 Q1271.61 1477.06 1271.61 1468.33 Q1271.61 1459.58 1274.67 1455 Q1277.74 1450.39 1283.55 1450.39 Z" fill="#000000" fill-rule="evenodd" fill-opacity="1" /><path clip-path="url(#clip110)" d="M1786.32 1481.64 L1793.96 1481.64 L1793.96 1455.28 L1785.65 1456.95 L1785.65 1452.69 L1793.91 1451.02 L1798.59 1451.02 L1798.59 1481.64 L1806.23 1481.64 L1806.23 1485.58 L1786.32 1485.58 L1786.32 1481.64 Z" fill="#000000" fill-rule="evenodd" fill-opacity="1" /><path clip-path="url(#clip110)" d="M1815.72 1451.02 L1834.08 1451.02 L1834.08 1454.96 L1820 1454.96 L1820 1463.43 Q1821.02 1463.08 1822.04 1462.92 Q1823.06 1462.73 1824.08 1462.73 Q1829.86 1462.73 1833.24 1465.9 Q1836.62 1469.08 1836.62 1474.49 Q1836.62 1480.07 1833.15 1483.17 Q1829.68 1486.25 1823.36 1486.25 Q1821.18 1486.25 1818.91 1485.88 Q1816.67 1485.51 1814.26 1484.77 L1814.26 1480.07 Q1816.34 1481.2 1818.57 1481.76 Q1820.79 1482.32 1823.26 1482.32 Q1827.27 1482.32 1829.61 1480.21 Q1831.95 1478.1 1831.95 1474.49 Q1831.95 1470.88 1829.61 1468.77 Q1827.27 1466.67 1823.26 1466.67 Q1821.39 1466.67 1819.52 1467.08 Q1817.66 1467.5 1815.72 1468.38 L1815.72 1451.02 Z" fill="#000000" fill-rule="evenodd" fill-opacity="1" /><path clip-path="url(#clip110)" d="M2331.53 1481.64 L2347.85 1481.64 L2347.85 1485.58 L2325.9 1485.58 L2325.9 1481.64 Q2328.57 1478.89 2333.15 1474.26 Q2337.76 1469.61 2338.94 1468.27 Q2341.18 1465.74 2342.06 1464.01 Q2342.96 1462.25 2342.96 1460.56 Q2342.96 1457.8 2341.02 1456.07 Q2339.1 1454.33 2336 1454.33 Q2333.8 1454.33 2331.34 1455.09 Q2328.91 1455.86 2326.14 1457.41 L2326.14 1452.69 Q2328.96 1451.55 2331.41 1450.97 Q2333.87 1450.39 2335.9 1450.39 Q2341.27 1450.39 2344.47 1453.08 Q2347.66 1455.77 2347.66 1460.26 Q2347.66 1462.39 2346.85 1464.31 Q2346.07 1466.2 2343.96 1468.8 Q2343.38 1469.47 2340.28 1472.69 Q2337.18 1475.88 2331.53 1481.64 Z" fill="#000000" fill-rule="evenodd" fill-opacity="1" /><path clip-path="url(#clip110)" d="M2367.66 1454.1 Q2364.05 1454.1 2362.22 1457.66 Q2360.42 1461.2 2360.42 1468.33 Q2360.42 1475.44 2362.22 1479.01 Q2364.05 1482.55 2367.66 1482.55 Q2371.3 1482.55 2373.1 1479.01 Q2374.93 1475.44 2374.93 1468.33 Q2374.93 1461.2 2373.1 1457.66 Q2371.3 1454.1 2367.66 1454.1 M2367.66 1450.39 Q2373.47 1450.39 2376.53 1455 Q2379.61 1459.58 2379.61 1468.33 Q2379.61 1477.06 2376.53 1481.67 Q2373.47 1486.25 2367.66 1486.25 Q2361.85 1486.25 2358.77 1481.67 Q2355.72 1477.06 2355.72 1468.33 Q2355.72 1459.58 2358.77 1455 Q2361.85 1450.39 2367.66 1450.39 Z" fill="#000000" fill-rule="evenodd" fill-opacity="1" /><path clip-path="url(#clip110)" d="M1268.58 1522.27 L1268.58 1532.4 L1280.64 1532.4 L1280.64 1536.95 L1268.58 1536.95 L1268.58 1556.3 Q1268.58 1560.66 1269.75 1561.9 Q1270.96 1563.14 1274.62 1563.14 L1280.64 1563.14 L1280.64 1568.04 L1274.62 1568.04 Q1267.84 1568.04 1265.27 1565.53 Q1262.69 1562.98 1262.69 1556.3 L1262.69 1536.95 L1258.39 1536.95 L1258.39 1532.4 L1262.69 1532.4 L1262.69 1522.27 L1268.58 1522.27 Z" fill="#000000" fill-rule="evenodd" fill-opacity="1" /><polyline clip-path="url(#clip112)" style="stroke:#000000; stroke-linecap:butt; stroke-linejoin:round; stroke-width:2; stroke-opacity:0.1; fill:none" points="
  186.274,1384.24 2352.76,1384.24 
  "/>
<polyline clip-path="url(#clip112)" style="stroke:#000000; stroke-linecap:butt; stroke-linejoin:round; stroke-width:2; stroke-opacity:0.1; fill:none" points="
  186.274,1056.45 2352.76,1056.45 
  "/>
<polyline clip-path="url(#clip112)" style="stroke:#000000; stroke-linecap:butt; stroke-linejoin:round; stroke-width:2; stroke-opacity:0.1; fill:none" points="
  186.274,728.656 2352.76,728.656 
  "/>
<polyline clip-path="url(#clip112)" style="stroke:#000000; stroke-linecap:butt; stroke-linejoin:round; stroke-width:2; stroke-opacity:0.1; fill:none" points="
  186.274,400.865 2352.76,400.865 
  "/>
<polyline clip-path="url(#clip112)" style="stroke:#000000; stroke-linecap:butt; stroke-linejoin:round; stroke-width:2; stroke-opacity:0.1; fill:none" points="
  186.274,73.074 2352.76,73.074 
  "/>
<polyline clip-path="url(#clip110)" style="stroke:#000000; stroke-linecap:butt; stroke-linejoin:round; stroke-width:4; stroke-opacity:1; fill:none" points="
  186.274,1423.18 186.274,47.2441 
  "/>
<polyline clip-path="url(#clip110)" style="stroke:#000000; stroke-linecap:butt; stroke-linejoin:round; stroke-width:4; stroke-opacity:1; fill:none" points="
  186.274,1384.24 205.172,1384.24 
  "/>
<polyline clip-path="url(#clip110)" style="stroke:#000000; stroke-linecap:butt; stroke-linejoin:round; stroke-width:4; stroke-opacity:1; fill:none" points="
  186.274,1056.45 205.172,1056.45 
  "/>
<polyline clip-path="url(#clip110)" style="stroke:#000000; stroke-linecap:butt; stroke-linejoin:round; stroke-width:4; stroke-opacity:1; fill:none" points="
  186.274,728.656 205.172,728.656 
  "/>
<polyline clip-path="url(#clip110)" style="stroke:#000000; stroke-linecap:butt; stroke-linejoin:round; stroke-width:4; stroke-opacity:1; fill:none" points="
  186.274,400.865 205.172,400.865 
  "/>
<polyline clip-path="url(#clip110)" style="stroke:#000000; stroke-linecap:butt; stroke-linejoin:round; stroke-width:4; stroke-opacity:1; fill:none" points="
  186.274,73.074 205.172,73.074 
  "/>
<path clip-path="url(#clip110)" d="M62.9365 1370.04 Q59.3254 1370.04 57.4967 1373.6 Q55.6912 1377.14 55.6912 1384.27 Q55.6912 1391.38 57.4967 1394.94 Q59.3254 1398.49 62.9365 1398.49 Q66.5707 1398.49 68.3763 1394.94 Q70.205 1391.38 70.205 1384.27 Q70.205 1377.14 68.3763 1373.6 Q66.5707 1370.04 62.9365 1370.04 M62.9365 1366.33 Q68.7467 1366.33 71.8022 1370.94 Q74.8809 1375.52 74.8809 1384.27 Q74.8809 1393 71.8022 1397.61 Q68.7467 1402.19 62.9365 1402.19 Q57.1264 1402.19 54.0477 1397.61 Q50.9921 1393 50.9921 1384.27 Q50.9921 1375.52 54.0477 1370.94 Q57.1264 1366.33 62.9365 1366.33 Z" fill="#000000" fill-rule="evenodd" fill-opacity="1" /><path clip-path="url(#clip110)" d="M83.0984 1395.64 L87.9827 1395.64 L87.9827 1401.52 L83.0984 1401.52 L83.0984 1395.64 Z" fill="#000000" fill-rule="evenodd" fill-opacity="1" /><path clip-path="url(#clip110)" d="M108.168 1370.04 Q104.557 1370.04 102.728 1373.6 Q100.922 1377.14 100.922 1384.27 Q100.922 1391.38 102.728 1394.94 Q104.557 1398.49 108.168 1398.49 Q111.802 1398.49 113.608 1394.94 Q115.436 1391.38 115.436 1384.27 Q115.436 1377.14 113.608 1373.6 Q111.802 1370.04 108.168 1370.04 M108.168 1366.33 Q113.978 1366.33 117.033 1370.94 Q120.112 1375.52 120.112 1384.27 Q120.112 1393 117.033 1397.61 Q113.978 1402.19 108.168 1402.19 Q102.358 1402.19 99.2789 1397.61 Q96.2234 1393 96.2234 1384.27 Q96.2234 1375.52 99.2789 1370.94 Q102.358 1366.33 108.168 1366.33 Z" fill="#000000" fill-rule="evenodd" fill-opacity="1" /><path clip-path="url(#clip110)" d="M138.33 1370.04 Q134.719 1370.04 132.89 1373.6 Q131.084 1377.14 131.084 1384.27 Q131.084 1391.38 132.89 1394.94 Q134.719 1398.49 138.33 1398.49 Q141.964 1398.49 143.769 1394.94 Q145.598 1391.38 145.598 1384.27 Q145.598 1377.14 143.769 1373.6 Q141.964 1370.04 138.33 1370.04 M138.33 1366.33 Q144.14 1366.33 147.195 1370.94 Q150.274 1375.52 150.274 1384.27 Q150.274 1393 147.195 1397.61 Q144.14 1402.19 138.33 1402.19 Q132.519 1402.19 129.441 1397.61 Q126.385 1393 126.385 1384.27 Q126.385 1375.52 129.441 1370.94 Q132.519 1366.33 138.33 1366.33 Z" fill="#000000" fill-rule="evenodd" fill-opacity="1" /><path clip-path="url(#clip110)" d="M63.9319 1042.25 Q60.3208 1042.25 58.4921 1045.81 Q56.6865 1049.35 56.6865 1056.48 Q56.6865 1063.59 58.4921 1067.15 Q60.3208 1070.69 63.9319 1070.69 Q67.5661 1070.69 69.3717 1067.15 Q71.2004 1063.59 71.2004 1056.48 Q71.2004 1049.35 69.3717 1045.81 Q67.5661 1042.25 63.9319 1042.25 M63.9319 1038.54 Q69.742 1038.54 72.7976 1043.15 Q75.8763 1047.73 75.8763 1056.48 Q75.8763 1065.21 72.7976 1069.82 Q69.742 1074.4 63.9319 1074.4 Q58.1217 1074.4 55.043 1069.82 Q51.9875 1065.21 51.9875 1056.48 Q51.9875 1047.73 55.043 1043.15 Q58.1217 1038.54 63.9319 1038.54 Z" fill="#000000" fill-rule="evenodd" fill-opacity="1" /><path clip-path="url(#clip110)" d="M84.0938 1067.85 L88.978 1067.85 L88.978 1073.73 L84.0938 1073.73 L84.0938 1067.85 Z" fill="#000000" fill-rule="evenodd" fill-opacity="1" /><path clip-path="url(#clip110)" d="M103.191 1069.79 L119.51 1069.79 L119.51 1073.73 L97.566 1073.73 L97.566 1069.79 Q100.228 1067.04 104.811 1062.41 Q109.418 1057.76 110.598 1056.41 Q112.844 1053.89 113.723 1052.15 Q114.626 1050.39 114.626 1048.7 Q114.626 1045.95 112.682 1044.21 Q110.76 1042.48 107.658 1042.48 Q105.459 1042.48 103.006 1043.24 Q100.575 1044.01 97.7974 1045.56 L97.7974 1040.83 Q100.621 1039.7 103.075 1039.12 Q105.529 1038.54 107.566 1038.54 Q112.936 1038.54 116.131 1041.23 Q119.325 1043.91 119.325 1048.4 Q119.325 1050.53 118.515 1052.45 Q117.728 1054.35 115.621 1056.94 Q115.043 1057.62 111.941 1060.83 Q108.839 1064.03 103.191 1069.79 Z" fill="#000000" fill-rule="evenodd" fill-opacity="1" /><path clip-path="url(#clip110)" d="M129.371 1039.17 L147.728 1039.17 L147.728 1043.1 L133.654 1043.1 L133.654 1051.57 Q134.672 1051.23 135.691 1051.07 Q136.709 1050.88 137.728 1050.88 Q143.515 1050.88 146.894 1054.05 Q150.274 1057.22 150.274 1062.64 Q150.274 1068.22 146.802 1071.32 Q143.33 1074.4 137.01 1074.4 Q134.834 1074.4 132.566 1074.03 Q130.32 1073.66 127.913 1072.92 L127.913 1068.22 Q129.996 1069.35 132.219 1069.91 Q134.441 1070.46 136.918 1070.46 Q140.922 1070.46 143.26 1068.36 Q145.598 1066.25 145.598 1062.64 Q145.598 1059.03 143.26 1056.92 Q140.922 1054.82 136.918 1054.82 Q135.043 1054.82 133.168 1055.23 Q131.316 1055.65 129.371 1056.53 L129.371 1039.17 Z" fill="#000000" fill-rule="evenodd" fill-opacity="1" /><path clip-path="url(#clip110)" d="M62.9365 714.455 Q59.3254 714.455 57.4967 718.02 Q55.6912 721.561 55.6912 728.691 Q55.6912 735.797 57.4967 739.362 Q59.3254 742.904 62.9365 742.904 Q66.5707 742.904 68.3763 739.362 Q70.205 735.797 70.205 728.691 Q70.205 721.561 68.3763 718.02 Q66.5707 714.455 62.9365 714.455 M62.9365 710.751 Q68.7467 710.751 71.8022 715.358 Q74.8809 719.941 74.8809 728.691 Q74.8809 737.418 71.8022 742.024 Q68.7467 746.607 62.9365 746.607 Q57.1264 746.607 54.0477 742.024 Q50.9921 737.418 50.9921 728.691 Q50.9921 719.941 54.0477 715.358 Q57.1264 710.751 62.9365 710.751 Z" fill="#000000" fill-rule="evenodd" fill-opacity="1" /><path clip-path="url(#clip110)" d="M83.0984 740.057 L87.9827 740.057 L87.9827 745.936 L83.0984 745.936 L83.0984 740.057 Z" fill="#000000" fill-rule="evenodd" fill-opacity="1" /><path clip-path="url(#clip110)" d="M98.2141 711.376 L116.57 711.376 L116.57 715.311 L102.496 715.311 L102.496 723.783 Q103.515 723.436 104.534 723.274 Q105.552 723.089 106.571 723.089 Q112.358 723.089 115.737 726.26 Q119.117 729.432 119.117 734.848 Q119.117 740.427 115.645 743.529 Q112.172 746.607 105.853 746.607 Q103.677 746.607 101.409 746.237 Q99.1632 745.867 96.7558 745.126 L96.7558 740.427 Q98.8391 741.561 101.061 742.117 Q103.284 742.672 105.76 742.672 Q109.765 742.672 112.103 740.566 Q114.441 738.459 114.441 734.848 Q114.441 731.237 112.103 729.131 Q109.765 727.024 105.76 727.024 Q103.885 727.024 102.01 727.441 Q100.159 727.858 98.2141 728.737 L98.2141 711.376 Z" fill="#000000" fill-rule="evenodd" fill-opacity="1" /><path clip-path="url(#clip110)" d="M138.33 714.455 Q134.719 714.455 132.89 718.02 Q131.084 721.561 131.084 728.691 Q131.084 735.797 132.89 739.362 Q134.719 742.904 138.33 742.904 Q141.964 742.904 143.769 739.362 Q145.598 735.797 145.598 728.691 Q145.598 721.561 143.769 718.02 Q141.964 714.455 138.33 714.455 M138.33 710.751 Q144.14 710.751 147.195 715.358 Q150.274 719.941 150.274 728.691 Q150.274 737.418 147.195 742.024 Q144.14 746.607 138.33 746.607 Q132.519 746.607 129.441 742.024 Q126.385 737.418 126.385 728.691 Q126.385 719.941 129.441 715.358 Q132.519 710.751 138.33 710.751 Z" fill="#000000" fill-rule="evenodd" fill-opacity="1" /><path clip-path="url(#clip110)" d="M63.9319 386.664 Q60.3208 386.664 58.4921 390.229 Q56.6865 393.77 56.6865 400.9 Q56.6865 408.006 58.4921 411.571 Q60.3208 415.113 63.9319 415.113 Q67.5661 415.113 69.3717 411.571 Q71.2004 408.006 71.2004 400.9 Q71.2004 393.77 69.3717 390.229 Q67.5661 386.664 63.9319 386.664 M63.9319 382.96 Q69.742 382.96 72.7976 387.567 Q75.8763 392.15 75.8763 400.9 Q75.8763 409.627 72.7976 414.233 Q69.742 418.816 63.9319 418.816 Q58.1217 418.816 55.043 414.233 Q51.9875 409.627 51.9875 400.9 Q51.9875 392.15 55.043 387.567 Q58.1217 382.96 63.9319 382.96 Z" fill="#000000" fill-rule="evenodd" fill-opacity="1" /><path clip-path="url(#clip110)" d="M84.0938 412.265 L88.978 412.265 L88.978 418.145 L84.0938 418.145 L84.0938 412.265 Z" fill="#000000" fill-rule="evenodd" fill-opacity="1" /><path clip-path="url(#clip110)" d="M97.9826 383.585 L120.205 383.585 L120.205 385.576 L107.658 418.145 L102.774 418.145 L114.58 387.52 L97.9826 387.52 L97.9826 383.585 Z" fill="#000000" fill-rule="evenodd" fill-opacity="1" /><path clip-path="url(#clip110)" d="M129.371 383.585 L147.728 383.585 L147.728 387.52 L133.654 387.52 L133.654 395.992 Q134.672 395.645 135.691 395.483 Q136.709 395.298 137.728 395.298 Q143.515 395.298 146.894 398.469 Q150.274 401.641 150.274 407.057 Q150.274 412.636 146.802 415.738 Q143.33 418.816 137.01 418.816 Q134.834 418.816 132.566 418.446 Q130.32 418.076 127.913 417.335 L127.913 412.636 Q129.996 413.77 132.219 414.326 Q134.441 414.881 136.918 414.881 Q140.922 414.881 143.26 412.775 Q145.598 410.668 145.598 407.057 Q145.598 403.446 143.26 401.34 Q140.922 399.233 136.918 399.233 Q135.043 399.233 133.168 399.65 Q131.316 400.066 129.371 400.946 L129.371 383.585 Z" fill="#000000" fill-rule="evenodd" fill-opacity="1" /><path clip-path="url(#clip110)" d="M53.7467 86.4189 L61.3856 86.4189 L61.3856 60.0533 L53.0754 61.7199 L53.0754 57.4607 L61.3393 55.794 L66.0152 55.794 L66.0152 86.4189 L73.654 86.4189 L73.654 90.354 L53.7467 90.354 L53.7467 86.4189 Z" fill="#000000" fill-rule="evenodd" fill-opacity="1" /><path clip-path="url(#clip110)" d="M83.0984 84.4744 L87.9827 84.4744 L87.9827 90.354 L83.0984 90.354 L83.0984 84.4744 Z" fill="#000000" fill-rule="evenodd" fill-opacity="1" /><path clip-path="url(#clip110)" d="M108.168 58.8727 Q104.557 58.8727 102.728 62.4375 Q100.922 65.9792 100.922 73.1088 Q100.922 80.2152 102.728 83.78 Q104.557 87.3216 108.168 87.3216 Q111.802 87.3216 113.608 83.78 Q115.436 80.2152 115.436 73.1088 Q115.436 65.9792 113.608 62.4375 Q111.802 58.8727 108.168 58.8727 M108.168 55.169 Q113.978 55.169 117.033 59.7755 Q120.112 64.3588 120.112 73.1088 Q120.112 81.8356 117.033 86.442 Q113.978 91.0253 108.168 91.0253 Q102.358 91.0253 99.2789 86.442 Q96.2234 81.8356 96.2234 73.1088 Q96.2234 64.3588 99.2789 59.7755 Q102.358 55.169 108.168 55.169 Z" fill="#000000" fill-rule="evenodd" fill-opacity="1" /><path clip-path="url(#clip110)" d="M138.33 58.8727 Q134.719 58.8727 132.89 62.4375 Q131.084 65.9792 131.084 73.1088 Q131.084 80.2152 132.89 83.78 Q134.719 87.3216 138.33 87.3216 Q141.964 87.3216 143.769 83.78 Q145.598 80.2152 145.598 73.1088 Q145.598 65.9792 143.769 62.4375 Q141.964 58.8727 138.33 58.8727 M138.33 55.169 Q144.14 55.169 147.195 59.7755 Q150.274 64.3588 150.274 73.1088 Q150.274 81.8356 147.195 86.442 Q144.14 91.0253 138.33 91.0253 Q132.519 91.0253 129.441 86.442 Q126.385 81.8356 126.385 73.1088 Q126.385 64.3588 129.441 59.7755 Q132.519 55.169 138.33 55.169 Z" fill="#000000" fill-rule="evenodd" fill-opacity="1" /><polyline clip-path="url(#clip112)" style="stroke:#009af9; stroke-linecap:butt; stroke-linejoin:round; stroke-width:8; stroke-opacity:1; fill:none" points="
  186.274,86.1857 188.443,86.4473 190.611,86.7126 192.78,86.9814 194.949,87.254 197.117,87.5302 199.286,87.8103 201.455,88.0942 203.623,88.3819 205.792,88.6736 
  207.961,88.9692 210.129,89.2689 212.298,89.5727 214.466,89.8806 216.635,90.1927 218.804,90.5091 220.972,90.8297 223.141,91.1547 225.31,91.4841 227.478,91.818 
  229.647,92.1564 231.816,92.4994 233.984,92.847 236.153,93.1994 238.322,93.5565 240.49,93.9184 242.659,94.2852 244.828,94.657 246.996,95.0338 249.165,95.4156 
  251.334,95.8027 253.502,96.1949 255.671,96.5923 257.839,96.9952 260.008,97.4034 262.177,97.8171 264.345,98.2363 266.514,98.6612 268.683,99.0918 270.851,99.5281 
  273.02,99.9702 275.189,100.418 277.357,100.872 279.526,101.332 281.695,101.798 283.863,102.271 286.032,102.749 288.201,103.234 290.369,103.726 292.538,104.224 
  294.707,104.728 296.875,105.24 299.044,105.758 301.212,106.282 303.381,106.814 305.55,107.353 307.718,107.898 309.887,108.451 312.056,109.012 314.224,109.579 
  316.393,110.154 318.562,110.737 320.73,111.327 322.899,111.925 325.068,112.53 327.236,113.144 329.405,113.765 331.574,114.395 333.742,115.032 335.911,115.678 
  338.08,116.333 340.248,116.995 342.417,117.667 344.585,118.347 346.754,119.035 348.923,119.733 351.091,120.439 353.26,121.155 355.429,121.88 357.597,122.614 
  359.766,123.357 361.935,124.11 364.103,124.872 366.272,125.644 368.441,126.426 370.609,127.218 372.778,128.019 374.947,128.831 377.115,129.653 379.284,130.486 
  381.453,131.329 383.621,132.182 385.79,133.046 387.959,133.921 390.127,134.807 392.296,135.703 394.464,136.611 396.633,137.53 398.802,138.461 400.97,139.403 
  403.139,140.356 405.308,141.322 407.476,142.299 409.645,143.288 411.814,144.289 413.982,145.302 416.151,146.328 418.32,147.366 420.488,148.417 422.657,149.48 
  424.826,150.556 426.994,151.645 429.163,152.748 431.332,153.863 433.5,154.992 435.669,156.134 437.837,157.29 440.006,158.459 442.175,159.643 444.343,160.84 
  446.512,162.051 448.681,163.277 450.849,164.517 453.018,165.771 455.187,167.04 457.355,168.323 459.524,169.622 461.693,170.935 463.861,172.264 466.03,173.608 
  468.199,174.967 470.367,176.341 472.536,177.731 474.705,179.137 476.873,180.559 479.042,181.997 481.21,183.451 483.379,184.921 485.548,186.407 487.716,187.91 
  489.885,189.43 492.054,190.966 494.222,192.52 496.391,194.09 498.56,195.677 500.728,197.281 502.897,198.903 505.066,200.542 507.234,202.199 509.403,203.874 
  511.572,205.566 513.74,207.277 515.909,209.005 518.078,210.752 520.246,212.517 522.415,214.3 524.583,216.102 526.752,217.923 528.921,219.762 531.089,221.62 
  533.258,223.498 535.427,225.394 537.595,227.309 539.764,229.244 541.933,231.198 544.101,233.171 546.27,235.164 548.439,237.177 550.607,239.209 552.776,241.261 
  554.945,243.333 557.113,245.425 559.282,247.537 561.451,249.669 563.619,251.821 565.788,253.993 567.956,256.186 570.125,258.399 572.294,260.633 574.462,262.887 
  576.631,265.161 578.8,267.457 580.968,269.773 583.137,272.109 585.306,274.467 587.474,276.845 589.643,279.245 591.812,281.665 593.98,284.106 596.149,286.568 
  598.318,289.052 600.486,291.556 602.655,294.081 604.824,296.628 606.992,299.195 609.161,301.784 611.33,304.394 613.498,307.025 615.667,309.677 617.835,312.35 
  620.004,315.044 622.173,317.759 624.341,320.496 626.51,323.253 628.679,326.031 630.847,328.831 633.016,331.651 635.185,334.492 637.353,337.355 639.522,340.237 
  641.691,343.141 643.859,346.065 646.028,349.01 648.197,351.976 650.365,354.962 652.534,357.968 654.703,360.994 656.871,364.041 659.04,367.108 661.208,370.194 
  663.377,373.301 665.546,376.427 667.714,379.573 669.883,382.739 672.052,385.924 674.22,389.128 676.389,392.352 678.558,395.594 680.726,398.855 682.895,402.135 
  685.064,405.433 687.232,408.75 689.401,412.085 691.57,415.438 693.738,418.809 695.907,422.198 698.076,425.604 700.244,429.027 702.413,432.468 704.581,435.925 
  706.75,439.399 708.919,442.89 711.087,446.397 713.256,449.92 715.425,453.458 717.593,457.013 719.762,460.583 721.931,464.168 724.099,467.769 726.268,471.384 
  728.437,475.014 730.605,478.659 732.774,482.317 734.943,485.988 737.111,489.673 739.28,493.371 741.449,497.082 743.617,500.805 745.786,504.54 747.954,508.287 
  750.123,512.046 752.292,515.815 754.46,519.596 756.629,523.387 758.798,527.188 760.966,530.999 763.135,534.82 765.304,538.649 767.472,542.488 769.641,546.336 
  771.81,550.191 773.978,554.055 776.147,557.927 778.316,561.805 780.484,565.691 782.653,569.583 784.822,573.482 786.99,577.387 789.159,581.297 791.328,585.213 
  793.496,589.134 795.665,593.059 797.833,596.989 800.002,600.923 802.171,604.86 804.339,608.801 806.508,612.745 808.677,616.692 810.845,620.64 813.014,624.591 
  815.183,628.544 817.351,632.498 819.52,636.452 821.689,640.408 823.857,644.363 826.026,648.319 828.195,652.274 830.363,656.228 832.532,660.181 834.701,664.133 
  836.869,668.083 839.038,672.031 841.206,675.976 843.375,679.918 845.544,683.857 847.712,687.792 849.881,691.723 852.05,695.65 854.218,699.573 856.387,703.49 
  858.556,707.402 860.724,711.308 862.893,715.207 865.062,719.101 867.23,722.987 869.399,726.867 871.568,730.74 873.736,734.605 875.905,738.462 878.074,742.312 
  880.242,746.153 882.411,749.985 884.579,753.808 886.748,757.622 888.917,761.426 891.085,765.221 893.254,769.005 895.423,772.779 897.591,776.542 899.76,780.295 
  901.929,784.036 904.097,787.765 906.266,791.483 908.435,795.189 910.603,798.883 912.772,802.564 914.941,806.233 917.109,809.889 919.278,813.531 921.447,817.161 
  923.615,820.777 925.784,824.379 927.952,827.967 930.121,831.541 932.29,835.1 934.458,838.646 936.627,842.176 938.796,845.691 940.964,849.192 943.133,852.677 
  945.302,856.147 947.47,859.601 949.639,863.039 951.808,866.462 953.976,869.868 956.145,873.258 958.314,876.632 960.482,879.99 962.651,883.331 964.82,886.655 
  966.988,889.962 969.157,893.253 971.326,896.526 973.494,899.782 975.663,903.021 977.831,906.242 980,909.446 982.169,912.633 984.337,915.802 986.506,918.953 
  988.675,922.086 990.843,925.202 993.012,928.299 995.181,931.379 997.349,934.44 999.518,937.483 1001.69,940.508 1003.86,943.515 1006.02,946.504 1008.19,949.475 
  1010.36,952.427 1012.53,955.361 1014.7,958.276 1016.87,961.173 1019.04,964.052 1021.2,966.913 1023.37,969.755 1025.54,972.578 1027.71,975.384 1029.88,978.17 
  1032.05,980.938 1034.22,983.688 1036.39,986.418 1038.55,989.131 1040.72,991.824 1042.89,994.5 1045.06,997.156 1047.23,999.795 1049.4,1002.41 1051.57,1005.02 
  1053.73,1007.6 1055.9,1010.16 1058.07,1012.71 1060.24,1015.24 1062.41,1017.75 1064.58,1020.24 1066.75,1022.72 1068.91,1025.18 1071.08,1027.61 1073.25,1030.04 
  1075.42,1032.44 1077.59,1034.82 1079.76,1037.19 1081.93,1039.54 1084.1,1041.87 1086.26,1044.19 1088.43,1046.49 1090.6,1048.77 1092.77,1051.03 1094.94,1053.28 
  1097.11,1055.51 1099.28,1057.72 1101.44,1059.91 1103.61,1062.09 1105.78,1064.25 1107.95,1066.39 1110.12,1068.52 1112.29,1070.63 1114.46,1072.73 1116.63,1074.8 
  1118.79,1076.86 1120.96,1078.91 1123.13,1080.94 1125.3,1082.95 1127.47,1084.94 1129.64,1086.92 1131.81,1088.89 1133.97,1090.84 1136.14,1092.77 1138.31,1094.68 
  1140.48,1096.59 1142.65,1098.47 1144.82,1100.34 1146.99,1102.19 1149.15,1104.03 1151.32,1105.86 1153.49,1107.67 1155.66,1109.46 1157.83,1111.24 1160,1113 
  1162.17,1114.75 1164.34,1116.49 1166.5,1118.21 1168.67,1119.91 1170.84,1121.6 1173.01,1123.28 1175.18,1124.94 1177.35,1126.59 1179.52,1128.23 1181.68,1129.85 
  1183.85,1131.46 1186.02,1133.05 1188.19,1134.63 1190.36,1136.2 1192.53,1137.75 1194.7,1139.29 1196.87,1140.82 1199.03,1142.33 1201.2,1143.84 1203.37,1145.33 
  1205.54,1146.8 1207.71,1148.27 1209.88,1149.72 1212.05,1151.16 1214.21,1152.58 1216.38,1154 1218.55,1155.4 1220.72,1156.79 1222.89,1158.17 1225.06,1159.53 
  1227.23,1160.89 1229.39,1162.23 1231.56,1163.56 1233.73,1164.88 1235.9,1166.19 1238.07,1167.49 1240.24,1168.78 1242.41,1170.05 1244.58,1171.32 1246.74,1172.57 
  1248.91,1173.81 1251.08,1175.04 1253.25,1176.26 1255.42,1177.47 1257.59,1178.68 1259.76,1179.87 1261.92,1181.04 1264.09,1182.21 1266.26,1183.37 1268.43,1184.52 
  1270.6,1185.66 1272.77,1186.79 1274.94,1187.91 1277.11,1189.02 1279.27,1190.12 1281.44,1191.21 1283.61,1192.3 1285.78,1193.37 1287.95,1194.43 1290.12,1195.49 
  1292.29,1196.53 1294.45,1197.57 1296.62,1198.59 1298.79,1199.61 1300.96,1200.62 1303.13,1201.62 1305.3,1202.61 1307.47,1203.6 1309.63,1204.57 1311.8,1205.54 
  1313.97,1206.5 1316.14,1207.45 1318.31,1208.39 1320.48,1209.32 1322.65,1210.25 1324.82,1211.17 1326.98,1212.08 1329.15,1212.98 1331.32,1213.87 1333.49,1214.76 
  1335.66,1215.64 1337.83,1216.51 1340,1217.38 1342.16,1218.23 1344.33,1219.08 1346.5,1219.93 1348.67,1220.76 1350.84,1221.59 1353.01,1222.41 1355.18,1223.22 
  1357.35,1224.03 1359.51,1224.83 1361.68,1225.62 1363.85,1226.41 1366.02,1227.19 1368.19,1227.96 1370.36,1228.73 1372.53,1229.49 1374.69,1230.24 1376.86,1230.99 
  1379.03,1231.73 1381.2,1232.47 1383.37,1233.19 1385.54,1233.92 1387.71,1234.63 1389.88,1235.34 1392.04,1236.05 1394.21,1236.75 1396.38,1237.44 1398.55,1238.12 
  1400.72,1238.8 1402.89,1239.48 1405.06,1240.15 1407.22,1240.81 1409.39,1241.47 1411.56,1242.12 1413.73,1242.77 1415.9,1243.41 1418.07,1244.05 1420.24,1244.68 
  1422.4,1245.3 1424.57,1245.92 1426.74,1246.54 1428.91,1247.15 1431.08,1247.75 1433.25,1248.35 1435.42,1248.94 1437.59,1249.53 1439.75,1250.12 1441.92,1250.7 
  1444.09,1251.27 1446.26,1251.84 1448.43,1252.41 1450.6,1252.97 1452.77,1253.53 1454.93,1254.08 1457.1,1254.63 1459.27,1255.17 1461.44,1255.71 1463.61,1256.24 
  1465.78,1256.77 1467.95,1257.3 1470.12,1257.82 1472.28,1258.33 1474.45,1258.85 1476.62,1259.35 1478.79,1259.86 1480.96,1260.36 1483.13,1260.86 1485.3,1261.35 
  1487.46,1261.84 1489.63,1262.32 1491.8,1262.8 1493.97,1263.28 1496.14,1263.75 1498.31,1264.22 1500.48,1264.68 1502.64,1265.14 1504.81,1265.6 1506.98,1266.05 
  1509.15,1266.5 1511.32,1266.95 1513.49,1267.39 1515.66,1267.83 1517.83,1268.27 1519.99,1268.7 1522.16,1269.13 1524.33,1269.56 1526.5,1269.98 1528.67,1270.4 
  1530.84,1270.81 1533.01,1271.23 1535.17,1271.63 1537.34,1272.04 1539.51,1272.44 1541.68,1272.84 1543.85,1273.24 1546.02,1273.63 1548.19,1274.02 1550.36,1274.41 
  1552.52,1274.79 1554.69,1275.18 1556.86,1275.55 1559.03,1275.93 1561.2,1276.3 1563.37,1276.67 1565.54,1277.04 1567.7,1277.4 1569.87,1277.76 1572.04,1278.12 
  1574.21,1278.48 1576.38,1278.83 1578.55,1279.18 1580.72,1279.53 1582.88,1279.87 1585.05,1280.21 1587.22,1280.55 1589.39,1280.89 1591.56,1281.22 1593.73,1281.55 
  1595.9,1281.88 1598.07,1282.21 1600.23,1282.53 1602.4,1282.86 1604.57,1283.18 1606.74,1283.49 1608.91,1283.81 1611.08,1284.12 1613.25,1284.43 1615.41,1284.74 
  1617.58,1285.04 1619.75,1285.34 1621.92,1285.64 1624.09,1285.94 1626.26,1286.24 1628.43,1286.53 1630.6,1286.82 1632.76,1287.11 1634.93,1287.4 1637.1,1287.69 
  1639.27,1287.97 1641.44,1288.25 1643.61,1288.53 1645.78,1288.8 1647.94,1289.08 1650.11,1289.35 1652.28,1289.62 1654.45,1289.89 1656.62,1290.16 1658.79,1290.42 
  1660.96,1290.69 1663.13,1290.95 1665.29,1291.21 1667.46,1291.46 1669.63,1291.72 1671.8,1291.97 1673.97,1292.22 1676.14,1292.47 1678.31,1292.72 1680.47,1292.97 
  1682.64,1293.21 1684.81,1293.45 1686.98,1293.69 1689.15,1293.93 1691.32,1294.17 1693.49,1294.4 1695.65,1294.64 1697.82,1294.87 1699.99,1295.1 1702.16,1295.33 
  1704.33,1295.56 1706.5,1295.78 1708.67,1296.01 1710.84,1296.23 1713,1296.45 1715.17,1296.67 1717.34,1296.89 1719.51,1297.1 1721.68,1297.32 1723.85,1297.53 
  1726.02,1297.74 1728.18,1297.95 1730.35,1298.16 1732.52,1298.36 1734.69,1298.57 1736.86,1298.77 1739.03,1298.98 1741.2,1299.18 1743.37,1299.38 1745.53,1299.57 
  1747.7,1299.77 1749.87,1299.97 1752.04,1300.16 1754.21,1300.35 1756.38,1300.54 1758.55,1300.73 1760.71,1300.92 1762.88,1301.11 1765.05,1301.3 1767.22,1301.48 
  1769.39,1301.66 1771.56,1301.85 1773.73,1302.03 1775.89,1302.21 1778.06,1302.39 1780.23,1302.56 1782.4,1302.74 1784.57,1302.91 1786.74,1303.09 1788.91,1303.26 
  1791.08,1303.43 1793.24,1303.6 1795.41,1303.77 1797.58,1303.94 1799.75,1304.1 1801.92,1304.27 1804.09,1304.43 1806.26,1304.59 1808.42,1304.76 1810.59,1304.92 
  1812.76,1305.08 1814.93,1305.24 1817.1,1305.39 1819.27,1305.55 1821.44,1305.71 1823.61,1305.86 1825.77,1306.01 1827.94,1306.17 1830.11,1306.32 1832.28,1306.47 
  1834.45,1306.62 1836.62,1306.77 1838.79,1306.91 1840.95,1307.06 1843.12,1307.2 1845.29,1307.35 1847.46,1307.49 1849.63,1307.64 1851.8,1307.78 1853.97,1307.92 
  1856.13,1308.06 1858.3,1308.2 1860.47,1308.33 1862.64,1308.47 1864.81,1308.61 1866.98,1308.74 1869.15,1308.88 1871.32,1309.01 1873.48,1309.14 1875.65,1309.27 
  1877.82,1309.41 1879.99,1309.54 1882.16,1309.66 1884.33,1309.79 1886.5,1309.92 1888.66,1310.05 1890.83,1310.17 1893,1310.3 1895.17,1310.42 1897.34,1310.54 
  1899.51,1310.67 1901.68,1310.79 1903.85,1310.91 1906.01,1311.03 1908.18,1311.15 1910.35,1311.27 1912.52,1311.39 1914.69,1311.5 1916.86,1311.62 1919.03,1311.73 
  1921.19,1311.85 1923.36,1311.96 1925.53,1312.08 1927.7,1312.19 1929.87,1312.3 1932.04,1312.41 1934.21,1312.52 1936.37,1312.63 1938.54,1312.74 1940.71,1312.85 
  1942.88,1312.96 1945.05,1313.06 1947.22,1313.17 1949.39,1313.28 1951.56,1313.38 1953.72,1313.48 1955.89,1313.59 1958.06,1313.69 1960.23,1313.79 1962.4,1313.89 
  1964.57,1314 1966.74,1314.1 1968.9,1314.2 1971.07,1314.29 1973.24,1314.39 1975.41,1314.49 1977.58,1314.59 1979.75,1314.68 1981.92,1314.78 1984.09,1314.88 
  1986.25,1314.97 1988.42,1315.06 1990.59,1315.16 1992.76,1315.25 1994.93,1315.34 1997.1,1315.44 1999.27,1315.53 2001.43,1315.62 2003.6,1315.71 2005.77,1315.8 
  2007.94,1315.89 2010.11,1315.97 2012.28,1316.06 2014.45,1316.15 2016.62,1316.24 2018.78,1316.32 2020.95,1316.41 2023.12,1316.49 2025.29,1316.58 2027.46,1316.66 
  2029.63,1316.74 2031.8,1316.83 2033.96,1316.91 2036.13,1316.99 2038.3,1317.07 2040.47,1317.15 2042.64,1317.24 2044.81,1317.31 2046.98,1317.39 2049.14,1317.47 
  2051.31,1317.55 2053.48,1317.63 2055.65,1317.71 2057.82,1317.78 2059.99,1317.86 2062.16,1317.94 2064.33,1318.01 2066.49,1318.09 2068.66,1318.16 2070.83,1318.24 
  2073,1318.31 2075.17,1318.38 2077.34,1318.46 2079.51,1318.53 2081.67,1318.6 2083.84,1318.67 2086.01,1318.74 2088.18,1318.81 2090.35,1318.88 2092.52,1318.95 
  2094.69,1319.02 2096.86,1319.09 2099.02,1319.16 2101.19,1319.23 2103.36,1319.3 2105.53,1319.36 2107.7,1319.43 2109.87,1319.5 2112.04,1319.56 2114.2,1319.63 
  2116.37,1319.7 2118.54,1319.76 2120.71,1319.83 2122.88,1319.89 2125.05,1319.95 2127.22,1320.02 2129.38,1320.08 2131.55,1320.14 2133.72,1320.2 2135.89,1320.27 
  2138.06,1320.33 2140.23,1320.39 2142.4,1320.45 2144.57,1320.51 2146.73,1320.57 2148.9,1320.63 2151.07,1320.69 2153.24,1320.75 2155.41,1320.81 2157.58,1320.87 
  2159.75,1320.92 2161.91,1320.98 2164.08,1321.04 2166.25,1321.1 2168.42,1321.15 2170.59,1321.21 2172.76,1321.26 2174.93,1321.32 2177.1,1321.38 2179.26,1321.43 
  2181.43,1321.49 2183.6,1321.54 2185.77,1321.59 2187.94,1321.65 2190.11,1321.7 2192.28,1321.75 2194.44,1321.81 2196.61,1321.86 2198.78,1321.91 2200.95,1321.96 
  2203.12,1322.01 2205.29,1322.07 2207.46,1322.12 2209.62,1322.17 2211.79,1322.22 2213.96,1322.27 2216.13,1322.32 2218.3,1322.37 2220.47,1322.42 2222.64,1322.47 
  2224.81,1322.51 2226.97,1322.56 2229.14,1322.61 2231.31,1322.66 2233.48,1322.71 2235.65,1322.75 2237.82,1322.8 2239.99,1322.85 2242.15,1322.89 2244.32,1322.94 
  2246.49,1322.98 2248.66,1323.03 2250.83,1323.08 2253,1323.12 2255.17,1323.17 2257.34,1323.21 2259.5,1323.25 2261.67,1323.3 2263.84,1323.34 2266.01,1323.39 
  2268.18,1323.43 2270.35,1323.47 2272.52,1323.51 2274.68,1323.56 2276.85,1323.6 2279.02,1323.64 2281.19,1323.68 2283.36,1323.72 2285.53,1323.77 2287.7,1323.81 
  2289.87,1323.85 2292.03,1323.89 2294.2,1323.93 2296.37,1323.97 2298.54,1324.01 2300.71,1324.05 2302.88,1324.09 2305.05,1324.13 2307.21,1324.17 2309.38,1324.2 
  2311.55,1324.24 2313.72,1324.28 2315.89,1324.32 2318.06,1324.36 2320.23,1324.4 2322.39,1324.43 2324.56,1324.47 2326.73,1324.51 2328.9,1324.54 2331.07,1324.58 
  2333.24,1324.62 2335.41,1324.65 2337.58,1324.69 2339.74,1324.73 2341.91,1324.76 2344.08,1324.8 2346.25,1324.83 2348.42,1324.87 2350.59,1324.9 2352.76,1324.94 
  
  "/>
<polyline clip-path="url(#clip112)" style="stroke:#e26f46; stroke-linecap:butt; stroke-linejoin:round; stroke-width:8; stroke-opacity:1; fill:none" points="
  186.274,1371.13 188.443,1370.94 190.611,1370.76 192.78,1370.57 194.949,1370.38 197.117,1370.19 199.286,1369.99 201.455,1369.8 203.623,1369.6 205.792,1369.39 
  207.961,1369.19 210.129,1368.98 212.298,1368.77 214.466,1368.55 216.635,1368.34 218.804,1368.12 220.972,1367.89 223.141,1367.67 225.31,1367.44 227.478,1367.2 
  229.647,1366.97 231.816,1366.73 233.984,1366.49 236.153,1366.24 238.322,1366 240.49,1365.74 242.659,1365.49 244.828,1365.23 246.996,1364.97 249.165,1364.7 
  251.334,1364.43 253.502,1364.16 255.671,1363.89 257.839,1363.61 260.008,1363.32 262.177,1363.04 264.345,1362.74 266.514,1362.45 268.683,1362.15 270.851,1361.85 
  273.02,1361.54 275.189,1361.23 277.357,1360.92 279.526,1360.6 281.695,1360.27 283.863,1359.95 286.032,1359.61 288.201,1359.28 290.369,1358.94 292.538,1358.59 
  294.707,1358.24 296.875,1357.89 299.044,1357.53 301.212,1357.17 303.381,1356.8 305.55,1356.43 307.718,1356.05 309.887,1355.67 312.056,1355.28 314.224,1354.89 
  316.393,1354.49 318.562,1354.09 320.73,1353.68 322.899,1353.27 325.068,1352.85 327.236,1352.42 329.405,1351.99 331.574,1351.56 333.742,1351.12 335.911,1350.67 
  338.08,1350.22 340.248,1349.77 342.417,1349.3 344.585,1348.83 346.754,1348.36 348.923,1347.88 351.091,1347.39 353.26,1346.9 355.429,1346.4 357.597,1345.9 
  359.766,1345.38 361.935,1344.87 364.103,1344.34 366.272,1343.81 368.441,1343.27 370.609,1342.73 372.778,1342.18 374.947,1341.62 377.115,1341.06 379.284,1340.49 
  381.453,1339.91 383.621,1339.32 385.79,1338.73 387.959,1338.13 390.127,1337.52 392.296,1336.91 394.464,1336.29 396.633,1335.66 398.802,1335.02 400.97,1334.38 
  403.139,1333.72 405.308,1333.06 407.476,1332.4 409.645,1331.72 411.814,1331.04 413.982,1330.34 416.151,1329.65 418.32,1328.94 420.488,1328.22 422.657,1327.5 
  424.826,1326.76 426.994,1326.02 429.163,1325.27 431.332,1324.51 433.5,1323.74 435.669,1322.97 437.837,1322.18 440.006,1321.39 442.175,1320.58 444.343,1319.77 
  446.512,1318.95 448.681,1318.12 450.849,1317.28 453.018,1316.43 455.187,1315.57 457.355,1314.7 459.524,1313.82 461.693,1312.94 463.861,1312.04 466.03,1311.13 
  468.199,1310.21 470.367,1309.29 472.536,1308.35 474.705,1307.4 476.873,1306.44 479.042,1305.48 481.21,1304.5 483.379,1303.51 485.548,1302.51 487.716,1301.5 
  489.885,1300.48 492.054,1299.45 494.222,1298.41 496.391,1297.36 498.56,1296.3 500.728,1295.22 502.897,1294.14 505.066,1293.05 507.234,1291.94 509.403,1290.82 
  511.572,1289.7 513.74,1288.56 515.909,1287.41 518.078,1286.24 520.246,1285.07 522.415,1283.89 524.583,1282.69 526.752,1281.48 528.921,1280.27 531.089,1279.04 
  533.258,1277.79 535.427,1276.54 537.595,1275.28 539.764,1274 541.933,1272.71 544.101,1271.41 546.27,1270.1 548.439,1268.78 550.607,1267.44 552.776,1266.1 
  554.945,1264.74 557.113,1263.37 559.282,1261.99 561.451,1260.59 563.619,1259.19 565.788,1257.77 567.956,1256.34 570.125,1254.9 572.294,1253.45 574.462,1251.98 
  576.631,1250.51 578.8,1249.02 580.968,1247.52 583.137,1246.01 585.306,1244.49 587.474,1242.95 589.643,1241.41 591.812,1239.85 593.98,1238.28 596.149,1236.7 
  598.318,1235.11 600.486,1233.5 602.655,1231.89 604.824,1230.26 606.992,1228.62 609.161,1226.97 611.33,1225.31 613.498,1223.64 615.667,1221.96 617.835,1220.27 
  620.004,1218.56 622.173,1216.85 624.341,1215.12 626.51,1213.38 628.679,1211.64 630.847,1209.88 633.016,1208.11 635.185,1206.33 637.353,1204.55 639.522,1202.75 
  641.691,1200.94 643.859,1199.12 646.028,1197.29 648.197,1195.46 650.365,1193.61 652.534,1191.75 654.703,1189.89 656.871,1188.02 659.04,1186.13 661.208,1184.24 
  663.377,1182.34 665.546,1180.43 667.714,1178.52 669.883,1176.59 672.052,1174.66 674.22,1172.72 676.389,1170.78 678.558,1168.82 680.726,1166.86 682.895,1164.89 
  685.064,1162.92 687.232,1160.94 689.401,1158.95 691.57,1156.95 693.738,1154.95 695.907,1152.95 698.076,1150.94 700.244,1148.92 702.413,1146.9 704.581,1144.87 
  706.75,1142.84 708.919,1140.81 711.087,1138.77 713.256,1136.73 715.425,1134.68 717.593,1132.63 719.762,1130.58 721.931,1128.52 724.099,1126.46 726.268,1124.4 
  728.437,1122.34 730.605,1120.28 732.774,1118.21 734.943,1116.14 737.111,1114.07 739.28,1112 741.449,1109.93 743.617,1107.87 745.786,1105.8 747.954,1103.73 
  750.123,1101.66 752.292,1099.59 754.46,1097.53 756.629,1095.47 758.798,1093.41 760.966,1091.35 763.135,1089.29 765.304,1087.24 767.472,1085.19 769.641,1083.15 
  771.81,1081.11 773.978,1079.07 776.147,1077.04 778.316,1075.01 780.484,1072.99 782.653,1070.97 784.822,1068.96 786.99,1066.95 789.159,1064.96 791.328,1062.96 
  793.496,1060.98 795.665,1059 797.833,1057.03 800.002,1055.07 802.171,1053.11 804.339,1051.17 806.508,1049.23 808.677,1047.3 810.845,1045.38 813.014,1043.47 
  815.183,1041.57 817.351,1039.68 819.52,1037.8 821.689,1035.93 823.857,1034.07 826.026,1032.22 828.195,1030.39 830.363,1028.57 832.532,1026.75 834.701,1024.95 
  836.869,1023.17 839.038,1021.39 841.206,1019.63 843.375,1017.89 845.544,1016.15 847.712,1014.43 849.881,1012.73 852.05,1011.04 854.218,1009.36 856.387,1007.7 
  858.556,1006.06 860.724,1004.43 862.893,1002.81 865.062,1001.21 867.23,999.633 869.399,998.068 871.568,996.519 873.736,994.988 875.905,993.473 878.074,991.976 
  880.242,990.496 882.411,989.033 884.579,987.589 886.748,986.162 888.917,984.753 891.085,983.363 893.254,981.991 895.423,980.637 897.591,979.303 899.76,977.987 
  901.929,976.69 904.097,975.412 906.266,974.154 908.435,972.915 910.603,971.695 912.772,970.496 914.941,969.315 917.109,968.155 919.278,967.015 921.447,965.895 
  923.615,964.795 925.784,963.715 927.952,962.655 930.121,961.616 932.29,960.598 934.458,959.6 936.627,958.622 938.796,957.666 940.964,956.73 943.133,955.815 
  945.302,954.92 947.47,954.047 949.639,953.194 951.808,952.363 953.976,951.552 956.145,950.762 958.314,949.994 960.482,949.246 962.651,948.519 964.82,947.814 
  966.988,947.129 969.157,946.466 971.326,945.823 973.494,945.202 975.663,944.601 977.831,944.021 980,943.463 982.169,942.925 984.337,942.408 986.506,941.912 
  988.675,941.437 990.843,940.982 993.012,940.548 995.181,940.134 997.349,939.742 999.518,939.369 1001.69,939.017 1003.86,938.685 1006.02,938.373 1008.19,938.082 
  1010.36,937.81 1012.53,937.559 1014.7,937.327 1016.87,937.115 1019.04,936.922 1021.2,936.749 1023.37,936.595 1025.54,936.461 1027.71,936.345 1029.88,936.249 
  1032.05,936.171 1034.22,936.113 1036.39,936.074 1038.55,936.054 1040.72,936.052 1042.89,936.068 1045.06,936.103 1047.23,936.156 1049.4,936.227 1051.57,936.316 
  1053.73,936.422 1055.9,936.546 1058.07,936.687 1060.24,936.846 1062.41,937.022 1064.58,937.214 1066.75,937.424 1068.91,937.65 1071.08,937.892 1073.25,938.151 
  1075.42,938.426 1077.59,938.717 1079.76,939.024 1081.93,939.347 1084.1,939.685 1086.26,940.038 1088.43,940.407 1090.6,940.791 1092.77,941.19 1094.94,941.604 
  1097.11,942.032 1099.28,942.475 1101.44,942.932 1103.61,943.404 1105.78,943.889 1107.95,944.388 1110.12,944.901 1112.29,945.428 1114.46,945.968 1116.63,946.521 
  1118.79,947.087 1120.96,947.667 1123.13,948.259 1125.3,948.864 1127.47,949.481 1129.64,950.11 1131.81,950.752 1133.97,951.406 1136.14,952.071 1138.31,952.749 
  1140.48,953.438 1142.65,954.138 1144.82,954.849 1146.99,955.572 1149.15,956.305 1151.32,957.05 1153.49,957.804 1155.66,958.57 1157.83,959.345 1160,960.131 
  1162.17,960.927 1164.34,961.732 1166.5,962.548 1168.67,963.372 1170.84,964.206 1173.01,965.05 1175.18,965.902 1177.35,966.763 1179.52,967.633 1181.68,968.511 
  1183.85,969.398 1186.02,970.293 1188.19,971.196 1190.36,972.107 1192.53,973.026 1194.7,973.952 1196.87,974.886 1199.03,975.827 1201.2,976.776 1203.37,977.731 
  1205.54,978.693 1207.71,979.661 1209.88,980.637 1212.05,981.618 1214.21,982.606 1216.38,983.601 1218.55,984.601 1220.72,985.607 1222.89,986.619 1225.06,987.637 
  1227.23,988.66 1229.39,989.689 1231.56,990.723 1233.73,991.762 1235.9,992.807 1238.07,993.856 1240.24,994.91 1242.41,995.969 1244.58,997.032 1246.74,998.1 
  1248.91,999.173 1251.08,1000.25 1253.25,1001.33 1255.42,1002.41 1257.59,1003.5 1259.76,1004.6 1261.92,1005.69 1264.09,1006.79 1266.26,1007.9 1268.43,1009 
  1270.6,1010.11 1272.77,1011.23 1274.94,1012.34 1277.11,1013.46 1279.27,1014.58 1281.44,1015.71 1283.61,1016.84 1285.78,1017.97 1287.95,1019.1 1290.12,1020.24 
  1292.29,1021.37 1294.45,1022.51 1296.62,1023.66 1298.79,1024.8 1300.96,1025.95 1303.13,1027.09 1305.3,1028.24 1307.47,1029.39 1309.63,1030.55 1311.8,1031.7 
  1313.97,1032.86 1316.14,1034.01 1318.31,1035.17 1320.48,1036.33 1322.65,1037.49 1324.82,1038.65 1326.98,1039.82 1329.15,1040.98 1331.32,1042.14 1333.49,1043.31 
  1335.66,1044.47 1337.83,1045.64 1340,1046.81 1342.16,1047.97 1344.33,1049.14 1346.5,1050.31 1348.67,1051.48 1350.84,1052.64 1353.01,1053.81 1355.18,1054.98 
  1357.35,1056.15 1359.51,1057.32 1361.68,1058.48 1363.85,1059.65 1366.02,1060.82 1368.19,1061.98 1370.36,1063.15 1372.53,1064.32 1374.69,1065.48 1376.86,1066.65 
  1379.03,1067.81 1381.2,1068.97 1383.37,1070.13 1385.54,1071.3 1387.71,1072.46 1389.88,1073.62 1392.04,1074.77 1394.21,1075.93 1396.38,1077.09 1398.55,1078.24 
  1400.72,1079.4 1402.89,1080.55 1405.06,1081.7 1407.22,1082.85 1409.39,1084 1411.56,1085.15 1413.73,1086.3 1415.9,1087.44 1418.07,1088.59 1420.24,1089.73 
  1422.4,1090.87 1424.57,1092.01 1426.74,1093.14 1428.91,1094.28 1431.08,1095.41 1433.25,1096.54 1435.42,1097.67 1437.59,1098.8 1439.75,1099.93 1441.92,1101.05 
  1444.09,1102.18 1446.26,1103.3 1448.43,1104.41 1450.6,1105.53 1452.77,1106.64 1454.93,1107.76 1457.1,1108.87 1459.27,1109.97 1461.44,1111.08 1463.61,1112.18 
  1465.78,1113.28 1467.95,1114.38 1470.12,1115.48 1472.28,1116.57 1474.45,1117.66 1476.62,1118.75 1478.79,1119.84 1480.96,1120.92 1483.13,1122.01 1485.3,1123.09 
  1487.46,1124.16 1489.63,1125.24 1491.8,1126.31 1493.97,1127.38 1496.14,1128.45 1498.31,1129.51 1500.48,1130.57 1502.64,1131.63 1504.81,1132.69 1506.98,1133.74 
  1509.15,1134.79 1511.32,1135.84 1513.49,1136.89 1515.66,1137.93 1517.83,1138.97 1519.99,1140.01 1522.16,1141.04 1524.33,1142.07 1526.5,1143.1 1528.67,1144.13 
  1530.84,1145.15 1533.01,1146.17 1535.17,1147.19 1537.34,1148.21 1539.51,1149.22 1541.68,1150.23 1543.85,1151.23 1546.02,1152.24 1548.19,1153.24 1550.36,1154.24 
  1552.52,1155.23 1554.69,1156.22 1556.86,1157.21 1559.03,1158.19 1561.2,1159.18 1563.37,1160.16 1565.54,1161.13 1567.7,1162.11 1569.87,1163.08 1572.04,1164.04 
  1574.21,1165.01 1576.38,1165.97 1578.55,1166.93 1580.72,1167.88 1582.88,1168.83 1585.05,1169.78 1587.22,1170.73 1589.39,1171.67 1591.56,1172.61 1593.73,1173.55 
  1595.9,1174.48 1598.07,1175.41 1600.23,1176.34 1602.4,1177.26 1604.57,1178.18 1606.74,1179.1 1608.91,1180.02 1611.08,1180.93 1613.25,1181.84 1615.41,1182.74 
  1617.58,1183.65 1619.75,1184.54 1621.92,1185.44 1624.09,1186.33 1626.26,1187.22 1628.43,1188.11 1630.6,1188.99 1632.76,1189.87 1634.93,1190.75 1637.1,1191.63 
  1639.27,1192.5 1641.44,1193.37 1643.61,1194.23 1645.78,1195.09 1647.94,1195.95 1650.11,1196.81 1652.28,1197.66 1654.45,1198.51 1656.62,1199.36 1658.79,1200.2 
  1660.96,1201.04 1663.13,1201.88 1665.29,1202.71 1667.46,1203.54 1669.63,1204.37 1671.8,1205.19 1673.97,1206.01 1676.14,1206.83 1678.31,1207.65 1680.47,1208.46 
  1682.64,1209.27 1684.81,1210.07 1686.98,1210.88 1689.15,1211.68 1691.32,1212.47 1693.49,1213.27 1695.65,1214.06 1697.82,1214.85 1699.99,1215.63 1702.16,1216.41 
  1704.33,1217.19 1706.5,1217.97 1708.67,1218.74 1710.84,1219.51 1713,1220.28 1715.17,1221.04 1717.34,1221.8 1719.51,1222.56 1721.68,1223.31 1723.85,1224.06 
  1726.02,1224.81 1728.18,1225.56 1730.35,1226.3 1732.52,1227.04 1734.69,1227.78 1736.86,1228.51 1739.03,1229.24 1741.2,1229.97 1743.37,1230.69 1745.53,1231.42 
  1747.7,1232.14 1749.87,1232.85 1752.04,1233.56 1754.21,1234.27 1756.38,1234.98 1758.55,1235.69 1760.71,1236.39 1762.88,1237.09 1765.05,1237.78 1767.22,1238.48 
  1769.39,1239.17 1771.56,1239.85 1773.73,1240.54 1775.89,1241.22 1778.06,1241.9 1780.23,1242.57 1782.4,1243.25 1784.57,1243.92 1786.74,1244.58 1788.91,1245.25 
  1791.08,1245.91 1793.24,1246.57 1795.41,1247.23 1797.58,1247.88 1799.75,1248.53 1801.92,1249.18 1804.09,1249.82 1806.26,1250.46 1808.42,1251.1 1810.59,1251.74 
  1812.76,1252.37 1814.93,1253.01 1817.1,1253.63 1819.27,1254.26 1821.44,1254.88 1823.61,1255.5 1825.77,1256.12 1827.94,1256.74 1830.11,1257.35 1832.28,1257.96 
  1834.45,1258.57 1836.62,1259.17 1838.79,1259.77 1840.95,1260.37 1843.12,1260.97 1845.29,1261.56 1847.46,1262.15 1849.63,1262.74 1851.8,1263.33 1853.97,1263.91 
  1856.13,1264.49 1858.3,1265.07 1860.47,1265.65 1862.64,1266.22 1864.81,1266.79 1866.98,1267.36 1869.15,1267.93 1871.32,1268.49 1873.48,1269.05 1875.65,1269.61 
  1877.82,1270.17 1879.99,1270.72 1882.16,1271.27 1884.33,1271.82 1886.5,1272.36 1888.66,1272.91 1890.83,1273.45 1893,1273.99 1895.17,1274.52 1897.34,1275.06 
  1899.51,1275.59 1901.68,1276.12 1903.85,1276.65 1906.01,1277.17 1908.18,1277.69 1910.35,1278.21 1912.52,1278.73 1914.69,1279.24 1916.86,1279.76 1919.03,1280.27 
  1921.19,1280.78 1923.36,1281.28 1925.53,1281.79 1927.7,1282.29 1929.87,1282.79 1932.04,1283.28 1934.21,1283.78 1936.37,1284.27 1938.54,1284.76 1940.71,1285.25 
  1942.88,1285.73 1945.05,1286.22 1947.22,1286.7 1949.39,1287.18 1951.56,1287.65 1953.72,1288.13 1955.89,1288.6 1958.06,1289.07 1960.23,1289.54 1962.4,1290 
  1964.57,1290.47 1966.74,1290.93 1968.9,1291.39 1971.07,1291.85 1973.24,1292.3 1975.41,1292.76 1977.58,1293.21 1979.75,1293.66 1981.92,1294.1 1984.09,1294.55 
  1986.25,1294.99 1988.42,1295.43 1990.59,1295.87 1992.76,1296.31 1994.93,1296.74 1997.1,1297.17 1999.27,1297.6 2001.43,1298.03 2003.6,1298.46 2005.77,1298.88 
  2007.94,1299.31 2010.11,1299.73 2012.28,1300.15 2014.45,1300.56 2016.62,1300.98 2018.78,1301.39 2020.95,1301.8 2023.12,1302.21 2025.29,1302.62 2027.46,1303.02 
  2029.63,1303.42 2031.8,1303.83 2033.96,1304.23 2036.13,1304.62 2038.3,1305.02 2040.47,1305.41 2042.64,1305.8 2044.81,1306.19 2046.98,1306.58 2049.14,1306.97 
  2051.31,1307.35 2053.48,1307.74 2055.65,1308.12 2057.82,1308.5 2059.99,1308.87 2062.16,1309.25 2064.33,1309.62 2066.49,1309.99 2068.66,1310.36 2070.83,1310.73 
  2073,1311.1 2075.17,1311.46 2077.34,1311.83 2079.51,1312.19 2081.67,1312.55 2083.84,1312.91 2086.01,1313.26 2088.18,1313.62 2090.35,1313.97 2092.52,1314.32 
  2094.69,1314.67 2096.86,1315.02 2099.02,1315.36 2101.19,1315.71 2103.36,1316.05 2105.53,1316.39 2107.7,1316.73 2109.87,1317.07 2112.04,1317.4 2114.2,1317.74 
  2116.37,1318.07 2118.54,1318.4 2120.71,1318.73 2122.88,1319.06 2125.05,1319.39 2127.22,1319.71 2129.38,1320.04 2131.55,1320.36 2133.72,1320.68 2135.89,1321 
  2138.06,1321.31 2140.23,1321.63 2142.4,1321.94 2144.57,1322.26 2146.73,1322.57 2148.9,1322.88 2151.07,1323.18 2153.24,1323.49 2155.41,1323.8 2157.58,1324.1 
  2159.75,1324.4 2161.91,1324.7 2164.08,1325 2166.25,1325.3 2168.42,1325.6 2170.59,1325.89 2172.76,1326.18 2174.93,1326.48 2177.1,1326.77 2179.26,1327.06 
  2181.43,1327.34 2183.6,1327.63 2185.77,1327.92 2187.94,1328.2 2190.11,1328.48 2192.28,1328.76 2194.44,1329.04 2196.61,1329.32 2198.78,1329.6 2200.95,1329.87 
  2203.12,1330.15 2205.29,1330.42 2207.46,1330.69 2209.62,1330.96 2211.79,1331.23 2213.96,1331.5 2216.13,1331.76 2218.3,1332.03 2220.47,1332.29 2222.64,1332.55 
  2224.81,1332.82 2226.97,1333.07 2229.14,1333.33 2231.31,1333.59 2233.48,1333.85 2235.65,1334.1 2237.82,1334.35 2239.99,1334.61 2242.15,1334.86 2244.32,1335.11 
  2246.49,1335.36 2248.66,1335.6 2250.83,1335.85 2253,1336.09 2255.17,1336.34 2257.34,1336.58 2259.5,1336.82 2261.67,1337.06 2263.84,1337.3 2266.01,1337.54 
  2268.18,1337.77 2270.35,1338.01 2272.52,1338.24 2274.68,1338.48 2276.85,1338.71 2279.02,1338.94 2281.19,1339.17 2283.36,1339.4 2285.53,1339.62 2287.7,1339.85 
  2289.87,1340.08 2292.03,1340.3 2294.2,1340.52 2296.37,1340.74 2298.54,1340.97 2300.71,1341.18 2302.88,1341.4 2305.05,1341.62 2307.21,1341.84 2309.38,1342.05 
  2311.55,1342.27 2313.72,1342.48 2315.89,1342.69 2318.06,1342.9 2320.23,1343.11 2322.39,1343.32 2324.56,1343.53 2326.73,1343.74 2328.9,1343.94 2331.07,1344.15 
  2333.24,1344.35 2335.41,1344.55 2337.58,1344.75 2339.74,1344.96 2341.91,1345.16 2344.08,1345.35 2346.25,1345.55 2348.42,1345.75 2350.59,1345.94 2352.76,1346.14 
  
  "/>
<polyline clip-path="url(#clip112)" style="stroke:#3da44d; stroke-linecap:butt; stroke-linejoin:round; stroke-width:8; stroke-opacity:1; fill:none" points="
  186.274,1384.24 188.443,1384.16 190.611,1384.08 192.78,1384 194.949,1383.91 197.117,1383.83 199.286,1383.75 201.455,1383.66 203.623,1383.57 205.792,1383.48 
  207.961,1383.39 210.129,1383.3 212.298,1383.21 214.466,1383.12 216.635,1383.02 218.804,1382.93 220.972,1382.83 223.141,1382.73 225.31,1382.63 227.478,1382.53 
  229.647,1382.42 231.816,1382.32 233.984,1382.21 236.153,1382.11 238.322,1382 240.49,1381.89 242.659,1381.78 244.828,1381.66 246.996,1381.55 249.165,1381.43 
  251.334,1381.31 253.502,1381.19 255.671,1381.07 257.839,1380.95 260.008,1380.82 262.177,1380.7 264.345,1380.57 266.514,1380.44 268.683,1380.31 270.851,1380.17 
  273.02,1380.04 275.189,1379.9 277.357,1379.76 279.526,1379.62 281.695,1379.48 283.863,1379.33 286.032,1379.19 288.201,1379.04 290.369,1378.89 292.538,1378.73 
  294.707,1378.58 296.875,1378.42 299.044,1378.26 301.212,1378.1 303.381,1377.94 305.55,1377.77 307.718,1377.6 309.887,1377.43 312.056,1377.26 314.224,1377.08 
  316.393,1376.91 318.562,1376.73 320.73,1376.54 322.899,1376.36 325.068,1376.17 327.236,1375.98 329.405,1375.79 331.574,1375.6 333.742,1375.4 335.911,1375.2 
  338.08,1375 340.248,1374.79 342.417,1374.58 344.585,1374.37 346.754,1374.16 348.923,1373.94 351.091,1373.72 353.26,1373.5 355.429,1373.27 357.597,1373.04 
  359.766,1372.81 361.935,1372.57 364.103,1372.34 366.272,1372.1 368.441,1371.85 370.609,1371.6 372.778,1371.35 374.947,1371.1 377.115,1370.84 379.284,1370.58 
  381.453,1370.32 383.621,1370.05 385.79,1369.78 387.959,1369.5 390.127,1369.22 392.296,1368.94 394.464,1368.65 396.633,1368.36 398.802,1368.07 400.97,1367.77 
  403.139,1367.47 405.308,1367.17 407.476,1366.86 409.645,1366.54 411.814,1366.22 413.982,1365.9 416.151,1365.58 418.32,1365.25 420.488,1364.91 422.657,1364.57 
  424.826,1364.23 426.994,1363.88 429.163,1363.53 431.332,1363.18 433.5,1362.81 435.669,1362.45 437.837,1362.08 440.006,1361.7 442.175,1361.32 444.343,1360.94 
  446.512,1360.55 448.681,1360.15 450.849,1359.76 453.018,1359.35 455.187,1358.94 457.355,1358.53 459.524,1358.11 461.693,1357.68 463.861,1357.25 466.03,1356.81 
  468.199,1356.37 470.367,1355.92 472.536,1355.47 474.705,1355.01 476.873,1354.55 479.042,1354.08 481.21,1353.6 483.379,1353.12 485.548,1352.63 487.716,1352.14 
  489.885,1351.64 492.054,1351.13 494.222,1350.62 496.391,1350.1 498.56,1349.58 500.728,1349.04 502.897,1348.51 505.066,1347.96 507.234,1347.41 509.403,1346.85 
  511.572,1346.29 513.74,1345.72 515.909,1345.14 518.078,1344.55 520.246,1343.96 522.415,1343.36 524.583,1342.76 526.752,1342.14 528.921,1341.52 531.089,1340.89 
  533.258,1340.26 535.427,1339.62 537.595,1338.97 539.764,1338.31 541.933,1337.64 544.101,1336.97 546.27,1336.29 548.439,1335.6 550.607,1334.9 552.776,1334.19 
  554.945,1333.48 557.113,1332.76 559.282,1332.03 561.451,1331.29 563.619,1330.54 565.788,1329.79 567.956,1329.02 570.125,1328.25 572.294,1327.47 574.462,1326.68 
  576.631,1325.88 578.8,1325.07 580.968,1324.26 583.137,1323.43 585.306,1322.6 587.474,1321.75 589.643,1320.9 591.812,1320.04 593.98,1319.16 596.149,1318.28 
  598.318,1317.39 600.486,1316.49 602.655,1315.58 604.824,1314.66 606.992,1313.73 609.161,1312.79 611.33,1311.84 613.498,1310.88 615.667,1309.91 617.835,1308.94 
  620.004,1307.95 622.173,1306.95 624.341,1305.93 626.51,1304.91 628.679,1303.88 630.847,1302.84 633.016,1301.79 635.185,1300.72 637.353,1299.65 639.522,1298.57 
  641.691,1297.47 643.859,1296.36 646.028,1295.25 648.197,1294.12 650.365,1292.98 652.534,1291.83 654.703,1290.67 656.871,1289.49 659.04,1288.31 661.208,1287.11 
  663.377,1285.91 665.546,1284.69 667.714,1283.46 669.883,1282.22 672.052,1280.96 674.22,1279.7 676.389,1278.42 678.558,1277.14 680.726,1275.84 682.895,1274.52 
  685.064,1273.2 687.232,1271.87 689.401,1270.52 691.57,1269.16 693.738,1267.79 695.907,1266.41 698.076,1265.01 700.244,1263.6 702.413,1262.18 704.581,1260.75 
  706.75,1259.31 708.919,1257.85 711.087,1256.38 713.256,1254.9 715.425,1253.41 717.593,1251.91 719.762,1250.39 721.931,1248.86 724.099,1247.32 726.268,1245.76 
  728.437,1244.2 730.605,1242.62 732.774,1241.03 734.943,1239.42 737.111,1237.8 739.28,1236.18 741.449,1234.53 743.617,1232.88 745.786,1231.21 747.954,1229.54 
  750.123,1227.84 752.292,1226.14 754.46,1224.42 756.629,1222.7 758.798,1220.96 760.966,1219.2 763.135,1217.44 765.304,1215.66 767.472,1213.87 769.641,1212.07 
  771.81,1210.25 773.978,1208.43 776.147,1206.59 778.316,1204.74 780.484,1202.87 782.653,1201 784.822,1199.11 786.99,1197.21 789.159,1195.3 791.328,1193.37 
  793.496,1191.44 795.665,1189.49 797.833,1187.53 800.002,1185.56 802.171,1183.58 804.339,1181.58 806.508,1179.58 808.677,1177.56 810.845,1175.53 813.014,1173.49 
  815.183,1171.44 817.351,1169.37 819.52,1167.3 821.689,1165.21 823.857,1163.12 826.026,1161.01 828.195,1158.89 830.363,1156.76 832.532,1154.62 834.701,1152.46 
  836.869,1150.3 839.038,1148.13 841.206,1145.94 843.375,1143.75 845.544,1141.54 847.712,1139.33 849.881,1137.1 852.05,1134.86 854.218,1132.62 856.387,1130.36 
  858.556,1128.09 860.724,1125.82 862.893,1123.53 865.062,1121.24 867.23,1118.93 869.399,1116.62 871.568,1114.29 873.736,1111.96 875.905,1109.62 878.074,1107.26 
  880.242,1104.9 882.411,1102.53 884.579,1100.15 886.748,1097.77 888.917,1095.37 891.085,1092.97 893.254,1090.55 895.423,1088.13 897.591,1085.71 899.76,1083.27 
  901.929,1080.82 904.097,1078.37 906.266,1075.91 908.435,1073.45 910.603,1070.97 912.772,1068.49 914.941,1066 917.109,1063.51 919.278,1061 921.447,1058.49 
  923.615,1055.98 925.784,1053.46 927.952,1050.93 930.121,1048.39 932.29,1045.85 934.458,1043.31 936.627,1040.75 938.796,1038.19 940.964,1035.63 943.133,1033.06 
  945.302,1030.48 947.47,1027.9 949.639,1025.32 951.808,1022.73 953.976,1020.13 956.145,1017.53 958.314,1014.92 960.482,1012.31 962.651,1009.7 964.82,1007.08 
  966.988,1004.46 969.157,1001.83 971.326,999.202 973.494,996.567 975.663,993.929 977.831,991.287 980,988.641 982.169,985.993 984.337,983.341 986.506,980.686 
  988.675,978.028 990.843,975.367 993.012,972.704 995.181,970.038 997.349,967.369 999.518,964.698 1001.69,962.025 1003.86,959.35 1006.02,956.673 1008.19,953.994 
  1010.36,951.313 1012.53,948.631 1014.7,945.947 1016.87,943.262 1019.04,940.576 1021.2,937.889 1023.37,935.201 1025.54,932.512 1027.71,929.822 1029.88,927.132 
  1032.05,924.441 1034.22,921.75 1036.39,919.058 1038.55,916.366 1040.72,913.675 1042.89,910.983 1045.06,908.291 1047.23,905.6 1049.4,902.909 1051.57,900.219 
  1053.73,897.529 1055.9,894.84 1058.07,892.151 1060.24,889.464 1062.41,886.778 1064.58,884.092 1066.75,881.408 1068.91,878.726 1071.08,876.044 1073.25,873.364 
  1075.42,870.686 1077.59,868.009 1079.76,865.335 1081.93,862.662 1084.1,859.991 1086.26,857.322 1088.43,854.655 1090.6,851.991 1092.77,849.329 1094.94,846.669 
  1097.11,844.012 1099.28,841.358 1101.44,838.706 1103.61,836.057 1105.78,833.411 1107.95,830.768 1110.12,828.127 1112.29,825.49 1114.46,822.856 1116.63,820.226 
  1118.79,817.599 1120.96,814.975 1123.13,812.355 1125.3,809.738 1127.47,807.125 1129.64,804.516 1131.81,801.91 1133.97,799.308 1136.14,796.711 1138.31,794.117 
  1140.48,791.528 1142.65,788.942 1144.82,786.361 1146.99,783.784 1149.15,781.212 1151.32,778.644 1153.49,776.08 1155.66,773.521 1157.83,770.967 1160,768.417 
  1162.17,765.872 1164.34,763.332 1166.5,760.797 1168.67,758.266 1170.84,755.741 1173.01,753.221 1175.18,750.706 1177.35,748.195 1179.52,745.691 1181.68,743.191 
  1183.85,740.697 1186.02,738.208 1188.19,735.724 1190.36,733.246 1192.53,730.773 1194.7,728.306 1196.87,725.845 1199.03,723.389 1201.2,720.939 1203.37,718.495 
  1205.54,716.056 1207.71,713.624 1209.88,711.197 1212.05,708.776 1214.21,706.362 1216.38,703.953 1218.55,701.55 1220.72,699.154 1222.89,696.764 1225.06,694.379 
  1227.23,692.001 1229.39,689.63 1231.56,687.264 1233.73,684.905 1235.9,682.552 1238.07,680.205 1240.24,677.865 1242.41,675.531 1244.58,673.203 1246.74,670.882 
  1248.91,668.567 1251.08,666.258 1253.25,663.956 1255.42,661.661 1257.59,659.372 1259.76,657.089 1261.92,654.813 1264.09,652.544 1266.26,650.281 1268.43,648.025 
  1270.6,645.775 1272.77,643.532 1274.94,641.296 1277.11,639.066 1279.27,636.843 1281.44,634.627 1283.61,632.418 1285.78,630.215 1287.95,628.019 1290.12,625.829 
  1292.29,623.647 1294.45,621.471 1296.62,619.302 1298.79,617.14 1300.96,614.984 1303.13,612.836 1305.3,610.694 1307.47,608.559 1309.63,606.432 1311.8,604.31 
  1313.97,602.196 1316.14,600.089 1318.31,597.989 1320.48,595.895 1322.65,593.809 1324.82,591.729 1326.98,589.657 1329.15,587.591 1331.32,585.532 1333.49,583.481 
  1335.66,581.436 1337.83,579.398 1340,577.367 1342.16,575.343 1344.33,573.326 1346.5,571.317 1348.67,569.314 1350.84,567.318 1353.01,565.329 1355.18,563.347 
  1357.35,561.372 1359.51,559.405 1361.68,557.444 1363.85,555.49 1366.02,553.543 1368.19,551.603 1370.36,549.671 1372.53,547.745 1374.69,545.826 1376.86,543.915 
  1379.03,542.01 1381.2,540.112 1383.37,538.221 1385.54,536.338 1387.71,534.461 1389.88,532.591 1392.04,530.729 1394.21,528.873 1396.38,527.024 1398.55,525.182 
  1400.72,523.348 1402.89,521.52 1405.06,519.699 1407.22,517.885 1409.39,516.078 1411.56,514.278 1413.73,512.485 1415.9,510.698 1418.07,508.919 1420.24,507.147 
  1422.4,505.381 1424.57,503.622 1426.74,501.871 1428.91,500.126 1431.08,498.388 1433.25,496.656 1435.42,494.932 1437.59,493.214 1439.75,491.503 1441.92,489.799 
  1444.09,488.102 1446.26,486.411 1448.43,484.727 1450.6,483.05 1452.77,481.38 1454.93,479.716 1457.1,478.059 1459.27,476.409 1461.44,474.765 1463.61,473.128 
  1465.78,471.497 1467.95,469.873 1470.12,468.256 1472.28,466.645 1474.45,465.041 1476.62,463.443 1478.79,461.852 1480.96,460.267 1483.13,458.689 1485.3,457.118 
  1487.46,455.552 1489.63,453.994 1491.8,452.441 1493.97,450.896 1496.14,449.356 1498.31,447.823 1500.48,446.296 1502.64,444.776 1504.81,443.262 1506.98,441.754 
  1509.15,440.253 1511.32,438.758 1513.49,437.269 1515.66,435.787 1517.83,434.31 1519.99,432.84 1522.16,431.377 1524.33,429.919 1526.5,428.468 1528.67,427.022 
  1530.84,425.583 1533.01,424.15 1535.17,422.723 1537.34,421.303 1539.51,419.888 1541.68,418.479 1543.85,417.077 1546.02,415.68 1548.19,414.29 1550.36,412.905 
  1552.52,411.527 1554.69,410.154 1556.86,408.788 1559.03,407.427 1561.2,406.072 1563.37,404.723 1565.54,403.38 1567.7,402.043 1569.87,400.712 1572.04,399.386 
  1574.21,398.067 1576.38,396.753 1578.55,395.445 1580.72,394.142 1582.88,392.846 1585.05,391.555 1587.22,390.27 1589.39,388.99 1591.56,387.716 1593.73,386.448 
  1595.9,385.185 1598.07,383.928 1600.23,382.677 1602.4,381.431 1604.57,380.191 1606.74,378.956 1608.91,377.727 1611.08,376.503 1613.25,375.285 1615.41,374.072 
  1617.58,372.864 1619.75,371.662 1621.92,370.465 1624.09,369.274 1626.26,368.088 1628.43,366.908 1630.6,365.732 1632.76,364.562 1634.93,363.398 1637.1,362.238 
  1639.27,361.084 1641.44,359.935 1643.61,358.791 1645.78,357.653 1647.94,356.519 1650.11,355.391 1652.28,354.268 1654.45,353.15 1656.62,352.037 1658.79,350.929 
  1660.96,349.826 1663.13,348.728 1665.29,347.636 1667.46,346.548 1669.63,345.465 1671.8,344.387 1673.97,343.314 1676.14,342.246 1678.31,341.183 1680.47,340.125 
  1682.64,339.072 1684.81,338.023 1686.98,336.979 1689.15,335.941 1691.32,334.906 1693.49,333.877 1695.65,332.853 1697.82,331.833 1699.99,330.818 1702.16,329.807 
  1704.33,328.802 1706.5,327.801 1708.67,326.804 1710.84,325.813 1713,324.825 1715.17,323.843 1717.34,322.865 1719.51,321.892 1721.68,320.923 1723.85,319.958 
  1726.02,318.998 1728.18,318.043 1730.35,317.092 1732.52,316.146 1734.69,315.204 1736.86,314.266 1739.03,313.333 1741.2,312.404 1743.37,311.48 1745.53,310.56 
  1747.7,309.644 1749.87,308.732 1752.04,307.825 1754.21,306.922 1756.38,306.024 1758.55,305.129 1760.71,304.239 1762.88,303.353 1765.05,302.471 1767.22,301.594 
  1769.39,300.72 1771.56,299.851 1773.73,298.986 1775.89,298.125 1778.06,297.268 1780.23,296.415 1782.4,295.566 1784.57,294.721 1786.74,293.881 1788.91,293.044 
  1791.08,292.211 1793.24,291.382 1795.41,290.557 1797.58,289.736 1799.75,288.919 1801.92,288.106 1804.09,287.297 1806.26,286.491 1808.42,285.69 1810.59,284.892 
  1812.76,284.098 1814.93,283.308 1817.1,282.522 1819.27,281.74 1821.44,280.961 1823.61,280.186 1825.77,279.415 1827.94,278.647 1830.11,277.883 1832.28,277.123 
  1834.45,276.366 1836.62,275.614 1838.79,274.864 1840.95,274.119 1843.12,273.377 1845.29,272.638 1847.46,271.903 1849.63,271.172 1851.8,270.444 1853.97,269.72 
  1856.13,268.999 1858.3,268.281 1860.47,267.568 1862.64,266.857 1864.81,266.15 1866.98,265.447 1869.15,264.747 1871.32,264.05 1873.48,263.356 1875.65,262.666 
  1877.82,261.98 1879.99,261.296 1882.16,260.616 1884.33,259.94 1886.5,259.266 1888.66,258.596 1890.83,257.929 1893,257.265 1895.17,256.605 1897.34,255.948 
  1899.51,255.294 1901.68,254.643 1903.85,253.995 1906.01,253.35 1908.18,252.709 1910.35,252.071 1912.52,251.435 1914.69,250.803 1916.86,250.174 1919.03,249.548 
  1921.19,248.925 1923.36,248.305 1925.53,247.688 1927.7,247.075 1929.87,246.464 1932.04,245.856 1934.21,245.251 1936.37,244.649 1938.54,244.05 1940.71,243.454 
  1942.88,242.861 1945.05,242.27 1947.22,241.683 1949.39,241.098 1951.56,240.517 1953.72,239.938 1955.89,239.362 1958.06,238.789 1960.23,238.218 1962.4,237.651 
  1964.57,237.086 1966.74,236.524 1968.9,235.965 1971.07,235.409 1973.24,234.855 1975.41,234.304 1977.58,233.756 1979.75,233.21 1981.92,232.667 1984.09,232.127 
  1986.25,231.59 1988.42,231.055 1990.59,230.522 1992.76,229.993 1994.93,229.466 1997.1,228.942 1999.27,228.42 2001.43,227.901 2003.6,227.384 2005.77,226.87 
  2007.94,226.358 2010.11,225.849 2012.28,225.343 2014.45,224.839 2016.62,224.338 2018.78,223.839 2020.95,223.342 2023.12,222.848 2025.29,222.357 2027.46,221.868 
  2029.63,221.381 2031.8,220.897 2033.96,220.415 2036.13,219.936 2038.3,219.459 2040.47,218.984 2042.64,218.512 2044.81,218.042 2046.98,217.574 2049.14,217.109 
  2051.31,216.646 2053.48,216.185 2055.65,215.727 2057.82,215.271 2059.99,214.817 2062.16,214.365 2064.33,213.916 2066.49,213.469 2068.66,213.024 2070.83,212.582 
  2073,212.142 2075.17,211.703 2077.34,211.267 2079.51,210.834 2081.67,210.402 2083.84,209.973 2086.01,209.545 2088.18,209.12 2090.35,208.697 2092.52,208.276 
  2094.69,207.858 2096.86,207.441 2099.02,207.026 2101.19,206.614 2103.36,206.203 2105.53,205.795 2107.7,205.389 2109.87,204.984 2112.04,204.582 2114.2,204.182 
  2116.37,203.783 2118.54,203.387 2120.71,202.993 2122.88,202.601 2125.05,202.21 2127.22,201.822 2129.38,201.435 2131.55,201.051 2133.72,200.668 2135.89,200.288 
  2138.06,199.909 2140.23,199.532 2142.4,199.157 2144.57,198.784 2146.73,198.413 2148.9,198.044 2151.07,197.676 2153.24,197.311 2155.41,196.947 2157.58,196.585 
  2159.75,196.225 2161.91,195.866 2164.08,195.51 2166.25,195.155 2168.42,194.802 2170.59,194.451 2172.76,194.102 2174.93,193.754 2177.1,193.408 2179.26,193.064 
  2181.43,192.721 2183.6,192.381 2185.77,192.042 2187.94,191.704 2190.11,191.369 2192.28,191.035 2194.44,190.702 2196.61,190.372 2198.78,190.043 2200.95,189.715 
  2203.12,189.39 2205.29,189.066 2207.46,188.743 2209.62,188.423 2211.79,188.103 2213.96,187.786 2216.13,187.47 2218.3,187.155 2220.47,186.843 2222.64,186.531 
  2224.81,186.222 2226.97,185.914 2229.14,185.607 2231.31,185.302 2233.48,184.999 2235.65,184.697 2237.82,184.397 2239.99,184.098 2242.15,183.8 2244.32,183.505 
  2246.49,183.21 2248.66,182.917 2250.83,182.626 2253,182.336 2255.17,182.048 2257.34,181.761 2259.5,181.475 2261.67,181.191 2263.84,180.909 2266.01,180.627 
  2268.18,180.348 2270.35,180.069 2272.52,179.792 2274.68,179.517 2276.85,179.243 2279.02,178.97 2281.19,178.698 2283.36,178.428 2285.53,178.16 2287.7,177.893 
  2289.87,177.627 2292.03,177.362 2294.2,177.099 2296.37,176.837 2298.54,176.576 2300.71,176.317 2302.88,176.059 2305.05,175.803 2307.21,175.547 2309.38,175.293 
  2311.55,175.041 2313.72,174.789 2315.89,174.539 2318.06,174.29 2320.23,174.042 2322.39,173.796 2324.56,173.551 2326.73,173.307 2328.9,173.064 2331.07,172.823 
  2333.24,172.583 2335.41,172.344 2337.58,172.106 2339.74,171.87 2341.91,171.634 2344.08,171.4 2346.25,171.167 2348.42,170.936 2350.59,170.705 2352.76,170.476 
  
  "/>
<path clip-path="url(#clip110)" d="
M1966.19 300.469 L2280.54 300.469 L2280.54 93.1086 L1966.19 93.1086  Z
  " fill="#ffffff" fill-rule="evenodd" fill-opacity="1"/>
<polyline clip-path="url(#clip110)" style="stroke:#000000; stroke-linecap:butt; stroke-linejoin:round; stroke-width:4; stroke-opacity:1; fill:none" points="
  1966.19,300.469 2280.54,300.469 2280.54,93.1086 1966.19,93.1086 1966.19,300.469 
  "/>
<polyline clip-path="url(#clip110)" style="stroke:#009af9; stroke-linecap:butt; stroke-linejoin:round; stroke-width:4; stroke-opacity:1; fill:none" points="
  1990.26,144.949 2134.69,144.949 
  "/>
<path clip-path="url(#clip110)" d="M2177.19 137.067 L2177.19 141.094 Q2175.38 140.169 2173.44 139.706 Q2171.49 139.243 2169.41 139.243 Q2166.24 139.243 2164.64 140.215 Q2163.07 141.187 2163.07 143.131 Q2163.07 144.613 2164.2 145.469 Q2165.34 146.303 2168.76 147.067 L2170.22 147.391 Q2174.76 148.363 2176.66 150.145 Q2178.58 151.905 2178.58 155.076 Q2178.58 158.687 2175.71 160.793 Q2172.86 162.9 2167.86 162.9 Q2165.78 162.9 2163.51 162.483 Q2161.26 162.09 2158.76 161.28 L2158.76 156.881 Q2161.12 158.108 2163.41 158.733 Q2165.71 159.335 2167.95 159.335 Q2170.96 159.335 2172.58 158.317 Q2174.2 157.275 2174.2 155.4 Q2174.2 153.664 2173.02 152.738 Q2171.86 151.812 2167.91 150.956 L2166.42 150.608 Q2162.47 149.775 2160.71 148.062 Q2158.95 146.326 2158.95 143.317 Q2158.95 139.659 2161.54 137.669 Q2164.13 135.678 2168.9 135.678 Q2171.26 135.678 2173.35 136.025 Q2175.43 136.372 2177.19 137.067 Z" fill="#000000" fill-rule="evenodd" fill-opacity="1" /><path clip-path="url(#clip110)" d="M2195.59 126.257 Q2192.49 131.581 2190.98 136.789 Q2189.48 141.997 2189.48 147.344 Q2189.48 152.692 2190.98 157.946 Q2192.51 163.178 2195.59 168.479 L2191.89 168.479 Q2188.41 163.039 2186.68 157.784 Q2184.97 152.53 2184.97 147.344 Q2184.97 142.182 2186.68 136.951 Q2188.39 131.72 2191.89 126.257 L2195.59 126.257 Z" fill="#000000" fill-rule="evenodd" fill-opacity="1" /><path clip-path="url(#clip110)" d="M2208.07 128.942 L2208.07 136.303 L2216.84 136.303 L2216.84 139.613 L2208.07 139.613 L2208.07 153.687 Q2208.07 156.858 2208.92 157.761 Q2209.8 158.664 2212.47 158.664 L2216.84 158.664 L2216.84 162.229 L2212.47 162.229 Q2207.53 162.229 2205.66 160.4 Q2203.78 158.548 2203.78 153.687 L2203.78 139.613 L2200.66 139.613 L2200.66 136.303 L2203.78 136.303 L2203.78 128.942 L2208.07 128.942 Z" fill="#000000" fill-rule="evenodd" fill-opacity="1" /><path clip-path="url(#clip110)" d="M2221.77 126.257 L2225.47 126.257 Q2228.95 131.72 2230.66 136.951 Q2232.4 142.182 2232.4 147.344 Q2232.4 152.53 2230.66 157.784 Q2228.95 163.039 2225.47 168.479 L2221.77 168.479 Q2224.85 163.178 2226.35 157.946 Q2227.88 152.692 2227.88 147.344 Q2227.88 141.997 2226.35 136.789 Q2224.85 131.581 2221.77 126.257 Z" fill="#000000" fill-rule="evenodd" fill-opacity="1" /><polyline clip-path="url(#clip110)" style="stroke:#e26f46; stroke-linecap:butt; stroke-linejoin:round; stroke-width:4; stroke-opacity:1; fill:none" points="
  1990.26,196.789 2134.69,196.789 
  "/>
<path clip-path="url(#clip110)" d="M2158.76 188.143 L2163.02 188.143 L2163.02 214.069 L2158.76 214.069 L2158.76 188.143 M2158.76 178.05 L2163.02 178.05 L2163.02 183.444 L2158.76 183.444 L2158.76 178.05 Z" fill="#000000" fill-rule="evenodd" fill-opacity="1" /><path clip-path="url(#clip110)" d="M2182.16 178.097 Q2179.06 183.421 2177.56 188.629 Q2176.05 193.837 2176.05 199.184 Q2176.05 204.532 2177.56 209.786 Q2179.09 215.018 2182.16 220.319 L2178.46 220.319 Q2174.99 214.879 2173.25 209.624 Q2171.54 204.37 2171.54 199.184 Q2171.54 194.022 2173.25 188.791 Q2174.97 183.56 2178.46 178.097 L2182.16 178.097 Z" fill="#000000" fill-rule="evenodd" fill-opacity="1" /><path clip-path="url(#clip110)" d="M2194.64 180.782 L2194.64 188.143 L2203.41 188.143 L2203.41 191.453 L2194.64 191.453 L2194.64 205.527 Q2194.64 208.698 2195.5 209.601 Q2196.38 210.504 2199.04 210.504 L2203.41 210.504 L2203.41 214.069 L2199.04 214.069 Q2194.11 214.069 2192.23 212.24 Q2190.36 210.388 2190.36 205.527 L2190.36 191.453 L2187.23 191.453 L2187.23 188.143 L2190.36 188.143 L2190.36 180.782 L2194.64 180.782 Z" fill="#000000" fill-rule="evenodd" fill-opacity="1" /><path clip-path="url(#clip110)" d="M2208.35 178.097 L2212.05 178.097 Q2215.52 183.56 2217.23 188.791 Q2218.97 194.022 2218.97 199.184 Q2218.97 204.37 2217.23 209.624 Q2215.52 214.879 2212.05 220.319 L2208.35 220.319 Q2211.42 215.018 2212.93 209.786 Q2214.46 204.532 2214.46 199.184 Q2214.46 193.837 2212.93 188.629 Q2211.42 183.421 2208.35 178.097 Z" fill="#000000" fill-rule="evenodd" fill-opacity="1" /><polyline clip-path="url(#clip110)" style="stroke:#3da44d; stroke-linecap:butt; stroke-linejoin:round; stroke-width:4; stroke-opacity:1; fill:none" points="
  1990.26,248.629 2134.69,248.629 
  "/>
<path clip-path="url(#clip110)" d="M2173.95 243.964 Q2173.23 243.548 2172.37 243.362 Q2171.54 243.154 2170.52 243.154 Q2166.91 243.154 2164.97 245.515 Q2163.04 247.853 2163.04 252.251 L2163.04 265.909 L2158.76 265.909 L2158.76 239.983 L2163.04 239.983 L2163.04 244.011 Q2164.39 241.649 2166.54 240.515 Q2168.69 239.358 2171.77 239.358 Q2172.21 239.358 2172.74 239.427 Q2173.28 239.474 2173.92 239.589 L2173.95 243.964 Z" fill="#000000" fill-rule="evenodd" fill-opacity="1" /><path clip-path="url(#clip110)" d="M2188.65 229.937 Q2185.54 235.261 2184.04 240.469 Q2182.53 245.677 2182.53 251.024 Q2182.53 256.372 2184.04 261.626 Q2185.57 266.858 2188.65 272.159 L2184.94 272.159 Q2181.47 266.719 2179.73 261.464 Q2178.02 256.21 2178.02 251.024 Q2178.02 245.862 2179.73 240.631 Q2181.45 235.4 2184.94 229.937 L2188.65 229.937 Z" fill="#000000" fill-rule="evenodd" fill-opacity="1" /><path clip-path="url(#clip110)" d="M2201.12 232.622 L2201.12 239.983 L2209.9 239.983 L2209.9 243.293 L2201.12 243.293 L2201.12 257.367 Q2201.12 260.538 2201.98 261.441 Q2202.86 262.344 2205.52 262.344 L2209.9 262.344 L2209.9 265.909 L2205.52 265.909 Q2200.59 265.909 2198.72 264.08 Q2196.84 262.228 2196.84 257.367 L2196.84 243.293 L2193.72 243.293 L2193.72 239.983 L2196.84 239.983 L2196.84 232.622 L2201.12 232.622 Z" fill="#000000" fill-rule="evenodd" fill-opacity="1" /><path clip-path="url(#clip110)" d="M2214.83 229.937 L2218.53 229.937 Q2222 235.4 2223.72 240.631 Q2225.45 245.862 2225.45 251.024 Q2225.45 256.21 2223.72 261.464 Q2222 266.719 2218.53 272.159 L2214.83 272.159 Q2217.91 266.858 2219.41 261.626 Q2220.94 256.372 2220.94 251.024 Q2220.94 245.677 2219.41 240.469 Q2217.91 235.261 2214.83 229.937 Z" fill="#000000" fill-rule="evenodd" fill-opacity="1" /></svg>
