<?xml version="1.0" encoding="utf-8"?>
<svg xmlns="http://www.w3.org/2000/svg" xmlns:xlink="http://www.w3.org/1999/xlink" width="600" height="400" viewBox="0 0 2400 1600">
<defs>
  <clipPath id="clip030">
    <rect x="0" y="0" width="2400" height="1600"/>
  </clipPath>
</defs>
<path clip-path="url(#clip030)" d="
M0 1600 L2400 1600 L2400 0 L0 0  Z
  " fill="#ffffff" fill-rule="evenodd" fill-opacity="1"/>
<defs>
  <clipPath id="clip031">
    <rect x="480" y="0" width="1681" height="1600"/>
  </clipPath>
</defs>
<path clip-path="url(#clip030)" d="
M186.274 1486.45 L2352.76 1486.45 L2352.76 47.2441 L186.274 47.2441  Z
  " fill="#ffffff" fill-rule="evenodd" fill-opacity="1"/>
<defs>
  <clipPath id="clip032">
    <rect x="186" y="47" width="2167" height="1440"/>
  </clipPath>
</defs>
<polyline clip-path="url(#clip032)" style="stroke:#000000; stroke-linecap:butt; stroke-linejoin:round; stroke-width:2; stroke-opacity:0.1; fill:none" points="
  515.483,1486.45 515.483,47.2441 
  "/>
<polyline clip-path="url(#clip032)" style="stroke:#000000; stroke-linecap:butt; stroke-linejoin:round; stroke-width:2; stroke-opacity:0.1; fill:none" points="
  928.818,1486.45 928.818,47.2441 
  "/>
<polyline clip-path="url(#clip032)" style="stroke:#000000; stroke-linecap:butt; stroke-linejoin:round; stroke-width:2; stroke-opacity:0.1; fill:none" points="
  1342.15,1486.45 1342.15,47.2441 
  "/>
<polyline clip-path="url(#clip032)" style="stroke:#000000; stroke-linecap:butt; stroke-linejoin:round; stroke-width:2; stroke-opacity:0.1; fill:none" points="
  1755.49,1486.45 1755.49,47.2441 
  "/>
<polyline clip-path="url(#clip032)" style="stroke:#000000; stroke-linecap:butt; stroke-linejoin:round; stroke-width:2; stroke-opacity:0.1; fill:none" points="
  2168.82,1486.45 2168.82,47.2441 
  "/>
<polyline clip-path="url(#clip030)" style="stroke:#000000; stroke-linecap:butt; stroke-linejoin:round; stroke-width:4; stroke-opacity:1; fill:none" points="
  186.274,1486.45 2352.76,1486.45 
  "/>
<polyline clip-path="url(#clip030)" style="stroke:#000000; stroke-linecap:butt; stroke-linejoin:round; stroke-width:4; stroke-opacity:1; fill:none" points="
  515.483,1486.45 515.483,1467.55 
  "/>
<polyline clip-path="url(#clip030)" style="stroke:#000000; stroke-linecap:butt; stroke-linejoin:round; stroke-width:4; stroke-opacity:1; fill:none" points="
  928.818,1486.45 928.818,1467.55 
  "/>
<polyline clip-path="url(#clip030)" style="stroke:#000000; stroke-linecap:butt; stroke-linejoin:round; stroke-width:4; stroke-opacity:1; fill:none" points="
  1342.15,1486.45 1342.15,1467.55 
  "/>
<polyline clip-path="url(#clip030)" style="stroke:#000000; stroke-linecap:butt; stroke-linejoin:round; stroke-width:4; stroke-opacity:1; fill:none" points="
  1755.49,1486.45 1755.49,1467.55 
  "/>
<polyline clip-path="url(#clip030)" style="stroke:#000000; stroke-linecap:butt; stroke-linejoin:round; stroke-width:4; stroke-opacity:1; fill:none" points="
  2168.82,1486.45 2168.82,1467.55 
  "/>
<path clip-path="url(#clip030)" d="M493.666 1517.37 Q490.055 1517.37 488.226 1520.93 Q486.42 1524.47 486.42 1531.6 Q486.42 1538.71 488.226 1542.27 Q490.055 1545.82 493.666 1545.82 Q497.3 1545.82 499.106 1542.27 Q500.934 1538.71 500.934 1531.6 Q500.934 1524.47 499.106 1520.93 Q497.3 1517.37 493.666 1517.37 M493.666 1513.66 Q499.476 1513.66 502.531 1518.27 Q505.61 1522.85 505.61 1531.6 Q505.61 1540.33 502.531 1544.94 Q499.476 1549.52 493.666 1549.52 Q487.856 1549.52 484.777 1544.94 Q481.721 1540.33 481.721 1531.6 Q481.721 1522.85 484.777 1518.27 Q487.856 1513.66 493.666 1513.66 Z" fill="#000000" fill-rule="evenodd" fill-opacity="1" /><path clip-path="url(#clip030)" d="M513.828 1542.97 L518.712 1542.97 L518.712 1548.85 L513.828 1548.85 L513.828 1542.97 Z" fill="#000000" fill-rule="evenodd" fill-opacity="1" /><path clip-path="url(#clip030)" d="M532.925 1544.91 L549.244 1544.91 L549.244 1548.85 L527.3 1548.85 L527.3 1544.91 Q529.962 1542.16 534.545 1537.53 Q539.152 1532.88 540.332 1531.53 Q542.578 1529.01 543.457 1527.27 Q544.36 1525.51 544.36 1523.82 Q544.36 1521.07 542.416 1519.33 Q540.494 1517.6 537.392 1517.6 Q535.193 1517.6 532.74 1518.36 Q530.309 1519.13 527.531 1520.68 L527.531 1515.95 Q530.355 1514.82 532.809 1514.24 Q535.263 1513.66 537.3 1513.66 Q542.67 1513.66 545.865 1516.35 Q549.059 1519.03 549.059 1523.52 Q549.059 1525.65 548.249 1527.57 Q547.462 1529.47 545.355 1532.07 Q544.777 1532.74 541.675 1535.95 Q538.573 1539.15 532.925 1544.91 Z" fill="#000000" fill-rule="evenodd" fill-opacity="1" /><path clip-path="url(#clip030)" d="M905.959 1517.37 Q902.348 1517.37 900.519 1520.93 Q898.714 1524.47 898.714 1531.6 Q898.714 1538.71 900.519 1542.27 Q902.348 1545.82 905.959 1545.82 Q909.593 1545.82 911.399 1542.27 Q913.227 1538.71 913.227 1531.6 Q913.227 1524.47 911.399 1520.93 Q909.593 1517.37 905.959 1517.37 M905.959 1513.66 Q911.769 1513.66 914.825 1518.27 Q917.903 1522.85 917.903 1531.6 Q917.903 1540.33 914.825 1544.94 Q911.769 1549.52 905.959 1549.52 Q900.149 1549.52 897.07 1544.94 Q894.015 1540.33 894.015 1531.6 Q894.015 1522.85 897.07 1518.27 Q900.149 1513.66 905.959 1513.66 Z" fill="#000000" fill-rule="evenodd" fill-opacity="1" /><path clip-path="url(#clip030)" d="M926.121 1542.97 L931.005 1542.97 L931.005 1548.85 L926.121 1548.85 L926.121 1542.97 Z" fill="#000000" fill-rule="evenodd" fill-opacity="1" /><path clip-path="url(#clip030)" d="M954.037 1518.36 L942.232 1536.81 L954.037 1536.81 L954.037 1518.36 M952.811 1514.29 L958.69 1514.29 L958.69 1536.81 L963.621 1536.81 L963.621 1540.7 L958.69 1540.7 L958.69 1548.85 L954.037 1548.85 L954.037 1540.7 L938.436 1540.7 L938.436 1536.19 L952.811 1514.29 Z" fill="#000000" fill-rule="evenodd" fill-opacity="1" /><path clip-path="url(#clip030)" d="M1319.46 1517.37 Q1315.84 1517.37 1314.02 1520.93 Q1312.21 1524.47 1312.21 1531.6 Q1312.21 1538.71 1314.02 1542.27 Q1315.84 1545.82 1319.46 1545.82 Q1323.09 1545.82 1324.9 1542.27 Q1326.72 1538.71 1326.72 1531.6 Q1326.72 1524.47 1324.9 1520.93 Q1323.09 1517.37 1319.46 1517.37 M1319.46 1513.66 Q1325.27 1513.66 1328.32 1518.27 Q1331.4 1522.85 1331.4 1531.6 Q1331.4 1540.33 1328.32 1544.94 Q1325.27 1549.52 1319.46 1549.52 Q1313.65 1549.52 1310.57 1544.94 Q1307.51 1540.33 1307.51 1531.6 Q1307.51 1522.85 1310.57 1518.27 Q1313.65 1513.66 1319.46 1513.66 Z" fill="#000000" fill-rule="evenodd" fill-opacity="1" /><path clip-path="url(#clip030)" d="M1339.62 1542.97 L1344.5 1542.97 L1344.5 1548.85 L1339.62 1548.85 L1339.62 1542.97 Z" fill="#000000" fill-rule="evenodd" fill-opacity="1" /><path clip-path="url(#clip030)" d="M1365.27 1529.7 Q1362.12 1529.7 1360.27 1531.86 Q1358.44 1534.01 1358.44 1537.76 Q1358.44 1541.49 1360.27 1543.66 Q1362.12 1545.82 1365.27 1545.82 Q1368.41 1545.82 1370.24 1543.66 Q1372.09 1541.49 1372.09 1537.76 Q1372.09 1534.01 1370.24 1531.86 Q1368.41 1529.7 1365.27 1529.7 M1374.55 1515.05 L1374.55 1519.31 Q1372.79 1518.48 1370.98 1518.04 Q1369.2 1517.6 1367.44 1517.6 Q1362.81 1517.6 1360.36 1520.72 Q1357.93 1523.85 1357.58 1530.17 Q1358.95 1528.15 1361.01 1527.09 Q1363.07 1526 1365.54 1526 Q1370.75 1526 1373.76 1529.17 Q1376.79 1532.32 1376.79 1537.76 Q1376.79 1543.08 1373.65 1546.3 Q1370.5 1549.52 1365.27 1549.52 Q1359.27 1549.52 1356.1 1544.94 Q1352.93 1540.33 1352.93 1531.6 Q1352.93 1523.41 1356.82 1518.55 Q1360.71 1513.66 1367.26 1513.66 Q1369.02 1513.66 1370.8 1514.01 Q1372.6 1514.36 1374.55 1515.05 Z" fill="#000000" fill-rule="evenodd" fill-opacity="1" /><path clip-path="url(#clip030)" d="M1732.92 1517.37 Q1729.31 1517.37 1727.48 1520.93 Q1725.67 1524.47 1725.67 1531.6 Q1725.67 1538.71 1727.48 1542.27 Q1729.31 1545.82 1732.92 1545.82 Q1736.55 1545.82 1738.36 1542.27 Q1740.19 1538.71 1740.19 1531.6 Q1740.19 1524.47 1738.36 1520.93 Q1736.55 1517.37 1732.92 1517.37 M1732.92 1513.66 Q1738.73 1513.66 1741.78 1518.27 Q1744.86 1522.85 1744.86 1531.6 Q1744.86 1540.33 1741.78 1544.94 Q1738.73 1549.52 1732.92 1549.52 Q1727.11 1549.52 1724.03 1544.94 Q1720.97 1540.33 1720.97 1531.6 Q1720.97 1522.85 1724.03 1518.27 Q1727.11 1513.66 1732.92 1513.66 Z" fill="#000000" fill-rule="evenodd" fill-opacity="1" /><path clip-path="url(#clip030)" d="M1753.08 1542.97 L1757.96 1542.97 L1757.96 1548.85 L1753.08 1548.85 L1753.08 1542.97 Z" fill="#000000" fill-rule="evenodd" fill-opacity="1" /><path clip-path="url(#clip030)" d="M1778.15 1532.44 Q1774.82 1532.44 1772.89 1534.22 Q1771 1536 1771 1539.13 Q1771 1542.25 1772.89 1544.03 Q1774.82 1545.82 1778.15 1545.82 Q1781.48 1545.82 1783.4 1544.03 Q1785.32 1542.23 1785.32 1539.13 Q1785.32 1536 1783.4 1534.22 Q1781.51 1532.44 1778.15 1532.44 M1773.47 1530.45 Q1770.46 1529.7 1768.77 1527.64 Q1767.11 1525.58 1767.11 1522.62 Q1767.11 1518.48 1770.05 1516.07 Q1773.01 1513.66 1778.15 1513.66 Q1783.31 1513.66 1786.25 1516.07 Q1789.19 1518.48 1789.19 1522.62 Q1789.19 1525.58 1787.5 1527.64 Q1785.83 1529.7 1782.85 1530.45 Q1786.23 1531.23 1788.1 1533.52 Q1790 1535.82 1790 1539.13 Q1790 1544.15 1786.92 1546.83 Q1783.87 1549.52 1778.15 1549.52 Q1772.43 1549.52 1769.35 1546.83 Q1766.3 1544.15 1766.3 1539.13 Q1766.3 1535.82 1768.2 1533.52 Q1770.09 1531.23 1773.47 1530.45 M1771.76 1523.06 Q1771.76 1525.75 1773.43 1527.25 Q1775.12 1528.76 1778.15 1528.76 Q1781.16 1528.76 1782.85 1527.25 Q1784.56 1525.75 1784.56 1523.06 Q1784.56 1520.38 1782.85 1518.87 Q1781.16 1517.37 1778.15 1517.37 Q1775.12 1517.37 1773.43 1518.87 Q1771.76 1520.38 1771.76 1523.06 Z" fill="#000000" fill-rule="evenodd" fill-opacity="1" /><path clip-path="url(#clip030)" d="M2135.97 1544.91 L2143.61 1544.91 L2143.61 1518.55 L2135.3 1520.21 L2135.3 1515.95 L2143.57 1514.29 L2148.24 1514.29 L2148.24 1544.91 L2155.88 1544.91 L2155.88 1548.85 L2135.97 1548.85 L2135.97 1544.91 Z" fill="#000000" fill-rule="evenodd" fill-opacity="1" /><path clip-path="url(#clip030)" d="M2165.33 1542.97 L2170.21 1542.97 L2170.21 1548.85 L2165.33 1548.85 L2165.33 1542.97 Z" fill="#000000" fill-rule="evenodd" fill-opacity="1" /><path clip-path="url(#clip030)" d="M2190.4 1517.37 Q2186.78 1517.37 2184.96 1520.93 Q2183.15 1524.47 2183.15 1531.6 Q2183.15 1538.71 2184.96 1542.27 Q2186.78 1545.82 2190.4 1545.82 Q2194.03 1545.82 2195.84 1542.27 Q2197.66 1538.71 2197.66 1531.6 Q2197.66 1524.47 2195.84 1520.93 Q2194.03 1517.37 2190.4 1517.37 M2190.4 1513.66 Q2196.21 1513.66 2199.26 1518.27 Q2202.34 1522.85 2202.34 1531.6 Q2202.34 1540.33 2199.26 1544.94 Q2196.21 1549.52 2190.4 1549.52 Q2184.59 1549.52 2181.51 1544.94 Q2178.45 1540.33 2178.45 1531.6 Q2178.45 1522.85 2181.51 1518.27 Q2184.59 1513.66 2190.4 1513.66 Z" fill="#000000" fill-rule="evenodd" fill-opacity="1" /><polyline clip-path="url(#clip032)" style="stroke:#000000; stroke-linecap:butt; stroke-linejoin:round; stroke-width:2; stroke-opacity:0.1; fill:none" points="
  186.274,1282.05 2352.76,1282.05 
  "/>
<polyline clip-path="url(#clip032)" style="stroke:#000000; stroke-linecap:butt; stroke-linejoin:round; stroke-width:2; stroke-opacity:0.1; fill:none" points="
  186.274,1077.46 2352.76,1077.46 
  "/>
<polyline clip-path="url(#clip032)" style="stroke:#000000; stroke-linecap:butt; stroke-linejoin:round; stroke-width:2; stroke-opacity:0.1; fill:none" points="
  186.274,872.87 2352.76,872.87 
  "/>
<polyline clip-path="url(#clip032)" style="stroke:#000000; stroke-linecap:butt; stroke-linejoin:round; stroke-width:2; stroke-opacity:0.1; fill:none" points="
  186.274,668.283 2352.76,668.283 
  "/>
<polyline clip-path="url(#clip032)" style="stroke:#000000; stroke-linecap:butt; stroke-linejoin:round; stroke-width:2; stroke-opacity:0.1; fill:none" points="
  186.274,463.695 2352.76,463.695 
  "/>
<polyline clip-path="url(#clip032)" style="stroke:#000000; stroke-linecap:butt; stroke-linejoin:round; stroke-width:2; stroke-opacity:0.1; fill:none" points="
  186.274,259.107 2352.76,259.107 
  "/>
<polyline clip-path="url(#clip032)" style="stroke:#000000; stroke-linecap:butt; stroke-linejoin:round; stroke-width:2; stroke-opacity:0.1; fill:none" points="
  186.274,54.5198 2352.76,54.5198 
  "/>
<polyline clip-path="url(#clip030)" style="stroke:#000000; stroke-linecap:butt; stroke-linejoin:round; stroke-width:4; stroke-opacity:1; fill:none" points="
  186.274,1486.45 186.274,47.2441 
  "/>
<polyline clip-path="url(#clip030)" style="stroke:#000000; stroke-linecap:butt; stroke-linejoin:round; stroke-width:4; stroke-opacity:1; fill:none" points="
  186.274,1282.05 205.172,1282.05 
  "/>
<polyline clip-path="url(#clip030)" style="stroke:#000000; stroke-linecap:butt; stroke-linejoin:round; stroke-width:4; stroke-opacity:1; fill:none" points="
  186.274,1077.46 205.172,1077.46 
  "/>
<polyline clip-path="url(#clip030)" style="stroke:#000000; stroke-linecap:butt; stroke-linejoin:round; stroke-width:4; stroke-opacity:1; fill:none" points="
  186.274,872.87 205.172,872.87 
  "/>
<polyline clip-path="url(#clip030)" style="stroke:#000000; stroke-linecap:butt; stroke-linejoin:round; stroke-width:4; stroke-opacity:1; fill:none" points="
  186.274,668.283 205.172,668.283 
  "/>
<polyline clip-path="url(#clip030)" style="stroke:#000000; stroke-linecap:butt; stroke-linejoin:round; stroke-width:4; stroke-opacity:1; fill:none" points="
  186.274,463.695 205.172,463.695 
  "/>
<polyline clip-path="url(#clip030)" style="stroke:#000000; stroke-linecap:butt; stroke-linejoin:round; stroke-width:4; stroke-opacity:1; fill:none" points="
  186.274,259.107 205.172,259.107 
  "/>
<polyline clip-path="url(#clip030)" style="stroke:#000000; stroke-linecap:butt; stroke-linejoin:round; stroke-width:4; stroke-opacity:1; fill:none" points="
  186.274,54.5198 205.172,54.5198 
  "/>
<path clip-path="url(#clip030)" d="M63.9319 1267.84 Q60.3208 1267.84 58.4921 1271.41 Q56.6865 1274.95 56.6865 1282.08 Q56.6865 1289.19 58.4921 1292.75 Q60.3208 1296.29 63.9319 1296.29 Q67.5661 1296.29 69.3717 1292.75 Q71.2004 1289.19 71.2004 1282.08 Q71.2004 1274.95 69.3717 1271.41 Q67.5661 1267.84 63.9319 1267.84 M63.9319 1264.14 Q69.742 1264.14 72.7976 1268.75 Q75.8763 1273.33 75.8763 1282.08 Q75.8763 1290.81 72.7976 1295.41 Q69.742 1300 63.9319 1300 Q58.1217 1300 55.043 1295.41 Q51.9875 1290.81 51.9875 1282.08 Q51.9875 1273.33 55.043 1268.75 Q58.1217 1264.14 63.9319 1264.14 Z" fill="#000000" fill-rule="evenodd" fill-opacity="1" /><path clip-path="url(#clip030)" d="M84.0938 1293.45 L88.978 1293.45 L88.978 1299.33 L84.0938 1299.33 L84.0938 1293.45 Z" fill="#000000" fill-rule="evenodd" fill-opacity="1" /><path clip-path="url(#clip030)" d="M109.163 1267.84 Q105.552 1267.84 103.723 1271.41 Q101.918 1274.95 101.918 1282.08 Q101.918 1289.19 103.723 1292.75 Q105.552 1296.29 109.163 1296.29 Q112.797 1296.29 114.603 1292.75 Q116.432 1289.19 116.432 1282.08 Q116.432 1274.95 114.603 1271.41 Q112.797 1267.84 109.163 1267.84 M109.163 1264.14 Q114.973 1264.14 118.029 1268.75 Q121.107 1273.33 121.107 1282.08 Q121.107 1290.81 118.029 1295.41 Q114.973 1300 109.163 1300 Q103.353 1300 100.274 1295.41 Q97.2187 1290.81 97.2187 1282.08 Q97.2187 1273.33 100.274 1268.75 Q103.353 1264.14 109.163 1264.14 Z" fill="#000000" fill-rule="evenodd" fill-opacity="1" /><path clip-path="url(#clip030)" d="M129.371 1264.77 L147.728 1264.77 L147.728 1268.7 L133.654 1268.7 L133.654 1277.17 Q134.672 1276.83 135.691 1276.66 Q136.709 1276.48 137.728 1276.48 Q143.515 1276.48 146.894 1279.65 Q150.274 1282.82 150.274 1288.24 Q150.274 1293.82 146.802 1296.92 Q143.33 1300 137.01 1300 Q134.834 1300 132.566 1299.63 Q130.32 1299.26 127.913 1298.52 L127.913 1293.82 Q129.996 1294.95 132.219 1295.51 Q134.441 1296.06 136.918 1296.06 Q140.922 1296.06 143.26 1293.96 Q145.598 1291.85 145.598 1288.24 Q145.598 1284.63 143.26 1282.52 Q140.922 1280.41 136.918 1280.41 Q135.043 1280.41 133.168 1280.83 Q131.316 1281.25 129.371 1282.13 L129.371 1264.77 Z" fill="#000000" fill-rule="evenodd" fill-opacity="1" /><path clip-path="url(#clip030)" d="M62.9365 1063.26 Q59.3254 1063.26 57.4967 1066.82 Q55.6912 1070.36 55.6912 1077.49 Q55.6912 1084.6 57.4967 1088.16 Q59.3254 1091.71 62.9365 1091.71 Q66.5707 1091.71 68.3763 1088.16 Q70.205 1084.6 70.205 1077.49 Q70.205 1070.36 68.3763 1066.82 Q66.5707 1063.26 62.9365 1063.26 M62.9365 1059.55 Q68.7467 1059.55 71.8022 1064.16 Q74.8809 1068.74 74.8809 1077.49 Q74.8809 1086.22 71.8022 1090.83 Q68.7467 1095.41 62.9365 1095.41 Q57.1264 1095.41 54.0477 1090.83 Q50.9921 1086.22 50.9921 1077.49 Q50.9921 1068.74 54.0477 1064.16 Q57.1264 1059.55 62.9365 1059.55 Z" fill="#000000" fill-rule="evenodd" fill-opacity="1" /><path clip-path="url(#clip030)" d="M83.0984 1088.86 L87.9827 1088.86 L87.9827 1094.74 L83.0984 1094.74 L83.0984 1088.86 Z" fill="#000000" fill-rule="evenodd" fill-opacity="1" /><path clip-path="url(#clip030)" d="M98.978 1090.8 L106.617 1090.8 L106.617 1064.44 L98.3067 1066.1 L98.3067 1061.84 L106.571 1060.18 L111.246 1060.18 L111.246 1090.8 L118.885 1090.8 L118.885 1094.74 L98.978 1094.74 L98.978 1090.8 Z" fill="#000000" fill-rule="evenodd" fill-opacity="1" /><path clip-path="url(#clip030)" d="M138.33 1063.26 Q134.719 1063.26 132.89 1066.82 Q131.084 1070.36 131.084 1077.49 Q131.084 1084.6 132.89 1088.16 Q134.719 1091.71 138.33 1091.71 Q141.964 1091.71 143.769 1088.16 Q145.598 1084.6 145.598 1077.49 Q145.598 1070.36 143.769 1066.82 Q141.964 1063.26 138.33 1063.26 M138.33 1059.55 Q144.14 1059.55 147.195 1064.16 Q150.274 1068.74 150.274 1077.49 Q150.274 1086.22 147.195 1090.83 Q144.14 1095.41 138.33 1095.41 Q132.519 1095.41 129.441 1090.83 Q126.385 1086.22 126.385 1077.49 Q126.385 1068.74 129.441 1064.16 Q132.519 1059.55 138.33 1059.55 Z" fill="#000000" fill-rule="evenodd" fill-opacity="1" /><path clip-path="url(#clip030)" d="M63.9319 858.669 Q60.3208 858.669 58.4921 862.234 Q56.6865 865.775 56.6865 872.905 Q56.6865 880.011 58.4921 883.576 Q60.3208 887.118 63.9319 887.118 Q67.5661 887.118 69.3717 883.576 Q71.2004 880.011 71.2004 872.905 Q71.2004 865.775 69.3717 862.234 Q67.5661 858.669 63.9319 858.669 M63.9319 854.965 Q69.742 854.965 72.7976 859.572 Q75.8763 864.155 75.8763 872.905 Q75.8763 881.632 72.7976 886.238 Q69.742 890.822 63.9319 890.822 Q58.1217 890.822 55.043 886.238 Q51.9875 881.632 51.9875 872.905 Q51.9875 864.155 55.043 859.572 Q58.1217 854.965 63.9319 854.965 Z" fill="#000000" fill-rule="evenodd" fill-opacity="1" /><path clip-path="url(#clip030)" d="M84.0938 884.271 L88.978 884.271 L88.978 890.15 L84.0938 890.15 L84.0938 884.271 Z" fill="#000000" fill-rule="evenodd" fill-opacity="1" /><path clip-path="url(#clip030)" d="M99.9733 886.215 L107.612 886.215 L107.612 859.85 L99.3021 861.516 L99.3021 857.257 L107.566 855.59 L112.242 855.59 L112.242 886.215 L119.881 886.215 L119.881 890.15 L99.9733 890.15 L99.9733 886.215 Z" fill="#000000" fill-rule="evenodd" fill-opacity="1" /><path clip-path="url(#clip030)" d="M129.371 855.59 L147.728 855.59 L147.728 859.525 L133.654 859.525 L133.654 867.998 Q134.672 867.65 135.691 867.488 Q136.709 867.303 137.728 867.303 Q143.515 867.303 146.894 870.475 Q150.274 873.646 150.274 879.062 Q150.274 884.641 146.802 887.743 Q143.33 890.822 137.01 890.822 Q134.834 890.822 132.566 890.451 Q130.32 890.081 127.913 889.34 L127.913 884.641 Q129.996 885.775 132.219 886.331 Q134.441 886.886 136.918 886.886 Q140.922 886.886 143.26 884.78 Q145.598 882.674 145.598 879.062 Q145.598 875.451 143.26 873.345 Q140.922 871.238 136.918 871.238 Q135.043 871.238 133.168 871.655 Q131.316 872.072 129.371 872.951 L129.371 855.59 Z" fill="#000000" fill-rule="evenodd" fill-opacity="1" /><path clip-path="url(#clip030)" d="M62.9365 654.081 Q59.3254 654.081 57.4967 657.646 Q55.6912 661.188 55.6912 668.317 Q55.6912 675.424 57.4967 678.989 Q59.3254 682.53 62.9365 682.53 Q66.5707 682.53 68.3763 678.989 Q70.205 675.424 70.205 668.317 Q70.205 661.188 68.3763 657.646 Q66.5707 654.081 62.9365 654.081 M62.9365 650.378 Q68.7467 650.378 71.8022 654.984 Q74.8809 659.567 74.8809 668.317 Q74.8809 677.044 71.8022 681.651 Q68.7467 686.234 62.9365 686.234 Q57.1264 686.234 54.0477 681.651 Q50.9921 677.044 50.9921 668.317 Q50.9921 659.567 54.0477 654.984 Q57.1264 650.378 62.9365 650.378 Z" fill="#000000" fill-rule="evenodd" fill-opacity="1" /><path clip-path="url(#clip030)" d="M83.0984 679.683 L87.9827 679.683 L87.9827 685.563 L83.0984 685.563 L83.0984 679.683 Z" fill="#000000" fill-rule="evenodd" fill-opacity="1" /><path clip-path="url(#clip030)" d="M102.196 681.628 L118.515 681.628 L118.515 685.563 L96.5706 685.563 L96.5706 681.628 Q99.2326 678.873 103.816 674.243 Q108.422 669.591 109.603 668.248 Q111.848 665.725 112.728 663.989 Q113.631 662.229 113.631 660.54 Q113.631 657.785 111.686 656.049 Q109.765 654.313 106.663 654.313 Q104.464 654.313 102.01 655.077 Q99.5798 655.841 96.8021 657.392 L96.8021 652.669 Q99.6261 651.535 102.08 650.956 Q104.534 650.378 106.571 650.378 Q111.941 650.378 115.135 653.063 Q118.33 655.748 118.33 660.239 Q118.33 662.368 117.52 664.29 Q116.733 666.188 114.626 668.78 Q114.047 669.452 110.946 672.669 Q107.844 675.864 102.196 681.628 Z" fill="#000000" fill-rule="evenodd" fill-opacity="1" /><path clip-path="url(#clip030)" d="M138.33 654.081 Q134.719 654.081 132.89 657.646 Q131.084 661.188 131.084 668.317 Q131.084 675.424 132.89 678.989 Q134.719 682.53 138.33 682.53 Q141.964 682.53 143.769 678.989 Q145.598 675.424 145.598 668.317 Q145.598 661.188 143.769 657.646 Q141.964 654.081 138.33 654.081 M138.33 650.378 Q144.14 650.378 147.195 654.984 Q150.274 659.567 150.274 668.317 Q150.274 677.044 147.195 681.651 Q144.14 686.234 138.33 686.234 Q132.519 686.234 129.441 681.651 Q126.385 677.044 126.385 668.317 Q126.385 659.567 129.441 654.984 Q132.519 650.378 138.33 650.378 Z" fill="#000000" fill-rule="evenodd" fill-opacity="1" /><path clip-path="url(#clip030)" d="M63.9319 449.494 Q60.3208 449.494 58.4921 453.059 Q56.6865 456.6 56.6865 463.73 Q56.6865 470.836 58.4921 474.401 Q60.3208 477.943 63.9319 477.943 Q67.5661 477.943 69.3717 474.401 Q71.2004 470.836 71.2004 463.73 Q71.2004 456.6 69.3717 453.059 Q67.5661 449.494 63.9319 449.494 M63.9319 445.79 Q69.742 445.79 72.7976 450.397 Q75.8763 454.98 75.8763 463.73 Q75.8763 472.457 72.7976 477.063 Q69.742 481.646 63.9319 481.646 Q58.1217 481.646 55.043 477.063 Q51.9875 472.457 51.9875 463.73 Q51.9875 454.98 55.043 450.397 Q58.1217 445.79 63.9319 445.79 Z" fill="#000000" fill-rule="evenodd" fill-opacity="1" /><path clip-path="url(#clip030)" d="M84.0938 475.095 L88.978 475.095 L88.978 480.975 L84.0938 480.975 L84.0938 475.095 Z" fill="#000000" fill-rule="evenodd" fill-opacity="1" /><path clip-path="url(#clip030)" d="M103.191 477.04 L119.51 477.04 L119.51 480.975 L97.566 480.975 L97.566 477.04 Q100.228 474.285 104.811 469.656 Q109.418 465.003 110.598 463.66 Q112.844 461.137 113.723 459.401 Q114.626 457.642 114.626 455.952 Q114.626 453.197 112.682 451.461 Q110.76 449.725 107.658 449.725 Q105.459 449.725 103.006 450.489 Q100.575 451.253 97.7974 452.804 L97.7974 448.082 Q100.621 446.947 103.075 446.369 Q105.529 445.79 107.566 445.79 Q112.936 445.79 116.131 448.475 Q119.325 451.16 119.325 455.651 Q119.325 457.781 118.515 459.702 Q117.728 461.6 115.621 464.193 Q115.043 464.864 111.941 468.082 Q108.839 471.276 103.191 477.04 Z" fill="#000000" fill-rule="evenodd" fill-opacity="1" /><path clip-path="url(#clip030)" d="M129.371 446.415 L147.728 446.415 L147.728 450.35 L133.654 450.35 L133.654 458.822 Q134.672 458.475 135.691 458.313 Q136.709 458.128 137.728 458.128 Q143.515 458.128 146.894 461.299 Q150.274 464.471 150.274 469.887 Q150.274 475.466 146.802 478.568 Q143.33 481.646 137.01 481.646 Q134.834 481.646 132.566 481.276 Q130.32 480.906 127.913 480.165 L127.913 475.466 Q129.996 476.6 132.219 477.156 Q134.441 477.711 136.918 477.711 Q140.922 477.711 143.26 475.605 Q145.598 473.498 145.598 469.887 Q145.598 466.276 143.26 464.17 Q140.922 462.063 136.918 462.063 Q135.043 462.063 133.168 462.48 Q131.316 462.896 129.371 463.776 L129.371 446.415 Z" fill="#000000" fill-rule="evenodd" fill-opacity="1" /><path clip-path="url(#clip030)" d="M62.9365 244.906 Q59.3254 244.906 57.4967 248.471 Q55.6912 252.013 55.6912 259.142 Q55.6912 266.249 57.4967 269.813 Q59.3254 273.355 62.9365 273.355 Q66.5707 273.355 68.3763 269.813 Q70.205 266.249 70.205 259.142 Q70.205 252.013 68.3763 248.471 Q66.5707 244.906 62.9365 244.906 M62.9365 241.202 Q68.7467 241.202 71.8022 245.809 Q74.8809 250.392 74.8809 259.142 Q74.8809 267.869 71.8022 272.475 Q68.7467 277.059 62.9365 277.059 Q57.1264 277.059 54.0477 272.475 Q50.9921 267.869 50.9921 259.142 Q50.9921 250.392 54.0477 245.809 Q57.1264 241.202 62.9365 241.202 Z" fill="#000000" fill-rule="evenodd" fill-opacity="1" /><path clip-path="url(#clip030)" d="M83.0984 270.508 L87.9827 270.508 L87.9827 276.387 L83.0984 276.387 L83.0984 270.508 Z" fill="#000000" fill-rule="evenodd" fill-opacity="1" /><path clip-path="url(#clip030)" d="M112.334 257.753 Q115.691 258.471 117.566 260.739 Q119.464 263.008 119.464 266.341 Q119.464 271.457 115.945 274.258 Q112.427 277.059 105.946 277.059 Q103.77 277.059 101.455 276.619 Q99.1632 276.202 96.7095 275.346 L96.7095 270.832 Q98.6539 271.966 100.969 272.545 Q103.284 273.124 105.807 273.124 Q110.205 273.124 112.496 271.387 Q114.811 269.651 114.811 266.341 Q114.811 263.286 112.658 261.573 Q110.529 259.837 106.709 259.837 L102.682 259.837 L102.682 255.994 L106.895 255.994 Q110.344 255.994 112.172 254.628 Q114.001 253.239 114.001 250.647 Q114.001 247.985 112.103 246.573 Q110.228 245.138 106.709 245.138 Q104.788 245.138 102.589 245.554 Q100.39 245.971 97.7511 246.851 L97.7511 242.684 Q100.413 241.943 102.728 241.573 Q105.066 241.202 107.126 241.202 Q112.45 241.202 115.552 243.633 Q118.654 246.04 118.654 250.161 Q118.654 253.031 117.01 255.022 Q115.367 256.989 112.334 257.753 Z" fill="#000000" fill-rule="evenodd" fill-opacity="1" /><path clip-path="url(#clip030)" d="M138.33 244.906 Q134.719 244.906 132.89 248.471 Q131.084 252.013 131.084 259.142 Q131.084 266.249 132.89 269.813 Q134.719 273.355 138.33 273.355 Q141.964 273.355 143.769 269.813 Q145.598 266.249 145.598 259.142 Q145.598 252.013 143.769 248.471 Q141.964 244.906 138.33 244.906 M138.33 241.202 Q144.14 241.202 147.195 245.809 Q150.274 250.392 150.274 259.142 Q150.274 267.869 147.195 272.475 Q144.14 277.059 138.33 277.059 Q132.519 277.059 129.441 272.475 Q126.385 267.869 126.385 259.142 Q126.385 250.392 129.441 245.809 Q132.519 241.202 138.33 241.202 Z" fill="#000000" fill-rule="evenodd" fill-opacity="1" /><path clip-path="url(#clip030)" d="M63.9319 40.3185 Q60.3208 40.3185 58.4921 43.8833 Q56.6865 47.4249 56.6865 54.5545 Q56.6865 61.661 58.4921 65.2258 Q60.3208 68.7674 63.9319 68.7674 Q67.5661 68.7674 69.3717 65.2258 Q71.2004 61.661 71.2004 54.5545 Q71.2004 47.4249 69.3717 43.8833 Q67.5661 40.3185 63.9319 40.3185 M63.9319 36.6148 Q69.742 36.6148 72.7976 41.2213 Q75.8763 45.8046 75.8763 54.5545 Q75.8763 63.2813 72.7976 67.8878 Q69.742 72.4711 63.9319 72.4711 Q58.1217 72.4711 55.043 67.8878 Q51.9875 63.2813 51.9875 54.5545 Q51.9875 45.8046 55.043 41.2213 Q58.1217 36.6148 63.9319 36.6148 Z" fill="#000000" fill-rule="evenodd" fill-opacity="1" /><path clip-path="url(#clip030)" d="M84.0938 65.9202 L88.978 65.9202 L88.978 71.7998 L84.0938 71.7998 L84.0938 65.9202 Z" fill="#000000" fill-rule="evenodd" fill-opacity="1" /><path clip-path="url(#clip030)" d="M113.33 53.1656 Q116.686 53.8832 118.561 56.1517 Q120.459 58.4202 120.459 61.7536 Q120.459 66.8693 116.941 69.6702 Q113.422 72.4711 106.941 72.4711 Q104.765 72.4711 102.45 72.0313 Q100.159 71.6146 97.7048 70.7581 L97.7048 66.2443 Q99.6493 67.3785 101.964 67.9572 Q104.279 68.5359 106.802 68.5359 Q111.2 68.5359 113.492 66.7998 Q115.807 65.0637 115.807 61.7536 Q115.807 58.698 113.654 56.9851 Q111.524 55.249 107.705 55.249 L103.677 55.249 L103.677 51.4064 L107.89 51.4064 Q111.339 51.4064 113.168 50.0407 Q114.996 48.6518 114.996 46.0592 Q114.996 43.3972 113.098 41.9851 Q111.223 40.55 107.705 40.55 Q105.783 40.55 103.584 40.9666 Q101.385 41.3833 98.7465 42.2629 L98.7465 38.0963 Q101.409 37.3555 103.723 36.9852 Q106.061 36.6148 108.121 36.6148 Q113.445 36.6148 116.547 39.0453 Q119.649 41.4527 119.649 45.5731 Q119.649 48.4434 118.006 50.4342 Q116.362 52.4018 113.33 53.1656 Z" fill="#000000" fill-rule="evenodd" fill-opacity="1" /><path clip-path="url(#clip030)" d="M129.371 37.2398 L147.728 37.2398 L147.728 41.175 L133.654 41.175 L133.654 49.6471 Q134.672 49.2999 135.691 49.1379 Q136.709 48.9527 137.728 48.9527 Q143.515 48.9527 146.894 52.124 Q150.274 55.2953 150.274 60.7119 Q150.274 66.2906 146.802 69.3924 Q143.33 72.4711 137.01 72.4711 Q134.834 72.4711 132.566 72.1007 Q130.32 71.7304 127.913 70.9896 L127.913 66.2906 Q129.996 67.4248 132.219 67.9804 Q134.441 68.5359 136.918 68.5359 Q140.922 68.5359 143.26 66.4295 Q145.598 64.323 145.598 60.7119 Q145.598 57.1008 143.26 54.9943 Q140.922 52.8879 136.918 52.8879 Q135.043 52.8879 133.168 53.3045 Q131.316 53.7212 129.371 54.6008 L129.371 37.2398 Z" fill="#000000" fill-rule="evenodd" fill-opacity="1" /><polyline clip-path="url(#clip032)" style="stroke:#009af9; stroke-linecap:butt; stroke-linejoin:round; stroke-width:8; stroke-opacity:1; fill:none" points="
  2148.16,1445.72 2147.74,1445.15 2147.32,1444.57 2146.9,1443.99 2146.47,1443.39 2146.04,1442.79 2145.59,1442.18 2145.15,1441.57 2144.69,1440.94 2144.23,1440.31 
  2143.77,1439.66 2143.3,1439.01 2142.82,1438.35 2142.33,1437.68 2141.84,1437.01 2141.34,1436.32 2140.84,1435.62 2140.32,1434.92 2139.8,1434.2 2139.28,1433.48 
  2138.74,1432.74 2138.2,1432 2137.66,1431.24 2137.1,1430.48 2136.54,1429.7 2135.97,1428.92 2135.39,1428.12 2134.8,1427.32 2134.21,1426.5 2133.61,1425.67 
  2133,1424.83 2132.38,1423.98 2131.75,1423.12 2131.12,1422.25 2130.47,1421.36 2129.82,1420.47 2129.16,1419.56 2128.49,1418.64 2127.81,1417.71 2127.12,1416.76 
  2126.43,1415.8 2125.72,1414.83 2125.01,1413.85 2124.28,1412.86 2123.55,1411.85 2122.8,1410.82 2122.05,1409.79 2121.28,1408.74 2120.51,1407.68 2119.72,1406.6 
  2118.93,1405.51 2118.12,1404.41 2117.31,1403.29 2116.48,1402.15 2115.64,1401.01 2114.79,1399.84 2113.93,1398.66 2113.06,1397.47 2112.18,1396.26 2111.28,1395.04 
  2110.38,1393.8 2109.46,1392.54 2108.53,1391.27 2107.59,1389.98 2106.63,1388.67 2105.66,1387.35 2104.68,1386.01 2103.69,1384.65 2102.69,1383.28 2101.67,1381.89 
  2100.64,1380.48 2099.59,1379.05 2098.53,1377.61 2097.46,1376.15 2096.38,1374.67 2095.28,1373.17 2094.16,1371.65 2093.04,1370.11 2091.89,1368.55 2090.74,1366.98 
  2089.57,1365.38 2088.38,1363.76 2087.18,1362.13 2085.96,1360.47 2084.73,1358.79 2083.48,1357.1 2082.22,1355.38 2080.94,1353.64 2079.64,1351.88 2078.33,1350.09 
  2077,1348.29 2075.66,1346.46 2074.29,1344.61 2072.91,1342.74 2071.52,1340.85 2070.1,1338.93 2068.67,1336.99 2067.23,1335.03 2065.76,1333.04 2064.27,1331.03 
  2062.77,1328.99 2061.25,1326.93 2059.71,1324.85 2058.15,1322.74 2056.57,1320.61 2054.97,1318.45 2053.36,1316.26 2051.72,1314.05 2050.07,1311.82 2048.39,1309.56 
  2046.69,1307.27 2044.98,1304.95 2043.24,1302.61 2041.48,1300.24 2039.7,1297.85 2037.9,1295.42 2036.08,1292.97 2034.24,1290.49 2032.37,1287.99 2030.48,1285.45 
  2028.58,1282.89 2026.64,1280.29 2024.69,1277.67 2022.71,1275.02 2020.71,1272.34 2018.69,1269.63 2016.64,1266.89 2014.57,1264.12 2012.48,1261.32 2010.36,1258.49 
  2008.22,1255.62 2006.05,1252.73 2003.86,1249.8 2001.64,1246.85 1999.4,1243.86 1997.14,1240.84 1994.84,1237.79 1992.53,1234.7 1990.18,1231.59 1987.82,1228.44 
  1985.42,1225.26 1983,1222.04 1980.55,1218.79 1978.08,1215.51 1975.57,1212.2 1973.04,1208.85 1970.49,1205.47 1967.9,1202.05 1965.29,1198.6 1962.65,1195.11 
  1959.99,1191.59 1957.29,1188.04 1954.57,1184.45 1951.81,1180.82 1949.03,1177.16 1946.22,1173.47 1943.38,1169.73 1940.51,1165.97 1937.61,1162.16 1934.68,1158.33 
  1931.72,1154.45 1928.73,1150.54 1925.71,1146.59 1922.66,1142.61 1919.58,1138.59 1916.47,1134.54 1913.33,1130.44 1910.16,1126.31 1906.96,1122.15 1903.72,1117.95 
  1900.46,1113.71 1897.16,1109.43 1893.83,1105.12 1890.47,1100.77 1887.08,1096.39 1883.65,1091.96 1880.2,1087.51 1876.71,1083.01 1873.19,1078.48 1869.64,1073.91 
  1866.05,1069.3 1862.43,1064.66 1858.78,1059.98 1855.1,1055.26 1851.38,1050.51 1847.63,1045.72 1843.85,1040.9 1840.04,1036.04 1836.19,1031.14 1832.31,1026.21 
  1828.4,1021.24 1824.45,1016.23 1820.47,1011.19 1816.45,1006.11 1812.41,1001 1808.33,995.857 1804.21,990.675 1800.07,985.459 1795.89,980.208 1791.67,974.924 
  1787.43,969.605 1783.15,964.252 1778.83,958.866 1774.49,953.447 1770.11,947.995 1765.69,942.51 1761.25,936.993 1756.77,931.445 1752.26,925.864 1747.72,920.253 
  1743.14,914.61 1738.53,908.937 1733.89,903.234 1729.21,897.501 1724.51,891.739 1719.77,885.949 1715,880.129 1710.2,874.282 1705.36,868.408 1700.5,862.506 
  1695.6,856.578 1690.67,850.624 1685.71,844.644 1680.72,838.639 1675.7,832.61 1670.65,826.557 1665.57,820.481 1660.46,814.382 1655.32,808.261 1650.15,802.118 
  1644.95,795.955 1639.72,789.771 1634.47,783.567 1629.18,777.345 1623.87,771.104 1618.53,764.845 1613.16,758.569 1607.76,752.277 1602.34,745.97 1596.89,739.647 
  1591.42,733.311 1585.91,726.961 1580.39,720.598 1574.83,714.224 1569.26,707.838 1563.65,701.443 1558.03,695.037 1552.37,688.621 1546.7,682.197 1541,675.766 
  1535.28,669.327 1529.53,662.884 1523.77,656.435 1517.98,649.983 1512.17,643.528 1506.34,637.071 1500.5,630.613 1494.63,624.156 1488.74,617.699 1482.83,611.245 
  1476.91,604.793 1470.97,598.345 1465.01,591.903 1459.03,585.466 1453.04,579.036 1447.03,572.613 1441.01,566.199 1434.98,559.795 1428.93,553.401 1422.86,547.019 
  1416.78,540.649 1410.69,534.293 1404.59,527.95 1398.48,521.623 1392.35,515.312 1386.22,509.018 1380.07,502.741 1373.92,496.484 1367.75,490.246 1361.58,484.029 
  1355.4,477.834 1349.21,471.661 1343.02,465.511 1336.82,459.386 1330.61,453.286 1324.4,447.212 1318.19,441.165 1311.97,435.146 1305.74,429.155 1299.51,423.195 
  1293.28,417.264 1287.05,411.366 1280.82,405.499 1274.58,399.666 1268.35,393.867 1262.11,388.104 1255.88,382.375 1249.65,376.684 1243.42,371.03 1237.19,365.415 
  1230.96,359.839 1224.74,354.304 1218.52,348.809 1212.31,343.357 1206.1,337.947 1199.9,332.581 1193.7,327.26 1187.51,321.984 1181.33,316.754 1175.15,311.571 
  1168.99,306.437 1162.83,301.351 1156.68,296.314 1150.55,291.329 1144.42,286.394 1138.3,281.51 1132.2,276.678 1126.11,271.898 1120.03,267.172 1113.96,262.499 
  1107.91,257.88 1101.87,253.316 1095.84,248.808 1089.83,244.355 1083.83,239.959 1077.85,235.62 1071.89,231.339 1065.94,227.115 1060.01,222.95 1054.09,218.844 
  1048.2,214.796 1042.32,210.809 1036.46,206.882 1030.61,203.016 1024.79,199.21 1018.99,195.466 1013.21,191.783 1007.45,188.162 1001.7,184.604 995.983,181.108 
  990.283,177.675 984.606,174.305 978.95,170.999 973.317,167.757 967.706,164.578 962.118,161.463 956.554,158.413 951.013,155.428 945.495,152.507 940.002,149.651 
  934.533,146.86 929.088,144.134 923.669,141.473 918.274,138.878 912.905,136.348 907.561,133.884 902.243,131.485 896.951,129.152 891.685,126.884 886.445,124.682 
  881.232,122.546 876.046,120.475 870.887,118.47 865.754,116.531 860.649,114.656 855.571,112.848 850.521,111.104 845.499,109.426 840.504,107.813 835.537,106.265 
  830.598,104.781 825.688,103.362 820.805,102.008 815.951,100.718 811.126,99.4914 806.329,98.329 801.561,97.2301 796.821,96.1945 792.11,95.2219 787.428,94.3121 
  782.775,93.4647 778.15,92.6794 773.555,91.9559 768.988,91.2938 764.451,90.6928 759.942,90.1525 755.462,89.6725 751.012,89.2524 746.59,88.8918 742.198,88.5911 
  737.835,88.3503 733.501,88.1688 729.197,88.0463 724.922,87.9823 720.676,87.9763 716.459,88.0278 712.272,88.1364 708.113,88.3016 703.983,88.5229 699.883,88.7999 
  695.811,89.1321 691.767,89.519 687.753,89.9602 683.767,90.4551 679.81,91.0034 675.881,91.6045 671.98,92.258 668.108,92.9633 664.263,93.7201 660.447,94.5279 
  656.659,95.3861 652.899,96.2943 649.167,97.252 645.462,98.2588 641.785,99.3142 638.136,100.418 634.514,101.569 630.92,102.767 627.353,104.012 623.813,105.303 
  620.3,106.64 616.814,108.022 613.354,109.448 609.922,110.919 606.516,112.434 603.137,113.992 599.784,115.593 596.458,117.237 593.157,118.922 589.883,120.648 
  586.634,122.416 583.412,124.224 580.215,126.071 577.044,127.959 573.898,129.885 570.777,131.849 567.682,133.852 564.612,135.892 561.567,137.969 558.546,140.083 
  555.55,142.233 552.579,144.418 549.632,146.638 546.709,148.893 543.81,151.182 540.936,153.505 538.085,155.861 535.258,158.249 532.454,160.669 529.674,163.121 
  526.917,165.605 524.182,168.118 521.471,170.662 518.783,173.236 516.117,175.839 513.474,178.47 510.852,181.13 508.253,183.818 505.676,186.532 503.121,189.273 
  500.587,192.041 498.075,194.834 495.584,197.652 493.113,200.495 490.664,203.363 488.236,206.253 485.828,209.168 483.441,212.104 481.073,215.064 478.726,218.044 
  476.399,221.046 474.091,224.069 471.803,227.113 469.535,230.176 467.287,233.26 465.057,236.363 462.847,239.484 460.656,242.624 458.483,245.783 456.329,248.959 
  454.194,252.152 452.077,255.362 449.979,258.589 447.898,261.833 445.835,265.092 443.79,268.366 441.763,271.656 439.753,274.96 437.76,278.279 435.784,281.612 
  433.826,284.958 431.884,288.318 429.959,291.691 428.051,295.076 426.159,298.474 424.284,301.884 422.424,305.305 420.581,308.737 418.754,312.181 416.942,315.635 
  415.146,319.099 413.365,322.574 411.6,326.058 409.85,329.551 408.115,333.054 406.395,336.565 404.69,340.084 403,343.612 401.324,347.147 399.663,350.69 
  398.016,354.24 396.383,357.797 394.764,361.361 393.159,364.931 391.568,368.507 389.991,372.089 388.427,375.676 386.876,379.269 385.339,382.867 383.816,386.469 
  382.305,390.076 380.807,393.686 379.322,397.301 377.85,400.92 376.391,404.541 374.944,408.167 373.51,411.794 372.087,415.425 370.677,419.058 369.28,422.693 
  367.894,426.33 366.52,429.969 365.157,433.61 363.807,437.251 362.467,440.894 361.14,444.538 359.824,448.182 358.518,451.826 357.225,455.471 355.942,459.116 
  354.67,462.761 353.409,466.405 352.158,470.048 350.919,473.691 349.689,477.333 348.471,480.973 347.262,484.612 346.064,488.25 344.876,491.886 343.699,495.52 
  342.531,499.152 341.373,502.781 340.225,506.409 339.086,510.033 337.958,513.655 336.838,517.274 335.729,520.89 334.628,524.503 333.537,528.112 332.456,531.718 
  331.383,535.32 330.319,538.918 329.265,542.513 328.219,546.103 327.182,549.69 326.154,553.272 325.135,556.849 324.124,560.422 323.121,563.99 322.127,567.554 
  321.142,571.112 320.165,574.665 319.196,578.214 318.235,581.757 317.282,585.295 316.337,588.827 315.4,592.353 314.471,595.874 313.549,599.388 312.635,602.896 
  311.729,606.399 310.83,609.894 309.938,613.384 309.054,616.867 308.177,620.344 307.307,623.814 306.444,627.277 305.589,630.733 304.74,634.183 303.899,637.626 
  303.064,641.061 302.236,644.49 301.415,647.911 300.6,651.326 299.792,654.732 298.991,658.132 298.196,661.524 297.408,664.908 296.626,668.285 295.851,671.654 
  295.081,675.016 294.318,678.369 293.561,681.715 292.811,685.053 292.066,688.382 291.327,691.704 290.594,695.018 289.868,698.323 289.147,701.62 288.431,704.909 
  287.722,708.189 287.018,711.461 286.32,714.725 285.627,717.98 284.94,721.226 284.258,724.464 283.582,727.693 282.911,730.914 282.245,734.126 281.585,737.328 
  280.93,740.522 280.28,743.707 279.635,746.884 278.995,750.051 278.361,753.209 277.731,756.358 277.106,759.498 276.486,762.628 275.871,765.75 275.261,768.862 
  274.655,771.966 274.055,775.059 273.459,778.144 272.867,781.219 272.28,784.285 271.698,787.342 271.12,790.389 270.547,793.426 269.978,796.454 269.413,799.473 
  268.853,802.482 268.297,805.482 267.745,808.472 267.198,811.452 266.655,814.423 266.115,817.384 265.581,820.336 265.05,823.278 264.523,826.21 264,829.133 
  263.481,832.046 262.966,834.949 262.455,837.843 261.948,840.727 261.445,843.601 260.945,846.466 260.45,849.32 259.958,852.165 259.469,855.001 258.985,857.827 
  258.504,860.643 258.027,863.449 257.553,866.246 257.083,869.032 256.616,871.81 256.153,874.577 255.694,877.335 255.238,880.083 254.785,882.822 254.336,885.551 
  253.89,888.269 253.447,890.979 253.008,893.678 252.572,896.368 252.139,899.048 251.709,901.718 251.282,904.378 250.859,907.029 250.438,909.67 250.021,912.301 
  249.607,914.922 249.196,917.534 248.788,920.136 248.382,922.729 247.98,925.312 247.581,927.885 247.184,930.448 246.791,933.002 246.4,935.546 246.013,938.081 
  245.628,940.606 245.246,943.121 244.866,945.627 244.49,948.124 244.116,950.611 243.745,953.088 243.376,955.556 243.01,958.014 242.647,960.463 242.287,962.902 
  241.929,965.332 241.574,967.752 241.221,970.163 240.871,972.565 240.523,974.957 240.178,977.34 239.835,979.713 239.495,982.077 239.157,984.432 238.822,986.777 
  238.489,989.113 238.158,991.44 237.83,993.757 237.504,996.066 237.18,998.365 236.859,1000.65 236.54,1002.93 236.223,1005.21 235.908,1007.47 235.596,1009.72 
  235.286,1011.97 234.978,1014.2 234.672,1016.43 234.369,1018.64 234.067,1020.85 233.768,1023.05 233.471,1025.24 233.175,1027.42 232.882,1029.59 232.591,1031.75 
  232.302,1033.91 232.015,1036.05 231.73,1038.19 231.447,1040.31 231.166,1042.43 230.887,1044.54 230.61,1046.64 230.334,1048.73 230.061,1050.81 229.789,1052.89 
  229.52,1054.95 229.252,1057.01 228.986,1059.06 228.722,1061.09 228.459,1063.13 228.199,1065.15 227.94,1067.16 227.683,1069.16 227.428,1071.16 227.174,1073.15 
  226.922,1075.13 226.672,1077.1 226.424,1079.06 226.177,1081.01 225.932,1082.96 225.688,1084.89 225.446,1086.82 225.206,1088.74 224.968,1090.65 224.731,1092.56 
  224.495,1094.45 224.261,1096.34 224.029,1098.21 223.798,1100.08 223.569,1101.95 223.341,1103.8 223.115,1105.65 222.89,1107.48 222.667,1109.31 222.446,1111.13 
  222.225,1112.95 222.007,1114.75 221.789,1116.55 221.573,1118.34 221.359,1120.12 221.146,1121.9 220.934,1123.66 220.724,1125.42 220.515,1127.17 220.307,1128.91 
  220.101,1130.65 219.896,1132.37 219.693,1134.09 219.49,1135.8 219.29,1137.51 219.09,1139.21 218.892,1140.89 218.695,1142.58 218.499,1144.25 218.305,1145.92 
  218.112,1147.57 217.92,1149.23 217.73,1150.87 217.54,1152.51 217.352,1154.14 217.165,1155.76 216.98,1157.37 216.795,1158.98 216.612,1160.58 216.43,1162.17 
  216.249,1163.76 216.069,1165.34 215.891,1166.91 215.713,1168.47 215.537,1170.03 215.362,1171.58 215.188,1173.13 215.015,1174.66 214.843,1176.19 214.673,1177.71 
  214.503,1179.23 214.334,1180.74 214.167,1182.24 214.001,1183.73 213.835,1185.22 213.671,1186.7 213.508,1188.18 213.346,1189.64 213.184,1191.1 213.024,1192.56 
  212.865,1194.01 212.707,1195.45 212.55,1196.88 212.394,1198.31 212.239,1199.73 212.085,1201.14 211.932,1202.55 211.779,1203.95 211.628,1205.35 211.478,1206.74 
  211.329,1208.12 211.18,1209.49 211.033,1210.86 210.886,1212.22 210.741,1213.58 210.596,1214.93 210.452,1216.27 210.31,1217.61 210.168,1218.94 210.027,1220.27 
  209.886,1221.59 209.747,1222.9 209.609,1224.21 209.471,1225.51 209.334,1226.8 209.199,1228.09 209.064,1229.37 208.93,1230.65 208.796,1231.92 208.664,1233.18 
  208.532,1234.44 208.401,1235.69 208.271,1236.94 208.142,1238.18 208.014,1239.41 207.886,1240.64 207.759,1241.86 207.633,1243.08 207.508,1244.29 207.384,1245.5 
  207.26,1246.7 207.137,1247.89 207.015,1249.08 206.893,1250.26 206.773,1251.44 206.653,1252.61 206.534,1253.78 206.415,1254.94 206.297,1256.09 206.18,1257.24 
  206.064,1258.39 205.949,1259.52 205.834,1260.66 205.719,1261.78 205.606,1262.91 205.493,1264.02 205.381,1265.14 205.27,1266.24 205.159,1267.34 205.049,1268.44 
  204.939,1269.53 204.831,1270.61 204.723,1271.69 204.615,1272.77 204.508,1273.84 204.402,1274.9 204.297,1275.96 204.192,1277.01 204.088,1278.06 203.984,1279.11 
  203.881,1280.15 203.779,1281.18 203.677,1282.21 203.576,1283.23 203.475,1284.25 203.375,1285.27 203.276,1286.28 203.177,1287.28 203.079,1288.28 202.981,1289.27 
  202.884,1290.26 202.788,1291.25 202.692,1292.23 202.597,1293.2 202.502,1294.18 202.408,1295.14 202.314,1296.1 202.221,1297.06 202.129,1298.01 202.037,1298.96 
  201.945,1299.9 201.854,1300.84 201.764,1301.77 201.674,1302.7 201.585,1303.63 201.496,1304.55 201.408,1305.46 201.32,1306.38 201.233,1307.28 201.146,1308.19 
  201.06,1309.08 200.975,1309.98 200.889,1310.87 200.805,1311.75 200.721,1312.63 200.637,1313.51 200.554,1314.38 200.471,1315.25 200.389,1316.11 200.307,1316.97 
  200.226,1317.83 200.145,1318.68 200.065,1319.53 199.985,1320.37 199.906,1321.21 199.827,1322.04 199.748,1322.87 199.67,1323.7 199.593,1324.52 199.516,1325.34 
  199.439,1326.16 199.363,1326.97 199.287,1327.77 199.212,1328.58 199.137,1329.38 199.063,1330.17 198.989,1330.96 198.915,1331.75 198.842,1332.53 198.769,1333.31 
  198.697,1334.09 198.625,1334.86 198.554,1335.63 198.483,1336.39 198.412,1337.15 198.342,1337.91 198.272,1338.66 198.203,1339.41 198.134,1340.15 198.065,1340.9 
  197.997,1341.63 197.929,1342.37 197.862,1343.1 197.795,1343.83 197.728,1344.55 197.662,1345.27 197.596,1345.99 197.53,1346.7 197.465,1347.41 197.401,1348.11 
  197.336,1348.82 197.272,1349.52 197.209,1350.21 197.145,1350.9 197.082,1351.59 197.02,1352.28 196.958,1352.96 196.896,1353.64 196.834,1354.31 196.773,1354.98 
  196.712,1355.65 196.652,1356.32 196.592,1356.98 196.532,1357.64 196.473,1358.29 196.414,1358.94 196.355,1359.59 196.297,1360.24 196.239,1360.88 196.181,1361.52 
  196.123,1362.16 196.066,1362.79 196.01,1363.42 195.953,1364.04 195.897,1364.67 195.841,1365.29 195.786,1365.9 195.731,1366.52 195.676,1367.13 195.621,1367.74 
  
  "/>
<path clip-path="url(#clip030)" d="
M1875.49 792.766 L2280.54 792.766 L2280.54 689.086 L1875.49 689.086  Z
  " fill="#ffffff" fill-rule="evenodd" fill-opacity="1"/>
<polyline clip-path="url(#clip030)" style="stroke:#000000; stroke-linecap:butt; stroke-linejoin:round; stroke-width:4; stroke-opacity:1; fill:none" points="
  1875.49,792.766 2280.54,792.766 2280.54,689.086 1875.49,689.086 1875.49,792.766 
  "/>
<polyline clip-path="url(#clip030)" style="stroke:#009af9; stroke-linecap:butt; stroke-linejoin:round; stroke-width:4; stroke-opacity:1; fill:none" points="
  1899.56,740.926 2044,740.926 
  "/>
<path clip-path="url(#clip030)" d="M2078.69 722.234 Q2075.59 727.558 2074.09 732.766 Q2072.58 737.975 2072.58 743.322 Q2072.58 748.669 2074.09 753.924 Q2075.61 759.155 2078.69 764.456 L2074.99 764.456 Q2071.52 759.016 2069.78 753.762 Q2068.07 748.507 2068.07 743.322 Q2068.07 738.16 2069.78 732.928 Q2071.49 727.697 2074.99 722.234 L2078.69 722.234 Z" fill="#000000" fill-rule="evenodd" fill-opacity="1" /><path clip-path="url(#clip030)" d="M2086.52 747.975 L2086.52 732.28 L2090.78 732.28 L2090.78 747.813 Q2090.78 751.493 2092.21 753.345 Q2093.65 755.174 2096.52 755.174 Q2099.97 755.174 2101.96 752.975 Q2103.97 750.775 2103.97 746.979 L2103.97 732.28 L2108.23 732.28 L2108.23 758.206 L2103.97 758.206 L2103.97 754.225 Q2102.42 756.586 2100.36 757.743 Q2098.32 758.877 2095.61 758.877 Q2091.15 758.877 2088.83 756.1 Q2086.52 753.322 2086.52 747.975 M2097.23 731.655 L2097.23 731.655 Z" fill="#000000" fill-rule="evenodd" fill-opacity="1" /><path clip-path="url(#clip030)" d="M2118.41 754.271 L2126.05 754.271 L2126.05 727.905 L2117.74 729.572 L2117.74 725.313 L2126.01 723.646 L2130.68 723.646 L2130.68 754.271 L2138.32 754.271 L2138.32 758.206 L2118.41 758.206 L2118.41 754.271 Z" fill="#000000" fill-rule="evenodd" fill-opacity="1" /><path clip-path="url(#clip030)" d="M2148.25 752.326 L2153.14 752.326 L2153.14 756.308 L2149.34 763.715 L2146.35 763.715 L2148.25 756.308 L2148.25 752.326 Z" fill="#000000" fill-rule="evenodd" fill-opacity="1" /><path clip-path="url(#clip030)" d="M2161.79 747.975 L2161.79 732.28 L2166.05 732.28 L2166.05 747.813 Q2166.05 751.493 2167.49 753.345 Q2168.92 755.174 2171.79 755.174 Q2175.24 755.174 2177.23 752.975 Q2179.25 750.775 2179.25 746.979 L2179.25 732.28 L2183.51 732.28 L2183.51 758.206 L2179.25 758.206 L2179.25 754.225 Q2177.7 756.586 2175.64 757.743 Q2173.6 758.877 2170.89 758.877 Q2166.42 758.877 2164.11 756.1 Q2161.79 753.322 2161.79 747.975 M2172.51 731.655 L2172.51 731.655 Z" fill="#000000" fill-rule="evenodd" fill-opacity="1" /><path clip-path="url(#clip030)" d="M2196.91 754.271 L2213.23 754.271 L2213.23 758.206 L2191.28 758.206 L2191.28 754.271 Q2193.95 751.516 2198.53 746.887 Q2203.14 742.234 2204.32 740.891 Q2206.56 738.368 2207.44 736.632 Q2208.35 734.873 2208.35 733.183 Q2208.35 730.428 2206.4 728.692 Q2204.48 726.956 2201.38 726.956 Q2199.18 726.956 2196.72 727.72 Q2194.29 728.484 2191.52 730.035 L2191.52 725.313 Q2194.34 724.178 2196.79 723.6 Q2199.25 723.021 2201.28 723.021 Q2206.66 723.021 2209.85 725.706 Q2213.04 728.391 2213.04 732.882 Q2213.04 735.012 2212.23 736.933 Q2211.45 738.831 2209.34 741.424 Q2208.76 742.095 2205.66 745.313 Q2202.56 748.507 2196.91 754.271 Z" fill="#000000" fill-rule="evenodd" fill-opacity="1" /><path clip-path="url(#clip030)" d="M2221.77 722.234 L2225.47 722.234 Q2228.95 727.697 2230.66 732.928 Q2232.4 738.16 2232.4 743.322 Q2232.4 748.507 2230.66 753.762 Q2228.95 759.016 2225.47 764.456 L2221.77 764.456 Q2224.85 759.155 2226.35 753.924 Q2227.88 748.669 2227.88 743.322 Q2227.88 737.975 2226.35 732.766 Q2224.85 727.558 2221.77 722.234 Z" fill="#000000" fill-rule="evenodd" fill-opacity="1" /></svg>
