<?xml version="1.0" encoding="utf-8"?>
<svg xmlns="http://www.w3.org/2000/svg" xmlns:xlink="http://www.w3.org/1999/xlink" width="600" height="400" viewBox="0 0 2400 1600">
<defs>
  <clipPath id="clip870">
    <rect x="0" y="0" width="2400" height="1600"/>
  </clipPath>
</defs>
<path clip-path="url(#clip870)" d="
M0 1600 L2400 1600 L2400 0 L0 0  Z
  " fill="#ffffff" fill-rule="evenodd" fill-opacity="1"/>
<defs>
  <clipPath id="clip871">
    <rect x="480" y="0" width="1681" height="1600"/>
  </clipPath>
</defs>
<path clip-path="url(#clip870)" d="
M186.274 1486.45 L2352.76 1486.45 L2352.76 47.2441 L186.274 47.2441  Z
  " fill="#ffffff" fill-rule="evenodd" fill-opacity="1"/>
<defs>
  <clipPath id="clip872">
    <rect x="186" y="47" width="2167" height="1440"/>
  </clipPath>
</defs>
<polyline clip-path="url(#clip872)" style="stroke:#000000; stroke-linecap:butt; stroke-linejoin:round; stroke-width:2; stroke-opacity:0.1; fill:none" points="
  247.59,1486.45 247.59,47.2441 
  "/>
<polyline clip-path="url(#clip872)" style="stroke:#000000; stroke-linecap:butt; stroke-linejoin:round; stroke-width:2; stroke-opacity:0.1; fill:none" points="
  758.552,1486.45 758.552,47.2441 
  "/>
<polyline clip-path="url(#clip872)" style="stroke:#000000; stroke-linecap:butt; stroke-linejoin:round; stroke-width:2; stroke-opacity:0.1; fill:none" points="
  1269.51,1486.45 1269.51,47.2441 
  "/>
<polyline clip-path="url(#clip872)" style="stroke:#000000; stroke-linecap:butt; stroke-linejoin:round; stroke-width:2; stroke-opacity:0.1; fill:none" points="
  1780.48,1486.45 1780.48,47.2441 
  "/>
<polyline clip-path="url(#clip872)" style="stroke:#000000; stroke-linecap:butt; stroke-linejoin:round; stroke-width:2; stroke-opacity:0.1; fill:none" points="
  2291.44,1486.45 2291.44,47.2441 
  "/>
<polyline clip-path="url(#clip870)" style="stroke:#000000; stroke-linecap:butt; stroke-linejoin:round; stroke-width:4; stroke-opacity:1; fill:none" points="
  186.274,1486.45 2352.76,1486.45 
  "/>
<polyline clip-path="url(#clip870)" style="stroke:#000000; stroke-linecap:butt; stroke-linejoin:round; stroke-width:4; stroke-opacity:1; fill:none" points="
  247.59,1486.45 247.59,1467.55 
  "/>
<polyline clip-path="url(#clip870)" style="stroke:#000000; stroke-linecap:butt; stroke-linejoin:round; stroke-width:4; stroke-opacity:1; fill:none" points="
  758.552,1486.45 758.552,1467.55 
  "/>
<polyline clip-path="url(#clip870)" style="stroke:#000000; stroke-linecap:butt; stroke-linejoin:round; stroke-width:4; stroke-opacity:1; fill:none" points="
  1269.51,1486.45 1269.51,1467.55 
  "/>
<polyline clip-path="url(#clip870)" style="stroke:#000000; stroke-linecap:butt; stroke-linejoin:round; stroke-width:4; stroke-opacity:1; fill:none" points="
  1780.48,1486.45 1780.48,1467.55 
  "/>
<polyline clip-path="url(#clip870)" style="stroke:#000000; stroke-linecap:butt; stroke-linejoin:round; stroke-width:4; stroke-opacity:1; fill:none" points="
  2291.44,1486.45 2291.44,1467.55 
  "/>
<path clip-path="url(#clip870)" d="M247.59 1517.37 Q243.978 1517.37 242.15 1520.93 Q240.344 1524.47 240.344 1531.6 Q240.344 1538.71 242.15 1542.27 Q243.978 1545.82 247.59 1545.82 Q251.224 1545.82 253.029 1542.27 Q254.858 1538.71 254.858 1531.6 Q254.858 1524.47 253.029 1520.93 Q251.224 1517.37 247.59 1517.37 M247.59 1513.66 Q253.4 1513.66 256.455 1518.27 Q259.534 1522.85 259.534 1531.6 Q259.534 1540.33 256.455 1544.94 Q253.4 1549.52 247.59 1549.52 Q241.779 1549.52 238.701 1544.94 Q235.645 1540.33 235.645 1531.6 Q235.645 1522.85 238.701 1518.27 Q241.779 1513.66 247.59 1513.66 Z" fill="#000000" fill-rule="evenodd" fill-opacity="1" /><path clip-path="url(#clip870)" d="M748.83 1514.29 L767.186 1514.29 L767.186 1518.22 L753.112 1518.22 L753.112 1526.7 Q754.131 1526.35 755.149 1526.19 Q756.168 1526 757.187 1526 Q762.974 1526 766.353 1529.17 Q769.733 1532.34 769.733 1537.76 Q769.733 1543.34 766.261 1546.44 Q762.788 1549.52 756.469 1549.52 Q754.293 1549.52 752.024 1549.15 Q749.779 1548.78 747.372 1548.04 L747.372 1543.34 Q749.455 1544.47 751.677 1545.03 Q753.899 1545.58 756.376 1545.58 Q760.381 1545.58 762.719 1543.48 Q765.057 1541.37 765.057 1537.76 Q765.057 1534.15 762.719 1532.04 Q760.381 1529.94 756.376 1529.94 Q754.501 1529.94 752.626 1530.35 Q750.775 1530.77 748.83 1531.65 L748.83 1514.29 Z" fill="#000000" fill-rule="evenodd" fill-opacity="1" /><path clip-path="url(#clip870)" d="M1244.2 1544.91 L1251.84 1544.91 L1251.84 1518.55 L1243.53 1520.21 L1243.53 1515.95 L1251.8 1514.29 L1256.47 1514.29 L1256.47 1544.91 L1264.11 1544.91 L1264.11 1548.85 L1244.2 1548.85 L1244.2 1544.91 Z" fill="#000000" fill-rule="evenodd" fill-opacity="1" /><path clip-path="url(#clip870)" d="M1283.55 1517.37 Q1279.94 1517.37 1278.11 1520.93 Q1276.31 1524.47 1276.31 1531.6 Q1276.31 1538.71 1278.11 1542.27 Q1279.94 1545.82 1283.55 1545.82 Q1287.19 1545.82 1288.99 1542.27 Q1290.82 1538.71 1290.82 1531.6 Q1290.82 1524.47 1288.99 1520.93 Q1287.19 1517.37 1283.55 1517.37 M1283.55 1513.66 Q1289.36 1513.66 1292.42 1518.27 Q1295.5 1522.85 1295.5 1531.6 Q1295.5 1540.33 1292.42 1544.94 Q1289.36 1549.52 1283.55 1549.52 Q1277.74 1549.52 1274.67 1544.94 Q1271.61 1540.33 1271.61 1531.6 Q1271.61 1522.85 1274.67 1518.27 Q1277.74 1513.66 1283.55 1513.66 Z" fill="#000000" fill-rule="evenodd" fill-opacity="1" /><path clip-path="url(#clip870)" d="M1755.66 1544.91 L1763.3 1544.91 L1763.3 1518.55 L1754.99 1520.21 L1754.99 1515.95 L1763.26 1514.29 L1767.93 1514.29 L1767.93 1544.91 L1775.57 1544.91 L1775.57 1548.85 L1755.66 1548.85 L1755.66 1544.91 Z" fill="#000000" fill-rule="evenodd" fill-opacity="1" /><path clip-path="url(#clip870)" d="M1785.06 1514.29 L1803.42 1514.29 L1803.42 1518.22 L1789.34 1518.22 L1789.34 1526.7 Q1790.36 1526.35 1791.38 1526.19 Q1792.4 1526 1793.42 1526 Q1799.2 1526 1802.58 1529.17 Q1805.96 1532.34 1805.96 1537.76 Q1805.96 1543.34 1802.49 1546.44 Q1799.02 1549.52 1792.7 1549.52 Q1790.52 1549.52 1788.26 1549.15 Q1786.01 1548.78 1783.6 1548.04 L1783.6 1543.34 Q1785.69 1544.47 1787.91 1545.03 Q1790.13 1545.58 1792.61 1545.58 Q1796.61 1545.58 1798.95 1543.48 Q1801.29 1541.37 1801.29 1537.76 Q1801.29 1534.15 1798.95 1532.04 Q1796.61 1529.94 1792.61 1529.94 Q1790.73 1529.94 1788.86 1530.35 Q1787.01 1530.77 1785.06 1531.65 L1785.06 1514.29 Z" fill="#000000" fill-rule="evenodd" fill-opacity="1" /><path clip-path="url(#clip870)" d="M2270.21 1544.91 L2286.53 1544.91 L2286.53 1548.85 L2264.59 1548.85 L2264.59 1544.91 Q2267.25 1542.16 2271.83 1537.53 Q2276.44 1532.88 2277.62 1531.53 Q2279.87 1529.01 2280.75 1527.27 Q2281.65 1525.51 2281.65 1523.82 Q2281.65 1521.07 2279.7 1519.33 Q2277.78 1517.6 2274.68 1517.6 Q2272.48 1517.6 2270.03 1518.36 Q2267.6 1519.13 2264.82 1520.68 L2264.82 1515.95 Q2267.64 1514.82 2270.1 1514.24 Q2272.55 1513.66 2274.59 1513.66 Q2279.96 1513.66 2283.15 1516.35 Q2286.35 1519.03 2286.35 1523.52 Q2286.35 1525.65 2285.54 1527.57 Q2284.75 1529.47 2282.64 1532.07 Q2282.07 1532.74 2278.96 1535.95 Q2275.86 1539.15 2270.21 1544.91 Z" fill="#000000" fill-rule="evenodd" fill-opacity="1" /><path clip-path="url(#clip870)" d="M2306.35 1517.37 Q2302.74 1517.37 2300.91 1520.93 Q2299.1 1524.47 2299.1 1531.6 Q2299.1 1538.71 2300.91 1542.27 Q2302.74 1545.82 2306.35 1545.82 Q2309.98 1545.82 2311.79 1542.27 Q2313.62 1538.71 2313.62 1531.6 Q2313.62 1524.47 2311.79 1520.93 Q2309.98 1517.37 2306.35 1517.37 M2306.35 1513.66 Q2312.16 1513.66 2315.21 1518.27 Q2318.29 1522.85 2318.29 1531.6 Q2318.29 1540.33 2315.21 1544.94 Q2312.16 1549.52 2306.35 1549.52 Q2300.54 1549.52 2297.46 1544.94 Q2294.4 1540.33 2294.4 1531.6 Q2294.4 1522.85 2297.46 1518.27 Q2300.54 1513.66 2306.35 1513.66 Z" fill="#000000" fill-rule="evenodd" fill-opacity="1" /><polyline clip-path="url(#clip872)" style="stroke:#000000; stroke-linecap:butt; stroke-linejoin:round; stroke-width:2; stroke-opacity:0.1; fill:none" points="
  186.274,1445.72 2352.76,1445.72 
  "/>
<polyline clip-path="url(#clip872)" style="stroke:#000000; stroke-linecap:butt; stroke-linejoin:round; stroke-width:2; stroke-opacity:0.1; fill:none" points="
  186.274,1102.85 2352.76,1102.85 
  "/>
<polyline clip-path="url(#clip872)" style="stroke:#000000; stroke-linecap:butt; stroke-linejoin:round; stroke-width:2; stroke-opacity:0.1; fill:none" points="
  186.274,759.989 2352.76,759.989 
  "/>
<polyline clip-path="url(#clip872)" style="stroke:#000000; stroke-linecap:butt; stroke-linejoin:round; stroke-width:2; stroke-opacity:0.1; fill:none" points="
  186.274,417.125 2352.76,417.125 
  "/>
<polyline clip-path="url(#clip872)" style="stroke:#000000; stroke-linecap:butt; stroke-linejoin:round; stroke-width:2; stroke-opacity:0.1; fill:none" points="
  186.274,74.2617 2352.76,74.2617 
  "/>
<polyline clip-path="url(#clip870)" style="stroke:#000000; stroke-linecap:butt; stroke-linejoin:round; stroke-width:4; stroke-opacity:1; fill:none" points="
  186.274,1486.45 186.274,47.2441 
  "/>
<polyline clip-path="url(#clip870)" style="stroke:#000000; stroke-linecap:butt; stroke-linejoin:round; stroke-width:4; stroke-opacity:1; fill:none" points="
  186.274,1445.72 205.172,1445.72 
  "/>
<polyline clip-path="url(#clip870)" style="stroke:#000000; stroke-linecap:butt; stroke-linejoin:round; stroke-width:4; stroke-opacity:1; fill:none" points="
  186.274,1102.85 205.172,1102.85 
  "/>
<polyline clip-path="url(#clip870)" style="stroke:#000000; stroke-linecap:butt; stroke-linejoin:round; stroke-width:4; stroke-opacity:1; fill:none" points="
  186.274,759.989 205.172,759.989 
  "/>
<polyline clip-path="url(#clip870)" style="stroke:#000000; stroke-linecap:butt; stroke-linejoin:round; stroke-width:4; stroke-opacity:1; fill:none" points="
  186.274,417.125 205.172,417.125 
  "/>
<polyline clip-path="url(#clip870)" style="stroke:#000000; stroke-linecap:butt; stroke-linejoin:round; stroke-width:4; stroke-opacity:1; fill:none" points="
  186.274,74.2617 205.172,74.2617 
  "/>
<path clip-path="url(#clip870)" d="M62.9365 1431.51 Q59.3254 1431.51 57.4967 1435.08 Q55.6912 1438.62 55.6912 1445.75 Q55.6912 1452.86 57.4967 1456.42 Q59.3254 1459.96 62.9365 1459.96 Q66.5707 1459.96 68.3763 1456.42 Q70.205 1452.86 70.205 1445.75 Q70.205 1438.62 68.3763 1435.08 Q66.5707 1431.51 62.9365 1431.51 M62.9365 1427.81 Q68.7467 1427.81 71.8022 1432.42 Q74.8809 1437 74.8809 1445.75 Q74.8809 1454.48 71.8022 1459.08 Q68.7467 1463.67 62.9365 1463.67 Q57.1264 1463.67 54.0477 1459.08 Q50.9921 1454.48 50.9921 1445.75 Q50.9921 1437 54.0477 1432.42 Q57.1264 1427.81 62.9365 1427.81 Z" fill="#000000" fill-rule="evenodd" fill-opacity="1" /><path clip-path="url(#clip870)" d="M83.0984 1457.12 L87.9827 1457.12 L87.9827 1463 L83.0984 1463 L83.0984 1457.12 Z" fill="#000000" fill-rule="evenodd" fill-opacity="1" /><path clip-path="url(#clip870)" d="M108.168 1431.51 Q104.557 1431.51 102.728 1435.08 Q100.922 1438.62 100.922 1445.75 Q100.922 1452.86 102.728 1456.42 Q104.557 1459.96 108.168 1459.96 Q111.802 1459.96 113.608 1456.42 Q115.436 1452.86 115.436 1445.75 Q115.436 1438.62 113.608 1435.08 Q111.802 1431.51 108.168 1431.51 M108.168 1427.81 Q113.978 1427.81 117.033 1432.42 Q120.112 1437 120.112 1445.75 Q120.112 1454.48 117.033 1459.08 Q113.978 1463.67 108.168 1463.67 Q102.358 1463.67 99.2789 1459.08 Q96.2234 1454.48 96.2234 1445.75 Q96.2234 1437 99.2789 1432.42 Q102.358 1427.81 108.168 1427.81 Z" fill="#000000" fill-rule="evenodd" fill-opacity="1" /><path clip-path="url(#clip870)" d="M138.33 1431.51 Q134.719 1431.51 132.89 1435.08 Q131.084 1438.62 131.084 1445.75 Q131.084 1452.86 132.89 1456.42 Q134.719 1459.96 138.33 1459.96 Q141.964 1459.96 143.769 1456.42 Q145.598 1452.86 145.598 1445.75 Q145.598 1438.62 143.769 1435.08 Q141.964 1431.51 138.33 1431.51 M138.33 1427.81 Q144.14 1427.81 147.195 1432.42 Q150.274 1437 150.274 1445.75 Q150.274 1454.48 147.195 1459.08 Q144.14 1463.67 138.33 1463.67 Q132.519 1463.67 129.441 1459.08 Q126.385 1454.48 126.385 1445.75 Q126.385 1437 129.441 1432.42 Q132.519 1427.81 138.33 1427.81 Z" fill="#000000" fill-rule="evenodd" fill-opacity="1" /><path clip-path="url(#clip870)" d="M63.9319 1088.65 Q60.3208 1088.65 58.4921 1092.22 Q56.6865 1095.76 56.6865 1102.89 Q56.6865 1109.99 58.4921 1113.56 Q60.3208 1117.1 63.9319 1117.1 Q67.5661 1117.1 69.3717 1113.56 Q71.2004 1109.99 71.2004 1102.89 Q71.2004 1095.76 69.3717 1092.22 Q67.5661 1088.65 63.9319 1088.65 M63.9319 1084.95 Q69.742 1084.95 72.7976 1089.55 Q75.8763 1094.14 75.8763 1102.89 Q75.8763 1111.61 72.7976 1116.22 Q69.742 1120.8 63.9319 1120.8 Q58.1217 1120.8 55.043 1116.22 Q51.9875 1111.61 51.9875 1102.89 Q51.9875 1094.14 55.043 1089.55 Q58.1217 1084.95 63.9319 1084.95 Z" fill="#000000" fill-rule="evenodd" fill-opacity="1" /><path clip-path="url(#clip870)" d="M84.0938 1114.25 L88.978 1114.25 L88.978 1120.13 L84.0938 1120.13 L84.0938 1114.25 Z" fill="#000000" fill-rule="evenodd" fill-opacity="1" /><path clip-path="url(#clip870)" d="M103.191 1116.2 L119.51 1116.2 L119.51 1120.13 L97.566 1120.13 L97.566 1116.2 Q100.228 1113.44 104.811 1108.81 Q109.418 1104.16 110.598 1102.82 Q112.844 1100.29 113.723 1098.56 Q114.626 1096.8 114.626 1095.11 Q114.626 1092.35 112.682 1090.62 Q110.76 1088.88 107.658 1088.88 Q105.459 1088.88 103.006 1089.65 Q100.575 1090.41 97.7974 1091.96 L97.7974 1087.24 Q100.621 1086.1 103.075 1085.53 Q105.529 1084.95 107.566 1084.95 Q112.936 1084.95 116.131 1087.63 Q119.325 1090.32 119.325 1094.81 Q119.325 1096.94 118.515 1098.86 Q117.728 1100.76 115.621 1103.35 Q115.043 1104.02 111.941 1107.24 Q108.839 1110.43 103.191 1116.2 Z" fill="#000000" fill-rule="evenodd" fill-opacity="1" /><path clip-path="url(#clip870)" d="M129.371 1085.57 L147.728 1085.57 L147.728 1089.51 L133.654 1089.51 L133.654 1097.98 Q134.672 1097.63 135.691 1097.47 Q136.709 1097.29 137.728 1097.29 Q143.515 1097.29 146.894 1100.46 Q150.274 1103.63 150.274 1109.04 Q150.274 1114.62 146.802 1117.72 Q143.33 1120.8 137.01 1120.8 Q134.834 1120.8 132.566 1120.43 Q130.32 1120.06 127.913 1119.32 L127.913 1114.62 Q129.996 1115.76 132.219 1116.31 Q134.441 1116.87 136.918 1116.87 Q140.922 1116.87 143.26 1114.76 Q145.598 1112.66 145.598 1109.04 Q145.598 1105.43 143.26 1103.33 Q140.922 1101.22 136.918 1101.22 Q135.043 1101.22 133.168 1101.64 Q131.316 1102.05 129.371 1102.93 L129.371 1085.57 Z" fill="#000000" fill-rule="evenodd" fill-opacity="1" /><path clip-path="url(#clip870)" d="M62.9365 745.787 Q59.3254 745.787 57.4967 749.352 Q55.6912 752.894 55.6912 760.023 Q55.6912 767.13 57.4967 770.695 Q59.3254 774.236 62.9365 774.236 Q66.5707 774.236 68.3763 770.695 Q70.205 767.13 70.205 760.023 Q70.205 752.894 68.3763 749.352 Q66.5707 745.787 62.9365 745.787 M62.9365 742.084 Q68.7467 742.084 71.8022 746.69 Q74.8809 751.273 74.8809 760.023 Q74.8809 768.75 71.8022 773.357 Q68.7467 777.94 62.9365 777.94 Q57.1264 777.94 54.0477 773.357 Q50.9921 768.75 50.9921 760.023 Q50.9921 751.273 54.0477 746.69 Q57.1264 742.084 62.9365 742.084 Z" fill="#000000" fill-rule="evenodd" fill-opacity="1" /><path clip-path="url(#clip870)" d="M83.0984 771.389 L87.9827 771.389 L87.9827 777.269 L83.0984 777.269 L83.0984 771.389 Z" fill="#000000" fill-rule="evenodd" fill-opacity="1" /><path clip-path="url(#clip870)" d="M98.2141 742.709 L116.57 742.709 L116.57 746.644 L102.496 746.644 L102.496 755.116 Q103.515 754.769 104.534 754.607 Q105.552 754.422 106.571 754.422 Q112.358 754.422 115.737 757.593 Q119.117 760.764 119.117 766.181 Q119.117 771.759 115.645 774.861 Q112.172 777.94 105.853 777.94 Q103.677 777.94 101.409 777.57 Q99.1632 777.199 96.7558 776.459 L96.7558 771.759 Q98.8391 772.894 101.061 773.449 Q103.284 774.005 105.76 774.005 Q109.765 774.005 112.103 771.898 Q114.441 769.792 114.441 766.181 Q114.441 762.57 112.103 760.463 Q109.765 758.357 105.76 758.357 Q103.885 758.357 102.01 758.773 Q100.159 759.19 98.2141 760.07 L98.2141 742.709 Z" fill="#000000" fill-rule="evenodd" fill-opacity="1" /><path clip-path="url(#clip870)" d="M138.33 745.787 Q134.719 745.787 132.89 749.352 Q131.084 752.894 131.084 760.023 Q131.084 767.13 132.89 770.695 Q134.719 774.236 138.33 774.236 Q141.964 774.236 143.769 770.695 Q145.598 767.13 145.598 760.023 Q145.598 752.894 143.769 749.352 Q141.964 745.787 138.33 745.787 M138.33 742.084 Q144.14 742.084 147.195 746.69 Q150.274 751.273 150.274 760.023 Q150.274 768.75 147.195 773.357 Q144.14 777.94 138.33 777.94 Q132.519 777.94 129.441 773.357 Q126.385 768.75 126.385 760.023 Q126.385 751.273 129.441 746.69 Q132.519 742.084 138.33 742.084 Z" fill="#000000" fill-rule="evenodd" fill-opacity="1" /><path clip-path="url(#clip870)" d="M63.9319 402.924 Q60.3208 402.924 58.4921 406.489 Q56.6865 410.03 56.6865 417.16 Q56.6865 424.266 58.4921 427.831 Q60.3208 431.373 63.9319 431.373 Q67.5661 431.373 69.3717 427.831 Q71.2004 424.266 71.2004 417.16 Q71.2004 410.03 69.3717 406.489 Q67.5661 402.924 63.9319 402.924 M63.9319 399.22 Q69.742 399.22 72.7976 403.827 Q75.8763 408.41 75.8763 417.16 Q75.8763 425.887 72.7976 430.493 Q69.742 435.077 63.9319 435.077 Q58.1217 435.077 55.043 430.493 Q51.9875 425.887 51.9875 417.16 Q51.9875 408.41 55.043 403.827 Q58.1217 399.22 63.9319 399.22 Z" fill="#000000" fill-rule="evenodd" fill-opacity="1" /><path clip-path="url(#clip870)" d="M84.0938 428.526 L88.978 428.526 L88.978 434.405 L84.0938 434.405 L84.0938 428.526 Z" fill="#000000" fill-rule="evenodd" fill-opacity="1" /><path clip-path="url(#clip870)" d="M97.9826 399.845 L120.205 399.845 L120.205 401.836 L107.658 434.405 L102.774 434.405 L114.58 403.78 L97.9826 403.78 L97.9826 399.845 Z" fill="#000000" fill-rule="evenodd" fill-opacity="1" /><path clip-path="url(#clip870)" d="M129.371 399.845 L147.728 399.845 L147.728 403.78 L133.654 403.78 L133.654 412.253 Q134.672 411.905 135.691 411.743 Q136.709 411.558 137.728 411.558 Q143.515 411.558 146.894 414.729 Q150.274 417.901 150.274 423.317 Q150.274 428.896 146.802 431.998 Q143.33 435.077 137.01 435.077 Q134.834 435.077 132.566 434.706 Q130.32 434.336 127.913 433.595 L127.913 428.896 Q129.996 430.03 132.219 430.586 Q134.441 431.141 136.918 431.141 Q140.922 431.141 143.26 429.035 Q145.598 426.928 145.598 423.317 Q145.598 419.706 143.26 417.6 Q140.922 415.493 136.918 415.493 Q135.043 415.493 133.168 415.91 Q131.316 416.327 129.371 417.206 L129.371 399.845 Z" fill="#000000" fill-rule="evenodd" fill-opacity="1" /><path clip-path="url(#clip870)" d="M53.7467 87.6066 L61.3856 87.6066 L61.3856 61.241 L53.0754 62.9076 L53.0754 58.6484 L61.3393 56.9817 L66.0152 56.9817 L66.0152 87.6066 L73.654 87.6066 L73.654 91.5417 L53.7467 91.5417 L53.7467 87.6066 Z" fill="#000000" fill-rule="evenodd" fill-opacity="1" /><path clip-path="url(#clip870)" d="M83.0984 85.6621 L87.9827 85.6621 L87.9827 91.5417 L83.0984 91.5417 L83.0984 85.6621 Z" fill="#000000" fill-rule="evenodd" fill-opacity="1" /><path clip-path="url(#clip870)" d="M108.168 60.0604 Q104.557 60.0604 102.728 63.6252 Q100.922 67.1669 100.922 74.2965 Q100.922 81.4029 102.728 84.9677 Q104.557 88.5093 108.168 88.5093 Q111.802 88.5093 113.608 84.9677 Q115.436 81.4029 115.436 74.2965 Q115.436 67.1669 113.608 63.6252 Q111.802 60.0604 108.168 60.0604 M108.168 56.3567 Q113.978 56.3567 117.033 60.9632 Q120.112 65.5465 120.112 74.2965 Q120.112 83.0233 117.033 87.6297 Q113.978 92.213 108.168 92.213 Q102.358 92.213 99.2789 87.6297 Q96.2234 83.0233 96.2234 74.2965 Q96.2234 65.5465 99.2789 60.9632 Q102.358 56.3567 108.168 56.3567 Z" fill="#000000" fill-rule="evenodd" fill-opacity="1" /><path clip-path="url(#clip870)" d="M138.33 60.0604 Q134.719 60.0604 132.89 63.6252 Q131.084 67.1669 131.084 74.2965 Q131.084 81.4029 132.89 84.9677 Q134.719 88.5093 138.33 88.5093 Q141.964 88.5093 143.769 84.9677 Q145.598 81.4029 145.598 74.2965 Q145.598 67.1669 143.769 63.6252 Q141.964 60.0604 138.33 60.0604 M138.33 56.3567 Q144.14 56.3567 147.195 60.9632 Q150.274 65.5465 150.274 74.2965 Q150.274 83.0233 147.195 87.6297 Q144.14 92.213 138.33 92.213 Q132.519 92.213 129.441 87.6297 Q126.385 83.0233 126.385 74.2965 Q126.385 65.5465 129.441 60.9632 Q132.519 56.3567 138.33 56.3567 Z" fill="#000000" fill-rule="evenodd" fill-opacity="1" /><polyline clip-path="url(#clip872)" style="stroke:#009af9; stroke-linecap:butt; stroke-linejoin:round; stroke-width:8; stroke-opacity:1; fill:none" points="
  247.59,87.9763 298.686,94.765 349.782,103.85 400.878,115.965 451.975,132.043 503.071,153.245 554.167,180.965 605.263,216.804 656.36,262.462 707.456,319.524 
  758.552,389.117 809.649,471.424 860.745,565.17 911.841,667.283 962.937,772.993 1014.03,876.57 1065.13,972.548 1116.23,1056.93 1167.32,1127.82 1218.42,1185.31 
  1269.51,1230.79 1320.61,1266.27 1371.71,1293.76 1422.8,1315.08 1473.9,1331.67 1525,1344.67 1576.09,1354.94 1627.19,1363.12 1678.29,1369.7 1729.38,1375.02 
  1780.48,1379.37 1831.57,1382.94 1882.67,1385.9 1933.77,1388.36 1984.86,1390.41 2035.96,1392.14 2087.06,1393.59 2138.15,1394.82 2189.25,1395.86 2240.34,1396.75 
  2291.44,1397.51 
  "/>
<polyline clip-path="url(#clip872)" style="stroke:#e26f46; stroke-linecap:butt; stroke-linejoin:round; stroke-width:8; stroke-opacity:1; fill:none" points="
  247.59,1432 298.686,1427.27 349.782,1420.95 400.878,1412.55 451.975,1401.45 503.071,1386.89 554.167,1367.99 605.263,1343.81 656.36,1313.44 707.456,1276.22 
  758.552,1232.05 809.649,1181.79 860.745,1127.63 911.841,1073.23 962.937,1023.4 1014.03,983.167 1065.13,956.572 1116.23,945.563 1167.32,949.693 1218.42,966.609 
  1269.51,992.989 1320.61,1025.42 1371.71,1060.97 1422.8,1097.37 1473.9,1133.03 1525,1166.93 1576.09,1198.48 1627.19,1227.38 1678.29,1253.56 1729.38,1277.06 
  1780.48,1298.01 1831.57,1316.59 1882.67,1333.01 1933.77,1347.45 1984.86,1360.14 2035.96,1371.25 2087.06,1380.96 2138.15,1389.45 2189.25,1396.84 2240.34,1403.29 
  2291.44,1408.89 
  "/>
<polyline clip-path="url(#clip872)" style="stroke:#3da44d; stroke-linecap:butt; stroke-linejoin:round; stroke-width:8; stroke-opacity:1; fill:none" points="
  247.59,1445.72 298.686,1443.66 349.782,1440.89 400.878,1437.18 451.975,1432.2 503.071,1425.56 554.167,1416.74 605.263,1405.08 656.36,1389.79 707.456,1369.95 
  758.552,1344.53 809.649,1312.48 860.745,1272.89 911.841,1225.18 962.937,1169.3 1014.03,1105.96 1065.13,1036.57 1116.23,963.202 1167.32,888.179 1218.42,813.776 
  1269.51,741.91 1320.61,674.001 1371.71,610.957 1422.8,553.246 1473.9,500.994 1525,454.091 1576.09,412.273 1627.19,375.188 1678.29,342.438 1729.38,313.614 
  1780.48,288.316 1831.57,266.159 1882.67,246.791 1933.77,229.884 1984.86,215.145 2035.96,202.308 2087.06,191.138 2138.15,181.426 2189.25,172.985 2240.34,165.654 
  2291.44,159.29 
  "/>
<path clip-path="url(#clip870)" d="
M2012.9 844.606 L2280.54 844.606 L2280.54 637.246 L2012.9 637.246  Z
  " fill="#ffffff" fill-rule="evenodd" fill-opacity="1"/>
<polyline clip-path="url(#clip870)" style="stroke:#000000; stroke-linecap:butt; stroke-linejoin:round; stroke-width:4; stroke-opacity:1; fill:none" points="
  2012.9,844.606 2280.54,844.606 2280.54,637.246 2012.9,637.246 2012.9,844.606 
  "/>
<polyline clip-path="url(#clip870)" style="stroke:#009af9; stroke-linecap:butt; stroke-linejoin:round; stroke-width:4; stroke-opacity:1; fill:none" points="
  2036.97,689.086 2181.4,689.086 
  "/>
<path clip-path="url(#clip870)" d="M2227.72 672.94 L2227.72 677.5 Q2225.06 676.227 2222.7 675.602 Q2220.34 674.977 2218.14 674.977 Q2214.32 674.977 2212.23 676.459 Q2210.17 677.94 2210.17 680.672 Q2210.17 682.963 2211.54 684.144 Q2212.93 685.301 2216.77 686.019 L2219.59 686.598 Q2224.83 687.593 2227.3 690.116 Q2229.8 692.616 2229.8 696.829 Q2229.8 701.852 2226.42 704.445 Q2223.07 707.037 2216.56 707.037 Q2214.11 707.037 2211.33 706.482 Q2208.58 705.926 2205.61 704.838 L2205.61 700.023 Q2208.46 701.621 2211.19 702.431 Q2213.92 703.241 2216.56 703.241 Q2220.57 703.241 2222.74 701.667 Q2224.92 700.093 2224.92 697.176 Q2224.92 694.63 2223.34 693.195 Q2221.79 691.76 2218.23 691.042 L2215.38 690.486 Q2210.15 689.445 2207.81 687.223 Q2205.47 685 2205.47 681.042 Q2205.47 676.459 2208.69 673.82 Q2211.93 671.181 2217.6 671.181 Q2220.03 671.181 2222.56 671.621 Q2225.08 672.061 2227.72 672.94 Z" fill="#000000" fill-rule="evenodd" fill-opacity="1" /><polyline clip-path="url(#clip870)" style="stroke:#e26f46; stroke-linecap:butt; stroke-linejoin:round; stroke-width:4; stroke-opacity:1; fill:none" points="
  2036.97,740.926 2181.4,740.926 
  "/>
<path clip-path="url(#clip870)" d="M2205.47 723.646 L2210.15 723.646 L2210.15 758.206 L2205.47 758.206 L2205.47 723.646 Z" fill="#000000" fill-rule="evenodd" fill-opacity="1" /><polyline clip-path="url(#clip870)" style="stroke:#3da44d; stroke-linecap:butt; stroke-linejoin:round; stroke-width:4; stroke-opacity:1; fill:none" points="
  2036.97,792.766 2181.4,792.766 
  "/>
<path clip-path="url(#clip870)" d="M2221.86 793.842 Q2223.37 794.352 2224.78 796.018 Q2226.22 797.685 2227.65 800.602 L2232.4 810.046 L2227.37 810.046 L2222.95 801.18 Q2221.24 797.708 2219.62 796.574 Q2218.02 795.44 2215.24 795.44 L2210.15 795.44 L2210.15 810.046 L2205.47 810.046 L2205.47 775.486 L2216.03 775.486 Q2221.96 775.486 2224.87 777.963 Q2227.79 780.44 2227.79 785.44 Q2227.79 788.704 2226.26 790.856 Q2224.76 793.009 2221.86 793.842 M2210.15 779.329 L2210.15 791.597 L2216.03 791.597 Q2219.41 791.597 2221.12 790.046 Q2222.86 788.472 2222.86 785.44 Q2222.86 782.407 2221.12 780.879 Q2219.41 779.329 2216.03 779.329 L2210.15 779.329 Z" fill="#000000" fill-rule="evenodd" fill-opacity="1" /></svg>
