<?xml version="1.0" encoding="utf-8"?>
<svg xmlns="http://www.w3.org/2000/svg" xmlns:xlink="http://www.w3.org/1999/xlink" width="600" height="400" viewBox="0 0 2400 1600">
<defs>
  <clipPath id="clip840">
    <rect x="0" y="0" width="2400" height="1600"/>
  </clipPath>
</defs>
<path clip-path="url(#clip840)" d="
M0 1600 L2400 1600 L2400 0 L0 0  Z
  " fill="#ffffff" fill-rule="evenodd" fill-opacity="1"/>
<defs>
  <clipPath id="clip841">
    <rect x="480" y="0" width="1681" height="1600"/>
  </clipPath>
</defs>
<path clip-path="url(#clip840)" d="
M186.274 1486.45 L1149.25 1486.45 L1149.25 47.2441 L186.274 47.2441  Z
  " fill="#ffffff" fill-rule="evenodd" fill-opacity="1"/>
<defs>
  <clipPath id="clip842">
    <rect x="186" y="47" width="964" height="1440"/>
  </clipPath>
</defs>
<polyline clip-path="url(#clip842)" style="stroke:#000000; stroke-linecap:butt; stroke-linejoin:round; stroke-width:2; stroke-opacity:0.1; fill:none" points="
  213.528,1486.45 213.528,47.2441 
  "/>
<polyline clip-path="url(#clip842)" style="stroke:#000000; stroke-linecap:butt; stroke-linejoin:round; stroke-width:2; stroke-opacity:0.1; fill:none" points="
  358.883,1486.45 358.883,47.2441 
  "/>
<polyline clip-path="url(#clip842)" style="stroke:#000000; stroke-linecap:butt; stroke-linejoin:round; stroke-width:2; stroke-opacity:0.1; fill:none" points="
  504.237,1486.45 504.237,47.2441 
  "/>
<polyline clip-path="url(#clip842)" style="stroke:#000000; stroke-linecap:butt; stroke-linejoin:round; stroke-width:2; stroke-opacity:0.1; fill:none" points="
  649.592,1486.45 649.592,47.2441 
  "/>
<polyline clip-path="url(#clip842)" style="stroke:#000000; stroke-linecap:butt; stroke-linejoin:round; stroke-width:2; stroke-opacity:0.1; fill:none" points="
  794.947,1486.45 794.947,47.2441 
  "/>
<polyline clip-path="url(#clip842)" style="stroke:#000000; stroke-linecap:butt; stroke-linejoin:round; stroke-width:2; stroke-opacity:0.1; fill:none" points="
  940.302,1486.45 940.302,47.2441 
  "/>
<polyline clip-path="url(#clip842)" style="stroke:#000000; stroke-linecap:butt; stroke-linejoin:round; stroke-width:2; stroke-opacity:0.1; fill:none" points="
  1085.66,1486.45 1085.66,47.2441 
  "/>
<polyline clip-path="url(#clip840)" style="stroke:#000000; stroke-linecap:butt; stroke-linejoin:round; stroke-width:4; stroke-opacity:1; fill:none" points="
  186.274,1486.45 1149.25,1486.45 
  "/>
<polyline clip-path="url(#clip840)" style="stroke:#000000; stroke-linecap:butt; stroke-linejoin:round; stroke-width:4; stroke-opacity:1; fill:none" points="
  213.528,1486.45 213.528,1467.55 
  "/>
<polyline clip-path="url(#clip840)" style="stroke:#000000; stroke-linecap:butt; stroke-linejoin:round; stroke-width:4; stroke-opacity:1; fill:none" points="
  358.883,1486.45 358.883,1467.55 
  "/>
<polyline clip-path="url(#clip840)" style="stroke:#000000; stroke-linecap:butt; stroke-linejoin:round; stroke-width:4; stroke-opacity:1; fill:none" points="
  504.237,1486.45 504.237,1467.55 
  "/>
<polyline clip-path="url(#clip840)" style="stroke:#000000; stroke-linecap:butt; stroke-linejoin:round; stroke-width:4; stroke-opacity:1; fill:none" points="
  649.592,1486.45 649.592,1467.55 
  "/>
<polyline clip-path="url(#clip840)" style="stroke:#000000; stroke-linecap:butt; stroke-linejoin:round; stroke-width:4; stroke-opacity:1; fill:none" points="
  794.947,1486.45 794.947,1467.55 
  "/>
<polyline clip-path="url(#clip840)" style="stroke:#000000; stroke-linecap:butt; stroke-linejoin:round; stroke-width:4; stroke-opacity:1; fill:none" points="
  940.302,1486.45 940.302,1467.55 
  "/>
<polyline clip-path="url(#clip840)" style="stroke:#000000; stroke-linecap:butt; stroke-linejoin:round; stroke-width:4; stroke-opacity:1; fill:none" points="
  1085.66,1486.45 1085.66,1467.55 
  "/>
<path clip-path="url(#clip840)" d="M213.528 1517.37 Q209.917 1517.37 208.088 1520.93 Q206.283 1524.47 206.283 1531.6 Q206.283 1538.71 208.088 1542.27 Q209.917 1545.82 213.528 1545.82 Q217.162 1545.82 218.968 1542.27 Q220.796 1538.71 220.796 1531.6 Q220.796 1524.47 218.968 1520.93 Q217.162 1517.37 213.528 1517.37 M213.528 1513.66 Q219.338 1513.66 222.394 1518.27 Q225.472 1522.85 225.472 1531.6 Q225.472 1540.33 222.394 1544.94 Q219.338 1549.52 213.528 1549.52 Q207.718 1549.52 204.639 1544.94 Q201.584 1540.33 201.584 1531.6 Q201.584 1522.85 204.639 1518.27 Q207.718 1513.66 213.528 1513.66 Z" fill="#000000" fill-rule="evenodd" fill-opacity="1" /><path clip-path="url(#clip840)" d="M353.536 1544.91 L369.855 1544.91 L369.855 1548.85 L347.911 1548.85 L347.911 1544.91 Q350.573 1542.16 355.156 1537.53 Q359.762 1532.88 360.943 1531.53 Q363.188 1529.01 364.068 1527.27 Q364.971 1525.51 364.971 1523.82 Q364.971 1521.07 363.026 1519.33 Q361.105 1517.6 358.003 1517.6 Q355.804 1517.6 353.35 1518.36 Q350.92 1519.13 348.142 1520.68 L348.142 1515.95 Q350.966 1514.82 353.42 1514.24 Q355.873 1513.66 357.911 1513.66 Q363.281 1513.66 366.475 1516.35 Q369.67 1519.03 369.67 1523.52 Q369.67 1525.65 368.86 1527.57 Q368.072 1529.47 365.966 1532.07 Q365.387 1532.74 362.285 1535.95 Q359.184 1539.15 353.536 1544.91 Z" fill="#000000" fill-rule="evenodd" fill-opacity="1" /><path clip-path="url(#clip840)" d="M507.247 1518.36 L495.441 1536.81 L507.247 1536.81 L507.247 1518.36 M506.02 1514.29 L511.899 1514.29 L511.899 1536.81 L516.83 1536.81 L516.83 1540.7 L511.899 1540.7 L511.899 1548.85 L507.247 1548.85 L507.247 1540.7 L491.645 1540.7 L491.645 1536.19 L506.02 1514.29 Z" fill="#000000" fill-rule="evenodd" fill-opacity="1" /><path clip-path="url(#clip840)" d="M649.997 1529.7 Q646.849 1529.7 644.997 1531.86 Q643.169 1534.01 643.169 1537.76 Q643.169 1541.49 644.997 1543.66 Q646.849 1545.82 649.997 1545.82 Q653.145 1545.82 654.974 1543.66 Q656.826 1541.49 656.826 1537.76 Q656.826 1534.01 654.974 1531.86 Q653.145 1529.7 649.997 1529.7 M659.28 1515.05 L659.28 1519.31 Q657.52 1518.48 655.715 1518.04 Q653.932 1517.6 652.173 1517.6 Q647.544 1517.6 645.09 1520.72 Q642.659 1523.85 642.312 1530.17 Q643.678 1528.15 645.738 1527.09 Q647.798 1526 650.275 1526 Q655.483 1526 658.493 1529.17 Q661.525 1532.32 661.525 1537.76 Q661.525 1543.08 658.377 1546.3 Q655.229 1549.52 649.997 1549.52 Q644.002 1549.52 640.831 1544.94 Q637.659 1540.33 637.659 1531.6 Q637.659 1523.41 641.548 1518.55 Q645.437 1513.66 651.988 1513.66 Q653.747 1513.66 655.53 1514.01 Q657.335 1514.36 659.28 1515.05 Z" fill="#000000" fill-rule="evenodd" fill-opacity="1" /><path clip-path="url(#clip840)" d="M794.947 1532.44 Q791.614 1532.44 789.692 1534.22 Q787.794 1536 787.794 1539.13 Q787.794 1542.25 789.692 1544.03 Q791.614 1545.82 794.947 1545.82 Q798.28 1545.82 800.201 1544.03 Q802.123 1542.23 802.123 1539.13 Q802.123 1536 800.201 1534.22 Q798.303 1532.44 794.947 1532.44 M790.271 1530.45 Q787.262 1529.7 785.572 1527.64 Q783.905 1525.58 783.905 1522.62 Q783.905 1518.48 786.845 1516.07 Q789.808 1513.66 794.947 1513.66 Q800.109 1513.66 803.049 1516.07 Q805.988 1518.48 805.988 1522.62 Q805.988 1525.58 804.299 1527.64 Q802.632 1529.7 799.646 1530.45 Q803.026 1531.23 804.901 1533.52 Q806.799 1535.82 806.799 1539.13 Q806.799 1544.15 803.72 1546.83 Q800.664 1549.52 794.947 1549.52 Q789.229 1549.52 786.151 1546.83 Q783.095 1544.15 783.095 1539.13 Q783.095 1535.82 784.993 1533.52 Q786.891 1531.23 790.271 1530.45 M788.558 1523.06 Q788.558 1525.75 790.225 1527.25 Q791.914 1528.76 794.947 1528.76 Q797.956 1528.76 799.646 1527.25 Q801.359 1525.75 801.359 1523.06 Q801.359 1520.38 799.646 1518.87 Q797.956 1517.37 794.947 1517.37 Q791.914 1517.37 790.225 1518.87 Q788.558 1520.38 788.558 1523.06 Z" fill="#000000" fill-rule="evenodd" fill-opacity="1" /><path clip-path="url(#clip840)" d="M914.989 1544.91 L922.628 1544.91 L922.628 1518.55 L914.318 1520.21 L914.318 1515.95 L922.582 1514.29 L927.258 1514.29 L927.258 1544.91 L934.897 1544.91 L934.897 1548.85 L914.989 1548.85 L914.989 1544.91 Z" fill="#000000" fill-rule="evenodd" fill-opacity="1" /><path clip-path="url(#clip840)" d="M954.341 1517.37 Q950.73 1517.37 948.901 1520.93 Q947.096 1524.47 947.096 1531.6 Q947.096 1538.71 948.901 1542.27 Q950.73 1545.82 954.341 1545.82 Q957.975 1545.82 959.781 1542.27 Q961.609 1538.71 961.609 1531.6 Q961.609 1524.47 959.781 1520.93 Q957.975 1517.37 954.341 1517.37 M954.341 1513.66 Q960.151 1513.66 963.207 1518.27 Q966.285 1522.85 966.285 1531.6 Q966.285 1540.33 963.207 1544.94 Q960.151 1549.52 954.341 1549.52 Q948.531 1549.52 945.452 1544.94 Q942.396 1540.33 942.396 1531.6 Q942.396 1522.85 945.452 1518.27 Q948.531 1513.66 954.341 1513.66 Z" fill="#000000" fill-rule="evenodd" fill-opacity="1" /><path clip-path="url(#clip840)" d="M1061.14 1544.91 L1068.78 1544.91 L1068.78 1518.55 L1060.47 1520.21 L1060.47 1515.95 L1068.74 1514.29 L1073.41 1514.29 L1073.41 1544.91 L1081.05 1544.91 L1081.05 1548.85 L1061.14 1548.85 L1061.14 1544.91 Z" fill="#000000" fill-rule="evenodd" fill-opacity="1" /><path clip-path="url(#clip840)" d="M1094.52 1544.91 L1110.84 1544.91 L1110.84 1548.85 L1088.9 1548.85 L1088.9 1544.91 Q1091.56 1542.16 1096.14 1537.53 Q1100.75 1532.88 1101.93 1531.53 Q1104.17 1529.01 1105.05 1527.27 Q1105.96 1525.51 1105.96 1523.82 Q1105.96 1521.07 1104.01 1519.33 Q1102.09 1517.6 1098.99 1517.6 Q1096.79 1517.6 1094.34 1518.36 Q1091.91 1519.13 1089.13 1520.68 L1089.13 1515.95 Q1091.95 1514.82 1094.41 1514.24 Q1096.86 1513.66 1098.9 1513.66 Q1104.27 1513.66 1107.46 1516.35 Q1110.66 1519.03 1110.66 1523.52 Q1110.66 1525.65 1109.85 1527.57 Q1109.06 1529.47 1106.95 1532.07 Q1106.37 1532.74 1103.27 1535.95 Q1100.17 1539.15 1094.52 1544.91 Z" fill="#000000" fill-rule="evenodd" fill-opacity="1" /><polyline clip-path="url(#clip842)" style="stroke:#000000; stroke-linecap:butt; stroke-linejoin:round; stroke-width:2; stroke-opacity:0.1; fill:none" points="
  186.274,1445.73 1149.25,1445.73 
  "/>
<polyline clip-path="url(#clip842)" style="stroke:#000000; stroke-linecap:butt; stroke-linejoin:round; stroke-width:2; stroke-opacity:0.1; fill:none" points="
  186.274,1106.28 1149.25,1106.28 
  "/>
<polyline clip-path="url(#clip842)" style="stroke:#000000; stroke-linecap:butt; stroke-linejoin:round; stroke-width:2; stroke-opacity:0.1; fill:none" points="
  186.274,766.84 1149.25,766.84 
  "/>
<polyline clip-path="url(#clip842)" style="stroke:#000000; stroke-linecap:butt; stroke-linejoin:round; stroke-width:2; stroke-opacity:0.1; fill:none" points="
  186.274,427.395 1149.25,427.395 
  "/>
<polyline clip-path="url(#clip842)" style="stroke:#000000; stroke-linecap:butt; stroke-linejoin:round; stroke-width:2; stroke-opacity:0.1; fill:none" points="
  186.274,87.9506 1149.25,87.9506 
  "/>
<polyline clip-path="url(#clip840)" style="stroke:#000000; stroke-linecap:butt; stroke-linejoin:round; stroke-width:4; stroke-opacity:1; fill:none" points="
  186.274,1486.45 186.274,47.2441 
  "/>
<polyline clip-path="url(#clip840)" style="stroke:#000000; stroke-linecap:butt; stroke-linejoin:round; stroke-width:4; stroke-opacity:1; fill:none" points="
  186.274,1445.73 205.172,1445.73 
  "/>
<polyline clip-path="url(#clip840)" style="stroke:#000000; stroke-linecap:butt; stroke-linejoin:round; stroke-width:4; stroke-opacity:1; fill:none" points="
  186.274,1106.28 205.172,1106.28 
  "/>
<polyline clip-path="url(#clip840)" style="stroke:#000000; stroke-linecap:butt; stroke-linejoin:round; stroke-width:4; stroke-opacity:1; fill:none" points="
  186.274,766.84 205.172,766.84 
  "/>
<polyline clip-path="url(#clip840)" style="stroke:#000000; stroke-linecap:butt; stroke-linejoin:round; stroke-width:4; stroke-opacity:1; fill:none" points="
  186.274,427.395 205.172,427.395 
  "/>
<polyline clip-path="url(#clip840)" style="stroke:#000000; stroke-linecap:butt; stroke-linejoin:round; stroke-width:4; stroke-opacity:1; fill:none" points="
  186.274,87.9506 205.172,87.9506 
  "/>
<path clip-path="url(#clip840)" d="M62.9365 1431.53 Q59.3254 1431.53 57.4967 1435.09 Q55.6912 1438.63 55.6912 1445.76 Q55.6912 1452.87 57.4967 1456.43 Q59.3254 1459.98 62.9365 1459.98 Q66.5707 1459.98 68.3763 1456.43 Q70.205 1452.87 70.205 1445.76 Q70.205 1438.63 68.3763 1435.09 Q66.5707 1431.53 62.9365 1431.53 M62.9365 1427.82 Q68.7467 1427.82 71.8022 1432.43 Q74.8809 1437.01 74.8809 1445.76 Q74.8809 1454.49 71.8022 1459.1 Q68.7467 1463.68 62.9365 1463.68 Q57.1264 1463.68 54.0477 1459.1 Q50.9921 1454.49 50.9921 1445.76 Q50.9921 1437.01 54.0477 1432.43 Q57.1264 1427.82 62.9365 1427.82 Z" fill="#000000" fill-rule="evenodd" fill-opacity="1" /><path clip-path="url(#clip840)" d="M83.0984 1457.13 L87.9827 1457.13 L87.9827 1463.01 L83.0984 1463.01 L83.0984 1457.13 Z" fill="#000000" fill-rule="evenodd" fill-opacity="1" /><path clip-path="url(#clip840)" d="M108.168 1431.53 Q104.557 1431.53 102.728 1435.09 Q100.922 1438.63 100.922 1445.76 Q100.922 1452.87 102.728 1456.43 Q104.557 1459.98 108.168 1459.98 Q111.802 1459.98 113.608 1456.43 Q115.436 1452.87 115.436 1445.76 Q115.436 1438.63 113.608 1435.09 Q111.802 1431.53 108.168 1431.53 M108.168 1427.82 Q113.978 1427.82 117.033 1432.43 Q120.112 1437.01 120.112 1445.76 Q120.112 1454.49 117.033 1459.1 Q113.978 1463.68 108.168 1463.68 Q102.358 1463.68 99.2789 1459.1 Q96.2234 1454.49 96.2234 1445.76 Q96.2234 1437.01 99.2789 1432.43 Q102.358 1427.82 108.168 1427.82 Z" fill="#000000" fill-rule="evenodd" fill-opacity="1" /><path clip-path="url(#clip840)" d="M138.33 1431.53 Q134.719 1431.53 132.89 1435.09 Q131.084 1438.63 131.084 1445.76 Q131.084 1452.87 132.89 1456.43 Q134.719 1459.98 138.33 1459.98 Q141.964 1459.98 143.769 1456.43 Q145.598 1452.87 145.598 1445.76 Q145.598 1438.63 143.769 1435.09 Q141.964 1431.53 138.33 1431.53 M138.33 1427.82 Q144.14 1427.82 147.195 1432.43 Q150.274 1437.01 150.274 1445.76 Q150.274 1454.49 147.195 1459.1 Q144.14 1463.68 138.33 1463.68 Q132.519 1463.68 129.441 1459.1 Q126.385 1454.49 126.385 1445.76 Q126.385 1437.01 129.441 1432.43 Q132.519 1427.82 138.33 1427.82 Z" fill="#000000" fill-rule="evenodd" fill-opacity="1" /><path clip-path="url(#clip840)" d="M63.9319 1092.08 Q60.3208 1092.08 58.4921 1095.65 Q56.6865 1099.19 56.6865 1106.32 Q56.6865 1113.43 58.4921 1116.99 Q60.3208 1120.53 63.9319 1120.53 Q67.5661 1120.53 69.3717 1116.99 Q71.2004 1113.43 71.2004 1106.32 Q71.2004 1099.19 69.3717 1095.65 Q67.5661 1092.08 63.9319 1092.08 M63.9319 1088.38 Q69.742 1088.38 72.7976 1092.99 Q75.8763 1097.57 75.8763 1106.32 Q75.8763 1115.05 72.7976 1119.65 Q69.742 1124.24 63.9319 1124.24 Q58.1217 1124.24 55.043 1119.65 Q51.9875 1115.05 51.9875 1106.32 Q51.9875 1097.57 55.043 1092.99 Q58.1217 1088.38 63.9319 1088.38 Z" fill="#000000" fill-rule="evenodd" fill-opacity="1" /><path clip-path="url(#clip840)" d="M84.0938 1117.68 L88.978 1117.68 L88.978 1123.56 L84.0938 1123.56 L84.0938 1117.68 Z" fill="#000000" fill-rule="evenodd" fill-opacity="1" /><path clip-path="url(#clip840)" d="M103.191 1119.63 L119.51 1119.63 L119.51 1123.56 L97.566 1123.56 L97.566 1119.63 Q100.228 1116.87 104.811 1112.24 Q109.418 1107.59 110.598 1106.25 Q112.844 1103.73 113.723 1101.99 Q114.626 1100.23 114.626 1098.54 Q114.626 1095.79 112.682 1094.05 Q110.76 1092.31 107.658 1092.31 Q105.459 1092.31 103.006 1093.08 Q100.575 1093.84 97.7974 1095.39 L97.7974 1090.67 Q100.621 1089.54 103.075 1088.96 Q105.529 1088.38 107.566 1088.38 Q112.936 1088.38 116.131 1091.06 Q119.325 1093.75 119.325 1098.24 Q119.325 1100.37 118.515 1102.29 Q117.728 1104.19 115.621 1106.78 Q115.043 1107.45 111.941 1110.67 Q108.839 1113.87 103.191 1119.63 Z" fill="#000000" fill-rule="evenodd" fill-opacity="1" /><path clip-path="url(#clip840)" d="M129.371 1089 L147.728 1089 L147.728 1092.94 L133.654 1092.94 L133.654 1101.41 Q134.672 1101.06 135.691 1100.9 Q136.709 1100.72 137.728 1100.72 Q143.515 1100.72 146.894 1103.89 Q150.274 1107.06 150.274 1112.48 Q150.274 1118.06 146.802 1121.16 Q143.33 1124.24 137.01 1124.24 Q134.834 1124.24 132.566 1123.87 Q130.32 1123.49 127.913 1122.75 L127.913 1118.06 Q129.996 1119.19 132.219 1119.74 Q134.441 1120.3 136.918 1120.3 Q140.922 1120.3 143.26 1118.19 Q145.598 1116.09 145.598 1112.48 Q145.598 1108.87 143.26 1106.76 Q140.922 1104.65 136.918 1104.65 Q135.043 1104.65 133.168 1105.07 Q131.316 1105.49 129.371 1106.37 L129.371 1089 Z" fill="#000000" fill-rule="evenodd" fill-opacity="1" /><path clip-path="url(#clip840)" d="M62.9365 752.638 Q59.3254 752.638 57.4967 756.203 Q55.6912 759.745 55.6912 766.875 Q55.6912 773.981 57.4967 777.546 Q59.3254 781.087 62.9365 781.087 Q66.5707 781.087 68.3763 777.546 Q70.205 773.981 70.205 766.875 Q70.205 759.745 68.3763 756.203 Q66.5707 752.638 62.9365 752.638 M62.9365 748.935 Q68.7467 748.935 71.8022 753.541 Q74.8809 758.125 74.8809 766.875 Q74.8809 775.601 71.8022 780.208 Q68.7467 784.791 62.9365 784.791 Q57.1264 784.791 54.0477 780.208 Q50.9921 775.601 50.9921 766.875 Q50.9921 758.125 54.0477 753.541 Q57.1264 748.935 62.9365 748.935 Z" fill="#000000" fill-rule="evenodd" fill-opacity="1" /><path clip-path="url(#clip840)" d="M83.0984 778.24 L87.9827 778.24 L87.9827 784.12 L83.0984 784.12 L83.0984 778.24 Z" fill="#000000" fill-rule="evenodd" fill-opacity="1" /><path clip-path="url(#clip840)" d="M98.2141 749.56 L116.57 749.56 L116.57 753.495 L102.496 753.495 L102.496 761.967 Q103.515 761.62 104.534 761.458 Q105.552 761.273 106.571 761.273 Q112.358 761.273 115.737 764.444 Q119.117 767.615 119.117 773.032 Q119.117 778.611 115.645 781.712 Q112.172 784.791 105.853 784.791 Q103.677 784.791 101.409 784.421 Q99.1632 784.05 96.7558 783.31 L96.7558 778.611 Q98.8391 779.745 101.061 780.3 Q103.284 780.856 105.76 780.856 Q109.765 780.856 112.103 778.749 Q114.441 776.643 114.441 773.032 Q114.441 769.421 112.103 767.314 Q109.765 765.208 105.76 765.208 Q103.885 765.208 102.01 765.625 Q100.159 766.041 98.2141 766.921 L98.2141 749.56 Z" fill="#000000" fill-rule="evenodd" fill-opacity="1" /><path clip-path="url(#clip840)" d="M138.33 752.638 Q134.719 752.638 132.89 756.203 Q131.084 759.745 131.084 766.875 Q131.084 773.981 132.89 777.546 Q134.719 781.087 138.33 781.087 Q141.964 781.087 143.769 777.546 Q145.598 773.981 145.598 766.875 Q145.598 759.745 143.769 756.203 Q141.964 752.638 138.33 752.638 M138.33 748.935 Q144.14 748.935 147.195 753.541 Q150.274 758.125 150.274 766.875 Q150.274 775.601 147.195 780.208 Q144.14 784.791 138.33 784.791 Q132.519 784.791 129.441 780.208 Q126.385 775.601 126.385 766.875 Q126.385 758.125 129.441 753.541 Q132.519 748.935 138.33 748.935 Z" fill="#000000" fill-rule="evenodd" fill-opacity="1" /><path clip-path="url(#clip840)" d="M63.9319 413.194 Q60.3208 413.194 58.4921 416.759 Q56.6865 420.3 56.6865 427.43 Q56.6865 434.536 58.4921 438.101 Q60.3208 441.643 63.9319 441.643 Q67.5661 441.643 69.3717 438.101 Q71.2004 434.536 71.2004 427.43 Q71.2004 420.3 69.3717 416.759 Q67.5661 413.194 63.9319 413.194 M63.9319 409.49 Q69.742 409.49 72.7976 414.097 Q75.8763 418.68 75.8763 427.43 Q75.8763 436.157 72.7976 440.763 Q69.742 445.346 63.9319 445.346 Q58.1217 445.346 55.043 440.763 Q51.9875 436.157 51.9875 427.43 Q51.9875 418.68 55.043 414.097 Q58.1217 409.49 63.9319 409.49 Z" fill="#000000" fill-rule="evenodd" fill-opacity="1" /><path clip-path="url(#clip840)" d="M84.0938 438.796 L88.978 438.796 L88.978 444.675 L84.0938 444.675 L84.0938 438.796 Z" fill="#000000" fill-rule="evenodd" fill-opacity="1" /><path clip-path="url(#clip840)" d="M97.9826 410.115 L120.205 410.115 L120.205 412.106 L107.658 444.675 L102.774 444.675 L114.58 414.05 L97.9826 414.05 L97.9826 410.115 Z" fill="#000000" fill-rule="evenodd" fill-opacity="1" /><path clip-path="url(#clip840)" d="M129.371 410.115 L147.728 410.115 L147.728 414.05 L133.654 414.05 L133.654 422.523 Q134.672 422.175 135.691 422.013 Q136.709 421.828 137.728 421.828 Q143.515 421.828 146.894 424.999 Q150.274 428.171 150.274 433.587 Q150.274 439.166 146.802 442.268 Q143.33 445.346 137.01 445.346 Q134.834 445.346 132.566 444.976 Q130.32 444.606 127.913 443.865 L127.913 439.166 Q129.996 440.3 132.219 440.856 Q134.441 441.411 136.918 441.411 Q140.922 441.411 143.26 439.305 Q145.598 437.198 145.598 433.587 Q145.598 429.976 143.26 427.87 Q140.922 425.763 136.918 425.763 Q135.043 425.763 133.168 426.18 Q131.316 426.597 129.371 427.476 L129.371 410.115 Z" fill="#000000" fill-rule="evenodd" fill-opacity="1" /><path clip-path="url(#clip840)" d="M53.7467 101.295 L61.3856 101.295 L61.3856 74.9298 L53.0754 76.5965 L53.0754 72.3372 L61.3393 70.6706 L66.0152 70.6706 L66.0152 101.295 L73.654 101.295 L73.654 105.231 L53.7467 105.231 L53.7467 101.295 Z" fill="#000000" fill-rule="evenodd" fill-opacity="1" /><path clip-path="url(#clip840)" d="M83.0984 99.351 L87.9827 99.351 L87.9827 105.231 L83.0984 105.231 L83.0984 99.351 Z" fill="#000000" fill-rule="evenodd" fill-opacity="1" /><path clip-path="url(#clip840)" d="M108.168 73.7493 Q104.557 73.7493 102.728 77.3141 Q100.922 80.8557 100.922 87.9853 Q100.922 95.0917 102.728 98.6565 Q104.557 102.198 108.168 102.198 Q111.802 102.198 113.608 98.6565 Q115.436 95.0917 115.436 87.9853 Q115.436 80.8557 113.608 77.3141 Q111.802 73.7493 108.168 73.7493 M108.168 70.0456 Q113.978 70.0456 117.033 74.652 Q120.112 79.2353 120.112 87.9853 Q120.112 96.7121 117.033 101.319 Q113.978 105.902 108.168 105.902 Q102.358 105.902 99.2789 101.319 Q96.2234 96.7121 96.2234 87.9853 Q96.2234 79.2353 99.2789 74.652 Q102.358 70.0456 108.168 70.0456 Z" fill="#000000" fill-rule="evenodd" fill-opacity="1" /><path clip-path="url(#clip840)" d="M138.33 73.7493 Q134.719 73.7493 132.89 77.3141 Q131.084 80.8557 131.084 87.9853 Q131.084 95.0917 132.89 98.6565 Q134.719 102.198 138.33 102.198 Q141.964 102.198 143.769 98.6565 Q145.598 95.0917 145.598 87.9853 Q145.598 80.8557 143.769 77.3141 Q141.964 73.7493 138.33 73.7493 M138.33 70.0456 Q144.14 70.0456 147.195 74.652 Q150.274 79.2353 150.274 87.9853 Q150.274 96.7121 147.195 101.319 Q144.14 105.902 138.33 105.902 Q132.519 105.902 129.441 101.319 Q126.385 96.7121 126.385 87.9853 Q126.385 79.2353 129.441 74.652 Q132.519 70.0456 138.33 70.0456 Z" fill="#000000" fill-rule="evenodd" fill-opacity="1" /><polyline clip-path="url(#clip842)" style="stroke:#009af9; stroke-linecap:butt; stroke-linejoin:round; stroke-width:4; stroke-opacity:1; fill:none" points="
  213.528,303.198 220.796,235.769 228.063,180.882 235.331,139.071 242.599,110.223 249.867,93.6144 257.134,87.9763 264.402,91.6086 271.67,102.507 278.938,118.5 
  286.205,137.386 293.473,157.053 300.741,175.584 308.009,191.338 315.276,203.014 322.544,209.693 329.812,210.864 337.08,206.438 344.347,196.751 351.615,182.557 
  358.883,165 366.15,145.587 373.418,126.128 380.686,108.667 387.954,95.3811 395.221,88.4705 402.489,90.0258 409.757,101.89 417.025,125.526 424.292,161.895 
  431.56,211.372 438.828,273.69 446.096,347.943 453.363,432.628 460.631,525.734 467.899,624.867 475.166,727.398 482.434,830.611 489.702,931.851 496.97,1028.64 
  504.237,1118.77 511.505,1200.35 518.773,1271.84 526.041,1332.03 533.308,1380.04 540.576,1415.22 547.844,1437.16 555.112,1445.62 562.379,1440.52 569.647,1421.9 
  576.915,1389.97 584.183,1345.09 591.45,1287.84 598.718,1219.05 605.986,1139.84 613.253,1051.67 620.521,956.339 627.789,855.98 635.057,753.013 642.324,650.06 
  649.592,549.834 656.86,455 664.128,368.025 671.395,291.025 678.663,225.641 685.931,172.932 693.199,133.326 700.466,106.603 707.734,91.9407 715.002,87.9902 
  722.27,92.9908 729.537,104.9 736.805,121.533 744.073,140.694 751.34,160.297 758.608,178.467 765.876,193.616 773.144,204.506 780.411,210.283 787.679,210.507 
  794.947,205.162 802.215,194.653 809.482,179.803 816.75,161.82 824.018,142.265 831.286,122.994 838.553,106.081 845.821,93.7142 853.089,88.0859 860.356,91.2545 
  867.624,105.008 874.892,130.733 882.16,169.297 889.427,220.969 896.695,285.375 903.963,361.502 911.231,447.756 918.498,542.051 925.766,641.943 933.034,744.779 
  940.302,847.843 947.569,948.501 954.837,1044.32 962.105,1133.13 969.373,1213.11 976.64,1282.78 983.908,1340.98 991.176,1386.87 998.443,1419.85 1005.71,1439.53 
  1012.98,1445.72 1020.25,1438.33 1027.51,1417.46 1034.78,1383.32 1042.05,1336.31 1049.32,1277.06 1056.59,1206.43 1063.85,1125.6 1071.12,1036.09 1078.39,939.753 
  1085.66,838.78 1092.92,735.628 1100.19,632.943 1107.46,533.441 1114.73,439.763 1121.99,354.328 
  "/>
<path clip-path="url(#clip840)" d="
M957.722 198.898 L1117.15 198.898 L1117.15 95.2176 L957.722 95.2176  Z
  " fill="#ffffff" fill-rule="evenodd" fill-opacity="1"/>
<polyline clip-path="url(#clip840)" style="stroke:#000000; stroke-linecap:butt; stroke-linejoin:round; stroke-width:4; stroke-opacity:1; fill:none" points="
  957.722,198.898 1117.15,198.898 1117.15,95.2176 957.722,95.2176 957.722,198.898 
  "/>
<polyline clip-path="url(#clip840)" style="stroke:#009af9; stroke-linecap:butt; stroke-linejoin:round; stroke-width:4; stroke-opacity:1; fill:none" points="
  968.422,147.058 1032.62,147.058 
  "/>
<path clip-path="url(#clip840)" d="M1057.16 166.745 Q1055.36 171.375 1053.64 172.787 Q1051.93 174.199 1049.06 174.199 L1045.66 174.199 L1045.66 170.634 L1048.16 170.634 Q1049.92 170.634 1050.89 169.8 Q1051.86 168.967 1053.04 165.865 L1053.81 163.921 L1043.32 138.412 L1047.83 138.412 L1055.94 158.689 L1064.04 138.412 L1068.55 138.412 L1057.16 166.745 Z" fill="#000000" fill-rule="evenodd" fill-opacity="1" /><path clip-path="url(#clip840)" d="M1075.84 160.402 L1083.48 160.402 L1083.48 134.037 L1075.17 135.703 L1075.17 131.444 L1083.44 129.778 L1088.11 129.778 L1088.11 160.402 L1095.75 160.402 L1095.75 164.338 L1075.84 164.338 L1075.84 160.402 Z" fill="#000000" fill-rule="evenodd" fill-opacity="1" /><path clip-path="url(#clip840)" d="
M1389.78 1486.45 L2352.76 1486.45 L2352.76 47.2441 L1389.78 47.2441  Z
  " fill="#ffffff" fill-rule="evenodd" fill-opacity="1"/>
<defs>
  <clipPath id="clip843">
    <rect x="1389" y="47" width="964" height="1440"/>
  </clipPath>
</defs>
<polyline clip-path="url(#clip843)" style="stroke:#000000; stroke-linecap:butt; stroke-linejoin:round; stroke-width:2; stroke-opacity:0.1; fill:none" points="
  1417.03,1486.45 1417.03,47.2441 
  "/>
<polyline clip-path="url(#clip843)" style="stroke:#000000; stroke-linecap:butt; stroke-linejoin:round; stroke-width:2; stroke-opacity:0.1; fill:none" points="
  1562.39,1486.45 1562.39,47.2441 
  "/>
<polyline clip-path="url(#clip843)" style="stroke:#000000; stroke-linecap:butt; stroke-linejoin:round; stroke-width:2; stroke-opacity:0.1; fill:none" points="
  1707.74,1486.45 1707.74,47.2441 
  "/>
<polyline clip-path="url(#clip843)" style="stroke:#000000; stroke-linecap:butt; stroke-linejoin:round; stroke-width:2; stroke-opacity:0.1; fill:none" points="
  1853.1,1486.45 1853.1,47.2441 
  "/>
<polyline clip-path="url(#clip843)" style="stroke:#000000; stroke-linecap:butt; stroke-linejoin:round; stroke-width:2; stroke-opacity:0.1; fill:none" points="
  1998.45,1486.45 1998.45,47.2441 
  "/>
<polyline clip-path="url(#clip843)" style="stroke:#000000; stroke-linecap:butt; stroke-linejoin:round; stroke-width:2; stroke-opacity:0.1; fill:none" points="
  2143.81,1486.45 2143.81,47.2441 
  "/>
<polyline clip-path="url(#clip843)" style="stroke:#000000; stroke-linecap:butt; stroke-linejoin:round; stroke-width:2; stroke-opacity:0.1; fill:none" points="
  2289.16,1486.45 2289.16,47.2441 
  "/>
<polyline clip-path="url(#clip840)" style="stroke:#000000; stroke-linecap:butt; stroke-linejoin:round; stroke-width:4; stroke-opacity:1; fill:none" points="
  1389.78,1486.45 2352.76,1486.45 
  "/>
<polyline clip-path="url(#clip840)" style="stroke:#000000; stroke-linecap:butt; stroke-linejoin:round; stroke-width:4; stroke-opacity:1; fill:none" points="
  1417.03,1486.45 1417.03,1467.55 
  "/>
<polyline clip-path="url(#clip840)" style="stroke:#000000; stroke-linecap:butt; stroke-linejoin:round; stroke-width:4; stroke-opacity:1; fill:none" points="
  1562.39,1486.45 1562.39,1467.55 
  "/>
<polyline clip-path="url(#clip840)" style="stroke:#000000; stroke-linecap:butt; stroke-linejoin:round; stroke-width:4; stroke-opacity:1; fill:none" points="
  1707.74,1486.45 1707.74,1467.55 
  "/>
<polyline clip-path="url(#clip840)" style="stroke:#000000; stroke-linecap:butt; stroke-linejoin:round; stroke-width:4; stroke-opacity:1; fill:none" points="
  1853.1,1486.45 1853.1,1467.55 
  "/>
<polyline clip-path="url(#clip840)" style="stroke:#000000; stroke-linecap:butt; stroke-linejoin:round; stroke-width:4; stroke-opacity:1; fill:none" points="
  1998.45,1486.45 1998.45,1467.55 
  "/>
<polyline clip-path="url(#clip840)" style="stroke:#000000; stroke-linecap:butt; stroke-linejoin:round; stroke-width:4; stroke-opacity:1; fill:none" points="
  2143.81,1486.45 2143.81,1467.55 
  "/>
<polyline clip-path="url(#clip840)" style="stroke:#000000; stroke-linecap:butt; stroke-linejoin:round; stroke-width:4; stroke-opacity:1; fill:none" points="
  2289.16,1486.45 2289.16,1467.55 
  "/>
<path clip-path="url(#clip840)" d="M1417.03 1517.37 Q1413.42 1517.37 1411.6 1520.93 Q1409.79 1524.47 1409.79 1531.6 Q1409.79 1538.71 1411.6 1542.27 Q1413.42 1545.82 1417.03 1545.82 Q1420.67 1545.82 1422.47 1542.27 Q1424.3 1538.71 1424.3 1531.6 Q1424.3 1524.47 1422.47 1520.93 Q1420.67 1517.37 1417.03 1517.37 M1417.03 1513.66 Q1422.85 1513.66 1425.9 1518.27 Q1428.98 1522.85 1428.98 1531.6 Q1428.98 1540.33 1425.9 1544.94 Q1422.85 1549.52 1417.03 1549.52 Q1411.22 1549.52 1408.15 1544.94 Q1405.09 1540.33 1405.09 1531.6 Q1405.09 1522.85 1408.15 1518.27 Q1411.22 1513.66 1417.03 1513.66 Z" fill="#000000" fill-rule="evenodd" fill-opacity="1" /><path clip-path="url(#clip840)" d="M1557.04 1544.91 L1573.36 1544.91 L1573.36 1548.85 L1551.42 1548.85 L1551.42 1544.91 Q1554.08 1542.16 1558.66 1537.53 Q1563.27 1532.88 1564.45 1531.53 Q1566.7 1529.01 1567.57 1527.27 Q1568.48 1525.51 1568.48 1523.82 Q1568.48 1521.07 1566.53 1519.33 Q1564.61 1517.6 1561.51 1517.6 Q1559.31 1517.6 1556.86 1518.36 Q1554.43 1519.13 1551.65 1520.68 L1551.65 1515.95 Q1554.47 1514.82 1556.93 1514.24 Q1559.38 1513.66 1561.42 1513.66 Q1566.79 1513.66 1569.98 1516.35 Q1573.18 1519.03 1573.18 1523.52 Q1573.18 1525.65 1572.37 1527.57 Q1571.58 1529.47 1569.47 1532.07 Q1568.89 1532.74 1565.79 1535.95 Q1562.69 1539.15 1557.04 1544.91 Z" fill="#000000" fill-rule="evenodd" fill-opacity="1" /><path clip-path="url(#clip840)" d="M1710.75 1518.36 L1698.95 1536.81 L1710.75 1536.81 L1710.75 1518.36 M1709.53 1514.29 L1715.41 1514.29 L1715.41 1536.81 L1720.34 1536.81 L1720.34 1540.7 L1715.41 1540.7 L1715.41 1548.85 L1710.75 1548.85 L1710.75 1540.7 L1695.15 1540.7 L1695.15 1536.19 L1709.53 1514.29 Z" fill="#000000" fill-rule="evenodd" fill-opacity="1" /><path clip-path="url(#clip840)" d="M1853.5 1529.7 Q1850.36 1529.7 1848.5 1531.86 Q1846.68 1534.01 1846.68 1537.76 Q1846.68 1541.49 1848.5 1543.66 Q1850.36 1545.82 1853.5 1545.82 Q1856.65 1545.82 1858.48 1543.66 Q1860.33 1541.49 1860.33 1537.76 Q1860.33 1534.01 1858.48 1531.86 Q1856.65 1529.7 1853.5 1529.7 M1862.79 1515.05 L1862.79 1519.31 Q1861.03 1518.48 1859.22 1518.04 Q1857.44 1517.6 1855.68 1517.6 Q1851.05 1517.6 1848.6 1520.72 Q1846.17 1523.85 1845.82 1530.17 Q1847.18 1528.15 1849.24 1527.09 Q1851.31 1526 1853.78 1526 Q1858.99 1526 1862 1529.17 Q1865.03 1532.32 1865.03 1537.76 Q1865.03 1543.08 1861.88 1546.3 Q1858.74 1549.52 1853.5 1549.52 Q1847.51 1549.52 1844.34 1544.94 Q1841.17 1540.33 1841.17 1531.6 Q1841.17 1523.41 1845.06 1518.55 Q1848.94 1513.66 1855.49 1513.66 Q1857.25 1513.66 1859.04 1514.01 Q1860.84 1514.36 1862.79 1515.05 Z" fill="#000000" fill-rule="evenodd" fill-opacity="1" /><path clip-path="url(#clip840)" d="M1998.45 1532.44 Q1995.12 1532.44 1993.2 1534.22 Q1991.3 1536 1991.3 1539.13 Q1991.3 1542.25 1993.2 1544.03 Q1995.12 1545.82 1998.45 1545.82 Q2001.79 1545.82 2003.71 1544.03 Q2005.63 1542.23 2005.63 1539.13 Q2005.63 1536 2003.71 1534.22 Q2001.81 1532.44 1998.45 1532.44 M1993.78 1530.45 Q1990.77 1529.7 1989.08 1527.64 Q1987.41 1525.58 1987.41 1522.62 Q1987.41 1518.48 1990.35 1516.07 Q1993.31 1513.66 1998.45 1513.66 Q2003.62 1513.66 2006.56 1516.07 Q2009.5 1518.48 2009.5 1522.62 Q2009.5 1525.58 2007.81 1527.64 Q2006.14 1529.7 2003.15 1530.45 Q2006.53 1531.23 2008.41 1533.52 Q2010.31 1535.82 2010.31 1539.13 Q2010.31 1544.15 2007.23 1546.83 Q2004.17 1549.52 1998.45 1549.52 Q1992.74 1549.52 1989.66 1546.83 Q1986.6 1544.15 1986.6 1539.13 Q1986.6 1535.82 1988.5 1533.52 Q1990.4 1531.23 1993.78 1530.45 M1992.06 1523.06 Q1992.06 1525.75 1993.73 1527.25 Q1995.42 1528.76 1998.45 1528.76 Q2001.46 1528.76 2003.15 1527.25 Q2004.87 1525.75 2004.87 1523.06 Q2004.87 1520.38 2003.15 1518.87 Q2001.46 1517.37 1998.45 1517.37 Q1995.42 1517.37 1993.73 1518.87 Q1992.06 1520.38 1992.06 1523.06 Z" fill="#000000" fill-rule="evenodd" fill-opacity="1" /><path clip-path="url(#clip840)" d="M2118.5 1544.91 L2126.13 1544.91 L2126.13 1518.55 L2117.82 1520.21 L2117.82 1515.95 L2126.09 1514.29 L2130.76 1514.29 L2130.76 1544.91 L2138.4 1544.91 L2138.4 1548.85 L2118.5 1548.85 L2118.5 1544.91 Z" fill="#000000" fill-rule="evenodd" fill-opacity="1" /><path clip-path="url(#clip840)" d="M2157.85 1517.37 Q2154.24 1517.37 2152.41 1520.93 Q2150.6 1524.47 2150.6 1531.6 Q2150.6 1538.71 2152.41 1542.27 Q2154.24 1545.82 2157.85 1545.82 Q2161.48 1545.82 2163.29 1542.27 Q2165.12 1538.71 2165.12 1531.6 Q2165.12 1524.47 2163.29 1520.93 Q2161.48 1517.37 2157.85 1517.37 M2157.85 1513.66 Q2163.66 1513.66 2166.71 1518.27 Q2169.79 1522.85 2169.79 1531.6 Q2169.79 1540.33 2166.71 1544.94 Q2163.66 1549.52 2157.85 1549.52 Q2152.04 1549.52 2148.96 1544.94 Q2145.9 1540.33 2145.9 1531.6 Q2145.9 1522.85 2148.96 1518.27 Q2152.04 1513.66 2157.85 1513.66 Z" fill="#000000" fill-rule="evenodd" fill-opacity="1" /><path clip-path="url(#clip840)" d="M2264.65 1544.91 L2272.29 1544.91 L2272.29 1518.55 L2263.98 1520.21 L2263.98 1515.95 L2272.24 1514.29 L2276.92 1514.29 L2276.92 1544.91 L2284.56 1544.91 L2284.56 1548.85 L2264.65 1548.85 L2264.65 1544.91 Z" fill="#000000" fill-rule="evenodd" fill-opacity="1" /><path clip-path="url(#clip840)" d="M2298.03 1544.91 L2314.35 1544.91 L2314.35 1548.85 L2292.4 1548.85 L2292.4 1544.91 Q2295.07 1542.16 2299.65 1537.53 Q2304.26 1532.88 2305.44 1531.53 Q2307.68 1529.01 2308.56 1527.27 Q2309.46 1525.51 2309.46 1523.82 Q2309.46 1521.07 2307.52 1519.33 Q2305.6 1517.6 2302.5 1517.6 Q2300.3 1517.6 2297.84 1518.36 Q2295.41 1519.13 2292.64 1520.68 L2292.64 1515.95 Q2295.46 1514.82 2297.91 1514.24 Q2300.37 1513.66 2302.4 1513.66 Q2307.77 1513.66 2310.97 1516.35 Q2314.16 1519.03 2314.16 1523.52 Q2314.16 1525.65 2313.35 1527.57 Q2312.57 1529.47 2310.46 1532.07 Q2309.88 1532.74 2306.78 1535.95 Q2303.68 1539.15 2298.03 1544.91 Z" fill="#000000" fill-rule="evenodd" fill-opacity="1" /><polyline clip-path="url(#clip843)" style="stroke:#000000; stroke-linecap:butt; stroke-linejoin:round; stroke-width:2; stroke-opacity:0.1; fill:none" points="
  1389.78,1334.36 2352.76,1334.36 
  "/>
<polyline clip-path="url(#clip843)" style="stroke:#000000; stroke-linecap:butt; stroke-linejoin:round; stroke-width:2; stroke-opacity:0.1; fill:none" points="
  1389.78,1046.73 2352.76,1046.73 
  "/>
<polyline clip-path="url(#clip843)" style="stroke:#000000; stroke-linecap:butt; stroke-linejoin:round; stroke-width:2; stroke-opacity:0.1; fill:none" points="
  1389.78,759.106 2352.76,759.106 
  "/>
<polyline clip-path="url(#clip843)" style="stroke:#000000; stroke-linecap:butt; stroke-linejoin:round; stroke-width:2; stroke-opacity:0.1; fill:none" points="
  1389.78,471.479 2352.76,471.479 
  "/>
<polyline clip-path="url(#clip843)" style="stroke:#000000; stroke-linecap:butt; stroke-linejoin:round; stroke-width:2; stroke-opacity:0.1; fill:none" points="
  1389.78,183.852 2352.76,183.852 
  "/>
<polyline clip-path="url(#clip840)" style="stroke:#000000; stroke-linecap:butt; stroke-linejoin:round; stroke-width:4; stroke-opacity:1; fill:none" points="
  1389.78,1486.45 1389.78,47.2441 
  "/>
<polyline clip-path="url(#clip840)" style="stroke:#000000; stroke-linecap:butt; stroke-linejoin:round; stroke-width:4; stroke-opacity:1; fill:none" points="
  1389.78,1334.36 1408.68,1334.36 
  "/>
<polyline clip-path="url(#clip840)" style="stroke:#000000; stroke-linecap:butt; stroke-linejoin:round; stroke-width:4; stroke-opacity:1; fill:none" points="
  1389.78,1046.73 1408.68,1046.73 
  "/>
<polyline clip-path="url(#clip840)" style="stroke:#000000; stroke-linecap:butt; stroke-linejoin:round; stroke-width:4; stroke-opacity:1; fill:none" points="
  1389.78,759.106 1408.68,759.106 
  "/>
<polyline clip-path="url(#clip840)" style="stroke:#000000; stroke-linecap:butt; stroke-linejoin:round; stroke-width:4; stroke-opacity:1; fill:none" points="
  1389.78,471.479 1408.68,471.479 
  "/>
<polyline clip-path="url(#clip840)" style="stroke:#000000; stroke-linecap:butt; stroke-linejoin:round; stroke-width:4; stroke-opacity:1; fill:none" points="
  1389.78,183.852 1408.68,183.852 
  "/>
<path clip-path="url(#clip840)" d="M1247.49 1334.81 L1277.16 1334.81 L1277.16 1338.75 L1247.49 1338.75 L1247.49 1334.81 Z" fill="#000000" fill-rule="evenodd" fill-opacity="1" /><path clip-path="url(#clip840)" d="M1297.25 1320.16 Q1293.64 1320.16 1291.81 1323.72 Q1290.01 1327.26 1290.01 1334.39 Q1290.01 1341.5 1291.81 1345.07 Q1293.64 1348.61 1297.25 1348.61 Q1300.89 1348.61 1302.69 1345.07 Q1304.52 1341.5 1304.52 1334.39 Q1304.52 1327.26 1302.69 1323.72 Q1300.89 1320.16 1297.25 1320.16 M1297.25 1316.45 Q1303.06 1316.45 1306.12 1321.06 Q1309.2 1325.64 1309.2 1334.39 Q1309.2 1343.12 1306.12 1347.73 Q1303.06 1352.31 1297.25 1352.31 Q1291.44 1352.31 1288.36 1347.73 Q1285.31 1343.12 1285.31 1334.39 Q1285.31 1325.64 1288.36 1321.06 Q1291.44 1316.45 1297.25 1316.45 Z" fill="#000000" fill-rule="evenodd" fill-opacity="1" /><path clip-path="url(#clip840)" d="M1317.42 1345.76 L1322.3 1345.76 L1322.3 1351.64 L1317.42 1351.64 L1317.42 1345.76 Z" fill="#000000" fill-rule="evenodd" fill-opacity="1" /><path clip-path="url(#clip840)" d="M1346.65 1333.01 Q1350.01 1333.72 1351.88 1335.99 Q1353.78 1338.26 1353.78 1341.59 Q1353.78 1346.71 1350.26 1349.51 Q1346.74 1352.31 1340.26 1352.31 Q1338.09 1352.31 1335.77 1351.87 Q1333.48 1351.45 1331.03 1350.6 L1331.03 1346.08 Q1332.97 1347.22 1335.29 1347.8 Q1337.6 1348.38 1340.12 1348.38 Q1344.52 1348.38 1346.81 1346.64 Q1349.13 1344.9 1349.13 1341.59 Q1349.13 1338.54 1346.98 1336.82 Q1344.85 1335.09 1341.03 1335.09 L1337 1335.09 L1337 1331.25 L1341.21 1331.25 Q1344.66 1331.25 1346.49 1329.88 Q1348.32 1328.49 1348.32 1325.9 Q1348.32 1323.24 1346.42 1321.82 Q1344.54 1320.39 1341.03 1320.39 Q1339.11 1320.39 1336.91 1320.81 Q1334.71 1321.22 1332.07 1322.1 L1332.07 1317.94 Q1334.73 1317.19 1337.04 1316.82 Q1339.38 1316.45 1341.44 1316.45 Q1346.77 1316.45 1349.87 1318.88 Q1352.97 1321.29 1352.97 1325.41 Q1352.97 1328.28 1351.33 1330.27 Q1349.68 1332.24 1346.65 1333.01 Z" fill="#000000" fill-rule="evenodd" fill-opacity="1" /><path clip-path="url(#clip840)" d="M1296.61 1032.53 Q1292.99 1032.53 1291.17 1036.1 Q1289.36 1039.64 1289.36 1046.77 Q1289.36 1053.87 1291.17 1057.44 Q1292.99 1060.98 1296.61 1060.98 Q1300.24 1060.98 1302.05 1057.44 Q1303.87 1053.87 1303.87 1046.77 Q1303.87 1039.64 1302.05 1036.1 Q1300.24 1032.53 1296.61 1032.53 M1296.61 1028.83 Q1302.42 1028.83 1305.47 1033.43 Q1308.55 1038.02 1308.55 1046.77 Q1308.55 1055.49 1305.47 1060.1 Q1302.42 1064.68 1296.61 1064.68 Q1290.8 1064.68 1287.72 1060.1 Q1284.66 1055.49 1284.66 1046.77 Q1284.66 1038.02 1287.72 1033.43 Q1290.8 1028.83 1296.61 1028.83 Z" fill="#000000" fill-rule="evenodd" fill-opacity="1" /><path clip-path="url(#clip840)" d="M1316.77 1058.13 L1321.65 1058.13 L1321.65 1064.01 L1316.77 1064.01 L1316.77 1058.13 Z" fill="#000000" fill-rule="evenodd" fill-opacity="1" /><path clip-path="url(#clip840)" d="M1341.84 1032.53 Q1338.23 1032.53 1336.4 1036.1 Q1334.59 1039.64 1334.59 1046.77 Q1334.59 1053.87 1336.4 1057.44 Q1338.23 1060.98 1341.84 1060.98 Q1345.47 1060.98 1347.28 1057.44 Q1349.11 1053.87 1349.11 1046.77 Q1349.11 1039.64 1347.28 1036.1 Q1345.47 1032.53 1341.84 1032.53 M1341.84 1028.83 Q1347.65 1028.83 1350.7 1033.43 Q1353.78 1038.02 1353.78 1046.77 Q1353.78 1055.49 1350.7 1060.1 Q1347.65 1064.68 1341.84 1064.68 Q1336.03 1064.68 1332.95 1060.1 Q1329.89 1055.49 1329.89 1046.77 Q1329.89 1038.02 1332.95 1033.43 Q1336.03 1028.83 1341.84 1028.83 Z" fill="#000000" fill-rule="evenodd" fill-opacity="1" /><path clip-path="url(#clip840)" d="M1297.25 744.904 Q1293.64 744.904 1291.81 748.469 Q1290.01 752.011 1290.01 759.14 Q1290.01 766.247 1291.81 769.811 Q1293.64 773.353 1297.25 773.353 Q1300.89 773.353 1302.69 769.811 Q1304.52 766.247 1304.52 759.14 Q1304.52 752.011 1302.69 748.469 Q1300.89 744.904 1297.25 744.904 M1297.25 741.201 Q1303.06 741.201 1306.12 745.807 Q1309.2 750.39 1309.2 759.14 Q1309.2 767.867 1306.12 772.474 Q1303.06 777.057 1297.25 777.057 Q1291.44 777.057 1288.36 772.474 Q1285.31 767.867 1285.31 759.14 Q1285.31 750.39 1288.36 745.807 Q1291.44 741.201 1297.25 741.201 Z" fill="#000000" fill-rule="evenodd" fill-opacity="1" /><path clip-path="url(#clip840)" d="M1317.42 770.506 L1322.3 770.506 L1322.3 776.386 L1317.42 776.386 L1317.42 770.506 Z" fill="#000000" fill-rule="evenodd" fill-opacity="1" /><path clip-path="url(#clip840)" d="M1346.65 757.751 Q1350.01 758.469 1351.88 760.737 Q1353.78 763.006 1353.78 766.339 Q1353.78 771.455 1350.26 774.256 Q1346.74 777.057 1340.26 777.057 Q1338.09 777.057 1335.77 776.617 Q1333.48 776.2 1331.03 775.344 L1331.03 770.83 Q1332.97 771.964 1335.29 772.543 Q1337.6 773.122 1340.12 773.122 Q1344.52 773.122 1346.81 771.386 Q1349.13 769.649 1349.13 766.339 Q1349.13 763.284 1346.98 761.571 Q1344.85 759.835 1341.03 759.835 L1337 759.835 L1337 755.992 L1341.21 755.992 Q1344.66 755.992 1346.49 754.626 Q1348.32 753.237 1348.32 750.645 Q1348.32 747.983 1346.42 746.571 Q1344.54 745.136 1341.03 745.136 Q1339.11 745.136 1336.91 745.552 Q1334.71 745.969 1332.07 746.849 L1332.07 742.682 Q1334.73 741.941 1337.04 741.571 Q1339.38 741.201 1341.44 741.201 Q1346.77 741.201 1349.87 743.631 Q1352.97 746.038 1352.97 750.159 Q1352.97 753.029 1351.33 755.02 Q1349.68 756.987 1346.65 757.751 Z" fill="#000000" fill-rule="evenodd" fill-opacity="1" /><path clip-path="url(#clip840)" d="M1296.44 457.277 Q1292.83 457.277 1291 460.842 Q1289.2 464.384 1289.2 471.513 Q1289.2 478.62 1291 482.185 Q1292.83 485.726 1296.44 485.726 Q1300.08 485.726 1301.88 482.185 Q1303.71 478.62 1303.71 471.513 Q1303.71 464.384 1301.88 460.842 Q1300.08 457.277 1296.44 457.277 M1296.44 453.574 Q1302.25 453.574 1305.31 458.18 Q1308.39 462.763 1308.39 471.513 Q1308.39 480.24 1305.31 484.847 Q1302.25 489.43 1296.44 489.43 Q1290.63 489.43 1287.55 484.847 Q1284.5 480.24 1284.5 471.513 Q1284.5 462.763 1287.55 458.18 Q1290.63 453.574 1296.44 453.574 Z" fill="#000000" fill-rule="evenodd" fill-opacity="1" /><path clip-path="url(#clip840)" d="M1316.61 482.879 L1321.49 482.879 L1321.49 488.759 L1316.61 488.759 L1316.61 482.879 Z" fill="#000000" fill-rule="evenodd" fill-opacity="1" /><path clip-path="url(#clip840)" d="M1342.25 469.615 Q1339.11 469.615 1337.25 471.768 Q1335.42 473.921 1335.42 477.671 Q1335.42 481.398 1337.25 483.574 Q1339.11 485.726 1342.25 485.726 Q1345.4 485.726 1347.23 483.574 Q1349.08 481.398 1349.08 477.671 Q1349.08 473.921 1347.23 471.768 Q1345.4 469.615 1342.25 469.615 M1351.54 454.963 L1351.54 459.222 Q1349.78 458.388 1347.97 457.949 Q1346.19 457.509 1344.43 457.509 Q1339.8 457.509 1337.35 460.634 Q1334.92 463.759 1334.57 470.078 Q1335.93 468.064 1337.99 467 Q1340.05 465.912 1342.53 465.912 Q1347.74 465.912 1350.75 469.083 Q1353.78 472.231 1353.78 477.671 Q1353.78 482.995 1350.63 486.212 Q1347.48 489.43 1342.25 489.43 Q1336.26 489.43 1333.09 484.847 Q1329.92 480.24 1329.92 471.513 Q1329.92 463.319 1333.8 458.458 Q1337.69 453.574 1344.24 453.574 Q1346 453.574 1347.79 453.921 Q1349.59 454.268 1351.54 454.963 Z" fill="#000000" fill-rule="evenodd" fill-opacity="1" /><path clip-path="url(#clip840)" d="M1296.79 169.651 Q1293.18 169.651 1291.35 173.215 Q1289.55 176.757 1289.55 183.887 Q1289.55 190.993 1291.35 194.558 Q1293.18 198.099 1296.79 198.099 Q1300.42 198.099 1302.23 194.558 Q1304.06 190.993 1304.06 183.887 Q1304.06 176.757 1302.23 173.215 Q1300.42 169.651 1296.79 169.651 M1296.79 165.947 Q1302.6 165.947 1305.66 170.553 Q1308.73 175.137 1308.73 183.887 Q1308.73 192.613 1305.66 197.22 Q1302.6 201.803 1296.79 201.803 Q1290.98 201.803 1287.9 197.22 Q1284.85 192.613 1284.85 183.887 Q1284.85 175.137 1287.9 170.553 Q1290.98 165.947 1296.79 165.947 Z" fill="#000000" fill-rule="evenodd" fill-opacity="1" /><path clip-path="url(#clip840)" d="M1316.95 195.252 L1321.84 195.252 L1321.84 201.132 L1316.95 201.132 L1316.95 195.252 Z" fill="#000000" fill-rule="evenodd" fill-opacity="1" /><path clip-path="url(#clip840)" d="M1332.16 200.414 L1332.16 196.155 Q1333.92 196.988 1335.73 197.428 Q1337.53 197.868 1339.27 197.868 Q1343.9 197.868 1346.33 194.766 Q1348.78 191.641 1349.13 185.299 Q1347.79 187.289 1345.73 188.354 Q1343.67 189.419 1341.17 189.419 Q1335.98 189.419 1332.95 186.294 Q1329.94 183.146 1329.94 177.706 Q1329.94 172.382 1333.09 169.164 Q1336.23 165.947 1341.47 165.947 Q1347.46 165.947 1350.61 170.553 Q1353.78 175.137 1353.78 183.887 Q1353.78 192.058 1349.89 196.942 Q1346.03 201.803 1339.48 201.803 Q1337.72 201.803 1335.91 201.456 Q1334.11 201.109 1332.16 200.414 M1341.47 185.762 Q1344.61 185.762 1346.44 183.609 Q1348.29 181.456 1348.29 177.706 Q1348.29 173.979 1346.44 171.826 Q1344.61 169.651 1341.47 169.651 Q1338.32 169.651 1336.47 171.826 Q1334.64 173.979 1334.64 177.706 Q1334.64 181.456 1336.47 183.609 Q1338.32 185.762 1341.47 185.762 Z" fill="#000000" fill-rule="evenodd" fill-opacity="1" /><polyline clip-path="url(#clip843)" style="stroke:#009af9; stroke-linecap:butt; stroke-linejoin:round; stroke-width:4; stroke-opacity:1; fill:none" points="
  1417.03,1445.72 1424.3,1441.36 1431.57,1428.26 1438.84,1406.39 1446.11,1375.73 1453.37,1336.27 1460.64,1288.15 1467.91,1231.61 1475.18,1167.13 1482.44,1095.43 
  1489.71,1017.5 1496.98,934.623 1504.25,848.335 1511.52,760.382 1518.78,672.643 1526.05,587.03 1533.32,505.381 1540.59,429.348 1547.85,360.301 1555.12,299.251 
  1562.39,246.799 1569.66,203.127 1576.93,168.011 1584.19,140.872 1591.46,120.846 1598.73,106.87 1606,97.7775 1613.26,92.3842 1620.53,89.5761 1627.8,88.3805 
  1635.07,88.0242 1642.33,87.9766 1649.6,87.9776 1656.87,88.0514 1664.14,88.5046 1671.41,89.9112 1678.67,93.0813 1685.94,99.016 1693.21,108.846 1700.48,123.759 
  1707.74,144.911 1715.01,173.338 1722.28,209.861 1729.55,255.004 1736.82,308.926 1744.08,371.375 1751.35,441.677 1758.62,518.759 1765.89,601.197 1773.15,687.299 
  1780.42,775.208 1787.69,863.01 1794.96,948.842 1802.22,1030.99 1809.49,1107.95 1816.76,1178.5 1824.03,1241.69 1831.3,1296.84 1838.56,1343.52 1845.83,1381.5 
  1853.1,1410.69 1860.37,1431.07 1867.63,1442.7 1874.9,1445.59 1882.17,1439.77 1889.44,1425.2 1896.71,1401.85 1903.97,1369.71 1911.24,1328.78 1918.51,1279.22 
  1925.78,1221.31 1933.04,1155.56 1940.31,1082.73 1947.58,1003.87 1954.85,920.307 1962.12,833.612 1969.38,745.562 1976.65,658.047 1983.92,572.976 1991.19,492.162 
  1998.45,417.217 2005.72,349.455 2012.99,289.82 2020.26,238.843 2027.52,196.636 2034.79,162.91 2042.06,137.034 2049.33,118.104 2056.6,105.032 2063.86,96.6436 
  2071.13,91.7598 2078.4,89.2861 2085.67,88.2796 2092.93,88.0052 2100.2,87.9763 2107.47,87.9801 2114.74,88.0886 2122.01,88.6551 2129.27,90.2957 2136.54,93.8563 
  2143.81,100.364 2151.08,110.966 2158.34,126.849 2165.61,149.157 2172.88,178.895 2180.15,216.84 2187.41,263.459 2194.68,318.843 2201.95,382.671 2209.22,454.199 
  2216.49,532.29 2223.75,615.468 2231.02,702.006 2238.29,790.031 2245.56,877.629 2252.82,962.956 2260.09,1044.33 2267.36,1120.29 2274.63,1189.66 2281.9,1251.54 
  2289.16,1305.29 2296.43,1350.52 2303.7,1387.02 2310.97,1414.73 2318.23,1433.64 2325.5,1443.8 
  "/>
<path clip-path="url(#clip840)" d="
M2161.23 198.898 L2320.66 198.898 L2320.66 95.2176 L2161.23 95.2176  Z
  " fill="#ffffff" fill-rule="evenodd" fill-opacity="1"/>
<polyline clip-path="url(#clip840)" style="stroke:#000000; stroke-linecap:butt; stroke-linejoin:round; stroke-width:4; stroke-opacity:1; fill:none" points="
  2161.23,198.898 2320.66,198.898 2320.66,95.2176 2161.23,95.2176 2161.23,198.898 
  "/>
<polyline clip-path="url(#clip840)" style="stroke:#009af9; stroke-linecap:butt; stroke-linejoin:round; stroke-width:4; stroke-opacity:1; fill:none" points="
  2171.93,147.058 2236.13,147.058 
  "/>
<path clip-path="url(#clip840)" d="M2260.67 166.745 Q2258.86 171.375 2257.15 172.787 Q2255.44 174.199 2252.57 174.199 L2249.16 174.199 L2249.16 170.634 L2251.66 170.634 Q2253.42 170.634 2254.4 169.8 Q2255.37 168.967 2256.55 165.865 L2257.31 163.921 L2246.83 138.412 L2251.34 138.412 L2259.44 158.689 L2267.54 138.412 L2272.06 138.412 L2260.67 166.745 Z" fill="#000000" fill-rule="evenodd" fill-opacity="1" /><path clip-path="url(#clip840)" d="M2279.35 160.402 L2286.99 160.402 L2286.99 134.037 L2278.68 135.703 L2278.68 131.444 L2286.94 129.778 L2291.62 129.778 L2291.62 160.402 L2299.26 160.402 L2299.26 164.338 L2279.35 164.338 L2279.35 160.402 Z" fill="#000000" fill-rule="evenodd" fill-opacity="1" /></svg>
