<?xml version="1.0" encoding="utf-8"?>
<svg xmlns="http://www.w3.org/2000/svg" xmlns:xlink="http://www.w3.org/1999/xlink" width="600" height="400" viewBox="0 0 2400 1600">
<defs>
  <clipPath id="clip760">
    <rect x="0" y="0" width="2400" height="1600"/>
  </clipPath>
</defs>
<path clip-path="url(#clip760)" d="
M0 1600 L2400 1600 L2400 0 L0 0  Z
  " fill="#ffffff" fill-rule="evenodd" fill-opacity="1"/>
<defs>
  <clipPath id="clip761">
    <rect x="480" y="0" width="1681" height="1600"/>
  </clipPath>
</defs>
<path clip-path="url(#clip760)" d="
M193.288 1486.45 L2352.76 1486.45 L2352.76 324.425 L193.288 324.425  Z
  " fill="#ffffff" fill-rule="evenodd" fill-opacity="1"/>
<defs>
  <clipPath id="clip762">
    <rect x="193" y="324" width="2160" height="1163"/>
  </clipPath>
</defs>
<polyline clip-path="url(#clip762)" style="stroke:#000000; stroke-linecap:butt; stroke-linejoin:round; stroke-width:2; stroke-opacity:0.1; fill:none" points="
  254.405,1486.45 254.405,324.425 
  "/>
<polyline clip-path="url(#clip762)" style="stroke:#000000; stroke-linecap:butt; stroke-linejoin:round; stroke-width:2; stroke-opacity:0.1; fill:none" points="
  578.641,1486.45 578.641,324.425 
  "/>
<polyline clip-path="url(#clip762)" style="stroke:#000000; stroke-linecap:butt; stroke-linejoin:round; stroke-width:2; stroke-opacity:0.1; fill:none" points="
  902.877,1486.45 902.877,324.425 
  "/>
<polyline clip-path="url(#clip762)" style="stroke:#000000; stroke-linecap:butt; stroke-linejoin:round; stroke-width:2; stroke-opacity:0.1; fill:none" points="
  1227.11,1486.45 1227.11,324.425 
  "/>
<polyline clip-path="url(#clip762)" style="stroke:#000000; stroke-linecap:butt; stroke-linejoin:round; stroke-width:2; stroke-opacity:0.1; fill:none" points="
  1551.35,1486.45 1551.35,324.425 
  "/>
<polyline clip-path="url(#clip762)" style="stroke:#000000; stroke-linecap:butt; stroke-linejoin:round; stroke-width:2; stroke-opacity:0.1; fill:none" points="
  1875.58,1486.45 1875.58,324.425 
  "/>
<polyline clip-path="url(#clip762)" style="stroke:#000000; stroke-linecap:butt; stroke-linejoin:round; stroke-width:2; stroke-opacity:0.1; fill:none" points="
  2199.82,1486.45 2199.82,324.425 
  "/>
<polyline clip-path="url(#clip760)" style="stroke:#000000; stroke-linecap:butt; stroke-linejoin:round; stroke-width:4; stroke-opacity:1; fill:none" points="
  193.288,1486.45 2352.76,1486.45 
  "/>
<polyline clip-path="url(#clip760)" style="stroke:#000000; stroke-linecap:butt; stroke-linejoin:round; stroke-width:4; stroke-opacity:1; fill:none" points="
  254.405,1486.45 254.405,1470.34 
  "/>
<polyline clip-path="url(#clip760)" style="stroke:#000000; stroke-linecap:butt; stroke-linejoin:round; stroke-width:4; stroke-opacity:1; fill:none" points="
  578.641,1486.45 578.641,1470.34 
  "/>
<polyline clip-path="url(#clip760)" style="stroke:#000000; stroke-linecap:butt; stroke-linejoin:round; stroke-width:4; stroke-opacity:1; fill:none" points="
  902.877,1486.45 902.877,1470.34 
  "/>
<polyline clip-path="url(#clip760)" style="stroke:#000000; stroke-linecap:butt; stroke-linejoin:round; stroke-width:4; stroke-opacity:1; fill:none" points="
  1227.11,1486.45 1227.11,1470.34 
  "/>
<polyline clip-path="url(#clip760)" style="stroke:#000000; stroke-linecap:butt; stroke-linejoin:round; stroke-width:4; stroke-opacity:1; fill:none" points="
  1551.35,1486.45 1551.35,1470.34 
  "/>
<polyline clip-path="url(#clip760)" style="stroke:#000000; stroke-linecap:butt; stroke-linejoin:round; stroke-width:4; stroke-opacity:1; fill:none" points="
  1875.58,1486.45 1875.58,1470.34 
  "/>
<polyline clip-path="url(#clip760)" style="stroke:#000000; stroke-linecap:butt; stroke-linejoin:round; stroke-width:4; stroke-opacity:1; fill:none" points="
  2199.82,1486.45 2199.82,1470.34 
  "/>
<path clip-path="url(#clip760)" d="M254.405 1517.37 Q250.794 1517.37 248.965 1520.93 Q247.16 1524.47 247.16 1531.6 Q247.16 1538.71 248.965 1542.27 Q250.794 1545.82 254.405 1545.82 Q258.039 1545.82 259.845 1542.27 Q261.673 1538.71 261.673 1531.6 Q261.673 1524.47 259.845 1520.93 Q258.039 1517.37 254.405 1517.37 M254.405 1513.66 Q260.215 1513.66 263.271 1518.27 Q266.349 1522.85 266.349 1531.6 Q266.349 1540.33 263.271 1544.94 Q260.215 1549.52 254.405 1549.52 Q248.595 1549.52 245.516 1544.94 Q242.46 1540.33 242.46 1531.6 Q242.46 1522.85 245.516 1518.27 Q248.595 1513.66 254.405 1513.66 Z" fill="#000000" fill-rule="evenodd" fill-opacity="1" /><path clip-path="url(#clip760)" d="M573.294 1544.91 L589.613 1544.91 L589.613 1548.85 L567.669 1548.85 L567.669 1544.91 Q570.331 1542.16 574.914 1537.53 Q579.52 1532.88 580.701 1531.53 Q582.946 1529.01 583.826 1527.27 Q584.729 1525.51 584.729 1523.82 Q584.729 1521.07 582.784 1519.33 Q580.863 1517.6 577.761 1517.6 Q575.562 1517.6 573.108 1518.36 Q570.678 1519.13 567.9 1520.68 L567.9 1515.95 Q570.724 1514.82 573.178 1514.24 Q575.631 1513.66 577.669 1513.66 Q583.039 1513.66 586.233 1516.35 Q589.428 1519.03 589.428 1523.52 Q589.428 1525.65 588.618 1527.57 Q587.831 1529.47 585.724 1532.07 Q585.145 1532.74 582.043 1535.95 Q578.942 1539.15 573.294 1544.91 Z" fill="#000000" fill-rule="evenodd" fill-opacity="1" /><path clip-path="url(#clip760)" d="M905.886 1518.36 L894.08 1536.81 L905.886 1536.81 L905.886 1518.36 M904.659 1514.29 L910.539 1514.29 L910.539 1536.81 L915.469 1536.81 L915.469 1540.7 L910.539 1540.7 L910.539 1548.85 L905.886 1548.85 L905.886 1540.7 L890.284 1540.7 L890.284 1536.19 L904.659 1514.29 Z" fill="#000000" fill-rule="evenodd" fill-opacity="1" /><path clip-path="url(#clip760)" d="M1227.52 1529.7 Q1224.37 1529.7 1222.52 1531.86 Q1220.69 1534.01 1220.69 1537.76 Q1220.69 1541.49 1222.52 1543.66 Q1224.37 1545.82 1227.52 1545.82 Q1230.67 1545.82 1232.49 1543.66 Q1234.35 1541.49 1234.35 1537.76 Q1234.35 1534.01 1232.49 1531.86 Q1230.67 1529.7 1227.52 1529.7 M1236.8 1515.05 L1236.8 1519.31 Q1235.04 1518.48 1233.24 1518.04 Q1231.45 1517.6 1229.69 1517.6 Q1225.06 1517.6 1222.61 1520.72 Q1220.18 1523.85 1219.83 1530.17 Q1221.2 1528.15 1223.26 1527.09 Q1225.32 1526 1227.8 1526 Q1233 1526 1236.01 1529.17 Q1239.05 1532.32 1239.05 1537.76 Q1239.05 1543.08 1235.9 1546.3 Q1232.75 1549.52 1227.52 1549.52 Q1221.52 1549.52 1218.35 1544.94 Q1215.18 1540.33 1215.18 1531.6 Q1215.18 1523.41 1219.07 1518.55 Q1222.96 1513.66 1229.51 1513.66 Q1231.27 1513.66 1233.05 1514.01 Q1234.86 1514.36 1236.8 1515.05 Z" fill="#000000" fill-rule="evenodd" fill-opacity="1" /><path clip-path="url(#clip760)" d="M1551.35 1532.44 Q1548.02 1532.44 1546.09 1534.22 Q1544.2 1536 1544.2 1539.13 Q1544.2 1542.25 1546.09 1544.03 Q1548.02 1545.82 1551.35 1545.82 Q1554.68 1545.82 1556.6 1544.03 Q1558.52 1542.23 1558.52 1539.13 Q1558.52 1536 1556.6 1534.22 Q1554.7 1532.44 1551.35 1532.44 M1546.67 1530.45 Q1543.66 1529.7 1541.97 1527.64 Q1540.31 1525.58 1540.31 1522.62 Q1540.31 1518.48 1543.25 1516.07 Q1546.21 1513.66 1551.35 1513.66 Q1556.51 1513.66 1559.45 1516.07 Q1562.39 1518.48 1562.39 1522.62 Q1562.39 1525.58 1560.7 1527.64 Q1559.03 1529.7 1556.05 1530.45 Q1559.43 1531.23 1561.3 1533.52 Q1563.2 1535.82 1563.2 1539.13 Q1563.2 1544.15 1560.12 1546.83 Q1557.07 1549.52 1551.35 1549.52 Q1545.63 1549.52 1542.55 1546.83 Q1539.5 1544.15 1539.5 1539.13 Q1539.5 1535.82 1541.39 1533.52 Q1543.29 1531.23 1546.67 1530.45 M1544.96 1523.06 Q1544.96 1525.75 1546.63 1527.25 Q1548.32 1528.76 1551.35 1528.76 Q1554.36 1528.76 1556.05 1527.25 Q1557.76 1525.75 1557.76 1523.06 Q1557.76 1520.38 1556.05 1518.87 Q1554.36 1517.37 1551.35 1517.37 Q1548.32 1517.37 1546.63 1518.87 Q1544.96 1520.38 1544.96 1523.06 Z" fill="#000000" fill-rule="evenodd" fill-opacity="1" /><path clip-path="url(#clip760)" d="M1850.27 1544.91 L1857.91 1544.91 L1857.91 1518.55 L1849.6 1520.21 L1849.6 1515.95 L1857.86 1514.29 L1862.54 1514.29 L1862.54 1544.91 L1870.18 1544.91 L1870.18 1548.85 L1850.27 1548.85 L1850.27 1544.91 Z" fill="#000000" fill-rule="evenodd" fill-opacity="1" /><path clip-path="url(#clip760)" d="M1889.62 1517.37 Q1886.01 1517.37 1884.18 1520.93 Q1882.38 1524.47 1882.38 1531.6 Q1882.38 1538.71 1884.18 1542.27 Q1886.01 1545.82 1889.62 1545.82 Q1893.26 1545.82 1895.06 1542.27 Q1896.89 1538.71 1896.89 1531.6 Q1896.89 1524.47 1895.06 1520.93 Q1893.26 1517.37 1889.62 1517.37 M1889.62 1513.66 Q1895.43 1513.66 1898.49 1518.27 Q1901.57 1522.85 1901.57 1531.6 Q1901.57 1540.33 1898.49 1544.94 Q1895.43 1549.52 1889.62 1549.52 Q1883.81 1549.52 1880.73 1544.94 Q1877.68 1540.33 1877.68 1531.6 Q1877.68 1522.85 1880.73 1518.27 Q1883.81 1513.66 1889.62 1513.66 Z" fill="#000000" fill-rule="evenodd" fill-opacity="1" /><path clip-path="url(#clip760)" d="M2175.31 1544.91 L2182.95 1544.91 L2182.95 1518.55 L2174.64 1520.21 L2174.64 1515.95 L2182.9 1514.29 L2187.57 1514.29 L2187.57 1544.91 L2195.21 1544.91 L2195.21 1548.85 L2175.31 1548.85 L2175.31 1544.91 Z" fill="#000000" fill-rule="evenodd" fill-opacity="1" /><path clip-path="url(#clip760)" d="M2208.69 1544.91 L2225.01 1544.91 L2225.01 1548.85 L2203.06 1548.85 L2203.06 1544.91 Q2205.72 1542.16 2210.31 1537.53 Q2214.91 1532.88 2216.09 1531.53 Q2218.34 1529.01 2219.22 1527.27 Q2220.12 1525.51 2220.12 1523.82 Q2220.12 1521.07 2218.18 1519.33 Q2216.26 1517.6 2213.15 1517.6 Q2210.95 1517.6 2208.5 1518.36 Q2206.07 1519.13 2203.29 1520.68 L2203.29 1515.95 Q2206.12 1514.82 2208.57 1514.24 Q2211.02 1513.66 2213.06 1513.66 Q2218.43 1513.66 2221.63 1516.35 Q2224.82 1519.03 2224.82 1523.52 Q2224.82 1525.65 2224.01 1527.57 Q2223.22 1529.47 2221.12 1532.07 Q2220.54 1532.74 2217.44 1535.95 Q2214.33 1539.15 2208.69 1544.91 Z" fill="#000000" fill-rule="evenodd" fill-opacity="1" /><polyline clip-path="url(#clip762)" style="stroke:#000000; stroke-linecap:butt; stroke-linejoin:round; stroke-width:2; stroke-opacity:0.1; fill:none" points="
  193.288,1363.65 2352.76,1363.65 
  "/>
<polyline clip-path="url(#clip762)" style="stroke:#000000; stroke-linecap:butt; stroke-linejoin:round; stroke-width:2; stroke-opacity:0.1; fill:none" points="
  193.288,1131.42 2352.76,1131.42 
  "/>
<polyline clip-path="url(#clip762)" style="stroke:#000000; stroke-linecap:butt; stroke-linejoin:round; stroke-width:2; stroke-opacity:0.1; fill:none" points="
  193.288,899.187 2352.76,899.187 
  "/>
<polyline clip-path="url(#clip762)" style="stroke:#000000; stroke-linecap:butt; stroke-linejoin:round; stroke-width:2; stroke-opacity:0.1; fill:none" points="
  193.288,666.955 2352.76,666.955 
  "/>
<polyline clip-path="url(#clip762)" style="stroke:#000000; stroke-linecap:butt; stroke-linejoin:round; stroke-width:2; stroke-opacity:0.1; fill:none" points="
  193.288,434.723 2352.76,434.723 
  "/>
<polyline clip-path="url(#clip760)" style="stroke:#000000; stroke-linecap:butt; stroke-linejoin:round; stroke-width:4; stroke-opacity:1; fill:none" points="
  193.288,1486.45 193.288,324.425 
  "/>
<polyline clip-path="url(#clip760)" style="stroke:#000000; stroke-linecap:butt; stroke-linejoin:round; stroke-width:4; stroke-opacity:1; fill:none" points="
  193.288,1363.65 212.185,1363.65 
  "/>
<polyline clip-path="url(#clip760)" style="stroke:#000000; stroke-linecap:butt; stroke-linejoin:round; stroke-width:4; stroke-opacity:1; fill:none" points="
  193.288,1131.42 212.185,1131.42 
  "/>
<polyline clip-path="url(#clip760)" style="stroke:#000000; stroke-linecap:butt; stroke-linejoin:round; stroke-width:4; stroke-opacity:1; fill:none" points="
  193.288,899.187 212.185,899.187 
  "/>
<polyline clip-path="url(#clip760)" style="stroke:#000000; stroke-linecap:butt; stroke-linejoin:round; stroke-width:4; stroke-opacity:1; fill:none" points="
  193.288,666.955 212.185,666.955 
  "/>
<polyline clip-path="url(#clip760)" style="stroke:#000000; stroke-linecap:butt; stroke-linejoin:round; stroke-width:4; stroke-opacity:1; fill:none" points="
  193.288,434.723 212.185,434.723 
  "/>
<path clip-path="url(#clip760)" d="M50.9921 1364.1 L80.6679 1364.1 L80.6679 1368.04 L50.9921 1368.04 L50.9921 1364.1 Z" fill="#000000" fill-rule="evenodd" fill-opacity="1" /><path clip-path="url(#clip760)" d="M100.76 1349.45 Q97.1493 1349.45 95.3206 1353.01 Q93.515 1356.56 93.515 1363.69 Q93.515 1370.79 95.3206 1374.36 Q97.1493 1377.9 100.76 1377.9 Q104.395 1377.9 106.2 1374.36 Q108.029 1370.79 108.029 1363.69 Q108.029 1356.56 106.2 1353.01 Q104.395 1349.45 100.76 1349.45 M100.76 1345.75 Q106.571 1345.75 109.626 1350.35 Q112.705 1354.94 112.705 1363.69 Q112.705 1372.41 109.626 1377.02 Q106.571 1381.6 100.76 1381.6 Q94.9502 1381.6 91.8715 1377.02 Q88.816 1372.41 88.816 1363.69 Q88.816 1354.94 91.8715 1350.35 Q94.9502 1345.75 100.76 1345.75 Z" fill="#000000" fill-rule="evenodd" fill-opacity="1" /><path clip-path="url(#clip760)" d="M120.922 1375.05 L125.807 1375.05 L125.807 1380.93 L120.922 1380.93 L120.922 1375.05 Z" fill="#000000" fill-rule="evenodd" fill-opacity="1" /><path clip-path="url(#clip760)" d="M150.158 1362.3 Q153.515 1363.01 155.39 1365.28 Q157.288 1367.55 157.288 1370.88 Q157.288 1376 153.769 1378.8 Q150.251 1381.6 143.769 1381.6 Q141.593 1381.6 139.279 1381.16 Q136.987 1380.75 134.533 1379.89 L134.533 1375.37 Q136.478 1376.51 138.793 1377.09 Q141.107 1377.67 143.631 1377.67 Q148.029 1377.67 150.32 1375.93 Q152.635 1374.19 152.635 1370.88 Q152.635 1367.83 150.482 1366.12 Q148.353 1364.38 144.533 1364.38 L140.506 1364.38 L140.506 1360.54 L144.718 1360.54 Q148.168 1360.54 149.996 1359.17 Q151.825 1357.78 151.825 1355.19 Q151.825 1352.53 149.927 1351.12 Q148.052 1349.68 144.533 1349.68 Q142.612 1349.68 140.413 1350.1 Q138.214 1350.51 135.575 1351.39 L135.575 1347.23 Q138.237 1346.49 140.552 1346.12 Q142.89 1345.75 144.95 1345.75 Q150.274 1345.75 153.376 1348.18 Q156.478 1350.58 156.478 1354.7 Q156.478 1357.57 154.834 1359.56 Q153.191 1361.53 150.158 1362.3 Z" fill="#000000" fill-rule="evenodd" fill-opacity="1" /><path clip-path="url(#clip760)" d="M100.112 1117.22 Q96.5011 1117.22 94.6724 1120.78 Q92.8669 1124.32 92.8669 1131.45 Q92.8669 1138.56 94.6724 1142.12 Q96.5011 1145.67 100.112 1145.67 Q103.746 1145.67 105.552 1142.12 Q107.381 1138.56 107.381 1131.45 Q107.381 1124.32 105.552 1120.78 Q103.746 1117.22 100.112 1117.22 M100.112 1113.51 Q105.922 1113.51 108.978 1118.12 Q112.057 1122.7 112.057 1131.45 Q112.057 1140.18 108.978 1144.79 Q105.922 1149.37 100.112 1149.37 Q94.3021 1149.37 91.2234 1144.79 Q88.1679 1140.18 88.1679 1131.45 Q88.1679 1122.7 91.2234 1118.12 Q94.3021 1113.51 100.112 1113.51 Z" fill="#000000" fill-rule="evenodd" fill-opacity="1" /><path clip-path="url(#clip760)" d="M120.274 1142.82 L125.158 1142.82 L125.158 1148.7 L120.274 1148.7 L120.274 1142.82 Z" fill="#000000" fill-rule="evenodd" fill-opacity="1" /><path clip-path="url(#clip760)" d="M145.343 1117.22 Q141.732 1117.22 139.904 1120.78 Q138.098 1124.32 138.098 1131.45 Q138.098 1138.56 139.904 1142.12 Q141.732 1145.67 145.343 1145.67 Q148.978 1145.67 150.783 1142.12 Q152.612 1138.56 152.612 1131.45 Q152.612 1124.32 150.783 1120.78 Q148.978 1117.22 145.343 1117.22 M145.343 1113.51 Q151.154 1113.51 154.209 1118.12 Q157.288 1122.7 157.288 1131.45 Q157.288 1140.18 154.209 1144.79 Q151.154 1149.37 145.343 1149.37 Q139.533 1149.37 136.455 1144.79 Q133.399 1140.18 133.399 1131.45 Q133.399 1122.7 136.455 1118.12 Q139.533 1113.51 145.343 1113.51 Z" fill="#000000" fill-rule="evenodd" fill-opacity="1" /><path clip-path="url(#clip760)" d="M100.76 884.985 Q97.1493 884.985 95.3206 888.55 Q93.515 892.092 93.515 899.221 Q93.515 906.328 95.3206 909.893 Q97.1493 913.434 100.76 913.434 Q104.395 913.434 106.2 909.893 Q108.029 906.328 108.029 899.221 Q108.029 892.092 106.2 888.55 Q104.395 884.985 100.76 884.985 M100.76 881.282 Q106.571 881.282 109.626 885.888 Q112.705 890.471 112.705 899.221 Q112.705 907.948 109.626 912.555 Q106.571 917.138 100.76 917.138 Q94.9502 917.138 91.8715 912.555 Q88.816 907.948 88.816 899.221 Q88.816 890.471 91.8715 885.888 Q94.9502 881.282 100.76 881.282 Z" fill="#000000" fill-rule="evenodd" fill-opacity="1" /><path clip-path="url(#clip760)" d="M120.922 910.587 L125.807 910.587 L125.807 916.467 L120.922 916.467 L120.922 910.587 Z" fill="#000000" fill-rule="evenodd" fill-opacity="1" /><path clip-path="url(#clip760)" d="M150.158 897.832 Q153.515 898.55 155.39 900.819 Q157.288 903.087 157.288 906.42 Q157.288 911.536 153.769 914.337 Q150.251 917.138 143.769 917.138 Q141.593 917.138 139.279 916.698 Q136.987 916.281 134.533 915.425 L134.533 910.911 Q136.478 912.045 138.793 912.624 Q141.107 913.203 143.631 913.203 Q148.029 913.203 150.32 911.467 Q152.635 909.731 152.635 906.42 Q152.635 903.365 150.482 901.652 Q148.353 899.916 144.533 899.916 L140.506 899.916 L140.506 896.073 L144.718 896.073 Q148.168 896.073 149.996 894.707 Q151.825 893.319 151.825 890.726 Q151.825 888.064 149.927 886.652 Q148.052 885.217 144.533 885.217 Q142.612 885.217 140.413 885.633 Q138.214 886.05 135.575 886.93 L135.575 882.763 Q138.237 882.022 140.552 881.652 Q142.89 881.282 144.95 881.282 Q150.274 881.282 153.376 883.712 Q156.478 886.12 156.478 890.24 Q156.478 893.11 154.834 895.101 Q153.191 897.069 150.158 897.832 Z" fill="#000000" fill-rule="evenodd" fill-opacity="1" /><path clip-path="url(#clip760)" d="M99.9502 652.753 Q96.3391 652.753 94.5104 656.318 Q92.7049 659.86 92.7049 666.989 Q92.7049 674.096 94.5104 677.661 Q96.3391 681.202 99.9502 681.202 Q103.584 681.202 105.39 677.661 Q107.219 674.096 107.219 666.989 Q107.219 659.86 105.39 656.318 Q103.584 652.753 99.9502 652.753 M99.9502 649.05 Q105.76 649.05 108.816 653.656 Q111.895 658.239 111.895 666.989 Q111.895 675.716 108.816 680.323 Q105.76 684.906 99.9502 684.906 Q94.14 684.906 91.0614 680.323 Q88.0058 675.716 88.0058 666.989 Q88.0058 658.239 91.0614 653.656 Q94.14 649.05 99.9502 649.05 Z" fill="#000000" fill-rule="evenodd" fill-opacity="1" /><path clip-path="url(#clip760)" d="M120.112 678.355 L124.996 678.355 L124.996 684.235 L120.112 684.235 L120.112 678.355 Z" fill="#000000" fill-rule="evenodd" fill-opacity="1" /><path clip-path="url(#clip760)" d="M145.76 665.091 Q142.612 665.091 140.76 667.244 Q138.931 669.397 138.931 673.147 Q138.931 676.874 140.76 679.05 Q142.612 681.202 145.76 681.202 Q148.908 681.202 150.737 679.05 Q152.589 676.874 152.589 673.147 Q152.589 669.397 150.737 667.244 Q148.908 665.091 145.76 665.091 M155.042 650.439 L155.042 654.698 Q153.283 653.864 151.478 653.425 Q149.695 652.985 147.936 652.985 Q143.306 652.985 140.853 656.11 Q138.422 659.235 138.075 665.554 Q139.441 663.54 141.501 662.476 Q143.561 661.388 146.038 661.388 Q151.246 661.388 154.255 664.559 Q157.288 667.707 157.288 673.147 Q157.288 678.471 154.14 681.688 Q150.992 684.906 145.76 684.906 Q139.765 684.906 136.594 680.323 Q133.422 675.716 133.422 666.989 Q133.422 658.795 137.311 653.934 Q141.2 649.05 147.751 649.05 Q149.51 649.05 151.293 649.397 Q153.098 649.744 155.042 650.439 Z" fill="#000000" fill-rule="evenodd" fill-opacity="1" /><path clip-path="url(#clip760)" d="M100.297 420.521 Q96.6863 420.521 94.8576 424.086 Q93.0521 427.628 93.0521 434.757 Q93.0521 441.864 94.8576 445.429 Q96.6863 448.97 100.297 448.97 Q103.932 448.97 105.737 445.429 Q107.566 441.864 107.566 434.757 Q107.566 427.628 105.737 424.086 Q103.932 420.521 100.297 420.521 M100.297 416.818 Q106.108 416.818 109.163 421.424 Q112.242 426.008 112.242 434.757 Q112.242 443.484 109.163 448.091 Q106.108 452.674 100.297 452.674 Q94.4873 452.674 91.4086 448.091 Q88.353 443.484 88.353 434.757 Q88.353 426.008 91.4086 421.424 Q94.4873 416.818 100.297 416.818 Z" fill="#000000" fill-rule="evenodd" fill-opacity="1" /><path clip-path="url(#clip760)" d="M120.459 446.123 L125.344 446.123 L125.344 452.003 L120.459 452.003 L120.459 446.123 Z" fill="#000000" fill-rule="evenodd" fill-opacity="1" /><path clip-path="url(#clip760)" d="M135.668 451.285 L135.668 447.026 Q137.427 447.859 139.232 448.299 Q141.038 448.739 142.774 448.739 Q147.404 448.739 149.834 445.637 Q152.288 442.512 152.635 436.169 Q151.293 438.16 149.232 439.225 Q147.172 440.29 144.672 440.29 Q139.487 440.29 136.455 437.165 Q133.445 434.017 133.445 428.577 Q133.445 423.253 136.594 420.035 Q139.742 416.818 144.973 416.818 Q150.968 416.818 154.117 421.424 Q157.288 426.008 157.288 434.757 Q157.288 442.929 153.399 447.813 Q149.533 452.674 142.982 452.674 Q141.223 452.674 139.418 452.327 Q137.612 451.98 135.668 451.285 M144.973 436.632 Q148.121 436.632 149.95 434.48 Q151.802 432.327 151.802 428.577 Q151.802 424.85 149.95 422.697 Q148.121 420.521 144.973 420.521 Q141.825 420.521 139.973 422.697 Q138.144 424.85 138.144 428.577 Q138.144 432.327 139.973 434.48 Q141.825 436.632 144.973 436.632 Z" fill="#000000" fill-rule="evenodd" fill-opacity="1" /><path clip-path="url(#clip760)" d="M1124.68 12.096 L1136.87 12.096 L1152.3 53.2532 L1167.82 12.096 L1180.01 12.096 L1180.01 72.576 L1172.03 72.576 L1172.03 19.4686 L1156.44 60.9499 L1148.21 60.9499 L1132.62 19.4686 L1132.62 72.576 L1124.68 72.576 L1124.68 12.096 Z" fill="#000000" fill-rule="evenodd" fill-opacity="1" /><path clip-path="url(#clip760)" d="M1214.81 76.7889 Q1211.65 84.8907 1208.65 87.3618 Q1205.66 89.8329 1200.63 89.8329 L1194.68 89.8329 L1194.68 83.5945 L1199.05 83.5945 Q1202.13 83.5945 1203.83 82.1361 Q1205.53 80.6778 1207.6 75.2496 L1208.94 71.8468 L1190.59 27.2059 L1198.49 27.2059 L1212.66 62.6918 L1226.84 27.2059 L1234.74 27.2059 L1214.81 76.7889 Z" fill="#000000" fill-rule="evenodd" fill-opacity="1" /><path clip-path="url(#clip760)" d="M1278.77 14.324 L1278.77 27.2059 L1294.13 27.2059 L1294.13 32.9987 L1278.77 32.9987 L1278.77 57.6282 Q1278.77 63.1779 1280.27 64.7578 Q1281.81 66.3376 1286.47 66.3376 L1294.13 66.3376 L1294.13 72.576 L1286.47 72.576 Q1277.84 72.576 1274.56 69.3758 Q1271.28 66.1351 1271.28 57.6282 L1271.28 32.9987 L1265.81 32.9987 L1265.81 27.2059 L1271.28 27.2059 L1271.28 14.324 L1278.77 14.324 Z" fill="#000000" fill-rule="evenodd" fill-opacity="1" /><path clip-path="url(#clip760)" d="M1303.93 27.2059 L1311.38 27.2059 L1311.38 72.576 L1303.93 72.576 L1303.93 27.2059 M1303.93 9.54393 L1311.38 9.54393 L1311.38 18.9825 L1303.93 18.9825 L1303.93 9.54393 Z" fill="#000000" fill-rule="evenodd" fill-opacity="1" /><path clip-path="url(#clip760)" d="M1334.35 14.324 L1334.35 27.2059 L1349.71 27.2059 L1349.71 32.9987 L1334.35 32.9987 L1334.35 57.6282 Q1334.35 63.1779 1335.85 64.7578 Q1337.39 66.3376 1342.05 66.3376 L1349.71 66.3376 L1349.71 72.576 L1342.05 72.576 Q1333.42 72.576 1330.14 69.3758 Q1326.86 66.1351 1326.86 57.6282 L1326.86 32.9987 L1321.39 32.9987 L1321.39 27.2059 L1326.86 27.2059 L1326.86 14.324 L1334.35 14.324 Z" fill="#000000" fill-rule="evenodd" fill-opacity="1" /><path clip-path="url(#clip760)" d="M1359.51 9.54393 L1366.96 9.54393 L1366.96 72.576 L1359.51 72.576 L1359.51 9.54393 Z" fill="#000000" fill-rule="evenodd" fill-opacity="1" /><path clip-path="url(#clip760)" d="M1421.37 48.0275 L1421.37 51.6733 L1387.1 51.6733 Q1387.58 59.3701 1391.71 63.421 Q1395.89 67.4314 1403.3 67.4314 Q1407.59 67.4314 1411.6 66.3781 Q1415.65 65.3249 1419.62 63.2184 L1419.62 70.267 Q1415.61 71.9684 1411.4 72.8596 Q1407.19 73.7508 1402.85 73.7508 Q1392 73.7508 1385.64 67.4314 Q1379.32 61.1119 1379.32 50.3365 Q1379.32 39.1965 1385.31 32.6746 Q1391.35 26.1121 1401.56 26.1121 Q1410.71 26.1121 1416.02 32.0264 Q1421.37 37.9003 1421.37 48.0275 M1413.91 45.84 Q1413.83 39.7232 1410.47 36.0774 Q1407.15 32.4315 1401.64 32.4315 Q1395.4 32.4315 1391.63 35.9558 Q1387.91 39.4801 1387.34 45.8805 L1413.91 45.84 Z" fill="#000000" fill-rule="evenodd" fill-opacity="1" /><polyline clip-path="url(#clip762)" style="stroke:#000000; stroke-linecap:butt; stroke-linejoin:round; stroke-width:4; stroke-opacity:1; fill:none" points="
  254.405,480.03 257.721,471.613 261.037,463.475 264.353,455.623 267.668,448.062 275.333,431.725 282.998,417.021 290.663,403.979 298.328,392.614 305.993,382.918 
  313.658,374.869 321.323,368.424 328.989,363.527 336.654,360.103 344.319,358.067 351.984,357.32 359.649,357.753 367.314,359.247 374.979,361.677 382.644,364.916 
  390.309,368.829 408.734,380.196 427.159,392.874 445.585,405.185 464.01,415.689 471.8,419.299 479.589,422.313 487.378,424.677 495.167,426.348 502.956,427.298 
  510.746,427.508 518.535,426.976 526.324,425.712 534.785,423.534 543.247,420.562 551.708,416.861 560.169,412.51 577.092,402.257 594.014,390.754 609.616,380.041 
  625.217,370.282 633.017,366.103 640.818,362.579 648.618,359.85 656.419,358.053 664.782,357.314 673.145,357.955 681.508,360.119 689.871,363.935 698.234,369.514 
  706.597,376.95 714.96,386.311 723.323,397.645 728.168,405.122 733.012,413.268 737.857,422.082 742.702,431.557 747.547,441.685 752.391,452.453 757.236,463.848 
  762.081,475.851 766.925,488.444 771.77,501.602 776.615,515.302 781.459,529.515 786.304,544.211 791.149,559.359 795.993,574.924 800.838,590.872 818.06,650.093 
  835.281,711.899 852.503,774.441 869.724,835.893 877.275,862.05 884.826,887.535 892.377,912.222 899.928,935.996 907.479,958.749 915.03,980.383 922.581,1000.81 
  930.131,1019.95 938.364,1039.27 946.596,1056.91 954.829,1072.78 963.061,1086.83 971.294,1099.02 979.526,1109.31 983.643,1113.73 987.759,1117.66 991.875,1121.11 
  995.991,1124.06 1000.13,1126.53 1004.27,1128.49 1008.41,1129.96 1012.55,1130.92 1016.69,1131.38 1020.84,1131.33 1024.98,1130.78 1029.12,1129.72 1033.26,1128.16 
  1037.4,1126.09 1041.54,1123.53 1045.68,1120.46 1049.82,1116.9 1053.96,1112.84 1058.1,1108.29 1062.24,1103.25 1066.82,1097.11 1071.4,1090.39 1075.98,1083.09 
  1080.55,1075.21 1085.13,1066.77 1089.71,1057.77 1094.29,1048.23 1098.87,1038.16 1103.45,1027.56 1108.02,1016.46 1112.6,1004.86 1117.18,992.778 1126.34,967.255 
  1135.49,940.036 1144.2,912.718 1152.92,884.182 1161.63,854.605 1170.34,824.184 1187.76,761.65 1205.19,698.377 1214.24,665.82 1223.3,633.849 1232.36,602.731 
  1241.42,572.722 1250.48,544.066 1259.54,516.989 1268.59,491.692 1277.65,468.351 1285.28,450.327 1292.9,433.861 1300.53,419.005 1308.15,405.791 1315.78,394.235 
  1323.4,384.334 1331.03,376.067 1338.65,369.396 1343.31,366.085 1347.96,363.334 1352.62,361.126 1357.27,359.441 1366.58,357.558 1375.89,357.5 1385.2,359.062 
  1394.51,362.024 1403.82,366.154 1413.13,371.214 1430.19,382.106 1447.24,393.888 1464.3,405.246 1481.35,415.047 1489.23,418.787 1497.11,421.927 1504.98,424.409 
  1512.86,426.187 1520.74,427.231 1528.61,427.52 1536.49,427.05 1544.37,425.83 1552.34,423.851 1560.32,421.16 1568.3,417.809 1576.28,413.862 1592.24,404.498 
  1608.19,393.831 1626.08,381.49 1643.96,370.21 1652.9,365.483 1661.84,361.645 1670.78,358.909 1679.73,357.478 1687.83,357.472 1695.93,358.835 1704.03,361.689 
  1712.14,366.146 1720.24,372.298 1728.34,380.222 1736.44,389.972 1744.55,401.584 1749.18,409.074 1753.82,417.177 1758.46,425.89 1763.1,435.205 1767.74,445.116 
  1772.38,455.609 1777.02,466.673 1781.65,478.29 1790.93,503.113 1800.21,529.906 1804.85,543.979 1809.48,558.467 1814.12,573.34 1818.76,588.566 1835.94,647.495 
  1853.12,709.074 1870.3,771.469 1887.48,832.864 1895.95,862.234 1904.41,890.757 1912.88,918.258 1921.35,944.575 1929.82,969.562 1938.29,993.086 1946.76,1015.03 
  1955.22,1035.29 1963.45,1053.27 1971.67,1069.5 1979.89,1083.94 1988.11,1096.52 1992.22,1102.11 1996.33,1107.21 2000.45,1111.84 2004.56,1115.98 2012.78,1122.81 
  2021,1127.66 2025.21,1129.38 2029.43,1130.58 2033.64,1131.25 2037.86,1131.41 2042.07,1131.04 2046.29,1130.14 2050.5,1128.73 2054.71,1126.79 2058.93,1124.34 
  2063.14,1121.36 2067.36,1117.87 2071.57,1113.87 2075.79,1109.36 2080,1104.33 2084.21,1098.81 2088.43,1092.79 2093.05,1085.62 2097.66,1077.87 2102.28,1069.54 
  2106.9,1060.64 2111.52,1051.19 2116.13,1041.19 2120.75,1030.65 2125.37,1019.59 2134.6,995.976 2143.84,970.461 2153.07,943.202 2162.31,914.37 2169.01,892.551 
  2175.72,870.084 2182.43,847.055 2189.13,823.554 2202.55,775.527 2215.96,726.818 2229.38,678.286 2242.79,630.81 2249.5,607.74 2256.21,585.256 2262.92,563.459 
  2269.62,542.445 2275.13,525.848 2280.63,509.886 2286.13,494.6 2291.64,480.03 
  "/>
<polyline clip-path="url(#clip762)" style="stroke:#ffa07a; stroke-linecap:butt; stroke-linejoin:round; stroke-width:4; stroke-opacity:1; fill:none" points="
  254.405,1453.56 257.721,1453.41 261.037,1452.97 264.353,1452.24 267.668,1451.2 275.333,1447.69 282.998,1442.6 290.663,1435.93 298.328,1427.67 305.993,1417.83 
  313.658,1406.4 321.323,1393.37 328.989,1378.77 336.654,1362.58 344.319,1344.83 351.984,1325.53 359.649,1304.72 367.314,1282.42 374.979,1258.68 382.644,1233.55 
  390.309,1207.11 399.521,1173.68 408.734,1138.61 417.947,1102.08 427.159,1064.29 445.585,985.836 464.01,905.258 479.589,837.103 495.167,770.379 502.956,737.972 
  510.746,706.413 518.535,675.85 526.324,646.418 534.785,615.871 543.247,586.941 551.708,559.74 560.169,534.358 568.631,510.861 577.092,489.286 585.553,469.649 
  594.014,451.936 601.815,437.284 609.616,424.196 617.416,412.614 625.217,402.469 633.017,393.679 640.818,386.154 648.618,379.795 656.419,374.501 664.782,369.887 
  673.145,366.241 681.508,363.432 689.871,361.332 706.597,358.772 723.323,357.681 762.081,357.312 800.838,357.576 818.06,358.511 835.281,360.867 843.892,362.863 
  852.503,365.578 861.114,369.151 869.724,373.725 877.275,378.674 884.826,384.601 892.377,391.6 899.928,399.761 907.479,409.168 915.03,419.896 922.581,432.015 
  930.131,445.58 938.364,462.069 946.596,480.371 954.829,500.504 963.061,522.467 971.294,546.234 979.526,571.76 987.759,598.972 995.991,627.779 1004.27,658.252 
  1012.55,690.087 1020.84,723.131 1029.12,757.212 1045.68,827.743 1062.24,900.103 1080.55,980.252 1098.87,1058.45 1108.02,1096.19 1117.18,1132.71 1126.34,1167.82 
  1135.49,1201.33 1144.2,1231.6 1152.92,1260.17 1161.63,1286.94 1170.34,1311.84 1179.05,1334.81 1187.76,1355.8 1196.47,1374.77 1205.19,1391.71 1214.24,1407.15 
  1223.3,1420.38 1232.36,1431.38 1241.42,1440.17 1250.48,1446.75 1259.54,1451.12 1268.59,1453.3 1277.65,1453.27 1285.28,1451.55 1292.9,1448.26 1300.53,1443.42 
  1308.15,1437.01 1315.78,1429.03 1323.4,1419.49 1331.03,1408.36 1338.65,1395.67 1343.31,1387.15 1347.96,1378.04 1352.62,1368.36 1357.27,1358.09 1366.58,1335.84 
  1375.89,1311.32 1385.2,1284.6 1394.51,1255.75 1403.82,1224.86 1413.13,1192.07 1421.66,1160.47 1430.19,1127.52 1438.71,1093.37 1447.24,1058.17 1464.3,985.417 
  1481.35,910.847 1497.11,841.879 1512.86,774.274 1520.74,741.418 1528.61,709.412 1536.49,678.41 1544.37,648.553 1552.34,619.608 1560.32,592.086 1568.3,566.085 
  1576.28,541.685 1584.26,518.946 1592.24,497.908 1600.21,478.589 1608.19,460.989 1617.13,443.284 1626.08,427.661 1635.02,414.039 1643.96,402.317 1652.9,392.373 
  1661.84,384.071 1670.78,377.261 1679.73,371.787 1695.93,364.744 1712.14,360.606 1728.34,358.48 1744.55,357.595 1781.65,357.312 1818.76,357.557 1835.94,358.448 
  1853.12,360.717 1861.71,362.649 1870.3,365.284 1878.89,368.76 1887.48,373.217 1895.95,378.713 1904.41,385.439 1912.88,393.529 1921.35,403.107 1929.82,414.288 
  1938.29,427.176 1946.76,441.857 1955.22,458.399 1963.45,476.288 1971.67,496.001 1979.89,517.541 1988.11,540.889 1996.33,566.002 2004.56,592.816 2012.78,621.243 
  2021,651.174 2029.43,683.283 2037.86,716.679 2046.29,751.186 2054.71,786.611 2071.57,859.398 2088.43,933.332 2097.66,973.695 2106.9,1013.6 2116.13,1052.79 
  2125.37,1091.01 2134.6,1128.02 2143.84,1163.62 2153.07,1197.62 2162.31,1229.85 2169.01,1252.08 2175.72,1273.26 2182.43,1293.36 2189.13,1312.33 2195.84,1330.16 
  2202.55,1346.81 2209.26,1362.28 2215.96,1376.56 2222.67,1389.62 2229.38,1401.48 2236.09,1412.12 2242.79,1421.54 2249.5,1429.74 2256.21,1436.73 2262.92,1442.5 
  2269.62,1447.07 2275.13,1449.91 2280.63,1451.94 2286.13,1453.15 2291.64,1453.56 
  "/>
<path clip-path="url(#clip760)" d="
M1039.68 278.992 L1321.01 278.992 L1321.01 123.472 L1039.68 123.472  Z
  " fill="#ffffff" fill-rule="evenodd" fill-opacity="1"/>
<polyline clip-path="url(#clip760)" style="stroke:#000000; stroke-linecap:butt; stroke-linejoin:round; stroke-width:4; stroke-opacity:1; fill:none" points="
  1039.68,278.992 1321.01,278.992 1321.01,123.472 1039.68,123.472 1039.68,278.992 
  "/>
<polyline clip-path="url(#clip760)" style="stroke:#000000; stroke-linecap:butt; stroke-linejoin:round; stroke-width:4; stroke-opacity:1; fill:none" points="
  1063.67,175.312 1207.64,175.312 
  "/>
<path clip-path="url(#clip760)" d="M1248.14 156.574 L1248.14 160.115 L1244.06 160.115 Q1241.77 160.115 1240.87 161.041 Q1239.99 161.967 1239.99 164.375 L1239.99 166.666 L1247 166.666 L1247 169.977 L1239.99 169.977 L1239.99 192.592 L1235.71 192.592 L1235.71 169.977 L1231.63 169.977 L1231.63 166.666 L1235.71 166.666 L1235.71 164.861 Q1235.71 160.532 1237.72 158.565 Q1239.74 156.574 1244.11 156.574 L1248.14 156.574 Z" fill="#000000" fill-rule="evenodd" fill-opacity="1" /><path clip-path="url(#clip760)" d="M1253.11 188.657 L1260.75 188.657 L1260.75 162.291 L1252.44 163.958 L1252.44 159.699 L1260.71 158.032 L1265.38 158.032 L1265.38 188.657 L1273.02 188.657 L1273.02 192.592 L1253.11 192.592 L1253.11 188.657 Z" fill="#000000" fill-rule="evenodd" fill-opacity="1" /><polyline clip-path="url(#clip760)" style="stroke:#ffa07a; stroke-linecap:butt; stroke-linejoin:round; stroke-width:4; stroke-opacity:1; fill:none" points="
  1063.67,227.152 1207.64,227.152 
  "/>
<path clip-path="url(#clip760)" d="M1248.14 208.414 L1248.14 211.955 L1244.06 211.955 Q1241.77 211.955 1240.87 212.881 Q1239.99 213.807 1239.99 216.215 L1239.99 218.506 L1247 218.506 L1247 221.817 L1239.99 221.817 L1239.99 244.432 L1235.71 244.432 L1235.71 221.817 L1231.63 221.817 L1231.63 218.506 L1235.71 218.506 L1235.71 216.701 Q1235.71 212.372 1237.72 210.405 Q1239.74 208.414 1244.11 208.414 L1248.14 208.414 Z" fill="#000000" fill-rule="evenodd" fill-opacity="1" /><path clip-path="url(#clip760)" d="M1256.33 240.497 L1272.65 240.497 L1272.65 244.432 L1250.71 244.432 L1250.71 240.497 Q1253.37 237.742 1257.95 233.113 Q1262.56 228.46 1263.74 227.117 Q1265.98 224.594 1266.86 222.858 Q1267.77 221.099 1267.77 219.409 Q1267.77 216.654 1265.82 214.918 Q1263.9 213.182 1260.8 213.182 Q1258.6 213.182 1256.15 213.946 Q1253.72 214.71 1250.94 216.261 L1250.94 211.539 Q1253.76 210.405 1256.22 209.826 Q1258.67 209.247 1260.71 209.247 Q1266.08 209.247 1269.27 211.932 Q1272.47 214.617 1272.47 219.108 Q1272.47 221.238 1271.66 223.159 Q1270.87 225.057 1268.76 227.65 Q1268.18 228.321 1265.08 231.539 Q1261.98 234.733 1256.33 240.497 Z" fill="#000000" fill-rule="evenodd" fill-opacity="1" /></svg>
