<?xml version="1.0" encoding="utf-8"?>
<svg xmlns="http://www.w3.org/2000/svg" xmlns:xlink="http://www.w3.org/1999/xlink" width="600" height="400" viewBox="0 0 2400 1600">
<defs>
  <clipPath id="clip830">
    <rect x="0" y="0" width="2400" height="1600"/>
  </clipPath>
</defs>
<path clip-path="url(#clip830)" d="
M0 1600 L2400 1600 L2400 0 L0 0  Z
  " fill="#ffffff" fill-rule="evenodd" fill-opacity="1"/>
<defs>
  <clipPath id="clip831">
    <rect x="480" y="0" width="1681" height="1600"/>
  </clipPath>
</defs>
<path clip-path="url(#clip830)" d="
M156.598 1486.45 L2352.76 1486.45 L2352.76 47.2441 L156.598 47.2441  Z
  " fill="#ffffff" fill-rule="evenodd" fill-opacity="1"/>
<defs>
  <clipPath id="clip832">
    <rect x="156" y="47" width="2197" height="1440"/>
  </clipPath>
</defs>
<polyline clip-path="url(#clip832)" style="stroke:#000000; stroke-linecap:butt; stroke-linejoin:round; stroke-width:2; stroke-opacity:0.1; fill:none" points="
  218.754,1486.45 218.754,47.2441 
  "/>
<polyline clip-path="url(#clip832)" style="stroke:#000000; stroke-linecap:butt; stroke-linejoin:round; stroke-width:2; stroke-opacity:0.1; fill:none" points="
  736.715,1486.45 736.715,47.2441 
  "/>
<polyline clip-path="url(#clip832)" style="stroke:#000000; stroke-linecap:butt; stroke-linejoin:round; stroke-width:2; stroke-opacity:0.1; fill:none" points="
  1254.68,1486.45 1254.68,47.2441 
  "/>
<polyline clip-path="url(#clip832)" style="stroke:#000000; stroke-linecap:butt; stroke-linejoin:round; stroke-width:2; stroke-opacity:0.1; fill:none" points="
  1772.64,1486.45 1772.64,47.2441 
  "/>
<polyline clip-path="url(#clip832)" style="stroke:#000000; stroke-linecap:butt; stroke-linejoin:round; stroke-width:2; stroke-opacity:0.1; fill:none" points="
  2290.6,1486.45 2290.6,47.2441 
  "/>
<polyline clip-path="url(#clip830)" style="stroke:#000000; stroke-linecap:butt; stroke-linejoin:round; stroke-width:4; stroke-opacity:1; fill:none" points="
  156.598,1486.45 2352.76,1486.45 
  "/>
<polyline clip-path="url(#clip830)" style="stroke:#000000; stroke-linecap:butt; stroke-linejoin:round; stroke-width:4; stroke-opacity:1; fill:none" points="
  218.754,1486.45 218.754,1467.55 
  "/>
<polyline clip-path="url(#clip830)" style="stroke:#000000; stroke-linecap:butt; stroke-linejoin:round; stroke-width:4; stroke-opacity:1; fill:none" points="
  736.715,1486.45 736.715,1467.55 
  "/>
<polyline clip-path="url(#clip830)" style="stroke:#000000; stroke-linecap:butt; stroke-linejoin:round; stroke-width:4; stroke-opacity:1; fill:none" points="
  1254.68,1486.45 1254.68,1467.55 
  "/>
<polyline clip-path="url(#clip830)" style="stroke:#000000; stroke-linecap:butt; stroke-linejoin:round; stroke-width:4; stroke-opacity:1; fill:none" points="
  1772.64,1486.45 1772.64,1467.55 
  "/>
<polyline clip-path="url(#clip830)" style="stroke:#000000; stroke-linecap:butt; stroke-linejoin:round; stroke-width:4; stroke-opacity:1; fill:none" points="
  2290.6,1486.45 2290.6,1467.55 
  "/>
<path clip-path="url(#clip830)" d="M196.138 1517.37 Q192.527 1517.37 190.698 1520.93 Q188.893 1524.47 188.893 1531.6 Q188.893 1538.71 190.698 1542.27 Q192.527 1545.82 196.138 1545.82 Q199.772 1545.82 201.578 1542.27 Q203.407 1538.71 203.407 1531.6 Q203.407 1524.47 201.578 1520.93 Q199.772 1517.37 196.138 1517.37 M196.138 1513.66 Q201.948 1513.66 205.004 1518.27 Q208.082 1522.85 208.082 1531.6 Q208.082 1540.33 205.004 1544.94 Q201.948 1549.52 196.138 1549.52 Q190.328 1549.52 187.249 1544.94 Q184.194 1540.33 184.194 1531.6 Q184.194 1522.85 187.249 1518.27 Q190.328 1513.66 196.138 1513.66 Z" fill="#000000" fill-rule="evenodd" fill-opacity="1" /><path clip-path="url(#clip830)" d="M216.3 1542.97 L221.184 1542.97 L221.184 1548.85 L216.3 1548.85 L216.3 1542.97 Z" fill="#000000" fill-rule="evenodd" fill-opacity="1" /><path clip-path="url(#clip830)" d="M241.369 1517.37 Q237.758 1517.37 235.929 1520.93 Q234.124 1524.47 234.124 1531.6 Q234.124 1538.71 235.929 1542.27 Q237.758 1545.82 241.369 1545.82 Q245.003 1545.82 246.809 1542.27 Q248.638 1538.71 248.638 1531.6 Q248.638 1524.47 246.809 1520.93 Q245.003 1517.37 241.369 1517.37 M241.369 1513.66 Q247.179 1513.66 250.235 1518.27 Q253.314 1522.85 253.314 1531.6 Q253.314 1540.33 250.235 1544.94 Q247.179 1549.52 241.369 1549.52 Q235.559 1549.52 232.48 1544.94 Q229.425 1540.33 229.425 1531.6 Q229.425 1522.85 232.48 1518.27 Q235.559 1513.66 241.369 1513.66 Z" fill="#000000" fill-rule="evenodd" fill-opacity="1" /><path clip-path="url(#clip830)" d="M714.597 1517.37 Q710.986 1517.37 709.158 1520.93 Q707.352 1524.47 707.352 1531.6 Q707.352 1538.71 709.158 1542.27 Q710.986 1545.82 714.597 1545.82 Q718.232 1545.82 720.037 1542.27 Q721.866 1538.71 721.866 1531.6 Q721.866 1524.47 720.037 1520.93 Q718.232 1517.37 714.597 1517.37 M714.597 1513.66 Q720.408 1513.66 723.463 1518.27 Q726.542 1522.85 726.542 1531.6 Q726.542 1540.33 723.463 1544.94 Q720.408 1549.52 714.597 1549.52 Q708.787 1549.52 705.709 1544.94 Q702.653 1540.33 702.653 1531.6 Q702.653 1522.85 705.709 1518.27 Q708.787 1513.66 714.597 1513.66 Z" fill="#000000" fill-rule="evenodd" fill-opacity="1" /><path clip-path="url(#clip830)" d="M734.759 1542.97 L739.644 1542.97 L739.644 1548.85 L734.759 1548.85 L734.759 1542.97 Z" fill="#000000" fill-rule="evenodd" fill-opacity="1" /><path clip-path="url(#clip830)" d="M749.875 1514.29 L768.231 1514.29 L768.231 1518.22 L754.157 1518.22 L754.157 1526.7 Q755.176 1526.35 756.194 1526.19 Q757.213 1526 758.231 1526 Q764.018 1526 767.398 1529.17 Q770.778 1532.34 770.778 1537.76 Q770.778 1543.34 767.305 1546.44 Q763.833 1549.52 757.514 1549.52 Q755.338 1549.52 753.069 1549.15 Q750.824 1548.78 748.417 1548.04 L748.417 1543.34 Q750.5 1544.47 752.722 1545.03 Q754.944 1545.58 757.421 1545.58 Q761.426 1545.58 763.764 1543.48 Q766.102 1541.37 766.102 1537.76 Q766.102 1534.15 763.764 1532.04 Q761.426 1529.94 757.421 1529.94 Q755.546 1529.94 753.671 1530.35 Q751.819 1530.77 749.875 1531.65 L749.875 1514.29 Z" fill="#000000" fill-rule="evenodd" fill-opacity="1" /><path clip-path="url(#clip830)" d="M1221.83 1544.91 L1229.47 1544.91 L1229.47 1518.55 L1221.16 1520.21 L1221.16 1515.95 L1229.42 1514.29 L1234.1 1514.29 L1234.1 1544.91 L1241.74 1544.91 L1241.74 1548.85 L1221.83 1548.85 L1221.83 1544.91 Z" fill="#000000" fill-rule="evenodd" fill-opacity="1" /><path clip-path="url(#clip830)" d="M1251.18 1542.97 L1256.07 1542.97 L1256.07 1548.85 L1251.18 1548.85 L1251.18 1542.97 Z" fill="#000000" fill-rule="evenodd" fill-opacity="1" /><path clip-path="url(#clip830)" d="M1276.25 1517.37 Q1272.64 1517.37 1270.81 1520.93 Q1269.01 1524.47 1269.01 1531.6 Q1269.01 1538.71 1270.81 1542.27 Q1272.64 1545.82 1276.25 1545.82 Q1279.89 1545.82 1281.69 1542.27 Q1283.52 1538.71 1283.52 1531.6 Q1283.52 1524.47 1281.69 1520.93 Q1279.89 1517.37 1276.25 1517.37 M1276.25 1513.66 Q1282.06 1513.66 1285.12 1518.27 Q1288.2 1522.85 1288.2 1531.6 Q1288.2 1540.33 1285.12 1544.94 Q1282.06 1549.52 1276.25 1549.52 Q1270.44 1549.52 1267.36 1544.94 Q1264.31 1540.33 1264.31 1531.6 Q1264.31 1522.85 1267.36 1518.27 Q1270.44 1513.66 1276.25 1513.66 Z" fill="#000000" fill-rule="evenodd" fill-opacity="1" /><path clip-path="url(#clip830)" d="M1740.29 1544.91 L1747.93 1544.91 L1747.93 1518.55 L1739.62 1520.21 L1739.62 1515.95 L1747.88 1514.29 L1752.56 1514.29 L1752.56 1544.91 L1760.2 1544.91 L1760.2 1548.85 L1740.29 1548.85 L1740.29 1544.91 Z" fill="#000000" fill-rule="evenodd" fill-opacity="1" /><path clip-path="url(#clip830)" d="M1769.64 1542.97 L1774.53 1542.97 L1774.53 1548.85 L1769.64 1548.85 L1769.64 1542.97 Z" fill="#000000" fill-rule="evenodd" fill-opacity="1" /><path clip-path="url(#clip830)" d="M1784.76 1514.29 L1803.11 1514.29 L1803.11 1518.22 L1789.04 1518.22 L1789.04 1526.7 Q1790.06 1526.35 1791.08 1526.19 Q1792.09 1526 1793.11 1526 Q1798.9 1526 1802.28 1529.17 Q1805.66 1532.34 1805.66 1537.76 Q1805.66 1543.34 1802.19 1546.44 Q1798.72 1549.52 1792.4 1549.52 Q1790.22 1549.52 1787.95 1549.15 Q1785.71 1548.78 1783.3 1548.04 L1783.3 1543.34 Q1785.38 1544.47 1787.6 1545.03 Q1789.83 1545.58 1792.3 1545.58 Q1796.31 1545.58 1798.65 1543.48 Q1800.98 1541.37 1800.98 1537.76 Q1800.98 1534.15 1798.65 1532.04 Q1796.31 1529.94 1792.3 1529.94 Q1790.43 1529.94 1788.55 1530.35 Q1786.7 1530.77 1784.76 1531.65 L1784.76 1514.29 Z" fill="#000000" fill-rule="evenodd" fill-opacity="1" /><path clip-path="url(#clip830)" d="M2261.84 1544.91 L2278.16 1544.91 L2278.16 1548.85 L2256.21 1548.85 L2256.21 1544.91 Q2258.88 1542.16 2263.46 1537.53 Q2268.07 1532.88 2269.25 1531.53 Q2271.49 1529.01 2272.37 1527.27 Q2273.27 1525.51 2273.27 1523.82 Q2273.27 1521.07 2271.33 1519.33 Q2269.41 1517.6 2266.31 1517.6 Q2264.11 1517.6 2261.65 1518.36 Q2259.22 1519.13 2256.45 1520.68 L2256.45 1515.95 Q2259.27 1514.82 2261.72 1514.24 Q2264.18 1513.66 2266.21 1513.66 Q2271.58 1513.66 2274.78 1516.35 Q2277.97 1519.03 2277.97 1523.52 Q2277.97 1525.65 2277.16 1527.57 Q2276.38 1529.47 2274.27 1532.07 Q2273.69 1532.74 2270.59 1535.95 Q2267.49 1539.15 2261.84 1544.91 Z" fill="#000000" fill-rule="evenodd" fill-opacity="1" /><path clip-path="url(#clip830)" d="M2287.97 1542.97 L2292.86 1542.97 L2292.86 1548.85 L2287.97 1548.85 L2287.97 1542.97 Z" fill="#000000" fill-rule="evenodd" fill-opacity="1" /><path clip-path="url(#clip830)" d="M2313.04 1517.37 Q2309.43 1517.37 2307.6 1520.93 Q2305.8 1524.47 2305.8 1531.6 Q2305.8 1538.71 2307.6 1542.27 Q2309.43 1545.82 2313.04 1545.82 Q2316.68 1545.82 2318.48 1542.27 Q2320.31 1538.71 2320.31 1531.6 Q2320.31 1524.47 2318.48 1520.93 Q2316.68 1517.37 2313.04 1517.37 M2313.04 1513.66 Q2318.85 1513.66 2321.91 1518.27 Q2324.99 1522.85 2324.99 1531.6 Q2324.99 1540.33 2321.91 1544.94 Q2318.85 1549.52 2313.04 1549.52 Q2307.23 1549.52 2304.15 1544.94 Q2301.1 1540.33 2301.1 1531.6 Q2301.1 1522.85 2304.15 1518.27 Q2307.23 1513.66 2313.04 1513.66 Z" fill="#000000" fill-rule="evenodd" fill-opacity="1" /><polyline clip-path="url(#clip832)" style="stroke:#000000; stroke-linecap:butt; stroke-linejoin:round; stroke-width:2; stroke-opacity:0.1; fill:none" points="
  156.598,1324.5 2352.76,1324.5 
  "/>
<polyline clip-path="url(#clip832)" style="stroke:#000000; stroke-linecap:butt; stroke-linejoin:round; stroke-width:2; stroke-opacity:0.1; fill:none" points="
  156.598,1015.37 2352.76,1015.37 
  "/>
<polyline clip-path="url(#clip832)" style="stroke:#000000; stroke-linecap:butt; stroke-linejoin:round; stroke-width:2; stroke-opacity:0.1; fill:none" points="
  156.598,706.238 2352.76,706.238 
  "/>
<polyline clip-path="url(#clip832)" style="stroke:#000000; stroke-linecap:butt; stroke-linejoin:round; stroke-width:2; stroke-opacity:0.1; fill:none" points="
  156.598,397.107 2352.76,397.107 
  "/>
<polyline clip-path="url(#clip832)" style="stroke:#000000; stroke-linecap:butt; stroke-linejoin:round; stroke-width:2; stroke-opacity:0.1; fill:none" points="
  156.598,87.9763 2352.76,87.9763 
  "/>
<polyline clip-path="url(#clip830)" style="stroke:#000000; stroke-linecap:butt; stroke-linejoin:round; stroke-width:4; stroke-opacity:1; fill:none" points="
  156.598,1486.45 156.598,47.2441 
  "/>
<polyline clip-path="url(#clip830)" style="stroke:#000000; stroke-linecap:butt; stroke-linejoin:round; stroke-width:4; stroke-opacity:1; fill:none" points="
  156.598,1324.5 175.496,1324.5 
  "/>
<polyline clip-path="url(#clip830)" style="stroke:#000000; stroke-linecap:butt; stroke-linejoin:round; stroke-width:4; stroke-opacity:1; fill:none" points="
  156.598,1015.37 175.496,1015.37 
  "/>
<polyline clip-path="url(#clip830)" style="stroke:#000000; stroke-linecap:butt; stroke-linejoin:round; stroke-width:4; stroke-opacity:1; fill:none" points="
  156.598,706.238 175.496,706.238 
  "/>
<polyline clip-path="url(#clip830)" style="stroke:#000000; stroke-linecap:butt; stroke-linejoin:round; stroke-width:4; stroke-opacity:1; fill:none" points="
  156.598,397.107 175.496,397.107 
  "/>
<polyline clip-path="url(#clip830)" style="stroke:#000000; stroke-linecap:butt; stroke-linejoin:round; stroke-width:4; stroke-opacity:1; fill:none" points="
  156.598,87.9763 175.496,87.9763 
  "/>
<path clip-path="url(#clip830)" d="M65.0198 1310.3 Q61.4087 1310.3 59.58 1313.86 Q57.7745 1317.41 57.7745 1324.53 Q57.7745 1331.64 59.58 1335.21 Q61.4087 1338.75 65.0198 1338.75 Q68.6541 1338.75 70.4596 1335.21 Q72.2883 1331.64 72.2883 1324.53 Q72.2883 1317.41 70.4596 1313.86 Q68.6541 1310.3 65.0198 1310.3 M65.0198 1306.6 Q70.83 1306.6 73.8855 1311.2 Q76.9642 1315.79 76.9642 1324.53 Q76.9642 1333.26 73.8855 1337.87 Q70.83 1342.45 65.0198 1342.45 Q59.2097 1342.45 56.131 1337.87 Q53.0754 1333.26 53.0754 1324.53 Q53.0754 1315.79 56.131 1311.2 Q59.2097 1306.6 65.0198 1306.6 Z" fill="#000000" fill-rule="evenodd" fill-opacity="1" /><path clip-path="url(#clip830)" d="M85.1818 1335.9 L90.066 1335.9 L90.066 1341.78 L85.1818 1341.78 L85.1818 1335.9 Z" fill="#000000" fill-rule="evenodd" fill-opacity="1" /><path clip-path="url(#clip830)" d="M104.279 1337.85 L120.598 1337.85 L120.598 1341.78 L98.6539 1341.78 L98.6539 1337.85 Q101.316 1335.09 105.899 1330.46 Q110.506 1325.81 111.686 1324.47 Q113.932 1321.94 114.811 1320.21 Q115.714 1318.45 115.714 1316.76 Q115.714 1314 113.77 1312.27 Q111.848 1310.53 108.746 1310.53 Q106.547 1310.53 104.094 1311.29 Q101.663 1312.06 98.8854 1313.61 L98.8854 1308.89 Q101.709 1307.75 104.163 1307.17 Q106.617 1306.6 108.654 1306.6 Q114.024 1306.6 117.219 1309.28 Q120.413 1311.97 120.413 1316.46 Q120.413 1318.59 119.603 1320.51 Q118.816 1322.41 116.709 1325 Q116.131 1325.67 113.029 1328.89 Q109.927 1332.08 104.279 1337.85 Z" fill="#000000" fill-rule="evenodd" fill-opacity="1" /><path clip-path="url(#clip830)" d="M62.9365 1001.17 Q59.3254 1001.17 57.4967 1004.73 Q55.6912 1008.27 55.6912 1015.4 Q55.6912 1022.51 57.4967 1026.08 Q59.3254 1029.62 62.9365 1029.62 Q66.5707 1029.62 68.3763 1026.08 Q70.205 1022.51 70.205 1015.4 Q70.205 1008.27 68.3763 1004.73 Q66.5707 1001.17 62.9365 1001.17 M62.9365 997.464 Q68.7467 997.464 71.8022 1002.07 Q74.8809 1006.65 74.8809 1015.4 Q74.8809 1024.13 71.8022 1028.74 Q68.7467 1033.32 62.9365 1033.32 Q57.1264 1033.32 54.0477 1028.74 Q50.9921 1024.13 50.9921 1015.4 Q50.9921 1006.65 54.0477 1002.07 Q57.1264 997.464 62.9365 997.464 Z" fill="#000000" fill-rule="evenodd" fill-opacity="1" /><path clip-path="url(#clip830)" d="M83.0984 1026.77 L87.9827 1026.77 L87.9827 1032.65 L83.0984 1032.65 L83.0984 1026.77 Z" fill="#000000" fill-rule="evenodd" fill-opacity="1" /><path clip-path="url(#clip830)" d="M111.015 1002.16 L99.2095 1020.61 L111.015 1020.61 L111.015 1002.16 M109.788 998.089 L115.668 998.089 L115.668 1020.61 L120.598 1020.61 L120.598 1024.5 L115.668 1024.5 L115.668 1032.65 L111.015 1032.65 L111.015 1024.5 L95.4132 1024.5 L95.4132 1019.99 L109.788 998.089 Z" fill="#000000" fill-rule="evenodd" fill-opacity="1" /><path clip-path="url(#clip830)" d="M63.2606 692.037 Q59.6495 692.037 57.8208 695.602 Q56.0152 699.143 56.0152 706.273 Q56.0152 713.379 57.8208 716.944 Q59.6495 720.486 63.2606 720.486 Q66.8948 720.486 68.7004 716.944 Q70.5291 713.379 70.5291 706.273 Q70.5291 699.143 68.7004 695.602 Q66.8948 692.037 63.2606 692.037 M63.2606 688.333 Q69.0707 688.333 72.1263 692.94 Q75.205 697.523 75.205 706.273 Q75.205 715 72.1263 719.606 Q69.0707 724.19 63.2606 724.19 Q57.4504 724.19 54.3717 719.606 Q51.3162 715 51.3162 706.273 Q51.3162 697.523 54.3717 692.94 Q57.4504 688.333 63.2606 688.333 Z" fill="#000000" fill-rule="evenodd" fill-opacity="1" /><path clip-path="url(#clip830)" d="M83.4225 717.639 L88.3067 717.639 L88.3067 723.518 L83.4225 723.518 L83.4225 717.639 Z" fill="#000000" fill-rule="evenodd" fill-opacity="1" /><path clip-path="url(#clip830)" d="M109.071 704.375 Q105.922 704.375 104.071 706.528 Q102.242 708.68 102.242 712.43 Q102.242 716.157 104.071 718.333 Q105.922 720.486 109.071 720.486 Q112.219 720.486 114.047 718.333 Q115.899 716.157 115.899 712.43 Q115.899 708.68 114.047 706.528 Q112.219 704.375 109.071 704.375 M118.353 689.722 L118.353 693.981 Q116.594 693.148 114.788 692.708 Q113.006 692.268 111.246 692.268 Q106.617 692.268 104.163 695.393 Q101.733 698.518 101.385 704.838 Q102.751 702.824 104.811 701.759 Q106.871 700.671 109.348 700.671 Q114.557 700.671 117.566 703.842 Q120.598 706.991 120.598 712.43 Q120.598 717.754 117.45 720.972 Q114.302 724.19 109.071 724.19 Q103.075 724.19 99.9039 719.606 Q96.7326 715 96.7326 706.273 Q96.7326 698.079 100.621 693.218 Q104.51 688.333 111.061 688.333 Q112.82 688.333 114.603 688.68 Q116.408 689.028 118.353 689.722 Z" fill="#000000" fill-rule="evenodd" fill-opacity="1" /><path clip-path="url(#clip830)" d="M63.5152 382.906 Q59.9041 382.906 58.0754 386.471 Q56.2699 390.012 56.2699 397.142 Q56.2699 404.248 58.0754 407.813 Q59.9041 411.355 63.5152 411.355 Q67.1494 411.355 68.955 407.813 Q70.7837 404.248 70.7837 397.142 Q70.7837 390.012 68.955 386.471 Q67.1494 382.906 63.5152 382.906 M63.5152 379.202 Q69.3254 379.202 72.3809 383.809 Q75.4596 388.392 75.4596 397.142 Q75.4596 405.869 72.3809 410.475 Q69.3254 415.059 63.5152 415.059 Q57.7051 415.059 54.6264 410.475 Q51.5708 405.869 51.5708 397.142 Q51.5708 388.392 54.6264 383.809 Q57.7051 379.202 63.5152 379.202 Z" fill="#000000" fill-rule="evenodd" fill-opacity="1" /><path clip-path="url(#clip830)" d="M83.6771 408.508 L88.5614 408.508 L88.5614 414.387 L83.6771 414.387 L83.6771 408.508 Z" fill="#000000" fill-rule="evenodd" fill-opacity="1" /><path clip-path="url(#clip830)" d="M108.746 397.975 Q105.413 397.975 103.492 399.758 Q101.594 401.54 101.594 404.665 Q101.594 407.79 103.492 409.572 Q105.413 411.355 108.746 411.355 Q112.08 411.355 114.001 409.572 Q115.922 407.767 115.922 404.665 Q115.922 401.54 114.001 399.758 Q112.103 397.975 108.746 397.975 M104.071 395.985 Q101.061 395.244 99.3715 393.184 Q97.7048 391.124 97.7048 388.161 Q97.7048 384.017 100.645 381.61 Q103.608 379.202 108.746 379.202 Q113.908 379.202 116.848 381.61 Q119.788 384.017 119.788 388.161 Q119.788 391.124 118.098 393.184 Q116.432 395.244 113.445 395.985 Q116.825 396.772 118.7 399.063 Q120.598 401.355 120.598 404.665 Q120.598 409.688 117.52 412.373 Q114.464 415.059 108.746 415.059 Q103.029 415.059 99.9502 412.373 Q96.8947 409.688 96.8947 404.665 Q96.8947 401.355 98.7928 399.063 Q100.691 396.772 104.071 395.985 M102.358 388.6 Q102.358 391.286 104.024 392.79 Q105.714 394.295 108.746 394.295 Q111.756 394.295 113.445 392.79 Q115.158 391.286 115.158 388.6 Q115.158 385.915 113.445 384.411 Q111.756 382.906 108.746 382.906 Q105.714 382.906 104.024 384.411 Q102.358 385.915 102.358 388.6 Z" fill="#000000" fill-rule="evenodd" fill-opacity="1" /><path clip-path="url(#clip830)" d="M54.2328 101.321 L61.8717 101.321 L61.8717 74.9555 L53.5616 76.6222 L53.5616 72.3629 L61.8254 70.6963 L66.5013 70.6963 L66.5013 101.321 L74.1402 101.321 L74.1402 105.256 L54.2328 105.256 L54.2328 101.321 Z" fill="#000000" fill-rule="evenodd" fill-opacity="1" /><path clip-path="url(#clip830)" d="M83.5845 99.3767 L88.4688 99.3767 L88.4688 105.256 L83.5845 105.256 L83.5845 99.3767 Z" fill="#000000" fill-rule="evenodd" fill-opacity="1" /><path clip-path="url(#clip830)" d="M108.654 73.775 Q105.043 73.775 103.214 77.3398 Q101.409 80.8814 101.409 88.011 Q101.409 95.1174 103.214 98.6822 Q105.043 102.224 108.654 102.224 Q112.288 102.224 114.094 98.6822 Q115.922 95.1174 115.922 88.011 Q115.922 80.8814 114.094 77.3398 Q112.288 73.775 108.654 73.775 M108.654 70.0713 Q114.464 70.0713 117.52 74.6777 Q120.598 79.261 120.598 88.011 Q120.598 96.7378 117.52 101.344 Q114.464 105.928 108.654 105.928 Q102.844 105.928 99.765 101.344 Q96.7095 96.7378 96.7095 88.011 Q96.7095 79.261 99.765 74.6777 Q102.844 70.0713 108.654 70.0713 Z" fill="#000000" fill-rule="evenodd" fill-opacity="1" /><polyline clip-path="url(#clip832)" style="stroke:#009af9; stroke-linecap:butt; stroke-linejoin:round; stroke-width:8; stroke-opacity:1; fill:none" points="
  218.754,87.9763 322.346,242.542 425.938,381.651 529.531,506.849 633.123,619.527 736.715,720.937 840.308,812.207 943.9,894.349 1047.49,968.277 1151.08,1034.81 
  1254.68,1094.69 1358.27,1148.59 1461.86,1197.09 1565.45,1240.75 1669.05,1280.03 1772.64,1315.39 1876.23,1347.22 1979.82,1375.86 2083.42,1401.64 2187.01,1424.84 
  2290.6,1445.72 
  "/>
<polyline clip-path="url(#clip832)" style="stroke:#e26f46; stroke-linecap:butt; stroke-linejoin:round; stroke-width:8; stroke-opacity:1; fill:none" points="
  218.754,87.9763 222.126,92.9996 225.498,98.0066 228.87,102.997 232.242,107.972 263.423,153.21 294.604,197.106 325.785,239.701 356.966,281.032 394.443,329.091 
  431.92,375.442 463.607,413.345 495.293,450.105 529.713,488.783 564.133,526.198 595.866,559.606 627.598,592.007 661.618,625.659 695.639,658.224 735.055,694.64 
  774.471,729.697 809.499,759.751 844.528,788.806 875.244,813.489 905.961,837.45 972.94,887.299 1040.32,934.296 1114.81,982.82 1185.69,1025.86 1259.39,1067.6 
  1321.42,1100.5 1397.17,1138.09 1466.55,1170.19 1530.63,1197.99 1595.54,1224.45 1668.29,1252.2 1734.21,1275.72 1809.69,1300.87 1879.57,1322.57 1948.47,1342.59 
  2015.36,1360.79 2083.94,1378.26 2159.07,1396.13 2268.21,1419.88 2290.6,1424.45 
  "/>
<path clip-path="url(#clip830)" d="
M1604.33 250.738 L2279.55 250.738 L2279.55 95.2176 L1604.33 95.2176  Z
  " fill="#ffffff" fill-rule="evenodd" fill-opacity="1"/>
<polyline clip-path="url(#clip830)" style="stroke:#000000; stroke-linecap:butt; stroke-linejoin:round; stroke-width:4; stroke-opacity:1; fill:none" points="
  1604.33,250.738 2279.55,250.738 2279.55,95.2176 1604.33,95.2176 1604.33,250.738 
  "/>
<polyline clip-path="url(#clip830)" style="stroke:#009af9; stroke-linecap:butt; stroke-linejoin:round; stroke-width:4; stroke-opacity:1; fill:none" points="
  1628.73,147.058 1775.14,147.058 
  "/>
<path clip-path="url(#clip830)" d="M1799.55 129.778 L1819.41 129.778 L1819.41 133.713 L1804.22 133.713 L1804.22 143.898 L1817.93 143.898 L1817.93 147.833 L1804.22 147.833 L1804.22 164.338 L1799.55 164.338 L1799.55 129.778 Z" fill="#000000" fill-rule="evenodd" fill-opacity="1" /><path clip-path="url(#clip830)" d="M1826.81 129.778 L1848.67 129.778 L1848.67 133.713 L1831.49 133.713 L1831.49 143.944 L1847.95 143.944 L1847.95 147.879 L1831.49 147.879 L1831.49 160.402 L1849.08 160.402 L1849.08 164.338 L1826.81 164.338 L1826.81 129.778 Z" fill="#000000" fill-rule="evenodd" fill-opacity="1" /><path clip-path="url(#clip830)" d="M1891.84 143.389 Q1893.43 140.518 1895.66 139.153 Q1897.88 137.787 1900.89 137.787 Q1904.94 137.787 1907.14 140.634 Q1909.34 143.458 1909.34 148.689 L1909.34 164.338 L1905.05 164.338 L1905.05 148.828 Q1905.05 145.102 1903.74 143.296 Q1902.42 141.49 1899.71 141.49 Q1896.4 141.49 1894.48 143.69 Q1892.55 145.889 1892.55 149.685 L1892.55 164.338 L1888.27 164.338 L1888.27 148.828 Q1888.27 145.078 1886.95 143.296 Q1885.63 141.49 1882.88 141.49 Q1879.61 141.49 1877.69 143.713 Q1875.77 145.912 1875.77 149.685 L1875.77 164.338 L1871.49 164.338 L1871.49 138.412 L1875.77 138.412 L1875.77 142.44 Q1877.23 140.055 1879.27 138.921 Q1881.3 137.787 1884.11 137.787 Q1886.93 137.787 1888.9 139.222 Q1890.89 140.657 1891.84 143.389 Z" fill="#000000" fill-rule="evenodd" fill-opacity="1" /><path clip-path="url(#clip830)" d="M1940.01 150.31 L1940.01 152.393 L1920.42 152.393 Q1920.7 156.791 1923.06 159.106 Q1925.45 161.398 1929.68 161.398 Q1932.14 161.398 1934.43 160.796 Q1936.74 160.194 1939.01 158.99 L1939.01 163.018 Q1936.72 163.99 1934.31 164.5 Q1931.91 165.009 1929.43 165.009 Q1923.23 165.009 1919.59 161.398 Q1915.98 157.787 1915.98 151.629 Q1915.98 145.264 1919.41 141.537 Q1922.86 137.787 1928.69 137.787 Q1933.92 137.787 1936.95 141.166 Q1940.01 144.523 1940.01 150.31 M1935.75 149.06 Q1935.7 145.565 1933.78 143.481 Q1931.88 141.398 1928.73 141.398 Q1925.17 141.398 1923.02 143.412 Q1920.89 145.426 1920.56 149.083 L1935.75 149.06 Z" fill="#000000" fill-rule="evenodd" fill-opacity="1" /><path clip-path="url(#clip830)" d="M1951.21 131.051 L1951.21 138.412 L1959.98 138.412 L1959.98 141.722 L1951.21 141.722 L1951.21 155.796 Q1951.21 158.967 1952.07 159.87 Q1952.95 160.773 1955.61 160.773 L1959.98 160.773 L1959.98 164.338 L1955.61 164.338 Q1950.68 164.338 1948.8 162.509 Q1946.93 160.657 1946.93 155.796 L1946.93 141.722 L1943.8 141.722 L1943.8 138.412 L1946.93 138.412 L1946.93 131.051 L1951.21 131.051 Z" fill="#000000" fill-rule="evenodd" fill-opacity="1" /><path clip-path="url(#clip830)" d="M1987.14 148.689 L1987.14 164.338 L1982.88 164.338 L1982.88 148.828 Q1982.88 145.148 1981.44 143.319 Q1980.01 141.49 1977.14 141.49 Q1973.69 141.49 1971.7 143.69 Q1969.71 145.889 1969.71 149.685 L1969.71 164.338 L1965.42 164.338 L1965.42 128.319 L1969.71 128.319 L1969.71 142.44 Q1971.23 140.102 1973.29 138.944 Q1975.38 137.787 1978.09 137.787 Q1982.55 137.787 1984.85 140.565 Q1987.14 143.319 1987.14 148.689 Z" fill="#000000" fill-rule="evenodd" fill-opacity="1" /><path clip-path="url(#clip830)" d="M2005.68 141.398 Q2002.25 141.398 2000.26 144.083 Q1998.27 146.745 1998.27 151.398 Q1998.27 156.051 2000.24 158.736 Q2002.23 161.398 2005.68 161.398 Q2009.08 161.398 2011.07 158.713 Q2013.06 156.027 2013.06 151.398 Q2013.06 146.791 2011.07 144.106 Q2009.08 141.398 2005.68 141.398 M2005.68 137.787 Q2011.23 137.787 2014.41 141.398 Q2017.58 145.009 2017.58 151.398 Q2017.58 157.764 2014.41 161.398 Q2011.23 165.009 2005.68 165.009 Q2000.1 165.009 1996.93 161.398 Q1993.78 157.764 1993.78 151.398 Q1993.78 145.009 1996.93 141.398 Q2000.1 137.787 2005.68 137.787 Z" fill="#000000" fill-rule="evenodd" fill-opacity="1" /><path clip-path="url(#clip830)" d="M2041.7 142.347 L2041.7 128.319 L2045.96 128.319 L2045.96 164.338 L2041.7 164.338 L2041.7 160.449 Q2040.35 162.763 2038.29 163.898 Q2036.26 165.009 2033.39 165.009 Q2028.69 165.009 2025.73 161.259 Q2022.79 157.509 2022.79 151.398 Q2022.79 145.287 2025.73 141.537 Q2028.69 137.787 2033.39 137.787 Q2036.26 137.787 2038.29 138.921 Q2040.35 140.032 2041.7 142.347 M2027.18 151.398 Q2027.18 156.097 2029.1 158.782 Q2031.05 161.444 2034.43 161.444 Q2037.81 161.444 2039.75 158.782 Q2041.7 156.097 2041.7 151.398 Q2041.7 146.699 2039.75 144.037 Q2037.81 141.352 2034.43 141.352 Q2031.05 141.352 2029.1 144.037 Q2027.18 146.699 2027.18 151.398 Z" fill="#000000" fill-rule="evenodd" fill-opacity="1" /><polyline clip-path="url(#clip830)" style="stroke:#e26f46; stroke-linecap:butt; stroke-linejoin:round; stroke-width:4; stroke-opacity:1; fill:none" points="
  1628.73,198.898 1775.14,198.898 
  "/>
<path clip-path="url(#clip830)" d="M1815.38 186.224 L1809.04 203.423 L1821.74 203.423 L1815.38 186.224 M1812.74 181.618 L1818.04 181.618 L1831.21 216.178 L1826.35 216.178 L1823.2 207.312 L1807.62 207.312 L1804.48 216.178 L1799.55 216.178 L1812.74 181.618 Z" fill="#000000" fill-rule="evenodd" fill-opacity="1" /><path clip-path="url(#clip830)" d="M1857.62 200.529 L1857.62 216.178 L1853.36 216.178 L1853.36 200.668 Q1853.36 196.988 1851.93 195.159 Q1850.49 193.33 1847.62 193.33 Q1844.18 193.33 1842.18 195.53 Q1840.19 197.729 1840.19 201.525 L1840.19 216.178 L1835.91 216.178 L1835.91 190.252 L1840.19 190.252 L1840.19 194.28 Q1841.72 191.942 1843.78 190.784 Q1845.86 189.627 1848.57 189.627 Q1853.04 189.627 1855.33 192.405 Q1857.62 195.159 1857.62 200.529 Z" fill="#000000" fill-rule="evenodd" fill-opacity="1" /><path clip-path="url(#clip830)" d="M1877.9 203.145 Q1872.74 203.145 1870.75 204.326 Q1868.76 205.506 1868.76 208.354 Q1868.76 210.622 1870.24 211.965 Q1871.74 213.284 1874.31 213.284 Q1877.86 213.284 1879.99 210.784 Q1882.14 208.261 1882.14 204.094 L1882.14 203.145 L1877.9 203.145 M1886.4 201.386 L1886.4 216.178 L1882.14 216.178 L1882.14 212.242 Q1880.68 214.603 1878.5 215.738 Q1876.33 216.849 1873.18 216.849 Q1869.2 216.849 1866.84 214.627 Q1864.5 212.381 1864.5 208.631 Q1864.5 204.256 1867.42 202.034 Q1870.36 199.812 1876.17 199.812 L1882.14 199.812 L1882.14 199.395 Q1882.14 196.455 1880.19 194.858 Q1878.27 193.238 1874.78 193.238 Q1872.55 193.238 1870.45 193.77 Q1868.34 194.303 1866.4 195.367 L1866.4 191.432 Q1868.74 190.53 1870.93 190.09 Q1873.13 189.627 1875.22 189.627 Q1880.84 189.627 1883.62 192.543 Q1886.4 195.46 1886.4 201.386 Z" fill="#000000" fill-rule="evenodd" fill-opacity="1" /><path clip-path="url(#clip830)" d="M1895.17 180.159 L1899.43 180.159 L1899.43 216.178 L1895.17 216.178 L1895.17 180.159 Z" fill="#000000" fill-rule="evenodd" fill-opacity="1" /><path clip-path="url(#clip830)" d="M1919.13 218.585 Q1917.32 223.215 1915.61 224.627 Q1913.9 226.039 1911.03 226.039 L1907.62 226.039 L1907.62 222.474 L1910.12 222.474 Q1911.88 222.474 1912.86 221.64 Q1913.83 220.807 1915.01 217.705 L1915.77 215.761 L1905.29 190.252 L1909.8 190.252 L1917.9 210.529 L1926 190.252 L1930.52 190.252 L1919.13 218.585 Z" fill="#000000" fill-rule="evenodd" fill-opacity="1" /><path clip-path="url(#clip830)" d="M1940.61 182.891 L1940.61 190.252 L1949.38 190.252 L1949.38 193.562 L1940.61 193.562 L1940.61 207.636 Q1940.61 210.807 1941.47 211.71 Q1942.35 212.613 1945.01 212.613 L1949.38 212.613 L1949.38 216.178 L1945.01 216.178 Q1940.08 216.178 1938.2 214.349 Q1936.33 212.497 1936.33 207.636 L1936.33 193.562 L1933.2 193.562 L1933.2 190.252 L1936.33 190.252 L1936.33 182.891 L1940.61 182.891 Z" fill="#000000" fill-rule="evenodd" fill-opacity="1" /><path clip-path="url(#clip830)" d="M1954.98 190.252 L1959.24 190.252 L1959.24 216.178 L1954.98 216.178 L1954.98 190.252 M1954.98 180.159 L1959.24 180.159 L1959.24 185.553 L1954.98 185.553 L1954.98 180.159 Z" fill="#000000" fill-rule="evenodd" fill-opacity="1" /><path clip-path="url(#clip830)" d="M1986.81 191.247 L1986.81 195.229 Q1985.01 194.233 1983.18 193.747 Q1981.37 193.238 1979.52 193.238 Q1975.38 193.238 1973.09 195.877 Q1970.79 198.492 1970.79 203.238 Q1970.79 207.983 1973.09 210.622 Q1975.38 213.238 1979.52 213.238 Q1981.37 213.238 1983.18 212.752 Q1985.01 212.242 1986.81 211.247 L1986.81 215.182 Q1985.03 216.016 1983.11 216.432 Q1981.21 216.849 1979.06 216.849 Q1973.2 216.849 1969.75 213.168 Q1966.3 209.488 1966.3 203.238 Q1966.3 196.895 1969.78 193.261 Q1973.27 189.627 1979.34 189.627 Q1981.3 189.627 1983.18 190.043 Q1985.05 190.437 1986.81 191.247 Z" fill="#000000" fill-rule="evenodd" fill-opacity="1" /><path clip-path="url(#clip830)" d="M2006 203.145 Q2000.84 203.145 1998.85 204.326 Q1996.86 205.506 1996.86 208.354 Q1996.86 210.622 1998.34 211.965 Q1999.85 213.284 2002.42 213.284 Q2005.96 213.284 2008.09 210.784 Q2010.24 208.261 2010.24 204.094 L2010.24 203.145 L2006 203.145 M2014.5 201.386 L2014.5 216.178 L2010.24 216.178 L2010.24 212.242 Q2008.78 214.603 2006.6 215.738 Q2004.43 216.849 2001.28 216.849 Q1997.3 216.849 1994.94 214.627 Q1992.6 212.381 1992.6 208.631 Q1992.6 204.256 1995.52 202.034 Q1998.46 199.812 2004.27 199.812 L2010.24 199.812 L2010.24 199.395 Q2010.24 196.455 2008.29 194.858 Q2006.37 193.238 2002.88 193.238 Q2000.66 193.238 1998.55 193.77 Q1996.44 194.303 1994.5 195.367 L1994.5 191.432 Q1996.84 190.53 1999.04 190.09 Q2001.23 189.627 2003.32 189.627 Q2008.94 189.627 2011.72 192.543 Q2014.5 195.46 2014.5 201.386 Z" fill="#000000" fill-rule="evenodd" fill-opacity="1" /><path clip-path="url(#clip830)" d="M2023.27 180.159 L2027.53 180.159 L2027.53 216.178 L2023.27 216.178 L2023.27 180.159 Z" fill="#000000" fill-rule="evenodd" fill-opacity="1" /><path clip-path="url(#clip830)" d="M2068.04 191.016 L2068.04 195.043 Q2066.23 194.117 2064.29 193.655 Q2062.35 193.192 2060.26 193.192 Q2057.09 193.192 2055.49 194.164 Q2053.92 195.136 2053.92 197.08 Q2053.92 198.562 2055.05 199.418 Q2056.19 200.252 2059.61 201.016 L2061.07 201.34 Q2065.61 202.312 2067.51 204.094 Q2069.43 205.854 2069.43 209.025 Q2069.43 212.636 2066.56 214.742 Q2063.71 216.849 2058.71 216.849 Q2056.63 216.849 2054.36 216.432 Q2052.11 216.039 2049.61 215.228 L2049.61 210.83 Q2051.97 212.057 2054.27 212.682 Q2056.56 213.284 2058.8 213.284 Q2061.81 213.284 2063.43 212.266 Q2065.05 211.224 2065.05 209.349 Q2065.05 207.613 2063.87 206.687 Q2062.72 205.761 2058.76 204.904 L2057.28 204.557 Q2053.32 203.724 2051.56 202.011 Q2049.8 200.275 2049.8 197.266 Q2049.8 193.608 2052.39 191.618 Q2054.98 189.627 2059.75 189.627 Q2062.11 189.627 2064.2 189.974 Q2066.28 190.321 2068.04 191.016 Z" fill="#000000" fill-rule="evenodd" fill-opacity="1" /><path clip-path="url(#clip830)" d="M2086.26 193.238 Q2082.83 193.238 2080.84 195.923 Q2078.85 198.585 2078.85 203.238 Q2078.85 207.891 2080.82 210.576 Q2082.81 213.238 2086.26 213.238 Q2089.66 213.238 2091.65 210.553 Q2093.64 207.867 2093.64 203.238 Q2093.64 198.631 2091.65 195.946 Q2089.66 193.238 2086.26 193.238 M2086.26 189.627 Q2091.81 189.627 2094.98 193.238 Q2098.16 196.849 2098.16 203.238 Q2098.16 209.604 2094.98 213.238 Q2091.81 216.849 2086.26 216.849 Q2080.68 216.849 2077.51 213.238 Q2074.36 209.604 2074.36 203.238 Q2074.36 196.849 2077.51 193.238 Q2080.68 189.627 2086.26 189.627 Z" fill="#000000" fill-rule="evenodd" fill-opacity="1" /><path clip-path="url(#clip830)" d="M2105.22 180.159 L2109.47 180.159 L2109.47 216.178 L2105.22 216.178 L2105.22 180.159 Z" fill="#000000" fill-rule="evenodd" fill-opacity="1" /><path clip-path="url(#clip830)" d="M2117.95 205.946 L2117.95 190.252 L2122.21 190.252 L2122.21 205.784 Q2122.21 209.465 2123.64 211.316 Q2125.08 213.145 2127.95 213.145 Q2131.4 213.145 2133.39 210.946 Q2135.4 208.747 2135.4 204.951 L2135.4 190.252 L2139.66 190.252 L2139.66 216.178 L2135.4 216.178 L2135.4 212.196 Q2133.85 214.557 2131.79 215.715 Q2129.75 216.849 2127.04 216.849 Q2122.58 216.849 2120.26 214.071 Q2117.95 211.293 2117.95 205.946 M2128.66 189.627 L2128.66 189.627 Z" fill="#000000" fill-rule="evenodd" fill-opacity="1" /><path clip-path="url(#clip830)" d="M2152.65 182.891 L2152.65 190.252 L2161.42 190.252 L2161.42 193.562 L2152.65 193.562 L2152.65 207.636 Q2152.65 210.807 2153.5 211.71 Q2154.38 212.613 2157.04 212.613 L2161.42 212.613 L2161.42 216.178 L2157.04 216.178 Q2152.11 216.178 2150.24 214.349 Q2148.36 212.497 2148.36 207.636 L2148.36 193.562 L2145.24 193.562 L2145.24 190.252 L2148.36 190.252 L2148.36 182.891 L2152.65 182.891 Z" fill="#000000" fill-rule="evenodd" fill-opacity="1" /><path clip-path="url(#clip830)" d="M2167.02 190.252 L2171.28 190.252 L2171.28 216.178 L2167.02 216.178 L2167.02 190.252 M2167.02 180.159 L2171.28 180.159 L2171.28 185.553 L2167.02 185.553 L2167.02 180.159 Z" fill="#000000" fill-rule="evenodd" fill-opacity="1" /><path clip-path="url(#clip830)" d="M2190.24 193.238 Q2186.81 193.238 2184.82 195.923 Q2182.83 198.585 2182.83 203.238 Q2182.83 207.891 2184.8 210.576 Q2186.79 213.238 2190.24 213.238 Q2193.64 213.238 2195.63 210.553 Q2197.62 207.867 2197.62 203.238 Q2197.62 198.631 2195.63 195.946 Q2193.64 193.238 2190.24 193.238 M2190.24 189.627 Q2195.79 189.627 2198.96 193.238 Q2202.14 196.849 2202.14 203.238 Q2202.14 209.604 2198.96 213.238 Q2195.79 216.849 2190.24 216.849 Q2184.66 216.849 2181.49 213.238 Q2178.34 209.604 2178.34 203.238 Q2178.34 196.849 2181.49 193.238 Q2184.66 189.627 2190.24 189.627 Z" fill="#000000" fill-rule="evenodd" fill-opacity="1" /><path clip-path="url(#clip830)" d="M2230.75 200.529 L2230.75 216.178 L2226.49 216.178 L2226.49 200.668 Q2226.49 196.988 2225.05 195.159 Q2223.62 193.33 2220.75 193.33 Q2217.3 193.33 2215.31 195.53 Q2213.32 197.729 2213.32 201.525 L2213.32 216.178 L2209.03 216.178 L2209.03 190.252 L2213.32 190.252 L2213.32 194.28 Q2214.84 191.942 2216.9 190.784 Q2218.99 189.627 2221.7 189.627 Q2226.16 189.627 2228.46 192.405 Q2230.75 195.159 2230.75 200.529 Z" fill="#000000" fill-rule="evenodd" fill-opacity="1" /></svg>
