<?xml version="1.0" encoding="utf-8"?>
<svg xmlns="http://www.w3.org/2000/svg" xmlns:xlink="http://www.w3.org/1999/xlink" width="600" height="400" viewBox="0 0 2400 1600">
<defs>
  <clipPath id="clip050">
    <rect x="0" y="0" width="2400" height="1600"/>
  </clipPath>
</defs>
<path clip-path="url(#clip050)" d="
M0 1600 L2400 1600 L2400 0 L0 0  Z
  " fill="#ffffff" fill-rule="evenodd" fill-opacity="1"/>
<defs>
  <clipPath id="clip051">
    <rect x="480" y="0" width="1681" height="1600"/>
  </clipPath>
</defs>
<path clip-path="url(#clip050)" d="
M234.125 1423.18 L2352.76 1423.18 L2352.76 123.472 L234.125 123.472  Z
  " fill="#ffffff" fill-rule="evenodd" fill-opacity="1"/>
<defs>
  <clipPath id="clip052">
    <rect x="234" y="123" width="2120" height="1301"/>
  </clipPath>
</defs>
<polyline clip-path="url(#clip052)" style="stroke:#000000; stroke-linecap:butt; stroke-linejoin:round; stroke-width:2; stroke-opacity:0.1; fill:none" points="
  294.087,1423.18 294.087,123.472 
  "/>
<polyline clip-path="url(#clip052)" style="stroke:#000000; stroke-linecap:butt; stroke-linejoin:round; stroke-width:2; stroke-opacity:0.1; fill:none" points="
  793.633,1423.18 793.633,123.472 
  "/>
<polyline clip-path="url(#clip052)" style="stroke:#000000; stroke-linecap:butt; stroke-linejoin:round; stroke-width:2; stroke-opacity:0.1; fill:none" points="
  1293.18,1423.18 1293.18,123.472 
  "/>
<polyline clip-path="url(#clip052)" style="stroke:#000000; stroke-linecap:butt; stroke-linejoin:round; stroke-width:2; stroke-opacity:0.1; fill:none" points="
  1792.73,1423.18 1792.73,123.472 
  "/>
<polyline clip-path="url(#clip052)" style="stroke:#000000; stroke-linecap:butt; stroke-linejoin:round; stroke-width:2; stroke-opacity:0.1; fill:none" points="
  2292.27,1423.18 2292.27,123.472 
  "/>
<polyline clip-path="url(#clip050)" style="stroke:#000000; stroke-linecap:butt; stroke-linejoin:round; stroke-width:4; stroke-opacity:1; fill:none" points="
  234.125,1423.18 2352.76,1423.18 
  "/>
<polyline clip-path="url(#clip050)" style="stroke:#000000; stroke-linecap:butt; stroke-linejoin:round; stroke-width:4; stroke-opacity:1; fill:none" points="
  294.087,1423.18 294.087,1404.28 
  "/>
<polyline clip-path="url(#clip050)" style="stroke:#000000; stroke-linecap:butt; stroke-linejoin:round; stroke-width:4; stroke-opacity:1; fill:none" points="
  793.633,1423.18 793.633,1404.28 
  "/>
<polyline clip-path="url(#clip050)" style="stroke:#000000; stroke-linecap:butt; stroke-linejoin:round; stroke-width:4; stroke-opacity:1; fill:none" points="
  1293.18,1423.18 1293.18,1404.28 
  "/>
<polyline clip-path="url(#clip050)" style="stroke:#000000; stroke-linecap:butt; stroke-linejoin:round; stroke-width:4; stroke-opacity:1; fill:none" points="
  1792.73,1423.18 1792.73,1404.28 
  "/>
<polyline clip-path="url(#clip050)" style="stroke:#000000; stroke-linecap:butt; stroke-linejoin:round; stroke-width:4; stroke-opacity:1; fill:none" points="
  2292.27,1423.18 2292.27,1404.28 
  "/>
<path clip-path="url(#clip050)" d="M271.471 1454.1 Q267.86 1454.1 266.031 1457.66 Q264.226 1461.2 264.226 1468.33 Q264.226 1475.44 266.031 1479.01 Q267.86 1482.55 271.471 1482.55 Q275.105 1482.55 276.911 1479.01 Q278.74 1475.44 278.74 1468.33 Q278.74 1461.2 276.911 1457.66 Q275.105 1454.1 271.471 1454.1 M271.471 1450.39 Q277.281 1450.39 280.337 1455 Q283.415 1459.58 283.415 1468.33 Q283.415 1477.06 280.337 1481.67 Q277.281 1486.25 271.471 1486.25 Q265.661 1486.25 262.582 1481.67 Q259.527 1477.06 259.527 1468.33 Q259.527 1459.58 262.582 1455 Q265.661 1450.39 271.471 1450.39 Z" fill="#000000" fill-rule="evenodd" fill-opacity="1" /><path clip-path="url(#clip050)" d="M291.633 1479.7 L296.517 1479.7 L296.517 1485.58 L291.633 1485.58 L291.633 1479.7 Z" fill="#000000" fill-rule="evenodd" fill-opacity="1" /><path clip-path="url(#clip050)" d="M316.702 1454.1 Q313.091 1454.1 311.263 1457.66 Q309.457 1461.2 309.457 1468.33 Q309.457 1475.44 311.263 1479.01 Q313.091 1482.55 316.702 1482.55 Q320.337 1482.55 322.142 1479.01 Q323.971 1475.44 323.971 1468.33 Q323.971 1461.2 322.142 1457.66 Q320.337 1454.1 316.702 1454.1 M316.702 1450.39 Q322.512 1450.39 325.568 1455 Q328.647 1459.58 328.647 1468.33 Q328.647 1477.06 325.568 1481.67 Q322.512 1486.25 316.702 1486.25 Q310.892 1486.25 307.813 1481.67 Q304.758 1477.06 304.758 1468.33 Q304.758 1459.58 307.813 1455 Q310.892 1450.39 316.702 1450.39 Z" fill="#000000" fill-rule="evenodd" fill-opacity="1" /><path clip-path="url(#clip050)" d="M765.369 1481.64 L781.689 1481.64 L781.689 1485.58 L759.744 1485.58 L759.744 1481.64 Q762.406 1478.89 766.99 1474.26 Q771.596 1469.61 772.777 1468.27 Q775.022 1465.74 775.902 1464.01 Q776.804 1462.25 776.804 1460.56 Q776.804 1457.8 774.86 1456.07 Q772.939 1454.33 769.837 1454.33 Q767.638 1454.33 765.184 1455.09 Q762.754 1455.86 759.976 1457.41 L759.976 1452.69 Q762.8 1451.55 765.254 1450.97 Q767.707 1450.39 769.744 1450.39 Q775.115 1450.39 778.309 1453.08 Q781.504 1455.77 781.504 1460.26 Q781.504 1462.39 780.693 1464.31 Q779.906 1466.2 777.8 1468.8 Q777.221 1469.47 774.119 1472.69 Q771.017 1475.88 765.369 1481.64 Z" fill="#000000" fill-rule="evenodd" fill-opacity="1" /><path clip-path="url(#clip050)" d="M791.503 1479.7 L796.388 1479.7 L796.388 1485.58 L791.503 1485.58 L791.503 1479.7 Z" fill="#000000" fill-rule="evenodd" fill-opacity="1" /><path clip-path="url(#clip050)" d="M806.619 1451.02 L824.976 1451.02 L824.976 1454.96 L810.902 1454.96 L810.902 1463.43 Q811.92 1463.08 812.939 1462.92 Q813.957 1462.73 814.976 1462.73 Q820.763 1462.73 824.142 1465.9 Q827.522 1469.08 827.522 1474.49 Q827.522 1480.07 824.05 1483.17 Q820.577 1486.25 814.258 1486.25 Q812.082 1486.25 809.814 1485.88 Q807.568 1485.51 805.161 1484.77 L805.161 1480.07 Q807.244 1481.2 809.466 1481.76 Q811.689 1482.32 814.165 1482.32 Q818.17 1482.32 820.508 1480.21 Q822.846 1478.1 822.846 1474.49 Q822.846 1470.88 820.508 1468.77 Q818.17 1466.67 814.165 1466.67 Q812.29 1466.67 810.415 1467.08 Q808.564 1467.5 806.619 1468.38 L806.619 1451.02 Z" fill="#000000" fill-rule="evenodd" fill-opacity="1" /><path clip-path="url(#clip050)" d="M1260.34 1451.02 L1278.7 1451.02 L1278.7 1454.96 L1264.63 1454.96 L1264.63 1463.43 Q1265.64 1463.08 1266.66 1462.92 Q1267.68 1462.73 1268.7 1462.73 Q1274.49 1462.73 1277.87 1465.9 Q1281.25 1469.08 1281.25 1474.49 Q1281.25 1480.07 1277.77 1483.17 Q1274.3 1486.25 1267.98 1486.25 Q1265.81 1486.25 1263.54 1485.88 Q1261.29 1485.51 1258.89 1484.77 L1258.89 1480.07 Q1260.97 1481.2 1263.19 1481.76 Q1265.41 1482.32 1267.89 1482.32 Q1271.89 1482.32 1274.23 1480.21 Q1276.57 1478.1 1276.57 1474.49 Q1276.57 1470.88 1274.23 1468.77 Q1271.89 1466.67 1267.89 1466.67 Q1266.02 1466.67 1264.14 1467.08 Q1262.29 1467.5 1260.34 1468.38 L1260.34 1451.02 Z" fill="#000000" fill-rule="evenodd" fill-opacity="1" /><path clip-path="url(#clip050)" d="M1290.46 1479.7 L1295.34 1479.7 L1295.34 1485.58 L1290.46 1485.58 L1290.46 1479.7 Z" fill="#000000" fill-rule="evenodd" fill-opacity="1" /><path clip-path="url(#clip050)" d="M1315.53 1454.1 Q1311.92 1454.1 1310.09 1457.66 Q1308.28 1461.2 1308.28 1468.33 Q1308.28 1475.44 1310.09 1479.01 Q1311.92 1482.55 1315.53 1482.55 Q1319.16 1482.55 1320.97 1479.01 Q1322.8 1475.44 1322.8 1468.33 Q1322.8 1461.2 1320.97 1457.66 Q1319.16 1454.1 1315.53 1454.1 M1315.53 1450.39 Q1321.34 1450.39 1324.39 1455 Q1327.47 1459.58 1327.47 1468.33 Q1327.47 1477.06 1324.39 1481.67 Q1321.34 1486.25 1315.53 1486.25 Q1309.72 1486.25 1306.64 1481.67 Q1303.58 1477.06 1303.58 1468.33 Q1303.58 1459.58 1306.64 1455 Q1309.72 1450.39 1315.53 1450.39 Z" fill="#000000" fill-rule="evenodd" fill-opacity="1" /><path clip-path="url(#clip050)" d="M1759.05 1451.02 L1781.27 1451.02 L1781.27 1453.01 L1768.72 1485.58 L1763.84 1485.58 L1775.64 1454.96 L1759.05 1454.96 L1759.05 1451.02 Z" fill="#000000" fill-rule="evenodd" fill-opacity="1" /><path clip-path="url(#clip050)" d="M1790.39 1479.7 L1795.27 1479.7 L1795.27 1485.58 L1790.39 1485.58 L1790.39 1479.7 Z" fill="#000000" fill-rule="evenodd" fill-opacity="1" /><path clip-path="url(#clip050)" d="M1805.5 1451.02 L1823.86 1451.02 L1823.86 1454.96 L1809.79 1454.96 L1809.79 1463.43 Q1810.8 1463.08 1811.82 1462.92 Q1812.84 1462.73 1813.86 1462.73 Q1819.65 1462.73 1823.03 1465.9 Q1826.41 1469.08 1826.41 1474.49 Q1826.41 1480.07 1822.93 1483.17 Q1819.46 1486.25 1813.14 1486.25 Q1810.97 1486.25 1808.7 1485.88 Q1806.45 1485.51 1804.05 1484.77 L1804.05 1480.07 Q1806.13 1481.2 1808.35 1481.76 Q1810.57 1482.32 1813.05 1482.32 Q1817.05 1482.32 1819.39 1480.21 Q1821.73 1478.1 1821.73 1474.49 Q1821.73 1470.88 1819.39 1468.77 Q1817.05 1466.67 1813.05 1466.67 Q1811.17 1466.67 1809.3 1467.08 Q1807.45 1467.5 1805.5 1468.38 L1805.5 1451.02 Z" fill="#000000" fill-rule="evenodd" fill-opacity="1" /><path clip-path="url(#clip050)" d="M2244.34 1481.64 L2251.98 1481.64 L2251.98 1455.28 L2243.67 1456.95 L2243.67 1452.69 L2251.94 1451.02 L2256.61 1451.02 L2256.61 1481.64 L2264.25 1481.64 L2264.25 1485.58 L2244.34 1485.58 L2244.34 1481.64 Z" fill="#000000" fill-rule="evenodd" fill-opacity="1" /><path clip-path="url(#clip050)" d="M2283.7 1454.1 Q2280.08 1454.1 2278.26 1457.66 Q2276.45 1461.2 2276.45 1468.33 Q2276.45 1475.44 2278.26 1479.01 Q2280.08 1482.55 2283.7 1482.55 Q2287.33 1482.55 2289.14 1479.01 Q2290.96 1475.44 2290.96 1468.33 Q2290.96 1461.2 2289.14 1457.66 Q2287.33 1454.1 2283.7 1454.1 M2283.7 1450.39 Q2289.51 1450.39 2292.56 1455 Q2295.64 1459.58 2295.64 1468.33 Q2295.64 1477.06 2292.56 1481.67 Q2289.51 1486.25 2283.7 1486.25 Q2277.89 1486.25 2274.81 1481.67 Q2271.75 1477.06 2271.75 1468.33 Q2271.75 1459.58 2274.81 1455 Q2277.89 1450.39 2283.7 1450.39 Z" fill="#000000" fill-rule="evenodd" fill-opacity="1" /><path clip-path="url(#clip050)" d="M2303.86 1479.7 L2308.74 1479.7 L2308.74 1485.58 L2303.86 1485.58 L2303.86 1479.7 Z" fill="#000000" fill-rule="evenodd" fill-opacity="1" /><path clip-path="url(#clip050)" d="M2328.93 1454.1 Q2325.32 1454.1 2323.49 1457.66 Q2321.68 1461.2 2321.68 1468.33 Q2321.68 1475.44 2323.49 1479.01 Q2325.32 1482.55 2328.93 1482.55 Q2332.56 1482.55 2334.37 1479.01 Q2336.2 1475.44 2336.2 1468.33 Q2336.2 1461.2 2334.37 1457.66 Q2332.56 1454.1 2328.93 1454.1 M2328.93 1450.39 Q2334.74 1450.39 2337.79 1455 Q2340.87 1459.58 2340.87 1468.33 Q2340.87 1477.06 2337.79 1481.67 Q2334.74 1486.25 2328.93 1486.25 Q2323.12 1486.25 2320.04 1481.67 Q2316.98 1477.06 2316.98 1468.33 Q2316.98 1459.58 2320.04 1455 Q2323.12 1450.39 2328.93 1450.39 Z" fill="#000000" fill-rule="evenodd" fill-opacity="1" /><path clip-path="url(#clip050)" d="M1232.6 1522.27 L1232.6 1532.4 L1244.66 1532.4 L1244.66 1536.95 L1232.6 1536.95 L1232.6 1556.3 Q1232.6 1560.66 1233.78 1561.9 Q1234.99 1563.14 1238.65 1563.14 L1244.66 1563.14 L1244.66 1568.04 L1238.65 1568.04 Q1231.87 1568.04 1229.29 1565.53 Q1226.71 1562.98 1226.71 1556.3 L1226.71 1536.95 L1222.42 1536.95 L1222.42 1532.4 L1226.71 1532.4 L1226.71 1522.27 L1232.6 1522.27 Z" fill="#000000" fill-rule="evenodd" fill-opacity="1" /><path clip-path="url(#clip050)" d="M1252.37 1532.4 L1258.22 1532.4 L1258.22 1568.04 L1252.37 1568.04 L1252.37 1532.4 M1252.37 1518.52 L1258.22 1518.52 L1258.22 1525.93 L1252.37 1525.93 L1252.37 1518.52 Z" fill="#000000" fill-rule="evenodd" fill-opacity="1" /><path clip-path="url(#clip050)" d="M1298.23 1539.24 Q1300.43 1535.29 1303.48 1533.41 Q1306.54 1531.54 1310.68 1531.54 Q1316.25 1531.54 1319.27 1535.45 Q1322.29 1539.33 1322.29 1546.53 L1322.29 1568.04 L1316.4 1568.04 L1316.4 1546.72 Q1316.4 1541.59 1314.59 1539.11 Q1312.78 1536.63 1309.05 1536.63 Q1304.5 1536.63 1301.86 1539.65 Q1299.22 1542.68 1299.22 1547.9 L1299.22 1568.04 L1293.33 1568.04 L1293.33 1546.72 Q1293.33 1541.56 1291.52 1539.11 Q1289.7 1536.63 1285.91 1536.63 Q1281.43 1536.63 1278.78 1539.68 Q1276.14 1542.71 1276.14 1547.9 L1276.14 1568.04 L1270.25 1568.04 L1270.25 1532.4 L1276.14 1532.4 L1276.14 1537.93 Q1278.15 1534.66 1280.95 1533.1 Q1283.75 1531.54 1287.6 1531.54 Q1291.48 1531.54 1294.19 1533.51 Q1296.93 1535.48 1298.23 1539.24 Z" fill="#000000" fill-rule="evenodd" fill-opacity="1" /><path clip-path="url(#clip050)" d="M1364.47 1548.76 L1364.47 1551.62 L1337.54 1551.62 Q1337.92 1557.67 1341.17 1560.85 Q1344.45 1564 1350.27 1564 Q1353.64 1564 1356.8 1563.17 Q1359.98 1562.35 1363.1 1560.69 L1363.1 1566.23 Q1359.95 1567.57 1356.64 1568.27 Q1353.33 1568.97 1349.92 1568.97 Q1341.39 1568.97 1336.39 1564 Q1331.43 1559.04 1331.43 1550.57 Q1331.43 1541.82 1336.14 1536.69 Q1340.88 1531.54 1348.9 1531.54 Q1356.1 1531.54 1360.26 1536.18 Q1364.47 1540.8 1364.47 1548.76 M1358.61 1547.04 Q1358.55 1542.23 1355.9 1539.37 Q1353.29 1536.5 1348.97 1536.5 Q1344.06 1536.5 1341.1 1539.27 Q1338.18 1542.04 1337.73 1547.07 L1358.61 1547.04 Z" fill="#000000" fill-rule="evenodd" fill-opacity="1" /><polyline clip-path="url(#clip052)" style="stroke:#000000; stroke-linecap:butt; stroke-linejoin:round; stroke-width:2; stroke-opacity:0.1; fill:none" points="
  234.125,1386.4 2352.76,1386.4 
  "/>
<polyline clip-path="url(#clip052)" style="stroke:#000000; stroke-linecap:butt; stroke-linejoin:round; stroke-width:2; stroke-opacity:0.1; fill:none" points="
  234.125,1079.86 2352.76,1079.86 
  "/>
<polyline clip-path="url(#clip052)" style="stroke:#000000; stroke-linecap:butt; stroke-linejoin:round; stroke-width:2; stroke-opacity:0.1; fill:none" points="
  234.125,773.326 2352.76,773.326 
  "/>
<polyline clip-path="url(#clip052)" style="stroke:#000000; stroke-linecap:butt; stroke-linejoin:round; stroke-width:2; stroke-opacity:0.1; fill:none" points="
  234.125,466.791 2352.76,466.791 
  "/>
<polyline clip-path="url(#clip052)" style="stroke:#000000; stroke-linecap:butt; stroke-linejoin:round; stroke-width:2; stroke-opacity:0.1; fill:none" points="
  234.125,160.256 2352.76,160.256 
  "/>
<polyline clip-path="url(#clip050)" style="stroke:#000000; stroke-linecap:butt; stroke-linejoin:round; stroke-width:4; stroke-opacity:1; fill:none" points="
  234.125,1423.18 234.125,123.472 
  "/>
<polyline clip-path="url(#clip050)" style="stroke:#000000; stroke-linecap:butt; stroke-linejoin:round; stroke-width:4; stroke-opacity:1; fill:none" points="
  234.125,1386.4 253.023,1386.4 
  "/>
<polyline clip-path="url(#clip050)" style="stroke:#000000; stroke-linecap:butt; stroke-linejoin:round; stroke-width:4; stroke-opacity:1; fill:none" points="
  234.125,1079.86 253.023,1079.86 
  "/>
<polyline clip-path="url(#clip050)" style="stroke:#000000; stroke-linecap:butt; stroke-linejoin:round; stroke-width:4; stroke-opacity:1; fill:none" points="
  234.125,773.326 253.023,773.326 
  "/>
<polyline clip-path="url(#clip050)" style="stroke:#000000; stroke-linecap:butt; stroke-linejoin:round; stroke-width:4; stroke-opacity:1; fill:none" points="
  234.125,466.791 253.023,466.791 
  "/>
<polyline clip-path="url(#clip050)" style="stroke:#000000; stroke-linecap:butt; stroke-linejoin:round; stroke-width:4; stroke-opacity:1; fill:none" points="
  234.125,160.256 253.023,160.256 
  "/>
<path clip-path="url(#clip050)" d="M186.181 1372.19 Q182.57 1372.19 180.741 1375.76 Q178.936 1379.3 178.936 1386.43 Q178.936 1393.54 180.741 1397.1 Q182.57 1400.64 186.181 1400.64 Q189.815 1400.64 191.621 1397.1 Q193.45 1393.54 193.45 1386.43 Q193.45 1379.3 191.621 1375.76 Q189.815 1372.19 186.181 1372.19 M186.181 1368.49 Q191.991 1368.49 195.047 1373.1 Q198.125 1377.68 198.125 1386.43 Q198.125 1395.16 195.047 1399.76 Q191.991 1404.35 186.181 1404.35 Q180.371 1404.35 177.292 1399.76 Q174.237 1395.16 174.237 1386.43 Q174.237 1377.68 177.292 1373.1 Q180.371 1368.49 186.181 1368.49 Z" fill="#000000" fill-rule="evenodd" fill-opacity="1" /><path clip-path="url(#clip050)" d="M146.066 1062.58 L164.422 1062.58 L164.422 1066.52 L150.348 1066.52 L150.348 1074.99 Q151.366 1074.64 152.385 1074.48 Q153.403 1074.29 154.422 1074.29 Q160.209 1074.29 163.589 1077.47 Q166.968 1080.64 166.968 1086.05 Q166.968 1091.63 163.496 1094.73 Q160.024 1097.81 153.704 1097.81 Q151.528 1097.81 149.26 1097.44 Q147.015 1097.07 144.607 1096.33 L144.607 1091.63 Q146.691 1092.77 148.913 1093.32 Q151.135 1093.88 153.612 1093.88 Q157.616 1093.88 159.954 1091.77 Q162.292 1089.66 162.292 1086.05 Q162.292 1082.44 159.954 1080.34 Q157.616 1078.23 153.612 1078.23 Q151.737 1078.23 149.862 1078.65 Q148.01 1079.06 146.066 1079.94 L146.066 1062.58 Z" fill="#000000" fill-rule="evenodd" fill-opacity="1" /><path clip-path="url(#clip050)" d="M186.181 1065.66 Q182.57 1065.66 180.741 1069.22 Q178.936 1072.77 178.936 1079.9 Q178.936 1087 180.741 1090.57 Q182.57 1094.11 186.181 1094.11 Q189.815 1094.11 191.621 1090.57 Q193.45 1087 193.45 1079.9 Q193.45 1072.77 191.621 1069.22 Q189.815 1065.66 186.181 1065.66 M186.181 1061.96 Q191.991 1061.96 195.047 1066.56 Q198.125 1071.15 198.125 1079.9 Q198.125 1088.62 195.047 1093.23 Q191.991 1097.81 186.181 1097.81 Q180.371 1097.81 177.292 1093.23 Q174.237 1088.62 174.237 1079.9 Q174.237 1071.15 177.292 1066.56 Q180.371 1061.96 186.181 1061.96 Z" fill="#000000" fill-rule="evenodd" fill-opacity="1" /><path clip-path="url(#clip050)" d="M116.668 786.671 L124.306 786.671 L124.306 760.305 L115.996 761.972 L115.996 757.713 L124.26 756.046 L128.936 756.046 L128.936 786.671 L136.575 786.671 L136.575 790.606 L116.668 790.606 L116.668 786.671 Z" fill="#000000" fill-rule="evenodd" fill-opacity="1" /><path clip-path="url(#clip050)" d="M156.019 759.125 Q152.408 759.125 150.579 762.689 Q148.774 766.231 148.774 773.361 Q148.774 780.467 150.579 784.032 Q152.408 787.574 156.019 787.574 Q159.653 787.574 161.459 784.032 Q163.288 780.467 163.288 773.361 Q163.288 766.231 161.459 762.689 Q159.653 759.125 156.019 759.125 M156.019 755.421 Q161.829 755.421 164.885 760.027 Q167.964 764.611 167.964 773.361 Q167.964 782.088 164.885 786.694 Q161.829 791.277 156.019 791.277 Q150.209 791.277 147.13 786.694 Q144.075 782.088 144.075 773.361 Q144.075 764.611 147.13 760.027 Q150.209 755.421 156.019 755.421 Z" fill="#000000" fill-rule="evenodd" fill-opacity="1" /><path clip-path="url(#clip050)" d="M186.181 759.125 Q182.57 759.125 180.741 762.689 Q178.936 766.231 178.936 773.361 Q178.936 780.467 180.741 784.032 Q182.57 787.574 186.181 787.574 Q189.815 787.574 191.621 784.032 Q193.45 780.467 193.45 773.361 Q193.45 766.231 191.621 762.689 Q189.815 759.125 186.181 759.125 M186.181 755.421 Q191.991 755.421 195.047 760.027 Q198.125 764.611 198.125 773.361 Q198.125 782.088 195.047 786.694 Q191.991 791.277 186.181 791.277 Q180.371 791.277 177.292 786.694 Q174.237 782.088 174.237 773.361 Q174.237 764.611 177.292 760.027 Q180.371 755.421 186.181 755.421 Z" fill="#000000" fill-rule="evenodd" fill-opacity="1" /><path clip-path="url(#clip050)" d="M116.668 480.136 L124.306 480.136 L124.306 453.77 L115.996 455.437 L115.996 451.178 L124.26 449.511 L128.936 449.511 L128.936 480.136 L136.575 480.136 L136.575 484.071 L116.668 484.071 L116.668 480.136 Z" fill="#000000" fill-rule="evenodd" fill-opacity="1" /><path clip-path="url(#clip050)" d="M146.066 449.511 L164.422 449.511 L164.422 453.446 L150.348 453.446 L150.348 461.918 Q151.366 461.571 152.385 461.409 Q153.403 461.224 154.422 461.224 Q160.209 461.224 163.589 464.395 Q166.968 467.567 166.968 472.983 Q166.968 478.562 163.496 481.664 Q160.024 484.742 153.704 484.742 Q151.528 484.742 149.26 484.372 Q147.015 484.002 144.607 483.261 L144.607 478.562 Q146.691 479.696 148.913 480.252 Q151.135 480.807 153.612 480.807 Q157.616 480.807 159.954 478.701 Q162.292 476.594 162.292 472.983 Q162.292 469.372 159.954 467.266 Q157.616 465.159 153.612 465.159 Q151.737 465.159 149.862 465.576 Q148.01 465.993 146.066 466.872 L146.066 449.511 Z" fill="#000000" fill-rule="evenodd" fill-opacity="1" /><path clip-path="url(#clip050)" d="M186.181 452.59 Q182.57 452.59 180.741 456.155 Q178.936 459.696 178.936 466.826 Q178.936 473.932 180.741 477.497 Q182.57 481.039 186.181 481.039 Q189.815 481.039 191.621 477.497 Q193.45 473.932 193.45 466.826 Q193.45 459.696 191.621 456.155 Q189.815 452.59 186.181 452.59 M186.181 448.886 Q191.991 448.886 195.047 453.493 Q198.125 458.076 198.125 466.826 Q198.125 475.553 195.047 480.159 Q191.991 484.742 186.181 484.742 Q180.371 484.742 177.292 480.159 Q174.237 475.553 174.237 466.826 Q174.237 458.076 177.292 453.493 Q180.371 448.886 186.181 448.886 Z" fill="#000000" fill-rule="evenodd" fill-opacity="1" /><path clip-path="url(#clip050)" d="M119.885 173.601 L136.204 173.601 L136.204 177.536 L114.26 177.536 L114.26 173.601 Q116.922 170.847 121.505 166.217 Q126.112 161.564 127.292 160.222 Q129.538 157.698 130.417 155.962 Q131.32 154.203 131.32 152.513 Q131.32 149.759 129.376 148.023 Q127.455 146.286 124.353 146.286 Q122.154 146.286 119.7 147.05 Q117.269 147.814 114.492 149.365 L114.492 144.643 Q117.316 143.509 119.769 142.93 Q122.223 142.351 124.26 142.351 Q129.63 142.351 132.825 145.036 Q136.019 147.722 136.019 152.212 Q136.019 154.342 135.209 156.263 Q134.422 158.161 132.316 160.754 Q131.737 161.425 128.635 164.643 Q125.533 167.837 119.885 173.601 Z" fill="#000000" fill-rule="evenodd" fill-opacity="1" /><path clip-path="url(#clip050)" d="M156.019 146.055 Q152.408 146.055 150.579 149.62 Q148.774 153.161 148.774 160.291 Q148.774 167.397 150.579 170.962 Q152.408 174.504 156.019 174.504 Q159.653 174.504 161.459 170.962 Q163.288 167.397 163.288 160.291 Q163.288 153.161 161.459 149.62 Q159.653 146.055 156.019 146.055 M156.019 142.351 Q161.829 142.351 164.885 146.958 Q167.964 151.541 167.964 160.291 Q167.964 169.018 164.885 173.624 Q161.829 178.208 156.019 178.208 Q150.209 178.208 147.13 173.624 Q144.075 169.018 144.075 160.291 Q144.075 151.541 147.13 146.958 Q150.209 142.351 156.019 142.351 Z" fill="#000000" fill-rule="evenodd" fill-opacity="1" /><path clip-path="url(#clip050)" d="M186.181 146.055 Q182.57 146.055 180.741 149.62 Q178.936 153.161 178.936 160.291 Q178.936 167.397 180.741 170.962 Q182.57 174.504 186.181 174.504 Q189.815 174.504 191.621 170.962 Q193.45 167.397 193.45 160.291 Q193.45 153.161 191.621 149.62 Q189.815 146.055 186.181 146.055 M186.181 142.351 Q191.991 142.351 195.047 146.958 Q198.125 151.541 198.125 160.291 Q198.125 169.018 195.047 173.624 Q191.991 178.208 186.181 178.208 Q180.371 178.208 177.292 173.624 Q174.237 169.018 174.237 160.291 Q174.237 151.541 177.292 146.958 Q180.371 142.351 186.181 142.351 Z" fill="#000000" fill-rule="evenodd" fill-opacity="1" /><path clip-path="url(#clip050)" d="M35.3266 985.829 L35.3266 995.091 L45.9574 997.765 L45.9574 988.439 L35.3266 985.829 M17.2162 990.603 L30.4251 993.914 L30.4251 984.62 L17.2162 981.278 L17.2162 976.185 L30.4251 979.463 L30.4251 969.533 L35.3266 969.533 L35.3266 980.705 L45.9574 983.315 L45.9574 973.193 L50.8271 973.193 L50.8271 984.556 L64.0042 987.866 L64.0042 992.959 L50.8271 989.68 L50.8271 999.006 L64.0042 1002.28 L64.0042 1007.41 L50.8271 1004.1 L50.8271 1014.12 L45.9574 1014.12 L45.9574 1002.92 L35.3266 1000.25 L35.3266 1010.5 L30.4251 1010.5 L30.4251 999.006 L17.2162 995.76 L17.2162 990.603 Z" fill="#000000" fill-rule="evenodd" fill-opacity="1" /><path clip-path="url(#clip050)" d="M32.4621 923.859 Q32.4621 928.57 36.1542 931.307 Q39.8145 934.044 46.212 934.044 Q52.6095 934.044 56.3017 931.339 Q59.9619 928.601 59.9619 923.859 Q59.9619 919.18 56.2698 916.443 Q52.5777 913.706 46.212 913.706 Q39.8781 913.706 36.186 916.443 Q32.4621 919.18 32.4621 923.859 M27.4968 923.859 Q27.4968 916.22 32.4621 911.86 Q37.4273 907.499 46.212 907.499 Q54.9649 907.499 59.9619 911.86 Q64.9272 916.22 64.9272 923.859 Q64.9272 931.53 59.9619 935.89 Q54.9649 940.219 46.212 940.219 Q37.4273 940.219 32.4621 935.89 Q27.4968 931.53 27.4968 923.859 Z" fill="#000000" fill-rule="evenodd" fill-opacity="1" /><path clip-path="url(#clip050)" d="M14.479 879.745 L19.3487 879.745 L19.3487 885.347 Q19.3487 888.498 20.6219 889.739 Q21.895 890.948 25.2052 890.948 L28.3562 890.948 L28.3562 881.304 L32.9077 881.304 L32.9077 890.948 L64.0042 890.948 L64.0042 896.837 L32.9077 896.837 L32.9077 902.438 L28.3562 902.438 L28.3562 896.837 L25.8736 896.837 Q19.9216 896.837 17.2162 894.068 Q14.479 891.298 14.479 885.283 L14.479 879.745 Z" fill="#000000" fill-rule="evenodd" fill-opacity="1" /><path clip-path="url(#clip050)" d="M35.1993 826.368 Q31.2526 824.172 29.3747 821.117 Q27.4968 818.061 27.4968 813.923 Q27.4968 808.353 31.4117 805.33 Q35.2948 802.306 42.4881 802.306 L64.0042 802.306 L64.0042 808.194 L42.679 808.194 Q37.5546 808.194 35.072 810.008 Q32.5894 811.823 32.5894 815.547 Q32.5894 820.098 35.6131 822.74 Q38.6368 825.382 43.8567 825.382 L64.0042 825.382 L64.0042 831.27 L42.679 831.27 Q37.5228 831.27 35.072 833.084 Q32.5894 834.898 32.5894 838.686 Q32.5894 843.174 35.6449 845.815 Q38.6686 848.457 43.8567 848.457 L64.0042 848.457 L64.0042 854.346 L28.3562 854.346 L28.3562 848.457 L33.8944 848.457 Q30.616 846.452 29.0564 843.651 Q27.4968 840.85 27.4968 836.999 Q27.4968 833.116 29.4702 830.41 Q31.4436 827.673 35.1993 826.368 Z" fill="#000000" fill-rule="evenodd" fill-opacity="1" /><path clip-path="url(#clip050)" d="M32.4621 776.811 Q32.4621 781.522 36.1542 784.259 Q39.8145 786.996 46.212 786.996 Q52.6095 786.996 56.3017 784.291 Q59.9619 781.554 59.9619 776.811 Q59.9619 772.132 56.2698 769.395 Q52.5777 766.658 46.212 766.658 Q39.8781 766.658 36.186 769.395 Q32.4621 772.132 32.4621 776.811 M27.4968 776.811 Q27.4968 769.172 32.4621 764.812 Q37.4273 760.451 46.212 760.451 Q54.9649 760.451 59.9619 764.812 Q64.9272 769.172 64.9272 776.811 Q64.9272 784.482 59.9619 788.842 Q54.9649 793.171 46.212 793.171 Q37.4273 793.171 32.4621 788.842 Q27.4968 784.482 27.4968 776.811 Z" fill="#000000" fill-rule="evenodd" fill-opacity="1" /><path clip-path="url(#clip050)" d="M14.479 750.744 L14.479 744.887 L64.0042 744.887 L64.0042 750.744 L14.479 750.744 Z" fill="#000000" fill-rule="evenodd" fill-opacity="1" /><path clip-path="url(#clip050)" d="M44.7161 702.141 L47.5806 702.141 L47.5806 729.068 Q53.6281 728.686 56.8109 725.44 Q59.9619 722.162 59.9619 716.337 Q59.9619 712.963 59.1344 709.812 Q58.3069 706.629 56.6518 703.51 L62.1899 703.51 Q63.5267 706.661 64.227 709.971 Q64.9272 713.281 64.9272 716.687 Q64.9272 725.217 59.9619 730.214 Q54.9967 735.179 46.5303 735.179 Q37.7774 735.179 32.6531 730.469 Q27.4968 725.726 27.4968 717.706 Q27.4968 710.512 32.1438 706.343 Q36.7589 702.141 44.7161 702.141 M42.9973 707.998 Q38.1912 708.062 35.3266 710.703 Q32.4621 713.313 32.4621 717.642 Q32.4621 722.544 35.2312 725.504 Q38.0002 728.432 43.0292 728.877 L42.9973 707.998 Z" fill="#000000" fill-rule="evenodd" fill-opacity="1" /><path clip-path="url(#clip050)" d="M29.7248 666.875 L35.1993 666.875 Q33.8307 669.358 33.1623 671.873 Q32.4621 674.355 32.4621 676.901 Q32.4621 682.599 36.0905 685.75 Q39.6872 688.901 46.212 688.901 Q52.7369 688.901 56.3653 685.75 Q59.9619 682.599 59.9619 676.901 Q59.9619 674.355 59.2935 671.873 Q58.5933 669.358 57.2247 666.875 L62.6355 666.875 Q63.7814 669.326 64.3543 671.968 Q64.9272 674.578 64.9272 677.538 Q64.9272 685.591 59.8664 690.333 Q54.8057 695.076 46.212 695.076 Q37.491 695.076 32.4939 690.301 Q27.4968 685.495 27.4968 677.156 Q27.4968 674.451 28.0697 671.873 Q28.6108 669.294 29.7248 666.875 Z" fill="#000000" fill-rule="evenodd" fill-opacity="1" /><path clip-path="url(#clip050)" d="M49.9359 657.295 L28.3562 657.295 L28.3562 651.439 L49.7131 651.439 Q54.7739 651.439 57.3202 649.465 Q59.8346 647.492 59.8346 643.545 Q59.8346 638.803 56.8109 636.065 Q53.7872 633.296 48.5673 633.296 L28.3562 633.296 L28.3562 627.44 L64.0042 627.44 L64.0042 633.296 L58.5296 633.296 Q61.7762 635.429 63.3676 638.262 Q64.9272 641.063 64.9272 644.786 Q64.9272 650.929 61.1078 654.112 Q57.2883 657.295 49.9359 657.295 M27.4968 642.558 L27.4968 642.558 Z" fill="#000000" fill-rule="evenodd" fill-opacity="1" /><path clip-path="url(#clip050)" d="M14.479 615.377 L14.479 609.52 L64.0042 609.52 L64.0042 615.377 L14.479 615.377 Z" fill="#000000" fill-rule="evenodd" fill-opacity="1" /><path clip-path="url(#clip050)" d="M44.7161 566.775 L47.5806 566.775 L47.5806 593.702 Q53.6281 593.32 56.8109 590.073 Q59.9619 586.795 59.9619 580.97 Q59.9619 577.596 59.1344 574.445 Q58.3069 571.263 56.6518 568.143 L62.1899 568.143 Q63.5267 571.294 64.227 574.605 Q64.9272 577.915 64.9272 581.32 Q64.9272 589.85 59.9619 594.847 Q54.9967 599.813 46.5303 599.813 Q37.7774 599.813 32.6531 595.102 Q27.4968 590.36 27.4968 582.339 Q27.4968 575.146 32.1438 570.976 Q36.7589 566.775 44.7161 566.775 M42.9973 572.631 Q38.1912 572.695 35.3266 575.337 Q32.4621 577.947 32.4621 582.275 Q32.4621 587.177 35.2312 590.137 Q38.0002 593.065 43.0292 593.511 L42.9973 572.631 Z" fill="#000000" fill-rule="evenodd" fill-opacity="1" /><path clip-path="url(#clip050)" d="M29.4065 534.437 L34.9447 534.437 Q33.6716 536.92 33.035 539.593 Q32.3984 542.267 32.3984 545.131 Q32.3984 549.492 33.7352 551.688 Q35.072 553.852 37.7456 553.852 Q39.7826 553.852 40.9603 552.293 Q42.1061 550.733 43.1565 546.023 L43.6021 544.017 Q44.9389 537.779 47.3897 535.169 Q49.8086 532.527 54.1691 532.527 Q59.1344 532.527 62.0308 536.474 Q64.9272 540.389 64.9272 547.264 Q64.9272 550.128 64.3543 553.248 Q63.8132 556.335 62.6992 559.772 L56.6518 559.772 Q58.3387 556.526 59.198 553.375 Q60.0256 550.224 60.0256 547.137 Q60.0256 542.999 58.6251 540.771 Q57.1929 538.543 54.6147 538.543 Q52.2276 538.543 50.9545 540.166 Q49.6813 541.757 48.5037 547.2 L48.0262 549.237 Q46.8804 554.68 44.5251 557.099 Q42.138 559.518 38.0002 559.518 Q32.9713 559.518 30.2341 555.953 Q27.4968 552.388 27.4968 545.832 Q27.4968 542.585 27.9743 539.72 Q28.4517 536.856 29.4065 534.437 Z" fill="#000000" fill-rule="evenodd" fill-opacity="1" /><path clip-path="url(#clip050)" d="M919.34 14.0809 L919.34 22.0612 Q914.681 19.8332 910.549 18.7395 Q906.417 17.6457 902.569 17.6457 Q895.885 17.6457 892.239 20.2383 Q888.634 22.8309 888.634 27.611 Q888.634 31.6214 891.024 33.6873 Q893.454 35.7128 900.179 36.9686 L905.121 37.9813 Q914.276 39.7232 918.611 44.1387 Q922.985 48.5136 922.985 55.8863 Q922.985 64.6767 917.071 69.2137 Q911.197 73.7508 899.814 73.7508 Q895.52 73.7508 890.659 72.7785 Q885.839 71.8063 880.654 69.9024 L880.654 61.4765 Q885.636 64.2716 890.416 65.6895 Q895.196 67.1073 899.814 67.1073 Q906.822 67.1073 910.63 64.3527 Q914.438 61.598 914.438 56.4939 Q914.438 52.0379 911.683 49.5264 Q908.969 47.0148 902.731 45.759 L897.748 44.7868 Q888.593 42.9639 884.502 39.075 Q880.41 35.1862 880.41 28.2591 Q880.41 20.2383 886.041 15.6203 Q891.713 11.0023 901.637 11.0023 Q905.891 11.0023 910.306 11.7719 Q914.722 12.5416 919.34 14.0809 Z" fill="#000000" fill-rule="evenodd" fill-opacity="1" /><path clip-path="url(#clip050)" d="M972.001 14.0809 L972.001 22.0612 Q967.343 19.8332 963.211 18.7395 Q959.079 17.6457 955.231 17.6457 Q948.547 17.6457 944.901 20.2383 Q941.296 22.8309 941.296 27.611 Q941.296 31.6214 943.686 33.6873 Q946.116 35.7128 952.841 36.9686 L957.783 37.9813 Q966.938 39.7232 971.272 44.1387 Q975.647 48.5136 975.647 55.8863 Q975.647 64.6767 969.733 69.2137 Q963.859 73.7508 952.476 73.7508 Q948.182 73.7508 943.321 72.7785 Q938.5 71.8063 933.315 69.9024 L933.315 61.4765 Q938.298 64.2716 943.078 65.6895 Q947.858 67.1073 952.476 67.1073 Q959.484 67.1073 963.292 64.3527 Q967.1 61.598 967.1 56.4939 Q967.1 52.0379 964.345 49.5264 Q961.631 47.0148 955.393 45.759 L950.41 44.7868 Q941.255 42.9639 937.164 39.075 Q933.072 35.1862 933.072 28.2591 Q933.072 20.2383 938.703 15.6203 Q944.374 11.0023 954.299 11.0023 Q958.552 11.0023 962.968 11.7719 Q967.383 12.5416 972.001 14.0809 Z" fill="#000000" fill-rule="evenodd" fill-opacity="1" /><path clip-path="url(#clip050)" d="M1010.16 20.1573 L999.061 50.2555 L1021.3 50.2555 L1010.16 20.1573 M1005.54 12.096 L1014.82 12.096 L1037.87 72.576 L1029.36 72.576 L1023.85 57.061 L996.59 57.061 L991.081 72.576 L982.453 72.576 L1005.54 12.096 Z" fill="#000000" fill-rule="evenodd" fill-opacity="1" /><path clip-path="url(#clip050)" d="M1090.65 9.62495 Q1085.22 18.942 1082.59 28.0566 Q1079.96 37.1711 1079.96 46.5287 Q1079.96 55.8863 1082.59 65.0818 Q1085.26 74.2369 1090.65 83.5134 L1084.17 83.5134 Q1078.09 73.9938 1075.06 64.7983 Q1072.06 55.6027 1072.06 46.5287 Q1072.06 37.4952 1075.06 28.3401 Q1078.05 19.1851 1084.17 9.62495 L1090.65 9.62495 Z" fill="#000000" fill-rule="evenodd" fill-opacity="1" /><path clip-path="url(#clip050)" d="M1134.97 34.0924 L1134.97 9.54393 L1142.42 9.54393 L1142.42 72.576 L1134.97 72.576 L1134.97 65.7705 Q1132.62 69.8214 1129.01 71.8063 Q1125.45 73.7508 1120.43 73.7508 Q1112.2 73.7508 1107.02 67.1883 Q1101.87 60.6258 1101.87 49.9314 Q1101.87 39.2371 1107.02 32.6746 Q1112.2 26.1121 1120.43 26.1121 Q1125.45 26.1121 1129.01 28.0971 Q1132.62 30.0415 1134.97 34.0924 M1109.57 49.9314 Q1109.57 58.1548 1112.93 62.8538 Q1116.34 67.5124 1122.25 67.5124 Q1128.16 67.5124 1131.57 62.8538 Q1134.97 58.1548 1134.97 49.9314 Q1134.97 41.7081 1131.57 37.0496 Q1128.16 32.3505 1122.25 32.3505 Q1116.34 32.3505 1112.93 37.0496 Q1109.57 41.7081 1109.57 49.9314 Z" fill="#000000" fill-rule="evenodd" fill-opacity="1" /><path clip-path="url(#clip050)" d="M1157.78 27.2059 L1165.23 27.2059 L1165.23 72.576 L1157.78 72.576 L1157.78 27.2059 M1157.78 9.54393 L1165.23 9.54393 L1165.23 18.9825 L1157.78 18.9825 L1157.78 9.54393 Z" fill="#000000" fill-rule="evenodd" fill-opacity="1" /><path clip-path="url(#clip050)" d="M1207.12 34.1734 Q1205.86 33.4443 1204.36 33.1202 Q1202.9 32.7556 1201.12 32.7556 Q1194.8 32.7556 1191.4 36.8875 Q1188.04 40.9789 1188.04 48.6757 L1188.04 72.576 L1180.54 72.576 L1180.54 27.2059 L1188.04 27.2059 L1188.04 34.2544 Q1190.39 30.1225 1194.15 28.1376 Q1197.92 26.1121 1203.31 26.1121 Q1204.08 26.1121 1205.01 26.2337 Q1205.94 26.3147 1207.08 26.5172 L1207.12 34.1734 Z" fill="#000000" fill-rule="evenodd" fill-opacity="1" /><path clip-path="url(#clip050)" d="M1251.92 48.0275 L1251.92 51.6733 L1217.65 51.6733 Q1218.13 59.3701 1222.27 63.421 Q1226.44 67.4314 1233.85 67.4314 Q1238.15 67.4314 1242.16 66.3781 Q1246.21 65.3249 1250.18 63.2184 L1250.18 70.267 Q1246.17 71.9684 1241.95 72.8596 Q1237.74 73.7508 1233.41 73.7508 Q1222.55 73.7508 1216.19 67.4314 Q1209.87 61.1119 1209.87 50.3365 Q1209.87 39.1965 1215.87 32.6746 Q1221.9 26.1121 1232.11 26.1121 Q1241.27 26.1121 1246.57 32.0264 Q1251.92 37.9003 1251.92 48.0275 M1244.47 45.84 Q1244.38 39.7232 1241.02 36.0774 Q1237.7 32.4315 1232.19 32.4315 Q1225.95 32.4315 1222.19 35.9558 Q1218.46 39.4801 1217.89 45.8805 L1244.47 45.84 Z" fill="#000000" fill-rule="evenodd" fill-opacity="1" /><path clip-path="url(#clip050)" d="M1296.8 28.9478 L1296.8 35.9153 Q1293.64 34.1734 1290.44 33.3227 Q1287.28 32.4315 1284.04 32.4315 Q1276.79 32.4315 1272.78 37.0496 Q1268.77 41.6271 1268.77 49.9314 Q1268.77 58.2358 1272.78 62.8538 Q1276.79 67.4314 1284.04 67.4314 Q1287.28 67.4314 1290.44 66.5807 Q1293.64 65.6895 1296.8 63.9476 L1296.8 70.8341 Q1293.68 72.2924 1290.32 73.0216 Q1287 73.7508 1283.23 73.7508 Q1272.98 73.7508 1266.95 67.3098 Q1260.91 60.8689 1260.91 49.9314 Q1260.91 38.832 1266.99 32.472 Q1273.11 26.1121 1283.72 26.1121 Q1287.16 26.1121 1290.44 26.8413 Q1293.72 27.5299 1296.8 28.9478 Z" fill="#000000" fill-rule="evenodd" fill-opacity="1" /><path clip-path="url(#clip050)" d="M1317.14 14.324 L1317.14 27.2059 L1332.49 27.2059 L1332.49 32.9987 L1317.14 32.9987 L1317.14 57.6282 Q1317.14 63.1779 1318.64 64.7578 Q1320.18 66.3376 1324.84 66.3376 L1332.49 66.3376 L1332.49 72.576 L1324.84 72.576 Q1316.21 72.576 1312.93 69.3758 Q1309.64 66.1351 1309.64 57.6282 L1309.64 32.9987 L1304.18 32.9987 L1304.18 27.2059 L1309.64 27.2059 L1309.64 14.324 L1317.14 14.324 Z" fill="#000000" fill-rule="evenodd" fill-opacity="1" /><path clip-path="url(#clip050)" d="M1403.99 35.9153 Q1406.78 30.8922 1410.67 28.5022 Q1414.56 26.1121 1419.83 26.1121 Q1426.92 26.1121 1430.77 31.0947 Q1434.61 36.0368 1434.61 45.1919 L1434.61 72.576 L1427.12 72.576 L1427.12 45.4349 Q1427.12 38.913 1424.81 35.7533 Q1422.5 32.5936 1417.76 32.5936 Q1411.97 32.5936 1408.61 36.4419 Q1405.25 40.2903 1405.25 46.9338 L1405.25 72.576 L1397.75 72.576 L1397.75 45.4349 Q1397.75 38.8725 1395.44 35.7533 Q1393.13 32.5936 1388.31 32.5936 Q1382.6 32.5936 1379.24 36.4824 Q1375.88 40.3308 1375.88 46.9338 L1375.88 72.576 L1368.38 72.576 L1368.38 27.2059 L1375.88 27.2059 L1375.88 34.2544 Q1378.43 30.082 1381.99 28.0971 Q1385.56 26.1121 1390.46 26.1121 Q1395.4 26.1121 1398.85 28.6237 Q1402.33 31.1352 1403.99 35.9153 Z" fill="#000000" fill-rule="evenodd" fill-opacity="1" /><path clip-path="url(#clip050)" d="M1488.29 48.0275 L1488.29 51.6733 L1454.02 51.6733 Q1454.5 59.3701 1458.64 63.421 Q1462.81 67.4314 1470.22 67.4314 Q1474.52 67.4314 1478.53 66.3781 Q1482.58 65.3249 1486.55 63.2184 L1486.55 70.267 Q1482.54 71.9684 1478.32 72.8596 Q1474.11 73.7508 1469.78 73.7508 Q1458.92 73.7508 1452.56 67.4314 Q1446.24 61.1119 1446.24 50.3365 Q1446.24 39.1965 1452.24 32.6746 Q1458.27 26.1121 1468.48 26.1121 Q1477.64 26.1121 1482.94 32.0264 Q1488.29 37.9003 1488.29 48.0275 M1480.84 45.84 Q1480.75 39.7232 1477.39 36.0774 Q1474.07 32.4315 1468.56 32.4315 Q1462.32 32.4315 1458.56 35.9558 Q1454.83 39.4801 1454.26 45.8805 L1480.84 45.84 Z" fill="#000000" fill-rule="evenodd" fill-opacity="1" /><path clip-path="url(#clip050)" d="M1507.9 14.324 L1507.9 27.2059 L1523.25 27.2059 L1523.25 32.9987 L1507.9 32.9987 L1507.9 57.6282 Q1507.9 63.1779 1509.39 64.7578 Q1510.93 66.3376 1515.59 66.3376 L1523.25 66.3376 L1523.25 72.576 L1515.59 72.576 Q1506.96 72.576 1503.68 69.3758 Q1500.4 66.1351 1500.4 57.6282 L1500.4 32.9987 L1494.93 32.9987 L1494.93 27.2059 L1500.4 27.2059 L1500.4 14.324 L1507.9 14.324 Z" fill="#000000" fill-rule="evenodd" fill-opacity="1" /><path clip-path="url(#clip050)" d="M1570.77 45.1919 L1570.77 72.576 L1563.31 72.576 L1563.31 45.4349 Q1563.31 38.994 1560.8 35.7938 Q1558.29 32.5936 1553.27 32.5936 Q1547.23 32.5936 1543.75 36.4419 Q1540.26 40.2903 1540.26 46.9338 L1540.26 72.576 L1532.77 72.576 L1532.77 9.54393 L1540.26 9.54393 L1540.26 34.2544 Q1542.94 30.163 1546.54 28.1376 Q1550.19 26.1121 1554.93 26.1121 Q1562.74 26.1121 1566.76 30.9732 Q1570.77 35.7938 1570.77 45.1919 Z" fill="#000000" fill-rule="evenodd" fill-opacity="1" /><path clip-path="url(#clip050)" d="M1603.21 32.4315 Q1597.22 32.4315 1593.73 37.1306 Q1590.25 41.7891 1590.25 49.9314 Q1590.25 58.0738 1593.69 62.7728 Q1597.18 67.4314 1603.21 67.4314 Q1609.17 67.4314 1612.65 62.7323 Q1616.14 58.0333 1616.14 49.9314 Q1616.14 41.8701 1612.65 37.1711 Q1609.17 32.4315 1603.21 32.4315 M1603.21 26.1121 Q1612.94 26.1121 1618.49 32.4315 Q1624.03 38.7509 1624.03 49.9314 Q1624.03 61.0714 1618.49 67.4314 Q1612.94 73.7508 1603.21 73.7508 Q1593.45 73.7508 1587.9 67.4314 Q1582.39 61.0714 1582.39 49.9314 Q1582.39 38.7509 1587.9 32.4315 Q1593.45 26.1121 1603.21 26.1121 Z" fill="#000000" fill-rule="evenodd" fill-opacity="1" /><path clip-path="url(#clip050)" d="M1666.25 34.0924 L1666.25 9.54393 L1673.7 9.54393 L1673.7 72.576 L1666.25 72.576 L1666.25 65.7705 Q1663.9 69.8214 1660.29 71.8063 Q1656.73 73.7508 1651.7 73.7508 Q1643.48 73.7508 1638.29 67.1883 Q1633.15 60.6258 1633.15 49.9314 Q1633.15 39.2371 1638.29 32.6746 Q1643.48 26.1121 1651.7 26.1121 Q1656.73 26.1121 1660.29 28.0971 Q1663.9 30.0415 1666.25 34.0924 M1640.85 49.9314 Q1640.85 58.1548 1644.21 62.8538 Q1647.61 67.5124 1653.53 67.5124 Q1659.44 67.5124 1662.84 62.8538 Q1666.25 58.1548 1666.25 49.9314 Q1666.25 41.7081 1662.84 37.0496 Q1659.44 32.3505 1653.53 32.3505 Q1647.61 32.3505 1644.21 37.0496 Q1640.85 41.7081 1640.85 49.9314 Z" fill="#000000" fill-rule="evenodd" fill-opacity="1" /><path clip-path="url(#clip050)" d="M1687.88 9.62495 L1694.36 9.62495 Q1700.44 19.1851 1703.43 28.3401 Q1706.47 37.4952 1706.47 46.5287 Q1706.47 55.6027 1703.43 64.7983 Q1700.44 73.9938 1694.36 83.5134 L1687.88 83.5134 Q1693.26 74.2369 1695.9 65.0818 Q1698.57 55.8863 1698.57 46.5287 Q1698.57 37.1711 1695.9 28.0566 Q1693.26 18.942 1687.88 9.62495 Z" fill="#000000" fill-rule="evenodd" fill-opacity="1" /><polyline clip-path="url(#clip052)" style="stroke:#009af9; stroke-linecap:butt; stroke-linejoin:round; stroke-width:4; stroke-opacity:1; fill:none" points="
  294.087,160.256 294.153,166.387 295.773,172.518 296.389,178.648 296.736,184.779 296.854,190.91 297.38,197.04 298.893,203.171 300.177,209.302 302.065,215.433 
  303.439,221.563 304.202,227.694 304.543,233.825 304.728,239.955 308.999,246.086 309.184,252.217 309.874,258.347 310.435,264.478 311.323,270.609 312.168,276.74 
  313.659,282.87 313.855,276.74 314.957,282.87 315.389,289.001 316.636,295.132 317.743,301.262 317.979,307.393 322.645,313.524 324.084,319.654 324.33,325.785 
  325.156,331.916 325.682,338.047 328.216,344.177 328.391,350.308 329.333,356.439 329.583,362.569 332.806,368.7 333.35,374.831 334.469,380.961 335.244,387.092 
  335.988,393.223 337.36,399.353 339.368,405.484 340.688,411.615 341.873,405.484 342.38,411.615 345.429,405.484 346.736,411.615 346.746,417.746 346.778,423.876 
  348.972,430.007 349.157,436.138 350.154,442.268 350.463,448.399 351.654,454.53 354.537,448.399 355.7,454.53 356.651,460.66 356.734,466.791 358.557,472.922 
  359.051,479.053 359.405,472.922 360.238,479.053 361.787,485.183 362.349,491.314 362.674,497.445 363.815,503.575 364.896,509.706 365.297,503.575 367.011,509.706 
  367.283,515.837 367.593,521.967 367.792,528.098 369.156,534.229 370.907,540.36 371.184,546.49 371.286,552.621 373.504,558.752 374.396,564.882 375.299,571.013 
  375.834,564.882 375.927,571.013 376.453,577.144 377.907,583.274 380.08,589.405 381.556,595.536 382.258,601.666 382.266,607.797 382.536,613.928 384.674,620.059 
  385.01,626.189 385.13,632.32 385.746,638.451 386.115,644.581 386.791,650.712 388.499,656.843 390.302,662.973 392.05,669.104 392.24,662.973 392.779,669.104 
  395.353,662.973 395.953,656.843 396.658,650.712 398.058,656.843 400.888,650.712 403.392,656.843 404.282,650.712 405.643,656.843 406.005,662.973 410.997,669.104 
  413.223,675.235 414.381,681.366 418.852,687.496 421.682,681.366 422.683,687.496 425.28,681.366 426.765,687.496 427.094,693.627 427.266,699.758 427.903,705.888 
  428.86,712.019 429.257,705.888 430.541,699.758 433.259,705.888 436.645,712.019 442.245,718.15 444.772,724.28 444.822,730.411 445.044,736.542 445.158,742.673 
  446.367,748.803 448.137,754.934 448.238,748.803 450.059,742.673 452.253,736.542 452.521,742.673 453.578,748.803 454.041,742.673 454.18,748.803 454.718,754.934 
  456.358,748.803 459.501,742.673 460.017,748.803 462.338,754.934 462.788,761.065 467.273,767.195 467.392,761.065 467.64,767.195 468.305,773.326 469.672,779.457 
  470.399,773.326 473.768,779.457 477.07,773.326 480.177,779.457 480.407,773.326 480.586,767.195 481.673,773.326 486.609,767.195 487.616,773.326 487.759,767.195 
  488.634,761.065 491.626,767.195 492.089,761.065 495.46,767.195 497.374,773.326 498.284,779.457 499.379,773.326 499.416,779.457 499.723,785.587 501.749,791.718 
  503.556,797.849 504.773,803.979 505.373,810.11 505.492,803.979 505.572,810.11 505.879,816.241 506.247,810.11 507.052,816.241 507.508,810.11 508.077,816.241 
  511.118,822.372 511.213,828.502 514.793,822.372 515.6,828.502 517.222,834.633 517.477,840.764 519.935,846.894 520.326,853.025 520.51,859.156 521.262,865.286 
  521.974,859.156 521.984,853.025 526.361,846.894 527.489,840.764 530.681,846.894 530.81,853.025 531.176,846.894 531.278,853.025 533.186,859.156 533.333,865.286 
  535.173,871.417 535.368,865.286 538.128,859.156 541.468,865.286 542.033,859.156 545.864,853.025 546.777,846.894 547.226,853.025 548.472,846.894 548.689,853.025 
  548.898,859.156 551.38,865.286 552.071,859.156 554.67,853.025 555.385,846.894 556.207,840.764 556.509,846.894 556.954,853.025 560.698,846.894 560.814,853.025 
  561.724,859.156 562.974,853.025 564.218,859.156 568.972,865.286 571.779,871.417 574.734,877.548 575.794,883.679 577.38,889.809 578.235,895.94 578.491,902.071 
  579.973,895.94 580.859,902.071 583.681,908.201 587.844,902.071 587.862,895.94 593.928,902.071 595.489,895.94 596.812,902.071 597.115,895.94 598.102,889.809 
  598.138,895.94 598.356,889.809 598.562,895.94 599.128,902.071 599.85,908.201 599.867,914.332 600.96,908.201 601.984,914.332 603.295,908.201 605.878,902.071 
  607.971,908.201 608.914,902.071 610.456,895.94 610.948,902.071 615.643,908.201 615.713,902.071 616.438,908.201 620.166,914.332 621.591,920.463 622.112,914.332 
  625.417,920.463 626.4,914.332 629.174,920.463 631.756,914.332 634.348,920.463 636.42,926.593 636.948,932.724 638.472,938.855 638.852,944.985 640.287,951.116 
  642.023,944.985 643.664,938.855 646.422,932.724 647.408,926.593 647.583,920.463 647.738,926.593 647.994,920.463 648.862,914.332 651.877,920.463 656.099,926.593 
  657.489,920.463 657.581,914.332 660.548,920.463 661.56,914.332 668.33,908.201 671.147,914.332 674.394,908.201 675.711,914.332 678.158,908.201 683.571,902.071 
  683.762,895.94 684.678,902.071 687.946,908.201 688.02,914.332 688.55,908.201 690.841,902.071 691.375,908.201 691.509,914.332 692.055,920.463 692.403,926.593 
  694.595,920.463 696.118,914.332 699.268,908.201 699.786,914.332 704.381,908.201 704.608,914.332 706.06,908.201 706.336,902.071 710.307,895.94 710.41,889.809 
  710.784,883.679 711.409,877.548 713.538,883.679 714.272,889.809 715.18,895.94 715.247,889.809 717.395,895.94 721.606,902.071 722.019,895.94 722.404,889.809 
  724.871,895.94 725.154,902.071 725.375,895.94 726.36,889.809 729.969,895.94 730.062,889.809 730.099,883.679 731.598,889.809 734.323,883.679 736.223,877.548 
  739.741,871.417 740.405,877.548 740.626,883.679 741.05,877.548 741.647,883.679 743.264,877.548 746.727,871.417 746.775,877.548 752.239,871.417 752.291,877.548 
  753.905,883.679 754.345,877.548 756.266,883.679 758.225,877.548 759.136,883.679 759.167,889.809 759.432,895.94 763.586,889.809 765.801,883.679 768.775,889.809 
  768.797,883.679 773.343,889.809 775.458,895.94 775.958,889.809 776.376,883.679 777.956,877.548 778.714,871.417 779.595,877.548 779.675,883.679 780.22,877.548 
  781.609,883.679 781.749,889.809 783.228,895.94 789.05,889.809 789.184,883.679 791.184,889.809 793.404,883.679 793.524,889.809 794.197,883.679 794.635,877.548 
  794.922,871.417 797.744,865.286 800.521,871.417 801.352,877.548 801.375,883.679 803.494,889.809 807.95,895.94 808.076,889.809 809.019,895.94 810.213,902.071 
  810.521,908.201 812.418,914.332 812.679,908.201 812.82,914.332 814.228,908.201 814.375,902.071 815.049,895.94 816.774,889.809 817.903,895.94 818.873,902.071 
  819.065,908.201 822.694,902.071 823.546,908.201 823.856,902.071 827.281,908.201 829.617,914.332 829.721,908.201 830.103,914.332 831.236,908.201 831.273,902.071 
  832.086,908.201 833.598,914.332 835.341,920.463 835.584,926.593 835.748,932.724 836.384,926.593 836.597,920.463 836.931,926.593 836.996,932.724 837.862,938.855 
  839.531,944.985 841.464,951.116 841.68,957.247 842.846,963.378 843.524,969.508 843.535,975.639 845.53,981.77 845.749,975.639 849.484,981.77 851.081,975.639 
  854.014,969.508 854.983,963.378 857.329,969.508 857.986,975.639 860.026,969.508 860.887,975.639 861.75,969.508 862.28,975.639 863.173,981.77 863.345,975.639 
  865.766,981.77 867.52,987.9 867.802,981.77 869.061,987.9 869.227,981.77 871.938,987.9 876.508,994.031 878.97,987.9 878.978,981.77 883.22,975.639 
  883.396,969.508 884.315,975.639 884.642,969.508 885.612,975.639 885.776,981.77 886.084,987.9 886.519,994.031 886.701,1000.16 886.825,994.031 887.368,1000.16 
  889.708,1006.29 890.657,1000.16 893.058,994.031 894.525,1000.16 895.872,1006.29 895.893,1000.16 899.503,994.031 899.617,1000.16 900.791,994.031 900.793,987.9 
  902.112,981.77 902.217,987.9 902.625,981.77 907.044,975.639 908.368,969.508 910.931,975.639 912.437,981.77 912.973,987.9 914.69,994.031 915.958,1000.16 
  916.152,994.031 918.495,1000.16 918.987,994.031 920.683,1000.16 922.572,994.031 923.244,987.9 924.25,981.77 924.825,975.639 925.758,981.77 925.832,987.9 
  927.543,981.77 927.985,975.639 929.68,969.508 930.349,963.378 930.923,969.508 934.406,975.639 936.138,981.77 937.106,987.9 939.245,994.031 939.88,1000.16 
  944.4,994.031 948.352,1000.16 949.483,994.031 953.088,1000.16 953.37,994.031 953.55,987.9 954.64,994.031 957.687,1000.16 960.123,994.031 961.226,987.9 
  961.907,994.031 964.097,987.9 966.304,994.031 967.005,987.9 969.932,994.031 971.766,987.9 971.795,994.031 973.551,987.9 975.283,981.77 980.198,975.639 
  980.536,969.508 981.494,963.378 982.421,957.247 982.805,963.378 983.199,957.247 988.542,951.116 990.433,957.247 991.624,963.378 991.934,957.247 992.604,963.378 
  994.583,957.247 995.839,963.378 996.946,957.247 997.583,951.116 999.433,957.247 1000.57,951.116 1001.74,944.985 1002,938.855 1006.25,932.724 1006.94,938.855 
  1008.53,932.724 1010.27,938.855 1010.99,944.985 1011.55,951.116 1012.46,944.985 1012.53,951.116 1014.47,957.247 1018.53,951.116 1018.54,944.985 1018.63,951.116 
  1021.5,944.985 1023.81,951.116 1025.26,944.985 1025.8,938.855 1026.54,932.724 1027.57,938.855 1028.91,944.985 1030.37,938.855 1034.96,932.724 1036.31,926.593 
  1037.37,932.724 1039.28,938.855 1039.68,944.985 1041.85,938.855 1042.2,944.985 1043.32,951.116 1044.41,957.247 1044.64,963.378 1050.39,969.508 1050.71,975.639 
  1051.35,969.508 1051.71,963.378 1052.35,957.247 1052.82,951.116 1055.11,944.985 1055.25,951.116 1056.99,957.247 1059.05,963.378 1059.58,969.508 1063.98,963.378 
  1065,957.247 1066.32,963.378 1066.82,957.247 1067.22,963.378 1067.6,957.247 1068.56,963.378 1069.42,969.508 1069.52,975.639 1070.78,969.508 1073.01,975.639 
  1074.62,981.77 1075.73,975.639 1076.87,981.77 1077.35,987.9 1081.5,981.77 1081.69,987.9 1082.69,994.031 1084.44,1000.16 1087.48,1006.29 1088.86,1012.42 
  1089.63,1018.55 1091.83,1012.42 1091.84,1018.55 1092.86,1012.42 1093.94,1006.29 1095.79,1000.16 1095.85,994.031 1095.89,987.9 1096.02,981.77 1099.39,975.639 
  1101.99,969.508 1102.71,963.378 1103.12,957.247 1104.75,963.378 1105.72,957.247 1106.48,951.116 1107.04,957.247 1107.63,951.116 1107.83,957.247 1108.07,951.116 
  1108.82,944.985 1110.77,951.116 1111.05,944.985 1111.11,938.855 1114.4,932.724 1117.03,926.593 1118.57,932.724 1119.36,938.855 1120.82,932.724 1121.79,938.855 
  1127.42,932.724 1128.38,938.855 1129.01,944.985 1129.68,951.116 1130.05,957.247 1133.64,963.378 1134.1,957.247 1135.6,963.378 1136.16,957.247 1136.73,963.378 
  1138.97,957.247 1139.41,963.378 1141.35,969.508 1141.37,963.378 1143.63,957.247 1145.53,963.378 1147.03,957.247 1147.64,963.378 1148.05,957.247 1150.29,963.378 
  1151.02,957.247 1153.49,963.378 1158.36,957.247 1158.6,951.116 1158.83,944.985 1159.3,951.116 1160.02,944.985 1161.76,951.116 1162.83,957.247 1166.67,963.378 
  1167.95,969.508 1169.7,975.639 1170.63,981.77 1170.97,975.639 1171.55,981.77 1171.72,987.9 1174.18,994.031 1174.53,1000.16 1176.84,994.031 1182.62,987.9 
  1184.18,981.77 1184.59,975.639 1185.81,969.508 1187.46,975.639 1189.31,981.77 1189.62,987.9 1190.21,994.031 1190.42,987.9 1192.1,981.77 1193.52,987.9 
  1194.36,981.77 1195.14,987.9 1197.1,981.77 1197.25,987.9 1198.24,994.031 1199.57,987.9 1203.55,994.031 1207.7,987.9 1207.94,981.77 1208.5,975.639 
  1208.55,981.77 1209.41,975.639 1210.28,969.508 1212.15,975.639 1212.23,969.508 1212.84,963.378 1213.14,969.508 1215.42,963.378 1215.51,969.508 1216.97,975.639 
  1219.02,981.77 1220.77,975.639 1221.03,969.508 1222.81,963.378 1223.6,957.247 1223.85,963.378 1231.78,969.508 1234.23,975.639 1234.89,981.77 1237.21,975.639 
  1238.64,981.77 1239.25,987.9 1239.97,994.031 1244.55,1000.16 1245.19,1006.29 1247.07,1012.42 1247.87,1018.55 1249.33,1024.68 1251.63,1030.82 1252.29,1024.68 
  1253,1030.82 1253.49,1036.95 1258.54,1043.08 1262.47,1036.95 1264.44,1030.82 1266.52,1036.95 1269.27,1043.08 1273.53,1049.21 1273.78,1055.34 1274.6,1049.21 
  1275.7,1043.08 1278.37,1036.95 1283.21,1030.82 1285.42,1036.95 1292.08,1030.82 1296.58,1024.68 1296.65,1030.82 1297.03,1024.68 1297.46,1030.82 1298.18,1036.95 
  1300.7,1043.08 1301.13,1036.95 1301.39,1030.82 1301.4,1036.95 1302.68,1043.08 1303.92,1036.95 1304.1,1043.08 1306.43,1049.21 1307.08,1043.08 1308.06,1049.21 
  1313.37,1043.08 1313.51,1036.95 1313.69,1043.08 1314.83,1049.21 1316.53,1043.08 1317.12,1036.95 1320.66,1043.08 1320.85,1036.95 1321.11,1043.08 1322.81,1049.21 
  1323.68,1055.34 1326.66,1049.21 1329.03,1043.08 1335.05,1036.95 1336.31,1030.82 1336.86,1024.68 1336.88,1030.82 1336.92,1024.68 1337.31,1030.82 1337.49,1024.68 
  1338.09,1018.55 1338.38,1012.42 1343.73,1006.29 1345.14,1000.16 1346.14,994.031 1347.25,1000.16 1347.25,994.031 1348.78,1000.16 1353.66,994.031 1356.71,987.9 
  1357.99,994.031 1359.28,1000.16 1361.33,1006.29 1365.21,1000.16 1365.4,994.031 1367.16,987.9 1368.96,981.77 1369.17,987.9 1371.63,981.77 1374.48,987.9 
  1376.45,994.031 1377.37,987.9 1379.13,994.031 1379.16,1000.16 1379.45,1006.29 1380.09,1012.42 1380.37,1006.29 1380.7,1000.16 1380.8,1006.29 1383.43,1012.42 
  1384.39,1006.29 1388.04,1012.42 1389.83,1006.29 1390.48,1000.16 1392.1,1006.29 1395.21,1000.16 1396.6,1006.29 1397.41,1012.42 1399.9,1006.29 1400.73,1000.16 
  1403.2,1006.29 1404.52,1000.16 1405.15,994.031 1406.15,1000.16 1407.25,1006.29 1412.23,1000.16 1412.62,994.031 1413.02,987.9 1414.55,981.77 1414.91,975.639 
  1415.36,969.508 1420.66,975.639 1420.89,981.77 1421.43,987.9 1422.46,981.77 1424.62,987.9 1426.45,981.77 1428.71,975.639 1430.18,969.508 1430.98,975.639 
  1431.42,981.77 1432.36,975.639 1433.36,981.77 1437.09,987.9 1438.23,981.77 1440.41,975.639 1445.88,969.508 1446.17,963.378 1447.63,957.247 1448.39,963.378 
  1449.03,969.508 1453.66,963.378 1456.2,969.508 1456.97,975.639 1457.01,981.77 1460.96,987.9 1463.7,994.031 1465.3,987.9 1467.14,994.031 1469.61,987.9 
  1475.01,981.77 1475.65,987.9 1476.96,994.031 1477.09,987.9 1477.51,981.77 1477.74,987.9 1477.8,994.031 1478.56,1000.16 1478.68,994.031 1481.04,1000.16 
  1485.34,1006.29 1486.11,1000.16 1488.27,1006.29 1488.91,1012.42 1489.76,1018.55 1489.83,1024.68 1490.04,1018.55 1490.85,1012.42 1499.08,1006.29 1501.13,1000.16 
  1501.43,994.031 1502.37,987.9 1503.18,981.77 1503.86,975.639 1504.27,981.77 1506.21,975.639 1506.39,969.508 1508.38,975.639 1510.16,981.77 1514.08,975.639 
  1518.96,969.508 1519.71,963.378 1519.88,957.247 1520.31,963.378 1526.07,957.247 1526.73,951.116 1526.88,957.247 1531,963.378 1531.1,969.508 1531.79,963.378 
  1533.75,969.508 1536.88,963.378 1537.81,969.508 1540.33,975.639 1541.1,981.77 1542.18,987.9 1545,994.031 1545.01,1000.16 1545.45,1006.29 1545.76,1000.16 
  1545.99,1006.29 1546.5,1000.16 1546.61,1006.29 1547.93,1012.42 1549.18,1018.55 1549.18,1024.68 1552.8,1018.55 1555.05,1024.68 1555.52,1030.82 1558.56,1024.68 
  1558.91,1030.82 1559,1036.95 1559.5,1030.82 1561.01,1036.95 1562.39,1043.08 1563.37,1049.21 1565.54,1055.34 1568.14,1049.21 1569.24,1055.34 1569.57,1061.47 
  1573.85,1067.6 1573.86,1061.47 1575.68,1055.34 1576.68,1049.21 1577.38,1043.08 1577.83,1049.21 1578.27,1055.34 1579.1,1049.21 1586.32,1055.34 1586.65,1049.21 
  1587.51,1043.08 1587.95,1049.21 1590.68,1055.34 1590.86,1061.47 1592.17,1067.6 1593.14,1061.47 1593.85,1055.34 1594.73,1049.21 1595.85,1055.34 1596.12,1061.47 
  1596.49,1055.34 1597.78,1049.21 1599.71,1055.34 1601.72,1061.47 1602.78,1067.6 1608.05,1061.47 1610.29,1055.34 1613.02,1061.47 1615.2,1055.34 1619.25,1049.21 
  1619.52,1043.08 1622.36,1036.95 1622.68,1043.08 1624.35,1036.95 1625.05,1043.08 1625.36,1036.95 1629.81,1030.82 1631.17,1024.68 1633.63,1030.82 1633.68,1036.95 
  1633.8,1030.82 1634.5,1024.68 1634.64,1018.55 1635.34,1024.68 1641.41,1018.55 1641.5,1024.68 1641.8,1030.82 1642.74,1024.68 1643.47,1018.55 1643.83,1024.68 
  1644.34,1018.55 1644.42,1024.68 1644.84,1018.55 1651.13,1012.42 1651.38,1018.55 1651.51,1024.68 1651.52,1030.82 1651.83,1024.68 1653.83,1018.55 1654.2,1012.42 
  1654.82,1006.29 1657.74,1000.16 1658.45,1006.29 1659.29,1000.16 1659.36,994.031 1659.69,1000.16 1661.46,1006.29 1661.7,1012.42 1662.77,1006.29 1663.02,1012.42 
  1664.4,1006.29 1666.74,1012.42 1666.8,1006.29 1672.28,1012.42 1673.05,1006.29 1675.45,1000.16 1678.69,994.031 1680.01,987.9 1680.53,994.031 1681.18,987.9 
  1681.65,994.031 1683.57,987.9 1684.11,994.031 1684.21,1000.16 1688.88,994.031 1690.53,987.9 1691.05,994.031 1692.82,987.9 1693.14,981.77 1693.8,987.9 
  1696.31,981.77 1698.92,987.9 1700.73,981.77 1701.46,987.9 1703.59,994.031 1703.76,1000.16 1704.05,1006.29 1704.66,1000.16 1707.87,1006.29 1708.56,1000.16 
  1709.14,994.031 1709.5,1000.16 1710.53,994.031 1712.71,1000.16 1714.34,994.031 1715.89,987.9 1716.42,981.77 1717.42,975.639 1717.77,969.508 1717.88,963.378 
  1719.04,969.508 1719.76,975.639 1719.89,981.77 1722.19,987.9 1724.82,994.031 1725.64,1000.16 1726.11,994.031 1728.84,987.9 1729.47,981.77 1735.05,975.639 
  1737.29,981.77 1738.9,975.639 1741.21,969.508 1742.85,975.639 1747.13,981.77 1748.57,987.9 1748.6,994.031 1750.28,987.9 1753.73,981.77 1758.93,987.9 
  1760.17,981.77 1762.19,975.639 1763.79,969.508 1766.68,963.378 1767.79,969.508 1768.17,975.639 1769.69,969.508 1769.94,975.639 1775.22,981.77 1778.87,975.639 
  1779.7,981.77 1781.22,975.639 1783.05,969.508 1785.38,975.639 1788.67,981.77 1796.81,975.639 1797.48,981.77 1798.11,987.9 1798.87,981.77 1800.29,987.9 
  1803.81,994.031 1805.44,987.9 1809.12,994.031 1809.65,987.9 1812.29,981.77 1816.68,975.639 1816.91,969.508 1820.92,975.639 1822.43,969.508 1824,975.639 
  1824.51,969.508 1825.75,963.378 1826.03,969.508 1826.71,975.639 1827.14,981.77 1829.49,975.639 1829.65,981.77 1829.91,975.639 1830.59,969.508 1831,975.639 
  1831.69,969.508 1831.96,963.378 1832.3,969.508 1832.68,963.378 1833.84,957.247 1834.15,963.378 1837.65,957.247 1838.17,951.116 1839.12,944.985 1839.28,951.116 
  1839.86,957.247 1841.13,951.116 1842.09,957.247 1843.24,951.116 1843.46,957.247 1843.62,951.116 1845.48,957.247 1846.66,963.378 1846.69,969.508 1848.12,975.639 
  1848.77,969.508 1848.95,975.639 1849.59,981.77 1849.83,975.639 1850.07,969.508 1851.28,963.378 1852.47,957.247 1853.75,951.116 1855.43,957.247 1856.61,963.378 
  1856.69,957.247 1857.02,951.116 1857.12,944.985 1857.32,938.855 1857.46,944.985 1857.63,951.116 1859.42,957.247 1862.07,963.378 1863.12,957.247 1864.26,963.378 
  1867.41,969.508 1867.43,975.639 1867.58,981.77 1868.17,975.639 1870.49,981.77 1876.9,987.9 1877.7,981.77 1877.82,987.9 1885.62,981.77 1886.93,975.639 
  1887.19,981.77 1887.32,975.639 1887.92,981.77 1888.62,987.9 1889.24,994.031 1890.62,987.9 1891.4,981.77 1891.58,975.639 1892.22,981.77 1895.3,975.639 
  1897.6,981.77 1898.14,987.9 1898.68,981.77 1899.97,987.9 1904.66,981.77 1906.96,987.9 1917.88,994.031 1919.77,1000.16 1929.22,1006.29 1929.51,1012.42 
  1929.54,1006.29 1934.71,1012.42 1935.42,1018.55 1940.83,1024.68 1941.04,1018.55 1941.76,1024.68 1942.4,1018.55 1943.56,1012.42 1944.87,1018.55 1946.6,1012.42 
  1947.48,1006.29 1948.41,1012.42 1949.16,1006.29 1952.83,1012.42 1953.01,1018.55 1953.89,1012.42 1955.08,1018.55 1958.68,1012.42 1961.01,1018.55 1961.71,1012.42 
  1962.73,1006.29 1962.86,1012.42 1962.92,1006.29 1963.08,1000.16 1963.77,994.031 1964.28,987.9 1965.73,994.031 1965.98,1000.16 1966.99,1006.29 1969.58,1012.42 
  1969.59,1006.29 1969.67,1000.16 1970.86,994.031 1970.91,1000.16 1972.91,1006.29 1974.88,1000.16 1975,994.031 1976.16,1000.16 1977.87,1006.29 1980.96,1000.16 
  1983.15,994.031 1984.27,1000.16 1984.36,994.031 1984.56,987.9 1984.77,994.031 1985.25,987.9 1987.74,981.77 1989.57,987.9 1990.4,981.77 1991.11,975.639 
  1993.28,969.508 1993.36,975.639 1993.83,981.77 1994.01,987.9 1996.2,981.77 1996.41,975.639 1999.23,969.508 1999.96,963.378 2003,957.247 2006.51,963.378 
  2009.58,969.508 2012.05,975.639 2012.97,981.77 2013.39,987.9 2013.89,981.77 2015.86,975.639 2016.61,969.508 2016.91,975.639 2019.77,981.77 2020.5,975.639 
  2021.25,969.508 2021.26,975.639 2022.97,981.77 2024.66,975.639 2025.17,981.77 2028.22,987.9 2029.95,994.031 2030.83,1000.16 2033.09,1006.29 2033.37,1000.16 
  2033.81,994.031 2034.48,987.9 2038.15,994.031 2038.4,1000.16 2038.99,1006.29 2039.12,1000.16 2040.07,994.031 2041.85,1000.16 2042.89,994.031 2043.78,987.9 
  2046.34,981.77 2047.77,987.9 2050.7,981.77 2051.36,975.639 2059.33,969.508 2061.91,975.639 2062.32,981.77 2062.66,987.9 2064.13,981.77 2064.24,987.9 
  2064.61,981.77 2068.56,975.639 2068.72,969.508 2068.83,963.378 2071.17,957.247 2072.2,963.378 2072.24,957.247 2073.66,951.116 2075.56,957.247 2077.98,951.116 
  2078.79,957.247 2080.65,951.116 2081.84,944.985 2082.36,938.855 2082.84,932.724 2082.97,938.855 2084.61,932.724 2089.64,938.855 2092.38,944.985 2093.97,938.855 
  2094.45,944.985 2094.6,938.855 2095.5,932.724 2097.93,926.593 2100.27,932.724 2101.11,938.855 2101.79,944.985 2105.35,951.116 2106.97,944.985 2113.46,951.116 
  2113.69,944.985 2119.38,951.116 2120.37,944.985 2121.2,938.855 2123.23,944.985 2123.77,951.116 2124.02,957.247 2125.05,951.116 2125.71,944.985 2129.31,938.855 
  2131.74,944.985 2133.71,938.855 2134.44,932.724 2136.06,926.593 2136.3,920.463 2139.95,926.593 2140.55,920.463 2141.29,914.332 2142.01,920.463 2143.05,926.593 
  2149.03,920.463 2150.35,926.593 2152.99,932.724 2154.56,926.593 2155.54,932.724 2156.57,938.855 2164.95,944.985 2165.2,938.855 2165.49,932.724 2167.14,926.593 
  2167.89,932.724 2167.97,926.593 2169.11,932.724 2172.82,926.593 2172.93,932.724 2176.25,926.593 2177.39,932.724 2183.44,926.593 2183.54,920.463 2184.61,914.332 
  2186.4,920.463 2188.04,926.593 2188.12,932.724 2189.45,926.593 2192.28,920.463 2192.41,926.593 2195.15,932.724 2195.79,926.593 2195.99,932.724 2197.06,938.855 
  2198.32,944.985 2198.57,951.116 2198.95,957.247 2200.38,951.116 2202.96,944.985 2208.65,951.116 2210.4,944.985 2210.42,938.855 2210.82,944.985 2213.23,951.116 
  2215.49,957.247 2215.68,951.116 2216.69,957.247 2219.06,951.116 2222.81,957.247 2224.05,951.116 2226.84,957.247 2230.26,951.116 2233.88,944.985 2234.61,951.116 
  2235.93,944.985 2236.17,951.116 2237.07,944.985 2237.67,951.116 2238.57,957.247 2244.03,951.116 2244.34,957.247 2245.82,963.378 2246.12,969.508 2247.33,963.378 
  2248.34,957.247 2248.79,951.116 2251.28,957.247 2254.95,951.116 2256.66,944.985 2256.86,938.855 2257.9,932.724 2260.23,938.855 2262.95,944.985 2265.39,938.855 
  2265.93,944.985 2268.43,951.116 2271.06,944.985 2271.95,951.116 2274.78,944.985 2275.79,938.855 2278.8,932.724 2280.5,926.593 2280.87,920.463 2281.22,914.332 
  2282.05,908.201 2282.12,902.071 2282.25,895.94 2282.87,889.809 2283.09,895.94 2283.91,889.809 2284,895.94 2284.58,889.809 2285.95,895.94 2286.03,889.809 
  2287.12,883.679 2289.65,889.809 2291.24,895.94 2292.79,889.809 
  "/>
<polyline clip-path="url(#clip052)" style="stroke:#e26f46; stroke-linecap:butt; stroke-linejoin:round; stroke-width:4; stroke-opacity:1; fill:none" points="
  294.087,1386.4 294.153,1380.26 295.773,1374.13 296.389,1368 296.736,1361.87 296.854,1355.74 297.38,1349.61 298.893,1343.48 300.177,1337.35 302.065,1331.22 
  303.439,1325.09 304.202,1318.96 304.543,1312.83 304.728,1306.7 308.999,1300.57 309.184,1294.44 309.874,1288.3 310.435,1282.17 311.323,1276.04 312.168,1269.91 
  313.659,1263.78 313.855,1269.91 314.957,1263.78 315.389,1257.65 316.636,1251.52 317.743,1245.39 317.979,1239.26 322.645,1233.13 324.084,1227 324.33,1220.87 
  325.156,1214.74 325.682,1208.61 328.216,1202.47 328.391,1196.34 329.333,1190.21 329.583,1184.08 332.806,1177.95 333.35,1171.82 334.469,1165.69 335.244,1159.56 
  335.988,1153.43 337.36,1147.3 339.368,1141.17 340.688,1135.04 341.873,1141.17 342.38,1135.04 345.429,1141.17 346.736,1135.04 346.746,1128.91 346.778,1122.78 
  348.972,1116.65 349.157,1110.51 350.154,1104.38 350.463,1098.25 351.654,1092.12 354.537,1098.25 355.7,1092.12 356.651,1085.99 356.734,1079.86 358.557,1073.73 
  359.051,1067.6 359.405,1073.73 360.238,1067.6 361.787,1061.47 362.349,1055.34 362.674,1049.21 363.815,1043.08 364.896,1036.95 365.297,1043.08 367.011,1036.95 
  367.283,1030.82 367.593,1024.68 367.792,1018.55 369.156,1012.42 370.907,1006.29 371.184,1000.16 371.286,994.031 373.504,987.9 374.396,981.77 375.299,975.639 
  375.834,981.77 375.927,975.639 376.453,969.508 377.907,963.378 380.08,957.247 381.556,951.116 382.258,944.985 382.266,938.855 382.536,932.724 384.674,926.593 
  385.01,920.463 385.13,914.332 385.746,908.201 386.115,902.071 386.791,895.94 388.499,889.809 390.302,883.679 392.05,877.548 392.24,883.679 392.779,877.548 
  395.353,883.679 395.953,889.809 396.658,895.94 398.058,889.809 400.888,895.94 403.392,889.809 404.282,895.94 405.643,889.809 406.005,883.679 410.997,877.548 
  413.223,871.417 414.381,865.286 418.852,859.156 421.682,865.286 422.683,859.156 425.28,865.286 426.765,859.156 427.094,853.025 427.266,846.894 427.903,840.764 
  428.86,834.633 429.257,840.764 430.541,846.894 433.259,840.764 436.645,834.633 442.245,828.502 444.772,822.372 444.822,816.241 445.044,810.11 445.158,803.979 
  446.367,797.849 448.137,791.718 448.238,797.849 450.059,803.979 452.253,810.11 452.521,803.979 453.578,797.849 454.041,803.979 454.18,797.849 454.718,791.718 
  456.358,797.849 459.501,803.979 460.017,797.849 462.338,791.718 462.788,785.587 467.273,779.457 467.392,785.587 467.64,779.457 468.305,773.326 469.672,767.195 
  470.399,773.326 473.768,767.195 477.07,773.326 480.177,767.195 480.407,773.326 480.586,779.457 481.673,773.326 486.609,779.457 487.616,773.326 487.759,779.457 
  488.634,785.587 491.626,779.457 492.089,785.587 495.46,779.457 497.374,773.326 498.284,767.195 499.379,773.326 499.416,767.195 499.723,761.065 501.749,754.934 
  503.556,748.803 504.773,742.673 505.373,736.542 505.492,742.673 505.572,736.542 505.879,730.411 506.247,736.542 507.052,730.411 507.508,736.542 508.077,730.411 
  511.118,724.28 511.213,718.15 514.793,724.28 515.6,718.15 517.222,712.019 517.477,705.888 519.935,699.758 520.326,693.627 520.51,687.496 521.262,681.366 
  521.974,687.496 521.984,693.627 526.361,699.758 527.489,705.888 530.681,699.758 530.81,693.627 531.176,699.758 531.278,693.627 533.186,687.496 533.333,681.366 
  535.173,675.235 535.368,681.366 538.128,687.496 541.468,681.366 542.033,687.496 545.864,693.627 546.777,699.758 547.226,693.627 548.472,699.758 548.689,693.627 
  548.898,687.496 551.38,681.366 552.071,687.496 554.67,693.627 555.385,699.758 556.207,705.888 556.509,699.758 556.954,693.627 560.698,699.758 560.814,693.627 
  561.724,687.496 562.974,693.627 564.218,687.496 568.972,681.366 571.779,675.235 574.734,669.104 575.794,662.973 577.38,656.843 578.235,650.712 578.491,644.581 
  579.973,650.712 580.859,644.581 583.681,638.451 587.844,644.581 587.862,650.712 593.928,644.581 595.489,650.712 596.812,644.581 597.115,650.712 598.102,656.843 
  598.138,650.712 598.356,656.843 598.562,650.712 599.128,644.581 599.85,638.451 599.867,632.32 600.96,638.451 601.984,632.32 603.295,638.451 605.878,644.581 
  607.971,638.451 608.914,644.581 610.456,650.712 610.948,644.581 615.643,638.451 615.713,644.581 616.438,638.451 620.166,632.32 621.591,626.189 622.112,632.32 
  625.417,626.189 626.4,632.32 629.174,626.189 631.756,632.32 634.348,626.189 636.42,620.059 636.948,613.928 638.472,607.797 638.852,601.666 640.287,595.536 
  642.023,601.666 643.664,607.797 646.422,613.928 647.408,620.059 647.583,626.189 647.738,620.059 647.994,626.189 648.862,632.32 651.877,626.189 656.099,620.059 
  657.489,626.189 657.581,632.32 660.548,626.189 661.56,632.32 668.33,638.451 671.147,632.32 674.394,638.451 675.711,632.32 678.158,638.451 683.571,644.581 
  683.762,650.712 684.678,644.581 687.946,638.451 688.02,632.32 688.55,638.451 690.841,644.581 691.375,638.451 691.509,632.32 692.055,626.189 692.403,620.059 
  694.595,626.189 696.118,632.32 699.268,638.451 699.786,632.32 704.381,638.451 704.608,632.32 706.06,638.451 706.336,644.581 710.307,650.712 710.41,656.843 
  710.784,662.973 711.409,669.104 713.538,662.973 714.272,656.843 715.18,650.712 715.247,656.843 717.395,650.712 721.606,644.581 722.019,650.712 722.404,656.843 
  724.871,650.712 725.154,644.581 725.375,650.712 726.36,656.843 729.969,650.712 730.062,656.843 730.099,662.973 731.598,656.843 734.323,662.973 736.223,669.104 
  739.741,675.235 740.405,669.104 740.626,662.973 741.05,669.104 741.647,662.973 743.264,669.104 746.727,675.235 746.775,669.104 752.239,675.235 752.291,669.104 
  753.905,662.973 754.345,669.104 756.266,662.973 758.225,669.104 759.136,662.973 759.167,656.843 759.432,650.712 763.586,656.843 765.801,662.973 768.775,656.843 
  768.797,662.973 773.343,656.843 775.458,650.712 775.958,656.843 776.376,662.973 777.956,669.104 778.714,675.235 779.595,669.104 779.675,662.973 780.22,669.104 
  781.609,662.973 781.749,656.843 783.228,650.712 789.05,656.843 789.184,662.973 791.184,656.843 793.404,662.973 793.524,656.843 794.197,662.973 794.635,669.104 
  794.922,675.235 797.744,681.366 800.521,675.235 801.352,669.104 801.375,662.973 803.494,656.843 807.95,650.712 808.076,656.843 809.019,650.712 810.213,644.581 
  810.521,638.451 812.418,632.32 812.679,638.451 812.82,632.32 814.228,638.451 814.375,644.581 815.049,650.712 816.774,656.843 817.903,650.712 818.873,644.581 
  819.065,638.451 822.694,644.581 823.546,638.451 823.856,644.581 827.281,638.451 829.617,632.32 829.721,638.451 830.103,632.32 831.236,638.451 831.273,644.581 
  832.086,638.451 833.598,632.32 835.341,626.189 835.584,620.059 835.748,613.928 836.384,620.059 836.597,626.189 836.931,620.059 836.996,613.928 837.862,607.797 
  839.531,601.666 841.464,595.536 841.68,589.405 842.846,583.274 843.524,577.144 843.535,571.013 845.53,564.882 845.749,571.013 849.484,564.882 851.081,571.013 
  854.014,577.144 854.983,583.274 857.329,577.144 857.986,571.013 860.026,577.144 860.887,571.013 861.75,577.144 862.28,571.013 863.173,564.882 863.345,571.013 
  865.766,564.882 867.52,558.752 867.802,564.882 869.061,558.752 869.227,564.882 871.938,558.752 876.508,552.621 878.97,558.752 878.978,564.882 883.22,571.013 
  883.396,577.144 884.315,571.013 884.642,577.144 885.612,571.013 885.776,564.882 886.084,558.752 886.519,552.621 886.701,546.49 886.825,552.621 887.368,546.49 
  889.708,540.36 890.657,546.49 893.058,552.621 894.525,546.49 895.872,540.36 895.893,546.49 899.503,552.621 899.617,546.49 900.791,552.621 900.793,558.752 
  902.112,564.882 902.217,558.752 902.625,564.882 907.044,571.013 908.368,577.144 910.931,571.013 912.437,564.882 912.973,558.752 914.69,552.621 915.958,546.49 
  916.152,552.621 918.495,546.49 918.987,552.621 920.683,546.49 922.572,552.621 923.244,558.752 924.25,564.882 924.825,571.013 925.758,564.882 925.832,558.752 
  927.543,564.882 927.985,571.013 929.68,577.144 930.349,583.274 930.923,577.144 934.406,571.013 936.138,564.882 937.106,558.752 939.245,552.621 939.88,546.49 
  944.4,552.621 948.352,546.49 949.483,552.621 953.088,546.49 953.37,552.621 953.55,558.752 954.64,552.621 957.687,546.49 960.123,552.621 961.226,558.752 
  961.907,552.621 964.097,558.752 966.304,552.621 967.005,558.752 969.932,552.621 971.766,558.752 971.795,552.621 973.551,558.752 975.283,564.882 980.198,571.013 
  980.536,577.144 981.494,583.274 982.421,589.405 982.805,583.274 983.199,589.405 988.542,595.536 990.433,589.405 991.624,583.274 991.934,589.405 992.604,583.274 
  994.583,589.405 995.839,583.274 996.946,589.405 997.583,595.536 999.433,589.405 1000.57,595.536 1001.74,601.666 1002,607.797 1006.25,613.928 1006.94,607.797 
  1008.53,613.928 1010.27,607.797 1010.99,601.666 1011.55,595.536 1012.46,601.666 1012.53,595.536 1014.47,589.405 1018.53,595.536 1018.54,601.666 1018.63,595.536 
  1021.5,601.666 1023.81,595.536 1025.26,601.666 1025.8,607.797 1026.54,613.928 1027.57,607.797 1028.91,601.666 1030.37,607.797 1034.96,613.928 1036.31,620.059 
  1037.37,613.928 1039.28,607.797 1039.68,601.666 1041.85,607.797 1042.2,601.666 1043.32,595.536 1044.41,589.405 1044.64,583.274 1050.39,577.144 1050.71,571.013 
  1051.35,577.144 1051.71,583.274 1052.35,589.405 1052.82,595.536 1055.11,601.666 1055.25,595.536 1056.99,589.405 1059.05,583.274 1059.58,577.144 1063.98,583.274 
  1065,589.405 1066.32,583.274 1066.82,589.405 1067.22,583.274 1067.6,589.405 1068.56,583.274 1069.42,577.144 1069.52,571.013 1070.78,577.144 1073.01,571.013 
  1074.62,564.882 1075.73,571.013 1076.87,564.882 1077.35,558.752 1081.5,564.882 1081.69,558.752 1082.69,552.621 1084.44,546.49 1087.48,540.36 1088.86,534.229 
  1089.63,528.098 1091.83,534.229 1091.84,528.098 1092.86,534.229 1093.94,540.36 1095.79,546.49 1095.85,552.621 1095.89,558.752 1096.02,564.882 1099.39,571.013 
  1101.99,577.144 1102.71,583.274 1103.12,589.405 1104.75,583.274 1105.72,589.405 1106.48,595.536 1107.04,589.405 1107.63,595.536 1107.83,589.405 1108.07,595.536 
  1108.82,601.666 1110.77,595.536 1111.05,601.666 1111.11,607.797 1114.4,613.928 1117.03,620.059 1118.57,613.928 1119.36,607.797 1120.82,613.928 1121.79,607.797 
  1127.42,613.928 1128.38,607.797 1129.01,601.666 1129.68,595.536 1130.05,589.405 1133.64,583.274 1134.1,589.405 1135.6,583.274 1136.16,589.405 1136.73,583.274 
  1138.97,589.405 1139.41,583.274 1141.35,577.144 1141.37,583.274 1143.63,589.405 1145.53,583.274 1147.03,589.405 1147.64,583.274 1148.05,589.405 1150.29,583.274 
  1151.02,589.405 1153.49,583.274 1158.36,589.405 1158.6,595.536 1158.83,601.666 1159.3,595.536 1160.02,601.666 1161.76,595.536 1162.83,589.405 1166.67,583.274 
  1167.95,577.144 1169.7,571.013 1170.63,564.882 1170.97,571.013 1171.55,564.882 1171.72,558.752 1174.18,552.621 1174.53,546.49 1176.84,552.621 1182.62,558.752 
  1184.18,564.882 1184.59,571.013 1185.81,577.144 1187.46,571.013 1189.31,564.882 1189.62,558.752 1190.21,552.621 1190.42,558.752 1192.1,564.882 1193.52,558.752 
  1194.36,564.882 1195.14,558.752 1197.1,564.882 1197.25,558.752 1198.24,552.621 1199.57,558.752 1203.55,552.621 1207.7,558.752 1207.94,564.882 1208.5,571.013 
  1208.55,564.882 1209.41,571.013 1210.28,577.144 1212.15,571.013 1212.23,577.144 1212.84,583.274 1213.14,577.144 1215.42,583.274 1215.51,577.144 1216.97,571.013 
  1219.02,564.882 1220.77,571.013 1221.03,577.144 1222.81,583.274 1223.6,589.405 1223.85,583.274 1231.78,577.144 1234.23,571.013 1234.89,564.882 1237.21,571.013 
  1238.64,564.882 1239.25,558.752 1239.97,552.621 1244.55,546.49 1245.19,540.36 1247.07,534.229 1247.87,528.098 1249.33,521.967 1251.63,515.837 1252.29,521.967 
  1253,515.837 1253.49,509.706 1258.54,503.575 1262.47,509.706 1264.44,515.837 1266.52,509.706 1269.27,503.575 1273.53,497.445 1273.78,491.314 1274.6,497.445 
  1275.7,503.575 1278.37,509.706 1283.21,515.837 1285.42,509.706 1292.08,515.837 1296.58,521.967 1296.65,515.837 1297.03,521.967 1297.46,515.837 1298.18,509.706 
  1300.7,503.575 1301.13,509.706 1301.39,515.837 1301.4,509.706 1302.68,503.575 1303.92,509.706 1304.1,503.575 1306.43,497.445 1307.08,503.575 1308.06,497.445 
  1313.37,503.575 1313.51,509.706 1313.69,503.575 1314.83,497.445 1316.53,503.575 1317.12,509.706 1320.66,503.575 1320.85,509.706 1321.11,503.575 1322.81,497.445 
  1323.68,491.314 1326.66,497.445 1329.03,503.575 1335.05,509.706 1336.31,515.837 1336.86,521.967 1336.88,515.837 1336.92,521.967 1337.31,515.837 1337.49,521.967 
  1338.09,528.098 1338.38,534.229 1343.73,540.36 1345.14,546.49 1346.14,552.621 1347.25,546.49 1347.25,552.621 1348.78,546.49 1353.66,552.621 1356.71,558.752 
  1357.99,552.621 1359.28,546.49 1361.33,540.36 1365.21,546.49 1365.4,552.621 1367.16,558.752 1368.96,564.882 1369.17,558.752 1371.63,564.882 1374.48,558.752 
  1376.45,552.621 1377.37,558.752 1379.13,552.621 1379.16,546.49 1379.45,540.36 1380.09,534.229 1380.37,540.36 1380.7,546.49 1380.8,540.36 1383.43,534.229 
  1384.39,540.36 1388.04,534.229 1389.83,540.36 1390.48,546.49 1392.1,540.36 1395.21,546.49 1396.6,540.36 1397.41,534.229 1399.9,540.36 1400.73,546.49 
  1403.2,540.36 1404.52,546.49 1405.15,552.621 1406.15,546.49 1407.25,540.36 1412.23,546.49 1412.62,552.621 1413.02,558.752 1414.55,564.882 1414.91,571.013 
  1415.36,577.144 1420.66,571.013 1420.89,564.882 1421.43,558.752 1422.46,564.882 1424.62,558.752 1426.45,564.882 1428.71,571.013 1430.18,577.144 1430.98,571.013 
  1431.42,564.882 1432.36,571.013 1433.36,564.882 1437.09,558.752 1438.23,564.882 1440.41,571.013 1445.88,577.144 1446.17,583.274 1447.63,589.405 1448.39,583.274 
  1449.03,577.144 1453.66,583.274 1456.2,577.144 1456.97,571.013 1457.01,564.882 1460.96,558.752 1463.7,552.621 1465.3,558.752 1467.14,552.621 1469.61,558.752 
  1475.01,564.882 1475.65,558.752 1476.96,552.621 1477.09,558.752 1477.51,564.882 1477.74,558.752 1477.8,552.621 1478.56,546.49 1478.68,552.621 1481.04,546.49 
  1485.34,540.36 1486.11,546.49 1488.27,540.36 1488.91,534.229 1489.76,528.098 1489.83,521.967 1490.04,528.098 1490.85,534.229 1499.08,540.36 1501.13,546.49 
  1501.43,552.621 1502.37,558.752 1503.18,564.882 1503.86,571.013 1504.27,564.882 1506.21,571.013 1506.39,577.144 1508.38,571.013 1510.16,564.882 1514.08,571.013 
  1518.96,577.144 1519.71,583.274 1519.88,589.405 1520.31,583.274 1526.07,589.405 1526.73,595.536 1526.88,589.405 1531,583.274 1531.1,577.144 1531.79,583.274 
  1533.75,577.144 1536.88,583.274 1537.81,577.144 1540.33,571.013 1541.1,564.882 1542.18,558.752 1545,552.621 1545.01,546.49 1545.45,540.36 1545.76,546.49 
  1545.99,540.36 1546.5,546.49 1546.61,540.36 1547.93,534.229 1549.18,528.098 1549.18,521.967 1552.8,528.098 1555.05,521.967 1555.52,515.837 1558.56,521.967 
  1558.91,515.837 1559,509.706 1559.5,515.837 1561.01,509.706 1562.39,503.575 1563.37,497.445 1565.54,491.314 1568.14,497.445 1569.24,491.314 1569.57,485.183 
  1573.85,479.053 1573.86,485.183 1575.68,491.314 1576.68,497.445 1577.38,503.575 1577.83,497.445 1578.27,491.314 1579.1,497.445 1586.32,491.314 1586.65,497.445 
  1587.51,503.575 1587.95,497.445 1590.68,491.314 1590.86,485.183 1592.17,479.053 1593.14,485.183 1593.85,491.314 1594.73,497.445 1595.85,491.314 1596.12,485.183 
  1596.49,491.314 1597.78,497.445 1599.71,491.314 1601.72,485.183 1602.78,479.053 1608.05,485.183 1610.29,491.314 1613.02,485.183 1615.2,491.314 1619.25,497.445 
  1619.52,503.575 1622.36,509.706 1622.68,503.575 1624.35,509.706 1625.05,503.575 1625.36,509.706 1629.81,515.837 1631.17,521.967 1633.63,515.837 1633.68,509.706 
  1633.8,515.837 1634.5,521.967 1634.64,528.098 1635.34,521.967 1641.41,528.098 1641.5,521.967 1641.8,515.837 1642.74,521.967 1643.47,528.098 1643.83,521.967 
  1644.34,528.098 1644.42,521.967 1644.84,528.098 1651.13,534.229 1651.38,528.098 1651.51,521.967 1651.52,515.837 1651.83,521.967 1653.83,528.098 1654.2,534.229 
  1654.82,540.36 1657.74,546.49 1658.45,540.36 1659.29,546.49 1659.36,552.621 1659.69,546.49 1661.46,540.36 1661.7,534.229 1662.77,540.36 1663.02,534.229 
  1664.4,540.36 1666.74,534.229 1666.8,540.36 1672.28,534.229 1673.05,540.36 1675.45,546.49 1678.69,552.621 1680.01,558.752 1680.53,552.621 1681.18,558.752 
  1681.65,552.621 1683.57,558.752 1684.11,552.621 1684.21,546.49 1688.88,552.621 1690.53,558.752 1691.05,552.621 1692.82,558.752 1693.14,564.882 1693.8,558.752 
  1696.31,564.882 1698.92,558.752 1700.73,564.882 1701.46,558.752 1703.59,552.621 1703.76,546.49 1704.05,540.36 1704.66,546.49 1707.87,540.36 1708.56,546.49 
  1709.14,552.621 1709.5,546.49 1710.53,552.621 1712.71,546.49 1714.34,552.621 1715.89,558.752 1716.42,564.882 1717.42,571.013 1717.77,577.144 1717.88,583.274 
  1719.04,577.144 1719.76,571.013 1719.89,564.882 1722.19,558.752 1724.82,552.621 1725.64,546.49 1726.11,552.621 1728.84,558.752 1729.47,564.882 1735.05,571.013 
  1737.29,564.882 1738.9,571.013 1741.21,577.144 1742.85,571.013 1747.13,564.882 1748.57,558.752 1748.6,552.621 1750.28,558.752 1753.73,564.882 1758.93,558.752 
  1760.17,564.882 1762.19,571.013 1763.79,577.144 1766.68,583.274 1767.79,577.144 1768.17,571.013 1769.69,577.144 1769.94,571.013 1775.22,564.882 1778.87,571.013 
  1779.7,564.882 1781.22,571.013 1783.05,577.144 1785.38,571.013 1788.67,564.882 1796.81,571.013 1797.48,564.882 1798.11,558.752 1798.87,564.882 1800.29,558.752 
  1803.81,552.621 1805.44,558.752 1809.12,552.621 1809.65,558.752 1812.29,564.882 1816.68,571.013 1816.91,577.144 1820.92,571.013 1822.43,577.144 1824,571.013 
  1824.51,577.144 1825.75,583.274 1826.03,577.144 1826.71,571.013 1827.14,564.882 1829.49,571.013 1829.65,564.882 1829.91,571.013 1830.59,577.144 1831,571.013 
  1831.69,577.144 1831.96,583.274 1832.3,577.144 1832.68,583.274 1833.84,589.405 1834.15,583.274 1837.65,589.405 1838.17,595.536 1839.12,601.666 1839.28,595.536 
  1839.86,589.405 1841.13,595.536 1842.09,589.405 1843.24,595.536 1843.46,589.405 1843.62,595.536 1845.48,589.405 1846.66,583.274 1846.69,577.144 1848.12,571.013 
  1848.77,577.144 1848.95,571.013 1849.59,564.882 1849.83,571.013 1850.07,577.144 1851.28,583.274 1852.47,589.405 1853.75,595.536 1855.43,589.405 1856.61,583.274 
  1856.69,589.405 1857.02,595.536 1857.12,601.666 1857.32,607.797 1857.46,601.666 1857.63,595.536 1859.42,589.405 1862.07,583.274 1863.12,589.405 1864.26,583.274 
  1867.41,577.144 1867.43,571.013 1867.58,564.882 1868.17,571.013 1870.49,564.882 1876.9,558.752 1877.7,564.882 1877.82,558.752 1885.62,564.882 1886.93,571.013 
  1887.19,564.882 1887.32,571.013 1887.92,564.882 1888.62,558.752 1889.24,552.621 1890.62,558.752 1891.4,564.882 1891.58,571.013 1892.22,564.882 1895.3,571.013 
  1897.6,564.882 1898.14,558.752 1898.68,564.882 1899.97,558.752 1904.66,564.882 1906.96,558.752 1917.88,552.621 1919.77,546.49 1929.22,540.36 1929.51,534.229 
  1929.54,540.36 1934.71,534.229 1935.42,528.098 1940.83,521.967 1941.04,528.098 1941.76,521.967 1942.4,528.098 1943.56,534.229 1944.87,528.098 1946.6,534.229 
  1947.48,540.36 1948.41,534.229 1949.16,540.36 1952.83,534.229 1953.01,528.098 1953.89,534.229 1955.08,528.098 1958.68,534.229 1961.01,528.098 1961.71,534.229 
  1962.73,540.36 1962.86,534.229 1962.92,540.36 1963.08,546.49 1963.77,552.621 1964.28,558.752 1965.73,552.621 1965.98,546.49 1966.99,540.36 1969.58,534.229 
  1969.59,540.36 1969.67,546.49 1970.86,552.621 1970.91,546.49 1972.91,540.36 1974.88,546.49 1975,552.621 1976.16,546.49 1977.87,540.36 1980.96,546.49 
  1983.15,552.621 1984.27,546.49 1984.36,552.621 1984.56,558.752 1984.77,552.621 1985.25,558.752 1987.74,564.882 1989.57,558.752 1990.4,564.882 1991.11,571.013 
  1993.28,577.144 1993.36,571.013 1993.83,564.882 1994.01,558.752 1996.2,564.882 1996.41,571.013 1999.23,577.144 1999.96,583.274 2003,589.405 2006.51,583.274 
  2009.58,577.144 2012.05,571.013 2012.97,564.882 2013.39,558.752 2013.89,564.882 2015.86,571.013 2016.61,577.144 2016.91,571.013 2019.77,564.882 2020.5,571.013 
  2021.25,577.144 2021.26,571.013 2022.97,564.882 2024.66,571.013 2025.17,564.882 2028.22,558.752 2029.95,552.621 2030.83,546.49 2033.09,540.36 2033.37,546.49 
  2033.81,552.621 2034.48,558.752 2038.15,552.621 2038.4,546.49 2038.99,540.36 2039.12,546.49 2040.07,552.621 2041.85,546.49 2042.89,552.621 2043.78,558.752 
  2046.34,564.882 2047.77,558.752 2050.7,564.882 2051.36,571.013 2059.33,577.144 2061.91,571.013 2062.32,564.882 2062.66,558.752 2064.13,564.882 2064.24,558.752 
  2064.61,564.882 2068.56,571.013 2068.72,577.144 2068.83,583.274 2071.17,589.405 2072.2,583.274 2072.24,589.405 2073.66,595.536 2075.56,589.405 2077.98,595.536 
  2078.79,589.405 2080.65,595.536 2081.84,601.666 2082.36,607.797 2082.84,613.928 2082.97,607.797 2084.61,613.928 2089.64,607.797 2092.38,601.666 2093.97,607.797 
  2094.45,601.666 2094.6,607.797 2095.5,613.928 2097.93,620.059 2100.27,613.928 2101.11,607.797 2101.79,601.666 2105.35,595.536 2106.97,601.666 2113.46,595.536 
  2113.69,601.666 2119.38,595.536 2120.37,601.666 2121.2,607.797 2123.23,601.666 2123.77,595.536 2124.02,589.405 2125.05,595.536 2125.71,601.666 2129.31,607.797 
  2131.74,601.666 2133.71,607.797 2134.44,613.928 2136.06,620.059 2136.3,626.189 2139.95,620.059 2140.55,626.189 2141.29,632.32 2142.01,626.189 2143.05,620.059 
  2149.03,626.189 2150.35,620.059 2152.99,613.928 2154.56,620.059 2155.54,613.928 2156.57,607.797 2164.95,601.666 2165.2,607.797 2165.49,613.928 2167.14,620.059 
  2167.89,613.928 2167.97,620.059 2169.11,613.928 2172.82,620.059 2172.93,613.928 2176.25,620.059 2177.39,613.928 2183.44,620.059 2183.54,626.189 2184.61,632.32 
  2186.4,626.189 2188.04,620.059 2188.12,613.928 2189.45,620.059 2192.28,626.189 2192.41,620.059 2195.15,613.928 2195.79,620.059 2195.99,613.928 2197.06,607.797 
  2198.32,601.666 2198.57,595.536 2198.95,589.405 2200.38,595.536 2202.96,601.666 2208.65,595.536 2210.4,601.666 2210.42,607.797 2210.82,601.666 2213.23,595.536 
  2215.49,589.405 2215.68,595.536 2216.69,589.405 2219.06,595.536 2222.81,589.405 2224.05,595.536 2226.84,589.405 2230.26,595.536 2233.88,601.666 2234.61,595.536 
  2235.93,601.666 2236.17,595.536 2237.07,601.666 2237.67,595.536 2238.57,589.405 2244.03,595.536 2244.34,589.405 2245.82,583.274 2246.12,577.144 2247.33,583.274 
  2248.34,589.405 2248.79,595.536 2251.28,589.405 2254.95,595.536 2256.66,601.666 2256.86,607.797 2257.9,613.928 2260.23,607.797 2262.95,601.666 2265.39,607.797 
  2265.93,601.666 2268.43,595.536 2271.06,601.666 2271.95,595.536 2274.78,601.666 2275.79,607.797 2278.8,613.928 2280.5,620.059 2280.87,626.189 2281.22,632.32 
  2282.05,638.451 2282.12,644.581 2282.25,650.712 2282.87,656.843 2283.09,650.712 2283.91,656.843 2284,650.712 2284.58,656.843 2285.95,650.712 2286.03,656.843 
  2287.12,662.973 2289.65,656.843 2291.24,650.712 2292.79,656.843 
  "/>
<path clip-path="url(#clip050)" d="
M2015.07 322.316 L2282.13 322.316 L2282.13 166.796 L2015.07 166.796  Z
  " fill="#ffffff" fill-rule="evenodd" fill-opacity="1"/>
<polyline clip-path="url(#clip050)" style="stroke:#000000; stroke-linecap:butt; stroke-linejoin:round; stroke-width:4; stroke-opacity:1; fill:none" points="
  2015.07,322.316 2282.13,322.316 2282.13,166.796 2015.07,166.796 2015.07,322.316 
  "/>
<polyline clip-path="url(#clip050)" style="stroke:#009af9; stroke-linecap:butt; stroke-linejoin:round; stroke-width:4; stroke-opacity:1; fill:none" points="
  2038.61,218.636 2179.85,218.636 
  "/>
<path clip-path="url(#clip050)" d="M2219.22 205.962 L2212.88 223.161 L2225.59 223.161 L2219.22 205.962 M2216.58 201.356 L2221.88 201.356 L2235.05 235.916 L2230.19 235.916 L2227.04 227.05 L2211.47 227.05 L2208.32 235.916 L2203.39 235.916 L2216.58 201.356 Z" fill="#000000" fill-rule="evenodd" fill-opacity="1" /><polyline clip-path="url(#clip050)" style="stroke:#e26f46; stroke-linecap:butt; stroke-linejoin:round; stroke-width:4; stroke-opacity:1; fill:none" points="
  2038.61,270.476 2179.85,270.476 
  "/>
<path clip-path="url(#clip050)" d="M2208.06 271.251 L2208.06 283.913 L2215.56 283.913 Q2219.34 283.913 2221.14 282.362 Q2222.97 280.788 2222.97 277.571 Q2222.97 274.33 2221.14 272.802 Q2219.34 271.251 2215.56 271.251 L2208.06 271.251 M2208.06 257.038 L2208.06 267.455 L2214.98 267.455 Q2218.41 267.455 2220.08 266.182 Q2221.77 264.885 2221.77 262.247 Q2221.77 259.631 2220.08 258.335 Q2218.41 257.038 2214.98 257.038 L2208.06 257.038 M2203.39 253.196 L2215.33 253.196 Q2220.68 253.196 2223.57 255.418 Q2226.47 257.64 2226.47 261.737 Q2226.47 264.909 2224.98 266.784 Q2223.5 268.659 2220.63 269.122 Q2224.08 269.862 2225.98 272.223 Q2227.9 274.561 2227.9 278.08 Q2227.9 282.709 2224.75 285.233 Q2221.61 287.756 2215.8 287.756 L2203.39 287.756 L2203.39 253.196 Z" fill="#000000" fill-rule="evenodd" fill-opacity="1" /></svg>
