<?xml version="1.0" encoding="utf-8"?>
<svg xmlns="http://www.w3.org/2000/svg" xmlns:xlink="http://www.w3.org/1999/xlink" width="600" height="400" viewBox="0 0 2400 1600">
<defs>
  <clipPath id="clip600">
    <rect x="0" y="0" width="2400" height="1600"/>
  </clipPath>
</defs>
<path clip-path="url(#clip600)" d="
M0 1600 L2400 1600 L2400 0 L0 0  Z
  " fill="#ffffff" fill-rule="evenodd" fill-opacity="1"/>
<defs>
  <clipPath id="clip601">
    <rect x="480" y="0" width="1681" height="1600"/>
  </clipPath>
</defs>
<path clip-path="url(#clip600)" d="
M186.274 1486.45 L2352.76 1486.45 L2352.76 47.2441 L186.274 47.2441  Z
  " fill="#ffffff" fill-rule="evenodd" fill-opacity="1"/>
<defs>
  <clipPath id="clip602">
    <rect x="186" y="47" width="2167" height="1440"/>
  </clipPath>
</defs>
<polyline clip-path="url(#clip602)" style="stroke:#000000; stroke-linecap:butt; stroke-linejoin:round; stroke-width:2; stroke-opacity:0.1; fill:none" points="
  247.59,1486.45 247.59,47.2441 
  "/>
<polyline clip-path="url(#clip602)" style="stroke:#000000; stroke-linecap:butt; stroke-linejoin:round; stroke-width:2; stroke-opacity:0.1; fill:none" points="
  572.878,1486.45 572.878,47.2441 
  "/>
<polyline clip-path="url(#clip602)" style="stroke:#000000; stroke-linecap:butt; stroke-linejoin:round; stroke-width:2; stroke-opacity:0.1; fill:none" points="
  898.167,1486.45 898.167,47.2441 
  "/>
<polyline clip-path="url(#clip602)" style="stroke:#000000; stroke-linecap:butt; stroke-linejoin:round; stroke-width:2; stroke-opacity:0.1; fill:none" points="
  1223.46,1486.45 1223.46,47.2441 
  "/>
<polyline clip-path="url(#clip602)" style="stroke:#000000; stroke-linecap:butt; stroke-linejoin:round; stroke-width:2; stroke-opacity:0.1; fill:none" points="
  1548.75,1486.45 1548.75,47.2441 
  "/>
<polyline clip-path="url(#clip602)" style="stroke:#000000; stroke-linecap:butt; stroke-linejoin:round; stroke-width:2; stroke-opacity:0.1; fill:none" points="
  1874.03,1486.45 1874.03,47.2441 
  "/>
<polyline clip-path="url(#clip602)" style="stroke:#000000; stroke-linecap:butt; stroke-linejoin:round; stroke-width:2; stroke-opacity:0.1; fill:none" points="
  2199.32,1486.45 2199.32,47.2441 
  "/>
<polyline clip-path="url(#clip600)" style="stroke:#000000; stroke-linecap:butt; stroke-linejoin:round; stroke-width:4; stroke-opacity:1; fill:none" points="
  186.274,1486.45 2352.76,1486.45 
  "/>
<polyline clip-path="url(#clip600)" style="stroke:#000000; stroke-linecap:butt; stroke-linejoin:round; stroke-width:4; stroke-opacity:1; fill:none" points="
  247.59,1486.45 247.59,1467.55 
  "/>
<polyline clip-path="url(#clip600)" style="stroke:#000000; stroke-linecap:butt; stroke-linejoin:round; stroke-width:4; stroke-opacity:1; fill:none" points="
  572.878,1486.45 572.878,1467.55 
  "/>
<polyline clip-path="url(#clip600)" style="stroke:#000000; stroke-linecap:butt; stroke-linejoin:round; stroke-width:4; stroke-opacity:1; fill:none" points="
  898.167,1486.45 898.167,1467.55 
  "/>
<polyline clip-path="url(#clip600)" style="stroke:#000000; stroke-linecap:butt; stroke-linejoin:round; stroke-width:4; stroke-opacity:1; fill:none" points="
  1223.46,1486.45 1223.46,1467.55 
  "/>
<polyline clip-path="url(#clip600)" style="stroke:#000000; stroke-linecap:butt; stroke-linejoin:round; stroke-width:4; stroke-opacity:1; fill:none" points="
  1548.75,1486.45 1548.75,1467.55 
  "/>
<polyline clip-path="url(#clip600)" style="stroke:#000000; stroke-linecap:butt; stroke-linejoin:round; stroke-width:4; stroke-opacity:1; fill:none" points="
  1874.03,1486.45 1874.03,1467.55 
  "/>
<polyline clip-path="url(#clip600)" style="stroke:#000000; stroke-linecap:butt; stroke-linejoin:round; stroke-width:4; stroke-opacity:1; fill:none" points="
  2199.32,1486.45 2199.32,1467.55 
  "/>
<path clip-path="url(#clip600)" d="M247.59 1517.37 Q243.978 1517.37 242.15 1520.93 Q240.344 1524.47 240.344 1531.6 Q240.344 1538.71 242.15 1542.27 Q243.978 1545.82 247.59 1545.82 Q251.224 1545.82 253.029 1542.27 Q254.858 1538.71 254.858 1531.6 Q254.858 1524.47 253.029 1520.93 Q251.224 1517.37 247.59 1517.37 M247.59 1513.66 Q253.4 1513.66 256.455 1518.27 Q259.534 1522.85 259.534 1531.6 Q259.534 1540.33 256.455 1544.94 Q253.4 1549.52 247.59 1549.52 Q241.779 1549.52 238.701 1544.94 Q235.645 1540.33 235.645 1531.6 Q235.645 1522.85 238.701 1518.27 Q241.779 1513.66 247.59 1513.66 Z" fill="#000000" fill-rule="evenodd" fill-opacity="1" /><path clip-path="url(#clip600)" d="M567.531 1544.91 L583.851 1544.91 L583.851 1548.85 L561.906 1548.85 L561.906 1544.91 Q564.568 1542.16 569.152 1537.53 Q573.758 1532.88 574.939 1531.53 Q577.184 1529.01 578.064 1527.27 Q578.966 1525.51 578.966 1523.82 Q578.966 1521.07 577.022 1519.33 Q575.101 1517.6 571.999 1517.6 Q569.8 1517.6 567.346 1518.36 Q564.916 1519.13 562.138 1520.68 L562.138 1515.95 Q564.962 1514.82 567.416 1514.24 Q569.869 1513.66 571.906 1513.66 Q577.277 1513.66 580.471 1516.35 Q583.665 1519.03 583.665 1523.52 Q583.665 1525.65 582.855 1527.57 Q582.068 1529.47 579.962 1532.07 Q579.383 1532.74 576.281 1535.95 Q573.179 1539.15 567.531 1544.91 Z" fill="#000000" fill-rule="evenodd" fill-opacity="1" /><path clip-path="url(#clip600)" d="M901.177 1518.36 L889.371 1536.81 L901.177 1536.81 L901.177 1518.36 M899.95 1514.29 L905.829 1514.29 L905.829 1536.81 L910.76 1536.81 L910.76 1540.7 L905.829 1540.7 L905.829 1548.85 L901.177 1548.85 L901.177 1540.7 L885.575 1540.7 L885.575 1536.19 L899.95 1514.29 Z" fill="#000000" fill-rule="evenodd" fill-opacity="1" /><path clip-path="url(#clip600)" d="M1223.86 1529.7 Q1220.71 1529.7 1218.86 1531.86 Q1217.03 1534.01 1217.03 1537.76 Q1217.03 1541.49 1218.86 1543.66 Q1220.71 1545.82 1223.86 1545.82 Q1227.01 1545.82 1228.84 1543.66 Q1230.69 1541.49 1230.69 1537.76 Q1230.69 1534.01 1228.84 1531.86 Q1227.01 1529.7 1223.86 1529.7 M1233.14 1515.05 L1233.14 1519.31 Q1231.38 1518.48 1229.58 1518.04 Q1227.8 1517.6 1226.04 1517.6 Q1221.41 1517.6 1218.95 1520.72 Q1216.52 1523.85 1216.18 1530.17 Q1217.54 1528.15 1219.6 1527.09 Q1221.66 1526 1224.14 1526 Q1229.35 1526 1232.36 1529.17 Q1235.39 1532.32 1235.39 1537.76 Q1235.39 1543.08 1232.24 1546.3 Q1229.09 1549.52 1223.86 1549.52 Q1217.87 1549.52 1214.69 1544.94 Q1211.52 1540.33 1211.52 1531.6 Q1211.52 1523.41 1215.41 1518.55 Q1219.3 1513.66 1225.85 1513.66 Q1227.61 1513.66 1229.39 1514.01 Q1231.2 1514.36 1233.14 1515.05 Z" fill="#000000" fill-rule="evenodd" fill-opacity="1" /><path clip-path="url(#clip600)" d="M1548.75 1532.44 Q1545.41 1532.44 1543.49 1534.22 Q1541.59 1536 1541.59 1539.13 Q1541.59 1542.25 1543.49 1544.03 Q1545.41 1545.82 1548.75 1545.82 Q1552.08 1545.82 1554 1544.03 Q1555.92 1542.23 1555.92 1539.13 Q1555.92 1536 1554 1534.22 Q1552.1 1532.44 1548.75 1532.44 M1544.07 1530.45 Q1541.06 1529.7 1539.37 1527.64 Q1537.7 1525.58 1537.7 1522.62 Q1537.7 1518.48 1540.64 1516.07 Q1543.61 1513.66 1548.75 1513.66 Q1553.91 1513.66 1556.85 1516.07 Q1559.79 1518.48 1559.79 1522.62 Q1559.79 1525.58 1558.1 1527.64 Q1556.43 1529.7 1553.44 1530.45 Q1556.82 1531.23 1558.7 1533.52 Q1560.6 1535.82 1560.6 1539.13 Q1560.6 1544.15 1557.52 1546.83 Q1554.46 1549.52 1548.75 1549.52 Q1543.03 1549.52 1539.95 1546.83 Q1536.89 1544.15 1536.89 1539.13 Q1536.89 1535.82 1538.79 1533.52 Q1540.69 1531.23 1544.07 1530.45 M1542.36 1523.06 Q1542.36 1525.75 1544.02 1527.25 Q1545.71 1528.76 1548.75 1528.76 Q1551.75 1528.76 1553.44 1527.25 Q1555.16 1525.75 1555.16 1523.06 Q1555.16 1520.38 1553.44 1518.87 Q1551.75 1517.37 1548.75 1517.37 Q1545.71 1517.37 1544.02 1518.87 Q1542.36 1520.38 1542.36 1523.06 Z" fill="#000000" fill-rule="evenodd" fill-opacity="1" /><path clip-path="url(#clip600)" d="M1848.72 1544.91 L1856.36 1544.91 L1856.36 1518.55 L1848.05 1520.21 L1848.05 1515.95 L1856.31 1514.29 L1860.99 1514.29 L1860.99 1544.91 L1868.63 1544.91 L1868.63 1548.85 L1848.72 1548.85 L1848.72 1544.91 Z" fill="#000000" fill-rule="evenodd" fill-opacity="1" /><path clip-path="url(#clip600)" d="M1888.07 1517.37 Q1884.46 1517.37 1882.63 1520.93 Q1880.83 1524.47 1880.83 1531.6 Q1880.83 1538.71 1882.63 1542.27 Q1884.46 1545.82 1888.07 1545.82 Q1891.71 1545.82 1893.51 1542.27 Q1895.34 1538.71 1895.34 1531.6 Q1895.34 1524.47 1893.51 1520.93 Q1891.71 1517.37 1888.07 1517.37 M1888.07 1513.66 Q1893.88 1513.66 1896.94 1518.27 Q1900.02 1522.85 1900.02 1531.6 Q1900.02 1540.33 1896.94 1544.94 Q1893.88 1549.52 1888.07 1549.52 Q1882.26 1549.52 1879.18 1544.94 Q1876.13 1540.33 1876.13 1531.6 Q1876.13 1522.85 1879.18 1518.27 Q1882.26 1513.66 1888.07 1513.66 Z" fill="#000000" fill-rule="evenodd" fill-opacity="1" /><path clip-path="url(#clip600)" d="M2174.81 1544.91 L2182.45 1544.91 L2182.45 1518.55 L2174.14 1520.21 L2174.14 1515.95 L2182.4 1514.29 L2187.08 1514.29 L2187.08 1544.91 L2194.72 1544.91 L2194.72 1548.85 L2174.81 1548.85 L2174.81 1544.91 Z" fill="#000000" fill-rule="evenodd" fill-opacity="1" /><path clip-path="url(#clip600)" d="M2208.19 1544.91 L2224.51 1544.91 L2224.51 1548.85 L2202.56 1548.85 L2202.56 1544.91 Q2205.23 1542.16 2209.81 1537.53 Q2214.42 1532.88 2215.6 1531.53 Q2217.84 1529.01 2218.72 1527.27 Q2219.62 1525.51 2219.62 1523.82 Q2219.62 1521.07 2217.68 1519.33 Q2215.76 1517.6 2212.66 1517.6 Q2210.46 1517.6 2208 1518.36 Q2205.57 1519.13 2202.8 1520.68 L2202.8 1515.95 Q2205.62 1514.82 2208.07 1514.24 Q2210.53 1513.66 2212.56 1513.66 Q2217.93 1513.66 2221.13 1516.35 Q2224.32 1519.03 2224.32 1523.52 Q2224.32 1525.65 2223.51 1527.57 Q2222.73 1529.47 2220.62 1532.07 Q2220.04 1532.74 2216.94 1535.95 Q2213.84 1539.15 2208.19 1544.91 Z" fill="#000000" fill-rule="evenodd" fill-opacity="1" /><polyline clip-path="url(#clip602)" style="stroke:#000000; stroke-linecap:butt; stroke-linejoin:round; stroke-width:2; stroke-opacity:0.1; fill:none" points="
  186.274,1445.74 2352.76,1445.74 
  "/>
<polyline clip-path="url(#clip602)" style="stroke:#000000; stroke-linecap:butt; stroke-linejoin:round; stroke-width:2; stroke-opacity:0.1; fill:none" points="
  186.274,1106.29 2352.76,1106.29 
  "/>
<polyline clip-path="url(#clip602)" style="stroke:#000000; stroke-linecap:butt; stroke-linejoin:round; stroke-width:2; stroke-opacity:0.1; fill:none" points="
  186.274,766.854 2352.76,766.854 
  "/>
<polyline clip-path="url(#clip602)" style="stroke:#000000; stroke-linecap:butt; stroke-linejoin:round; stroke-width:2; stroke-opacity:0.1; fill:none" points="
  186.274,427.413 2352.76,427.413 
  "/>
<polyline clip-path="url(#clip602)" style="stroke:#000000; stroke-linecap:butt; stroke-linejoin:round; stroke-width:2; stroke-opacity:0.1; fill:none" points="
  186.274,87.9728 2352.76,87.9728 
  "/>
<polyline clip-path="url(#clip600)" style="stroke:#000000; stroke-linecap:butt; stroke-linejoin:round; stroke-width:4; stroke-opacity:1; fill:none" points="
  186.274,1486.45 186.274,47.2441 
  "/>
<polyline clip-path="url(#clip600)" style="stroke:#000000; stroke-linecap:butt; stroke-linejoin:round; stroke-width:4; stroke-opacity:1; fill:none" points="
  186.274,1445.74 205.172,1445.74 
  "/>
<polyline clip-path="url(#clip600)" style="stroke:#000000; stroke-linecap:butt; stroke-linejoin:round; stroke-width:4; stroke-opacity:1; fill:none" points="
  186.274,1106.29 205.172,1106.29 
  "/>
<polyline clip-path="url(#clip600)" style="stroke:#000000; stroke-linecap:butt; stroke-linejoin:round; stroke-width:4; stroke-opacity:1; fill:none" points="
  186.274,766.854 205.172,766.854 
  "/>
<polyline clip-path="url(#clip600)" style="stroke:#000000; stroke-linecap:butt; stroke-linejoin:round; stroke-width:4; stroke-opacity:1; fill:none" points="
  186.274,427.413 205.172,427.413 
  "/>
<polyline clip-path="url(#clip600)" style="stroke:#000000; stroke-linecap:butt; stroke-linejoin:round; stroke-width:4; stroke-opacity:1; fill:none" points="
  186.274,87.9728 205.172,87.9728 
  "/>
<path clip-path="url(#clip600)" d="M62.9365 1431.53 Q59.3254 1431.53 57.4967 1435.1 Q55.6912 1438.64 55.6912 1445.77 Q55.6912 1452.88 57.4967 1456.44 Q59.3254 1459.98 62.9365 1459.98 Q66.5707 1459.98 68.3763 1456.44 Q70.205 1452.88 70.205 1445.77 Q70.205 1438.64 68.3763 1435.1 Q66.5707 1431.53 62.9365 1431.53 M62.9365 1427.83 Q68.7467 1427.83 71.8022 1432.44 Q74.8809 1437.02 74.8809 1445.77 Q74.8809 1454.5 71.8022 1459.1 Q68.7467 1463.69 62.9365 1463.69 Q57.1264 1463.69 54.0477 1459.1 Q50.9921 1454.5 50.9921 1445.77 Q50.9921 1437.02 54.0477 1432.44 Q57.1264 1427.83 62.9365 1427.83 Z" fill="#000000" fill-rule="evenodd" fill-opacity="1" /><path clip-path="url(#clip600)" d="M83.0984 1457.14 L87.9827 1457.14 L87.9827 1463.02 L83.0984 1463.02 L83.0984 1457.14 Z" fill="#000000" fill-rule="evenodd" fill-opacity="1" /><path clip-path="url(#clip600)" d="M108.168 1431.53 Q104.557 1431.53 102.728 1435.1 Q100.922 1438.64 100.922 1445.77 Q100.922 1452.88 102.728 1456.44 Q104.557 1459.98 108.168 1459.98 Q111.802 1459.98 113.608 1456.44 Q115.436 1452.88 115.436 1445.77 Q115.436 1438.64 113.608 1435.1 Q111.802 1431.53 108.168 1431.53 M108.168 1427.83 Q113.978 1427.83 117.033 1432.44 Q120.112 1437.02 120.112 1445.77 Q120.112 1454.5 117.033 1459.1 Q113.978 1463.69 108.168 1463.69 Q102.358 1463.69 99.2789 1459.1 Q96.2234 1454.5 96.2234 1445.77 Q96.2234 1437.02 99.2789 1432.44 Q102.358 1427.83 108.168 1427.83 Z" fill="#000000" fill-rule="evenodd" fill-opacity="1" /><path clip-path="url(#clip600)" d="M138.33 1431.53 Q134.719 1431.53 132.89 1435.1 Q131.084 1438.64 131.084 1445.77 Q131.084 1452.88 132.89 1456.44 Q134.719 1459.98 138.33 1459.98 Q141.964 1459.98 143.769 1456.44 Q145.598 1452.88 145.598 1445.77 Q145.598 1438.64 143.769 1435.1 Q141.964 1431.53 138.33 1431.53 M138.33 1427.83 Q144.14 1427.83 147.195 1432.44 Q150.274 1437.02 150.274 1445.77 Q150.274 1454.5 147.195 1459.1 Q144.14 1463.69 138.33 1463.69 Q132.519 1463.69 129.441 1459.1 Q126.385 1454.5 126.385 1445.77 Q126.385 1437.02 129.441 1432.44 Q132.519 1427.83 138.33 1427.83 Z" fill="#000000" fill-rule="evenodd" fill-opacity="1" /><path clip-path="url(#clip600)" d="M63.9319 1092.09 Q60.3208 1092.09 58.4921 1095.66 Q56.6865 1099.2 56.6865 1106.33 Q56.6865 1113.44 58.4921 1117 Q60.3208 1120.54 63.9319 1120.54 Q67.5661 1120.54 69.3717 1117 Q71.2004 1113.44 71.2004 1106.33 Q71.2004 1099.2 69.3717 1095.66 Q67.5661 1092.09 63.9319 1092.09 M63.9319 1088.39 Q69.742 1088.39 72.7976 1093 Q75.8763 1097.58 75.8763 1106.33 Q75.8763 1115.06 72.7976 1119.66 Q69.742 1124.25 63.9319 1124.25 Q58.1217 1124.25 55.043 1119.66 Q51.9875 1115.06 51.9875 1106.33 Q51.9875 1097.58 55.043 1093 Q58.1217 1088.39 63.9319 1088.39 Z" fill="#000000" fill-rule="evenodd" fill-opacity="1" /><path clip-path="url(#clip600)" d="M84.0938 1117.7 L88.978 1117.7 L88.978 1123.57 L84.0938 1123.57 L84.0938 1117.7 Z" fill="#000000" fill-rule="evenodd" fill-opacity="1" /><path clip-path="url(#clip600)" d="M103.191 1119.64 L119.51 1119.64 L119.51 1123.57 L97.566 1123.57 L97.566 1119.64 Q100.228 1116.88 104.811 1112.26 Q109.418 1107.6 110.598 1106.26 Q112.844 1103.74 113.723 1102 Q114.626 1100.24 114.626 1098.55 Q114.626 1095.8 112.682 1094.06 Q110.76 1092.32 107.658 1092.32 Q105.459 1092.32 103.006 1093.09 Q100.575 1093.85 97.7974 1095.4 L97.7974 1090.68 Q100.621 1089.55 103.075 1088.97 Q105.529 1088.39 107.566 1088.39 Q112.936 1088.39 116.131 1091.07 Q119.325 1093.76 119.325 1098.25 Q119.325 1100.38 118.515 1102.3 Q117.728 1104.2 115.621 1106.79 Q115.043 1107.46 111.941 1110.68 Q108.839 1113.88 103.191 1119.64 Z" fill="#000000" fill-rule="evenodd" fill-opacity="1" /><path clip-path="url(#clip600)" d="M129.371 1089.01 L147.728 1089.01 L147.728 1092.95 L133.654 1092.95 L133.654 1101.42 Q134.672 1101.07 135.691 1100.91 Q136.709 1100.73 137.728 1100.73 Q143.515 1100.73 146.894 1103.9 Q150.274 1107.07 150.274 1112.49 Q150.274 1118.07 146.802 1121.17 Q143.33 1124.25 137.01 1124.25 Q134.834 1124.25 132.566 1123.88 Q130.32 1123.51 127.913 1122.76 L127.913 1118.07 Q129.996 1119.2 132.219 1119.76 Q134.441 1120.31 136.918 1120.31 Q140.922 1120.31 143.26 1118.2 Q145.598 1116.1 145.598 1112.49 Q145.598 1108.88 143.26 1106.77 Q140.922 1104.66 136.918 1104.66 Q135.043 1104.66 133.168 1105.08 Q131.316 1105.5 129.371 1106.38 L129.371 1089.01 Z" fill="#000000" fill-rule="evenodd" fill-opacity="1" /><path clip-path="url(#clip600)" d="M62.9365 752.653 Q59.3254 752.653 57.4967 756.218 Q55.6912 759.759 55.6912 766.889 Q55.6912 773.995 57.4967 777.56 Q59.3254 781.102 62.9365 781.102 Q66.5707 781.102 68.3763 777.56 Q70.205 773.995 70.205 766.889 Q70.205 759.759 68.3763 756.218 Q66.5707 752.653 62.9365 752.653 M62.9365 748.949 Q68.7467 748.949 71.8022 753.556 Q74.8809 758.139 74.8809 766.889 Q74.8809 775.616 71.8022 780.222 Q68.7467 784.805 62.9365 784.805 Q57.1264 784.805 54.0477 780.222 Q50.9921 775.616 50.9921 766.889 Q50.9921 758.139 54.0477 753.556 Q57.1264 748.949 62.9365 748.949 Z" fill="#000000" fill-rule="evenodd" fill-opacity="1" /><path clip-path="url(#clip600)" d="M83.0984 778.254 L87.9827 778.254 L87.9827 784.134 L83.0984 784.134 L83.0984 778.254 Z" fill="#000000" fill-rule="evenodd" fill-opacity="1" /><path clip-path="url(#clip600)" d="M98.2141 749.574 L116.57 749.574 L116.57 753.509 L102.496 753.509 L102.496 761.981 Q103.515 761.634 104.534 761.472 Q105.552 761.287 106.571 761.287 Q112.358 761.287 115.737 764.458 Q119.117 767.63 119.117 773.046 Q119.117 778.625 115.645 781.727 Q112.172 784.805 105.853 784.805 Q103.677 784.805 101.409 784.435 Q99.1632 784.065 96.7558 783.324 L96.7558 778.625 Q98.8391 779.759 101.061 780.315 Q103.284 780.87 105.76 780.87 Q109.765 780.87 112.103 778.764 Q114.441 776.657 114.441 773.046 Q114.441 769.435 112.103 767.329 Q109.765 765.222 105.76 765.222 Q103.885 765.222 102.01 765.639 Q100.159 766.055 98.2141 766.935 L98.2141 749.574 Z" fill="#000000" fill-rule="evenodd" fill-opacity="1" /><path clip-path="url(#clip600)" d="M138.33 752.653 Q134.719 752.653 132.89 756.218 Q131.084 759.759 131.084 766.889 Q131.084 773.995 132.89 777.56 Q134.719 781.102 138.33 781.102 Q141.964 781.102 143.769 777.56 Q145.598 773.995 145.598 766.889 Q145.598 759.759 143.769 756.218 Q141.964 752.653 138.33 752.653 M138.33 748.949 Q144.14 748.949 147.195 753.556 Q150.274 758.139 150.274 766.889 Q150.274 775.616 147.195 780.222 Q144.14 784.805 138.33 784.805 Q132.519 784.805 129.441 780.222 Q126.385 775.616 126.385 766.889 Q126.385 758.139 129.441 753.556 Q132.519 748.949 138.33 748.949 Z" fill="#000000" fill-rule="evenodd" fill-opacity="1" /><path clip-path="url(#clip600)" d="M63.9319 413.212 Q60.3208 413.212 58.4921 416.777 Q56.6865 420.319 56.6865 427.448 Q56.6865 434.555 58.4921 438.119 Q60.3208 441.661 63.9319 441.661 Q67.5661 441.661 69.3717 438.119 Q71.2004 434.555 71.2004 427.448 Q71.2004 420.319 69.3717 416.777 Q67.5661 413.212 63.9319 413.212 M63.9319 409.508 Q69.742 409.508 72.7976 414.115 Q75.8763 418.698 75.8763 427.448 Q75.8763 436.175 72.7976 440.781 Q69.742 445.365 63.9319 445.365 Q58.1217 445.365 55.043 440.781 Q51.9875 436.175 51.9875 427.448 Q51.9875 418.698 55.043 414.115 Q58.1217 409.508 63.9319 409.508 Z" fill="#000000" fill-rule="evenodd" fill-opacity="1" /><path clip-path="url(#clip600)" d="M84.0938 438.814 L88.978 438.814 L88.978 444.693 L84.0938 444.693 L84.0938 438.814 Z" fill="#000000" fill-rule="evenodd" fill-opacity="1" /><path clip-path="url(#clip600)" d="M97.9826 410.133 L120.205 410.133 L120.205 412.124 L107.658 444.693 L102.774 444.693 L114.58 414.069 L97.9826 414.069 L97.9826 410.133 Z" fill="#000000" fill-rule="evenodd" fill-opacity="1" /><path clip-path="url(#clip600)" d="M129.371 410.133 L147.728 410.133 L147.728 414.069 L133.654 414.069 L133.654 422.541 Q134.672 422.194 135.691 422.032 Q136.709 421.846 137.728 421.846 Q143.515 421.846 146.894 425.018 Q150.274 428.189 150.274 433.606 Q150.274 439.184 146.802 442.286 Q143.33 445.365 137.01 445.365 Q134.834 445.365 132.566 444.994 Q130.32 444.624 127.913 443.883 L127.913 439.184 Q129.996 440.318 132.219 440.874 Q134.441 441.43 136.918 441.43 Q140.922 441.43 143.26 439.323 Q145.598 437.217 145.598 433.606 Q145.598 429.994 143.26 427.888 Q140.922 425.781 136.918 425.781 Q135.043 425.781 133.168 426.198 Q131.316 426.615 129.371 427.494 L129.371 410.133 Z" fill="#000000" fill-rule="evenodd" fill-opacity="1" /><path clip-path="url(#clip600)" d="M53.7467 101.318 L61.3856 101.318 L61.3856 74.952 L53.0754 76.6187 L53.0754 72.3594 L61.3393 70.6928 L66.0152 70.6928 L66.0152 101.318 L73.654 101.318 L73.654 105.253 L53.7467 105.253 L53.7467 101.318 Z" fill="#000000" fill-rule="evenodd" fill-opacity="1" /><path clip-path="url(#clip600)" d="M83.0984 99.3732 L87.9827 99.3732 L87.9827 105.253 L83.0984 105.253 L83.0984 99.3732 Z" fill="#000000" fill-rule="evenodd" fill-opacity="1" /><path clip-path="url(#clip600)" d="M108.168 73.7715 Q104.557 73.7715 102.728 77.3363 Q100.922 80.8779 100.922 88.0075 Q100.922 95.1139 102.728 98.6787 Q104.557 102.22 108.168 102.22 Q111.802 102.22 113.608 98.6787 Q115.436 95.1139 115.436 88.0075 Q115.436 80.8779 113.608 77.3363 Q111.802 73.7715 108.168 73.7715 M108.168 70.0678 Q113.978 70.0678 117.033 74.6742 Q120.112 79.2575 120.112 88.0075 Q120.112 96.7343 117.033 101.341 Q113.978 105.924 108.168 105.924 Q102.358 105.924 99.2789 101.341 Q96.2234 96.7343 96.2234 88.0075 Q96.2234 79.2575 99.2789 74.6742 Q102.358 70.0678 108.168 70.0678 Z" fill="#000000" fill-rule="evenodd" fill-opacity="1" /><path clip-path="url(#clip600)" d="M138.33 73.7715 Q134.719 73.7715 132.89 77.3363 Q131.084 80.8779 131.084 88.0075 Q131.084 95.1139 132.89 98.6787 Q134.719 102.22 138.33 102.22 Q141.964 102.22 143.769 98.6787 Q145.598 95.1139 145.598 88.0075 Q145.598 80.8779 143.769 77.3363 Q141.964 73.7715 138.33 73.7715 M138.33 70.0678 Q144.14 70.0678 147.195 74.6742 Q150.274 79.2575 150.274 88.0075 Q150.274 96.7343 147.195 101.341 Q144.14 105.924 138.33 105.924 Q132.519 105.924 129.441 101.341 Q126.385 96.7343 126.385 88.0075 Q126.385 79.2575 129.441 74.6742 Q132.519 70.0678 138.33 70.0678 Z" fill="#000000" fill-rule="evenodd" fill-opacity="1" /><polyline clip-path="url(#clip602)" style="stroke:#009af9; stroke-linecap:butt; stroke-linejoin:round; stroke-width:4; stroke-opacity:1; fill:none" points="
  247.59,303.218 250.916,288.454 254.243,274.18 257.569,260.407 260.896,247.145 268.586,218.491 276.276,192.7 283.966,169.826 291.656,149.891 299.346,132.885 
  307.036,118.767 314.725,107.463 322.415,98.8727 330.105,92.8683 337.795,89.2975 345.485,87.9871 353.175,88.7454 360.865,91.3657 368.555,95.6294 376.245,101.309 
  383.935,108.173 402.42,128.11 420.905,150.348 439.391,171.941 457.876,190.364 465.69,196.696 473.505,201.983 481.319,206.129 489.134,209.06 496.948,210.725 
  504.763,211.095 512.577,210.162 520.392,207.944 528.881,204.124 537.37,198.912 545.858,192.42 554.347,184.788 571.325,166.805 588.302,146.63 603.954,127.839 
  619.606,110.722 627.432,103.392 635.258,97.211 643.083,92.4241 650.909,89.2729 659.299,87.9763 667.69,89.0998 676.08,92.8952 684.47,99.5883 692.86,109.375 
  701.25,122.417 709.641,138.836 718.031,158.715 722.891,171.829 727.752,186.119 732.612,201.578 737.472,218.197 742.333,235.96 747.193,254.847 752.054,274.833 
  756.914,295.887 761.775,317.974 766.635,341.054 771.495,365.083 776.356,390.012 781.216,415.788 786.077,442.357 790.937,469.659 795.798,497.631 813.075,601.503 
  830.353,709.909 847.63,819.606 864.908,927.392 872.483,973.271 880.058,1017.97 887.634,1061.27 895.209,1102.97 902.785,1142.88 910.36,1180.82 917.935,1216.65 
  925.511,1250.23 933.77,1284.12 942.029,1315.04 950.288,1342.88 958.548,1367.53 966.807,1388.91 975.066,1406.96 979.196,1414.71 983.325,1421.61 987.455,1427.65 
  991.585,1432.82 995.739,1437.15 999.893,1440.61 1004.05,1443.18 1008.2,1444.86 1012.36,1445.66 1016.51,1445.58 1020.66,1444.61 1024.82,1442.75 1028.97,1440.01 
  1033.13,1436.39 1037.28,1431.89 1041.43,1426.51 1045.59,1420.26 1049.74,1413.15 1053.9,1405.16 1058.05,1396.33 1062.64,1385.56 1067.24,1373.77 1071.83,1360.96 
  1076.42,1347.15 1081.02,1332.34 1085.61,1316.57 1090.2,1299.83 1094.79,1282.16 1099.39,1263.57 1103.98,1244.09 1108.57,1223.75 1113.17,1202.56 1122.35,1157.8 
  1131.54,1110.06 1140.28,1062.14 1149.02,1012.09 1157.76,960.212 1166.5,906.854 1183.98,797.171 1201.46,686.191 1210.55,629.088 1219.63,573.012 1228.72,518.431 
  1237.81,465.796 1246.9,415.534 1255.99,368.041 1265.07,323.671 1274.16,282.732 1281.81,251.119 1289.46,222.238 1297.11,196.18 1304.76,173.004 1312.41,152.735 
  1320.06,135.369 1327.71,120.868 1335.36,109.167 1340.03,103.36 1344.7,98.5355 1349.37,94.6621 1354.04,91.707 1363.38,88.4034 1372.72,88.3017 1382.06,91.0423 
  1391.4,96.2379 1400.74,103.482 1410.08,112.356 1427.19,131.46 1444.3,152.126 1461.41,172.048 1478.52,189.238 1486.43,195.797 1494.33,201.305 1502.23,205.658 
  1510.13,208.778 1518.03,210.608 1525.94,211.116 1533.84,210.292 1541.74,208.151 1549.74,204.68 1557.75,199.961 1565.75,194.083 1573.76,187.159 1589.77,170.735 
  1605.77,152.025 1623.72,130.38 1641.66,110.596 1650.63,102.304 1659.6,95.5733 1668.57,90.7734 1677.54,88.2634 1685.67,88.2534 1693.8,90.6431 1701.93,95.6499 
  1710.06,103.467 1718.18,114.258 1726.31,128.156 1734.44,145.258 1742.57,165.624 1747.22,178.761 1751.88,192.974 1756.53,208.256 1761.18,224.595 1765.84,241.978 
  1770.49,260.383 1775.15,279.789 1779.8,300.166 1789.11,343.704 1798.41,390.698 1803.07,415.382 1807.72,440.793 1812.37,466.879 1817.03,493.586 1834.26,596.945 
  1851.5,704.954 1868.73,814.393 1885.97,922.079 1894.46,973.593 1902.96,1023.62 1911.45,1071.86 1919.95,1118.02 1928.45,1161.84 1936.94,1203.1 1945.44,1241.59 
  1953.93,1277.13 1962.18,1308.66 1970.43,1337.13 1978.68,1362.45 1986.93,1384.53 1991.05,1394.32 1995.18,1403.28 1999.3,1411.4 2003.43,1418.66 2011.67,1430.63 
  2019.92,1439.14 2024.15,1442.16 2028.38,1444.26 2032.61,1445.45 2036.83,1445.72 2041.06,1445.07 2045.29,1443.5 2049.52,1441.02 2053.75,1437.62 2057.97,1433.32 
  2062.2,1428.1 2066.43,1421.98 2070.66,1414.95 2074.89,1407.04 2079.11,1398.23 2083.34,1388.54 2087.57,1377.97 2092.2,1365.41 2096.83,1351.81 2101.47,1337.2 
  2106.1,1321.6 2110.73,1305.01 2115.36,1287.47 2120,1268.99 2124.63,1249.6 2133.89,1208.17 2143.16,1163.42 2152.42,1115.61 2161.69,1065.04 2168.42,1026.77 
  2175.14,987.362 2181.87,946.968 2188.6,905.749 2202.06,821.511 2215.52,736.076 2228.98,650.952 2242.44,567.68 2249.17,527.216 2255.89,487.78 2262.62,449.549 
  2269.35,412.69 2274.87,383.581 2280.4,355.583 2285.92,328.773 2291.44,303.218 
  "/>
<path clip-path="url(#clip600)" d="
M1987.39 198.898 L2280.54 198.898 L2280.54 95.2176 L1987.39 95.2176  Z
  " fill="#ffffff" fill-rule="evenodd" fill-opacity="1"/>
<polyline clip-path="url(#clip600)" style="stroke:#000000; stroke-linecap:butt; stroke-linejoin:round; stroke-width:4; stroke-opacity:1; fill:none" points="
  1987.39,198.898 2280.54,198.898 2280.54,95.2176 1987.39,95.2176 1987.39,198.898 
  "/>
<polyline clip-path="url(#clip600)" style="stroke:#009af9; stroke-linecap:butt; stroke-linejoin:round; stroke-width:4; stroke-opacity:1; fill:none" points="
  2011.46,147.058 2155.89,147.058 
  "/>
<path clip-path="url(#clip600)" d="M2193.81 166.745 Q2192 171.375 2190.29 172.787 Q2188.58 174.199 2185.71 174.199 L2182.3 174.199 L2182.3 170.634 L2184.8 170.634 Q2186.56 170.634 2187.53 169.8 Q2188.51 168.967 2189.69 165.865 L2190.45 163.921 L2179.97 138.412 L2184.48 138.412 L2192.58 158.689 L2200.68 138.412 L2205.2 138.412 L2193.81 166.745 Z" fill="#000000" fill-rule="evenodd" fill-opacity="1" /><path clip-path="url(#clip600)" d="M2212.49 160.402 L2220.13 160.402 L2220.13 134.037 L2211.82 135.703 L2211.82 131.444 L2220.08 129.778 L2224.76 129.778 L2224.76 160.402 L2232.4 160.402 L2232.4 164.338 L2212.49 164.338 L2212.49 160.402 Z" fill="#000000" fill-rule="evenodd" fill-opacity="1" /></svg>
