<?xml version="1.0" encoding="utf-8"?>
<svg xmlns="http://www.w3.org/2000/svg" xmlns:xlink="http://www.w3.org/1999/xlink" width="600" height="400" viewBox="0 0 2400 1600">
<defs>
  <clipPath id="clip070">
    <rect x="0" y="0" width="2400" height="1600"/>
  </clipPath>
</defs>
<path clip-path="url(#clip070)" d="
M0 1600 L2400 1600 L2400 0 L0 0  Z
  " fill="#ffffff" fill-rule="evenodd" fill-opacity="1"/>
<defs>
  <clipPath id="clip071">
    <rect x="480" y="0" width="1681" height="1600"/>
  </clipPath>
</defs>
<path clip-path="url(#clip070)" d="
M156.598 1423.18 L2352.76 1423.18 L2352.76 47.2441 L156.598 47.2441  Z
  " fill="#ffffff" fill-rule="evenodd" fill-opacity="1"/>
<defs>
  <clipPath id="clip072">
    <rect x="156" y="47" width="2197" height="1377"/>
  </clipPath>
</defs>
<polyline clip-path="url(#clip072)" style="stroke:#000000; stroke-linecap:butt; stroke-linejoin:round; stroke-width:2; stroke-opacity:0.1; fill:none" points="
  156.598,1423.18 156.598,47.2441 
  "/>
<polyline clip-path="url(#clip072)" style="stroke:#000000; stroke-linecap:butt; stroke-linejoin:round; stroke-width:2; stroke-opacity:0.1; fill:none" points="
  705.638,1423.18 705.638,47.2441 
  "/>
<polyline clip-path="url(#clip072)" style="stroke:#000000; stroke-linecap:butt; stroke-linejoin:round; stroke-width:2; stroke-opacity:0.1; fill:none" points="
  1254.68,1423.18 1254.68,47.2441 
  "/>
<polyline clip-path="url(#clip072)" style="stroke:#000000; stroke-linecap:butt; stroke-linejoin:round; stroke-width:2; stroke-opacity:0.1; fill:none" points="
  1803.72,1423.18 1803.72,47.2441 
  "/>
<polyline clip-path="url(#clip072)" style="stroke:#000000; stroke-linecap:butt; stroke-linejoin:round; stroke-width:2; stroke-opacity:0.1; fill:none" points="
  2352.76,1423.18 2352.76,47.2441 
  "/>
<polyline clip-path="url(#clip070)" style="stroke:#000000; stroke-linecap:butt; stroke-linejoin:round; stroke-width:4; stroke-opacity:1; fill:none" points="
  156.598,1423.18 2352.76,1423.18 
  "/>
<polyline clip-path="url(#clip070)" style="stroke:#000000; stroke-linecap:butt; stroke-linejoin:round; stroke-width:4; stroke-opacity:1; fill:none" points="
  156.598,1423.18 156.598,1404.28 
  "/>
<polyline clip-path="url(#clip070)" style="stroke:#000000; stroke-linecap:butt; stroke-linejoin:round; stroke-width:4; stroke-opacity:1; fill:none" points="
  705.638,1423.18 705.638,1404.28 
  "/>
<polyline clip-path="url(#clip070)" style="stroke:#000000; stroke-linecap:butt; stroke-linejoin:round; stroke-width:4; stroke-opacity:1; fill:none" points="
  1254.68,1423.18 1254.68,1404.28 
  "/>
<polyline clip-path="url(#clip070)" style="stroke:#000000; stroke-linecap:butt; stroke-linejoin:round; stroke-width:4; stroke-opacity:1; fill:none" points="
  1803.72,1423.18 1803.72,1404.28 
  "/>
<polyline clip-path="url(#clip070)" style="stroke:#000000; stroke-linecap:butt; stroke-linejoin:round; stroke-width:4; stroke-opacity:1; fill:none" points="
  2352.76,1423.18 2352.76,1404.28 
  "/>
<path clip-path="url(#clip070)" d="M133.983 1454.1 Q130.372 1454.1 128.543 1457.66 Q126.737 1461.2 126.737 1468.33 Q126.737 1475.44 128.543 1479.01 Q130.372 1482.55 133.983 1482.55 Q137.617 1482.55 139.422 1479.01 Q141.251 1475.44 141.251 1468.33 Q141.251 1461.2 139.422 1457.66 Q137.617 1454.1 133.983 1454.1 M133.983 1450.39 Q139.793 1450.39 142.848 1455 Q145.927 1459.58 145.927 1468.33 Q145.927 1477.06 142.848 1481.67 Q139.793 1486.25 133.983 1486.25 Q128.172 1486.25 125.094 1481.67 Q122.038 1477.06 122.038 1468.33 Q122.038 1459.58 125.094 1455 Q128.172 1450.39 133.983 1450.39 Z" fill="#000000" fill-rule="evenodd" fill-opacity="1" /><path clip-path="url(#clip070)" d="M154.145 1479.7 L159.029 1479.7 L159.029 1485.58 L154.145 1485.58 L154.145 1479.7 Z" fill="#000000" fill-rule="evenodd" fill-opacity="1" /><path clip-path="url(#clip070)" d="M179.214 1454.1 Q175.603 1454.1 173.774 1457.66 Q171.969 1461.2 171.969 1468.33 Q171.969 1475.44 173.774 1479.01 Q175.603 1482.55 179.214 1482.55 Q182.848 1482.55 184.654 1479.01 Q186.482 1475.44 186.482 1468.33 Q186.482 1461.2 184.654 1457.66 Q182.848 1454.1 179.214 1454.1 M179.214 1450.39 Q185.024 1450.39 188.08 1455 Q191.158 1459.58 191.158 1468.33 Q191.158 1477.06 188.08 1481.67 Q185.024 1486.25 179.214 1486.25 Q173.404 1486.25 170.325 1481.67 Q167.269 1477.06 167.269 1468.33 Q167.269 1459.58 170.325 1455 Q173.404 1450.39 179.214 1450.39 Z" fill="#000000" fill-rule="evenodd" fill-opacity="1" /><path clip-path="url(#clip070)" d="M683.52 1454.1 Q679.909 1454.1 678.08 1457.66 Q676.274 1461.2 676.274 1468.33 Q676.274 1475.44 678.08 1479.01 Q679.909 1482.55 683.52 1482.55 Q687.154 1482.55 688.96 1479.01 Q690.788 1475.44 690.788 1468.33 Q690.788 1461.2 688.96 1457.66 Q687.154 1454.1 683.52 1454.1 M683.52 1450.39 Q689.33 1450.39 692.385 1455 Q695.464 1459.58 695.464 1468.33 Q695.464 1477.06 692.385 1481.67 Q689.33 1486.25 683.52 1486.25 Q677.71 1486.25 674.631 1481.67 Q671.575 1477.06 671.575 1468.33 Q671.575 1459.58 674.631 1455 Q677.71 1450.39 683.52 1450.39 Z" fill="#000000" fill-rule="evenodd" fill-opacity="1" /><path clip-path="url(#clip070)" d="M703.682 1479.7 L708.566 1479.7 L708.566 1485.58 L703.682 1485.58 L703.682 1479.7 Z" fill="#000000" fill-rule="evenodd" fill-opacity="1" /><path clip-path="url(#clip070)" d="M718.797 1451.02 L737.154 1451.02 L737.154 1454.96 L723.08 1454.96 L723.08 1463.43 Q724.098 1463.08 725.117 1462.92 Q726.135 1462.73 727.154 1462.73 Q732.941 1462.73 736.32 1465.9 Q739.7 1469.08 739.7 1474.49 Q739.7 1480.07 736.228 1483.17 Q732.756 1486.25 726.436 1486.25 Q724.26 1486.25 721.992 1485.88 Q719.746 1485.51 717.339 1484.77 L717.339 1480.07 Q719.422 1481.2 721.645 1481.76 Q723.867 1482.32 726.344 1482.32 Q730.348 1482.32 732.686 1480.21 Q735.024 1478.1 735.024 1474.49 Q735.024 1470.88 732.686 1468.77 Q730.348 1466.67 726.344 1466.67 Q724.469 1466.67 722.594 1467.08 Q720.742 1467.5 718.797 1468.38 L718.797 1451.02 Z" fill="#000000" fill-rule="evenodd" fill-opacity="1" /><path clip-path="url(#clip070)" d="M1221.83 1481.64 L1229.47 1481.64 L1229.47 1455.28 L1221.16 1456.95 L1221.16 1452.69 L1229.42 1451.02 L1234.1 1451.02 L1234.1 1481.64 L1241.74 1481.64 L1241.74 1485.58 L1221.83 1485.58 L1221.83 1481.64 Z" fill="#000000" fill-rule="evenodd" fill-opacity="1" /><path clip-path="url(#clip070)" d="M1251.18 1479.7 L1256.07 1479.7 L1256.07 1485.58 L1251.18 1485.58 L1251.18 1479.7 Z" fill="#000000" fill-rule="evenodd" fill-opacity="1" /><path clip-path="url(#clip070)" d="M1276.25 1454.1 Q1272.64 1454.1 1270.81 1457.66 Q1269.01 1461.2 1269.01 1468.33 Q1269.01 1475.44 1270.81 1479.01 Q1272.64 1482.55 1276.25 1482.55 Q1279.89 1482.55 1281.69 1479.01 Q1283.52 1475.44 1283.52 1468.33 Q1283.52 1461.2 1281.69 1457.66 Q1279.89 1454.1 1276.25 1454.1 M1276.25 1450.39 Q1282.06 1450.39 1285.12 1455 Q1288.2 1459.58 1288.2 1468.33 Q1288.2 1477.06 1285.12 1481.67 Q1282.06 1486.25 1276.25 1486.25 Q1270.44 1486.25 1267.36 1481.67 Q1264.31 1477.06 1264.31 1468.33 Q1264.31 1459.58 1267.36 1455 Q1270.44 1450.39 1276.25 1450.39 Z" fill="#000000" fill-rule="evenodd" fill-opacity="1" /><path clip-path="url(#clip070)" d="M1771.37 1481.64 L1779.01 1481.64 L1779.01 1455.28 L1770.7 1456.95 L1770.7 1452.69 L1778.96 1451.02 L1783.64 1451.02 L1783.64 1481.64 L1791.27 1481.64 L1791.27 1485.58 L1771.37 1485.58 L1771.37 1481.64 Z" fill="#000000" fill-rule="evenodd" fill-opacity="1" /><path clip-path="url(#clip070)" d="M1800.72 1479.7 L1805.6 1479.7 L1805.6 1485.58 L1800.72 1485.58 L1800.72 1479.7 Z" fill="#000000" fill-rule="evenodd" fill-opacity="1" /><path clip-path="url(#clip070)" d="M1815.83 1451.02 L1834.19 1451.02 L1834.19 1454.96 L1820.12 1454.96 L1820.12 1463.43 Q1821.14 1463.08 1822.15 1462.92 Q1823.17 1462.73 1824.19 1462.73 Q1829.98 1462.73 1833.36 1465.9 Q1836.74 1469.08 1836.74 1474.49 Q1836.74 1480.07 1833.26 1483.17 Q1829.79 1486.25 1823.47 1486.25 Q1821.3 1486.25 1819.03 1485.88 Q1816.78 1485.51 1814.38 1484.77 L1814.38 1480.07 Q1816.46 1481.2 1818.68 1481.76 Q1820.9 1482.32 1823.38 1482.32 Q1827.39 1482.32 1829.72 1480.21 Q1832.06 1478.1 1832.06 1474.49 Q1832.06 1470.88 1829.72 1468.77 Q1827.39 1466.67 1823.38 1466.67 Q1821.51 1466.67 1819.63 1467.08 Q1817.78 1467.5 1815.83 1468.38 L1815.83 1451.02 Z" fill="#000000" fill-rule="evenodd" fill-opacity="1" /><path clip-path="url(#clip070)" d="M2323.99 1481.64 L2340.31 1481.64 L2340.31 1485.58 L2318.37 1485.58 L2318.37 1481.64 Q2321.03 1478.89 2325.61 1474.26 Q2330.22 1469.61 2331.4 1468.27 Q2333.65 1465.74 2334.53 1464.01 Q2335.43 1462.25 2335.43 1460.56 Q2335.43 1457.8 2333.49 1456.07 Q2331.56 1454.33 2328.46 1454.33 Q2326.26 1454.33 2323.81 1455.09 Q2321.38 1455.86 2318.6 1457.41 L2318.6 1452.69 Q2321.43 1451.55 2323.88 1450.97 Q2326.33 1450.39 2328.37 1450.39 Q2333.74 1450.39 2336.93 1453.08 Q2340.13 1455.77 2340.13 1460.26 Q2340.13 1462.39 2339.32 1464.31 Q2338.53 1466.2 2336.42 1468.8 Q2335.85 1469.47 2332.74 1472.69 Q2329.64 1475.88 2323.99 1481.64 Z" fill="#000000" fill-rule="evenodd" fill-opacity="1" /><path clip-path="url(#clip070)" d="M2350.13 1479.7 L2355.01 1479.7 L2355.01 1485.58 L2350.13 1485.58 L2350.13 1479.7 Z" fill="#000000" fill-rule="evenodd" fill-opacity="1" /><path clip-path="url(#clip070)" d="M2375.2 1454.1 Q2371.59 1454.1 2369.76 1457.66 Q2367.95 1461.2 2367.95 1468.33 Q2367.95 1475.44 2369.76 1479.01 Q2371.59 1482.55 2375.2 1482.55 Q2378.83 1482.55 2380.64 1479.01 Q2382.47 1475.44 2382.47 1468.33 Q2382.47 1461.2 2380.64 1457.66 Q2378.83 1454.1 2375.2 1454.1 M2375.2 1450.39 Q2381.01 1450.39 2384.06 1455 Q2387.14 1459.58 2387.14 1468.33 Q2387.14 1477.06 2384.06 1481.67 Q2381.01 1486.25 2375.2 1486.25 Q2369.39 1486.25 2366.31 1481.67 Q2363.25 1477.06 2363.25 1468.33 Q2363.25 1459.58 2366.31 1455 Q2369.39 1450.39 2375.2 1450.39 Z" fill="#000000" fill-rule="evenodd" fill-opacity="1" /><path clip-path="url(#clip070)" d="M1253.74 1522.27 L1253.74 1532.4 L1265.8 1532.4 L1265.8 1536.95 L1253.74 1536.95 L1253.74 1556.3 Q1253.74 1560.66 1254.92 1561.9 Q1256.13 1563.14 1259.79 1563.14 L1265.8 1563.14 L1265.8 1568.04 L1259.79 1568.04 Q1253.01 1568.04 1250.43 1565.53 Q1247.85 1562.98 1247.85 1556.3 L1247.85 1536.95 L1243.55 1536.95 L1243.55 1532.4 L1247.85 1532.4 L1247.85 1522.27 L1253.74 1522.27 Z" fill="#000000" fill-rule="evenodd" fill-opacity="1" /><polyline clip-path="url(#clip072)" style="stroke:#000000; stroke-linecap:butt; stroke-linejoin:round; stroke-width:2; stroke-opacity:0.1; fill:none" points="
  156.598,1287.16 2352.76,1287.16 
  "/>
<polyline clip-path="url(#clip072)" style="stroke:#000000; stroke-linecap:butt; stroke-linejoin:round; stroke-width:2; stroke-opacity:0.1; fill:none" points="
  156.598,986.919 2352.76,986.919 
  "/>
<polyline clip-path="url(#clip072)" style="stroke:#000000; stroke-linecap:butt; stroke-linejoin:round; stroke-width:2; stroke-opacity:0.1; fill:none" points="
  156.598,686.674 2352.76,686.674 
  "/>
<polyline clip-path="url(#clip072)" style="stroke:#000000; stroke-linecap:butt; stroke-linejoin:round; stroke-width:2; stroke-opacity:0.1; fill:none" points="
  156.598,386.43 2352.76,386.43 
  "/>
<polyline clip-path="url(#clip072)" style="stroke:#000000; stroke-linecap:butt; stroke-linejoin:round; stroke-width:2; stroke-opacity:0.1; fill:none" points="
  156.598,86.1857 2352.76,86.1857 
  "/>
<polyline clip-path="url(#clip070)" style="stroke:#000000; stroke-linecap:butt; stroke-linejoin:round; stroke-width:4; stroke-opacity:1; fill:none" points="
  156.598,1423.18 156.598,47.2441 
  "/>
<polyline clip-path="url(#clip070)" style="stroke:#000000; stroke-linecap:butt; stroke-linejoin:round; stroke-width:4; stroke-opacity:1; fill:none" points="
  156.598,1287.16 175.496,1287.16 
  "/>
<polyline clip-path="url(#clip070)" style="stroke:#000000; stroke-linecap:butt; stroke-linejoin:round; stroke-width:4; stroke-opacity:1; fill:none" points="
  156.598,986.919 175.496,986.919 
  "/>
<polyline clip-path="url(#clip070)" style="stroke:#000000; stroke-linecap:butt; stroke-linejoin:round; stroke-width:4; stroke-opacity:1; fill:none" points="
  156.598,686.674 175.496,686.674 
  "/>
<polyline clip-path="url(#clip070)" style="stroke:#000000; stroke-linecap:butt; stroke-linejoin:round; stroke-width:4; stroke-opacity:1; fill:none" points="
  156.598,386.43 175.496,386.43 
  "/>
<polyline clip-path="url(#clip070)" style="stroke:#000000; stroke-linecap:butt; stroke-linejoin:round; stroke-width:4; stroke-opacity:1; fill:none" points="
  156.598,86.1857 175.496,86.1857 
  "/>
<path clip-path="url(#clip070)" d="M65.0198 1272.96 Q61.4087 1272.96 59.58 1276.53 Q57.7745 1280.07 57.7745 1287.2 Q57.7745 1294.3 59.58 1297.87 Q61.4087 1301.41 65.0198 1301.41 Q68.6541 1301.41 70.4596 1297.87 Q72.2883 1294.3 72.2883 1287.2 Q72.2883 1280.07 70.4596 1276.53 Q68.6541 1272.96 65.0198 1272.96 M65.0198 1269.26 Q70.83 1269.26 73.8855 1273.86 Q76.9642 1278.45 76.9642 1287.2 Q76.9642 1295.92 73.8855 1300.53 Q70.83 1305.11 65.0198 1305.11 Q59.2097 1305.11 56.131 1300.53 Q53.0754 1295.92 53.0754 1287.2 Q53.0754 1278.45 56.131 1273.86 Q59.2097 1269.26 65.0198 1269.26 Z" fill="#000000" fill-rule="evenodd" fill-opacity="1" /><path clip-path="url(#clip070)" d="M85.1818 1298.56 L90.066 1298.56 L90.066 1304.44 L85.1818 1304.44 L85.1818 1298.56 Z" fill="#000000" fill-rule="evenodd" fill-opacity="1" /><path clip-path="url(#clip070)" d="M104.279 1300.51 L120.598 1300.51 L120.598 1304.44 L98.6539 1304.44 L98.6539 1300.51 Q101.316 1297.75 105.899 1293.12 Q110.506 1288.47 111.686 1287.13 Q113.932 1284.61 114.811 1282.87 Q115.714 1281.11 115.714 1279.42 Q115.714 1276.67 113.77 1274.93 Q111.848 1273.19 108.746 1273.19 Q106.547 1273.19 104.094 1273.96 Q101.663 1274.72 98.8854 1276.27 L98.8854 1271.55 Q101.709 1270.42 104.163 1269.84 Q106.617 1269.26 108.654 1269.26 Q114.024 1269.26 117.219 1271.94 Q120.413 1274.63 120.413 1279.12 Q120.413 1281.25 119.603 1283.17 Q118.816 1285.07 116.709 1287.66 Q116.131 1288.33 113.029 1291.55 Q109.927 1294.74 104.279 1300.51 Z" fill="#000000" fill-rule="evenodd" fill-opacity="1" /><path clip-path="url(#clip070)" d="M62.9365 972.718 Q59.3254 972.718 57.4967 976.282 Q55.6912 979.824 55.6912 986.954 Q55.6912 994.06 57.4967 997.625 Q59.3254 1001.17 62.9365 1001.17 Q66.5707 1001.17 68.3763 997.625 Q70.205 994.06 70.205 986.954 Q70.205 979.824 68.3763 976.282 Q66.5707 972.718 62.9365 972.718 M62.9365 969.014 Q68.7467 969.014 71.8022 973.62 Q74.8809 978.204 74.8809 986.954 Q74.8809 995.68 71.8022 1000.29 Q68.7467 1004.87 62.9365 1004.87 Q57.1264 1004.87 54.0477 1000.29 Q50.9921 995.68 50.9921 986.954 Q50.9921 978.204 54.0477 973.62 Q57.1264 969.014 62.9365 969.014 Z" fill="#000000" fill-rule="evenodd" fill-opacity="1" /><path clip-path="url(#clip070)" d="M83.0984 998.319 L87.9827 998.319 L87.9827 1004.2 L83.0984 1004.2 L83.0984 998.319 Z" fill="#000000" fill-rule="evenodd" fill-opacity="1" /><path clip-path="url(#clip070)" d="M111.015 973.713 L99.2095 992.162 L111.015 992.162 L111.015 973.713 M109.788 969.639 L115.668 969.639 L115.668 992.162 L120.598 992.162 L120.598 996.051 L115.668 996.051 L115.668 1004.2 L111.015 1004.2 L111.015 996.051 L95.4132 996.051 L95.4132 991.537 L109.788 969.639 Z" fill="#000000" fill-rule="evenodd" fill-opacity="1" /><path clip-path="url(#clip070)" d="M63.2606 672.473 Q59.6495 672.473 57.8208 676.038 Q56.0152 679.58 56.0152 686.709 Q56.0152 693.816 57.8208 697.38 Q59.6495 700.922 63.2606 700.922 Q66.8948 700.922 68.7004 697.38 Q70.5291 693.816 70.5291 686.709 Q70.5291 679.58 68.7004 676.038 Q66.8948 672.473 63.2606 672.473 M63.2606 668.769 Q69.0707 668.769 72.1263 673.376 Q75.205 677.959 75.205 686.709 Q75.205 695.436 72.1263 700.042 Q69.0707 704.626 63.2606 704.626 Q57.4504 704.626 54.3717 700.042 Q51.3162 695.436 51.3162 686.709 Q51.3162 677.959 54.3717 673.376 Q57.4504 668.769 63.2606 668.769 Z" fill="#000000" fill-rule="evenodd" fill-opacity="1" /><path clip-path="url(#clip070)" d="M83.4225 698.075 L88.3067 698.075 L88.3067 703.954 L83.4225 703.954 L83.4225 698.075 Z" fill="#000000" fill-rule="evenodd" fill-opacity="1" /><path clip-path="url(#clip070)" d="M109.071 684.811 Q105.922 684.811 104.071 686.964 Q102.242 689.117 102.242 692.867 Q102.242 696.593 104.071 698.769 Q105.922 700.922 109.071 700.922 Q112.219 700.922 114.047 698.769 Q115.899 696.593 115.899 692.867 Q115.899 689.117 114.047 686.964 Q112.219 684.811 109.071 684.811 M118.353 670.158 L118.353 674.418 Q116.594 673.584 114.788 673.144 Q113.006 672.705 111.246 672.705 Q106.617 672.705 104.163 675.83 Q101.733 678.955 101.385 685.274 Q102.751 683.26 104.811 682.195 Q106.871 681.107 109.348 681.107 Q114.557 681.107 117.566 684.279 Q120.598 687.427 120.598 692.867 Q120.598 698.191 117.45 701.408 Q114.302 704.626 109.071 704.626 Q103.075 704.626 99.9039 700.042 Q96.7326 695.436 96.7326 686.709 Q96.7326 678.515 100.621 673.654 Q104.51 668.769 111.061 668.769 Q112.82 668.769 114.603 669.117 Q116.408 669.464 118.353 670.158 Z" fill="#000000" fill-rule="evenodd" fill-opacity="1" /><path clip-path="url(#clip070)" d="M63.5152 372.229 Q59.9041 372.229 58.0754 375.794 Q56.2699 379.335 56.2699 386.465 Q56.2699 393.571 58.0754 397.136 Q59.9041 400.678 63.5152 400.678 Q67.1494 400.678 68.955 397.136 Q70.7837 393.571 70.7837 386.465 Q70.7837 379.335 68.955 375.794 Q67.1494 372.229 63.5152 372.229 M63.5152 368.525 Q69.3254 368.525 72.3809 373.132 Q75.4596 377.715 75.4596 386.465 Q75.4596 395.192 72.3809 399.798 Q69.3254 404.381 63.5152 404.381 Q57.7051 404.381 54.6264 399.798 Q51.5708 395.192 51.5708 386.465 Q51.5708 377.715 54.6264 373.132 Q57.7051 368.525 63.5152 368.525 Z" fill="#000000" fill-rule="evenodd" fill-opacity="1" /><path clip-path="url(#clip070)" d="M83.6771 397.83 L88.5614 397.83 L88.5614 403.71 L83.6771 403.71 L83.6771 397.83 Z" fill="#000000" fill-rule="evenodd" fill-opacity="1" /><path clip-path="url(#clip070)" d="M108.746 387.298 Q105.413 387.298 103.492 389.081 Q101.594 390.863 101.594 393.988 Q101.594 397.113 103.492 398.895 Q105.413 400.678 108.746 400.678 Q112.08 400.678 114.001 398.895 Q115.922 397.09 115.922 393.988 Q115.922 390.863 114.001 389.081 Q112.103 387.298 108.746 387.298 M104.071 385.307 Q101.061 384.567 99.3715 382.506 Q97.7048 380.446 97.7048 377.483 Q97.7048 373.34 100.645 370.932 Q103.608 368.525 108.746 368.525 Q113.908 368.525 116.848 370.932 Q119.788 373.34 119.788 377.483 Q119.788 380.446 118.098 382.506 Q116.432 384.567 113.445 385.307 Q116.825 386.094 118.7 388.386 Q120.598 390.678 120.598 393.988 Q120.598 399.011 117.52 401.696 Q114.464 404.381 108.746 404.381 Q103.029 404.381 99.9502 401.696 Q96.8947 399.011 96.8947 393.988 Q96.8947 390.678 98.7928 388.386 Q100.691 386.094 104.071 385.307 M102.358 377.923 Q102.358 380.608 104.024 382.113 Q105.714 383.618 108.746 383.618 Q111.756 383.618 113.445 382.113 Q115.158 380.608 115.158 377.923 Q115.158 375.238 113.445 373.733 Q111.756 372.229 108.746 372.229 Q105.714 372.229 104.024 373.733 Q102.358 375.238 102.358 377.923 Z" fill="#000000" fill-rule="evenodd" fill-opacity="1" /><path clip-path="url(#clip070)" d="M54.2328 99.5305 L61.8717 99.5305 L61.8717 73.1649 L53.5616 74.8316 L53.5616 70.5723 L61.8254 68.9057 L66.5013 68.9057 L66.5013 99.5305 L74.1402 99.5305 L74.1402 103.466 L54.2328 103.466 L54.2328 99.5305 Z" fill="#000000" fill-rule="evenodd" fill-opacity="1" /><path clip-path="url(#clip070)" d="M83.5845 97.5861 L88.4688 97.5861 L88.4688 103.466 L83.5845 103.466 L83.5845 97.5861 Z" fill="#000000" fill-rule="evenodd" fill-opacity="1" /><path clip-path="url(#clip070)" d="M108.654 71.9844 Q105.043 71.9844 103.214 75.5492 Q101.409 79.0908 101.409 86.2204 Q101.409 93.3268 103.214 96.8916 Q105.043 100.433 108.654 100.433 Q112.288 100.433 114.094 96.8916 Q115.922 93.3268 115.922 86.2204 Q115.922 79.0908 114.094 75.5492 Q112.288 71.9844 108.654 71.9844 M108.654 68.2807 Q114.464 68.2807 117.52 72.8871 Q120.598 77.4704 120.598 86.2204 Q120.598 94.9472 117.52 99.5537 Q114.464 104.137 108.654 104.137 Q102.844 104.137 99.765 99.5537 Q96.7095 94.9472 96.7095 86.2204 Q96.7095 77.4704 99.765 72.8871 Q102.844 68.2807 108.654 68.2807 Z" fill="#000000" fill-rule="evenodd" fill-opacity="1" /><polyline clip-path="url(#clip072)" style="stroke:#009af9; stroke-linecap:butt; stroke-linejoin:round; stroke-width:8; stroke-opacity:1; fill:none" points="
  156.598,86.1857 158.797,89.1881 160.995,92.1846 163.193,95.175 165.392,98.1595 167.59,101.138 169.788,104.11 171.987,107.077 174.185,110.038 176.383,112.992 
  178.582,115.941 180.78,118.884 182.979,121.821 185.177,124.752 187.375,127.678 189.574,130.597 191.772,133.511 193.97,136.419 196.169,139.321 198.367,142.217 
  200.565,145.107 202.764,147.992 204.962,150.871 207.16,153.744 209.359,156.611 211.557,159.473 213.755,162.328 215.954,165.179 218.152,168.023 220.351,170.862 
  222.549,173.695 224.747,176.522 226.946,179.344 229.144,182.16 231.342,184.971 233.541,187.776 235.739,190.575 237.937,193.369 240.136,196.157 242.334,198.939 
  244.532,201.716 246.731,204.487 248.929,207.253 251.128,210.014 253.326,212.768 255.524,215.518 257.723,218.261 259.921,221 262.119,223.733 264.318,226.46 
  266.516,229.182 268.714,231.898 270.913,234.609 273.111,237.315 275.309,240.015 277.508,242.71 279.706,245.399 281.905,248.083 284.103,250.762 286.301,253.435 
  288.5,256.103 290.698,258.766 292.896,261.423 295.095,264.075 297.293,266.722 299.491,269.363 301.69,271.999 303.888,274.63 306.086,277.256 308.285,279.876 
  310.483,282.491 312.682,285.101 314.88,287.705 317.078,290.305 319.277,292.899 321.475,295.488 323.673,298.072 325.872,300.651 328.07,303.224 330.268,305.792 
  332.467,308.356 334.665,310.914 336.863,313.467 339.062,316.015 341.26,318.558 343.458,321.095 345.657,323.628 347.855,326.155 350.054,328.678 352.252,331.195 
  354.45,333.708 356.649,336.215 358.847,338.718 361.045,341.215 363.244,343.707 365.442,346.195 367.64,348.677 369.839,351.155 372.037,353.627 374.235,356.095 
  376.434,358.557 378.632,361.015 380.831,363.468 383.029,365.916 385.227,368.359 387.426,370.797 389.624,373.23 391.822,375.658 394.021,378.082 396.219,380.5 
  398.417,382.914 400.616,385.323 402.814,387.727 405.012,390.127 407.211,392.521 409.409,394.911 411.608,397.296 413.806,399.676 416.004,402.052 418.203,404.422 
  420.401,406.788 422.599,409.15 424.798,411.506 426.996,413.858 429.194,416.205 431.393,418.547 433.591,420.885 435.789,423.218 437.988,425.547 440.186,427.87 
  442.385,430.189 444.583,432.504 446.781,434.814 448.98,437.119 451.178,439.419 453.376,441.715 455.575,444.007 457.773,446.293 459.971,448.576 462.17,450.853 
  464.368,453.126 466.566,455.395 468.765,457.659 470.963,459.919 473.162,462.174 475.36,464.424 477.558,466.67 479.757,468.911 481.955,471.148 484.153,473.381 
  486.352,475.609 488.55,477.833 490.748,480.052 492.947,482.266 495.145,484.477 497.343,486.683 499.542,488.884 501.74,491.081 503.938,493.274 506.137,495.462 
  508.335,497.646 510.534,499.825 512.732,502.001 514.93,504.171 517.129,506.338 519.327,508.5 521.525,510.658 523.724,512.811 525.922,514.96 528.12,517.105 
  530.319,519.246 532.517,521.382 534.715,523.514 536.914,525.642 539.112,527.766 541.311,529.885 543.509,532 545.707,534.111 547.906,536.217 550.104,538.32 
  552.302,540.418 554.501,542.512 556.699,544.602 558.897,546.687 561.096,548.769 563.294,550.846 565.492,552.919 567.691,554.988 569.889,557.053 572.088,559.114 
  574.286,561.171 576.484,563.223 578.683,565.271 580.881,567.316 583.079,569.356 585.278,571.392 587.476,573.424 589.674,575.452 591.873,577.476 594.071,579.496 
  596.269,581.512 598.468,583.524 600.666,585.531 602.865,587.535 605.063,589.535 607.261,591.531 609.46,593.522 611.658,595.51 613.856,597.494 616.055,599.474 
  618.253,601.45 620.451,603.422 622.65,605.39 624.848,607.354 627.046,609.314 629.245,611.27 631.443,613.222 633.641,615.171 635.84,617.115 638.038,619.056 
  640.237,620.992 642.435,622.925 644.633,624.854 646.832,626.779 649.03,628.701 651.228,630.618 653.427,632.532 655.625,634.441 657.823,636.347 660.022,638.249 
  662.22,640.148 664.418,642.042 666.617,643.933 668.815,645.82 671.014,647.703 673.212,649.583 675.41,651.458 677.609,653.33 679.807,655.198 682.005,657.063 
  684.204,658.923 686.402,660.78 688.6,662.634 690.799,664.483 692.997,666.329 695.195,668.171 697.394,670.01 699.592,671.844 701.791,673.675 703.989,675.503 
  706.187,677.327 708.386,679.147 710.584,680.963 712.782,682.776 714.981,684.586 717.179,686.391 719.377,688.193 721.576,689.992 723.774,691.786 725.972,693.578 
  728.171,695.365 730.369,697.149 732.568,698.93 734.766,700.707 736.964,702.48 739.163,704.25 741.361,706.016 743.559,707.779 745.758,709.538 747.956,711.294 
  750.154,713.046 752.353,714.795 754.551,716.54 756.749,718.282 758.948,720.02 761.146,721.755 763.344,723.486 765.543,725.214 767.741,726.938 769.94,728.659 
  772.138,730.377 774.336,732.091 776.535,733.801 778.733,735.509 780.931,737.212 783.13,738.913 785.328,740.61 787.526,742.303 789.725,743.994 791.923,745.68 
  794.121,747.364 796.32,749.044 798.518,750.721 800.717,752.394 802.915,754.064 805.113,755.731 807.312,757.394 809.51,759.054 811.708,760.711 813.907,762.364 
  816.105,764.014 818.303,765.661 820.502,767.304 822.7,768.945 824.898,770.582 827.097,772.215 829.295,773.846 831.494,775.473 833.692,777.097 835.89,778.717 
  838.089,780.335 840.287,781.949 842.485,783.56 844.684,785.167 846.882,786.772 849.08,788.373 851.279,789.971 853.477,791.566 855.675,793.158 857.874,794.746 
  860.072,796.332 862.271,797.914 864.469,799.493 866.667,801.068 868.866,802.641 871.064,804.211 873.262,805.777 875.461,807.34 877.659,808.9 879.857,810.457 
  882.056,812.011 884.254,813.562 886.452,815.11 888.651,816.655 890.849,818.196 893.048,819.734 895.246,821.27 897.444,822.802 899.643,824.331 901.841,825.858 
  904.039,827.381 906.238,828.901 908.436,830.418 910.634,831.932 912.833,833.443 915.031,834.951 917.229,836.456 919.428,837.958 921.626,839.456 923.824,840.952 
  926.023,842.445 928.221,843.935 930.42,845.422 932.618,846.906 934.816,848.387 937.015,849.865 939.213,851.341 941.411,852.813 943.61,854.282 945.808,855.748 
  948.006,857.212 950.205,858.672 952.403,860.129 954.601,861.584 956.8,863.036 958.998,864.485 961.197,865.93 963.395,867.373 965.593,868.813 967.792,870.251 
  969.99,871.685 972.188,873.117 974.387,874.545 976.585,875.971 978.783,877.394 980.982,878.814 983.18,880.231 985.378,881.645 987.577,883.057 989.775,884.466 
  991.974,885.872 994.172,887.275 996.37,888.675 998.569,890.072 1000.77,891.467 1002.97,892.859 1005.16,894.248 1007.36,895.635 1009.56,897.018 1011.76,898.399 
  1013.96,899.777 1016.16,901.152 1018.35,902.525 1020.55,903.894 1022.75,905.262 1024.95,906.626 1027.15,907.987 1029.35,909.346 1031.54,910.702 1033.74,912.056 
  1035.94,913.407 1038.14,914.755 1040.34,916.1 1042.54,917.442 1044.73,918.782 1046.93,920.12 1049.13,921.454 1051.33,922.786 1053.53,924.115 1055.73,925.442 
  1057.92,926.766 1060.12,928.087 1062.32,929.406 1064.52,930.722 1066.72,932.035 1068.92,933.346 1071.11,934.654 1073.31,935.959 1075.51,937.262 1077.71,938.563 
  1079.91,939.86 1082.11,941.155 1084.3,942.448 1086.5,943.738 1088.7,945.025 1090.9,946.31 1093.1,947.592 1095.3,948.872 1097.49,950.149 1099.69,951.423 
  1101.89,952.695 1104.09,953.965 1106.29,955.231 1108.49,956.496 1110.68,957.758 1112.88,959.017 1115.08,960.274 1117.28,961.528 1119.48,962.78 1121.68,964.029 
  1123.87,965.276 1126.07,966.52 1128.27,967.762 1130.47,969.001 1132.67,970.238 1134.87,971.472 1137.07,972.704 1139.26,973.933 1141.46,975.16 1143.66,976.385 
  1145.86,977.607 1148.06,978.826 1150.26,980.043 1152.45,981.258 1154.65,982.47 1156.85,983.68 1159.05,984.888 1161.25,986.093 1163.45,987.295 1165.64,988.495 
  1167.84,989.693 1170.04,990.889 1172.24,992.082 1174.44,993.272 1176.64,994.46 1178.83,995.646 1181.03,996.83 1183.23,998.011 1185.43,999.19 1187.63,1000.37 
  1189.83,1001.54 1192.02,1002.71 1194.22,1003.88 1196.42,1005.05 1198.62,1006.21 1200.82,1007.38 1203.02,1008.54 1205.21,1009.69 1207.41,1010.85 1209.61,1012 
  1211.81,1013.15 1214.01,1014.3 1216.21,1015.45 1218.4,1016.59 1220.6,1017.73 1222.8,1018.87 1225,1020.01 1227.2,1021.14 1229.4,1022.28 1231.59,1023.41 
  1233.79,1024.53 1235.99,1025.66 1238.19,1026.78 1240.39,1027.91 1242.59,1029.02 1244.78,1030.14 1246.98,1031.26 1249.18,1032.37 1251.38,1033.48 1253.58,1034.59 
  1255.78,1035.69 1257.97,1036.79 1260.17,1037.9 1262.37,1038.99 1264.57,1040.09 1266.77,1041.19 1268.97,1042.28 1271.16,1043.37 1273.36,1044.46 1275.56,1045.54 
  1277.76,1046.63 1279.96,1047.71 1282.16,1048.79 1284.35,1049.86 1286.55,1050.94 1288.75,1052.01 1290.95,1053.08 1293.15,1054.15 1295.35,1055.22 1297.55,1056.28 
  1299.74,1057.35 1301.94,1058.41 1304.14,1059.46 1306.34,1060.52 1308.54,1061.57 1310.74,1062.63 1312.93,1063.67 1315.13,1064.72 1317.33,1065.77 1319.53,1066.81 
  1321.73,1067.85 1323.93,1068.89 1326.12,1069.93 1328.32,1070.96 1330.52,1072 1332.72,1073.03 1334.92,1074.06 1337.12,1075.08 1339.31,1076.11 1341.51,1077.13 
  1343.71,1078.15 1345.91,1079.17 1348.11,1080.19 1350.31,1081.2 1352.5,1082.21 1354.7,1083.22 1356.9,1084.23 1359.1,1085.24 1361.3,1086.24 1363.5,1087.24 
  1365.69,1088.24 1367.89,1089.24 1370.09,1090.24 1372.29,1091.23 1374.49,1092.23 1376.69,1093.22 1378.88,1094.21 1381.08,1095.19 1383.28,1096.18 1385.48,1097.16 
  1387.68,1098.14 1389.88,1099.12 1392.07,1100.09 1394.27,1101.07 1396.47,1102.04 1398.67,1103.01 1400.87,1103.98 1403.07,1104.95 1405.26,1105.91 1407.46,1106.88 
  1409.66,1107.84 1411.86,1108.8 1414.06,1109.75 1416.26,1110.71 1418.45,1111.66 1420.65,1112.61 1422.85,1113.56 1425.05,1114.51 1427.25,1115.46 1429.45,1116.4 
  1431.64,1117.34 1433.84,1118.28 1436.04,1119.22 1438.24,1120.16 1440.44,1121.09 1442.64,1122.03 1444.83,1122.96 1447.03,1123.89 1449.23,1124.81 1451.43,1125.74 
  1453.63,1126.66 1455.83,1127.58 1458.03,1128.5 1460.22,1129.42 1462.42,1130.34 1464.62,1131.25 1466.82,1132.16 1469.02,1133.07 1471.22,1133.98 1473.41,1134.89 
  1475.61,1135.79 1477.81,1136.7 1480.01,1137.6 1482.21,1138.5 1484.41,1139.4 1486.6,1140.29 1488.8,1141.19 1491,1142.08 1493.2,1142.97 1495.4,1143.86 
  1497.6,1144.74 1499.79,1145.63 1501.99,1146.51 1504.19,1147.4 1506.39,1148.28 1508.59,1149.15 1510.79,1150.03 1512.98,1150.9 1515.18,1151.78 1517.38,1152.65 
  1519.58,1153.52 1521.78,1154.39 1523.98,1155.25 1526.17,1156.12 1528.37,1156.98 1530.57,1157.84 1532.77,1158.7 1534.97,1159.56 1537.17,1160.41 1539.36,1161.27 
  1541.56,1162.12 1543.76,1162.97 1545.96,1163.82 1548.16,1164.67 1550.36,1165.51 1552.55,1166.35 1554.75,1167.2 1556.95,1168.04 1559.15,1168.88 1561.35,1169.71 
  1563.55,1170.55 1565.74,1171.38 1567.94,1172.21 1570.14,1173.04 1572.34,1173.87 1574.54,1174.7 1576.74,1175.53 1578.93,1176.35 1581.13,1177.17 1583.33,1177.99 
  1585.53,1178.81 1587.73,1179.63 1589.93,1180.44 1592.12,1181.26 1594.32,1182.07 1596.52,1182.88 1598.72,1183.69 1600.92,1184.5 1603.12,1185.3 1605.31,1186.11 
  1607.51,1186.91 1609.71,1187.71 1611.91,1188.51 1614.11,1189.31 1616.31,1190.1 1618.5,1190.9 1620.7,1191.69 1622.9,1192.48 1625.1,1193.27 1627.3,1194.06 
  1629.5,1194.85 1631.7,1195.63 1633.89,1196.42 1636.09,1197.2 1638.29,1197.98 1640.49,1198.76 1642.69,1199.53 1644.89,1200.31 1647.08,1201.08 1649.28,1201.86 
  1651.48,1202.63 1653.68,1203.4 1655.88,1204.16 1658.08,1204.93 1660.27,1205.7 1662.47,1206.46 1664.67,1207.22 1666.87,1207.98 1669.07,1208.74 1671.27,1209.5 
  1673.46,1210.25 1675.66,1211.01 1677.86,1211.76 1680.06,1212.51 1682.26,1213.26 1684.46,1214.01 1686.65,1214.76 1688.85,1215.5 1691.05,1216.25 1693.25,1216.99 
  1695.45,1217.73 1697.65,1218.47 1699.84,1219.21 1702.04,1219.94 1704.24,1220.68 1706.44,1221.41 1708.64,1222.14 1710.84,1222.87 1713.03,1223.6 1715.23,1224.33 
  1717.43,1225.06 1719.63,1225.78 1721.83,1226.5 1724.03,1227.23 1726.22,1227.95 1728.42,1228.67 1730.62,1229.38 1732.82,1230.1 1735.02,1230.81 1737.22,1231.53 
  1739.41,1232.24 1741.61,1232.95 1743.81,1233.66 1746.01,1234.36 1748.21,1235.07 1750.41,1235.78 1752.6,1236.48 1754.8,1237.18 1757,1237.88 1759.2,1238.58 
  1761.4,1239.28 1763.6,1239.97 1765.79,1240.67 1767.99,1241.36 1770.19,1242.05 1772.39,1242.75 1774.59,1243.43 1776.79,1244.12 1778.98,1244.81 1781.18,1245.49 
  1783.38,1246.18 1785.58,1246.86 1787.78,1247.54 1789.98,1248.22 1792.18,1248.9 1794.37,1249.58 1796.57,1250.25 1798.77,1250.93 1800.97,1251.6 1803.17,1252.27 
  1805.37,1252.94 1807.56,1253.61 1809.76,1254.28 1811.96,1254.94 1814.16,1255.61 1816.36,1256.27 1818.56,1256.94 1820.75,1257.6 1822.95,1258.26 1825.15,1258.91 
  1827.35,1259.57 1829.55,1260.23 1831.75,1260.88 1833.94,1261.53 1836.14,1262.19 1838.34,1262.84 1840.54,1263.49 1842.74,1264.13 1844.94,1264.78 1847.13,1265.43 
  1849.33,1266.07 1851.53,1266.71 1853.73,1267.35 1855.93,1267.99 1858.13,1268.63 1860.32,1269.27 1862.52,1269.91 1864.72,1270.54 1866.92,1271.18 1869.12,1271.81 
  1871.32,1272.44 1873.51,1273.07 1875.71,1273.7 1877.91,1274.33 1880.11,1274.95 1882.31,1275.58 1884.51,1276.2 1886.7,1276.82 1888.9,1277.44 1891.1,1278.06 
  1893.3,1278.68 1895.5,1279.3 1897.7,1279.92 1899.89,1280.53 1902.09,1281.15 1904.29,1281.76 1906.49,1282.37 1908.69,1282.98 1910.89,1283.59 1913.08,1284.2 
  1915.28,1284.8 1917.48,1285.41 1919.68,1286.01 1921.88,1286.62 1924.08,1287.22 1926.27,1287.82 1928.47,1288.42 1930.67,1289.01 1932.87,1289.61 1935.07,1290.21 
  1937.27,1290.8 1939.46,1291.39 1941.66,1291.99 1943.86,1292.58 1946.06,1293.17 1948.26,1293.76 1950.46,1294.34 1952.66,1294.93 1954.85,1295.51 1957.05,1296.1 
  1959.25,1296.68 1961.45,1297.26 1963.65,1297.84 1965.85,1298.42 1968.04,1299 1970.24,1299.58 1972.44,1300.15 1974.64,1300.73 1976.84,1301.3 1979.04,1301.87 
  1981.23,1302.44 1983.43,1303.01 1985.63,1303.58 1987.83,1304.15 1990.03,1304.72 1992.23,1305.28 1994.42,1305.85 1996.62,1306.41 1998.82,1306.97 2001.02,1307.53 
  2003.22,1308.09 2005.42,1308.65 2007.61,1309.21 2009.81,1309.76 2012.01,1310.32 2014.21,1310.87 2016.41,1311.43 2018.61,1311.98 2020.8,1312.53 2023,1313.08 
  2025.2,1313.63 2027.4,1314.18 2029.6,1314.72 2031.8,1315.27 2033.99,1315.81 2036.19,1316.35 2038.39,1316.9 2040.59,1317.44 2042.79,1317.98 2044.99,1318.52 
  2047.18,1319.05 2049.38,1319.59 2051.58,1320.13 2053.78,1320.66 2055.98,1321.19 2058.18,1321.73 2060.37,1322.26 2062.57,1322.79 2064.77,1323.32 2066.97,1323.85 
  2069.17,1324.37 2071.37,1324.9 2073.56,1325.42 2075.76,1325.95 2077.96,1326.47 2080.16,1326.99 2082.36,1327.51 2084.56,1328.03 2086.75,1328.55 2088.95,1329.07 
  2091.15,1329.59 2093.35,1330.1 2095.55,1330.62 2097.75,1331.13 2099.94,1331.64 2102.14,1332.15 2104.34,1332.66 2106.54,1333.17 2108.74,1333.68 2110.94,1334.19 
  2113.14,1334.7 2115.33,1335.2 2117.53,1335.71 2119.73,1336.21 2121.93,1336.71 2124.13,1337.21 2126.33,1337.71 2128.52,1338.21 2130.72,1338.71 2132.92,1339.21 
  2135.12,1339.71 2137.32,1340.2 2139.52,1340.69 2141.71,1341.19 2143.91,1341.68 2146.11,1342.17 2148.31,1342.66 2150.51,1343.15 2152.71,1343.64 2154.9,1344.13 
  2157.1,1344.61 2159.3,1345.1 2161.5,1345.58 2163.7,1346.07 2165.9,1346.55 2168.09,1347.03 2170.29,1347.51 2172.49,1347.99 2174.69,1348.47 2176.89,1348.95 
  2179.09,1349.43 2181.28,1349.9 2183.48,1350.38 2185.68,1350.85 2187.88,1351.32 2190.08,1351.8 2192.28,1352.27 2194.47,1352.74 2196.67,1353.21 2198.87,1353.68 
  2201.07,1354.14 2203.27,1354.61 2205.47,1355.08 2207.66,1355.54 2209.86,1356 2212.06,1356.47 2214.26,1356.93 2216.46,1357.39 2218.66,1357.85 2220.85,1358.31 
  2223.05,1358.77 2225.25,1359.22 2227.45,1359.68 2229.65,1360.14 2231.85,1360.59 2234.04,1361.04 2236.24,1361.5 2238.44,1361.95 2240.64,1362.4 2242.84,1362.85 
  2245.04,1363.3 2247.23,1363.75 2249.43,1364.19 2251.63,1364.64 2253.83,1365.09 2256.03,1365.53 2258.23,1365.97 2260.42,1366.42 2262.62,1366.86 2264.82,1367.3 
  2267.02,1367.74 2269.22,1368.18 2271.42,1368.62 2273.62,1369.05 2275.81,1369.49 2278.01,1369.93 2280.21,1370.36 2282.41,1370.8 2284.61,1371.23 2286.81,1371.66 
  2289,1372.09 2291.2,1372.52 2293.4,1372.95 2295.6,1373.38 2297.8,1373.81 2300,1374.24 2302.19,1374.66 2304.39,1375.09 2306.59,1375.51 2308.79,1375.94 
  2310.99,1376.36 2313.19,1376.78 2315.38,1377.2 2317.58,1377.62 2319.78,1378.04 2321.98,1378.46 2324.18,1378.88 2326.38,1379.3 2328.57,1379.71 2330.77,1380.13 
  2332.97,1380.54 2335.17,1380.96 2337.37,1381.37 2339.57,1381.78 2341.76,1382.19 2343.96,1382.6 2346.16,1383.01 2348.36,1383.42 2350.56,1383.83 2352.76,1384.24 
  
  "/>
<path clip-path="url(#clip070)" d="
M1953.59 196.789 L2279.55 196.789 L2279.55 93.1086 L1953.59 93.1086  Z
  " fill="#ffffff" fill-rule="evenodd" fill-opacity="1"/>
<polyline clip-path="url(#clip070)" style="stroke:#000000; stroke-linecap:butt; stroke-linejoin:round; stroke-width:4; stroke-opacity:1; fill:none" points="
  1953.59,196.789 2279.55,196.789 2279.55,93.1086 1953.59,93.1086 1953.59,196.789 
  "/>
<polyline clip-path="url(#clip070)" style="stroke:#009af9; stroke-linecap:butt; stroke-linejoin:round; stroke-width:4; stroke-opacity:1; fill:none" points="
  1977.99,144.949 2124.4,144.949 
  "/>
<path clip-path="url(#clip070)" d="M2176.67 130.331 L2176.67 135.261 Q2174.31 133.062 2171.63 131.974 Q2168.97 130.886 2165.96 130.886 Q2160.03 130.886 2156.88 134.52 Q2153.73 138.132 2153.73 144.983 Q2153.73 151.812 2156.88 155.446 Q2160.03 159.057 2165.96 159.057 Q2168.97 159.057 2171.63 157.969 Q2174.31 156.881 2176.67 154.682 L2176.67 159.567 Q2174.22 161.233 2171.47 162.067 Q2168.73 162.9 2165.68 162.9 Q2157.83 162.9 2153.32 158.108 Q2148.8 153.293 2148.8 144.983 Q2148.8 136.65 2153.32 131.858 Q2157.83 127.044 2165.68 127.044 Q2168.78 127.044 2171.51 127.877 Q2174.27 128.687 2176.67 130.331 Z" fill="#000000" fill-rule="evenodd" fill-opacity="1" /><path clip-path="url(#clip070)" d="M2193.94 126.257 Q2190.84 131.581 2189.34 136.789 Q2187.83 141.997 2187.83 147.344 Q2187.83 152.692 2189.34 157.946 Q2190.86 163.178 2193.94 168.479 L2190.24 168.479 Q2186.77 163.039 2185.03 157.784 Q2183.32 152.53 2183.32 147.344 Q2183.32 142.182 2185.03 136.951 Q2186.74 131.72 2190.24 126.257 L2193.94 126.257 Z" fill="#000000" fill-rule="evenodd" fill-opacity="1" /><path clip-path="url(#clip070)" d="M2206.42 128.942 L2206.42 136.303 L2215.19 136.303 L2215.19 139.613 L2206.42 139.613 L2206.42 153.687 Q2206.42 156.858 2207.28 157.761 Q2208.15 158.664 2210.82 158.664 L2215.19 158.664 L2215.19 162.229 L2210.82 162.229 Q2205.89 162.229 2204.01 160.4 Q2202.14 158.548 2202.14 153.687 L2202.14 139.613 L2199.01 139.613 L2199.01 136.303 L2202.14 136.303 L2202.14 128.942 L2206.42 128.942 Z" fill="#000000" fill-rule="evenodd" fill-opacity="1" /><path clip-path="url(#clip070)" d="M2220.12 126.257 L2223.83 126.257 Q2227.3 131.72 2229.01 136.951 Q2230.75 142.182 2230.75 147.344 Q2230.75 152.53 2229.01 157.784 Q2227.3 163.039 2223.83 168.479 L2220.12 168.479 Q2223.2 163.178 2224.71 157.946 Q2226.23 152.692 2226.23 147.344 Q2226.23 141.997 2224.71 136.789 Q2223.2 131.581 2220.12 126.257 Z" fill="#000000" fill-rule="evenodd" fill-opacity="1" /></svg>
