<?xml version="1.0" encoding="utf-8"?>
<svg xmlns="http://www.w3.org/2000/svg" xmlns:xlink="http://www.w3.org/1999/xlink" width="600" height="400" viewBox="0 0 2400 1600">
<defs>
  <clipPath id="clip680">
    <rect x="0" y="0" width="2400" height="1600"/>
  </clipPath>
</defs>
<path clip-path="url(#clip680)" d="
M0 1600 L2400 1600 L2400 0 L0 0  Z
  " fill="#ffffff" fill-rule="evenodd" fill-opacity="1"/>
<defs>
  <clipPath id="clip681">
    <rect x="480" y="0" width="1681" height="1600"/>
  </clipPath>
</defs>
<path clip-path="url(#clip680)" d="
M193.288 1486.45 L2352.76 1486.45 L2352.76 47.2441 L193.288 47.2441  Z
  " fill="#ffffff" fill-rule="evenodd" fill-opacity="1"/>
<defs>
  <clipPath id="clip682">
    <rect x="193" y="47" width="2160" height="1440"/>
  </clipPath>
</defs>
<polyline clip-path="url(#clip682)" style="stroke:#000000; stroke-linecap:butt; stroke-linejoin:round; stroke-width:2; stroke-opacity:0.1; fill:none" points="
  254.405,1486.45 254.405,47.2441 
  "/>
<polyline clip-path="url(#clip682)" style="stroke:#000000; stroke-linecap:butt; stroke-linejoin:round; stroke-width:2; stroke-opacity:0.1; fill:none" points="
  580.362,1486.45 580.362,47.2441 
  "/>
<polyline clip-path="url(#clip682)" style="stroke:#000000; stroke-linecap:butt; stroke-linejoin:round; stroke-width:2; stroke-opacity:0.1; fill:none" points="
  906.32,1486.45 906.32,47.2441 
  "/>
<polyline clip-path="url(#clip682)" style="stroke:#000000; stroke-linecap:butt; stroke-linejoin:round; stroke-width:2; stroke-opacity:0.1; fill:none" points="
  1232.28,1486.45 1232.28,47.2441 
  "/>
<polyline clip-path="url(#clip682)" style="stroke:#000000; stroke-linecap:butt; stroke-linejoin:round; stroke-width:2; stroke-opacity:0.1; fill:none" points="
  1558.23,1486.45 1558.23,47.2441 
  "/>
<polyline clip-path="url(#clip682)" style="stroke:#000000; stroke-linecap:butt; stroke-linejoin:round; stroke-width:2; stroke-opacity:0.1; fill:none" points="
  1884.19,1486.45 1884.19,47.2441 
  "/>
<polyline clip-path="url(#clip682)" style="stroke:#000000; stroke-linecap:butt; stroke-linejoin:round; stroke-width:2; stroke-opacity:0.1; fill:none" points="
  2210.15,1486.45 2210.15,47.2441 
  "/>
<polyline clip-path="url(#clip680)" style="stroke:#000000; stroke-linecap:butt; stroke-linejoin:round; stroke-width:4; stroke-opacity:1; fill:none" points="
  193.288,1486.45 2352.76,1486.45 
  "/>
<polyline clip-path="url(#clip680)" style="stroke:#000000; stroke-linecap:butt; stroke-linejoin:round; stroke-width:4; stroke-opacity:1; fill:none" points="
  254.405,1486.45 254.405,1467.55 
  "/>
<polyline clip-path="url(#clip680)" style="stroke:#000000; stroke-linecap:butt; stroke-linejoin:round; stroke-width:4; stroke-opacity:1; fill:none" points="
  580.362,1486.45 580.362,1467.55 
  "/>
<polyline clip-path="url(#clip680)" style="stroke:#000000; stroke-linecap:butt; stroke-linejoin:round; stroke-width:4; stroke-opacity:1; fill:none" points="
  906.32,1486.45 906.32,1467.55 
  "/>
<polyline clip-path="url(#clip680)" style="stroke:#000000; stroke-linecap:butt; stroke-linejoin:round; stroke-width:4; stroke-opacity:1; fill:none" points="
  1232.28,1486.45 1232.28,1467.55 
  "/>
<polyline clip-path="url(#clip680)" style="stroke:#000000; stroke-linecap:butt; stroke-linejoin:round; stroke-width:4; stroke-opacity:1; fill:none" points="
  1558.23,1486.45 1558.23,1467.55 
  "/>
<polyline clip-path="url(#clip680)" style="stroke:#000000; stroke-linecap:butt; stroke-linejoin:round; stroke-width:4; stroke-opacity:1; fill:none" points="
  1884.19,1486.45 1884.19,1467.55 
  "/>
<polyline clip-path="url(#clip680)" style="stroke:#000000; stroke-linecap:butt; stroke-linejoin:round; stroke-width:4; stroke-opacity:1; fill:none" points="
  2210.15,1486.45 2210.15,1467.55 
  "/>
<path clip-path="url(#clip680)" d="M254.405 1517.37 Q250.794 1517.37 248.965 1520.93 Q247.16 1524.47 247.16 1531.6 Q247.16 1538.71 248.965 1542.27 Q250.794 1545.82 254.405 1545.82 Q258.039 1545.82 259.845 1542.27 Q261.673 1538.71 261.673 1531.6 Q261.673 1524.47 259.845 1520.93 Q258.039 1517.37 254.405 1517.37 M254.405 1513.66 Q260.215 1513.66 263.271 1518.27 Q266.349 1522.85 266.349 1531.6 Q266.349 1540.33 263.271 1544.94 Q260.215 1549.52 254.405 1549.52 Q248.595 1549.52 245.516 1544.94 Q242.46 1540.33 242.46 1531.6 Q242.46 1522.85 245.516 1518.27 Q248.595 1513.66 254.405 1513.66 Z" fill="#000000" fill-rule="evenodd" fill-opacity="1" /><path clip-path="url(#clip680)" d="M575.015 1544.91 L591.334 1544.91 L591.334 1548.85 L569.39 1548.85 L569.39 1544.91 Q572.052 1542.16 576.635 1537.53 Q581.242 1532.88 582.422 1531.53 Q584.668 1529.01 585.547 1527.27 Q586.45 1525.51 586.45 1523.82 Q586.45 1521.07 584.506 1519.33 Q582.585 1517.6 579.483 1517.6 Q577.284 1517.6 574.83 1518.36 Q572.399 1519.13 569.622 1520.68 L569.622 1515.95 Q572.446 1514.82 574.899 1514.24 Q577.353 1513.66 579.39 1513.66 Q584.76 1513.66 587.955 1516.35 Q591.149 1519.03 591.149 1523.52 Q591.149 1525.65 590.339 1527.57 Q589.552 1529.47 587.446 1532.07 Q586.867 1532.74 583.765 1535.95 Q580.663 1539.15 575.015 1544.91 Z" fill="#000000" fill-rule="evenodd" fill-opacity="1" /><path clip-path="url(#clip680)" d="M909.329 1518.36 L897.524 1536.81 L909.329 1536.81 L909.329 1518.36 M908.102 1514.29 L913.982 1514.29 L913.982 1536.81 L918.912 1536.81 L918.912 1540.7 L913.982 1540.7 L913.982 1548.85 L909.329 1548.85 L909.329 1540.7 L893.727 1540.7 L893.727 1536.19 L908.102 1514.29 Z" fill="#000000" fill-rule="evenodd" fill-opacity="1" /><path clip-path="url(#clip680)" d="M1232.68 1529.7 Q1229.53 1529.7 1227.68 1531.86 Q1225.85 1534.01 1225.85 1537.76 Q1225.85 1541.49 1227.68 1543.66 Q1229.53 1545.82 1232.68 1545.82 Q1235.83 1545.82 1237.66 1543.66 Q1239.51 1541.49 1239.51 1537.76 Q1239.51 1534.01 1237.66 1531.86 Q1235.83 1529.7 1232.68 1529.7 M1241.96 1515.05 L1241.96 1519.31 Q1240.21 1518.48 1238.4 1518.04 Q1236.62 1517.6 1234.86 1517.6 Q1230.23 1517.6 1227.77 1520.72 Q1225.34 1523.85 1225 1530.17 Q1226.36 1528.15 1228.42 1527.09 Q1230.48 1526 1232.96 1526 Q1238.17 1526 1241.18 1529.17 Q1244.21 1532.32 1244.21 1537.76 Q1244.21 1543.08 1241.06 1546.3 Q1237.91 1549.52 1232.68 1549.52 Q1226.69 1549.52 1223.52 1544.94 Q1220.34 1540.33 1220.34 1531.6 Q1220.34 1523.41 1224.23 1518.55 Q1228.12 1513.66 1234.67 1513.66 Q1236.43 1513.66 1238.21 1514.01 Q1240.02 1514.36 1241.96 1515.05 Z" fill="#000000" fill-rule="evenodd" fill-opacity="1" /><path clip-path="url(#clip680)" d="M1558.23 1532.44 Q1554.9 1532.44 1552.98 1534.22 Q1551.08 1536 1551.08 1539.13 Q1551.08 1542.25 1552.98 1544.03 Q1554.9 1545.82 1558.23 1545.82 Q1561.57 1545.82 1563.49 1544.03 Q1565.41 1542.23 1565.41 1539.13 Q1565.41 1536 1563.49 1534.22 Q1561.59 1532.44 1558.23 1532.44 M1553.56 1530.45 Q1550.55 1529.7 1548.86 1527.64 Q1547.19 1525.58 1547.19 1522.62 Q1547.19 1518.48 1550.13 1516.07 Q1553.1 1513.66 1558.23 1513.66 Q1563.4 1513.66 1566.34 1516.07 Q1569.28 1518.48 1569.28 1522.62 Q1569.28 1525.58 1567.59 1527.64 Q1565.92 1529.7 1562.93 1530.45 Q1566.31 1531.23 1568.19 1533.52 Q1570.09 1535.82 1570.09 1539.13 Q1570.09 1544.15 1567.01 1546.83 Q1563.95 1549.52 1558.23 1549.52 Q1552.52 1549.52 1549.44 1546.83 Q1546.38 1544.15 1546.38 1539.13 Q1546.38 1535.82 1548.28 1533.52 Q1550.18 1531.23 1553.56 1530.45 M1551.85 1523.06 Q1551.85 1525.75 1553.51 1527.25 Q1555.2 1528.76 1558.23 1528.76 Q1561.24 1528.76 1562.93 1527.25 Q1564.65 1525.75 1564.65 1523.06 Q1564.65 1520.38 1562.93 1518.87 Q1561.24 1517.37 1558.23 1517.37 Q1555.2 1517.37 1553.51 1518.87 Q1551.85 1520.38 1551.85 1523.06 Z" fill="#000000" fill-rule="evenodd" fill-opacity="1" /><path clip-path="url(#clip680)" d="M1858.88 1544.91 L1866.52 1544.91 L1866.52 1518.55 L1858.21 1520.21 L1858.21 1515.95 L1866.47 1514.29 L1871.15 1514.29 L1871.15 1544.91 L1878.79 1544.91 L1878.79 1548.85 L1858.88 1548.85 L1858.88 1544.91 Z" fill="#000000" fill-rule="evenodd" fill-opacity="1" /><path clip-path="url(#clip680)" d="M1898.23 1517.37 Q1894.62 1517.37 1892.79 1520.93 Q1890.99 1524.47 1890.99 1531.6 Q1890.99 1538.71 1892.79 1542.27 Q1894.62 1545.82 1898.23 1545.82 Q1901.87 1545.82 1903.67 1542.27 Q1905.5 1538.71 1905.5 1531.6 Q1905.5 1524.47 1903.67 1520.93 Q1901.87 1517.37 1898.23 1517.37 M1898.23 1513.66 Q1904.04 1513.66 1907.1 1518.27 Q1910.18 1522.85 1910.18 1531.6 Q1910.18 1540.33 1907.1 1544.94 Q1904.04 1549.52 1898.23 1549.52 Q1892.42 1549.52 1889.34 1544.94 Q1886.29 1540.33 1886.29 1531.6 Q1886.29 1522.85 1889.34 1518.27 Q1892.42 1513.66 1898.23 1513.66 Z" fill="#000000" fill-rule="evenodd" fill-opacity="1" /><path clip-path="url(#clip680)" d="M2185.64 1544.91 L2193.27 1544.91 L2193.27 1518.55 L2184.96 1520.21 L2184.96 1515.95 L2193.23 1514.29 L2197.9 1514.29 L2197.9 1544.91 L2205.54 1544.91 L2205.54 1548.85 L2185.64 1548.85 L2185.64 1544.91 Z" fill="#000000" fill-rule="evenodd" fill-opacity="1" /><path clip-path="url(#clip680)" d="M2219.02 1544.91 L2235.33 1544.91 L2235.33 1548.85 L2213.39 1548.85 L2213.39 1544.91 Q2216.05 1542.16 2220.64 1537.53 Q2225.24 1532.88 2226.42 1531.53 Q2228.67 1529.01 2229.55 1527.27 Q2230.45 1525.51 2230.45 1523.82 Q2230.45 1521.07 2228.51 1519.33 Q2226.58 1517.6 2223.48 1517.6 Q2221.28 1517.6 2218.83 1518.36 Q2216.4 1519.13 2213.62 1520.68 L2213.62 1515.95 Q2216.45 1514.82 2218.9 1514.24 Q2221.35 1513.66 2223.39 1513.66 Q2228.76 1513.66 2231.95 1516.35 Q2235.15 1519.03 2235.15 1523.52 Q2235.15 1525.65 2234.34 1527.57 Q2233.55 1529.47 2231.45 1532.07 Q2230.87 1532.74 2227.77 1535.95 Q2224.66 1539.15 2219.02 1544.91 Z" fill="#000000" fill-rule="evenodd" fill-opacity="1" /><polyline clip-path="url(#clip682)" style="stroke:#000000; stroke-linecap:butt; stroke-linejoin:round; stroke-width:2; stroke-opacity:0.1; fill:none" points="
  193.288,1334.36 2352.76,1334.36 
  "/>
<polyline clip-path="url(#clip682)" style="stroke:#000000; stroke-linecap:butt; stroke-linejoin:round; stroke-width:2; stroke-opacity:0.1; fill:none" points="
  193.288,1046.73 2352.76,1046.73 
  "/>
<polyline clip-path="url(#clip682)" style="stroke:#000000; stroke-linecap:butt; stroke-linejoin:round; stroke-width:2; stroke-opacity:0.1; fill:none" points="
  193.288,759.106 2352.76,759.106 
  "/>
<polyline clip-path="url(#clip682)" style="stroke:#000000; stroke-linecap:butt; stroke-linejoin:round; stroke-width:2; stroke-opacity:0.1; fill:none" points="
  193.288,471.479 2352.76,471.479 
  "/>
<polyline clip-path="url(#clip682)" style="stroke:#000000; stroke-linecap:butt; stroke-linejoin:round; stroke-width:2; stroke-opacity:0.1; fill:none" points="
  193.288,183.852 2352.76,183.852 
  "/>
<polyline clip-path="url(#clip680)" style="stroke:#000000; stroke-linecap:butt; stroke-linejoin:round; stroke-width:4; stroke-opacity:1; fill:none" points="
  193.288,1486.45 193.288,47.2441 
  "/>
<polyline clip-path="url(#clip680)" style="stroke:#000000; stroke-linecap:butt; stroke-linejoin:round; stroke-width:4; stroke-opacity:1; fill:none" points="
  193.288,1334.36 212.185,1334.36 
  "/>
<polyline clip-path="url(#clip680)" style="stroke:#000000; stroke-linecap:butt; stroke-linejoin:round; stroke-width:4; stroke-opacity:1; fill:none" points="
  193.288,1046.73 212.185,1046.73 
  "/>
<polyline clip-path="url(#clip680)" style="stroke:#000000; stroke-linecap:butt; stroke-linejoin:round; stroke-width:4; stroke-opacity:1; fill:none" points="
  193.288,759.106 212.185,759.106 
  "/>
<polyline clip-path="url(#clip680)" style="stroke:#000000; stroke-linecap:butt; stroke-linejoin:round; stroke-width:4; stroke-opacity:1; fill:none" points="
  193.288,471.479 212.185,471.479 
  "/>
<polyline clip-path="url(#clip680)" style="stroke:#000000; stroke-linecap:butt; stroke-linejoin:round; stroke-width:4; stroke-opacity:1; fill:none" points="
  193.288,183.852 212.185,183.852 
  "/>
<path clip-path="url(#clip680)" d="M50.9921 1334.81 L80.6679 1334.81 L80.6679 1338.75 L50.9921 1338.75 L50.9921 1334.81 Z" fill="#000000" fill-rule="evenodd" fill-opacity="1" /><path clip-path="url(#clip680)" d="M100.76 1320.16 Q97.1493 1320.16 95.3206 1323.72 Q93.515 1327.26 93.515 1334.39 Q93.515 1341.5 95.3206 1345.07 Q97.1493 1348.61 100.76 1348.61 Q104.395 1348.61 106.2 1345.07 Q108.029 1341.5 108.029 1334.39 Q108.029 1327.26 106.2 1323.72 Q104.395 1320.16 100.76 1320.16 M100.76 1316.45 Q106.571 1316.45 109.626 1321.06 Q112.705 1325.64 112.705 1334.39 Q112.705 1343.12 109.626 1347.73 Q106.571 1352.31 100.76 1352.31 Q94.9502 1352.31 91.8715 1347.73 Q88.816 1343.12 88.816 1334.39 Q88.816 1325.64 91.8715 1321.06 Q94.9502 1316.45 100.76 1316.45 Z" fill="#000000" fill-rule="evenodd" fill-opacity="1" /><path clip-path="url(#clip680)" d="M120.922 1345.76 L125.807 1345.76 L125.807 1351.64 L120.922 1351.64 L120.922 1345.76 Z" fill="#000000" fill-rule="evenodd" fill-opacity="1" /><path clip-path="url(#clip680)" d="M150.158 1333.01 Q153.515 1333.72 155.39 1335.99 Q157.288 1338.26 157.288 1341.59 Q157.288 1346.71 153.769 1349.51 Q150.251 1352.31 143.769 1352.31 Q141.593 1352.31 139.279 1351.87 Q136.987 1351.45 134.533 1350.6 L134.533 1346.08 Q136.478 1347.22 138.793 1347.8 Q141.107 1348.38 143.631 1348.38 Q148.029 1348.38 150.32 1346.64 Q152.635 1344.9 152.635 1341.59 Q152.635 1338.54 150.482 1336.82 Q148.353 1335.09 144.533 1335.09 L140.506 1335.09 L140.506 1331.25 L144.718 1331.25 Q148.168 1331.25 149.996 1329.88 Q151.825 1328.49 151.825 1325.9 Q151.825 1323.24 149.927 1321.82 Q148.052 1320.39 144.533 1320.39 Q142.612 1320.39 140.413 1320.81 Q138.214 1321.22 135.575 1322.1 L135.575 1317.94 Q138.237 1317.19 140.552 1316.82 Q142.89 1316.45 144.95 1316.45 Q150.274 1316.45 153.376 1318.88 Q156.478 1321.29 156.478 1325.41 Q156.478 1328.28 154.834 1330.27 Q153.191 1332.24 150.158 1333.01 Z" fill="#000000" fill-rule="evenodd" fill-opacity="1" /><path clip-path="url(#clip680)" d="M100.112 1032.53 Q96.5011 1032.53 94.6724 1036.1 Q92.8669 1039.64 92.8669 1046.77 Q92.8669 1053.87 94.6724 1057.44 Q96.5011 1060.98 100.112 1060.98 Q103.746 1060.98 105.552 1057.44 Q107.381 1053.87 107.381 1046.77 Q107.381 1039.64 105.552 1036.1 Q103.746 1032.53 100.112 1032.53 M100.112 1028.83 Q105.922 1028.83 108.978 1033.43 Q112.057 1038.02 112.057 1046.77 Q112.057 1055.49 108.978 1060.1 Q105.922 1064.68 100.112 1064.68 Q94.3021 1064.68 91.2234 1060.1 Q88.1679 1055.49 88.1679 1046.77 Q88.1679 1038.02 91.2234 1033.43 Q94.3021 1028.83 100.112 1028.83 Z" fill="#000000" fill-rule="evenodd" fill-opacity="1" /><path clip-path="url(#clip680)" d="M120.274 1058.13 L125.158 1058.13 L125.158 1064.01 L120.274 1064.01 L120.274 1058.13 Z" fill="#000000" fill-rule="evenodd" fill-opacity="1" /><path clip-path="url(#clip680)" d="M145.343 1032.53 Q141.732 1032.53 139.904 1036.1 Q138.098 1039.64 138.098 1046.77 Q138.098 1053.87 139.904 1057.44 Q141.732 1060.98 145.343 1060.98 Q148.978 1060.98 150.783 1057.44 Q152.612 1053.87 152.612 1046.77 Q152.612 1039.64 150.783 1036.1 Q148.978 1032.53 145.343 1032.53 M145.343 1028.83 Q151.154 1028.83 154.209 1033.43 Q157.288 1038.02 157.288 1046.77 Q157.288 1055.49 154.209 1060.1 Q151.154 1064.68 145.343 1064.68 Q139.533 1064.68 136.455 1060.1 Q133.399 1055.49 133.399 1046.77 Q133.399 1038.02 136.455 1033.43 Q139.533 1028.83 145.343 1028.83 Z" fill="#000000" fill-rule="evenodd" fill-opacity="1" /><path clip-path="url(#clip680)" d="M100.76 744.904 Q97.1493 744.904 95.3206 748.469 Q93.515 752.011 93.515 759.14 Q93.515 766.247 95.3206 769.811 Q97.1493 773.353 100.76 773.353 Q104.395 773.353 106.2 769.811 Q108.029 766.247 108.029 759.14 Q108.029 752.011 106.2 748.469 Q104.395 744.904 100.76 744.904 M100.76 741.201 Q106.571 741.201 109.626 745.807 Q112.705 750.39 112.705 759.14 Q112.705 767.867 109.626 772.474 Q106.571 777.057 100.76 777.057 Q94.9502 777.057 91.8715 772.474 Q88.816 767.867 88.816 759.14 Q88.816 750.39 91.8715 745.807 Q94.9502 741.201 100.76 741.201 Z" fill="#000000" fill-rule="evenodd" fill-opacity="1" /><path clip-path="url(#clip680)" d="M120.922 770.506 L125.807 770.506 L125.807 776.386 L120.922 776.386 L120.922 770.506 Z" fill="#000000" fill-rule="evenodd" fill-opacity="1" /><path clip-path="url(#clip680)" d="M150.158 757.751 Q153.515 758.469 155.39 760.737 Q157.288 763.006 157.288 766.339 Q157.288 771.455 153.769 774.256 Q150.251 777.057 143.769 777.057 Q141.593 777.057 139.279 776.617 Q136.987 776.2 134.533 775.344 L134.533 770.83 Q136.478 771.964 138.793 772.543 Q141.107 773.122 143.631 773.122 Q148.029 773.122 150.32 771.386 Q152.635 769.649 152.635 766.339 Q152.635 763.284 150.482 761.571 Q148.353 759.835 144.533 759.835 L140.506 759.835 L140.506 755.992 L144.718 755.992 Q148.168 755.992 149.996 754.626 Q151.825 753.237 151.825 750.645 Q151.825 747.983 149.927 746.571 Q148.052 745.136 144.533 745.136 Q142.612 745.136 140.413 745.552 Q138.214 745.969 135.575 746.849 L135.575 742.682 Q138.237 741.941 140.552 741.571 Q142.89 741.201 144.95 741.201 Q150.274 741.201 153.376 743.631 Q156.478 746.038 156.478 750.159 Q156.478 753.029 154.834 755.02 Q153.191 756.987 150.158 757.751 Z" fill="#000000" fill-rule="evenodd" fill-opacity="1" /><path clip-path="url(#clip680)" d="M99.9502 457.277 Q96.3391 457.277 94.5104 460.842 Q92.7049 464.384 92.7049 471.513 Q92.7049 478.62 94.5104 482.185 Q96.3391 485.726 99.9502 485.726 Q103.584 485.726 105.39 482.185 Q107.219 478.62 107.219 471.513 Q107.219 464.384 105.39 460.842 Q103.584 457.277 99.9502 457.277 M99.9502 453.574 Q105.76 453.574 108.816 458.18 Q111.895 462.763 111.895 471.513 Q111.895 480.24 108.816 484.847 Q105.76 489.43 99.9502 489.43 Q94.14 489.43 91.0614 484.847 Q88.0058 480.24 88.0058 471.513 Q88.0058 462.763 91.0614 458.18 Q94.14 453.574 99.9502 453.574 Z" fill="#000000" fill-rule="evenodd" fill-opacity="1" /><path clip-path="url(#clip680)" d="M120.112 482.879 L124.996 482.879 L124.996 488.759 L120.112 488.759 L120.112 482.879 Z" fill="#000000" fill-rule="evenodd" fill-opacity="1" /><path clip-path="url(#clip680)" d="M145.76 469.615 Q142.612 469.615 140.76 471.768 Q138.931 473.921 138.931 477.671 Q138.931 481.398 140.76 483.574 Q142.612 485.726 145.76 485.726 Q148.908 485.726 150.737 483.574 Q152.589 481.398 152.589 477.671 Q152.589 473.921 150.737 471.768 Q148.908 469.615 145.76 469.615 M155.042 454.963 L155.042 459.222 Q153.283 458.388 151.478 457.949 Q149.695 457.509 147.936 457.509 Q143.306 457.509 140.853 460.634 Q138.422 463.759 138.075 470.078 Q139.441 468.064 141.501 467 Q143.561 465.912 146.038 465.912 Q151.246 465.912 154.255 469.083 Q157.288 472.231 157.288 477.671 Q157.288 482.995 154.14 486.212 Q150.992 489.43 145.76 489.43 Q139.765 489.43 136.594 484.847 Q133.422 480.24 133.422 471.513 Q133.422 463.319 137.311 458.458 Q141.2 453.574 147.751 453.574 Q149.51 453.574 151.293 453.921 Q153.098 454.268 155.042 454.963 Z" fill="#000000" fill-rule="evenodd" fill-opacity="1" /><path clip-path="url(#clip680)" d="M100.297 169.651 Q96.6863 169.651 94.8576 173.215 Q93.0521 176.757 93.0521 183.887 Q93.0521 190.993 94.8576 194.558 Q96.6863 198.099 100.297 198.099 Q103.932 198.099 105.737 194.558 Q107.566 190.993 107.566 183.887 Q107.566 176.757 105.737 173.215 Q103.932 169.651 100.297 169.651 M100.297 165.947 Q106.108 165.947 109.163 170.553 Q112.242 175.137 112.242 183.887 Q112.242 192.613 109.163 197.22 Q106.108 201.803 100.297 201.803 Q94.4873 201.803 91.4086 197.22 Q88.353 192.613 88.353 183.887 Q88.353 175.137 91.4086 170.553 Q94.4873 165.947 100.297 165.947 Z" fill="#000000" fill-rule="evenodd" fill-opacity="1" /><path clip-path="url(#clip680)" d="M120.459 195.252 L125.344 195.252 L125.344 201.132 L120.459 201.132 L120.459 195.252 Z" fill="#000000" fill-rule="evenodd" fill-opacity="1" /><path clip-path="url(#clip680)" d="M135.668 200.414 L135.668 196.155 Q137.427 196.988 139.232 197.428 Q141.038 197.868 142.774 197.868 Q147.404 197.868 149.834 194.766 Q152.288 191.641 152.635 185.299 Q151.293 187.289 149.232 188.354 Q147.172 189.419 144.672 189.419 Q139.487 189.419 136.455 186.294 Q133.445 183.146 133.445 177.706 Q133.445 172.382 136.594 169.164 Q139.742 165.947 144.973 165.947 Q150.968 165.947 154.117 170.553 Q157.288 175.137 157.288 183.887 Q157.288 192.058 153.399 196.942 Q149.533 201.803 142.982 201.803 Q141.223 201.803 139.418 201.456 Q137.612 201.109 135.668 200.414 M144.973 185.762 Q148.121 185.762 149.95 183.609 Q151.802 181.456 151.802 177.706 Q151.802 173.979 149.95 171.826 Q148.121 169.651 144.973 169.651 Q141.825 169.651 139.973 171.826 Q138.144 173.979 138.144 177.706 Q138.144 181.456 139.973 183.609 Q141.825 185.762 144.973 185.762 Z" fill="#000000" fill-rule="evenodd" fill-opacity="1" /><polyline clip-path="url(#clip682)" style="stroke:#009af9; stroke-linecap:butt; stroke-linejoin:round; stroke-width:4; stroke-opacity:1; fill:none" points="
  254.405,239.967 270.703,192.354 287.001,153.597 303.298,124.073 319.596,103.704 335.894,91.9756 352.192,87.9944 368.49,90.5593 384.788,98.2547 401.086,109.548 
  417.384,122.884 433.681,136.771 449.979,149.856 466.277,160.98 482.575,169.225 498.873,173.941 515.171,174.768 531.469,171.643 547.767,164.803 564.064,154.779 
  580.362,142.382 596.66,128.674 612.958,114.934 629.256,102.605 645.554,93.2231 661.852,88.3434 678.15,89.4416 694.447,97.8193 710.745,114.509 727.043,140.19 
  743.341,175.127 759.639,219.131 775.937,271.563 792.235,331.36 808.533,397.104 824.83,467.104 841.128,539.503 857.426,612.385 873.724,683.873 890.022,752.217 
  906.32,815.857 922.618,873.462 938.916,923.943 955.213,966.45 971.511,1000.35 987.809,1025.19 1004.11,1040.68 1020.4,1046.66 1036.7,1043.06 1053,1029.91 
  1069.3,1007.36 1085.6,975.672 1101.89,935.247 1118.19,886.671 1134.49,830.739 1150.79,768.479 1167.09,701.164 1183.38,630.298 1199.68,557.591 1215.98,484.894 
  1232.28,414.122 1248.58,347.158 1264.87,285.742 1281.17,231.371 1297.47,185.202 1313.77,147.984 1330.06,120.017 1346.36,101.147 1362.66,90.7937 1378.96,88.0042 
  1395.26,91.5352 1411.55,99.9446 1427.85,111.689 1444.15,125.219 1460.45,139.062 1476.75,151.892 1493.04,162.589 1509.34,170.278 1525.64,174.358 1541.94,174.516 
  1558.23,170.741 1574.53,163.321 1590.83,152.835 1607.13,140.137 1623.43,126.329 1639.72,112.721 1656.02,100.778 1672.32,92.0461 1688.62,88.0718 1704.92,90.3092 
  1721.21,100.021 1737.51,118.186 1753.81,145.417 1770.11,181.903 1786.4,227.382 1802.7,281.137 1819,342.042 1835.3,408.626 1851.6,479.162 1867.89,551.777 
  1884.19,624.552 1900.49,695.629 1916.79,763.286 1933.09,825.998 1949.38,882.474 1965.68,931.668 1981.98,972.766 1998.28,1005.17 2014.58,1028.46 2030.87,1042.36 
  2047.17,1046.72 2063.47,1041.51 2079.77,1026.77 2096.06,1002.66 2112.36,969.472 2128.66,927.63 2144.96,877.755 2161.26,820.681 2177.55,757.476 2193.85,689.452 
  2210.15,618.153 2226.45,545.315 2242.75,472.807 2259.04,402.546 2275.34,336.399 2291.64,276.071 
  "/>
<polyline clip-path="url(#clip682)" style="stroke:#e26f46; stroke-linecap:butt; stroke-linejoin:round; stroke-width:4; stroke-opacity:1; fill:none" points="
  254.405,1445.72 270.703,1441.36 287.001,1428.26 303.298,1406.39 319.596,1375.73 335.894,1336.27 352.192,1288.15 368.49,1231.61 384.788,1167.13 401.086,1095.43 
  417.384,1017.5 433.681,934.623 449.979,848.335 466.277,760.382 482.575,672.643 498.873,587.03 515.171,505.381 531.469,429.348 547.767,360.301 564.064,299.251 
  580.362,246.799 596.66,203.127 612.958,168.011 629.256,140.872 645.554,120.846 661.852,106.87 678.15,97.7775 694.447,92.3842 710.745,89.5761 727.043,88.3805 
  743.341,88.0242 759.639,87.9766 775.937,87.9776 792.235,88.0514 808.533,88.5046 824.83,89.9112 841.128,93.0813 857.426,99.016 873.724,108.846 890.022,123.759 
  906.32,144.911 922.618,173.338 938.916,209.861 955.213,255.004 971.511,308.926 987.809,371.375 1004.11,441.677 1020.4,518.759 1036.7,601.197 1053,687.299 
  1069.3,775.208 1085.6,863.01 1101.89,948.842 1118.19,1030.99 1134.49,1107.95 1150.79,1178.5 1167.09,1241.69 1183.38,1296.84 1199.68,1343.52 1215.98,1381.5 
  1232.28,1410.69 1248.58,1431.07 1264.87,1442.7 1281.17,1445.59 1297.47,1439.77 1313.77,1425.2 1330.06,1401.85 1346.36,1369.71 1362.66,1328.78 1378.96,1279.22 
  1395.26,1221.31 1411.55,1155.56 1427.85,1082.73 1444.15,1003.87 1460.45,920.307 1476.75,833.612 1493.04,745.562 1509.34,658.047 1525.64,572.976 1541.94,492.162 
  1558.23,417.217 1574.53,349.455 1590.83,289.82 1607.13,238.843 1623.43,196.636 1639.72,162.91 1656.02,137.034 1672.32,118.104 1688.62,105.032 1704.92,96.6436 
  1721.21,91.7598 1737.51,89.2861 1753.81,88.2796 1770.11,88.0052 1786.4,87.9763 1802.7,87.9801 1819,88.0886 1835.3,88.6551 1851.6,90.2957 1867.89,93.8563 
  1884.19,100.364 1900.49,110.966 1916.79,126.849 1933.09,149.157 1949.38,178.895 1965.68,216.84 1981.98,263.459 1998.28,318.843 2014.58,382.671 2030.87,454.199 
  2047.17,532.29 2063.47,615.468 2079.77,702.006 2096.06,790.031 2112.36,877.629 2128.66,962.956 2144.96,1044.33 2161.26,1120.29 2177.55,1189.66 2193.85,1251.54 
  2210.15,1305.29 2226.45,1350.52 2242.75,1387.02 2259.04,1414.73 2275.34,1433.64 2291.64,1443.8 
  "/>
<path clip-path="url(#clip680)" d="
M1988.4 250.738 L2280.77 250.738 L2280.77 95.2176 L1988.4 95.2176  Z
  " fill="#ffffff" fill-rule="evenodd" fill-opacity="1"/>
<polyline clip-path="url(#clip680)" style="stroke:#000000; stroke-linecap:butt; stroke-linejoin:round; stroke-width:4; stroke-opacity:1; fill:none" points="
  1988.4,250.738 2280.77,250.738 2280.77,95.2176 1988.4,95.2176 1988.4,250.738 
  "/>
<polyline clip-path="url(#clip680)" style="stroke:#009af9; stroke-linecap:butt; stroke-linejoin:round; stroke-width:4; stroke-opacity:1; fill:none" points="
  2012.4,147.058 2156.36,147.058 
  "/>
<path clip-path="url(#clip680)" d="M2194.2 166.745 Q2192.39 171.375 2190.68 172.787 Q2188.97 174.199 2186.1 174.199 L2182.69 174.199 L2182.69 170.634 L2185.19 170.634 Q2186.95 170.634 2187.92 169.8 Q2188.9 168.967 2190.08 165.865 L2190.84 163.921 L2180.36 138.412 L2184.87 138.412 L2192.97 158.689 L2201.07 138.412 L2205.59 138.412 L2194.2 166.745 Z" fill="#000000" fill-rule="evenodd" fill-opacity="1" /><path clip-path="url(#clip680)" d="M2212.88 160.402 L2220.52 160.402 L2220.52 134.037 L2212.21 135.703 L2212.21 131.444 L2220.47 129.778 L2225.15 129.778 L2225.15 160.402 L2232.79 160.402 L2232.79 164.338 L2212.88 164.338 L2212.88 160.402 Z" fill="#000000" fill-rule="evenodd" fill-opacity="1" /><polyline clip-path="url(#clip680)" style="stroke:#e26f46; stroke-linecap:butt; stroke-linejoin:round; stroke-width:4; stroke-opacity:1; fill:none" points="
  2012.4,198.898 2156.36,198.898 
  "/>
<path clip-path="url(#clip680)" d="M2194.2 218.585 Q2192.39 223.215 2190.68 224.627 Q2188.97 226.039 2186.1 226.039 L2182.69 226.039 L2182.69 222.474 L2185.19 222.474 Q2186.95 222.474 2187.92 221.64 Q2188.9 220.807 2190.08 217.705 L2190.84 215.761 L2180.36 190.252 L2184.87 190.252 L2192.97 210.529 L2201.07 190.252 L2205.59 190.252 L2194.2 218.585 Z" fill="#000000" fill-rule="evenodd" fill-opacity="1" /><path clip-path="url(#clip680)" d="M2216.1 212.242 L2232.42 212.242 L2232.42 216.178 L2210.47 216.178 L2210.47 212.242 Q2213.13 209.488 2217.72 204.858 Q2222.32 200.205 2223.5 198.863 Q2225.75 196.34 2226.63 194.604 Q2227.53 192.844 2227.53 191.155 Q2227.53 188.4 2225.59 186.664 Q2223.67 184.928 2220.56 184.928 Q2218.36 184.928 2215.91 185.692 Q2213.48 186.455 2210.7 188.006 L2210.7 183.284 Q2213.53 182.15 2215.98 181.571 Q2218.43 180.993 2220.47 180.993 Q2225.84 180.993 2229.04 183.678 Q2232.23 186.363 2232.23 190.854 Q2232.23 192.983 2231.42 194.905 Q2230.63 196.803 2228.53 199.395 Q2227.95 200.067 2224.85 203.284 Q2221.74 206.479 2216.1 212.242 Z" fill="#000000" fill-rule="evenodd" fill-opacity="1" /></svg>
