<?xml version="1.0" encoding="utf-8"?>
<svg xmlns="http://www.w3.org/2000/svg" xmlns:xlink="http://www.w3.org/1999/xlink" width="600" height="400" viewBox="0 0 2400 1600">
<defs>
  <clipPath id="clip840">
    <rect x="0" y="0" width="2400" height="1600"/>
  </clipPath>
</defs>
<path clip-path="url(#clip840)" d="
M0 1600 L2400 1600 L2400 0 L0 0  Z
  " fill="#ffffff" fill-rule="evenodd" fill-opacity="1"/>
<defs>
  <clipPath id="clip841">
    <rect x="480" y="0" width="1681" height="1600"/>
  </clipPath>
</defs>
<path clip-path="url(#clip840)" d="
M219.38 1423.18 L2352.76 1423.18 L2352.76 123.472 L219.38 123.472  Z
  " fill="#ffffff" fill-rule="evenodd" fill-opacity="1"/>
<defs>
  <clipPath id="clip842">
    <rect x="219" y="123" width="2134" height="1301"/>
  </clipPath>
</defs>
<polyline clip-path="url(#clip842)" style="stroke:#000000; stroke-linecap:butt; stroke-linejoin:round; stroke-width:2; stroke-opacity:0.1; fill:none" points="
  219.38,1423.18 219.38,123.472 
  "/>
<polyline clip-path="url(#clip842)" style="stroke:#000000; stroke-linecap:butt; stroke-linejoin:round; stroke-width:2; stroke-opacity:0.1; fill:none" points="
  930.505,1423.18 930.505,123.472 
  "/>
<polyline clip-path="url(#clip842)" style="stroke:#000000; stroke-linecap:butt; stroke-linejoin:round; stroke-width:2; stroke-opacity:0.1; fill:none" points="
  1641.63,1423.18 1641.63,123.472 
  "/>
<polyline clip-path="url(#clip842)" style="stroke:#000000; stroke-linecap:butt; stroke-linejoin:round; stroke-width:2; stroke-opacity:0.1; fill:none" points="
  2352.76,1423.18 2352.76,123.472 
  "/>
<polyline clip-path="url(#clip840)" style="stroke:#000000; stroke-linecap:butt; stroke-linejoin:round; stroke-width:4; stroke-opacity:1; fill:none" points="
  219.38,1423.18 2352.76,1423.18 
  "/>
<polyline clip-path="url(#clip840)" style="stroke:#000000; stroke-linecap:butt; stroke-linejoin:round; stroke-width:4; stroke-opacity:1; fill:none" points="
  219.38,1423.18 219.38,1404.28 
  "/>
<polyline clip-path="url(#clip840)" style="stroke:#000000; stroke-linecap:butt; stroke-linejoin:round; stroke-width:4; stroke-opacity:1; fill:none" points="
  930.505,1423.18 930.505,1404.28 
  "/>
<polyline clip-path="url(#clip840)" style="stroke:#000000; stroke-linecap:butt; stroke-linejoin:round; stroke-width:4; stroke-opacity:1; fill:none" points="
  1641.63,1423.18 1641.63,1404.28 
  "/>
<polyline clip-path="url(#clip840)" style="stroke:#000000; stroke-linecap:butt; stroke-linejoin:round; stroke-width:4; stroke-opacity:1; fill:none" points="
  2352.76,1423.18 2352.76,1404.28 
  "/>
<path clip-path="url(#clip840)" d="M196.765 1454.1 Q193.153 1454.1 191.325 1457.66 Q189.519 1461.2 189.519 1468.33 Q189.519 1475.44 191.325 1479.01 Q193.153 1482.55 196.765 1482.55 Q200.399 1482.55 202.204 1479.01 Q204.033 1475.44 204.033 1468.33 Q204.033 1461.2 202.204 1457.66 Q200.399 1454.1 196.765 1454.1 M196.765 1450.39 Q202.575 1450.39 205.63 1455 Q208.709 1459.58 208.709 1468.33 Q208.709 1477.06 205.63 1481.67 Q202.575 1486.25 196.765 1486.25 Q190.954 1486.25 187.876 1481.67 Q184.82 1477.06 184.82 1468.33 Q184.82 1459.58 187.876 1455 Q190.954 1450.39 196.765 1450.39 Z" fill="#000000" fill-rule="evenodd" fill-opacity="1" /><path clip-path="url(#clip840)" d="M216.926 1479.7 L221.811 1479.7 L221.811 1485.58 L216.926 1485.58 L216.926 1479.7 Z" fill="#000000" fill-rule="evenodd" fill-opacity="1" /><path clip-path="url(#clip840)" d="M241.996 1454.1 Q238.385 1454.1 236.556 1457.66 Q234.75 1461.2 234.75 1468.33 Q234.75 1475.44 236.556 1479.01 Q238.385 1482.55 241.996 1482.55 Q245.63 1482.55 247.436 1479.01 Q249.264 1475.44 249.264 1468.33 Q249.264 1461.2 247.436 1457.66 Q245.63 1454.1 241.996 1454.1 M241.996 1450.39 Q247.806 1450.39 250.861 1455 Q253.94 1459.58 253.94 1468.33 Q253.94 1477.06 250.861 1481.67 Q247.806 1486.25 241.996 1486.25 Q236.186 1486.25 233.107 1481.67 Q230.051 1477.06 230.051 1468.33 Q230.051 1459.58 233.107 1455 Q236.186 1450.39 241.996 1450.39 Z" fill="#000000" fill-rule="evenodd" fill-opacity="1" /><path clip-path="url(#clip840)" d="M908.387 1454.1 Q904.776 1454.1 902.948 1457.66 Q901.142 1461.2 901.142 1468.33 Q901.142 1475.44 902.948 1479.01 Q904.776 1482.55 908.387 1482.55 Q912.022 1482.55 913.827 1479.01 Q915.656 1475.44 915.656 1468.33 Q915.656 1461.2 913.827 1457.66 Q912.022 1454.1 908.387 1454.1 M908.387 1450.39 Q914.198 1450.39 917.253 1455 Q920.332 1459.58 920.332 1468.33 Q920.332 1477.06 917.253 1481.67 Q914.198 1486.25 908.387 1486.25 Q902.577 1486.25 899.499 1481.67 Q896.443 1477.06 896.443 1468.33 Q896.443 1459.58 899.499 1455 Q902.577 1450.39 908.387 1450.39 Z" fill="#000000" fill-rule="evenodd" fill-opacity="1" /><path clip-path="url(#clip840)" d="M928.549 1479.7 L933.434 1479.7 L933.434 1485.58 L928.549 1485.58 L928.549 1479.7 Z" fill="#000000" fill-rule="evenodd" fill-opacity="1" /><path clip-path="url(#clip840)" d="M943.665 1451.02 L962.021 1451.02 L962.021 1454.96 L947.947 1454.96 L947.947 1463.43 Q948.966 1463.08 949.984 1462.92 Q951.003 1462.73 952.021 1462.73 Q957.809 1462.73 961.188 1465.9 Q964.568 1469.08 964.568 1474.49 Q964.568 1480.07 961.096 1483.17 Q957.623 1486.25 951.304 1486.25 Q949.128 1486.25 946.859 1485.88 Q944.614 1485.51 942.207 1484.77 L942.207 1480.07 Q944.29 1481.2 946.512 1481.76 Q948.734 1482.32 951.211 1482.32 Q955.216 1482.32 957.554 1480.21 Q959.892 1478.1 959.892 1474.49 Q959.892 1470.88 957.554 1468.77 Q955.216 1466.67 951.211 1466.67 Q949.336 1466.67 947.461 1467.08 Q945.609 1467.5 943.665 1468.38 L943.665 1451.02 Z" fill="#000000" fill-rule="evenodd" fill-opacity="1" /><path clip-path="url(#clip840)" d="M1608.78 1481.64 L1616.42 1481.64 L1616.42 1455.28 L1608.11 1456.95 L1608.11 1452.69 L1616.38 1451.02 L1621.05 1451.02 L1621.05 1481.64 L1628.69 1481.64 L1628.69 1485.58 L1608.78 1485.58 L1608.78 1481.64 Z" fill="#000000" fill-rule="evenodd" fill-opacity="1" /><path clip-path="url(#clip840)" d="M1638.14 1479.7 L1643.02 1479.7 L1643.02 1485.58 L1638.14 1485.58 L1638.14 1479.7 Z" fill="#000000" fill-rule="evenodd" fill-opacity="1" /><path clip-path="url(#clip840)" d="M1663.2 1454.1 Q1659.59 1454.1 1657.76 1457.66 Q1655.96 1461.2 1655.96 1468.33 Q1655.96 1475.44 1657.76 1479.01 Q1659.59 1482.55 1663.2 1482.55 Q1666.84 1482.55 1668.64 1479.01 Q1670.47 1475.44 1670.47 1468.33 Q1670.47 1461.2 1668.64 1457.66 Q1666.84 1454.1 1663.2 1454.1 M1663.2 1450.39 Q1669.01 1450.39 1672.07 1455 Q1675.15 1459.58 1675.15 1468.33 Q1675.15 1477.06 1672.07 1481.67 Q1669.01 1486.25 1663.2 1486.25 Q1657.39 1486.25 1654.32 1481.67 Q1651.26 1477.06 1651.26 1468.33 Q1651.26 1459.58 1654.32 1455 Q1657.39 1450.39 1663.2 1450.39 Z" fill="#000000" fill-rule="evenodd" fill-opacity="1" /><path clip-path="url(#clip840)" d="M2320.41 1481.64 L2328.05 1481.64 L2328.05 1455.28 L2319.74 1456.95 L2319.74 1452.69 L2328 1451.02 L2332.67 1451.02 L2332.67 1481.64 L2340.31 1481.64 L2340.31 1485.58 L2320.41 1485.58 L2320.41 1481.64 Z" fill="#000000" fill-rule="evenodd" fill-opacity="1" /><path clip-path="url(#clip840)" d="M2349.76 1479.7 L2354.64 1479.7 L2354.64 1485.58 L2349.76 1485.58 L2349.76 1479.7 Z" fill="#000000" fill-rule="evenodd" fill-opacity="1" /><path clip-path="url(#clip840)" d="M2364.87 1451.02 L2383.23 1451.02 L2383.23 1454.96 L2369.16 1454.96 L2369.16 1463.43 Q2370.17 1463.08 2371.19 1462.92 Q2372.21 1462.73 2373.23 1462.73 Q2379.02 1462.73 2382.4 1465.9 Q2385.78 1469.08 2385.78 1474.49 Q2385.78 1480.07 2382.3 1483.17 Q2378.83 1486.25 2372.51 1486.25 Q2370.34 1486.25 2368.07 1485.88 Q2365.82 1485.51 2363.42 1484.77 L2363.42 1480.07 Q2365.5 1481.2 2367.72 1481.76 Q2369.94 1482.32 2372.42 1482.32 Q2376.42 1482.32 2378.76 1480.21 Q2381.1 1478.1 2381.1 1474.49 Q2381.1 1470.88 2378.76 1468.77 Q2376.42 1466.67 2372.42 1466.67 Q2370.55 1466.67 2368.67 1467.08 Q2366.82 1467.5 2364.87 1468.38 L2364.87 1451.02 Z" fill="#000000" fill-rule="evenodd" fill-opacity="1" /><path clip-path="url(#clip840)" d="M1207.94 1520.52 L1248.14 1520.52 L1248.14 1525.93 L1231.28 1525.93 L1231.28 1568.04 L1224.81 1568.04 L1224.81 1525.93 L1207.94 1525.93 L1207.94 1520.52 Z" fill="#000000" fill-rule="evenodd" fill-opacity="1" /><path clip-path="url(#clip840)" d="M1252.09 1532.4 L1257.95 1532.4 L1257.95 1568.04 L1252.09 1568.04 L1252.09 1532.4 M1252.09 1518.52 L1257.95 1518.52 L1257.95 1525.93 L1252.09 1525.93 L1252.09 1518.52 Z" fill="#000000" fill-rule="evenodd" fill-opacity="1" /><path clip-path="url(#clip840)" d="M1297.96 1539.24 Q1300.15 1535.29 1303.21 1533.41 Q1306.26 1531.54 1310.4 1531.54 Q1315.97 1531.54 1318.99 1535.45 Q1322.02 1539.33 1322.02 1546.53 L1322.02 1568.04 L1316.13 1568.04 L1316.13 1546.72 Q1316.13 1541.59 1314.32 1539.11 Q1312.5 1536.63 1308.78 1536.63 Q1304.23 1536.63 1301.58 1539.65 Q1298.94 1542.68 1298.94 1547.9 L1298.94 1568.04 L1293.05 1568.04 L1293.05 1546.72 Q1293.05 1541.56 1291.24 1539.11 Q1289.43 1536.63 1285.64 1536.63 Q1281.15 1536.63 1278.51 1539.68 Q1275.87 1542.71 1275.87 1547.9 L1275.87 1568.04 L1269.98 1568.04 L1269.98 1532.4 L1275.87 1532.4 L1275.87 1537.93 Q1277.87 1534.66 1280.67 1533.1 Q1283.47 1531.54 1287.33 1531.54 Q1291.21 1531.54 1293.91 1533.51 Q1296.65 1535.48 1297.96 1539.24 Z" fill="#000000" fill-rule="evenodd" fill-opacity="1" /><path clip-path="url(#clip840)" d="M1364.19 1548.76 L1364.19 1551.62 L1337.26 1551.62 Q1337.65 1557.67 1340.89 1560.85 Q1344.17 1564 1350 1564 Q1353.37 1564 1356.52 1563.17 Q1359.7 1562.35 1362.82 1560.69 L1362.82 1566.23 Q1359.67 1567.57 1356.36 1568.27 Q1353.05 1568.97 1349.65 1568.97 Q1341.12 1568.97 1336.12 1564 Q1331.15 1559.04 1331.15 1550.57 Q1331.15 1541.82 1335.86 1536.69 Q1340.61 1531.54 1348.63 1531.54 Q1355.82 1531.54 1359.99 1536.18 Q1364.19 1540.8 1364.19 1548.76 M1358.33 1547.04 Q1358.27 1542.23 1355.63 1539.37 Q1353.02 1536.5 1348.69 1536.5 Q1343.79 1536.5 1340.83 1539.27 Q1337.9 1542.04 1337.46 1547.07 L1358.33 1547.04 Z" fill="#000000" fill-rule="evenodd" fill-opacity="1" /><polyline clip-path="url(#clip842)" style="stroke:#000000; stroke-linecap:butt; stroke-linejoin:round; stroke-width:2; stroke-opacity:0.1; fill:none" points="
  219.38,1386.4 2352.76,1386.4 
  "/>
<polyline clip-path="url(#clip842)" style="stroke:#000000; stroke-linecap:butt; stroke-linejoin:round; stroke-width:2; stroke-opacity:0.1; fill:none" points="
  219.38,1033.74 2352.76,1033.74 
  "/>
<polyline clip-path="url(#clip842)" style="stroke:#000000; stroke-linecap:butt; stroke-linejoin:round; stroke-width:2; stroke-opacity:0.1; fill:none" points="
  219.38,681.078 2352.76,681.078 
  "/>
<polyline clip-path="url(#clip842)" style="stroke:#000000; stroke-linecap:butt; stroke-linejoin:round; stroke-width:2; stroke-opacity:0.1; fill:none" points="
  219.38,328.418 2352.76,328.418 
  "/>
<polyline clip-path="url(#clip840)" style="stroke:#000000; stroke-linecap:butt; stroke-linejoin:round; stroke-width:4; stroke-opacity:1; fill:none" points="
  219.38,1423.18 219.38,123.472 
  "/>
<polyline clip-path="url(#clip840)" style="stroke:#000000; stroke-linecap:butt; stroke-linejoin:round; stroke-width:4; stroke-opacity:1; fill:none" points="
  219.38,1386.4 238.278,1386.4 
  "/>
<polyline clip-path="url(#clip840)" style="stroke:#000000; stroke-linecap:butt; stroke-linejoin:round; stroke-width:4; stroke-opacity:1; fill:none" points="
  219.38,1033.74 238.278,1033.74 
  "/>
<polyline clip-path="url(#clip840)" style="stroke:#000000; stroke-linecap:butt; stroke-linejoin:round; stroke-width:4; stroke-opacity:1; fill:none" points="
  219.38,681.078 238.278,681.078 
  "/>
<polyline clip-path="url(#clip840)" style="stroke:#000000; stroke-linecap:butt; stroke-linejoin:round; stroke-width:4; stroke-opacity:1; fill:none" points="
  219.38,328.418 238.278,328.418 
  "/>
<path clip-path="url(#clip840)" d="M126.205 1372.19 Q122.593 1372.19 120.765 1375.76 Q118.959 1379.3 118.959 1386.43 Q118.959 1393.54 120.765 1397.1 Q122.593 1400.64 126.205 1400.64 Q129.839 1400.64 131.644 1397.1 Q133.473 1393.54 133.473 1386.43 Q133.473 1379.3 131.644 1375.76 Q129.839 1372.19 126.205 1372.19 M126.205 1368.49 Q132.015 1368.49 135.07 1373.1 Q138.149 1377.68 138.149 1386.43 Q138.149 1395.16 135.07 1399.76 Q132.015 1404.35 126.205 1404.35 Q120.394 1404.35 117.316 1399.76 Q114.26 1395.16 114.26 1386.43 Q114.26 1377.68 117.316 1373.1 Q120.394 1368.49 126.205 1368.49 Z" fill="#000000" fill-rule="evenodd" fill-opacity="1" /><path clip-path="url(#clip840)" d="M146.366 1397.8 L151.251 1397.8 L151.251 1403.68 L146.366 1403.68 L146.366 1397.8 Z" fill="#000000" fill-rule="evenodd" fill-opacity="1" /><path clip-path="url(#clip840)" d="M171.436 1372.19 Q167.825 1372.19 165.996 1375.76 Q164.19 1379.3 164.19 1386.43 Q164.19 1393.54 165.996 1397.1 Q167.825 1400.64 171.436 1400.64 Q175.07 1400.64 176.876 1397.1 Q178.704 1393.54 178.704 1386.43 Q178.704 1379.3 176.876 1375.76 Q175.07 1372.19 171.436 1372.19 M171.436 1368.49 Q177.246 1368.49 180.301 1373.1 Q183.38 1377.68 183.38 1386.43 Q183.38 1395.16 180.301 1399.76 Q177.246 1404.35 171.436 1404.35 Q165.626 1404.35 162.547 1399.76 Q159.491 1395.16 159.491 1386.43 Q159.491 1377.68 162.547 1373.1 Q165.626 1368.49 171.436 1368.49 Z" fill="#000000" fill-rule="evenodd" fill-opacity="1" /><path clip-path="url(#clip840)" d="M127.2 1019.54 Q123.589 1019.54 121.76 1023.1 Q119.955 1026.64 119.955 1033.77 Q119.955 1040.88 121.76 1044.44 Q123.589 1047.98 127.2 1047.98 Q130.834 1047.98 132.64 1044.44 Q134.468 1040.88 134.468 1033.77 Q134.468 1026.64 132.64 1023.1 Q130.834 1019.54 127.2 1019.54 M127.2 1015.83 Q133.01 1015.83 136.066 1020.44 Q139.144 1025.02 139.144 1033.77 Q139.144 1042.5 136.066 1047.1 Q133.01 1051.69 127.2 1051.69 Q121.39 1051.69 118.311 1047.1 Q115.256 1042.5 115.256 1033.77 Q115.256 1025.02 118.311 1020.44 Q121.39 1015.83 127.2 1015.83 Z" fill="#000000" fill-rule="evenodd" fill-opacity="1" /><path clip-path="url(#clip840)" d="M147.362 1045.14 L152.246 1045.14 L152.246 1051.02 L147.362 1051.02 L147.362 1045.14 Z" fill="#000000" fill-rule="evenodd" fill-opacity="1" /><path clip-path="url(#clip840)" d="M162.477 1016.46 L180.834 1016.46 L180.834 1020.39 L166.76 1020.39 L166.76 1028.86 Q167.778 1028.52 168.797 1028.35 Q169.815 1028.17 170.834 1028.17 Q176.621 1028.17 180.001 1031.34 Q183.38 1034.51 183.38 1039.93 Q183.38 1045.51 179.908 1048.61 Q176.436 1051.69 170.116 1051.69 Q167.94 1051.69 165.672 1051.32 Q163.427 1050.95 161.019 1050.21 L161.019 1045.51 Q163.102 1046.64 165.325 1047.2 Q167.547 1047.75 170.024 1047.75 Q174.028 1047.75 176.366 1045.65 Q178.704 1043.54 178.704 1039.93 Q178.704 1036.32 176.366 1034.21 Q174.028 1032.1 170.024 1032.1 Q168.149 1032.1 166.274 1032.52 Q164.422 1032.94 162.477 1033.82 L162.477 1016.46 Z" fill="#000000" fill-rule="evenodd" fill-opacity="1" /><path clip-path="url(#clip840)" d="M117.015 694.422 L124.654 694.422 L124.654 668.057 L116.343 669.723 L116.343 665.464 L124.607 663.798 L129.283 663.798 L129.283 694.422 L136.922 694.422 L136.922 698.358 L117.015 698.358 L117.015 694.422 Z" fill="#000000" fill-rule="evenodd" fill-opacity="1" /><path clip-path="url(#clip840)" d="M146.366 692.478 L151.251 692.478 L151.251 698.358 L146.366 698.358 L146.366 692.478 Z" fill="#000000" fill-rule="evenodd" fill-opacity="1" /><path clip-path="url(#clip840)" d="M171.436 666.876 Q167.825 666.876 165.996 670.441 Q164.19 673.983 164.19 681.112 Q164.19 688.219 165.996 691.783 Q167.825 695.325 171.436 695.325 Q175.07 695.325 176.876 691.783 Q178.704 688.219 178.704 681.112 Q178.704 673.983 176.876 670.441 Q175.07 666.876 171.436 666.876 M171.436 663.173 Q177.246 663.173 180.301 667.779 Q183.38 672.362 183.38 681.112 Q183.38 689.839 180.301 694.446 Q177.246 699.029 171.436 699.029 Q165.626 699.029 162.547 694.446 Q159.491 689.839 159.491 681.112 Q159.491 672.362 162.547 667.779 Q165.626 663.173 171.436 663.173 Z" fill="#000000" fill-rule="evenodd" fill-opacity="1" /><path clip-path="url(#clip840)" d="M118.01 341.763 L125.649 341.763 L125.649 315.398 L117.339 317.064 L117.339 312.805 L125.603 311.138 L130.279 311.138 L130.279 341.763 L137.917 341.763 L137.917 345.698 L118.01 345.698 L118.01 341.763 Z" fill="#000000" fill-rule="evenodd" fill-opacity="1" /><path clip-path="url(#clip840)" d="M147.362 339.819 L152.246 339.819 L152.246 345.698 L147.362 345.698 L147.362 339.819 Z" fill="#000000" fill-rule="evenodd" fill-opacity="1" /><path clip-path="url(#clip840)" d="M162.477 311.138 L180.834 311.138 L180.834 315.074 L166.76 315.074 L166.76 323.546 Q167.778 323.199 168.797 323.037 Q169.815 322.851 170.834 322.851 Q176.621 322.851 180.001 326.023 Q183.38 329.194 183.38 334.611 Q183.38 340.189 179.908 343.291 Q176.436 346.37 170.116 346.37 Q167.94 346.37 165.672 345.999 Q163.427 345.629 161.019 344.888 L161.019 340.189 Q163.102 341.323 165.325 341.879 Q167.547 342.435 170.024 342.435 Q174.028 342.435 176.366 340.328 Q178.704 338.222 178.704 334.611 Q178.704 330.999 176.366 328.893 Q174.028 326.787 170.024 326.787 Q168.149 326.787 166.274 327.203 Q164.422 327.62 162.477 328.499 L162.477 311.138 Z" fill="#000000" fill-rule="evenodd" fill-opacity="1" /><path clip-path="url(#clip840)" d="M20.1444 960.971 L26.9239 960.971 Q23.9002 964.218 22.4043 967.91 Q20.9083 971.57 20.9083 975.708 Q20.9083 983.856 25.9054 988.184 Q30.8707 992.513 40.2919 992.513 Q49.6813 992.513 54.6784 988.184 Q59.6436 983.856 59.6436 975.708 Q59.6436 971.57 58.1477 967.91 Q56.6518 964.218 53.6281 960.971 L60.3439 960.971 Q62.6355 964.345 63.7814 968.133 Q64.9272 971.888 64.9272 976.09 Q64.9272 986.88 58.3387 993.086 Q51.7183 999.293 40.2919 999.293 Q28.8336 999.293 22.2451 993.086 Q15.6248 986.88 15.6248 976.09 Q15.6248 971.825 16.7706 968.069 Q17.8846 964.281 20.1444 960.971 Z" fill="#000000" fill-rule="evenodd" fill-opacity="1" /><path clip-path="url(#clip840)" d="M32.4621 937.482 Q32.4621 942.192 36.1542 944.93 Q39.8145 947.667 46.212 947.667 Q52.6095 947.667 56.3017 944.961 Q59.9619 942.224 59.9619 937.482 Q59.9619 932.803 56.2698 930.066 Q52.5777 927.328 46.212 927.328 Q39.8781 927.328 36.186 930.066 Q32.4621 932.803 32.4621 937.482 M27.4968 937.482 Q27.4968 929.843 32.4621 925.482 Q37.4273 921.122 46.212 921.122 Q54.9649 921.122 59.9619 925.482 Q64.9272 929.843 64.9272 937.482 Q64.9272 945.152 59.9619 949.513 Q54.9649 953.842 46.212 953.842 Q37.4273 953.842 32.4621 949.513 Q27.4968 945.152 27.4968 937.482 Z" fill="#000000" fill-rule="evenodd" fill-opacity="1" /><path clip-path="url(#clip840)" d="M42.4881 881.782 L64.0042 881.782 L64.0042 887.638 L42.679 887.638 Q37.6183 887.638 35.1038 889.612 Q32.5894 891.585 32.5894 895.532 Q32.5894 900.274 35.6131 903.011 Q38.6368 905.749 43.8567 905.749 L64.0042 905.749 L64.0042 911.637 L28.3562 911.637 L28.3562 905.749 L33.8944 905.749 Q30.6797 903.648 29.0883 900.815 Q27.4968 897.951 27.4968 894.227 Q27.4968 888.084 31.3163 884.933 Q35.1038 881.782 42.4881 881.782 Z" fill="#000000" fill-rule="evenodd" fill-opacity="1" /><path clip-path="url(#clip840)" d="M29.7248 844.447 L35.1993 844.447 Q33.8307 846.929 33.1623 849.444 Q32.4621 851.927 32.4621 854.473 Q32.4621 860.17 36.0905 863.321 Q39.6872 866.472 46.212 866.472 Q52.7369 866.472 56.3653 863.321 Q59.9619 860.17 59.9619 854.473 Q59.9619 851.927 59.2935 849.444 Q58.5933 846.929 57.2247 844.447 L62.6355 844.447 Q63.7814 846.898 64.3543 849.539 Q64.9272 852.149 64.9272 855.109 Q64.9272 863.162 59.8664 867.904 Q54.8057 872.647 46.212 872.647 Q37.491 872.647 32.4939 867.873 Q27.4968 863.067 27.4968 854.727 Q27.4968 852.022 28.0697 849.444 Q28.6108 846.866 29.7248 844.447 Z" fill="#000000" fill-rule="evenodd" fill-opacity="1" /><path clip-path="url(#clip840)" d="M44.7161 803.77 L47.5806 803.77 L47.5806 830.697 Q53.6281 830.315 56.8109 827.068 Q59.9619 823.79 59.9619 817.966 Q59.9619 814.592 59.1344 811.441 Q58.3069 808.258 56.6518 805.139 L62.1899 805.139 Q63.5267 808.29 64.227 811.6 Q64.9272 814.91 64.9272 818.316 Q64.9272 826.846 59.9619 831.843 Q54.9967 836.808 46.5303 836.808 Q37.7774 836.808 32.6531 832.097 Q27.4968 827.355 27.4968 819.334 Q27.4968 812.141 32.1438 807.971 Q36.7589 803.77 44.7161 803.77 M42.9973 809.626 Q38.1912 809.69 35.3266 812.332 Q32.4621 814.942 32.4621 819.27 Q32.4621 824.172 35.2312 827.132 Q38.0002 830.06 43.0292 830.506 L42.9973 809.626 Z" fill="#000000" fill-rule="evenodd" fill-opacity="1" /><path clip-path="url(#clip840)" d="M42.4881 764.525 L64.0042 764.525 L64.0042 770.382 L42.679 770.382 Q37.6183 770.382 35.1038 772.355 Q32.5894 774.329 32.5894 778.275 Q32.5894 783.018 35.6131 785.755 Q38.6368 788.492 43.8567 788.492 L64.0042 788.492 L64.0042 794.381 L28.3562 794.381 L28.3562 788.492 L33.8944 788.492 Q30.6797 786.392 29.0883 783.559 Q27.4968 780.694 27.4968 776.97 Q27.4968 770.827 31.3163 767.676 Q35.1038 764.525 42.4881 764.525 Z" fill="#000000" fill-rule="evenodd" fill-opacity="1" /><path clip-path="url(#clip840)" d="M18.2347 747.052 L28.3562 747.052 L28.3562 734.989 L32.9077 734.989 L32.9077 747.052 L52.2594 747.052 Q56.6199 747.052 57.8613 745.874 Q59.1026 744.664 59.1026 741.004 L59.1026 734.989 L64.0042 734.989 L64.0042 741.004 Q64.0042 747.784 61.4897 750.362 Q58.9434 752.94 52.2594 752.94 L32.9077 752.94 L32.9077 757.237 L28.3562 757.237 L28.3562 752.94 L18.2347 752.94 L18.2347 747.052 Z" fill="#000000" fill-rule="evenodd" fill-opacity="1" /><path clip-path="url(#clip840)" d="M33.8307 706.629 Q33.2578 707.616 33.0032 708.794 Q32.7167 709.939 32.7167 711.34 Q32.7167 716.305 35.9632 718.979 Q39.1779 721.621 45.2253 721.621 L64.0042 721.621 L64.0042 727.509 L28.3562 727.509 L28.3562 721.621 L33.8944 721.621 Q30.6479 719.774 29.0883 716.814 Q27.4968 713.854 27.4968 709.621 Q27.4968 709.016 27.5923 708.284 Q27.656 707.552 27.8151 706.661 L33.8307 706.629 Z" fill="#000000" fill-rule="evenodd" fill-opacity="1" /><path clip-path="url(#clip840)" d="M46.0847 684.286 Q46.0847 691.383 47.7079 694.121 Q49.3312 696.858 53.2461 696.858 Q56.3653 696.858 58.2114 694.821 Q60.0256 692.752 60.0256 689.219 Q60.0256 684.349 56.5881 681.421 Q53.1188 678.461 47.3897 678.461 L46.0847 678.461 L46.0847 684.286 M43.6657 672.605 L64.0042 672.605 L64.0042 678.461 L58.5933 678.461 Q61.8398 680.466 63.3994 683.458 Q64.9272 686.45 64.9272 690.779 Q64.9272 696.253 61.8716 699.5 Q58.7843 702.714 53.6281 702.714 Q47.6125 702.714 44.5569 698.704 Q41.5014 694.662 41.5014 686.673 L41.5014 678.461 L40.9285 678.461 Q36.8862 678.461 34.6901 681.135 Q32.4621 683.776 32.4621 688.583 Q32.4621 691.638 33.1941 694.534 Q33.9262 697.431 35.3903 700.104 L29.9795 700.104 Q28.7381 696.89 28.1334 693.866 Q27.4968 690.842 27.4968 687.978 Q27.4968 680.243 31.5072 676.424 Q35.5176 672.605 43.6657 672.605 Z" fill="#000000" fill-rule="evenodd" fill-opacity="1" /><path clip-path="url(#clip840)" d="M18.2347 654.749 L28.3562 654.749 L28.3562 642.686 L32.9077 642.686 L32.9077 654.749 L52.2594 654.749 Q56.6199 654.749 57.8613 653.571 Q59.1026 652.362 59.1026 648.701 L59.1026 642.686 L64.0042 642.686 L64.0042 648.701 Q64.0042 655.481 61.4897 658.059 Q58.9434 660.637 52.2594 660.637 L32.9077 660.637 L32.9077 664.934 L28.3562 664.934 L28.3562 660.637 L18.2347 660.637 L18.2347 654.749 Z" fill="#000000" fill-rule="evenodd" fill-opacity="1" /><path clip-path="url(#clip840)" d="M28.3562 634.983 L28.3562 629.127 L64.0042 629.127 L64.0042 634.983 L28.3562 634.983 M14.479 634.983 L14.479 629.127 L21.895 629.127 L21.895 634.983 L14.479 634.983 Z" fill="#000000" fill-rule="evenodd" fill-opacity="1" /><path clip-path="url(#clip840)" d="M32.4621 603.059 Q32.4621 607.77 36.1542 610.507 Q39.8145 613.244 46.212 613.244 Q52.6095 613.244 56.3017 610.539 Q59.9619 607.802 59.9619 603.059 Q59.9619 598.38 56.2698 595.643 Q52.5777 592.906 46.212 592.906 Q39.8781 592.906 36.186 595.643 Q32.4621 598.38 32.4621 603.059 M27.4968 603.059 Q27.4968 595.42 32.4621 591.06 Q37.4273 586.699 46.212 586.699 Q54.9649 586.699 59.9619 591.06 Q64.9272 595.42 64.9272 603.059 Q64.9272 610.73 59.9619 615.09 Q54.9649 619.419 46.212 619.419 Q37.4273 619.419 32.4621 615.09 Q27.4968 610.73 27.4968 603.059 Z" fill="#000000" fill-rule="evenodd" fill-opacity="1" /><path clip-path="url(#clip840)" d="M42.4881 547.359 L64.0042 547.359 L64.0042 553.216 L42.679 553.216 Q37.6183 553.216 35.1038 555.189 Q32.5894 557.163 32.5894 561.109 Q32.5894 565.852 35.6131 568.589 Q38.6368 571.326 43.8567 571.326 L64.0042 571.326 L64.0042 577.214 L28.3562 577.214 L28.3562 571.326 L33.8944 571.326 Q30.6797 569.226 29.0883 566.393 Q27.4968 563.528 27.4968 559.804 Q27.4968 553.661 31.3163 550.51 Q35.1038 547.359 42.4881 547.359 Z" fill="#000000" fill-rule="evenodd" fill-opacity="1" /><path clip-path="url(#clip840)" d="M818.006 12.096 L852.763 12.096 L852.763 18.9825 L826.189 18.9825 L826.189 36.8065 L850.17 36.8065 L850.17 43.6931 L826.189 43.6931 L826.189 72.576 L818.006 72.576 L818.006 12.096 Z" fill="#000000" fill-rule="evenodd" fill-opacity="1" /><path clip-path="url(#clip840)" d="M859.366 27.2059 L866.82 27.2059 L866.82 72.576 L859.366 72.576 L859.366 27.2059 M859.366 9.54393 L866.82 9.54393 L866.82 18.9825 L859.366 18.9825 L859.366 9.54393 Z" fill="#000000" fill-rule="evenodd" fill-opacity="1" /><path clip-path="url(#clip840)" d="M912.271 49.3643 Q912.271 41.2625 908.909 36.8065 Q905.587 32.3505 899.551 32.3505 Q893.556 32.3505 890.193 36.8065 Q886.872 41.2625 886.872 49.3643 Q886.872 57.4256 890.193 61.8816 Q893.556 66.3376 899.551 66.3376 Q905.587 66.3376 908.909 61.8816 Q912.271 57.4256 912.271 49.3643 M919.725 66.9452 Q919.725 78.5308 914.58 84.1616 Q909.435 89.8329 898.822 89.8329 Q894.892 89.8329 891.409 89.2252 Q887.925 88.6581 884.644 87.4428 L884.644 80.1917 Q887.925 81.9741 891.125 82.8248 Q894.325 83.6755 897.647 83.6755 Q904.979 83.6755 908.625 79.8271 Q912.271 76.0193 912.271 68.282 L912.271 64.5957 Q909.962 68.6061 906.357 70.5911 Q902.751 72.576 897.728 72.576 Q889.383 72.576 884.279 66.2161 Q879.175 59.8562 879.175 49.3643 Q879.175 38.832 884.279 32.472 Q889.383 26.1121 897.728 26.1121 Q902.751 26.1121 906.357 28.0971 Q909.962 30.082 912.271 34.0924 L912.271 27.2059 L919.725 27.2059 L919.725 66.9452 Z" fill="#000000" fill-rule="evenodd" fill-opacity="1" /><path clip-path="url(#clip840)" d="M936.131 62.2867 L944.678 62.2867 L944.678 72.576 L936.131 72.576 L936.131 62.2867 Z" fill="#000000" fill-rule="evenodd" fill-opacity="1" /><path clip-path="url(#clip840)" d="M1011.36 19.2256 L990.696 51.5113 L1011.36 51.5113 L1011.36 19.2256 M1009.21 12.096 L1019.5 12.096 L1019.5 51.5113 L1028.13 51.5113 L1028.13 58.3168 L1019.5 58.3168 L1019.5 72.576 L1011.36 72.576 L1011.36 58.3168 L984.053 58.3168 L984.053 50.4176 L1009.21 12.096 Z" fill="#000000" fill-rule="evenodd" fill-opacity="1" /><path clip-path="url(#clip840)" d="M1041.66 62.2867 L1050.2 62.2867 L1050.2 72.576 L1041.66 72.576 L1041.66 62.2867 Z" fill="#000000" fill-rule="evenodd" fill-opacity="1" /><path clip-path="url(#clip840)" d="M1075.08 65.6895 L1103.64 65.6895 L1103.64 72.576 L1065.23 72.576 L1065.23 65.6895 Q1069.89 60.8689 1077.91 52.7671 Q1085.97 44.6248 1088.04 42.2752 Q1091.97 37.8598 1093.51 34.8216 Q1095.09 31.7429 1095.09 28.7857 Q1095.09 23.9651 1091.69 20.927 Q1088.32 17.8888 1082.89 17.8888 Q1079.05 17.8888 1074.75 19.2256 Q1070.5 20.5624 1065.64 23.2765 L1065.64 15.0127 Q1070.58 13.0277 1074.87 12.015 Q1079.17 11.0023 1082.73 11.0023 Q1092.13 11.0023 1097.72 15.7013 Q1103.31 20.4004 1103.31 28.2591 Q1103.31 31.9859 1101.89 35.3482 Q1100.52 38.6699 1096.83 43.2069 Q1095.82 44.3817 1090.39 50.0125 Q1084.96 55.6027 1075.08 65.6895 Z" fill="#000000" fill-rule="evenodd" fill-opacity="1" /><path clip-path="url(#clip840)" d="M1166.67 20.1573 L1155.57 50.2555 L1177.81 50.2555 L1166.67 20.1573 M1162.05 12.096 L1171.33 12.096 L1194.38 72.576 L1185.87 72.576 L1180.36 57.061 L1153.1 57.061 L1147.59 72.576 L1138.96 72.576 L1162.05 12.096 Z" fill="#000000" fill-rule="evenodd" fill-opacity="1" /><path clip-path="url(#clip840)" d="M1247.16 9.62495 Q1241.73 18.942 1239.1 28.0566 Q1236.46 37.1711 1236.46 46.5287 Q1236.46 55.8863 1239.1 65.0818 Q1241.77 74.2369 1247.16 83.5134 L1240.68 83.5134 Q1234.6 73.9938 1231.56 64.7983 Q1228.57 55.6027 1228.57 46.5287 Q1228.57 37.4952 1231.56 28.3401 Q1234.56 19.1851 1240.68 9.62495 L1247.16 9.62495 Z" fill="#000000" fill-rule="evenodd" fill-opacity="1" /><path clip-path="url(#clip840)" d="M1253.56 12.096 L1304.72 12.096 L1304.72 18.9825 L1283.25 18.9825 L1283.25 72.576 L1275.03 72.576 L1275.03 18.9825 L1253.56 18.9825 L1253.56 12.096 Z" fill="#000000" fill-rule="evenodd" fill-opacity="1" /><path clip-path="url(#clip840)" d="M1309.75 27.2059 L1317.2 27.2059 L1317.2 72.576 L1309.75 72.576 L1309.75 27.2059 M1309.75 9.54393 L1317.2 9.54393 L1317.2 18.9825 L1309.75 18.9825 L1309.75 9.54393 Z" fill="#000000" fill-rule="evenodd" fill-opacity="1" /><path clip-path="url(#clip840)" d="M1368.12 35.9153 Q1370.91 30.8922 1374.8 28.5022 Q1378.69 26.1121 1383.96 26.1121 Q1391.05 26.1121 1394.9 31.0947 Q1398.74 36.0368 1398.74 45.1919 L1398.74 72.576 L1391.25 72.576 L1391.25 45.4349 Q1391.25 38.913 1388.94 35.7533 Q1386.63 32.5936 1381.89 32.5936 Q1376.1 32.5936 1372.74 36.4419 Q1369.37 40.2903 1369.37 46.9338 L1369.37 72.576 L1361.88 72.576 L1361.88 45.4349 Q1361.88 38.8725 1359.57 35.7533 Q1357.26 32.5936 1352.44 32.5936 Q1346.73 32.5936 1343.37 36.4824 Q1340.01 40.3308 1340.01 46.9338 L1340.01 72.576 L1332.51 72.576 L1332.51 27.2059 L1340.01 27.2059 L1340.01 34.2544 Q1342.56 30.082 1346.12 28.0971 Q1349.69 26.1121 1354.59 26.1121 Q1359.53 26.1121 1362.97 28.6237 Q1366.46 31.1352 1368.12 35.9153 Z" fill="#000000" fill-rule="evenodd" fill-opacity="1" /><path clip-path="url(#clip840)" d="M1452.42 48.0275 L1452.42 51.6733 L1418.15 51.6733 Q1418.63 59.3701 1422.77 63.421 Q1426.94 67.4314 1434.35 67.4314 Q1438.65 67.4314 1442.66 66.3781 Q1446.71 65.3249 1450.68 63.2184 L1450.68 70.267 Q1446.67 71.9684 1442.45 72.8596 Q1438.24 73.7508 1433.91 73.7508 Q1423.05 73.7508 1416.69 67.4314 Q1410.37 61.1119 1410.37 50.3365 Q1410.37 39.1965 1416.37 32.6746 Q1422.4 26.1121 1432.61 26.1121 Q1441.76 26.1121 1447.07 32.0264 Q1452.42 37.9003 1452.42 48.0275 M1444.96 45.84 Q1444.88 39.7232 1441.52 36.0774 Q1438.2 32.4315 1432.69 32.4315 Q1426.45 32.4315 1422.68 35.9558 Q1418.96 39.4801 1418.39 45.8805 L1444.96 45.84 Z" fill="#000000" fill-rule="evenodd" fill-opacity="1" /><path clip-path="url(#clip840)" d="M1519.95 28.5427 L1519.95 35.5912 Q1516.79 33.9709 1513.38 33.1607 Q1509.98 32.3505 1506.34 32.3505 Q1500.79 32.3505 1497.99 34.0519 Q1495.24 35.7533 1495.24 39.156 Q1495.24 41.7486 1497.22 43.2475 Q1499.21 44.7058 1505.2 46.0426 L1507.75 46.6097 Q1515.69 48.3111 1519.02 51.4303 Q1522.38 54.509 1522.38 60.0587 Q1522.38 66.3781 1517.35 70.0644 Q1512.37 73.7508 1503.62 73.7508 Q1499.98 73.7508 1496.01 73.0216 Q1492.08 72.3329 1487.7 70.9151 L1487.7 63.2184 Q1491.83 65.3654 1495.84 66.4591 Q1499.85 67.5124 1503.78 67.5124 Q1509.05 67.5124 1511.89 65.73 Q1514.72 63.9071 1514.72 60.6258 Q1514.72 57.5877 1512.66 55.9673 Q1510.63 54.3469 1503.7 52.8481 L1501.11 52.2405 Q1494.18 50.7821 1491.1 47.7845 Q1488.03 44.7463 1488.03 39.4801 Q1488.03 33.0797 1492.56 29.5959 Q1497.1 26.1121 1505.44 26.1121 Q1509.58 26.1121 1513.22 26.7198 Q1516.87 27.3274 1519.95 28.5427 Z" fill="#000000" fill-rule="evenodd" fill-opacity="1" /><path clip-path="url(#clip840)" d="M1573.05 48.0275 L1573.05 51.6733 L1538.78 51.6733 Q1539.27 59.3701 1543.4 63.421 Q1547.57 67.4314 1554.99 67.4314 Q1559.28 67.4314 1563.29 66.3781 Q1567.34 65.3249 1571.31 63.2184 L1571.31 70.267 Q1567.3 71.9684 1563.09 72.8596 Q1558.88 73.7508 1554.54 73.7508 Q1543.69 73.7508 1537.33 67.4314 Q1531.01 61.1119 1531.01 50.3365 Q1531.01 39.1965 1537 32.6746 Q1543.04 26.1121 1553.25 26.1121 Q1562.4 26.1121 1567.71 32.0264 Q1573.05 37.9003 1573.05 48.0275 M1565.6 45.84 Q1565.52 39.7232 1562.16 36.0774 Q1558.84 32.4315 1553.33 32.4315 Q1547.09 32.4315 1543.32 35.9558 Q1539.59 39.4801 1539.03 45.8805 L1565.6 45.84 Z" fill="#000000" fill-rule="evenodd" fill-opacity="1" /><path clip-path="url(#clip840)" d="M1611.58 34.1734 Q1610.32 33.4443 1608.82 33.1202 Q1607.37 32.7556 1605.58 32.7556 Q1599.26 32.7556 1595.86 36.8875 Q1592.5 40.9789 1592.5 48.6757 L1592.5 72.576 L1585 72.576 L1585 27.2059 L1592.5 27.2059 L1592.5 34.2544 Q1594.85 30.1225 1598.62 28.1376 Q1602.38 26.1121 1607.77 26.1121 Q1608.54 26.1121 1609.47 26.2337 Q1610.4 26.3147 1611.54 26.5172 L1611.58 34.1734 Z" fill="#000000" fill-rule="evenodd" fill-opacity="1" /><path clip-path="url(#clip840)" d="M1619.4 27.2059 L1626.85 27.2059 L1626.85 72.576 L1619.4 72.576 L1619.4 27.2059 M1619.4 9.54393 L1626.85 9.54393 L1626.85 18.9825 L1619.4 18.9825 L1619.4 9.54393 Z" fill="#000000" fill-rule="evenodd" fill-opacity="1" /><path clip-path="url(#clip840)" d="M1681.25 48.0275 L1681.25 51.6733 L1646.98 51.6733 Q1647.47 59.3701 1651.6 63.421 Q1655.77 67.4314 1663.19 67.4314 Q1667.48 67.4314 1671.49 66.3781 Q1675.54 65.3249 1679.51 63.2184 L1679.51 70.267 Q1675.5 71.9684 1671.29 72.8596 Q1667.08 73.7508 1662.74 73.7508 Q1651.88 73.7508 1645.53 67.4314 Q1639.21 61.1119 1639.21 50.3365 Q1639.21 39.1965 1645.2 32.6746 Q1651.24 26.1121 1661.45 26.1121 Q1670.6 26.1121 1675.91 32.0264 Q1681.25 37.9003 1681.25 48.0275 M1673.8 45.84 Q1673.72 39.7232 1670.36 36.0774 Q1667.04 32.4315 1661.53 32.4315 Q1655.29 32.4315 1651.52 35.9558 Q1647.79 39.4801 1647.23 45.8805 L1673.8 45.84 Z" fill="#000000" fill-rule="evenodd" fill-opacity="1" /><path clip-path="url(#clip840)" d="M1722.41 28.5427 L1722.41 35.5912 Q1719.25 33.9709 1715.85 33.1607 Q1712.45 32.3505 1708.8 32.3505 Q1703.25 32.3505 1700.46 34.0519 Q1697.7 35.7533 1697.7 39.156 Q1697.7 41.7486 1699.69 43.2475 Q1701.67 44.7058 1707.67 46.0426 L1710.22 46.6097 Q1718.16 48.3111 1721.48 51.4303 Q1724.84 54.509 1724.84 60.0587 Q1724.84 66.3781 1719.82 70.0644 Q1714.84 73.7508 1706.09 73.7508 Q1702.44 73.7508 1698.47 73.0216 Q1694.54 72.3329 1690.17 70.9151 L1690.17 63.2184 Q1694.3 65.3654 1698.31 66.4591 Q1702.32 67.5124 1706.25 67.5124 Q1711.51 67.5124 1714.35 65.73 Q1717.19 63.9071 1717.19 60.6258 Q1717.19 57.5877 1715.12 55.9673 Q1713.09 54.3469 1706.17 52.8481 L1703.57 52.2405 Q1696.65 50.7821 1693.57 47.7845 Q1690.49 44.7463 1690.49 39.4801 Q1690.49 33.0797 1695.03 29.5959 Q1699.56 26.1121 1707.91 26.1121 Q1712.04 26.1121 1715.69 26.7198 Q1719.33 27.3274 1722.41 28.5427 Z" fill="#000000" fill-rule="evenodd" fill-opacity="1" /><path clip-path="url(#clip840)" d="M1735.54 9.62495 L1742.02 9.62495 Q1748.09 19.1851 1751.09 28.3401 Q1754.13 37.4952 1754.13 46.5287 Q1754.13 55.6027 1751.09 64.7983 Q1748.09 73.9938 1742.02 83.5134 L1735.54 83.5134 Q1740.92 74.2369 1743.56 65.0818 Q1746.23 55.8863 1746.23 46.5287 Q1746.23 37.1711 1743.56 28.0566 Q1740.92 18.942 1735.54 9.62495 Z" fill="#000000" fill-rule="evenodd" fill-opacity="1" /><polyline clip-path="url(#clip842)" style="stroke:#009af9; stroke-linecap:butt; stroke-linejoin:round; stroke-width:8; stroke-opacity:1; fill:none" points="
  219.38,1386.4 221.516,1365.33 223.651,1344.48 225.787,1323.84 227.922,1303.43 230.058,1283.23 232.193,1263.24 234.329,1243.45 236.464,1223.88 238.6,1204.51 
  240.735,1185.34 242.871,1166.37 245.006,1147.61 247.142,1129.03 249.277,1110.66 251.413,1092.47 253.548,1074.48 255.684,1056.68 257.819,1039.06 259.955,1021.63 
  262.09,1004.39 264.226,987.328 266.361,970.447 268.497,953.746 270.632,937.224 272.768,920.878 274.903,904.709 277.039,888.714 279.174,872.893 281.31,857.245 
  283.445,841.768 285.581,826.462 287.717,811.326 289.852,796.358 291.988,781.559 294.123,766.928 296.259,752.464 298.394,738.166 300.53,724.035 302.665,710.069 
  304.801,696.27 306.936,682.635 309.072,669.166 311.207,655.862 313.343,642.724 315.478,629.751 317.614,616.943 319.749,604.301 321.885,591.824 324.02,579.514 
  326.156,567.371 328.291,555.394 330.427,543.585 332.562,531.945 334.698,520.473 336.833,509.171 338.969,498.039 341.104,487.078 343.24,476.288 345.375,465.671 
  347.511,455.227 349.646,444.957 351.782,434.863 353.917,424.944 356.053,415.204 358.188,405.641 360.324,396.258 362.459,387.054 364.595,378.031 366.73,369.19 
  368.866,360.532 371.001,352.056 373.137,343.764 375.272,335.657 377.408,327.734 379.544,319.998 381.679,312.447 383.815,305.084 385.95,297.907 388.086,290.918 
  390.221,284.118 392.357,277.506 394.492,271.082 396.628,264.848 398.763,258.804 400.899,252.949 403.034,247.283 405.17,241.806 407.305,236.518 409.441,231.418 
  411.576,226.505 413.712,221.78 415.847,217.24 417.983,212.886 420.118,208.716 422.254,204.73 424.389,200.927 426.525,197.305 428.66,193.863 430.796,190.6 
  432.931,187.515 435.067,184.606 437.202,181.872 439.338,179.311 441.473,176.921 443.609,174.7 445.744,172.648 447.88,170.761 450.015,169.039 452.151,167.477 
  454.286,166.076 456.422,164.832 458.557,163.743 460.693,162.806 462.828,162.02 464.964,161.381 467.099,160.887 469.235,160.536 471.37,160.327 473.506,160.256 
  475.642,160.321 477.777,160.519 479.913,160.848 482.048,161.303 484.184,161.884 486.319,162.586 488.455,163.408 490.59,164.346 492.726,165.399 494.861,166.563 
  496.997,167.835 499.132,169.214 501.268,170.696 503.403,172.28 505.539,173.962 507.674,175.74 509.81,177.612 511.945,179.575 514.081,181.627 516.216,183.765 
  518.352,185.987 520.487,188.29 522.623,190.673 524.758,193.133 526.894,195.667 529.029,198.273 531.165,200.95 533.3,203.694 535.436,206.504 537.571,209.377 
  539.707,212.311 541.842,215.304 543.978,218.354 546.113,221.459 548.249,224.617 550.384,227.825 552.52,231.082 554.655,234.385 556.791,237.732 558.926,241.123 
  561.062,244.554 563.197,248.024 565.333,251.531 567.468,255.075 569.604,258.653 571.74,262.263 573.875,265.905 576.011,269.577 578.146,273.276 580.282,277.002 
  582.417,280.753 584.553,284.529 586.688,288.326 588.824,292.145 590.959,295.983 593.095,299.84 595.23,303.714 597.366,307.603 599.501,311.508 601.637,315.425 
  603.772,319.356 605.908,323.297 608.043,327.248 610.179,331.208 612.314,335.176 614.45,339.151 616.585,343.132 618.721,347.117 620.856,351.107 622.992,355.099 
  625.127,359.094 627.263,363.09 629.398,367.086 631.534,371.081 633.669,375.076 635.805,379.068 637.94,383.058 640.076,387.044 642.211,391.026 644.347,395.004 
  646.482,398.976 648.618,402.942 650.753,406.901 652.889,410.853 655.024,414.798 657.16,418.735 659.295,422.662 661.431,426.579 663.566,430.486 665.702,434.383 
  667.838,438.268 669.973,442.142 672.109,446.004 674.244,449.853 676.38,453.69 678.515,457.514 680.651,461.324 682.786,465.12 684.922,468.902 687.057,472.67 
  689.193,476.423 691.328,480.161 693.464,483.883 695.599,487.589 697.735,491.279 699.87,494.953 702.006,498.61 704.141,502.25 706.277,505.873 708.412,509.478 
  710.548,513.066 712.683,516.635 714.819,520.187 716.954,523.72 719.09,527.234 721.225,530.73 723.361,534.206 725.496,537.663 727.632,541.101 729.767,544.519 
  731.903,547.918 734.038,551.297 736.174,554.655 738.309,557.994 740.445,561.312 742.58,564.609 744.716,567.887 746.851,571.143 748.987,574.379 751.122,577.594 
  753.258,580.789 755.393,583.962 757.529,587.114 759.665,590.246 761.8,593.356 763.936,596.445 766.071,599.513 768.207,602.56 770.342,605.586 772.478,608.591 
  774.613,611.574 776.749,614.536 778.884,617.477 781.02,620.396 783.155,623.293 785.291,626.169 787.426,629.024 789.562,631.858 791.697,634.67 793.833,637.461 
  795.968,640.23 798.104,642.979 800.239,645.706 802.375,648.412 804.51,651.097 806.646,653.761 808.781,656.404 810.917,659.025 813.052,661.626 815.188,664.206 
  817.323,666.765 819.459,669.303 821.594,671.82 823.73,674.317 825.865,676.793 828.001,679.248 830.136,681.683 832.272,684.097 834.407,686.491 836.543,688.864 
  838.678,691.217 840.814,693.55 842.949,695.862 845.085,698.154 847.22,700.426 849.356,702.678 851.491,704.91 853.627,707.122 855.763,709.315 857.898,711.487 
  860.034,713.64 862.169,715.773 864.305,717.886 866.44,719.98 868.576,722.055 870.711,724.11 872.847,726.146 874.982,728.163 877.118,730.161 879.253,732.139 
  881.389,734.099 883.524,736.04 885.66,737.962 887.795,739.866 889.931,741.75 892.066,743.617 894.202,745.465 896.337,747.295 898.473,749.106 900.608,750.9 
  902.744,752.675 904.879,754.432 907.015,756.172 909.15,757.894 911.286,759.598 913.421,761.285 915.557,762.954 917.692,764.606 919.828,766.24 921.963,767.858 
  924.099,769.459 926.234,771.043 928.37,772.61 930.505,774.16 932.641,775.694 934.776,777.211 936.912,778.713 939.047,780.198 941.183,781.667 943.318,783.12 
  945.454,784.557 947.589,785.978 949.725,787.384 951.861,788.774 953.996,790.149 956.132,791.508 958.267,792.852 960.403,794.182 962.538,795.496 964.674,796.795 
  966.809,798.079 968.945,799.349 971.08,800.604 973.216,801.845 975.351,803.071 977.487,804.284 979.622,805.481 981.758,806.665 983.893,807.835 986.029,808.991 
  988.164,810.133 990.3,811.262 992.435,812.377 994.571,813.479 996.706,814.567 998.842,815.642 1000.98,816.703 1003.11,817.752 1005.25,818.788 1007.38,819.81 
  1009.52,820.82 1011.65,821.818 1013.79,822.802 1015.93,823.775 1018.06,824.734 1020.2,825.682 1022.33,826.617 1024.47,827.54 1026.6,828.451 1028.74,829.35 
  1030.87,830.238 1033.01,831.113 1035.15,831.977 1037.28,832.829 1039.42,833.67 1041.55,834.499 1043.69,835.317 1045.82,836.124 1047.96,836.92 1050.09,837.704 
  1052.23,838.478 1054.37,839.241 1056.5,839.993 1058.64,840.734 1060.77,841.465 1062.91,842.185 1065.04,842.895 1067.18,843.595 1069.31,844.285 1071.45,844.964 
  1073.58,845.634 1075.72,846.294 1077.86,846.944 1079.99,847.584 1082.13,848.215 1084.26,848.837 1086.4,849.449 1088.53,850.052 1090.67,850.645 1092.8,851.23 
  1094.94,851.805 1097.08,852.372 1099.21,852.929 1101.35,853.478 1103.48,854.019 1105.62,854.55 1107.75,855.074 1109.89,855.589 1112.02,856.095 1114.16,856.594 
  1116.29,857.084 1118.43,857.566 1120.57,858.04 1122.7,858.507 1124.84,858.965 1126.97,859.416 1129.11,859.859 1131.24,860.295 1133.38,860.723 1135.51,861.144 
  1137.65,861.557 1139.79,861.963 1141.92,862.362 1144.06,862.754 1146.19,863.139 1148.33,863.517 1150.46,863.888 1152.6,864.252 1154.73,864.609 1156.87,864.96 
  1159.01,865.304 1161.14,865.642 1163.28,865.973 1165.41,866.298 1167.55,866.617 1169.68,866.929 1171.82,867.235 1173.95,867.535 1176.09,867.829 1178.22,868.117 
  1180.36,868.399 1182.5,868.675 1184.63,868.946 1186.77,869.21 1188.9,869.469 1191.04,869.723 1193.17,869.971 1195.31,870.213 1197.44,870.45 1199.58,870.681 
  1201.72,870.908 1203.85,871.129 1205.99,871.344 1208.12,871.555 1210.26,871.76 1212.39,871.961 1214.53,872.156 1216.66,872.347 1218.8,872.532 1220.93,872.713 
  1223.07,872.889 1225.21,873.061 1227.34,873.228 1229.48,873.391 1231.61,873.549 1233.75,873.702 1235.88,873.852 1238.02,873.997 1240.15,874.138 1242.29,874.274 
  1244.43,874.407 1246.56,874.535 1248.7,874.66 1250.83,874.781 1252.97,874.898 1255.1,875.011 1257.24,875.12 1259.37,875.225 1261.51,875.327 1263.65,875.425 
  1265.78,875.52 1267.92,875.611 1270.05,875.699 1272.19,875.784 1274.32,875.865 1276.46,875.942 1278.59,876.017 1280.73,876.088 1282.86,876.157 1285,876.222 
  1287.14,876.284 1289.27,876.343 1291.41,876.399 1293.54,876.452 1295.68,876.502 1297.81,876.55 1299.95,876.595 1302.08,876.637 1304.22,876.676 1306.36,876.713 
  1308.49,876.747 1310.63,876.778 1312.76,876.807 1314.9,876.834 1317.03,876.858 1319.17,876.879 1321.3,876.899 1323.44,876.916 1325.57,876.93 1327.71,876.943 
  1329.85,876.953 1331.98,876.961 1334.12,876.967 1336.25,876.971 1338.39,876.973 1340.52,876.973 1342.66,876.971 1344.79,876.967 1346.93,876.961 1349.07,876.953 
  1351.2,876.943 1353.34,876.931 1355.47,876.918 1357.61,876.903 1359.74,876.886 1361.88,876.867 1364.01,876.847 1366.15,876.825 1368.29,876.802 1370.42,876.776 
  1372.56,876.75 1374.69,876.722 1376.83,876.692 1378.96,876.661 1381.1,876.628 1383.23,876.594 1385.37,876.559 1387.5,876.522 1389.64,876.484 1391.78,876.444 
  1393.91,876.403 1396.05,876.361 1398.18,876.318 1400.32,876.273 1402.45,876.228 1404.59,876.18 1406.72,876.132 1408.86,876.083 1411,876.032 1413.13,875.981 
  1415.27,875.929 1417.4,875.875 1419.54,875.821 1421.67,875.766 1423.81,875.709 1425.94,875.652 1428.08,875.595 1430.22,875.536 1432.35,875.476 1434.49,875.416 
  1436.62,875.355 1438.76,875.293 1440.89,875.231 1443.03,875.167 1445.16,875.103 1447.3,875.039 1449.43,874.973 1451.57,874.907 1453.71,874.841 1455.84,874.774 
  1457.98,874.706 1460.11,874.638 1462.25,874.569 1464.38,874.5 1466.52,874.43 1468.65,874.36 1470.79,874.289 1472.93,874.218 1475.06,874.146 1477.2,874.074 
  1479.33,874.002 1481.47,873.929 1483.6,873.856 1485.74,873.783 1487.87,873.709 1490.01,873.635 1492.14,873.56 1494.28,873.485 1496.42,873.41 1498.55,873.335 
  1500.69,873.26 1502.82,873.184 1504.96,873.108 1507.09,873.032 1509.23,872.956 1511.36,872.879 1513.5,872.803 1515.64,872.726 1517.77,872.649 1519.91,872.572 
  1522.04,872.495 1524.18,872.418 1526.31,872.341 1528.45,872.263 1530.58,872.186 1532.72,872.108 1534.86,872.031 1536.99,871.954 1539.13,871.876 1541.26,871.799 
  1543.4,871.721 1545.53,871.644 1547.67,871.566 1549.8,871.489 1551.94,871.411 1554.07,871.334 1556.21,871.257 1558.35,871.18 1560.48,871.103 1562.62,871.026 
  1564.75,870.949 1566.89,870.872 1569.02,870.796 1571.16,870.719 1573.29,870.643 1575.43,870.567 1577.57,870.49 1579.7,870.415 1581.84,870.339 1583.97,870.263 
  1586.11,870.188 1588.24,870.113 1590.38,870.038 1592.51,869.963 1594.65,869.888 1596.78,869.814 1598.92,869.739 1601.06,869.665 1603.19,869.592 1605.33,869.518 
  1607.46,869.445 1609.6,869.371 1611.73,869.299 1613.87,869.226 1616,869.154 1618.14,869.081 1620.28,869.009 1622.41,868.938 1624.55,868.866 1626.68,868.795 
  1628.82,868.724 1630.95,868.654 1633.09,868.583 1635.22,868.513 1637.36,868.443 1639.5,868.374 1641.63,868.304 1643.77,868.235 1645.9,868.166 1648.04,868.098 
  1650.17,868.029 1652.31,867.962 1654.44,867.894 1656.58,867.827 1658.71,867.76 1660.85,867.694 1662.99,867.628 1665.12,867.562 1667.26,867.497 1669.39,867.432 
  1671.53,867.367 1673.66,867.303 1675.8,867.239 1677.93,867.176 1680.07,867.113 1682.21,867.05 1684.34,866.988 1686.48,866.926 1688.61,866.864 1690.75,866.803 
  1692.88,866.742 1695.02,866.681 1697.15,866.621 1699.29,866.562 1701.42,866.502 1703.56,866.443 1705.7,866.385 1707.83,866.326 1709.97,866.268 1712.1,866.211 
  1714.24,866.154 1716.37,866.097 1718.51,866.04 1720.64,865.984 1722.78,865.929 1724.92,865.873 1727.05,865.818 1729.19,865.764 1731.32,865.709 1733.46,865.656 
  1735.59,865.602 1737.73,865.549 1739.86,865.496 1742,865.444 1744.14,865.392 1746.27,865.34 1748.41,865.289 1750.54,865.238 1752.68,865.187 1754.81,865.137 
  1756.95,865.087 1759.08,865.038 1761.22,864.989 1763.35,864.94 1765.49,864.892 1767.63,864.844 1769.76,864.796 1771.9,864.749 1774.03,864.702 1776.17,864.655 
  1778.3,864.609 1780.44,864.563 1782.57,864.518 1784.71,864.473 1786.85,864.428 1788.98,864.384 1791.12,864.34 1793.25,864.296 1795.39,864.253 1797.52,864.21 
  1799.66,864.167 1801.79,864.125 1803.93,864.083 1806.07,864.041 1808.2,864 1810.34,863.959 1812.47,863.919 1814.61,863.879 1816.74,863.839 1818.88,863.8 
  1821.01,863.761 1823.15,863.722 1825.28,863.684 1827.42,863.646 1829.56,863.608 1831.69,863.571 1833.83,863.534 1835.96,863.497 1838.1,863.461 1840.23,863.425 
  1842.37,863.39 1844.5,863.354 1846.64,863.32 1848.78,863.285 1850.91,863.251 1853.05,863.217 1855.18,863.184 1857.32,863.15 1859.45,863.118 1861.59,863.085 
  1863.72,863.053 1865.86,863.021 1867.99,862.99 1870.13,862.959 1872.27,862.928 1874.4,862.897 1876.54,862.867 1878.67,862.838 1880.81,862.808 1882.94,862.779 
  1885.08,862.75 1887.21,862.722 1889.35,862.694 1891.49,862.666 1893.62,862.639 1895.76,862.611 1897.89,862.585 1900.03,862.558 1902.16,862.532 1904.3,862.506 
  1906.43,862.481 1908.57,862.456 1910.71,862.431 1912.84,862.406 1914.98,862.382 1917.11,862.358 1919.25,862.334 1921.38,862.311 1923.52,862.288 1925.65,862.265 
  1927.79,862.243 1929.92,862.221 1932.06,862.199 1934.2,862.177 1936.33,862.156 1938.47,862.135 1940.6,862.114 1942.74,862.093 1944.87,862.073 1947.01,862.053 
  1949.14,862.033 1951.28,862.014 1953.42,861.994 1955.55,861.975 1957.69,861.957 1959.82,861.938 1961.96,861.92 1964.09,861.902 1966.23,861.884 1968.36,861.866 
  1970.5,861.849 1972.63,861.832 1974.77,861.815 1976.91,861.798 1979.04,861.782 1981.18,861.766 1983.31,861.749 1985.45,861.734 1987.58,861.718 1989.72,861.703 
  1991.85,861.687 1993.99,861.672 1996.13,861.658 1998.26,861.643 2000.4,861.629 2002.53,861.614 2004.67,861.6 2006.8,861.586 2008.94,861.573 2011.07,861.559 
  2013.21,861.546 2015.35,861.533 2017.48,861.52 2019.62,861.507 2021.75,861.495 2023.89,861.482 2026.02,861.47 2028.16,861.458 2030.29,861.446 2032.43,861.434 
  2034.56,861.423 2036.7,861.411 2038.84,861.4 2040.97,861.389 2043.11,861.378 2045.24,861.367 2047.38,861.357 2049.51,861.346 2051.65,861.336 2053.78,861.326 
  2055.92,861.316 2058.06,861.306 2060.19,861.296 2062.33,861.286 2064.46,861.277 2066.6,861.268 2068.73,861.258 2070.87,861.249 2073,861.241 2075.14,861.232 
  2077.27,861.223 2079.41,861.215 2081.55,861.206 2083.68,861.198 2085.82,861.19 2087.95,861.182 2090.09,861.174 2092.22,861.167 2094.36,861.159 2096.49,861.152 
  2098.63,861.144 2100.77,861.137 2102.9,861.13 2105.04,861.123 2107.17,861.117 2109.31,861.11 2111.44,861.103 2113.58,861.097 2115.71,861.091 2117.85,861.084 
  2119.99,861.078 2122.12,861.073 2124.26,861.067 2126.39,861.061 2128.53,861.055 2130.66,861.05 2132.8,861.045 2134.93,861.04 2137.07,861.034 2139.2,861.029 
  2141.34,861.025 2143.48,861.02 2145.61,861.015 2147.75,861.011 2149.88,861.006 2152.02,861.002 2154.15,860.998 2156.29,860.994 2158.42,860.99 2160.56,860.986 
  2162.7,860.983 2164.83,860.979 2166.97,860.976 2169.1,860.973 2171.24,860.969 2173.37,860.966 2175.51,860.963 2177.64,860.961 2179.78,860.958 2181.92,860.955 
  2184.05,860.953 2186.19,860.95 2188.32,860.948 2190.46,860.946 2192.59,860.943 2194.73,860.941 2196.86,860.939 2199,860.937 2201.13,860.935 2203.27,860.933 
  2205.41,860.932 2207.54,860.93 2209.68,860.928 2211.81,860.927 2213.95,860.925 2216.08,860.924 2218.22,860.922 2220.35,860.921 2222.49,860.92 2224.63,860.919 
  2226.76,860.917 2228.9,860.916 2231.03,860.915 2233.17,860.914 2235.3,860.913 2237.44,860.913 2239.57,860.912 2241.71,860.911 2243.84,860.91 2245.98,860.91 
  2248.12,860.909 2250.25,860.909 2252.39,860.908 2254.52,860.908 2256.66,860.907 2258.79,860.907 2260.93,860.907 2263.06,860.906 2265.2,860.906 2267.34,860.906 
  2269.47,860.906 2271.61,860.906 2273.74,860.906 2275.88,860.906 2278.01,860.906 2280.15,860.906 2282.28,860.906 2284.42,860.906 2286.56,860.907 2288.69,860.907 
  2290.83,860.907 2292.96,860.907 2295.1,860.908 2297.23,860.908 2299.37,860.908 2301.5,860.909 2303.64,860.909 2305.77,860.91 2307.91,860.91 2310.05,860.911 
  2312.18,860.912 2314.32,860.912 2316.45,860.913 2318.59,860.914 2320.72,860.914 2322.86,860.915 2324.99,860.916 2327.13,860.917 2329.27,860.917 2331.4,860.918 
  2333.54,860.919 2335.67,860.92 2337.81,860.921 2339.94,860.922 2342.08,860.923 2344.21,860.924 2346.35,860.925 2348.48,860.926 2350.62,860.927 2352.76,860.928 
  
  "/>
<polyline clip-path="url(#clip842)" style="stroke:#e26f46; stroke-linecap:butt; stroke-linejoin:round; stroke-width:8; stroke-opacity:1; fill:none" points="
  219.38,1386.4 221.516,1381.09 223.651,1375.76 225.787,1370.41 227.922,1365.03 230.058,1359.64 232.193,1354.23 234.329,1348.79 236.464,1343.34 238.6,1337.87 
  240.735,1332.39 242.871,1326.89 245.006,1321.37 247.142,1315.84 249.277,1310.29 251.413,1304.73 253.548,1299.16 255.684,1293.58 257.819,1287.99 259.955,1282.38 
  262.09,1276.77 264.226,1271.14 266.361,1265.51 268.497,1259.87 270.632,1254.22 272.768,1248.57 274.903,1242.91 277.039,1237.24 279.174,1231.57 281.31,1225.89 
  283.445,1220.21 285.581,1214.52 287.717,1208.84 289.852,1203.14 291.988,1197.45 294.123,1191.76 296.259,1186.06 298.394,1180.37 300.53,1174.67 302.665,1168.98 
  304.801,1163.29 306.936,1157.6 309.072,1151.91 311.207,1146.22 313.343,1140.53 315.478,1134.85 317.614,1129.18 319.749,1123.5 321.885,1117.84 324.02,1112.17 
  326.156,1106.52 328.291,1100.87 330.427,1095.22 332.562,1089.59 334.698,1083.96 336.833,1078.34 338.969,1072.72 341.104,1067.12 343.24,1061.53 345.375,1055.94 
  347.511,1050.37 349.646,1044.8 351.782,1039.25 353.917,1033.71 356.053,1028.18 358.188,1022.67 360.324,1017.16 362.459,1011.67 364.595,1006.2 366.73,1000.74 
  368.866,995.289 371.001,989.857 373.137,984.441 375.272,979.04 377.408,973.656 379.544,968.289 381.679,962.939 383.815,957.607 385.95,952.293 388.086,946.998 
  390.221,941.721 392.357,936.464 394.492,931.227 396.628,926.01 398.763,920.813 400.899,915.638 403.034,910.484 405.17,905.352 407.305,900.242 409.441,895.155 
  411.576,890.091 413.712,885.05 415.847,880.033 417.983,875.041 420.118,870.073 422.254,865.13 424.389,860.213 426.525,855.321 428.66,850.455 430.796,845.616 
  432.931,840.803 435.067,836.017 437.202,831.259 439.338,826.528 441.473,821.825 443.609,817.151 445.744,812.505 447.88,807.888 450.015,803.3 452.151,798.741 
  454.286,794.212 456.422,789.713 458.557,785.244 460.693,780.806 462.828,776.398 464.964,772.021 467.099,767.675 469.235,763.36 471.37,759.077 473.506,754.826 
  475.642,750.606 477.777,746.419 479.913,742.264 482.048,738.141 484.184,734.05 486.319,729.992 488.455,725.966 490.59,721.973 492.726,718.013 494.861,714.086 
  496.997,710.192 499.132,706.331 501.268,702.503 503.403,698.708 505.539,694.946 507.674,691.217 509.81,687.522 511.945,683.86 514.081,680.232 516.216,676.637 
  518.352,673.075 520.487,669.547 522.623,666.052 524.758,662.59 526.894,659.162 529.029,655.767 531.165,652.405 533.3,649.077 535.436,645.782 537.571,642.52 
  539.707,639.291 541.842,636.095 543.978,632.932 546.113,629.803 548.249,626.705 550.384,623.641 552.52,620.609 554.655,617.61 556.791,614.643 558.926,611.709 
  561.062,608.806 563.197,605.936 565.333,603.098 567.468,600.292 569.604,597.517 571.74,594.774 573.875,592.062 576.011,589.382 578.146,586.733 580.282,584.114 
  582.417,581.526 584.553,578.969 586.688,576.442 588.824,573.946 590.959,571.479 593.095,569.043 595.23,566.636 597.366,564.258 599.501,561.91 601.637,559.592 
  603.772,557.302 605.908,555.041 608.043,552.809 610.179,550.605 612.314,548.43 614.45,546.283 616.585,544.163 618.721,542.072 620.856,540.008 622.992,537.971 
  625.127,535.962 627.263,533.98 629.398,532.024 631.534,530.095 633.669,528.192 635.805,526.316 637.94,524.465 640.076,522.641 642.211,520.842 644.347,519.068 
  646.482,517.32 648.618,515.596 650.753,513.898 652.889,512.223 655.024,510.574 657.16,508.948 659.295,507.346 661.431,505.769 663.566,504.214 665.702,502.683 
  667.838,501.176 669.973,499.691 672.109,498.229 674.244,496.789 676.38,495.372 678.515,493.976 680.651,492.603 682.786,491.251 684.922,489.92 687.057,488.611 
  689.193,487.323 691.328,486.056 693.464,484.809 695.599,483.583 697.735,482.377 699.87,481.19 702.006,480.024 704.141,478.877 706.277,477.75 708.412,476.642 
  710.548,475.553 712.683,474.483 714.819,473.431 716.954,472.398 719.09,471.383 721.225,470.386 723.361,469.407 725.496,468.445 727.632,467.501 729.767,466.575 
  731.903,465.665 734.038,464.772 736.174,463.897 738.309,463.037 740.445,462.194 742.58,461.368 744.716,460.557 746.851,459.762 748.987,458.983 751.122,458.219 
  753.258,457.471 755.393,456.738 757.529,456.019 759.665,455.316 761.8,454.627 763.936,453.953 766.071,453.293 768.207,452.647 770.342,452.014 772.478,451.396 
  774.613,450.792 776.749,450.2 778.884,449.622 781.02,449.058 783.155,448.506 785.291,447.967 787.426,447.44 789.562,446.926 791.697,446.424 793.833,445.935 
  795.968,445.457 798.104,444.991 800.239,444.537 802.375,444.095 804.51,443.664 806.646,443.244 808.781,442.835 810.917,442.437 813.052,442.05 815.188,441.673 
  817.323,441.307 819.459,440.952 821.594,440.606 823.73,440.271 825.865,439.945 828.001,439.63 830.136,439.324 832.272,439.027 834.407,438.74 836.543,438.462 
  838.678,438.194 840.814,437.934 842.949,437.683 845.085,437.441 847.22,437.208 849.356,436.983 851.491,436.766 853.627,436.558 855.763,436.358 857.898,436.166 
  860.034,435.982 862.169,435.805 864.305,435.636 866.44,435.475 868.576,435.321 870.711,435.175 872.847,435.035 874.982,434.903 877.118,434.778 879.253,434.659 
  881.389,434.548 883.524,434.443 885.66,434.344 887.795,434.253 889.931,434.167 892.066,434.088 894.202,434.015 896.337,433.948 898.473,433.887 900.608,433.831 
  902.744,433.782 904.879,433.738 907.015,433.7 909.15,433.668 911.286,433.64 913.421,433.618 915.557,433.601 917.692,433.59 919.828,433.583 921.963,433.581 
  924.099,433.584 926.234,433.592 928.37,433.604 930.505,433.621 932.641,433.642 934.776,433.668 936.912,433.699 939.047,433.733 941.183,433.772 943.318,433.814 
  945.454,433.861 947.589,433.912 949.725,433.966 951.861,434.025 953.996,434.087 956.132,434.152 958.267,434.221 960.403,434.294 962.538,434.37 964.674,434.45 
  966.809,434.532 968.945,434.618 971.08,434.707 973.216,434.799 975.351,434.894 977.487,434.992 979.622,435.093 981.758,435.197 983.893,435.304 986.029,435.413 
  988.164,435.524 990.3,435.639 992.435,435.756 994.571,435.875 996.706,435.996 998.842,436.12 1000.98,436.246 1003.11,436.375 1005.25,436.505 1007.38,436.638 
  1009.52,436.773 1011.65,436.909 1013.79,437.048 1015.93,437.188 1018.06,437.331 1020.2,437.475 1022.33,437.62 1024.47,437.768 1026.6,437.917 1028.74,438.068 
  1030.87,438.22 1033.01,438.374 1035.15,438.529 1037.28,438.686 1039.42,438.844 1041.55,439.003 1043.69,439.163 1045.82,439.325 1047.96,439.488 1050.09,439.652 
  1052.23,439.818 1054.37,439.984 1056.5,440.151 1058.64,440.32 1060.77,440.489 1062.91,440.659 1065.04,440.83 1067.18,441.002 1069.31,441.175 1071.45,441.348 
  1073.58,441.522 1075.72,441.697 1077.86,441.872 1079.99,442.048 1082.13,442.225 1084.26,442.402 1086.4,442.58 1088.53,442.758 1090.67,442.936 1092.8,443.115 
  1094.94,443.295 1097.08,443.475 1099.21,443.655 1101.35,443.836 1103.48,444.016 1105.62,444.197 1107.75,444.379 1109.89,444.56 1112.02,444.742 1114.16,444.924 
  1116.29,445.106 1118.43,445.288 1120.57,445.47 1122.7,445.652 1124.84,445.835 1126.97,446.017 1129.11,446.199 1131.24,446.381 1133.38,446.564 1135.51,446.746 
  1137.65,446.928 1139.79,447.109 1141.92,447.291 1144.06,447.473 1146.19,447.654 1148.33,447.835 1150.46,448.016 1152.6,448.196 1154.73,448.377 1156.87,448.557 
  1159.01,448.736 1161.14,448.916 1163.28,449.095 1165.41,449.274 1167.55,449.452 1169.68,449.63 1171.82,449.807 1173.95,449.985 1176.09,450.161 1178.22,450.337 
  1180.36,450.513 1182.5,450.688 1184.63,450.863 1186.77,451.037 1188.9,451.211 1191.04,451.384 1193.17,451.557 1195.31,451.729 1197.44,451.9 1199.58,452.071 
  1201.72,452.241 1203.85,452.411 1205.99,452.58 1208.12,452.748 1210.26,452.916 1212.39,453.083 1214.53,453.25 1216.66,453.416 1218.8,453.581 1220.93,453.745 
  1223.07,453.909 1225.21,454.072 1227.34,454.234 1229.48,454.395 1231.61,454.556 1233.75,454.716 1235.88,454.875 1238.02,455.034 1240.15,455.191 1242.29,455.348 
  1244.43,455.504 1246.56,455.659 1248.7,455.814 1250.83,455.968 1252.97,456.121 1255.1,456.273 1257.24,456.424 1259.37,456.575 1261.51,456.724 1263.65,456.873 
  1265.78,457.021 1267.92,457.169 1270.05,457.315 1272.19,457.461 1274.32,457.605 1276.46,457.749 1278.59,457.893 1280.73,458.035 1282.86,458.176 1285,458.317 
  1287.14,458.457 1289.27,458.596 1291.41,458.734 1293.54,458.871 1295.68,459.007 1297.81,459.143 1299.95,459.277 1302.08,459.411 1304.22,459.544 1306.36,459.676 
  1308.49,459.807 1310.63,459.938 1312.76,460.067 1314.9,460.196 1317.03,460.323 1319.17,460.45 1321.3,460.576 1323.44,460.701 1325.57,460.825 1327.71,460.949 
  1329.85,461.071 1331.98,461.193 1334.12,461.314 1336.25,461.433 1338.39,461.552 1340.52,461.67 1342.66,461.788 1344.79,461.904 1346.93,462.019 1349.07,462.134 
  1351.2,462.247 1353.34,462.36 1355.47,462.472 1357.61,462.583 1359.74,462.693 1361.88,462.803 1364.01,462.911 1366.15,463.018 1368.29,463.125 1370.42,463.231 
  1372.56,463.336 1374.69,463.44 1376.83,463.543 1378.96,463.645 1381.1,463.747 1383.23,463.847 1385.37,463.947 1387.5,464.046 1389.64,464.143 1391.78,464.241 
  1393.91,464.337 1396.05,464.432 1398.18,464.527 1400.32,464.62 1402.45,464.713 1404.59,464.805 1406.72,464.896 1408.86,464.986 1411,465.076 1413.13,465.164 
  1415.27,465.252 1417.4,465.339 1419.54,465.425 1421.67,465.51 1423.81,465.594 1425.94,465.677 1428.08,465.76 1430.22,465.842 1432.35,465.922 1434.49,466.003 
  1436.62,466.082 1438.76,466.16 1440.89,466.238 1443.03,466.315 1445.16,466.391 1447.3,466.467 1449.43,466.541 1451.57,466.615 1453.71,466.688 1455.84,466.761 
  1457.98,466.832 1460.11,466.903 1462.25,466.973 1464.38,467.043 1466.52,467.111 1468.65,467.179 1470.79,467.247 1472.93,467.313 1475.06,467.379 1477.2,467.444 
  1479.33,467.509 1481.47,467.572 1483.6,467.636 1485.74,467.698 1487.87,467.76 1490.01,467.821 1492.14,467.881 1494.28,467.941 1496.42,468 1498.55,468.059 
  1500.69,468.117 1502.82,468.174 1504.96,468.23 1507.09,468.286 1509.23,468.342 1511.36,468.396 1513.5,468.451 1515.64,468.504 1517.77,468.557 1519.91,468.609 
  1522.04,468.661 1524.18,468.712 1526.31,468.763 1528.45,468.813 1530.58,468.862 1532.72,468.911 1534.86,468.959 1536.99,469.007 1539.13,469.054 1541.26,469.1 
  1543.4,469.146 1545.53,469.192 1547.67,469.237 1549.8,469.281 1551.94,469.325 1554.07,469.368 1556.21,469.411 1558.35,469.453 1560.48,469.495 1562.62,469.536 
  1564.75,469.577 1566.89,469.617 1569.02,469.656 1571.16,469.696 1573.29,469.734 1575.43,469.772 1577.57,469.81 1579.7,469.847 1581.84,469.884 1583.97,469.92 
  1586.11,469.955 1588.24,469.99 1590.38,470.025 1592.51,470.059 1594.65,470.093 1596.78,470.126 1598.92,470.159 1601.06,470.191 1603.19,470.223 1605.33,470.255 
  1607.46,470.285 1609.6,470.316 1611.73,470.346 1613.87,470.375 1616,470.404 1618.14,470.433 1620.28,470.461 1622.41,470.489 1624.55,470.516 1626.68,470.543 
  1628.82,470.57 1630.95,470.596 1633.09,470.621 1635.22,470.646 1637.36,470.671 1639.5,470.695 1641.63,470.719 1643.77,470.742 1645.9,470.765 1648.04,470.788 
  1650.17,470.81 1652.31,470.831 1654.44,470.853 1656.58,470.874 1658.71,470.894 1660.85,470.915 1662.99,470.934 1665.12,470.954 1667.26,470.973 1669.39,470.992 
  1671.53,471.01 1673.66,471.028 1675.8,471.046 1677.93,471.064 1680.07,471.081 1682.21,471.098 1684.34,471.114 1686.48,471.13 1688.61,471.146 1690.75,471.162 
  1692.88,471.177 1695.02,471.192 1697.15,471.206 1699.29,471.221 1701.42,471.235 1703.56,471.249 1705.7,471.262 1707.83,471.275 1709.97,471.288 1712.1,471.301 
  1714.24,471.313 1716.37,471.325 1718.51,471.337 1720.64,471.349 1722.78,471.36 1724.92,471.372 1727.05,471.382 1729.19,471.393 1731.32,471.403 1733.46,471.414 
  1735.59,471.424 1737.73,471.433 1739.86,471.443 1742,471.452 1744.14,471.461 1746.27,471.47 1748.41,471.479 1750.54,471.487 1752.68,471.495 1754.81,471.503 
  1756.95,471.511 1759.08,471.519 1761.22,471.526 1763.35,471.534 1765.49,471.541 1767.63,471.548 1769.76,471.554 1771.9,471.561 1774.03,471.567 1776.17,471.573 
  1778.3,471.579 1780.44,471.585 1782.57,471.591 1784.71,471.596 1786.85,471.601 1788.98,471.607 1791.12,471.612 1793.25,471.616 1795.39,471.621 1797.52,471.626 
  1799.66,471.63 1801.79,471.634 1803.93,471.638 1806.07,471.642 1808.2,471.646 1810.34,471.65 1812.47,471.653 1814.61,471.657 1816.74,471.66 1818.88,471.663 
  1821.01,471.666 1823.15,471.669 1825.28,471.671 1827.42,471.674 1829.56,471.676 1831.69,471.679 1833.83,471.681 1835.96,471.683 1838.1,471.685 1840.23,471.687 
  1842.37,471.688 1844.5,471.69 1846.64,471.692 1848.78,471.693 1850.91,471.694 1853.05,471.695 1855.18,471.696 1857.32,471.697 1859.45,471.698 1861.59,471.699 
  1863.72,471.699 1865.86,471.7 1867.99,471.7 1870.13,471.701 1872.27,471.701 1874.4,471.701 1876.54,471.701 1878.67,471.701 1880.81,471.7 1882.94,471.7 
  1885.08,471.7 1887.21,471.699 1889.35,471.698 1891.49,471.698 1893.62,471.697 1895.76,471.696 1897.89,471.695 1900.03,471.694 1902.16,471.693 1904.3,471.691 
  1906.43,471.69 1908.57,471.689 1910.71,471.687 1912.84,471.686 1914.98,471.684 1917.11,471.682 1919.25,471.681 1921.38,471.679 1923.52,471.677 1925.65,471.675 
  1927.79,471.673 1929.92,471.671 1932.06,471.669 1934.2,471.667 1936.33,471.665 1938.47,471.663 1940.6,471.661 1942.74,471.658 1944.87,471.656 1947.01,471.654 
  1949.14,471.651 1951.28,471.649 1953.42,471.646 1955.55,471.644 1957.69,471.641 1959.82,471.638 1961.96,471.636 1964.09,471.633 1966.23,471.63 1968.36,471.628 
  1970.5,471.625 1972.63,471.622 1974.77,471.619 1976.91,471.616 1979.04,471.613 1981.18,471.61 1983.31,471.607 1985.45,471.604 1987.58,471.601 1989.72,471.598 
  1991.85,471.595 1993.99,471.592 1996.13,471.589 1998.26,471.586 2000.4,471.583 2002.53,471.58 2004.67,471.576 2006.8,471.573 2008.94,471.57 2011.07,471.567 
  2013.21,471.564 2015.35,471.56 2017.48,471.557 2019.62,471.554 2021.75,471.55 2023.89,471.547 2026.02,471.544 2028.16,471.541 2030.29,471.537 2032.43,471.534 
  2034.56,471.531 2036.7,471.527 2038.84,471.524 2040.97,471.52 2043.11,471.517 2045.24,471.514 2047.38,471.51 2049.51,471.507 2051.65,471.504 2053.78,471.5 
  2055.92,471.497 2058.06,471.493 2060.19,471.49 2062.33,471.487 2064.46,471.483 2066.6,471.48 2068.73,471.476 2070.87,471.473 2073,471.47 2075.14,471.466 
  2077.27,471.463 2079.41,471.46 2081.55,471.456 2083.68,471.453 2085.82,471.449 2087.95,471.446 2090.09,471.443 2092.22,471.439 2094.36,471.436 2096.49,471.433 
  2098.63,471.429 2100.77,471.426 2102.9,471.423 2105.04,471.419 2107.17,471.416 2109.31,471.413 2111.44,471.409 2113.58,471.406 2115.71,471.403 2117.85,471.4 
  2119.99,471.396 2122.12,471.393 2124.26,471.39 2126.39,471.387 2128.53,471.383 2130.66,471.38 2132.8,471.377 2134.93,471.374 2137.07,471.37 2139.2,471.367 
  2141.34,471.364 2143.48,471.361 2145.61,471.358 2147.75,471.355 2149.88,471.351 2152.02,471.348 2154.15,471.345 2156.29,471.342 2158.42,471.339 2160.56,471.336 
  2162.7,471.333 2164.83,471.33 2166.97,471.326 2169.1,471.323 2171.24,471.32 2173.37,471.317 2175.51,471.314 2177.64,471.311 2179.78,471.308 2181.92,471.305 
  2184.05,471.302 2186.19,471.299 2188.32,471.296 2190.46,471.293 2192.59,471.29 2194.73,471.287 2196.86,471.284 2199,471.281 2201.13,471.278 2203.27,471.275 
  2205.41,471.273 2207.54,471.27 2209.68,471.267 2211.81,471.264 2213.95,471.261 2216.08,471.259 2218.22,471.256 2220.35,471.253 2222.49,471.25 2224.63,471.248 
  2226.76,471.245 2228.9,471.242 2231.03,471.24 2233.17,471.237 2235.3,471.234 2237.44,471.232 2239.57,471.229 2241.71,471.226 2243.84,471.224 2245.98,471.221 
  2248.12,471.219 2250.25,471.216 2252.39,471.214 2254.52,471.211 2256.66,471.209 2258.79,471.206 2260.93,471.204 2263.06,471.202 2265.2,471.199 2267.34,471.197 
  2269.47,471.194 2271.61,471.192 2273.74,471.19 2275.88,471.188 2278.01,471.185 2280.15,471.183 2282.28,471.181 2284.42,471.178 2286.56,471.176 2288.69,471.174 
  2290.83,471.172 2292.96,471.17 2295.1,471.168 2297.23,471.165 2299.37,471.163 2301.5,471.161 2303.64,471.159 2305.77,471.157 2307.91,471.155 2310.05,471.153 
  2312.18,471.151 2314.32,471.149 2316.45,471.147 2318.59,471.145 2320.72,471.143 2322.86,471.141 2324.99,471.139 2327.13,471.137 2329.27,471.135 2331.4,471.134 
  2333.54,471.132 2335.67,471.13 2337.81,471.128 2339.94,471.126 2342.08,471.124 2344.21,471.123 2346.35,471.121 2348.48,471.119 2350.62,471.117 2352.76,471.116 
  
  "/>
<path clip-path="url(#clip840)" d="
M1961.04 322.316 L2281.64 322.316 L2281.64 166.796 L1961.04 166.796  Z
  " fill="#ffffff" fill-rule="evenodd" fill-opacity="1"/>
<polyline clip-path="url(#clip840)" style="stroke:#000000; stroke-linecap:butt; stroke-linejoin:round; stroke-width:4; stroke-opacity:1; fill:none" points="
  1961.04,322.316 2281.64,322.316 2281.64,166.796 1961.04,166.796 1961.04,322.316 
  "/>
<polyline clip-path="url(#clip840)" style="stroke:#009af9; stroke-linecap:butt; stroke-linejoin:round; stroke-width:4; stroke-opacity:1; fill:none" points="
  1984.74,218.636 2126.97,218.636 
  "/>
<path clip-path="url(#clip840)" d="M2166.5 205.962 L2160.16 223.161 L2172.87 223.161 L2166.5 205.962 M2163.87 201.356 L2169.17 201.356 L2182.34 235.916 L2177.48 235.916 L2174.33 227.05 L2158.75 227.05 L2155.6 235.916 L2150.67 235.916 L2163.87 201.356 Z" fill="#000000" fill-rule="evenodd" fill-opacity="1" /><path clip-path="url(#clip840)" d="M2197.43 199.944 Q2194.33 205.268 2192.82 210.476 Q2191.32 215.684 2191.32 221.032 Q2191.32 226.379 2192.82 231.633 Q2194.35 236.865 2197.43 242.166 L2193.73 242.166 Q2190.25 236.726 2188.52 231.471 Q2186.8 226.217 2186.8 221.032 Q2186.8 215.87 2188.52 210.638 Q2190.23 205.407 2193.73 199.944 L2197.43 199.944 Z" fill="#000000" fill-rule="evenodd" fill-opacity="1" /><path clip-path="url(#clip840)" d="M2209.91 202.629 L2209.91 209.99 L2218.68 209.99 L2218.68 213.3 L2209.91 213.3 L2209.91 227.374 Q2209.91 230.545 2210.76 231.448 Q2211.64 232.351 2214.3 232.351 L2218.68 232.351 L2218.68 235.916 L2214.3 235.916 Q2209.37 235.916 2207.5 234.087 Q2205.62 232.235 2205.62 227.374 L2205.62 213.3 L2202.5 213.3 L2202.5 209.99 L2205.62 209.99 L2205.62 202.629 L2209.91 202.629 Z" fill="#000000" fill-rule="evenodd" fill-opacity="1" /><path clip-path="url(#clip840)" d="M2223.61 199.944 L2227.31 199.944 Q2230.79 205.407 2232.5 210.638 Q2234.24 215.87 2234.24 221.032 Q2234.24 226.217 2232.5 231.471 Q2230.79 236.726 2227.31 242.166 L2223.61 242.166 Q2226.69 236.865 2228.19 231.633 Q2229.72 226.379 2229.72 221.032 Q2229.72 215.684 2228.19 210.476 Q2226.69 205.268 2223.61 199.944 Z" fill="#000000" fill-rule="evenodd" fill-opacity="1" /><polyline clip-path="url(#clip840)" style="stroke:#e26f46; stroke-linecap:butt; stroke-linejoin:round; stroke-width:4; stroke-opacity:1; fill:none" points="
  1984.74,270.476 2126.97,270.476 
  "/>
<path clip-path="url(#clip840)" d="M2155.35 271.251 L2155.35 283.913 L2162.85 283.913 Q2166.62 283.913 2168.43 282.362 Q2170.25 280.788 2170.25 277.571 Q2170.25 274.33 2168.43 272.802 Q2166.62 271.251 2162.85 271.251 L2155.35 271.251 M2155.35 257.038 L2155.35 267.455 L2162.27 267.455 Q2165.69 267.455 2167.36 266.182 Q2169.05 264.885 2169.05 262.247 Q2169.05 259.631 2167.36 258.335 Q2165.69 257.038 2162.27 257.038 L2155.35 257.038 M2150.67 253.196 L2162.62 253.196 Q2167.96 253.196 2170.86 255.418 Q2173.75 257.64 2173.75 261.737 Q2173.75 264.909 2172.27 266.784 Q2170.79 268.659 2167.92 269.122 Q2171.36 269.862 2173.26 272.223 Q2175.18 274.561 2175.18 278.08 Q2175.18 282.709 2172.04 285.233 Q2168.89 287.756 2163.08 287.756 L2150.67 287.756 L2150.67 253.196 Z" fill="#000000" fill-rule="evenodd" fill-opacity="1" /><path clip-path="url(#clip840)" d="M2193.24 251.784 Q2190.14 257.108 2188.63 262.316 Q2187.13 267.524 2187.13 272.872 Q2187.13 278.219 2188.63 283.473 Q2190.16 288.705 2193.24 294.006 L2189.54 294.006 Q2186.06 288.566 2184.33 283.311 Q2182.61 278.057 2182.61 272.872 Q2182.61 267.71 2184.33 262.478 Q2186.04 257.247 2189.54 251.784 L2193.24 251.784 Z" fill="#000000" fill-rule="evenodd" fill-opacity="1" /><path clip-path="url(#clip840)" d="M2205.72 254.469 L2205.72 261.83 L2214.49 261.83 L2214.49 265.14 L2205.72 265.14 L2205.72 279.214 Q2205.72 282.385 2206.57 283.288 Q2207.45 284.191 2210.11 284.191 L2214.49 284.191 L2214.49 287.756 L2210.11 287.756 Q2205.18 287.756 2203.31 285.927 Q2201.43 284.075 2201.43 279.214 L2201.43 265.14 L2198.31 265.14 L2198.31 261.83 L2201.43 261.83 L2201.43 254.469 L2205.72 254.469 Z" fill="#000000" fill-rule="evenodd" fill-opacity="1" /><path clip-path="url(#clip840)" d="M2219.42 251.784 L2223.12 251.784 Q2226.6 257.247 2228.31 262.478 Q2230.05 267.71 2230.05 272.872 Q2230.05 278.057 2228.31 283.311 Q2226.6 288.566 2223.12 294.006 L2219.42 294.006 Q2222.5 288.705 2224 283.473 Q2225.53 278.219 2225.53 272.872 Q2225.53 267.524 2224 262.316 Q2222.5 257.108 2219.42 251.784 Z" fill="#000000" fill-rule="evenodd" fill-opacity="1" /></svg>
