<?xml version="1.0" encoding="utf-8"?>
<svg xmlns="http://www.w3.org/2000/svg" xmlns:xlink="http://www.w3.org/1999/xlink" width="600" height="400" viewBox="0 0 2400 1600">
<defs>
  <clipPath id="clip880">
    <rect x="0" y="0" width="2400" height="1600"/>
  </clipPath>
</defs>
<path clip-path="url(#clip880)" d="
M0 1600 L2400 1600 L2400 0 L0 0  Z
  " fill="#ffffff" fill-rule="evenodd" fill-opacity="1"/>
<defs>
  <clipPath id="clip881">
    <rect x="480" y="0" width="1681" height="1600"/>
  </clipPath>
</defs>
<path clip-path="url(#clip880)" d="
M636.214 1423.18 L1935.92 1423.18 L1935.92 123.472 L636.214 123.472  Z
  " fill="#ffffff" fill-rule="evenodd" fill-opacity="1"/>
<defs>
  <clipPath id="clip882">
    <rect x="636" y="123" width="1301" height="1301"/>
  </clipPath>
</defs>
<polyline clip-path="url(#clip882)" style="stroke:#000000; stroke-linecap:butt; stroke-linejoin:round; stroke-width:2; stroke-opacity:0.1; fill:none" points="
  636.214,1423.18 636.214,123.472 
  "/>
<polyline clip-path="url(#clip882)" style="stroke:#000000; stroke-linecap:butt; stroke-linejoin:round; stroke-width:2; stroke-opacity:0.1; fill:none" points="
  961.141,1423.18 961.141,123.472 
  "/>
<polyline clip-path="url(#clip882)" style="stroke:#000000; stroke-linecap:butt; stroke-linejoin:round; stroke-width:2; stroke-opacity:0.1; fill:none" points="
  1286.07,1423.18 1286.07,123.472 
  "/>
<polyline clip-path="url(#clip882)" style="stroke:#000000; stroke-linecap:butt; stroke-linejoin:round; stroke-width:2; stroke-opacity:0.1; fill:none" points="
  1610.99,1423.18 1610.99,123.472 
  "/>
<polyline clip-path="url(#clip882)" style="stroke:#000000; stroke-linecap:butt; stroke-linejoin:round; stroke-width:2; stroke-opacity:0.1; fill:none" points="
  1935.92,1423.18 1935.92,123.472 
  "/>
<polyline clip-path="url(#clip880)" style="stroke:#000000; stroke-linecap:butt; stroke-linejoin:round; stroke-width:4; stroke-opacity:1; fill:none" points="
  636.214,1423.18 1935.92,1423.18 
  "/>
<polyline clip-path="url(#clip880)" style="stroke:#000000; stroke-linecap:butt; stroke-linejoin:round; stroke-width:4; stroke-opacity:1; fill:none" points="
  636.214,1423.18 636.214,1404.28 
  "/>
<polyline clip-path="url(#clip880)" style="stroke:#000000; stroke-linecap:butt; stroke-linejoin:round; stroke-width:4; stroke-opacity:1; fill:none" points="
  961.141,1423.18 961.141,1404.28 
  "/>
<polyline clip-path="url(#clip880)" style="stroke:#000000; stroke-linecap:butt; stroke-linejoin:round; stroke-width:4; stroke-opacity:1; fill:none" points="
  1286.07,1423.18 1286.07,1404.28 
  "/>
<polyline clip-path="url(#clip880)" style="stroke:#000000; stroke-linecap:butt; stroke-linejoin:round; stroke-width:4; stroke-opacity:1; fill:none" points="
  1610.99,1423.18 1610.99,1404.28 
  "/>
<polyline clip-path="url(#clip880)" style="stroke:#000000; stroke-linecap:butt; stroke-linejoin:round; stroke-width:4; stroke-opacity:1; fill:none" points="
  1935.92,1423.18 1935.92,1404.28 
  "/>
<path clip-path="url(#clip880)" d="M613.599 1454.1 Q609.987 1454.1 608.159 1457.66 Q606.353 1461.2 606.353 1468.33 Q606.353 1475.44 608.159 1479.01 Q609.987 1482.55 613.599 1482.55 Q617.233 1482.55 619.038 1479.01 Q620.867 1475.44 620.867 1468.33 Q620.867 1461.2 619.038 1457.66 Q617.233 1454.1 613.599 1454.1 M613.599 1450.39 Q619.409 1450.39 622.464 1455 Q625.543 1459.58 625.543 1468.33 Q625.543 1477.06 622.464 1481.67 Q619.409 1486.25 613.599 1486.25 Q607.788 1486.25 604.71 1481.67 Q601.654 1477.06 601.654 1468.33 Q601.654 1459.58 604.71 1455 Q607.788 1450.39 613.599 1450.39 Z" fill="#000000" fill-rule="evenodd" fill-opacity="1" /><path clip-path="url(#clip880)" d="M633.76 1479.7 L638.645 1479.7 L638.645 1485.58 L633.76 1485.58 L633.76 1479.7 Z" fill="#000000" fill-rule="evenodd" fill-opacity="1" /><path clip-path="url(#clip880)" d="M658.83 1454.1 Q655.219 1454.1 653.39 1457.66 Q651.584 1461.2 651.584 1468.33 Q651.584 1475.44 653.39 1479.01 Q655.219 1482.55 658.83 1482.55 Q662.464 1482.55 664.27 1479.01 Q666.098 1475.44 666.098 1468.33 Q666.098 1461.2 664.27 1457.66 Q662.464 1454.1 658.83 1454.1 M658.83 1450.39 Q664.64 1450.39 667.695 1455 Q670.774 1459.58 670.774 1468.33 Q670.774 1477.06 667.695 1481.67 Q664.64 1486.25 658.83 1486.25 Q653.02 1486.25 649.941 1481.67 Q646.885 1477.06 646.885 1468.33 Q646.885 1459.58 649.941 1455 Q653.02 1450.39 658.83 1450.39 Z" fill="#000000" fill-rule="evenodd" fill-opacity="1" /><path clip-path="url(#clip880)" d="M939.023 1454.1 Q935.412 1454.1 933.583 1457.66 Q931.778 1461.2 931.778 1468.33 Q931.778 1475.44 933.583 1479.01 Q935.412 1482.55 939.023 1482.55 Q942.657 1482.55 944.463 1479.01 Q946.292 1475.44 946.292 1468.33 Q946.292 1461.2 944.463 1457.66 Q942.657 1454.1 939.023 1454.1 M939.023 1450.39 Q944.833 1450.39 947.889 1455 Q950.968 1459.58 950.968 1468.33 Q950.968 1477.06 947.889 1481.67 Q944.833 1486.25 939.023 1486.25 Q933.213 1486.25 930.134 1481.67 Q927.079 1477.06 927.079 1468.33 Q927.079 1459.58 930.134 1455 Q933.213 1450.39 939.023 1450.39 Z" fill="#000000" fill-rule="evenodd" fill-opacity="1" /><path clip-path="url(#clip880)" d="M959.185 1479.7 L964.069 1479.7 L964.069 1485.58 L959.185 1485.58 L959.185 1479.7 Z" fill="#000000" fill-rule="evenodd" fill-opacity="1" /><path clip-path="url(#clip880)" d="M974.301 1451.02 L992.657 1451.02 L992.657 1454.96 L978.583 1454.96 L978.583 1463.43 Q979.602 1463.08 980.62 1462.92 Q981.639 1462.73 982.657 1462.73 Q988.444 1462.73 991.824 1465.9 Q995.203 1469.08 995.203 1474.49 Q995.203 1480.07 991.731 1483.17 Q988.259 1486.25 981.94 1486.25 Q979.764 1486.25 977.495 1485.88 Q975.25 1485.51 972.842 1484.77 L972.842 1480.07 Q974.926 1481.2 977.148 1481.76 Q979.37 1482.32 981.847 1482.32 Q985.852 1482.32 988.19 1480.21 Q990.528 1478.1 990.528 1474.49 Q990.528 1470.88 988.19 1468.77 Q985.852 1466.67 981.847 1466.67 Q979.972 1466.67 978.097 1467.08 Q976.245 1467.5 974.301 1468.38 L974.301 1451.02 Z" fill="#000000" fill-rule="evenodd" fill-opacity="1" /><path clip-path="url(#clip880)" d="M1253.22 1481.64 L1260.86 1481.64 L1260.86 1455.28 L1252.55 1456.95 L1252.55 1452.69 L1260.81 1451.02 L1265.49 1451.02 L1265.49 1481.64 L1273.13 1481.64 L1273.13 1485.58 L1253.22 1485.58 L1253.22 1481.64 Z" fill="#000000" fill-rule="evenodd" fill-opacity="1" /><path clip-path="url(#clip880)" d="M1282.57 1479.7 L1287.46 1479.7 L1287.46 1485.58 L1282.57 1485.58 L1282.57 1479.7 Z" fill="#000000" fill-rule="evenodd" fill-opacity="1" /><path clip-path="url(#clip880)" d="M1307.64 1454.1 Q1304.03 1454.1 1302.2 1457.66 Q1300.4 1461.2 1300.4 1468.33 Q1300.4 1475.44 1302.2 1479.01 Q1304.03 1482.55 1307.64 1482.55 Q1311.28 1482.55 1313.08 1479.01 Q1314.91 1475.44 1314.91 1468.33 Q1314.91 1461.2 1313.08 1457.66 Q1311.28 1454.1 1307.64 1454.1 M1307.64 1450.39 Q1313.45 1450.39 1316.51 1455 Q1319.59 1459.58 1319.59 1468.33 Q1319.59 1477.06 1316.51 1481.67 Q1313.45 1486.25 1307.64 1486.25 Q1301.83 1486.25 1298.75 1481.67 Q1295.7 1477.06 1295.7 1468.33 Q1295.7 1459.58 1298.75 1455 Q1301.83 1450.39 1307.64 1450.39 Z" fill="#000000" fill-rule="evenodd" fill-opacity="1" /><path clip-path="url(#clip880)" d="M1578.65 1481.64 L1586.28 1481.64 L1586.28 1455.28 L1577.97 1456.95 L1577.97 1452.69 L1586.24 1451.02 L1590.91 1451.02 L1590.91 1481.64 L1598.55 1481.64 L1598.55 1485.58 L1578.65 1485.58 L1578.65 1481.64 Z" fill="#000000" fill-rule="evenodd" fill-opacity="1" /><path clip-path="url(#clip880)" d="M1608 1479.7 L1612.88 1479.7 L1612.88 1485.58 L1608 1485.58 L1608 1479.7 Z" fill="#000000" fill-rule="evenodd" fill-opacity="1" /><path clip-path="url(#clip880)" d="M1623.11 1451.02 L1641.47 1451.02 L1641.47 1454.96 L1627.4 1454.96 L1627.4 1463.43 Q1628.41 1463.08 1629.43 1462.92 Q1630.45 1462.73 1631.47 1462.73 Q1637.26 1462.73 1640.64 1465.9 Q1644.02 1469.08 1644.02 1474.49 Q1644.02 1480.07 1640.54 1483.17 Q1637.07 1486.25 1630.75 1486.25 Q1628.58 1486.25 1626.31 1485.88 Q1624.06 1485.51 1621.65 1484.77 L1621.65 1480.07 Q1623.74 1481.2 1625.96 1481.76 Q1628.18 1482.32 1630.66 1482.32 Q1634.66 1482.32 1637 1480.21 Q1639.34 1478.1 1639.34 1474.49 Q1639.34 1470.88 1637 1468.77 Q1634.66 1466.67 1630.66 1466.67 Q1628.78 1466.67 1626.91 1467.08 Q1625.06 1467.5 1623.11 1468.38 L1623.11 1451.02 Z" fill="#000000" fill-rule="evenodd" fill-opacity="1" /><path clip-path="url(#clip880)" d="M1907.16 1481.64 L1923.48 1481.64 L1923.48 1485.58 L1901.54 1485.58 L1901.54 1481.64 Q1904.2 1478.89 1908.78 1474.26 Q1913.39 1469.61 1914.57 1468.27 Q1916.81 1465.74 1917.69 1464.01 Q1918.6 1462.25 1918.6 1460.56 Q1918.6 1457.8 1916.65 1456.07 Q1914.73 1454.33 1911.63 1454.33 Q1909.43 1454.33 1906.98 1455.09 Q1904.54 1455.86 1901.77 1457.41 L1901.77 1452.69 Q1904.59 1451.55 1907.04 1450.97 Q1909.5 1450.39 1911.54 1450.39 Q1916.91 1450.39 1920.1 1453.08 Q1923.29 1455.77 1923.29 1460.26 Q1923.29 1462.39 1922.48 1464.31 Q1921.7 1466.2 1919.59 1468.8 Q1919.01 1469.47 1915.91 1472.69 Q1912.81 1475.88 1907.16 1481.64 Z" fill="#000000" fill-rule="evenodd" fill-opacity="1" /><path clip-path="url(#clip880)" d="M1933.29 1479.7 L1938.18 1479.7 L1938.18 1485.58 L1933.29 1485.58 L1933.29 1479.7 Z" fill="#000000" fill-rule="evenodd" fill-opacity="1" /><path clip-path="url(#clip880)" d="M1958.36 1454.1 Q1954.75 1454.1 1952.92 1457.66 Q1951.12 1461.2 1951.12 1468.33 Q1951.12 1475.44 1952.92 1479.01 Q1954.75 1482.55 1958.36 1482.55 Q1962 1482.55 1963.8 1479.01 Q1965.63 1475.44 1965.63 1468.33 Q1965.63 1461.2 1963.8 1457.66 Q1962 1454.1 1958.36 1454.1 M1958.36 1450.39 Q1964.17 1450.39 1967.23 1455 Q1970.31 1459.58 1970.31 1468.33 Q1970.31 1477.06 1967.23 1481.67 Q1964.17 1486.25 1958.36 1486.25 Q1952.55 1486.25 1949.48 1481.67 Q1946.42 1477.06 1946.42 1468.33 Q1946.42 1459.58 1949.48 1455 Q1952.55 1450.39 1958.36 1450.39 Z" fill="#000000" fill-rule="evenodd" fill-opacity="1" /><path clip-path="url(#clip880)" d="M1243.94 1518.52 L1257.44 1518.52 L1257.44 1523.07 L1249.8 1523.07 L1249.8 1572.09 L1257.44 1572.09 L1257.44 1576.64 L1243.94 1576.64 L1243.94 1518.52 Z" fill="#000000" fill-rule="evenodd" fill-opacity="1" /><path clip-path="url(#clip880)" d="M1286.05 1526.86 L1277.33 1550.51 L1294.8 1550.51 L1286.05 1526.86 M1282.42 1520.52 L1289.71 1520.52 L1307.82 1568.04 L1301.14 1568.04 L1296.81 1555.85 L1275.39 1555.85 L1271.06 1568.04 L1264.28 1568.04 L1282.42 1520.52 Z" fill="#000000" fill-rule="evenodd" fill-opacity="1" /><path clip-path="url(#clip880)" d="M1328.19 1518.52 L1328.19 1576.64 L1314.7 1576.64 L1314.7 1572.09 L1322.3 1572.09 L1322.3 1523.07 L1314.7 1523.07 L1314.7 1518.52 L1328.19 1518.52 Z" fill="#000000" fill-rule="evenodd" fill-opacity="1" /><polyline clip-path="url(#clip882)" style="stroke:#000000; stroke-linecap:butt; stroke-linejoin:round; stroke-width:2; stroke-opacity:0.1; fill:none" points="
  636.214,1423.18 1935.92,1423.18 
  "/>
<polyline clip-path="url(#clip882)" style="stroke:#000000; stroke-linecap:butt; stroke-linejoin:round; stroke-width:2; stroke-opacity:0.1; fill:none" points="
  636.214,1098.25 1935.92,1098.25 
  "/>
<polyline clip-path="url(#clip882)" style="stroke:#000000; stroke-linecap:butt; stroke-linejoin:round; stroke-width:2; stroke-opacity:0.1; fill:none" points="
  636.214,773.326 1935.92,773.326 
  "/>
<polyline clip-path="url(#clip882)" style="stroke:#000000; stroke-linecap:butt; stroke-linejoin:round; stroke-width:2; stroke-opacity:0.1; fill:none" points="
  636.214,448.399 1935.92,448.399 
  "/>
<polyline clip-path="url(#clip882)" style="stroke:#000000; stroke-linecap:butt; stroke-linejoin:round; stroke-width:2; stroke-opacity:0.1; fill:none" points="
  636.214,123.472 1935.92,123.472 
  "/>
<polyline clip-path="url(#clip880)" style="stroke:#000000; stroke-linecap:butt; stroke-linejoin:round; stroke-width:4; stroke-opacity:1; fill:none" points="
  636.214,1423.18 636.214,123.472 
  "/>
<polyline clip-path="url(#clip880)" style="stroke:#000000; stroke-linecap:butt; stroke-linejoin:round; stroke-width:4; stroke-opacity:1; fill:none" points="
  636.214,1423.18 647.727,1423.18 
  "/>
<polyline clip-path="url(#clip880)" style="stroke:#000000; stroke-linecap:butt; stroke-linejoin:round; stroke-width:4; stroke-opacity:1; fill:none" points="
  636.214,1098.25 647.727,1098.25 
  "/>
<polyline clip-path="url(#clip880)" style="stroke:#000000; stroke-linecap:butt; stroke-linejoin:round; stroke-width:4; stroke-opacity:1; fill:none" points="
  636.214,773.326 647.727,773.326 
  "/>
<polyline clip-path="url(#clip880)" style="stroke:#000000; stroke-linecap:butt; stroke-linejoin:round; stroke-width:4; stroke-opacity:1; fill:none" points="
  636.214,448.399 647.727,448.399 
  "/>
<polyline clip-path="url(#clip880)" style="stroke:#000000; stroke-linecap:butt; stroke-linejoin:round; stroke-width:4; stroke-opacity:1; fill:none" points="
  636.214,123.472 647.727,123.472 
  "/>
<path clip-path="url(#clip880)" d="M543.039 1408.98 Q539.427 1408.98 537.599 1412.54 Q535.793 1416.08 535.793 1423.21 Q535.793 1430.32 537.599 1433.89 Q539.427 1437.43 543.039 1437.43 Q546.673 1437.43 548.478 1433.89 Q550.307 1430.32 550.307 1423.21 Q550.307 1416.08 548.478 1412.54 Q546.673 1408.98 543.039 1408.98 M543.039 1405.27 Q548.849 1405.27 551.904 1409.88 Q554.983 1414.46 554.983 1423.21 Q554.983 1431.94 551.904 1436.55 Q548.849 1441.13 543.039 1441.13 Q537.228 1441.13 534.15 1436.55 Q531.094 1431.94 531.094 1423.21 Q531.094 1414.46 534.15 1409.88 Q537.228 1405.27 543.039 1405.27 Z" fill="#000000" fill-rule="evenodd" fill-opacity="1" /><path clip-path="url(#clip880)" d="M563.2 1434.58 L568.085 1434.58 L568.085 1440.46 L563.2 1440.46 L563.2 1434.58 Z" fill="#000000" fill-rule="evenodd" fill-opacity="1" /><path clip-path="url(#clip880)" d="M588.27 1408.98 Q584.659 1408.98 582.83 1412.54 Q581.024 1416.08 581.024 1423.21 Q581.024 1430.32 582.83 1433.89 Q584.659 1437.43 588.27 1437.43 Q591.904 1437.43 593.71 1433.89 Q595.538 1430.32 595.538 1423.21 Q595.538 1416.08 593.71 1412.54 Q591.904 1408.98 588.27 1408.98 M588.27 1405.27 Q594.08 1405.27 597.135 1409.88 Q600.214 1414.46 600.214 1423.21 Q600.214 1431.94 597.135 1436.55 Q594.08 1441.13 588.27 1441.13 Q582.46 1441.13 579.381 1436.55 Q576.325 1431.94 576.325 1423.21 Q576.325 1414.46 579.381 1409.88 Q582.46 1405.27 588.27 1405.27 Z" fill="#000000" fill-rule="evenodd" fill-opacity="1" /><path clip-path="url(#clip880)" d="M544.034 1084.05 Q540.423 1084.05 538.594 1087.62 Q536.789 1091.16 536.789 1098.29 Q536.789 1105.39 538.594 1108.96 Q540.423 1112.5 544.034 1112.5 Q547.668 1112.5 549.474 1108.96 Q551.302 1105.39 551.302 1098.29 Q551.302 1091.16 549.474 1087.62 Q547.668 1084.05 544.034 1084.05 M544.034 1080.35 Q549.844 1080.35 552.9 1084.95 Q555.978 1089.54 555.978 1098.29 Q555.978 1107.01 552.9 1111.62 Q549.844 1116.2 544.034 1116.2 Q538.224 1116.2 535.145 1111.62 Q532.09 1107.01 532.09 1098.29 Q532.09 1089.54 535.145 1084.95 Q538.224 1080.35 544.034 1080.35 Z" fill="#000000" fill-rule="evenodd" fill-opacity="1" /><path clip-path="url(#clip880)" d="M564.196 1109.65 L569.08 1109.65 L569.08 1115.53 L564.196 1115.53 L564.196 1109.65 Z" fill="#000000" fill-rule="evenodd" fill-opacity="1" /><path clip-path="url(#clip880)" d="M579.312 1080.97 L597.668 1080.97 L597.668 1084.91 L583.594 1084.91 L583.594 1093.38 Q584.612 1093.03 585.631 1092.87 Q586.649 1092.69 587.668 1092.69 Q593.455 1092.69 596.835 1095.86 Q600.214 1099.03 600.214 1104.45 Q600.214 1110.02 596.742 1113.13 Q593.27 1116.2 586.95 1116.2 Q584.774 1116.2 582.506 1115.83 Q580.261 1115.46 577.853 1114.72 L577.853 1110.02 Q579.937 1111.16 582.159 1111.71 Q584.381 1112.27 586.858 1112.27 Q590.862 1112.27 593.2 1110.16 Q595.538 1108.06 595.538 1104.45 Q595.538 1100.83 593.2 1098.73 Q590.862 1096.62 586.858 1096.62 Q584.983 1096.62 583.108 1097.04 Q581.256 1097.45 579.312 1098.33 L579.312 1080.97 Z" fill="#000000" fill-rule="evenodd" fill-opacity="1" /><path clip-path="url(#clip880)" d="M533.849 786.671 L541.488 786.671 L541.488 760.305 L533.177 761.972 L533.177 757.713 L541.441 756.046 L546.117 756.046 L546.117 786.671 L553.756 786.671 L553.756 790.606 L533.849 790.606 L533.849 786.671 Z" fill="#000000" fill-rule="evenodd" fill-opacity="1" /><path clip-path="url(#clip880)" d="M563.2 784.726 L568.085 784.726 L568.085 790.606 L563.2 790.606 L563.2 784.726 Z" fill="#000000" fill-rule="evenodd" fill-opacity="1" /><path clip-path="url(#clip880)" d="M588.27 759.125 Q584.659 759.125 582.83 762.689 Q581.024 766.231 581.024 773.361 Q581.024 780.467 582.83 784.032 Q584.659 787.574 588.27 787.574 Q591.904 787.574 593.71 784.032 Q595.538 780.467 595.538 773.361 Q595.538 766.231 593.71 762.689 Q591.904 759.125 588.27 759.125 M588.27 755.421 Q594.08 755.421 597.135 760.027 Q600.214 764.611 600.214 773.361 Q600.214 782.088 597.135 786.694 Q594.08 791.277 588.27 791.277 Q582.46 791.277 579.381 786.694 Q576.325 782.088 576.325 773.361 Q576.325 764.611 579.381 760.027 Q582.46 755.421 588.27 755.421 Z" fill="#000000" fill-rule="evenodd" fill-opacity="1" /><path clip-path="url(#clip880)" d="M534.844 461.744 L542.483 461.744 L542.483 435.378 L534.173 437.045 L534.173 432.786 L542.437 431.119 L547.113 431.119 L547.113 461.744 L554.751 461.744 L554.751 465.679 L534.844 465.679 L534.844 461.744 Z" fill="#000000" fill-rule="evenodd" fill-opacity="1" /><path clip-path="url(#clip880)" d="M564.196 459.799 L569.08 459.799 L569.08 465.679 L564.196 465.679 L564.196 459.799 Z" fill="#000000" fill-rule="evenodd" fill-opacity="1" /><path clip-path="url(#clip880)" d="M579.312 431.119 L597.668 431.119 L597.668 435.054 L583.594 435.054 L583.594 443.526 Q584.612 443.179 585.631 443.017 Q586.649 442.832 587.668 442.832 Q593.455 442.832 596.835 446.003 Q600.214 449.175 600.214 454.591 Q600.214 460.17 596.742 463.272 Q593.27 466.35 586.95 466.35 Q584.774 466.35 582.506 465.98 Q580.261 465.61 577.853 464.869 L577.853 460.17 Q579.937 461.304 582.159 461.86 Q584.381 462.415 586.858 462.415 Q590.862 462.415 593.2 460.309 Q595.538 458.202 595.538 454.591 Q595.538 450.98 593.2 448.874 Q590.862 446.767 586.858 446.767 Q584.983 446.767 583.108 447.184 Q581.256 447.6 579.312 448.48 L579.312 431.119 Z" fill="#000000" fill-rule="evenodd" fill-opacity="1" /><path clip-path="url(#clip880)" d="M537.066 136.817 L553.386 136.817 L553.386 140.752 L531.441 140.752 L531.441 136.817 Q534.103 134.062 538.687 129.433 Q543.293 124.78 544.474 123.437 Q546.719 120.914 547.599 119.178 Q548.501 117.419 548.501 115.729 Q548.501 112.974 546.557 111.238 Q544.636 109.502 541.534 109.502 Q539.335 109.502 536.881 110.266 Q534.451 111.03 531.673 112.581 L531.673 107.859 Q534.497 106.725 536.951 106.146 Q539.404 105.567 541.441 105.567 Q546.812 105.567 550.006 108.252 Q553.201 110.937 553.201 115.428 Q553.201 117.558 552.39 119.479 Q551.603 121.377 549.497 123.97 Q548.918 124.641 545.816 127.859 Q542.714 131.053 537.066 136.817 Z" fill="#000000" fill-rule="evenodd" fill-opacity="1" /><path clip-path="url(#clip880)" d="M563.2 134.873 L568.085 134.873 L568.085 140.752 L563.2 140.752 L563.2 134.873 Z" fill="#000000" fill-rule="evenodd" fill-opacity="1" /><path clip-path="url(#clip880)" d="M588.27 109.271 Q584.659 109.271 582.83 112.836 Q581.024 116.377 581.024 123.507 Q581.024 130.613 582.83 134.178 Q584.659 137.72 588.27 137.72 Q591.904 137.72 593.71 134.178 Q595.538 130.613 595.538 123.507 Q595.538 116.377 593.71 112.836 Q591.904 109.271 588.27 109.271 M588.27 105.567 Q594.08 105.567 597.135 110.174 Q600.214 114.757 600.214 123.507 Q600.214 132.234 597.135 136.84 Q594.08 141.423 588.27 141.423 Q582.46 141.423 579.381 136.84 Q576.325 132.234 576.325 123.507 Q576.325 114.757 579.381 110.174 Q582.46 105.567 588.27 105.567 Z" fill="#000000" fill-rule="evenodd" fill-opacity="1" /><path clip-path="url(#clip880)" d="M431.313 815.515 L431.313 802.019 L435.864 802.019 L435.864 809.658 L484.88 809.658 L484.88 802.019 L489.432 802.019 L489.432 815.515 L431.313 815.515 Z" fill="#000000" fill-rule="evenodd" fill-opacity="1" /><path clip-path="url(#clip880)" d="M458.144 782.859 L475.555 782.859 L475.555 772.546 Q475.555 767.358 473.422 764.876 Q471.258 762.361 466.834 762.361 Q462.378 762.361 460.277 764.876 Q458.144 767.358 458.144 772.546 L458.144 782.859 M438.602 782.859 L452.925 782.859 L452.925 773.342 Q452.925 768.631 451.174 766.34 Q449.392 764.016 445.763 764.016 Q442.167 764.016 440.384 766.34 Q438.602 768.631 438.602 773.342 L438.602 782.859 M433.318 789.288 L433.318 772.864 Q433.318 765.512 436.374 761.534 Q439.429 757.555 445.063 757.555 Q449.423 757.555 452.002 759.592 Q454.58 761.629 455.216 765.576 Q456.235 760.833 459.481 758.223 Q462.696 755.582 467.534 755.582 Q473.9 755.582 477.369 759.91 Q480.838 764.239 480.838 772.228 L480.838 789.288 L433.318 789.288 Z" fill="#000000" fill-rule="evenodd" fill-opacity="1" /><path clip-path="url(#clip880)" d="M431.313 731.137 L489.432 731.137 L489.432 744.633 L484.88 744.633 L484.88 737.026 L435.864 737.026 L435.864 744.633 L431.313 744.633 L431.313 731.137 Z" fill="#000000" fill-rule="evenodd" fill-opacity="1" /><path clip-path="url(#clip880)" d="M838.929 12.096 L873.686 12.096 L873.686 18.9825 L847.112 18.9825 L847.112 36.8065 L871.093 36.8065 L871.093 43.6931 L847.112 43.6931 L847.112 72.576 L838.929 72.576 L838.929 12.096 Z" fill="#000000" fill-rule="evenodd" fill-opacity="1" /><path clip-path="url(#clip880)" d="M880.289 27.2059 L887.743 27.2059 L887.743 72.576 L880.289 72.576 L880.289 27.2059 M880.289 9.54393 L887.743 9.54393 L887.743 18.9825 L880.289 18.9825 L880.289 9.54393 Z" fill="#000000" fill-rule="evenodd" fill-opacity="1" /><path clip-path="url(#clip880)" d="M933.194 49.3643 Q933.194 41.2625 929.832 36.8065 Q926.51 32.3505 920.474 32.3505 Q914.479 32.3505 911.116 36.8065 Q907.795 41.2625 907.795 49.3643 Q907.795 57.4256 911.116 61.8816 Q914.479 66.3376 920.474 66.3376 Q926.51 66.3376 929.832 61.8816 Q933.194 57.4256 933.194 49.3643 M940.647 66.9452 Q940.647 78.5308 935.503 84.1616 Q930.358 89.8329 919.745 89.8329 Q915.815 89.8329 912.332 89.2252 Q908.848 88.6581 905.567 87.4428 L905.567 80.1917 Q908.848 81.9741 912.048 82.8248 Q915.248 83.6755 918.57 83.6755 Q925.902 83.6755 929.548 79.8271 Q933.194 76.0193 933.194 68.282 L933.194 64.5957 Q930.885 68.6061 927.279 70.5911 Q923.674 72.576 918.651 72.576 Q910.306 72.576 905.202 66.2161 Q900.098 59.8562 900.098 49.3643 Q900.098 38.832 905.202 32.472 Q910.306 26.1121 918.651 26.1121 Q923.674 26.1121 927.279 28.0971 Q930.885 30.082 933.194 34.0924 L933.194 27.2059 L940.647 27.2059 L940.647 66.9452 Z" fill="#000000" fill-rule="evenodd" fill-opacity="1" /><path clip-path="url(#clip880)" d="M957.054 62.2867 L965.601 62.2867 L965.601 72.576 L957.054 72.576 L957.054 62.2867 Z" fill="#000000" fill-rule="evenodd" fill-opacity="1" /><path clip-path="url(#clip880)" d="M1032.28 19.2256 L1011.62 51.5113 L1032.28 51.5113 L1032.28 19.2256 M1030.13 12.096 L1040.42 12.096 L1040.42 51.5113 L1049.05 51.5113 L1049.05 58.3168 L1040.42 58.3168 L1040.42 72.576 L1032.28 72.576 L1032.28 58.3168 L1004.98 58.3168 L1004.98 50.4176 L1030.13 12.096 Z" fill="#000000" fill-rule="evenodd" fill-opacity="1" /><path clip-path="url(#clip880)" d="M1062.58 62.2867 L1071.13 62.2867 L1071.13 72.576 L1062.58 72.576 L1062.58 62.2867 Z" fill="#000000" fill-rule="evenodd" fill-opacity="1" /><path clip-path="url(#clip880)" d="M1096 65.6895 L1124.56 65.6895 L1124.56 72.576 L1086.16 72.576 L1086.16 65.6895 Q1090.81 60.8689 1098.84 52.7671 Q1106.9 44.6248 1108.96 42.2752 Q1112.89 37.8598 1114.43 34.8216 Q1116.01 31.7429 1116.01 28.7857 Q1116.01 23.9651 1112.61 20.927 Q1109.25 17.8888 1103.82 17.8888 Q1099.97 17.8888 1095.68 19.2256 Q1091.42 20.5624 1086.56 23.2765 L1086.56 15.0127 Q1091.5 13.0277 1095.8 12.015 Q1100.09 11.0023 1103.66 11.0023 Q1113.05 11.0023 1118.64 15.7013 Q1124.23 20.4004 1124.23 28.2591 Q1124.23 31.9859 1122.82 35.3482 Q1121.44 38.6699 1117.75 43.2069 Q1116.74 44.3817 1111.31 50.0125 Q1105.88 55.6027 1096 65.6895 Z" fill="#000000" fill-rule="evenodd" fill-opacity="1" /><path clip-path="url(#clip880)" d="M1175.56 43.6931 L1175.56 65.8515 L1188.68 65.8515 Q1195.29 65.8515 1198.45 63.1374 Q1201.65 60.3828 1201.65 54.752 Q1201.65 49.0808 1198.45 46.4072 Q1195.29 43.6931 1188.68 43.6931 L1175.56 43.6931 M1175.56 18.8205 L1175.56 37.0496 L1187.67 37.0496 Q1193.67 37.0496 1196.58 34.8216 Q1199.54 32.5531 1199.54 27.935 Q1199.54 23.3575 1196.58 21.089 Q1193.67 18.8205 1187.67 18.8205 L1175.56 18.8205 M1167.38 12.096 L1188.28 12.096 Q1197.64 12.096 1202.7 15.9849 Q1207.76 19.8737 1207.76 27.0438 Q1207.76 32.5936 1205.17 35.8748 Q1202.58 39.156 1197.56 39.9662 Q1203.59 41.2625 1206.91 45.3944 Q1210.28 49.4858 1210.28 55.6432 Q1210.28 63.745 1204.77 68.1605 Q1199.26 72.576 1189.09 72.576 L1167.38 72.576 L1167.38 12.096 Z" fill="#000000" fill-rule="evenodd" fill-opacity="1" /><path clip-path="url(#clip880)" d="M1268.24 9.62495 Q1262.82 18.942 1260.18 28.0566 Q1257.55 37.1711 1257.55 46.5287 Q1257.55 55.8863 1260.18 65.0818 Q1262.86 74.2369 1268.24 83.5134 L1261.76 83.5134 Q1255.69 73.9938 1252.65 64.7983 Q1249.65 55.6027 1249.65 46.5287 Q1249.65 37.4952 1252.65 28.3401 Q1255.65 19.1851 1261.76 9.62495 L1268.24 9.62495 Z" fill="#000000" fill-rule="evenodd" fill-opacity="1" /><path clip-path="url(#clip880)" d="M1291.21 18.8205 L1291.21 41.5461 L1301.5 41.5461 Q1307.21 41.5461 1310.33 38.5889 Q1313.45 35.6318 1313.45 30.163 Q1313.45 24.7348 1310.33 21.7777 Q1307.21 18.8205 1301.5 18.8205 L1291.21 18.8205 M1283.03 12.096 L1301.5 12.096 Q1311.67 12.096 1316.85 16.714 Q1322.08 21.2916 1322.08 30.163 Q1322.08 39.1155 1316.85 43.6931 Q1311.67 48.2706 1301.5 48.2706 L1291.21 48.2706 L1291.21 72.576 L1283.03 72.576 L1283.03 12.096 Z" fill="#000000" fill-rule="evenodd" fill-opacity="1" /><path clip-path="url(#clip880)" d="M1370.45 45.1919 L1370.45 72.576 L1362.99 72.576 L1362.99 45.4349 Q1362.99 38.994 1360.48 35.7938 Q1357.97 32.5936 1352.95 32.5936 Q1346.91 32.5936 1343.43 36.4419 Q1339.95 40.2903 1339.95 46.9338 L1339.95 72.576 L1332.45 72.576 L1332.45 9.54393 L1339.95 9.54393 L1339.95 34.2544 Q1342.62 30.163 1346.22 28.1376 Q1349.87 26.1121 1354.61 26.1121 Q1362.43 26.1121 1366.44 30.9732 Q1370.45 35.7938 1370.45 45.1919 Z" fill="#000000" fill-rule="evenodd" fill-opacity="1" /><path clip-path="url(#clip880)" d="M1405.93 49.7694 Q1396.9 49.7694 1393.42 51.8354 Q1389.93 53.9013 1389.93 58.8839 Q1389.93 62.8538 1392.53 65.2034 Q1395.16 67.5124 1399.66 67.5124 Q1405.85 67.5124 1409.58 63.1374 Q1413.35 58.7219 1413.35 51.4303 L1413.35 49.7694 L1405.93 49.7694 M1420.8 46.6907 L1420.8 72.576 L1413.35 72.576 L1413.35 65.6895 Q1410.8 69.8214 1406.99 71.8063 Q1403.18 73.7508 1397.67 73.7508 Q1390.7 73.7508 1386.57 69.8619 Q1382.48 65.9325 1382.48 59.3701 Q1382.48 51.7138 1387.58 47.825 Q1392.73 43.9361 1402.9 43.9361 L1413.35 43.9361 L1413.35 43.2069 Q1413.35 38.0623 1409.94 35.2672 Q1406.58 32.4315 1400.47 32.4315 Q1396.58 32.4315 1392.89 33.3632 Q1389.2 34.295 1385.8 36.1584 L1385.8 29.2718 Q1389.89 27.692 1393.74 26.9223 Q1397.59 26.1121 1401.24 26.1121 Q1411.08 26.1121 1415.94 31.2163 Q1420.8 36.3204 1420.8 46.6907 Z" fill="#000000" fill-rule="evenodd" fill-opacity="1" /><path clip-path="url(#clip880)" d="M1465.08 28.5427 L1465.08 35.5912 Q1461.92 33.9709 1458.52 33.1607 Q1455.11 32.3505 1451.47 32.3505 Q1445.92 32.3505 1443.12 34.0519 Q1440.37 35.7533 1440.37 39.156 Q1440.37 41.7486 1442.35 43.2475 Q1444.34 44.7058 1450.33 46.0426 L1452.88 46.6097 Q1460.82 48.3111 1464.15 51.4303 Q1467.51 54.509 1467.51 60.0587 Q1467.51 66.3781 1462.48 70.0644 Q1457.5 73.7508 1448.75 73.7508 Q1445.11 73.7508 1441.14 73.0216 Q1437.21 72.3329 1432.83 70.9151 L1432.83 63.2184 Q1436.96 65.3654 1440.97 66.4591 Q1444.99 67.5124 1448.91 67.5124 Q1454.18 67.5124 1457.02 65.73 Q1459.85 63.9071 1459.85 60.6258 Q1459.85 57.5877 1457.79 55.9673 Q1455.76 54.3469 1448.83 52.8481 L1446.24 52.2405 Q1439.31 50.7821 1436.24 47.7845 Q1433.16 44.7463 1433.16 39.4801 Q1433.16 33.0797 1437.69 29.5959 Q1442.23 26.1121 1450.58 26.1121 Q1454.71 26.1121 1458.35 26.7198 Q1462 27.3274 1465.08 28.5427 Z" fill="#000000" fill-rule="evenodd" fill-opacity="1" /><path clip-path="url(#clip880)" d="M1518.18 48.0275 L1518.18 51.6733 L1483.91 51.6733 Q1484.4 59.3701 1488.53 63.421 Q1492.7 67.4314 1500.12 67.4314 Q1504.41 67.4314 1508.42 66.3781 Q1512.47 65.3249 1516.44 63.2184 L1516.44 70.267 Q1512.43 71.9684 1508.22 72.8596 Q1504.01 73.7508 1499.67 73.7508 Q1488.82 73.7508 1482.46 67.4314 Q1476.14 61.1119 1476.14 50.3365 Q1476.14 39.1965 1482.13 32.6746 Q1488.17 26.1121 1498.38 26.1121 Q1507.53 26.1121 1512.84 32.0264 Q1518.18 37.9003 1518.18 48.0275 M1510.73 45.84 Q1510.65 39.7232 1507.29 36.0774 Q1503.97 32.4315 1498.46 32.4315 Q1492.22 32.4315 1488.45 35.9558 Q1484.72 39.4801 1484.16 45.8805 L1510.73 45.84 Z" fill="#000000" fill-rule="evenodd" fill-opacity="1" /><path clip-path="url(#clip880)" d="M1564 65.7705 L1564 89.8329 L1556.51 89.8329 L1556.51 27.2059 L1564 27.2059 L1564 34.0924 Q1566.35 30.0415 1569.91 28.0971 Q1573.52 26.1121 1578.5 26.1121 Q1586.77 26.1121 1591.91 32.6746 Q1597.1 39.2371 1597.1 49.9314 Q1597.1 60.6258 1591.91 67.1883 Q1586.77 73.7508 1578.5 73.7508 Q1573.52 73.7508 1569.91 71.8063 Q1566.35 69.8214 1564 65.7705 M1589.36 49.9314 Q1589.36 41.7081 1585.96 37.0496 Q1582.59 32.3505 1576.68 32.3505 Q1570.77 32.3505 1567.36 37.0496 Q1564 41.7081 1564 49.9314 Q1564 58.1548 1567.36 62.8538 Q1570.77 67.5124 1576.68 67.5124 Q1582.59 67.5124 1585.96 62.8538 Q1589.36 58.1548 1589.36 49.9314 Z" fill="#000000" fill-rule="evenodd" fill-opacity="1" /><path clip-path="url(#clip880)" d="M1609.45 9.54393 L1616.91 9.54393 L1616.91 72.576 L1609.45 72.576 L1609.45 9.54393 Z" fill="#000000" fill-rule="evenodd" fill-opacity="1" /><path clip-path="url(#clip880)" d="M1650.08 32.4315 Q1644.09 32.4315 1640.6 37.1306 Q1637.12 41.7891 1637.12 49.9314 Q1637.12 58.0738 1640.56 62.7728 Q1644.05 67.4314 1650.08 67.4314 Q1656.04 67.4314 1659.52 62.7323 Q1663 58.0333 1663 49.9314 Q1663 41.8701 1659.52 37.1711 Q1656.04 32.4315 1650.08 32.4315 M1650.08 26.1121 Q1659.8 26.1121 1665.35 32.4315 Q1670.9 38.7509 1670.9 49.9314 Q1670.9 61.0714 1665.35 67.4314 Q1659.8 73.7508 1650.08 73.7508 Q1640.32 73.7508 1634.77 67.4314 Q1629.26 61.0714 1629.26 49.9314 Q1629.26 38.7509 1634.77 32.4315 Q1640.32 26.1121 1650.08 26.1121 Z" fill="#000000" fill-rule="evenodd" fill-opacity="1" /><path clip-path="url(#clip880)" d="M1690.63 14.324 L1690.63 27.2059 L1705.98 27.2059 L1705.98 32.9987 L1690.63 32.9987 L1690.63 57.6282 Q1690.63 63.1779 1692.13 64.7578 Q1693.67 66.3376 1698.33 66.3376 L1705.98 66.3376 L1705.98 72.576 L1698.33 72.576 Q1689.7 72.576 1686.42 69.3758 Q1683.14 66.1351 1683.14 57.6282 L1683.14 32.9987 L1677.67 32.9987 L1677.67 27.2059 L1683.14 27.2059 L1683.14 14.324 L1690.63 14.324 Z" fill="#000000" fill-rule="evenodd" fill-opacity="1" /><path clip-path="url(#clip880)" d="M1714.61 9.62495 L1721.09 9.62495 Q1727.17 19.1851 1730.17 28.3401 Q1733.21 37.4952 1733.21 46.5287 Q1733.21 55.6027 1730.17 64.7983 Q1727.17 73.9938 1721.09 83.5134 L1714.61 83.5134 Q1720 74.2369 1722.63 65.0818 Q1725.31 55.8863 1725.31 46.5287 Q1725.31 37.1711 1722.63 28.0566 Q1720 18.942 1714.61 9.62495 Z" fill="#000000" fill-rule="evenodd" fill-opacity="1" /><polyline clip-path="url(#clip882)" style="stroke:#009af9; stroke-linecap:butt; stroke-linejoin:round; stroke-width:8; stroke-opacity:1; fill:none" points="
  636.214,1423.18 655.627,1418.29 674.837,1413.38 693.846,1408.45 712.657,1403.5 731.27,1398.53 749.689,1393.54 767.916,1388.53 785.951,1383.51 803.798,1378.47 
  821.459,1373.42 838.934,1368.35 856.226,1363.27 873.337,1358.17 890.268,1353.06 907.022,1347.94 923.6,1342.81 940.003,1337.66 956.233,1332.51 972.291,1327.35 
  988.18,1322.17 1003.9,1316.99 1019.45,1311.8 1034.84,1306.6 1050.06,1301.4 1065.12,1296.19 1080.02,1290.97 1094.76,1285.75 1109.34,1280.53 1123.75,1275.29 
  1138.01,1270.06 1152.12,1264.82 1166.06,1259.58 1179.85,1254.34 1193.49,1249.09 1206.97,1243.85 1220.3,1238.6 1233.47,1233.35 1246.49,1228.11 1259.36,1222.86 
  1272.07,1217.62 1284.63,1212.37 1297.04,1207.13 1309.3,1201.89 1321.41,1196.65 1333.36,1191.42 1345.16,1186.19 1356.81,1180.96 1368.3,1175.74 1379.64,1170.52 
  1390.83,1165.31 1401.87,1160.1 1412.75,1154.9 1423.47,1149.71 1434.04,1144.52 1444.46,1139.35 1454.71,1134.17 1464.81,1129.01 1474.75,1123.86 1484.54,1118.71 
  1494.16,1113.58 1503.62,1108.45 1512.92,1103.34 1522.06,1098.23 1531.03,1093.14 1539.84,1088.05 1548.49,1082.98 1556.97,1077.93 1565.28,1072.88 1573.43,1067.85 
  1581.41,1062.83 1589.22,1057.82 1596.86,1052.83 1604.33,1047.86 1611.63,1042.9 1618.75,1037.95 1625.71,1033.02 1632.49,1028.11 1639.11,1023.21 1645.55,1018.33 
  1651.81,1013.47 1657.9,1008.63 1663.82,1003.8 1669.57,998.997 1675.14,994.209 1680.53,989.441 1685.75,984.692 1690.8,979.964 1695.67,975.256 1700.37,970.569 
  1704.89,965.903 1709.25,961.259 1713.43,956.637 1717.44,952.037 1721.28,947.459 1724.96,942.905 1728.46,938.374 1731.8,933.867 1734.97,929.384 1737.98,924.925 
  1740.82,920.491 1743.5,916.082 1746.02,911.697 1748.38,907.339 1750.58,903.006 1752.62,898.699 1754.52,894.418 1756.25,890.164 1757.84,885.937 1759.28,881.737 
  1760.57,877.564 1761.72,873.419 1762.72,869.301 1763.58,865.212 1764.31,861.151 1764.9,857.118 1765.35,853.114 1765.68,849.138 1765.87,845.192 1765.93,841.275 
  1765.87,837.387 1765.69,833.529 1765.39,829.701 1764.97,825.902 1764.43,822.133 1763.79,818.394 1763.03,814.685 1762.16,811.006 1761.2,807.357 1760.12,803.739 
  1758.95,800.151 1757.68,796.593 1756.31,793.066 1754.86,789.57 1753.31,786.104 1751.67,782.669 1749.94,779.264 1748.13,775.89 1746.24,772.547 1744.27,769.235 
  1742.23,765.953 1740.1,762.702 1737.91,759.482 1735.64,756.292 1733.31,753.134 1730.91,750.006 1728.44,746.909 1725.91,743.842 1723.32,740.806 1720.68,737.8 
  1717.97,734.826 1715.21,731.881 1712.4,728.967 1709.54,726.083 1706.63,723.23 1703.68,720.406 1700.68,717.613 1697.63,714.849 1694.55,712.116 1691.43,709.412 
  1688.27,706.738 1685.07,704.094 1681.84,701.479 1678.57,698.893 1675.27,696.337 1671.95,693.809 1668.59,691.311 1665.21,688.841 1661.8,686.4 1658.37,683.987 
  1654.91,681.603 1651.43,679.247 1647.93,676.919 1644.42,674.619 1640.88,672.346 1637.33,670.101 1633.76,667.884 1630.17,665.693 1626.58,663.53 1622.97,661.393 
  1619.35,659.284 1615.71,657.201 1612.07,655.144 1608.42,653.114 1604.77,651.11 1601.11,649.131 1597.44,647.178 1593.77,645.251 1590.09,643.35 1586.41,641.473 
  1582.73,639.622 1579.05,637.795 1575.37,635.994 1571.69,634.216 1568.01,632.463 1564.33,630.734 1560.65,629.029 1556.98,627.348 1553.31,625.691 1549.65,624.057 
  1545.99,622.446 1542.33,620.858 1538.68,619.293 1535.04,617.75 1531.41,616.23 1527.78,614.732 1524.16,613.257 1520.55,611.803 1516.95,610.371 1513.36,608.96 
  1509.78,607.571 1506.21,606.203 1502.66,604.856 1499.11,603.529 1495.57,602.223 1492.05,600.938 1488.54,599.672 1485.04,598.427 1481.56,597.201 1478.09,595.995 
  1474.63,594.808 1471.19,593.64 1467.76,592.491 1464.34,591.362 1460.94,590.25 1457.56,589.157 1454.19,588.083 1450.83,587.026 1447.5,585.988 1444.17,584.967 
  1440.87,583.963 1437.58,582.977 1434.31,582.008 1431.05,581.056 1427.81,580.121 1424.59,579.202 1421.39,578.3 1418.2,577.414 1415.04,576.545 1411.89,575.691 
  1408.76,574.853 1405.64,574.031 1402.55,573.224 1399.47,572.432 1396.42,571.655 1393.38,570.894 1390.36,570.147 1387.36,569.414 1384.38,568.696 1381.41,567.993 
  1378.47,567.303 1375.55,566.628 1372.64,565.966 1369.76,565.318 1366.89,564.683 1364.05,564.062 1361.22,563.453 1358.41,562.858 1355.62,562.276 1352.85,561.706 
  1350.11,561.149 1347.38,560.604 1344.67,560.072 1341.98,559.551 1339.31,559.043 1336.66,558.546 1334.03,558.061 1331.42,557.588 1328.83,557.125 1326.25,556.674 
  1323.7,556.234 1321.17,555.805 1318.66,555.387 1316.16,554.979 1313.69,554.582 1311.24,554.195 1308.8,553.818 1306.39,553.451 1303.99,553.095 1301.61,552.748 
  1299.26,552.411 1296.92,552.083 1294.6,551.765 1292.3,551.456 1290.02,551.156 1287.75,550.865 1285.51,550.583 1283.29,550.31 1281.08,550.045 1278.89,549.789 
  1276.73,549.542 1274.58,549.303 1272.45,549.072 1270.33,548.849 1268.24,548.634 1266.17,548.426 1264.11,548.227 1262.07,548.035 1260.05,547.85 1258.05,547.673 
  1256.07,547.504 1254.1,547.341 1252.15,547.186 1250.22,547.037 1248.31,546.895 1246.42,546.76 1244.54,546.632 1242.69,546.51 1240.84,546.394 1239.02,546.285 
  1237.22,546.183 1235.43,546.086 1233.66,545.995 1231.9,545.911 1230.17,545.832 1228.45,545.759 1226.74,545.691 1225.06,545.63 1223.39,545.573 1221.74,545.523 
  1220.1,545.477 1218.48,545.437 1216.88,545.402 1215.29,545.372 1213.72,545.346 1212.17,545.326 1210.63,545.311 1209.11,545.3 1207.6,545.294 1206.11,545.292 
  1204.64,545.295 1203.18,545.302 1201.73,545.313 1200.31,545.329 1198.89,545.349 1197.49,545.372 1196.11,545.4 1194.74,545.432 1193.39,545.468 1192.05,545.507 
  1190.73,545.55 1189.42,545.597 1188.12,545.647 1186.84,545.701 1185.57,545.758 1184.32,545.818 1183.08,545.882 1181.86,545.949 1180.65,546.019 1179.45,546.092 
  1178.27,546.168 1177.1,546.248 1175.94,546.33 1174.8,546.414 1173.67,546.502 1172.55,546.592 1171.45,546.685 1170.36,546.781 1169.28,546.879 1168.21,546.98 
  1167.16,547.083 1166.12,547.188 1165.09,547.295 1164.08,547.405 1163.08,547.517 1162.09,547.632 1161.11,547.748 1160.14,547.866 1159.19,547.986 1158.24,548.109 
  1157.31,548.233 1156.4,548.358 1155.49,548.486 1154.59,548.616 1153.71,548.747 1152.84,548.879 1151.97,549.014 1151.12,549.15 1150.28,549.287 1149.45,549.426 
  1148.64,549.566 1147.83,549.708 1147.03,549.851 1146.25,549.995 1145.48,550.141 1144.71,550.287 1143.96,550.435 1143.21,550.584 1142.48,550.735 1141.76,550.886 
  1141.05,551.038 1140.34,551.191 1139.65,551.346 1138.97,551.501 1138.29,551.657 1137.63,551.813 1136.98,551.971 1136.33,552.129 1135.69,552.288 1135.07,552.448 
  1134.45,552.608 1133.84,552.769 1133.24,552.931 1132.65,553.093 1132.07,553.256 1131.5,553.419 1130.94,553.583 1130.38,553.747 1129.83,553.912 1129.3,554.077 
  1128.77,554.242 1128.24,554.408 1127.73,554.574 1127.22,554.74 1126.73,554.907 1126.24,555.074 1125.75,555.241 1125.28,555.408 1124.81,555.575 1124.35,555.743 
  1123.9,555.911 1123.46,556.078 1123.02,556.246 1122.59,556.414 1122.17,556.582 1121.75,556.75 1121.35,556.918 1120.94,557.086 1120.55,557.254 1120.16,557.421 
  1119.78,557.589 1119.41,557.756 1119.04,557.924 1118.68,558.091 1118.32,558.258 1117.98,558.425 1117.63,558.592 1117.3,558.758 1116.97,558.924 1116.65,559.09 
  1116.33,559.256 1116.02,559.421 1115.71,559.586 1115.41,559.751 1115.12,559.915 1114.83,560.079 1114.55,560.242 1114.27,560.405 1114,560.568 1113.74,560.731 
  1113.48,560.892 1113.22,561.054 1112.97,561.215 1112.73,561.375 1112.49,561.535 1112.26,561.695 1112.03,561.854 1111.81,562.012 1111.59,562.17 1111.37,562.328 
  1111.17,562.485 1110.96,562.641 1110.76,562.797 1110.57,562.952 1110.38,563.107 1110.2,563.261 1110.02,563.414 1109.84,563.567 1109.67,563.719 1109.5,563.87 
  1109.34,564.021 1109.18,564.171 1109.03,564.321 1108.88,564.469 1108.73,564.618 1108.59,564.765 1108.45,564.912 1108.32,565.057 1108.19,565.203 1108.06,565.347 
  1107.94,565.491 1107.82,565.634 1107.71,565.777 1107.6,565.918 1107.49,566.059 1107.39,566.199 1107.28,566.339 1107.19,566.477 1107.09,566.615 1107,566.752 
  1106.92,566.889 1106.83,567.025 1106.75,567.16 1106.67,567.294 1106.6,567.427 1106.53,567.56 1106.46,567.692 1106.39,567.823 1106.33,567.953 1106.27,568.083 
  1106.21,568.211 1106.16,568.339 1106.11,568.467 1106.06,568.593 1106.01,568.719 1105.97,568.843 1105.93,568.968 1105.89,569.091 1105.85,569.213 1105.82,569.335 
  1105.79,569.456 1105.76,569.576 1105.73,569.695 1105.71,569.814 1105.68,569.931 1105.66,570.048 1105.65,570.164 1105.63,570.279 1105.62,570.394 1105.6,570.508 
  1105.6,570.62 1105.59,570.732 1105.58,570.844 1105.58,570.954 1105.58,571.064 1105.58,571.172 1105.58,571.28 1105.58,571.388 1105.59,571.494 1105.6,571.599 
  1105.61,571.704 1105.62,571.808 1105.63,571.911 1105.64,572.013 1105.66,572.115 1105.67,572.216 1105.69,572.315 1105.71,572.414 1105.74,572.513 1105.76,572.61 
  1105.78,572.707 1105.81,572.803 1105.84,572.898 1105.86,572.992 1105.89,573.085 1105.93,573.178 1105.96,573.27 1105.99,573.361 1106.03,573.451 1106.06,573.54 
  1106.1,573.629 1106.14,573.717 1106.18,573.804 1106.22,573.89 1106.26,573.976 1106.31,574.061 1106.35,574.144 1106.4,574.228 1106.44,574.31 1106.49,574.391 
  1106.54,574.472 1106.59,574.552 1106.64,574.631 1106.69,574.71 1106.74,574.787 1106.79,574.864 1106.85,574.94 1106.9,575.016 1106.96,575.09 1107.01,575.164 
  1107.07,575.237 1107.13,575.309 1107.18,575.381 1107.24,575.452 1107.3,575.522 1107.36,575.591 1107.42,575.66 1107.48,575.728 1107.54,575.796 1107.6,575.862 
  1107.67,575.928 1107.73,575.994 1107.79,576.058 1107.86,576.122 1107.92,576.185 1107.98,576.248 1108.05,576.31 1108.12,576.371 1108.18,576.432 1108.25,576.492 
  1108.31,576.552 1108.38,576.61 1108.45,576.668 1108.52,576.726 1108.58,576.783 1108.65,576.839 1108.72,576.895 1108.79,576.95 1108.86,577.005 1108.93,577.058 
  1109,577.112 1109.07,577.164 1109.14,577.217 1109.21,577.268 1109.28,577.319 1109.35,577.37 1109.42,577.419 1109.49,577.469 1109.56,577.517 1109.63,577.566 
  1109.7,577.613 1109.77,577.66 1109.85,577.707 1109.92,577.753 1109.99,577.799 1110.06,577.844 1110.13,577.888 1110.2,577.932 1110.27,577.975 1110.34,578.018 
  1110.42,578.061 1110.49,578.102 1110.56,578.144 1110.63,578.185 1110.7,578.225 1110.77,578.265 1110.84,578.304 1110.91,578.343 1110.99,578.382 1111.06,578.42 
  1111.13,578.457 1111.2,578.494 1111.27,578.53 1111.34,578.566 1111.41,578.602 1111.48,578.637 1111.55,578.672 1111.62,578.706 1111.69,578.74 1111.76,578.773 
  1111.83,578.806 1111.9,578.838 1111.97,578.87 1112.04,578.902 1112.11,578.933 1112.17,578.963 1112.24,578.994 1112.31,579.023 1112.38,579.053 1112.45,579.082 
  1112.51,579.11 1112.58,579.138 1112.65,579.166 1112.72,579.193 1112.78,579.22 1112.85,579.246 1112.91,579.272 1112.98,579.298 1113.05,579.323 1113.11,579.347 
  1113.18,579.372 1113.24,579.396 1113.31,579.419 1113.37,579.442 1113.44,579.465 1113.5,579.487 1113.56,579.509 1113.63,579.531 1113.69,579.552 1113.75,579.573 
  1113.82,579.593 1113.88,579.613 1113.94,579.633 1114,579.652 1114.07,579.671 1114.13,579.69 1114.19,579.708 1114.25,579.726 1114.31,579.744 1114.37,579.761 
  1114.43,579.778 1114.49,579.795 1114.55,579.811 1114.6,579.827 1114.66,579.843 1114.72,579.858 1114.78,579.873 1114.83,579.888 1114.89,579.903 1114.95,579.917 
  1115,579.931 1115.06,579.945 1115.11,579.958 1115.17,579.972 1115.22,579.985 1115.28,579.997 1115.33,580.01 1115.39,580.022 1115.44,580.034 1115.49,580.046 
  1115.55,580.057 1115.6,580.068 1115.65,580.079 1115.7,580.09 1115.75,580.1 1115.8,580.111 1115.85,580.121 1115.91,580.131 1115.96,580.14 1116,580.15 
  1116.05,580.159 1116.1,580.168 1116.15,580.176 1116.2,580.185 1116.25,580.193 1116.3,580.202 1116.34,580.209 1116.39,580.217 1116.44,580.225 1116.48,580.232 
  1116.53,580.239 1116.57,580.247 1116.62,580.253 1116.66,580.26 1116.71,580.267 1116.75,580.273 1116.8,580.279 1116.84,580.285 1116.88,580.291 1116.93,580.297 
  1116.97,580.302 1117.01,580.307 1117.05,580.313 1117.09,580.318 1117.14,580.323 1117.18,580.327 1117.22,580.332 1117.26,580.336 1117.3,580.341 1117.34,580.345 
  1117.38,580.349 1117.42,580.353 1117.45,580.356 1117.49,580.36 1117.53,580.364 1117.57,580.367 1117.6,580.37 1117.64,580.373 1117.68,580.376 1117.71,580.379 
  1117.75,580.382 1117.79,580.384 1117.82,580.387 1117.86,580.389 1117.89,580.392 1117.93,580.394 1117.96,580.396 1117.99,580.398 1118.03,580.399 1118.06,580.401 
  1118.09,580.403 1118.12,580.404 1118.16,580.406 1118.19,580.407 1118.22,580.408 1118.25,580.409 1118.28,580.41 1118.31,580.411 1118.34,580.412 1118.37,580.412 
  1118.4,580.413 1118.43,580.413 1118.46,580.414 1118.49,580.414 1118.52,580.414 1118.55,580.414 1118.57,580.414 1118.6,580.414 1118.63,580.414 1118.65,580.413 
  1118.68,580.413 1118.71,580.412 1118.73,580.412 1118.76,580.411 1118.78,580.41 1118.81,580.409 1118.83,580.409 1118.86,580.408 1118.88,580.406 1118.91,580.405 
  1118.93,580.404 1118.95,580.403 1118.98,580.401 1119,580.4 1119.02,580.399 1119.04,580.397 1119.06,580.396 1119.09,580.394 1119.11,580.392 1119.13,580.391 
  1119.15,580.389 1119.17,580.387 1119.19,580.385 1119.21,580.383 1119.23,580.381 1119.25,580.379 1119.27,580.377 1119.29,580.375 1119.31,580.373 1119.32,580.371 
  1119.34,580.368 1119.36,580.366 1119.38,580.364 1119.4,580.361 1119.41,580.359 1119.43,580.357 1119.45,580.354 1119.46,580.352 1119.48,580.349 1119.5,580.347 
  1119.51,580.344 1119.53,580.341 1119.54,580.339 1119.56,580.336 1119.57,580.333 1119.59,580.331 1119.6,580.328 1119.62,580.325 1119.63,580.322 1119.65,580.32 
  1119.66,580.317 1119.67,580.314 1119.69,580.311 1119.7,580.308 1119.72,580.305 1119.73,580.302 1119.74,580.3 1119.75,580.297 1119.77,580.294 1119.78,580.291 
  1119.79,580.288 1119.8,580.285 1119.82,580.282 1119.83,580.279 1119.84,580.276 1119.85,580.273 1119.86,580.269 1119.87,580.266 1119.88,580.263 1119.89,580.26 
  1119.9,580.257 1119.92,580.254 1119.93,580.251 1119.94,580.248 1119.95,580.245 1119.96,580.242 1119.97,580.239 1119.98,580.235 1119.98,580.232 1119.99,580.229 
  1120,580.226 1120.01,580.223 1120.02,580.22 1120.03,580.217 1120.04,580.214 1120.05,580.21 1120.06,580.207 1120.06,580.204 1120.07,580.201 1120.08,580.198 
  1120.09,580.195 1120.1,580.192 1120.1,580.189 1120.11,580.186 1120.12,580.182 1120.13,580.179 1120.13,580.176 1120.14,580.173 1120.15,580.17 1120.15,580.167 
  1120.16,580.164 1120.17,580.161 1120.17,580.158 1120.18,580.155 1120.19,580.152 1120.19,580.149 1120.2,580.146 1120.2,580.143 1120.21,580.14 1120.22,580.137 
  1120.22,580.134 1120.23,580.131 1120.23,580.128 1120.24,580.125 1120.24,580.122 1120.25,580.119 1120.25,580.116 1120.26,580.113 1120.26,580.11 1120.27,580.107 
  1120.27,580.104 1120.28,580.101 1120.28,580.098 1120.28,580.095 1120.29,580.092 1120.29,580.089 1120.3,580.086 1120.3,580.083 1120.3,580.081 1120.31,580.078 
  1120.31,580.075 1120.31,580.072 1120.32,580.069 1120.32,580.066 1120.32,580.063 1120.33,580.061 1120.33,580.058 1120.33,580.055 1120.33,580.052 1120.34,580.049 
  1120.34,580.047 1120.34,580.044 1120.34,580.041 1120.34,580.038 1120.35,580.036 1120.35,580.033 1120.35,580.03 1120.35,580.028 1120.35,580.025 1120.36,580.022 
  1120.36,580.02 1120.36,580.017 1120.36,580.014 1120.36,580.012 1120.36,580.009 1120.36,580.007 1120.37,580.004 1120.37,580.002 1120.37,579.999 1120.37,579.997 
  1120.37,579.994 1120.37,579.992 1120.37,579.989 1120.37,579.987 1120.37,579.984 1120.37,579.982 1120.38,579.979 1120.38,579.977 1120.38,579.975 1120.38,579.972 
  1120.38,579.97 1120.38,579.968 1120.38,579.965 1120.38,579.963 1120.38,579.961 1120.38,579.959 1120.38,579.956 1120.38,579.954 1120.38,579.952 1120.38,579.95 
  1120.38,579.948 1120.38,579.945 1120.38,579.943 1120.38,579.941 1120.38,579.939 1120.38,579.937 1120.38,579.935 1120.38,579.933 1120.38,579.931 1120.38,579.929 
  1120.38,579.927 1120.38,579.925 1120.38,579.923 1120.38,579.921 1120.38,579.919 1120.38,579.917 1120.38,579.915 1120.38,579.913 1120.38,579.911 1120.38,579.909 
  1120.38,579.907 1120.37,579.906 1120.37,579.904 1120.37,579.902 1120.37,579.9 1120.37,579.898 1120.37,579.897 1120.37,579.895 1120.37,579.893 1120.37,579.891 
  1120.37,579.89 1120.37,579.888 1120.37,579.886 1120.37,579.885 1120.37,579.883 1120.36,579.881 1120.36,579.88 1120.36,579.878 1120.36,579.877 1120.36,579.875 
  
  "/>
</svg>
