<?xml version="1.0" encoding="utf-8"?>
<svg xmlns="http://www.w3.org/2000/svg" xmlns:xlink="http://www.w3.org/1999/xlink" width="600" height="400" viewBox="0 0 2400 1600">
<defs>
  <clipPath id="clip560">
    <rect x="0" y="0" width="2400" height="1600"/>
  </clipPath>
</defs>
<path clip-path="url(#clip560)" d="
M0 1600 L2400 1600 L2400 0 L0 0  Z
  " fill="#ffffff" fill-rule="evenodd" fill-opacity="1"/>
<defs>
  <clipPath id="clip561">
    <rect x="480" y="0" width="1681" height="1600"/>
  </clipPath>
</defs>
<path clip-path="url(#clip560)" d="
M175.445 1423.18 L2352.76 1423.18 L2352.76 123.472 L175.445 123.472  Z
  " fill="#ffffff" fill-rule="evenodd" fill-opacity="1"/>
<defs>
  <clipPath id="clip562">
    <rect x="175" y="123" width="2178" height="1301"/>
  </clipPath>
</defs>
<polyline clip-path="url(#clip562)" style="stroke:#000000; stroke-linecap:butt; stroke-linejoin:round; stroke-width:2; stroke-opacity:0.1; fill:none" points="
  175.445,1423.18 175.445,123.472 
  "/>
<polyline clip-path="url(#clip562)" style="stroke:#000000; stroke-linecap:butt; stroke-linejoin:round; stroke-width:2; stroke-opacity:0.1; fill:none" points="
  610.907,1423.18 610.907,123.472 
  "/>
<polyline clip-path="url(#clip562)" style="stroke:#000000; stroke-linecap:butt; stroke-linejoin:round; stroke-width:2; stroke-opacity:0.1; fill:none" points="
  1046.37,1423.18 1046.37,123.472 
  "/>
<polyline clip-path="url(#clip562)" style="stroke:#000000; stroke-linecap:butt; stroke-linejoin:round; stroke-width:2; stroke-opacity:0.1; fill:none" points="
  1481.83,1423.18 1481.83,123.472 
  "/>
<polyline clip-path="url(#clip562)" style="stroke:#000000; stroke-linecap:butt; stroke-linejoin:round; stroke-width:2; stroke-opacity:0.1; fill:none" points="
  1917.29,1423.18 1917.29,123.472 
  "/>
<polyline clip-path="url(#clip562)" style="stroke:#000000; stroke-linecap:butt; stroke-linejoin:round; stroke-width:2; stroke-opacity:0.1; fill:none" points="
  2352.76,1423.18 2352.76,123.472 
  "/>
<polyline clip-path="url(#clip560)" style="stroke:#000000; stroke-linecap:butt; stroke-linejoin:round; stroke-width:4; stroke-opacity:1; fill:none" points="
  175.445,1423.18 2352.76,1423.18 
  "/>
<polyline clip-path="url(#clip560)" style="stroke:#000000; stroke-linecap:butt; stroke-linejoin:round; stroke-width:4; stroke-opacity:1; fill:none" points="
  175.445,1423.18 175.445,1404.28 
  "/>
<polyline clip-path="url(#clip560)" style="stroke:#000000; stroke-linecap:butt; stroke-linejoin:round; stroke-width:4; stroke-opacity:1; fill:none" points="
  610.907,1423.18 610.907,1404.28 
  "/>
<polyline clip-path="url(#clip560)" style="stroke:#000000; stroke-linecap:butt; stroke-linejoin:round; stroke-width:4; stroke-opacity:1; fill:none" points="
  1046.37,1423.18 1046.37,1404.28 
  "/>
<polyline clip-path="url(#clip560)" style="stroke:#000000; stroke-linecap:butt; stroke-linejoin:round; stroke-width:4; stroke-opacity:1; fill:none" points="
  1481.83,1423.18 1481.83,1404.28 
  "/>
<polyline clip-path="url(#clip560)" style="stroke:#000000; stroke-linecap:butt; stroke-linejoin:round; stroke-width:4; stroke-opacity:1; fill:none" points="
  1917.29,1423.18 1917.29,1404.28 
  "/>
<polyline clip-path="url(#clip560)" style="stroke:#000000; stroke-linecap:butt; stroke-linejoin:round; stroke-width:4; stroke-opacity:1; fill:none" points="
  2352.76,1423.18 2352.76,1404.28 
  "/>
<path clip-path="url(#clip560)" d="M175.445 1454.1 Q171.834 1454.1 170.005 1457.66 Q168.2 1461.2 168.2 1468.33 Q168.2 1475.44 170.005 1479.01 Q171.834 1482.55 175.445 1482.55 Q179.079 1482.55 180.885 1479.01 Q182.714 1475.44 182.714 1468.33 Q182.714 1461.2 180.885 1457.66 Q179.079 1454.1 175.445 1454.1 M175.445 1450.39 Q181.255 1450.39 184.311 1455 Q187.39 1459.58 187.39 1468.33 Q187.39 1477.06 184.311 1481.67 Q181.255 1486.25 175.445 1486.25 Q169.635 1486.25 166.556 1481.67 Q163.501 1477.06 163.501 1468.33 Q163.501 1459.58 166.556 1455 Q169.635 1450.39 175.445 1450.39 Z" fill="#000000" fill-rule="evenodd" fill-opacity="1" /><path clip-path="url(#clip560)" d="M574.6 1481.64 L590.919 1481.64 L590.919 1485.58 L568.975 1485.58 L568.975 1481.64 Q571.637 1478.89 576.22 1474.26 Q580.826 1469.61 582.007 1468.27 Q584.252 1465.74 585.132 1464.01 Q586.035 1462.25 586.035 1460.56 Q586.035 1457.8 584.09 1456.07 Q582.169 1454.33 579.067 1454.33 Q576.868 1454.33 574.414 1455.09 Q571.984 1455.86 569.206 1457.41 L569.206 1452.69 Q572.03 1451.55 574.484 1450.97 Q576.938 1450.39 578.975 1450.39 Q584.345 1450.39 587.539 1453.08 Q590.734 1455.77 590.734 1460.26 Q590.734 1462.39 589.924 1464.31 Q589.137 1466.2 587.03 1468.8 Q586.451 1469.47 583.35 1472.69 Q580.248 1475.88 574.6 1481.64 Z" fill="#000000" fill-rule="evenodd" fill-opacity="1" /><path clip-path="url(#clip560)" d="M610.734 1454.1 Q607.123 1454.1 605.294 1457.66 Q603.488 1461.2 603.488 1468.33 Q603.488 1475.44 605.294 1479.01 Q607.123 1482.55 610.734 1482.55 Q614.368 1482.55 616.174 1479.01 Q618.002 1475.44 618.002 1468.33 Q618.002 1461.2 616.174 1457.66 Q614.368 1454.1 610.734 1454.1 M610.734 1450.39 Q616.544 1450.39 619.599 1455 Q622.678 1459.58 622.678 1468.33 Q622.678 1477.06 619.599 1481.67 Q616.544 1486.25 610.734 1486.25 Q604.924 1486.25 601.845 1481.67 Q598.789 1477.06 598.789 1468.33 Q598.789 1459.58 601.845 1455 Q604.924 1450.39 610.734 1450.39 Z" fill="#000000" fill-rule="evenodd" fill-opacity="1" /><path clip-path="url(#clip560)" d="M640.896 1454.1 Q637.285 1454.1 635.456 1457.66 Q633.65 1461.2 633.65 1468.33 Q633.65 1475.44 635.456 1479.01 Q637.285 1482.55 640.896 1482.55 Q644.53 1482.55 646.335 1479.01 Q648.164 1475.44 648.164 1468.33 Q648.164 1461.2 646.335 1457.66 Q644.53 1454.1 640.896 1454.1 M640.896 1450.39 Q646.706 1450.39 649.761 1455 Q652.84 1459.58 652.84 1468.33 Q652.84 1477.06 649.761 1481.67 Q646.706 1486.25 640.896 1486.25 Q635.085 1486.25 632.007 1481.67 Q628.951 1477.06 628.951 1468.33 Q628.951 1459.58 632.007 1455 Q635.085 1450.39 640.896 1450.39 Z" fill="#000000" fill-rule="evenodd" fill-opacity="1" /><path clip-path="url(#clip560)" d="M1019.46 1455.09 L1007.65 1473.54 L1019.46 1473.54 L1019.46 1455.09 M1018.23 1451.02 L1024.11 1451.02 L1024.11 1473.54 L1029.04 1473.54 L1029.04 1477.43 L1024.11 1477.43 L1024.11 1485.58 L1019.46 1485.58 L1019.46 1477.43 L1003.86 1477.43 L1003.86 1472.92 L1018.23 1451.02 Z" fill="#000000" fill-rule="evenodd" fill-opacity="1" /><path clip-path="url(#clip560)" d="M1046.77 1454.1 Q1043.16 1454.1 1041.33 1457.66 Q1039.53 1461.2 1039.53 1468.33 Q1039.53 1475.44 1041.33 1479.01 Q1043.16 1482.55 1046.77 1482.55 Q1050.41 1482.55 1052.21 1479.01 Q1054.04 1475.44 1054.04 1468.33 Q1054.04 1461.2 1052.21 1457.66 Q1050.41 1454.1 1046.77 1454.1 M1046.77 1450.39 Q1052.58 1450.39 1055.64 1455 Q1058.72 1459.58 1058.72 1468.33 Q1058.72 1477.06 1055.64 1481.67 Q1052.58 1486.25 1046.77 1486.25 Q1040.96 1486.25 1037.89 1481.67 Q1034.83 1477.06 1034.83 1468.33 Q1034.83 1459.58 1037.89 1455 Q1040.96 1450.39 1046.77 1450.39 Z" fill="#000000" fill-rule="evenodd" fill-opacity="1" /><path clip-path="url(#clip560)" d="M1076.94 1454.1 Q1073.33 1454.1 1071.5 1457.66 Q1069.69 1461.2 1069.69 1468.33 Q1069.69 1475.44 1071.5 1479.01 Q1073.33 1482.55 1076.94 1482.55 Q1080.57 1482.55 1082.38 1479.01 Q1084.2 1475.44 1084.2 1468.33 Q1084.2 1461.2 1082.38 1457.66 Q1080.57 1454.1 1076.94 1454.1 M1076.94 1450.39 Q1082.75 1450.39 1085.8 1455 Q1088.88 1459.58 1088.88 1468.33 Q1088.88 1477.06 1085.8 1481.67 Q1082.75 1486.25 1076.94 1486.25 Q1071.13 1486.25 1068.05 1481.67 Q1064.99 1477.06 1064.99 1468.33 Q1064.99 1459.58 1068.05 1455 Q1071.13 1450.39 1076.94 1450.39 Z" fill="#000000" fill-rule="evenodd" fill-opacity="1" /><path clip-path="url(#clip560)" d="M1452.16 1466.44 Q1449.01 1466.44 1447.16 1468.59 Q1445.33 1470.74 1445.33 1474.49 Q1445.33 1478.22 1447.16 1480.39 Q1449.01 1482.55 1452.16 1482.55 Q1455.3 1482.55 1457.13 1480.39 Q1458.98 1478.22 1458.98 1474.49 Q1458.98 1470.74 1457.13 1468.59 Q1455.3 1466.44 1452.16 1466.44 M1461.44 1451.78 L1461.44 1456.04 Q1459.68 1455.21 1457.87 1454.77 Q1456.09 1454.33 1454.33 1454.33 Q1449.7 1454.33 1447.25 1457.45 Q1444.82 1460.58 1444.47 1466.9 Q1445.84 1464.89 1447.9 1463.82 Q1449.96 1462.73 1452.43 1462.73 Q1457.64 1462.73 1460.65 1465.9 Q1463.68 1469.05 1463.68 1474.49 Q1463.68 1479.82 1460.54 1483.03 Q1457.39 1486.25 1452.16 1486.25 Q1446.16 1486.25 1442.99 1481.67 Q1439.82 1477.06 1439.82 1468.33 Q1439.82 1460.14 1443.71 1455.28 Q1447.6 1450.39 1454.15 1450.39 Q1455.91 1450.39 1457.69 1450.74 Q1459.49 1451.09 1461.44 1451.78 Z" fill="#000000" fill-rule="evenodd" fill-opacity="1" /><path clip-path="url(#clip560)" d="M1481.74 1454.1 Q1478.13 1454.1 1476.3 1457.66 Q1474.49 1461.2 1474.49 1468.33 Q1474.49 1475.44 1476.3 1479.01 Q1478.13 1482.55 1481.74 1482.55 Q1485.37 1482.55 1487.18 1479.01 Q1489.01 1475.44 1489.01 1468.33 Q1489.01 1461.2 1487.18 1457.66 Q1485.37 1454.1 1481.74 1454.1 M1481.74 1450.39 Q1487.55 1450.39 1490.6 1455 Q1493.68 1459.58 1493.68 1468.33 Q1493.68 1477.06 1490.6 1481.67 Q1487.55 1486.25 1481.74 1486.25 Q1475.93 1486.25 1472.85 1481.67 Q1469.79 1477.06 1469.79 1468.33 Q1469.79 1459.58 1472.85 1455 Q1475.93 1450.39 1481.74 1450.39 Z" fill="#000000" fill-rule="evenodd" fill-opacity="1" /><path clip-path="url(#clip560)" d="M1511.9 1454.1 Q1508.29 1454.1 1506.46 1457.66 Q1504.66 1461.2 1504.66 1468.33 Q1504.66 1475.44 1506.46 1479.01 Q1508.29 1482.55 1511.9 1482.55 Q1515.54 1482.55 1517.34 1479.01 Q1519.17 1475.44 1519.17 1468.33 Q1519.17 1461.2 1517.34 1457.66 Q1515.54 1454.1 1511.9 1454.1 M1511.9 1450.39 Q1517.71 1450.39 1520.77 1455 Q1523.85 1459.58 1523.85 1468.33 Q1523.85 1477.06 1520.77 1481.67 Q1517.71 1486.25 1511.9 1486.25 Q1506.09 1486.25 1503.01 1481.67 Q1499.96 1477.06 1499.96 1468.33 Q1499.96 1459.58 1503.01 1455 Q1506.09 1450.39 1511.9 1450.39 Z" fill="#000000" fill-rule="evenodd" fill-opacity="1" /><path clip-path="url(#clip560)" d="M1887.09 1469.17 Q1883.75 1469.17 1881.83 1470.95 Q1879.93 1472.73 1879.93 1475.86 Q1879.93 1478.98 1881.83 1480.77 Q1883.75 1482.55 1887.09 1482.55 Q1890.42 1482.55 1892.34 1480.77 Q1894.26 1478.96 1894.26 1475.86 Q1894.26 1472.73 1892.34 1470.95 Q1890.44 1469.17 1887.09 1469.17 M1882.41 1467.18 Q1879.4 1466.44 1877.71 1464.38 Q1876.04 1462.32 1876.04 1459.35 Q1876.04 1455.21 1878.98 1452.8 Q1881.95 1450.39 1887.09 1450.39 Q1892.25 1450.39 1895.19 1452.8 Q1898.13 1455.21 1898.13 1459.35 Q1898.13 1462.32 1896.44 1464.38 Q1894.77 1466.44 1891.78 1467.18 Q1895.16 1467.96 1897.04 1470.26 Q1898.94 1472.55 1898.94 1475.86 Q1898.94 1480.88 1895.86 1483.57 Q1892.8 1486.25 1887.09 1486.25 Q1881.37 1486.25 1878.29 1483.57 Q1875.23 1480.88 1875.23 1475.86 Q1875.23 1472.55 1877.13 1470.26 Q1879.03 1467.96 1882.41 1467.18 M1880.7 1459.79 Q1880.7 1462.48 1882.36 1463.98 Q1884.05 1465.49 1887.09 1465.49 Q1890.09 1465.49 1891.78 1463.98 Q1893.5 1462.48 1893.5 1459.79 Q1893.5 1457.11 1891.78 1455.6 Q1890.09 1454.1 1887.09 1454.1 Q1884.05 1454.1 1882.36 1455.6 Q1880.7 1457.11 1880.7 1459.79 Z" fill="#000000" fill-rule="evenodd" fill-opacity="1" /><path clip-path="url(#clip560)" d="M1917.25 1454.1 Q1913.64 1454.1 1911.81 1457.66 Q1910 1461.2 1910 1468.33 Q1910 1475.44 1911.81 1479.01 Q1913.64 1482.55 1917.25 1482.55 Q1920.88 1482.55 1922.69 1479.01 Q1924.52 1475.44 1924.52 1468.33 Q1924.52 1461.2 1922.69 1457.66 Q1920.88 1454.1 1917.25 1454.1 M1917.25 1450.39 Q1923.06 1450.39 1926.11 1455 Q1929.19 1459.58 1929.19 1468.33 Q1929.19 1477.06 1926.11 1481.67 Q1923.06 1486.25 1917.25 1486.25 Q1911.44 1486.25 1908.36 1481.67 Q1905.3 1477.06 1905.3 1468.33 Q1905.3 1459.58 1908.36 1455 Q1911.44 1450.39 1917.25 1450.39 Z" fill="#000000" fill-rule="evenodd" fill-opacity="1" /><path clip-path="url(#clip560)" d="M1947.41 1454.1 Q1943.8 1454.1 1941.97 1457.66 Q1940.16 1461.2 1940.16 1468.33 Q1940.16 1475.44 1941.97 1479.01 Q1943.8 1482.55 1947.41 1482.55 Q1951.04 1482.55 1952.85 1479.01 Q1954.68 1475.44 1954.68 1468.33 Q1954.68 1461.2 1952.85 1457.66 Q1951.04 1454.1 1947.41 1454.1 M1947.41 1450.39 Q1953.22 1450.39 1956.28 1455 Q1959.35 1459.58 1959.35 1468.33 Q1959.35 1477.06 1956.28 1481.67 Q1953.22 1486.25 1947.41 1486.25 Q1941.6 1486.25 1938.52 1481.67 Q1935.46 1477.06 1935.46 1468.33 Q1935.46 1459.58 1938.52 1455 Q1941.6 1450.39 1947.41 1450.39 Z" fill="#000000" fill-rule="evenodd" fill-opacity="1" /><path clip-path="url(#clip560)" d="M2297.28 1481.64 L2304.92 1481.64 L2304.92 1455.28 L2296.61 1456.95 L2296.61 1452.69 L2304.87 1451.02 L2309.55 1451.02 L2309.55 1481.64 L2317.19 1481.64 L2317.19 1485.58 L2297.28 1485.58 L2297.28 1481.64 Z" fill="#000000" fill-rule="evenodd" fill-opacity="1" /><path clip-path="url(#clip560)" d="M2336.63 1454.1 Q2333.02 1454.1 2331.19 1457.66 Q2329.39 1461.2 2329.39 1468.33 Q2329.39 1475.44 2331.19 1479.01 Q2333.02 1482.55 2336.63 1482.55 Q2340.27 1482.55 2342.07 1479.01 Q2343.9 1475.44 2343.9 1468.33 Q2343.9 1461.2 2342.07 1457.66 Q2340.27 1454.1 2336.63 1454.1 M2336.63 1450.39 Q2342.44 1450.39 2345.5 1455 Q2348.58 1459.58 2348.58 1468.33 Q2348.58 1477.06 2345.5 1481.67 Q2342.44 1486.25 2336.63 1486.25 Q2330.82 1486.25 2327.74 1481.67 Q2324.69 1477.06 2324.69 1468.33 Q2324.69 1459.58 2327.74 1455 Q2330.82 1450.39 2336.63 1450.39 Z" fill="#000000" fill-rule="evenodd" fill-opacity="1" /><path clip-path="url(#clip560)" d="M2366.8 1454.1 Q2363.18 1454.1 2361.36 1457.66 Q2359.55 1461.2 2359.55 1468.33 Q2359.55 1475.44 2361.36 1479.01 Q2363.18 1482.55 2366.8 1482.55 Q2370.43 1482.55 2372.23 1479.01 Q2374.06 1475.44 2374.06 1468.33 Q2374.06 1461.2 2372.23 1457.66 Q2370.43 1454.1 2366.8 1454.1 M2366.8 1450.39 Q2372.61 1450.39 2375.66 1455 Q2378.74 1459.58 2378.74 1468.33 Q2378.74 1477.06 2375.66 1481.67 Q2372.61 1486.25 2366.8 1486.25 Q2360.99 1486.25 2357.91 1481.67 Q2354.85 1477.06 2354.85 1468.33 Q2354.85 1459.58 2357.91 1455 Q2360.99 1450.39 2366.8 1450.39 Z" fill="#000000" fill-rule="evenodd" fill-opacity="1" /><path clip-path="url(#clip560)" d="M2396.96 1454.1 Q2393.35 1454.1 2391.52 1457.66 Q2389.71 1461.2 2389.71 1468.33 Q2389.71 1475.44 2391.52 1479.01 Q2393.35 1482.55 2396.96 1482.55 Q2400.59 1482.55 2402.4 1479.01 Q2404.23 1475.44 2404.23 1468.33 Q2404.23 1461.2 2402.4 1457.66 Q2400.59 1454.1 2396.96 1454.1 M2396.96 1450.39 Q2402.77 1450.39 2405.82 1455 Q2408.9 1459.58 2408.9 1468.33 Q2408.9 1477.06 2405.82 1481.67 Q2402.77 1486.25 2396.96 1486.25 Q2391.15 1486.25 2388.07 1481.67 Q2385.01 1477.06 2385.01 1468.33 Q2385.01 1459.58 2388.07 1455 Q2391.15 1450.39 2396.96 1450.39 Z" fill="#000000" fill-rule="evenodd" fill-opacity="1" /><path clip-path="url(#clip560)" d="M1228.2 1520.52 L1234.63 1520.52 L1234.63 1540.61 L1255.95 1520.52 L1264.23 1520.52 L1240.64 1542.68 L1265.91 1568.04 L1257.45 1568.04 L1234.63 1545.16 L1234.63 1568.04 L1228.2 1568.04 L1228.2 1520.52 Z" fill="#000000" fill-rule="evenodd" fill-opacity="1" /><path clip-path="url(#clip560)" d="M1272.63 1562.63 L1283.13 1562.63 L1283.13 1526.38 L1271.71 1528.67 L1271.71 1522.82 L1283.07 1520.52 L1289.5 1520.52 L1289.5 1562.63 L1300 1562.63 L1300 1568.04 L1272.63 1568.04 L1272.63 1562.63 Z" fill="#000000" fill-rule="evenodd" fill-opacity="1" /><polyline clip-path="url(#clip562)" style="stroke:#000000; stroke-linecap:butt; stroke-linejoin:round; stroke-width:2; stroke-opacity:0.1; fill:none" points="
  175.445,1423.18 2352.76,1423.18 
  "/>
<polyline clip-path="url(#clip562)" style="stroke:#000000; stroke-linecap:butt; stroke-linejoin:round; stroke-width:2; stroke-opacity:0.1; fill:none" points="
  175.445,1098.25 2352.76,1098.25 
  "/>
<polyline clip-path="url(#clip562)" style="stroke:#000000; stroke-linecap:butt; stroke-linejoin:round; stroke-width:2; stroke-opacity:0.1; fill:none" points="
  175.445,773.326 2352.76,773.326 
  "/>
<polyline clip-path="url(#clip562)" style="stroke:#000000; stroke-linecap:butt; stroke-linejoin:round; stroke-width:2; stroke-opacity:0.1; fill:none" points="
  175.445,448.399 2352.76,448.399 
  "/>
<polyline clip-path="url(#clip562)" style="stroke:#000000; stroke-linecap:butt; stroke-linejoin:round; stroke-width:2; stroke-opacity:0.1; fill:none" points="
  175.445,123.472 2352.76,123.472 
  "/>
<polyline clip-path="url(#clip560)" style="stroke:#000000; stroke-linecap:butt; stroke-linejoin:round; stroke-width:4; stroke-opacity:1; fill:none" points="
  175.445,1423.18 175.445,123.472 
  "/>
<polyline clip-path="url(#clip560)" style="stroke:#000000; stroke-linecap:butt; stroke-linejoin:round; stroke-width:4; stroke-opacity:1; fill:none" points="
  175.445,1423.18 194.343,1423.18 
  "/>
<polyline clip-path="url(#clip560)" style="stroke:#000000; stroke-linecap:butt; stroke-linejoin:round; stroke-width:4; stroke-opacity:1; fill:none" points="
  175.445,1098.25 194.343,1098.25 
  "/>
<polyline clip-path="url(#clip560)" style="stroke:#000000; stroke-linecap:butt; stroke-linejoin:round; stroke-width:4; stroke-opacity:1; fill:none" points="
  175.445,773.326 194.343,773.326 
  "/>
<polyline clip-path="url(#clip560)" style="stroke:#000000; stroke-linecap:butt; stroke-linejoin:round; stroke-width:4; stroke-opacity:1; fill:none" points="
  175.445,448.399 194.343,448.399 
  "/>
<polyline clip-path="url(#clip560)" style="stroke:#000000; stroke-linecap:butt; stroke-linejoin:round; stroke-width:4; stroke-opacity:1; fill:none" points="
  175.445,123.472 194.343,123.472 
  "/>
<path clip-path="url(#clip560)" d="M127.501 1408.98 Q123.89 1408.98 122.061 1412.54 Q120.255 1416.08 120.255 1423.21 Q120.255 1430.32 122.061 1433.89 Q123.89 1437.43 127.501 1437.43 Q131.135 1437.43 132.941 1433.89 Q134.769 1430.32 134.769 1423.21 Q134.769 1416.08 132.941 1412.54 Q131.135 1408.98 127.501 1408.98 M127.501 1405.27 Q133.311 1405.27 136.367 1409.88 Q139.445 1414.46 139.445 1423.21 Q139.445 1431.94 136.367 1436.55 Q133.311 1441.13 127.501 1441.13 Q121.691 1441.13 118.612 1436.55 Q115.556 1431.94 115.556 1423.21 Q115.556 1414.46 118.612 1409.88 Q121.691 1405.27 127.501 1405.27 Z" fill="#000000" fill-rule="evenodd" fill-opacity="1" /><path clip-path="url(#clip560)" d="M119.538 1111.6 L127.177 1111.6 L127.177 1085.23 L118.867 1086.9 L118.867 1082.64 L127.13 1080.97 L131.806 1080.97 L131.806 1111.6 L139.445 1111.6 L139.445 1115.53 L119.538 1115.53 L119.538 1111.6 Z" fill="#000000" fill-rule="evenodd" fill-opacity="1" /><path clip-path="url(#clip560)" d="M123.126 786.671 L139.445 786.671 L139.445 790.606 L117.501 790.606 L117.501 786.671 Q120.163 783.916 124.746 779.287 Q129.353 774.634 130.533 773.291 Q132.779 770.768 133.658 769.032 Q134.561 767.273 134.561 765.583 Q134.561 762.828 132.617 761.092 Q130.695 759.356 127.593 759.356 Q125.394 759.356 122.941 760.12 Q120.51 760.884 117.732 762.435 L117.732 757.713 Q120.556 756.578 123.01 756 Q125.464 755.421 127.501 755.421 Q132.871 755.421 136.066 758.106 Q139.26 760.791 139.26 765.282 Q139.26 767.412 138.45 769.333 Q137.663 771.231 135.556 773.824 Q134.978 774.495 131.876 777.713 Q128.774 780.907 123.126 786.671 Z" fill="#000000" fill-rule="evenodd" fill-opacity="1" /><path clip-path="url(#clip560)" d="M132.316 447.045 Q135.672 447.762 137.547 450.031 Q139.445 452.299 139.445 455.633 Q139.445 460.749 135.927 463.549 Q132.408 466.35 125.927 466.35 Q123.751 466.35 121.436 465.911 Q119.144 465.494 116.691 464.637 L116.691 460.124 Q118.635 461.258 120.95 461.836 Q123.265 462.415 125.788 462.415 Q130.186 462.415 132.478 460.679 Q134.792 458.943 134.792 455.633 Q134.792 452.577 132.64 450.864 Q130.51 449.128 126.691 449.128 L122.663 449.128 L122.663 445.286 L126.876 445.286 Q130.325 445.286 132.154 443.92 Q133.982 442.531 133.982 439.938 Q133.982 437.276 132.084 435.864 Q130.209 434.429 126.691 434.429 Q124.769 434.429 122.57 434.846 Q120.371 435.263 117.732 436.142 L117.732 431.976 Q120.394 431.235 122.709 430.864 Q125.047 430.494 127.107 430.494 Q132.431 430.494 135.533 432.925 Q138.635 435.332 138.635 439.452 Q138.635 442.323 136.992 444.313 Q135.348 446.281 132.316 447.045 Z" fill="#000000" fill-rule="evenodd" fill-opacity="1" /><path clip-path="url(#clip560)" d="M129.862 110.266 L118.056 128.715 L129.862 128.715 L129.862 110.266 M128.635 106.192 L134.515 106.192 L134.515 128.715 L139.445 128.715 L139.445 132.604 L134.515 132.604 L134.515 140.752 L129.862 140.752 L129.862 132.604 L114.26 132.604 L114.26 128.09 L128.635 106.192 Z" fill="#000000" fill-rule="evenodd" fill-opacity="1" /><path clip-path="url(#clip560)" d="M18.0438 1002.27 L24.314 1002.27 Q22.5634 1005.93 21.704 1009.18 Q20.8447 1012.42 20.8447 1015.45 Q20.8447 1020.7 22.8817 1023.56 Q24.9187 1026.39 28.6745 1026.39 Q31.8255 1026.39 33.4488 1024.52 Q35.0402 1022.61 36.0269 1017.32 L36.8226 1013.44 Q38.1912 1006.25 41.6605 1002.84 Q45.098 999.404 50.8908 999.404 Q57.7976 999.404 61.3624 1004.05 Q64.9272 1008.67 64.9272 1017.61 Q64.9272 1020.98 64.1633 1024.8 Q63.3994 1028.59 61.9035 1032.66 L55.2831 1032.66 Q57.4793 1028.75 58.5933 1024.99 Q59.7073 1021.24 59.7073 1017.61 Q59.7073 1012.1 57.543 1009.11 Q55.3786 1006.12 51.3682 1006.12 Q47.8671 1006.12 45.8937 1008.28 Q43.9204 1010.42 42.9337 1015.32 L42.1698 1019.23 Q40.7375 1026.43 37.682 1029.64 Q34.6264 1032.86 29.1837 1032.86 Q22.8817 1032.86 19.2532 1028.43 Q15.6248 1023.98 15.6248 1016.18 Q15.6248 1012.84 16.2295 1009.37 Q16.8343 1005.9 18.0438 1002.27 Z" fill="#000000" fill-rule="evenodd" fill-opacity="1" /><path clip-path="url(#clip560)" d="M18.2347 983.84 L28.3562 983.84 L28.3562 971.777 L32.9077 971.777 L32.9077 983.84 L52.2594 983.84 Q56.6199 983.84 57.8613 982.662 Q59.1026 981.453 59.1026 977.792 L59.1026 971.777 L64.0042 971.777 L64.0042 977.792 Q64.0042 984.572 61.4897 987.15 Q58.9434 989.728 52.2594 989.728 L32.9077 989.728 L32.9077 994.025 L28.3562 994.025 L28.3562 989.728 L18.2347 989.728 L18.2347 983.84 Z" fill="#000000" fill-rule="evenodd" fill-opacity="1" /><path clip-path="url(#clip560)" d="M44.7161 933.583 L47.5806 933.583 L47.5806 960.51 Q53.6281 960.128 56.8109 956.881 Q59.9619 953.603 59.9619 947.778 Q59.9619 944.404 59.1344 941.253 Q58.3069 938.07 56.6518 934.951 L62.1899 934.951 Q63.5267 938.102 64.227 941.412 Q64.9272 944.723 64.9272 948.128 Q64.9272 956.658 59.9619 961.655 Q54.9967 966.621 46.5303 966.621 Q37.7774 966.621 32.6531 961.91 Q27.4968 957.168 27.4968 949.147 Q27.4968 941.954 32.1438 937.784 Q36.7589 933.583 44.7161 933.583 M42.9973 939.439 Q38.1912 939.503 35.3266 942.145 Q32.4621 944.754 32.4621 949.083 Q32.4621 953.985 35.2312 956.945 Q38.0002 959.873 43.0292 960.319 L42.9973 939.439 Z" fill="#000000" fill-rule="evenodd" fill-opacity="1" /><path clip-path="url(#clip560)" d="M46.0847 907.77 Q46.0847 914.867 47.7079 917.605 Q49.3312 920.342 53.2461 920.342 Q56.3653 920.342 58.2114 918.305 Q60.0256 916.236 60.0256 912.703 Q60.0256 907.833 56.5881 904.905 Q53.1188 901.945 47.3897 901.945 L46.0847 901.945 L46.0847 907.77 M43.6657 896.089 L64.0042 896.089 L64.0042 901.945 L58.5933 901.945 Q61.8398 903.95 63.3994 906.942 Q64.9272 909.934 64.9272 914.263 Q64.9272 919.737 61.8716 922.984 Q58.7843 926.198 53.6281 926.198 Q47.6125 926.198 44.5569 922.188 Q41.5014 918.146 41.5014 910.157 L41.5014 901.945 L40.9285 901.945 Q36.8862 901.945 34.6901 904.619 Q32.4621 907.26 32.4621 912.067 Q32.4621 915.122 33.1941 918.018 Q33.9262 920.915 35.3903 923.588 L29.9795 923.588 Q28.7381 920.374 28.1334 917.35 Q27.4968 914.326 27.4968 911.462 Q27.4968 903.727 31.5072 899.908 Q35.5176 896.089 43.6657 896.089 Z" fill="#000000" fill-rule="evenodd" fill-opacity="1" /><path clip-path="url(#clip560)" d="M33.7671 860.568 L14.479 860.568 L14.479 854.712 L64.0042 854.712 L64.0042 860.568 L58.657 860.568 Q61.8398 862.414 63.3994 865.247 Q64.9272 868.048 64.9272 871.994 Q64.9272 878.456 59.771 882.53 Q54.6147 886.572 46.212 886.572 Q37.8093 886.572 32.6531 882.53 Q27.4968 878.456 27.4968 871.994 Q27.4968 868.048 29.0564 865.247 Q30.5842 862.414 33.7671 860.568 M46.212 880.524 Q52.6732 880.524 56.3653 877.883 Q60.0256 875.209 60.0256 870.562 Q60.0256 865.915 56.3653 863.242 Q52.6732 860.568 46.212 860.568 Q39.7508 860.568 36.0905 863.242 Q32.3984 865.915 32.3984 870.562 Q32.3984 875.209 36.0905 877.883 Q39.7508 880.524 46.212 880.524 Z" fill="#000000" fill-rule="evenodd" fill-opacity="1" /><path clip-path="url(#clip560)" d="M67.3143 827.816 Q73.68 830.299 75.6216 832.654 Q77.5631 835.01 77.5631 838.956 L77.5631 843.635 L72.6615 843.635 L72.6615 840.198 Q72.6615 837.779 71.5157 836.442 Q70.3699 835.105 66.1048 833.482 L63.4312 832.432 L28.3562 846.85 L28.3562 840.643 L56.238 829.503 L28.3562 818.363 L28.3562 812.157 L67.3143 827.816 Z" fill="#000000" fill-rule="evenodd" fill-opacity="1" /><path clip-path="url(#clip560)" d="M29.4065 760.626 L34.9447 760.626 Q33.6716 763.109 33.035 765.783 Q32.3984 768.456 32.3984 771.321 Q32.3984 775.681 33.7352 777.877 Q35.072 780.042 37.7456 780.042 Q39.7826 780.042 40.9603 778.482 Q42.1061 776.923 43.1565 772.212 L43.6021 770.207 Q44.9389 763.968 47.3897 761.358 Q49.8086 758.717 54.1691 758.717 Q59.1344 758.717 62.0308 762.663 Q64.9272 766.578 64.9272 773.453 Q64.9272 776.318 64.3543 779.437 Q63.8132 782.524 62.6992 785.962 L56.6518 785.962 Q58.3387 782.715 59.198 779.564 Q60.0256 776.413 60.0256 773.326 Q60.0256 769.188 58.6251 766.96 Q57.1929 764.732 54.6147 764.732 Q52.2276 764.732 50.9545 766.356 Q49.6813 767.947 48.5037 773.39 L48.0262 775.427 Q46.8804 780.869 44.5251 783.288 Q42.138 785.707 38.0002 785.707 Q32.9713 785.707 30.2341 782.142 Q27.4968 778.578 27.4968 772.021 Q27.4968 768.775 27.9743 765.91 Q28.4517 763.045 29.4065 760.626 Z" fill="#000000" fill-rule="evenodd" fill-opacity="1" /><path clip-path="url(#clip560)" d="M18.2347 743.598 L28.3562 743.598 L28.3562 731.535 L32.9077 731.535 L32.9077 743.598 L52.2594 743.598 Q56.6199 743.598 57.8613 742.42 Q59.1026 741.211 59.1026 737.551 L59.1026 731.535 L64.0042 731.535 L64.0042 737.551 Q64.0042 744.33 61.4897 746.908 Q58.9434 749.486 52.2594 749.486 L32.9077 749.486 L32.9077 753.783 L28.3562 753.783 L28.3562 749.486 L18.2347 749.486 L18.2347 743.598 Z" fill="#000000" fill-rule="evenodd" fill-opacity="1" /><path clip-path="url(#clip560)" d="M46.0847 707.632 Q46.0847 714.73 47.7079 717.467 Q49.3312 720.204 53.2461 720.204 Q56.3653 720.204 58.2114 718.167 Q60.0256 716.098 60.0256 712.565 Q60.0256 707.696 56.5881 704.767 Q53.1188 701.807 47.3897 701.807 L46.0847 701.807 L46.0847 707.632 M43.6657 695.951 L64.0042 695.951 L64.0042 701.807 L58.5933 701.807 Q61.8398 703.812 63.3994 706.804 Q64.9272 709.796 64.9272 714.125 Q64.9272 719.599 61.8716 722.846 Q58.7843 726.061 53.6281 726.061 Q47.6125 726.061 44.5569 722.05 Q41.5014 718.008 41.5014 710.019 L41.5014 701.807 L40.9285 701.807 Q36.8862 701.807 34.6901 704.481 Q32.4621 707.123 32.4621 711.929 Q32.4621 714.984 33.1941 717.881 Q33.9262 720.777 35.3903 723.451 L29.9795 723.451 Q28.7381 720.236 28.1334 717.212 Q27.4968 714.189 27.4968 711.324 Q27.4968 703.59 31.5072 699.77 Q35.5176 695.951 43.6657 695.951 Z" fill="#000000" fill-rule="evenodd" fill-opacity="1" /><path clip-path="url(#clip560)" d="M18.2347 678.095 L28.3562 678.095 L28.3562 666.032 L32.9077 666.032 L32.9077 678.095 L52.2594 678.095 Q56.6199 678.095 57.8613 676.917 Q59.1026 675.708 59.1026 672.048 L59.1026 666.032 L64.0042 666.032 L64.0042 672.048 Q64.0042 678.827 61.4897 681.405 Q58.9434 683.983 52.2594 683.983 L32.9077 683.983 L32.9077 688.28 L28.3562 688.28 L28.3562 683.983 L18.2347 683.983 L18.2347 678.095 Z" fill="#000000" fill-rule="evenodd" fill-opacity="1" /><path clip-path="url(#clip560)" d="M44.7161 627.838 L47.5806 627.838 L47.5806 654.765 Q53.6281 654.383 56.8109 651.136 Q59.9619 647.858 59.9619 642.033 Q59.9619 638.659 59.1344 635.508 Q58.3069 632.326 56.6518 629.206 L62.1899 629.206 Q63.5267 632.357 64.227 635.668 Q64.9272 638.978 64.9272 642.383 Q64.9272 650.913 59.9619 655.911 Q54.9967 660.876 46.5303 660.876 Q37.7774 660.876 32.6531 656.165 Q27.4968 651.423 27.4968 643.402 Q27.4968 636.209 32.1438 632.039 Q36.7589 627.838 44.7161 627.838 M42.9973 633.694 Q38.1912 633.758 35.3266 636.4 Q32.4621 639.01 32.4621 643.338 Q32.4621 648.24 35.2312 651.2 Q38.0002 654.128 43.0292 654.574 L42.9973 633.694 Z" fill="#000000" fill-rule="evenodd" fill-opacity="1" /><path clip-path="url(#clip560)" d="M14.479 598.046 L14.479 584.551 L19.0304 584.551 L19.0304 592.19 L68.0464 592.19 L68.0464 584.551 L72.5979 584.551 L72.5979 598.046 L14.479 598.046 Z" fill="#000000" fill-rule="evenodd" fill-opacity="1" /><path clip-path="url(#clip560)" d="M22.818 555.937 L46.4666 564.658 L46.4666 547.184 L22.818 555.937 M16.4842 559.566 L16.4842 552.277 L64.0042 534.166 L64.0042 540.85 L51.8138 545.179 L51.8138 566.6 L64.0042 570.928 L64.0042 577.708 L16.4842 559.566 Z" fill="#000000" fill-rule="evenodd" fill-opacity="1" /><path clip-path="url(#clip560)" d="M14.479 513.796 L72.5979 513.796 L72.5979 527.291 L68.0464 527.291 L68.0464 519.684 L19.0304 519.684 L19.0304 527.291 L14.479 527.291 L14.479 513.796 Z" fill="#000000" fill-rule="evenodd" fill-opacity="1" /><path clip-path="url(#clip560)" d="M642.712 12.096 L677.469 12.096 L677.469 18.9825 L650.895 18.9825 L650.895 36.8065 L674.876 36.8065 L674.876 43.6931 L650.895 43.6931 L650.895 72.576 L642.712 72.576 L642.712 12.096 Z" fill="#000000" fill-rule="evenodd" fill-opacity="1" /><path clip-path="url(#clip560)" d="M684.072 27.2059 L691.525 27.2059 L691.525 72.576 L684.072 72.576 L684.072 27.2059 M684.072 9.54393 L691.525 9.54393 L691.525 18.9825 L684.072 18.9825 L684.072 9.54393 Z" fill="#000000" fill-rule="evenodd" fill-opacity="1" /><path clip-path="url(#clip560)" d="M736.977 49.3643 Q736.977 41.2625 733.614 36.8065 Q730.293 32.3505 724.257 32.3505 Q718.261 32.3505 714.899 36.8065 Q711.577 41.2625 711.577 49.3643 Q711.577 57.4256 714.899 61.8816 Q718.261 66.3376 724.257 66.3376 Q730.293 66.3376 733.614 61.8816 Q736.977 57.4256 736.977 49.3643 M744.43 66.9452 Q744.43 78.5308 739.286 84.1616 Q734.141 89.8329 723.528 89.8329 Q719.598 89.8329 716.114 89.2252 Q712.631 88.6581 709.349 87.4428 L709.349 80.1917 Q712.631 81.9741 715.831 82.8248 Q719.031 83.6755 722.353 83.6755 Q729.685 83.6755 733.331 79.8271 Q736.977 76.0193 736.977 68.282 L736.977 64.5957 Q734.668 68.6061 731.062 70.5911 Q727.457 72.576 722.434 72.576 Q714.089 72.576 708.985 66.2161 Q703.881 59.8562 703.881 49.3643 Q703.881 38.832 708.985 32.472 Q714.089 26.1121 722.434 26.1121 Q727.457 26.1121 731.062 28.0971 Q734.668 30.082 736.977 34.0924 L736.977 27.2059 L744.43 27.2059 L744.43 66.9452 Z" fill="#000000" fill-rule="evenodd" fill-opacity="1" /><path clip-path="url(#clip560)" d="M809.69 19.2256 L789.031 51.5113 L809.69 51.5113 L809.69 19.2256 M807.543 12.096 L817.833 12.096 L817.833 51.5113 L826.461 51.5113 L826.461 58.3168 L817.833 58.3168 L817.833 72.576 L809.69 72.576 L809.69 58.3168 L782.387 58.3168 L782.387 50.4176 L807.543 12.096 Z" fill="#000000" fill-rule="evenodd" fill-opacity="1" /><path clip-path="url(#clip560)" d="M839.991 62.2867 L848.539 62.2867 L848.539 72.576 L839.991 72.576 L839.991 62.2867 Z" fill="#000000" fill-rule="evenodd" fill-opacity="1" /><path clip-path="url(#clip560)" d="M867.78 65.6895 L881.148 65.6895 L881.148 19.5497 L866.606 22.4663 L866.606 15.0127 L881.067 12.096 L889.25 12.096 L889.25 65.6895 L902.618 65.6895 L902.618 72.576 L867.78 72.576 L867.78 65.6895 Z" fill="#000000" fill-rule="evenodd" fill-opacity="1" /><path clip-path="url(#clip560)" d="M936.646 43.8551 Q930.812 43.8551 927.45 46.9743 Q924.128 50.0935 924.128 55.5622 Q924.128 61.0309 927.45 64.1501 Q930.812 67.2693 936.646 67.2693 Q942.479 67.2693 945.841 64.1501 Q949.204 60.9904 949.204 55.5622 Q949.204 50.0935 945.841 46.9743 Q942.52 43.8551 936.646 43.8551 M928.463 40.3713 Q923.197 39.075 920.24 35.4697 Q917.323 31.8644 917.323 26.6793 Q917.323 19.4281 922.468 15.2152 Q927.653 11.0023 936.646 11.0023 Q945.679 11.0023 950.824 15.2152 Q955.969 19.4281 955.969 26.6793 Q955.969 31.8644 953.011 35.4697 Q950.095 39.075 944.869 40.3713 Q950.783 41.7486 954.065 45.759 Q957.386 49.7694 957.386 55.5622 Q957.386 64.3527 951.999 69.0517 Q946.651 73.7508 936.646 73.7508 Q926.64 73.7508 921.252 69.0517 Q915.905 64.3527 915.905 55.5622 Q915.905 49.7694 919.227 45.759 Q922.549 41.7486 928.463 40.3713 M925.465 27.4489 Q925.465 32.148 928.382 34.7811 Q931.339 37.4142 936.646 37.4142 Q941.912 37.4142 944.869 34.7811 Q947.867 32.148 947.867 27.4489 Q947.867 22.7499 944.869 20.1168 Q941.912 17.4837 936.646 17.4837 Q931.339 17.4837 928.382 20.1168 Q925.465 22.7499 925.465 27.4489 Z" fill="#000000" fill-rule="evenodd" fill-opacity="1" /><path clip-path="url(#clip560)" d="M1042.86 16.7545 L1042.86 25.383 Q1038.73 21.5346 1034.03 19.6307 Q1029.37 17.7268 1024.1 17.7268 Q1013.73 17.7268 1008.23 24.0867 Q1002.72 30.4061 1002.72 42.3968 Q1002.72 54.3469 1008.23 60.7069 Q1013.73 67.0263 1024.1 67.0263 Q1029.37 67.0263 1034.03 65.1223 Q1038.73 63.2184 1042.86 59.3701 L1042.86 67.9175 Q1038.57 70.8341 1033.75 72.2924 Q1028.97 73.7508 1023.62 73.7508 Q1009.89 73.7508 1001.99 65.3654 Q994.088 56.9395 994.088 42.3968 Q994.088 27.8135 1001.99 19.4281 Q1009.89 11.0023 1023.62 11.0023 Q1029.05 11.0023 1033.83 12.4606 Q1038.65 13.8784 1042.86 16.7545 Z" fill="#000000" fill-rule="evenodd" fill-opacity="1" /><path clip-path="url(#clip560)" d="M1072.76 32.4315 Q1066.76 32.4315 1063.28 37.1306 Q1059.79 41.7891 1059.79 49.9314 Q1059.79 58.0738 1063.24 62.7728 Q1066.72 67.4314 1072.76 67.4314 Q1078.71 67.4314 1082.19 62.7323 Q1085.68 58.0333 1085.68 49.9314 Q1085.68 41.8701 1082.19 37.1711 Q1078.71 32.4315 1072.76 32.4315 M1072.76 26.1121 Q1082.48 26.1121 1088.03 32.4315 Q1093.58 38.7509 1093.58 49.9314 Q1093.58 61.0714 1088.03 67.4314 Q1082.48 73.7508 1072.76 73.7508 Q1062.99 73.7508 1057.44 67.4314 Q1051.93 61.0714 1051.93 49.9314 Q1051.93 38.7509 1057.44 32.4315 Q1062.99 26.1121 1072.76 26.1121 Z" fill="#000000" fill-rule="evenodd" fill-opacity="1" /><path clip-path="url(#clip560)" d="M1143.65 45.1919 L1143.65 72.576 L1136.19 72.576 L1136.19 45.4349 Q1136.19 38.994 1133.68 35.7938 Q1131.17 32.5936 1126.15 32.5936 Q1120.11 32.5936 1116.63 36.4419 Q1113.14 40.2903 1113.14 46.9338 L1113.14 72.576 L1105.65 72.576 L1105.65 27.2059 L1113.14 27.2059 L1113.14 34.2544 Q1115.82 30.163 1119.42 28.1376 Q1123.07 26.1121 1127.81 26.1121 Q1135.63 26.1121 1139.64 30.9732 Q1143.65 35.7938 1143.65 45.1919 Z" fill="#000000" fill-rule="evenodd" fill-opacity="1" /><path clip-path="url(#clip560)" d="M1165.89 14.324 L1165.89 27.2059 L1181.24 27.2059 L1181.24 32.9987 L1165.89 32.9987 L1165.89 57.6282 Q1165.89 63.1779 1167.39 64.7578 Q1168.92 66.3376 1173.58 66.3376 L1181.24 66.3376 L1181.24 72.576 L1173.58 72.576 Q1164.95 72.576 1161.67 69.3758 Q1158.39 66.1351 1158.39 57.6282 L1158.39 32.9987 L1152.92 32.9987 L1152.92 27.2059 L1158.39 27.2059 L1158.39 14.324 L1165.89 14.324 Z" fill="#000000" fill-rule="evenodd" fill-opacity="1" /><path clip-path="url(#clip560)" d="M1191.04 27.2059 L1198.5 27.2059 L1198.5 72.576 L1191.04 72.576 L1191.04 27.2059 M1191.04 9.54393 L1198.5 9.54393 L1198.5 18.9825 L1191.04 18.9825 L1191.04 9.54393 Z" fill="#000000" fill-rule="evenodd" fill-opacity="1" /><path clip-path="url(#clip560)" d="M1251.81 45.1919 L1251.81 72.576 L1244.35 72.576 L1244.35 45.4349 Q1244.35 38.994 1241.84 35.7938 Q1239.33 32.5936 1234.31 32.5936 Q1228.27 32.5936 1224.79 36.4419 Q1221.3 40.2903 1221.3 46.9338 L1221.3 72.576 L1213.81 72.576 L1213.81 27.2059 L1221.3 27.2059 L1221.3 34.2544 Q1223.98 30.163 1227.58 28.1376 Q1231.23 26.1121 1235.97 26.1121 Q1243.79 26.1121 1247.8 30.9732 Q1251.81 35.7938 1251.81 45.1919 Z" fill="#000000" fill-rule="evenodd" fill-opacity="1" /><path clip-path="url(#clip560)" d="M1265.9 54.671 L1265.9 27.2059 L1273.36 27.2059 L1273.36 54.3874 Q1273.36 60.8284 1275.87 64.0691 Q1278.38 67.2693 1283.4 67.2693 Q1289.44 67.2693 1292.92 63.421 Q1296.45 59.5726 1296.45 52.9291 L1296.45 27.2059 L1303.9 27.2059 L1303.9 72.576 L1296.45 72.576 L1296.45 65.6084 Q1293.73 69.7404 1290.13 71.7658 Q1286.56 73.7508 1281.82 73.7508 Q1274.01 73.7508 1269.95 68.8897 Q1265.9 64.0286 1265.9 54.671 M1284.66 26.1121 L1284.66 26.1121 Z" fill="#000000" fill-rule="evenodd" fill-opacity="1" /><path clip-path="url(#clip560)" d="M1339.87 49.7694 Q1330.84 49.7694 1327.36 51.8354 Q1323.87 53.9013 1323.87 58.8839 Q1323.87 62.8538 1326.46 65.2034 Q1329.1 67.5124 1333.59 67.5124 Q1339.79 67.5124 1343.52 63.1374 Q1347.29 58.7219 1347.29 51.4303 L1347.29 49.7694 L1339.87 49.7694 M1354.74 46.6907 L1354.74 72.576 L1347.29 72.576 L1347.29 65.6895 Q1344.73 69.8214 1340.93 71.8063 Q1337.12 73.7508 1331.61 73.7508 Q1324.64 73.7508 1320.51 69.8619 Q1316.42 65.9325 1316.42 59.3701 Q1316.42 51.7138 1321.52 47.825 Q1326.67 43.9361 1336.83 43.9361 L1347.29 43.9361 L1347.29 43.2069 Q1347.29 38.0623 1343.88 35.2672 Q1340.52 32.4315 1334.4 32.4315 Q1330.52 32.4315 1326.83 33.3632 Q1323.14 34.295 1319.74 36.1584 L1319.74 29.2718 Q1323.83 27.692 1327.68 26.9223 Q1331.53 26.1121 1335.17 26.1121 Q1345.02 26.1121 1349.88 31.2163 Q1354.74 36.3204 1354.74 46.6907 Z" fill="#000000" fill-rule="evenodd" fill-opacity="1" /><path clip-path="url(#clip560)" d="M1377.47 14.324 L1377.47 27.2059 L1392.82 27.2059 L1392.82 32.9987 L1377.47 32.9987 L1377.47 57.6282 Q1377.47 63.1779 1378.96 64.7578 Q1380.5 66.3376 1385.16 66.3376 L1392.82 66.3376 L1392.82 72.576 L1385.16 72.576 Q1376.53 72.576 1373.25 69.3758 Q1369.97 66.1351 1369.97 57.6282 L1369.97 32.9987 L1364.5 32.9987 L1364.5 27.2059 L1369.97 27.2059 L1369.97 14.324 L1377.47 14.324 Z" fill="#000000" fill-rule="evenodd" fill-opacity="1" /><path clip-path="url(#clip560)" d="M1402.62 27.2059 L1410.07 27.2059 L1410.07 72.576 L1402.62 72.576 L1402.62 27.2059 M1402.62 9.54393 L1410.07 9.54393 L1410.07 18.9825 L1402.62 18.9825 L1402.62 9.54393 Z" fill="#000000" fill-rule="evenodd" fill-opacity="1" /><path clip-path="url(#clip560)" d="M1443.25 32.4315 Q1437.26 32.4315 1433.77 37.1306 Q1430.29 41.7891 1430.29 49.9314 Q1430.29 58.0738 1433.73 62.7728 Q1437.22 67.4314 1443.25 67.4314 Q1449.21 67.4314 1452.69 62.7323 Q1456.17 58.0333 1456.17 49.9314 Q1456.17 41.8701 1452.69 37.1711 Q1449.21 32.4315 1443.25 32.4315 M1443.25 26.1121 Q1452.97 26.1121 1458.52 32.4315 Q1464.07 38.7509 1464.07 49.9314 Q1464.07 61.0714 1458.52 67.4314 Q1452.97 73.7508 1443.25 73.7508 Q1433.49 73.7508 1427.94 67.4314 Q1422.43 61.0714 1422.43 49.9314 Q1422.43 38.7509 1427.94 32.4315 Q1433.49 26.1121 1443.25 26.1121 Z" fill="#000000" fill-rule="evenodd" fill-opacity="1" /><path clip-path="url(#clip560)" d="M1514.14 45.1919 L1514.14 72.576 L1506.69 72.576 L1506.69 45.4349 Q1506.69 38.994 1504.18 35.7938 Q1501.67 32.5936 1496.64 32.5936 Q1490.61 32.5936 1487.12 36.4419 Q1483.64 40.2903 1483.64 46.9338 L1483.64 72.576 L1476.15 72.576 L1476.15 27.2059 L1483.64 27.2059 L1483.64 34.2544 Q1486.31 30.163 1489.92 28.1376 Q1493.56 26.1121 1498.3 26.1121 Q1506.12 26.1121 1510.13 30.9732 Q1514.14 35.7938 1514.14 45.1919 Z" fill="#000000" fill-rule="evenodd" fill-opacity="1" /><path clip-path="url(#clip560)" d="M1585.24 34.0924 L1585.24 9.54393 L1592.69 9.54393 L1592.69 72.576 L1585.24 72.576 L1585.24 65.7705 Q1582.89 69.8214 1579.28 71.8063 Q1575.72 73.7508 1570.69 73.7508 Q1562.47 73.7508 1557.28 67.1883 Q1552.14 60.6258 1552.14 49.9314 Q1552.14 39.2371 1557.28 32.6746 Q1562.47 26.1121 1570.69 26.1121 Q1575.72 26.1121 1579.28 28.0971 Q1582.89 30.0415 1585.24 34.0924 M1559.84 49.9314 Q1559.84 58.1548 1563.2 62.8538 Q1566.6 67.5124 1572.52 67.5124 Q1578.43 67.5124 1581.83 62.8538 Q1585.24 58.1548 1585.24 49.9314 Q1585.24 41.7081 1581.83 37.0496 Q1578.43 32.3505 1572.52 32.3505 Q1566.6 32.3505 1563.2 37.0496 Q1559.84 41.7081 1559.84 49.9314 Z" fill="#000000" fill-rule="evenodd" fill-opacity="1" /><path clip-path="url(#clip560)" d="M1608.04 27.2059 L1615.5 27.2059 L1615.5 72.576 L1608.04 72.576 L1608.04 27.2059 M1608.04 9.54393 L1615.5 9.54393 L1615.5 18.9825 L1608.04 18.9825 L1608.04 9.54393 Z" fill="#000000" fill-rule="evenodd" fill-opacity="1" /><path clip-path="url(#clip560)" d="M1651.71 49.7694 Q1642.68 49.7694 1639.19 51.8354 Q1635.71 53.9013 1635.71 58.8839 Q1635.71 62.8538 1638.3 65.2034 Q1640.94 67.5124 1645.43 67.5124 Q1651.63 67.5124 1655.36 63.1374 Q1659.12 58.7219 1659.12 51.4303 L1659.12 49.7694 L1651.71 49.7694 M1666.58 46.6907 L1666.58 72.576 L1659.12 72.576 L1659.12 65.6895 Q1656.57 69.8214 1652.76 71.8063 Q1648.96 73.7508 1643.45 73.7508 Q1636.48 73.7508 1632.35 69.8619 Q1628.26 65.9325 1628.26 59.3701 Q1628.26 51.7138 1633.36 47.825 Q1638.51 43.9361 1648.67 43.9361 L1659.12 43.9361 L1659.12 43.2069 Q1659.12 38.0623 1655.72 35.2672 Q1652.36 32.4315 1646.24 32.4315 Q1642.35 32.4315 1638.67 33.3632 Q1634.98 34.295 1631.58 36.1584 L1631.58 29.2718 Q1635.67 27.692 1639.52 26.9223 Q1643.37 26.1121 1647.01 26.1121 Q1656.86 26.1121 1661.72 31.2163 Q1666.58 36.3204 1666.58 46.6907 Z" fill="#000000" fill-rule="evenodd" fill-opacity="1" /><path clip-path="url(#clip560)" d="M1711.79 49.3643 Q1711.79 41.2625 1708.42 36.8065 Q1705.1 32.3505 1699.07 32.3505 Q1693.07 32.3505 1689.71 36.8065 Q1686.39 41.2625 1686.39 49.3643 Q1686.39 57.4256 1689.71 61.8816 Q1693.07 66.3376 1699.07 66.3376 Q1705.1 66.3376 1708.42 61.8816 Q1711.79 57.4256 1711.79 49.3643 M1719.24 66.9452 Q1719.24 78.5308 1714.1 84.1616 Q1708.95 89.8329 1698.34 89.8329 Q1694.41 89.8329 1690.92 89.2252 Q1687.44 88.6581 1684.16 87.4428 L1684.16 80.1917 Q1687.44 81.9741 1690.64 82.8248 Q1693.84 83.6755 1697.16 83.6755 Q1704.49 83.6755 1708.14 79.8271 Q1711.79 76.0193 1711.79 68.282 L1711.79 64.5957 Q1709.48 68.6061 1705.87 70.5911 Q1702.27 72.576 1697.24 72.576 Q1688.9 72.576 1683.79 66.2161 Q1678.69 59.8562 1678.69 49.3643 Q1678.69 38.832 1683.79 32.472 Q1688.9 26.1121 1697.24 26.1121 Q1702.27 26.1121 1705.87 28.0971 Q1709.48 30.082 1711.79 34.0924 L1711.79 27.2059 L1719.24 27.2059 L1719.24 66.9452 Z" fill="#000000" fill-rule="evenodd" fill-opacity="1" /><path clip-path="url(#clip560)" d="M1760.88 34.1734 Q1759.63 33.4443 1758.13 33.1202 Q1756.67 32.7556 1754.89 32.7556 Q1748.57 32.7556 1745.17 36.8875 Q1741.8 40.9789 1741.8 48.6757 L1741.8 72.576 L1734.31 72.576 L1734.31 27.2059 L1741.8 27.2059 L1741.8 34.2544 Q1744.15 30.1225 1747.92 28.1376 Q1751.69 26.1121 1757.08 26.1121 Q1757.85 26.1121 1758.78 26.2337 Q1759.71 26.3147 1760.84 26.5172 L1760.88 34.1734 Z" fill="#000000" fill-rule="evenodd" fill-opacity="1" /><path clip-path="url(#clip560)" d="M1789.32 49.7694 Q1780.29 49.7694 1776.8 51.8354 Q1773.32 53.9013 1773.32 58.8839 Q1773.32 62.8538 1775.91 65.2034 Q1778.55 67.5124 1783.04 67.5124 Q1789.24 67.5124 1792.97 63.1374 Q1796.73 58.7219 1796.73 51.4303 L1796.73 49.7694 L1789.32 49.7694 M1804.19 46.6907 L1804.19 72.576 L1796.73 72.576 L1796.73 65.6895 Q1794.18 69.8214 1790.37 71.8063 Q1786.57 73.7508 1781.06 73.7508 Q1774.09 73.7508 1769.96 69.8619 Q1765.87 65.9325 1765.87 59.3701 Q1765.87 51.7138 1770.97 47.825 Q1776.11 43.9361 1786.28 43.9361 L1796.73 43.9361 L1796.73 43.2069 Q1796.73 38.0623 1793.33 35.2672 Q1789.97 32.4315 1783.85 32.4315 Q1779.96 32.4315 1776.28 33.3632 Q1772.59 34.295 1769.19 36.1584 L1769.19 29.2718 Q1773.28 27.692 1777.13 26.9223 Q1780.98 26.1121 1784.62 26.1121 Q1794.47 26.1121 1799.33 31.2163 Q1804.19 36.3204 1804.19 46.6907 Z" fill="#000000" fill-rule="evenodd" fill-opacity="1" /><path clip-path="url(#clip560)" d="M1854.86 35.9153 Q1857.66 30.8922 1861.55 28.5022 Q1865.44 26.1121 1870.7 26.1121 Q1877.79 26.1121 1881.64 31.0947 Q1885.49 36.0368 1885.49 45.1919 L1885.49 72.576 L1877.99 72.576 L1877.99 45.4349 Q1877.99 38.913 1875.69 35.7533 Q1873.38 32.5936 1868.64 32.5936 Q1862.84 32.5936 1859.48 36.4419 Q1856.12 40.2903 1856.12 46.9338 L1856.12 72.576 L1848.63 72.576 L1848.63 45.4349 Q1848.63 38.8725 1846.32 35.7533 Q1844.01 32.5936 1839.19 32.5936 Q1833.48 32.5936 1830.11 36.4824 Q1826.75 40.3308 1826.75 46.9338 L1826.75 72.576 L1819.26 72.576 L1819.26 27.2059 L1826.75 27.2059 L1826.75 34.2544 Q1829.3 30.082 1832.87 28.0971 Q1836.43 26.1121 1841.33 26.1121 Q1846.28 26.1121 1849.72 28.6237 Q1853.2 31.1352 1854.86 35.9153 Z" fill="#000000" fill-rule="evenodd" fill-opacity="1" /><polyline clip-path="url(#clip562)" style="stroke:#009af9; stroke-linecap:butt; stroke-linejoin:round; stroke-width:8; stroke-opacity:1; fill:none" points="
  175.445,1423.18 219.88,1178.32 264.315,1065.73 308.75,988.969 353.185,929.663 397.62,880.857 442.055,839.126 486.49,802.519 530.925,769.807 575.359,740.17 
  619.794,713.024 664.229,687.944 708.664,664.606 753.099,642.76 797.534,622.207 841.969,602.787 886.404,584.368 930.839,566.841 975.274,550.114 1019.71,534.11 
  1064.14,518.762 1108.58,504.013 1153.01,489.811 1197.45,476.114 1241.88,462.882 1286.32,450.083 1330.75,437.684 1375.19,425.659 1419.62,413.983 1464.06,402.635 
  1508.49,391.594 1552.93,380.842 1597.36,370.363 1641.8,360.142 1686.23,350.164 1730.67,340.418 1775.1,330.89 1819.54,321.572 1863.97,312.451 1908.41,303.52 
  1952.84,294.77 1997.28,286.192 2041.71,277.78 2086.15,269.525 2130.58,261.422 2175.02,253.464 2219.45,245.646 2263.89,237.963 2308.32,230.408 2352.76,222.979 
  
  "/>
</svg>
