<?xml version="1.0" encoding="utf-8"?>
<svg xmlns="http://www.w3.org/2000/svg" xmlns:xlink="http://www.w3.org/1999/xlink" width="600" height="400" viewBox="0 0 2400 1600">
<defs>
  <clipPath id="clip360">
    <rect x="0" y="0" width="2400" height="1600"/>
  </clipPath>
</defs>
<path clip-path="url(#clip360)" d="
M0 1600 L2400 1600 L2400 0 L0 0  Z
  " fill="#ffffff" fill-rule="evenodd" fill-opacity="1"/>
<defs>
  <clipPath id="clip361">
    <rect x="480" y="0" width="1681" height="1600"/>
  </clipPath>
</defs>
<path clip-path="url(#clip360)" d="
M219.033 1423.18 L2352.76 1423.18 L2352.76 123.472 L219.033 123.472  Z
  " fill="#ffffff" fill-rule="evenodd" fill-opacity="1"/>
<defs>
  <clipPath id="clip362">
    <rect x="219" y="123" width="2135" height="1301"/>
  </clipPath>
</defs>
<polyline clip-path="url(#clip362)" style="stroke:#000000; stroke-linecap:butt; stroke-linejoin:round; stroke-width:2; stroke-opacity:0.1; fill:none" points="
  219.033,1423.18 219.033,123.472 
  "/>
<polyline clip-path="url(#clip362)" style="stroke:#000000; stroke-linecap:butt; stroke-linejoin:round; stroke-width:2; stroke-opacity:0.1; fill:none" points="
  752.464,1423.18 752.464,123.472 
  "/>
<polyline clip-path="url(#clip362)" style="stroke:#000000; stroke-linecap:butt; stroke-linejoin:round; stroke-width:2; stroke-opacity:0.1; fill:none" points="
  1285.89,1423.18 1285.89,123.472 
  "/>
<polyline clip-path="url(#clip362)" style="stroke:#000000; stroke-linecap:butt; stroke-linejoin:round; stroke-width:2; stroke-opacity:0.1; fill:none" points="
  1819.33,1423.18 1819.33,123.472 
  "/>
<polyline clip-path="url(#clip362)" style="stroke:#000000; stroke-linecap:butt; stroke-linejoin:round; stroke-width:2; stroke-opacity:0.1; fill:none" points="
  2352.76,1423.18 2352.76,123.472 
  "/>
<polyline clip-path="url(#clip360)" style="stroke:#000000; stroke-linecap:butt; stroke-linejoin:round; stroke-width:4; stroke-opacity:1; fill:none" points="
  219.033,1423.18 2352.76,1423.18 
  "/>
<polyline clip-path="url(#clip360)" style="stroke:#000000; stroke-linecap:butt; stroke-linejoin:round; stroke-width:4; stroke-opacity:1; fill:none" points="
  219.033,1423.18 219.033,1404.28 
  "/>
<polyline clip-path="url(#clip360)" style="stroke:#000000; stroke-linecap:butt; stroke-linejoin:round; stroke-width:4; stroke-opacity:1; fill:none" points="
  752.464,1423.18 752.464,1404.28 
  "/>
<polyline clip-path="url(#clip360)" style="stroke:#000000; stroke-linecap:butt; stroke-linejoin:round; stroke-width:4; stroke-opacity:1; fill:none" points="
  1285.89,1423.18 1285.89,1404.28 
  "/>
<polyline clip-path="url(#clip360)" style="stroke:#000000; stroke-linecap:butt; stroke-linejoin:round; stroke-width:4; stroke-opacity:1; fill:none" points="
  1819.33,1423.18 1819.33,1404.28 
  "/>
<polyline clip-path="url(#clip360)" style="stroke:#000000; stroke-linecap:butt; stroke-linejoin:round; stroke-width:4; stroke-opacity:1; fill:none" points="
  2352.76,1423.18 2352.76,1404.28 
  "/>
<path clip-path="url(#clip360)" d="M219.033 1454.1 Q215.422 1454.1 213.593 1457.66 Q211.788 1461.2 211.788 1468.33 Q211.788 1475.44 213.593 1479.01 Q215.422 1482.55 219.033 1482.55 Q222.667 1482.55 224.473 1479.01 Q226.301 1475.44 226.301 1468.33 Q226.301 1461.2 224.473 1457.66 Q222.667 1454.1 219.033 1454.1 M219.033 1450.39 Q224.843 1450.39 227.899 1455 Q230.977 1459.58 230.977 1468.33 Q230.977 1477.06 227.899 1481.67 Q224.843 1486.25 219.033 1486.25 Q213.223 1486.25 210.144 1481.67 Q207.089 1477.06 207.089 1468.33 Q207.089 1459.58 210.144 1455 Q213.223 1450.39 219.033 1450.39 Z" fill="#000000" fill-rule="evenodd" fill-opacity="1" /><path clip-path="url(#clip360)" d="M747.116 1481.64 L763.436 1481.64 L763.436 1485.58 L741.492 1485.58 L741.492 1481.64 Q744.154 1478.89 748.737 1474.26 Q753.343 1469.61 754.524 1468.27 Q756.769 1465.74 757.649 1464.01 Q758.552 1462.25 758.552 1460.56 Q758.552 1457.8 756.607 1456.07 Q754.686 1454.33 751.584 1454.33 Q749.385 1454.33 746.931 1455.09 Q744.501 1455.86 741.723 1457.41 L741.723 1452.69 Q744.547 1451.55 747.001 1450.97 Q749.454 1450.39 751.491 1450.39 Q756.862 1450.39 760.056 1453.08 Q763.251 1455.77 763.251 1460.26 Q763.251 1462.39 762.44 1464.31 Q761.653 1466.2 759.547 1468.8 Q758.968 1469.47 755.866 1472.69 Q752.765 1475.88 747.116 1481.64 Z" fill="#000000" fill-rule="evenodd" fill-opacity="1" /><path clip-path="url(#clip360)" d="M1288.9 1455.09 L1277.1 1473.54 L1288.9 1473.54 L1288.9 1455.09 M1287.68 1451.02 L1293.56 1451.02 L1293.56 1473.54 L1298.49 1473.54 L1298.49 1477.43 L1293.56 1477.43 L1293.56 1485.58 L1288.9 1485.58 L1288.9 1477.43 L1273.3 1477.43 L1273.3 1472.92 L1287.68 1451.02 Z" fill="#000000" fill-rule="evenodd" fill-opacity="1" /><path clip-path="url(#clip360)" d="M1819.73 1466.44 Q1816.58 1466.44 1814.73 1468.59 Q1812.9 1470.74 1812.9 1474.49 Q1812.9 1478.22 1814.73 1480.39 Q1816.58 1482.55 1819.73 1482.55 Q1822.88 1482.55 1824.71 1480.39 Q1826.56 1478.22 1826.56 1474.49 Q1826.56 1470.74 1824.71 1468.59 Q1822.88 1466.44 1819.73 1466.44 M1829.01 1451.78 L1829.01 1456.04 Q1827.25 1455.21 1825.45 1454.77 Q1823.67 1454.33 1821.91 1454.33 Q1817.28 1454.33 1814.82 1457.45 Q1812.39 1460.58 1812.05 1466.9 Q1813.41 1464.89 1815.47 1463.82 Q1817.53 1462.73 1820.01 1462.73 Q1825.22 1462.73 1828.23 1465.9 Q1831.26 1469.05 1831.26 1474.49 Q1831.26 1479.82 1828.11 1483.03 Q1824.96 1486.25 1819.73 1486.25 Q1813.73 1486.25 1810.56 1481.67 Q1807.39 1477.06 1807.39 1468.33 Q1807.39 1460.14 1811.28 1455.28 Q1815.17 1450.39 1821.72 1450.39 Q1823.48 1450.39 1825.26 1450.74 Q1827.07 1451.09 1829.01 1451.78 Z" fill="#000000" fill-rule="evenodd" fill-opacity="1" /><path clip-path="url(#clip360)" d="M2352.76 1469.17 Q2349.42 1469.17 2347.5 1470.95 Q2345.6 1472.73 2345.6 1475.86 Q2345.6 1478.98 2347.5 1480.77 Q2349.42 1482.55 2352.76 1482.55 Q2356.09 1482.55 2358.01 1480.77 Q2359.93 1478.96 2359.93 1475.86 Q2359.93 1472.73 2358.01 1470.95 Q2356.11 1469.17 2352.76 1469.17 M2348.08 1467.18 Q2345.07 1466.44 2343.38 1464.38 Q2341.71 1462.32 2341.71 1459.35 Q2341.71 1455.21 2344.65 1452.8 Q2347.62 1450.39 2352.76 1450.39 Q2357.92 1450.39 2360.86 1452.8 Q2363.8 1455.21 2363.8 1459.35 Q2363.8 1462.32 2362.11 1464.38 Q2360.44 1466.44 2357.45 1467.18 Q2360.83 1467.96 2362.71 1470.26 Q2364.61 1472.55 2364.61 1475.86 Q2364.61 1480.88 2361.53 1483.57 Q2358.47 1486.25 2352.76 1486.25 Q2347.04 1486.25 2343.96 1483.57 Q2340.9 1480.88 2340.9 1475.86 Q2340.9 1472.55 2342.8 1470.26 Q2344.7 1467.96 2348.08 1467.18 M2346.37 1459.79 Q2346.37 1462.48 2348.03 1463.98 Q2349.72 1465.49 2352.76 1465.49 Q2355.77 1465.49 2357.45 1463.98 Q2359.17 1462.48 2359.17 1459.79 Q2359.17 1457.11 2357.45 1455.6 Q2355.77 1454.1 2352.76 1454.1 Q2349.72 1454.1 2348.03 1455.6 Q2346.37 1457.11 2346.37 1459.79 Z" fill="#000000" fill-rule="evenodd" fill-opacity="1" /><path clip-path="url(#clip360)" d="M1207.77 1520.52 L1247.97 1520.52 L1247.97 1525.93 L1231.1 1525.93 L1231.1 1568.04 L1224.64 1568.04 L1224.64 1525.93 L1207.77 1525.93 L1207.77 1520.52 Z" fill="#000000" fill-rule="evenodd" fill-opacity="1" /><path clip-path="url(#clip360)" d="M1251.92 1532.4 L1257.77 1532.4 L1257.77 1568.04 L1251.92 1568.04 L1251.92 1532.4 M1251.92 1518.52 L1257.77 1518.52 L1257.77 1525.93 L1251.92 1525.93 L1251.92 1518.52 Z" fill="#000000" fill-rule="evenodd" fill-opacity="1" /><path clip-path="url(#clip360)" d="M1297.78 1539.24 Q1299.98 1535.29 1303.03 1533.41 Q1306.09 1531.54 1310.23 1531.54 Q1315.8 1531.54 1318.82 1535.45 Q1321.84 1539.33 1321.84 1546.53 L1321.84 1568.04 L1315.96 1568.04 L1315.96 1546.72 Q1315.96 1541.59 1314.14 1539.11 Q1312.33 1536.63 1308.6 1536.63 Q1304.05 1536.63 1301.41 1539.65 Q1298.77 1542.68 1298.77 1547.9 L1298.77 1568.04 L1292.88 1568.04 L1292.88 1546.72 Q1292.88 1541.56 1291.07 1539.11 Q1289.25 1536.63 1285.46 1536.63 Q1280.98 1536.63 1278.34 1539.68 Q1275.69 1542.71 1275.69 1547.9 L1275.69 1568.04 L1269.81 1568.04 L1269.81 1532.4 L1275.69 1532.4 L1275.69 1537.93 Q1277.7 1534.66 1280.5 1533.1 Q1283.3 1531.54 1287.15 1531.54 Q1291.03 1531.54 1293.74 1533.51 Q1296.48 1535.48 1297.78 1539.24 Z" fill="#000000" fill-rule="evenodd" fill-opacity="1" /><path clip-path="url(#clip360)" d="M1364.02 1548.76 L1364.02 1551.62 L1337.09 1551.62 Q1337.47 1557.67 1340.72 1560.85 Q1344 1564 1349.82 1564 Q1353.2 1564 1356.35 1563.17 Q1359.53 1562.35 1362.65 1560.69 L1362.65 1566.23 Q1359.5 1567.57 1356.19 1568.27 Q1352.88 1568.97 1349.47 1568.97 Q1340.94 1568.97 1335.94 1564 Q1330.98 1559.04 1330.98 1550.57 Q1330.98 1541.82 1335.69 1536.69 Q1340.43 1531.54 1348.45 1531.54 Q1355.65 1531.54 1359.82 1536.18 Q1364.02 1540.8 1364.02 1548.76 M1358.16 1547.04 Q1358.1 1542.23 1355.46 1539.37 Q1352.85 1536.5 1348.52 1536.5 Q1343.62 1536.5 1340.66 1539.27 Q1337.73 1542.04 1337.28 1547.07 L1358.16 1547.04 Z" fill="#000000" fill-rule="evenodd" fill-opacity="1" /><polyline clip-path="url(#clip362)" style="stroke:#000000; stroke-linecap:butt; stroke-linejoin:round; stroke-width:2; stroke-opacity:0.1; fill:none" points="
  219.033,1295.21 2352.76,1295.21 
  "/>
<polyline clip-path="url(#clip362)" style="stroke:#000000; stroke-linecap:butt; stroke-linejoin:round; stroke-width:2; stroke-opacity:0.1; fill:none" points="
  219.033,1047.2 2352.76,1047.2 
  "/>
<polyline clip-path="url(#clip362)" style="stroke:#000000; stroke-linecap:butt; stroke-linejoin:round; stroke-width:2; stroke-opacity:0.1; fill:none" points="
  219.033,799.191 2352.76,799.191 
  "/>
<polyline clip-path="url(#clip362)" style="stroke:#000000; stroke-linecap:butt; stroke-linejoin:round; stroke-width:2; stroke-opacity:0.1; fill:none" points="
  219.033,551.182 2352.76,551.182 
  "/>
<polyline clip-path="url(#clip362)" style="stroke:#000000; stroke-linecap:butt; stroke-linejoin:round; stroke-width:2; stroke-opacity:0.1; fill:none" points="
  219.033,303.173 2352.76,303.173 
  "/>
<polyline clip-path="url(#clip360)" style="stroke:#000000; stroke-linecap:butt; stroke-linejoin:round; stroke-width:4; stroke-opacity:1; fill:none" points="
  219.033,1423.18 219.033,123.472 
  "/>
<polyline clip-path="url(#clip360)" style="stroke:#000000; stroke-linecap:butt; stroke-linejoin:round; stroke-width:4; stroke-opacity:1; fill:none" points="
  219.033,1295.21 237.931,1295.21 
  "/>
<polyline clip-path="url(#clip360)" style="stroke:#000000; stroke-linecap:butt; stroke-linejoin:round; stroke-width:4; stroke-opacity:1; fill:none" points="
  219.033,1047.2 237.931,1047.2 
  "/>
<polyline clip-path="url(#clip360)" style="stroke:#000000; stroke-linecap:butt; stroke-linejoin:round; stroke-width:4; stroke-opacity:1; fill:none" points="
  219.033,799.191 237.931,799.191 
  "/>
<polyline clip-path="url(#clip360)" style="stroke:#000000; stroke-linecap:butt; stroke-linejoin:round; stroke-width:4; stroke-opacity:1; fill:none" points="
  219.033,551.182 237.931,551.182 
  "/>
<polyline clip-path="url(#clip360)" style="stroke:#000000; stroke-linecap:butt; stroke-linejoin:round; stroke-width:4; stroke-opacity:1; fill:none" points="
  219.033,303.173 237.931,303.173 
  "/>
<path clip-path="url(#clip360)" d="M116.668 1308.55 L124.306 1308.55 L124.306 1282.19 L115.996 1283.86 L115.996 1279.6 L124.26 1277.93 L128.936 1277.93 L128.936 1308.55 L136.575 1308.55 L136.575 1312.49 L116.668 1312.49 L116.668 1308.55 Z" fill="#000000" fill-rule="evenodd" fill-opacity="1" /><path clip-path="url(#clip360)" d="M146.019 1306.61 L150.903 1306.61 L150.903 1312.49 L146.019 1312.49 L146.019 1306.61 Z" fill="#000000" fill-rule="evenodd" fill-opacity="1" /><path clip-path="url(#clip360)" d="M171.089 1281.01 Q167.477 1281.01 165.649 1284.57 Q163.843 1288.11 163.843 1295.24 Q163.843 1302.35 165.649 1305.92 Q167.477 1309.46 171.089 1309.46 Q174.723 1309.46 176.528 1305.92 Q178.357 1302.35 178.357 1295.24 Q178.357 1288.11 176.528 1284.57 Q174.723 1281.01 171.089 1281.01 M171.089 1277.3 Q176.899 1277.3 179.954 1281.91 Q183.033 1286.49 183.033 1295.24 Q183.033 1303.97 179.954 1308.58 Q176.899 1313.16 171.089 1313.16 Q165.278 1313.16 162.2 1308.58 Q159.144 1303.97 159.144 1295.24 Q159.144 1286.49 162.2 1281.91 Q165.278 1277.3 171.089 1277.3 Z" fill="#000000" fill-rule="evenodd" fill-opacity="1" /><path clip-path="url(#clip360)" d="M117.663 1060.55 L125.302 1060.55 L125.302 1034.18 L116.992 1035.85 L116.992 1031.59 L125.255 1029.92 L129.931 1029.92 L129.931 1060.55 L137.57 1060.55 L137.57 1064.48 L117.663 1064.48 L117.663 1060.55 Z" fill="#000000" fill-rule="evenodd" fill-opacity="1" /><path clip-path="url(#clip360)" d="M147.015 1058.6 L151.899 1058.6 L151.899 1064.48 L147.015 1064.48 L147.015 1058.6 Z" fill="#000000" fill-rule="evenodd" fill-opacity="1" /><path clip-path="url(#clip360)" d="M162.13 1029.92 L180.487 1029.92 L180.487 1033.86 L166.413 1033.86 L166.413 1042.33 Q167.431 1041.98 168.45 1041.82 Q169.468 1041.63 170.487 1041.63 Q176.274 1041.63 179.653 1044.8 Q183.033 1047.98 183.033 1053.39 Q183.033 1058.97 179.561 1062.07 Q176.089 1065.15 169.769 1065.15 Q167.593 1065.15 165.325 1064.78 Q163.079 1064.41 160.672 1063.67 L160.672 1058.97 Q162.755 1060.11 164.977 1060.66 Q167.2 1061.22 169.677 1061.22 Q173.681 1061.22 176.019 1059.11 Q178.357 1057 178.357 1053.39 Q178.357 1049.78 176.019 1047.67 Q173.681 1045.57 169.677 1045.57 Q167.802 1045.57 165.927 1045.99 Q164.075 1046.4 162.13 1047.28 L162.13 1029.92 Z" fill="#000000" fill-rule="evenodd" fill-opacity="1" /><path clip-path="url(#clip360)" d="M119.885 812.536 L136.204 812.536 L136.204 816.471 L114.26 816.471 L114.26 812.536 Q116.922 809.781 121.505 805.152 Q126.112 800.499 127.292 799.156 Q129.538 796.633 130.417 794.897 Q131.32 793.138 131.32 791.448 Q131.32 788.694 129.376 786.957 Q127.455 785.221 124.353 785.221 Q122.154 785.221 119.7 785.985 Q117.269 786.749 114.492 788.3 L114.492 783.578 Q117.316 782.444 119.769 781.865 Q122.223 781.286 124.26 781.286 Q129.63 781.286 132.825 783.971 Q136.019 786.657 136.019 791.147 Q136.019 793.277 135.209 795.198 Q134.422 797.096 132.316 799.689 Q131.737 800.36 128.635 803.578 Q125.533 806.772 119.885 812.536 Z" fill="#000000" fill-rule="evenodd" fill-opacity="1" /><path clip-path="url(#clip360)" d="M146.019 810.592 L150.903 810.592 L150.903 816.471 L146.019 816.471 L146.019 810.592 Z" fill="#000000" fill-rule="evenodd" fill-opacity="1" /><path clip-path="url(#clip360)" d="M171.089 784.99 Q167.477 784.99 165.649 788.555 Q163.843 792.096 163.843 799.226 Q163.843 806.332 165.649 809.897 Q167.477 813.439 171.089 813.439 Q174.723 813.439 176.528 809.897 Q178.357 806.332 178.357 799.226 Q178.357 792.096 176.528 788.555 Q174.723 784.99 171.089 784.99 M171.089 781.286 Q176.899 781.286 179.954 785.893 Q183.033 790.476 183.033 799.226 Q183.033 807.953 179.954 812.559 Q176.899 817.142 171.089 817.142 Q165.278 817.142 162.2 812.559 Q159.144 807.953 159.144 799.226 Q159.144 790.476 162.2 785.893 Q165.278 781.286 171.089 781.286 Z" fill="#000000" fill-rule="evenodd" fill-opacity="1" /><path clip-path="url(#clip360)" d="M120.88 564.527 L137.2 564.527 L137.2 568.462 L115.256 568.462 L115.256 564.527 Q117.918 561.772 122.501 557.143 Q127.107 552.49 128.288 551.147 Q130.533 548.624 131.413 546.888 Q132.316 545.129 132.316 543.439 Q132.316 540.684 130.371 538.948 Q128.45 537.212 125.348 537.212 Q123.149 537.212 120.695 537.976 Q118.265 538.74 115.487 540.291 L115.487 535.569 Q118.311 534.434 120.765 533.856 Q123.218 533.277 125.255 533.277 Q130.626 533.277 133.82 535.962 Q137.015 538.647 137.015 543.138 Q137.015 545.268 136.204 547.189 Q135.417 549.087 133.311 551.68 Q132.732 552.351 129.63 555.568 Q126.529 558.763 120.88 564.527 Z" fill="#000000" fill-rule="evenodd" fill-opacity="1" /><path clip-path="url(#clip360)" d="M147.015 562.582 L151.899 562.582 L151.899 568.462 L147.015 568.462 L147.015 562.582 Z" fill="#000000" fill-rule="evenodd" fill-opacity="1" /><path clip-path="url(#clip360)" d="M162.13 533.902 L180.487 533.902 L180.487 537.837 L166.413 537.837 L166.413 546.309 Q167.431 545.962 168.45 545.8 Q169.468 545.615 170.487 545.615 Q176.274 545.615 179.653 548.786 Q183.033 551.957 183.033 557.374 Q183.033 562.953 179.561 566.055 Q176.089 569.133 169.769 569.133 Q167.593 569.133 165.325 568.763 Q163.079 568.392 160.672 567.652 L160.672 562.953 Q162.755 564.087 164.977 564.643 Q167.2 565.198 169.677 565.198 Q173.681 565.198 176.019 563.092 Q178.357 560.985 178.357 557.374 Q178.357 553.763 176.019 551.656 Q173.681 549.55 169.677 549.55 Q167.802 549.55 165.927 549.967 Q164.075 550.383 162.13 551.263 L162.13 533.902 Z" fill="#000000" fill-rule="evenodd" fill-opacity="1" /><path clip-path="url(#clip360)" d="M130.024 301.819 Q133.38 302.536 135.255 304.805 Q137.154 307.073 137.154 310.406 Q137.154 315.522 133.635 318.323 Q130.117 321.124 123.635 321.124 Q121.459 321.124 119.144 320.684 Q116.853 320.268 114.399 319.411 L114.399 314.897 Q116.343 316.031 118.658 316.61 Q120.973 317.189 123.496 317.189 Q127.894 317.189 130.186 315.453 Q132.501 313.717 132.501 310.406 Q132.501 307.351 130.348 305.638 Q128.218 303.902 124.399 303.902 L120.371 303.902 L120.371 300.059 L124.584 300.059 Q128.033 300.059 129.862 298.694 Q131.691 297.305 131.691 294.712 Q131.691 292.05 129.792 290.638 Q127.917 289.203 124.399 289.203 Q122.478 289.203 120.279 289.62 Q118.08 290.036 115.441 290.916 L115.441 286.749 Q118.103 286.008 120.418 285.638 Q122.755 285.268 124.816 285.268 Q130.14 285.268 133.242 287.698 Q136.343 290.106 136.343 294.226 Q136.343 297.096 134.7 299.087 Q133.056 301.055 130.024 301.819 Z" fill="#000000" fill-rule="evenodd" fill-opacity="1" /><path clip-path="url(#clip360)" d="M146.019 314.573 L150.903 314.573 L150.903 320.453 L146.019 320.453 L146.019 314.573 Z" fill="#000000" fill-rule="evenodd" fill-opacity="1" /><path clip-path="url(#clip360)" d="M171.089 288.971 Q167.477 288.971 165.649 292.536 Q163.843 296.078 163.843 303.207 Q163.843 310.314 165.649 313.879 Q167.477 317.42 171.089 317.42 Q174.723 317.42 176.528 313.879 Q178.357 310.314 178.357 303.207 Q178.357 296.078 176.528 292.536 Q174.723 288.971 171.089 288.971 M171.089 285.268 Q176.899 285.268 179.954 289.874 Q183.033 294.457 183.033 303.207 Q183.033 311.934 179.954 316.541 Q176.899 321.124 171.089 321.124 Q165.278 321.124 162.2 316.541 Q159.144 311.934 159.144 303.207 Q159.144 294.457 162.2 289.874 Q165.278 285.268 171.089 285.268 Z" fill="#000000" fill-rule="evenodd" fill-opacity="1" /><path clip-path="url(#clip360)" d="M20.1444 960.971 L26.9239 960.971 Q23.9002 964.218 22.4043 967.91 Q20.9083 971.57 20.9083 975.708 Q20.9083 983.856 25.9054 988.184 Q30.8707 992.513 40.2919 992.513 Q49.6813 992.513 54.6784 988.184 Q59.6436 983.856 59.6436 975.708 Q59.6436 971.57 58.1477 967.91 Q56.6518 964.218 53.6281 960.971 L60.3439 960.971 Q62.6355 964.345 63.7814 968.133 Q64.9272 971.888 64.9272 976.09 Q64.9272 986.88 58.3387 993.086 Q51.7183 999.293 40.2919 999.293 Q28.8336 999.293 22.2451 993.086 Q15.6248 986.88 15.6248 976.09 Q15.6248 971.825 16.7706 968.069 Q17.8846 964.281 20.1444 960.971 Z" fill="#000000" fill-rule="evenodd" fill-opacity="1" /><path clip-path="url(#clip360)" d="M32.4621 937.482 Q32.4621 942.192 36.1542 944.93 Q39.8145 947.667 46.212 947.667 Q52.6095 947.667 56.3017 944.961 Q59.9619 942.224 59.9619 937.482 Q59.9619 932.803 56.2698 930.066 Q52.5777 927.328 46.212 927.328 Q39.8781 927.328 36.186 930.066 Q32.4621 932.803 32.4621 937.482 M27.4968 937.482 Q27.4968 929.843 32.4621 925.482 Q37.4273 921.122 46.212 921.122 Q54.9649 921.122 59.9619 925.482 Q64.9272 929.843 64.9272 937.482 Q64.9272 945.152 59.9619 949.513 Q54.9649 953.842 46.212 953.842 Q37.4273 953.842 32.4621 949.513 Q27.4968 945.152 27.4968 937.482 Z" fill="#000000" fill-rule="evenodd" fill-opacity="1" /><path clip-path="url(#clip360)" d="M42.4881 881.782 L64.0042 881.782 L64.0042 887.638 L42.679 887.638 Q37.6183 887.638 35.1038 889.612 Q32.5894 891.585 32.5894 895.532 Q32.5894 900.274 35.6131 903.011 Q38.6368 905.749 43.8567 905.749 L64.0042 905.749 L64.0042 911.637 L28.3562 911.637 L28.3562 905.749 L33.8944 905.749 Q30.6797 903.648 29.0883 900.815 Q27.4968 897.951 27.4968 894.227 Q27.4968 888.084 31.3163 884.933 Q35.1038 881.782 42.4881 881.782 Z" fill="#000000" fill-rule="evenodd" fill-opacity="1" /><path clip-path="url(#clip360)" d="M29.7248 844.447 L35.1993 844.447 Q33.8307 846.929 33.1623 849.444 Q32.4621 851.927 32.4621 854.473 Q32.4621 860.17 36.0905 863.321 Q39.6872 866.472 46.212 866.472 Q52.7369 866.472 56.3653 863.321 Q59.9619 860.17 59.9619 854.473 Q59.9619 851.927 59.2935 849.444 Q58.5933 846.929 57.2247 844.447 L62.6355 844.447 Q63.7814 846.898 64.3543 849.539 Q64.9272 852.149 64.9272 855.109 Q64.9272 863.162 59.8664 867.904 Q54.8057 872.647 46.212 872.647 Q37.491 872.647 32.4939 867.873 Q27.4968 863.067 27.4968 854.727 Q27.4968 852.022 28.0697 849.444 Q28.6108 846.866 29.7248 844.447 Z" fill="#000000" fill-rule="evenodd" fill-opacity="1" /><path clip-path="url(#clip360)" d="M44.7161 803.77 L47.5806 803.77 L47.5806 830.697 Q53.6281 830.315 56.8109 827.068 Q59.9619 823.79 59.9619 817.966 Q59.9619 814.592 59.1344 811.441 Q58.3069 808.258 56.6518 805.139 L62.1899 805.139 Q63.5267 808.29 64.227 811.6 Q64.9272 814.91 64.9272 818.316 Q64.9272 826.846 59.9619 831.843 Q54.9967 836.808 46.5303 836.808 Q37.7774 836.808 32.6531 832.097 Q27.4968 827.355 27.4968 819.334 Q27.4968 812.141 32.1438 807.971 Q36.7589 803.77 44.7161 803.77 M42.9973 809.626 Q38.1912 809.69 35.3266 812.332 Q32.4621 814.942 32.4621 819.27 Q32.4621 824.172 35.2312 827.132 Q38.0002 830.06 43.0292 830.506 L42.9973 809.626 Z" fill="#000000" fill-rule="evenodd" fill-opacity="1" /><path clip-path="url(#clip360)" d="M42.4881 764.525 L64.0042 764.525 L64.0042 770.382 L42.679 770.382 Q37.6183 770.382 35.1038 772.355 Q32.5894 774.329 32.5894 778.275 Q32.5894 783.018 35.6131 785.755 Q38.6368 788.492 43.8567 788.492 L64.0042 788.492 L64.0042 794.381 L28.3562 794.381 L28.3562 788.492 L33.8944 788.492 Q30.6797 786.392 29.0883 783.559 Q27.4968 780.694 27.4968 776.97 Q27.4968 770.827 31.3163 767.676 Q35.1038 764.525 42.4881 764.525 Z" fill="#000000" fill-rule="evenodd" fill-opacity="1" /><path clip-path="url(#clip360)" d="M18.2347 747.052 L28.3562 747.052 L28.3562 734.989 L32.9077 734.989 L32.9077 747.052 L52.2594 747.052 Q56.6199 747.052 57.8613 745.874 Q59.1026 744.664 59.1026 741.004 L59.1026 734.989 L64.0042 734.989 L64.0042 741.004 Q64.0042 747.784 61.4897 750.362 Q58.9434 752.94 52.2594 752.94 L32.9077 752.94 L32.9077 757.237 L28.3562 757.237 L28.3562 752.94 L18.2347 752.94 L18.2347 747.052 Z" fill="#000000" fill-rule="evenodd" fill-opacity="1" /><path clip-path="url(#clip360)" d="M33.8307 706.629 Q33.2578 707.616 33.0032 708.794 Q32.7167 709.939 32.7167 711.34 Q32.7167 716.305 35.9632 718.979 Q39.1779 721.621 45.2253 721.621 L64.0042 721.621 L64.0042 727.509 L28.3562 727.509 L28.3562 721.621 L33.8944 721.621 Q30.6479 719.774 29.0883 716.814 Q27.4968 713.854 27.4968 709.621 Q27.4968 709.016 27.5923 708.284 Q27.656 707.552 27.8151 706.661 L33.8307 706.629 Z" fill="#000000" fill-rule="evenodd" fill-opacity="1" /><path clip-path="url(#clip360)" d="M46.0847 684.286 Q46.0847 691.383 47.7079 694.121 Q49.3312 696.858 53.2461 696.858 Q56.3653 696.858 58.2114 694.821 Q60.0256 692.752 60.0256 689.219 Q60.0256 684.349 56.5881 681.421 Q53.1188 678.461 47.3897 678.461 L46.0847 678.461 L46.0847 684.286 M43.6657 672.605 L64.0042 672.605 L64.0042 678.461 L58.5933 678.461 Q61.8398 680.466 63.3994 683.458 Q64.9272 686.45 64.9272 690.779 Q64.9272 696.253 61.8716 699.5 Q58.7843 702.714 53.6281 702.714 Q47.6125 702.714 44.5569 698.704 Q41.5014 694.662 41.5014 686.673 L41.5014 678.461 L40.9285 678.461 Q36.8862 678.461 34.6901 681.135 Q32.4621 683.776 32.4621 688.583 Q32.4621 691.638 33.1941 694.534 Q33.9262 697.431 35.3903 700.104 L29.9795 700.104 Q28.7381 696.89 28.1334 693.866 Q27.4968 690.842 27.4968 687.978 Q27.4968 680.243 31.5072 676.424 Q35.5176 672.605 43.6657 672.605 Z" fill="#000000" fill-rule="evenodd" fill-opacity="1" /><path clip-path="url(#clip360)" d="M18.2347 654.749 L28.3562 654.749 L28.3562 642.686 L32.9077 642.686 L32.9077 654.749 L52.2594 654.749 Q56.6199 654.749 57.8613 653.571 Q59.1026 652.362 59.1026 648.701 L59.1026 642.686 L64.0042 642.686 L64.0042 648.701 Q64.0042 655.481 61.4897 658.059 Q58.9434 660.637 52.2594 660.637 L32.9077 660.637 L32.9077 664.934 L28.3562 664.934 L28.3562 660.637 L18.2347 660.637 L18.2347 654.749 Z" fill="#000000" fill-rule="evenodd" fill-opacity="1" /><path clip-path="url(#clip360)" d="M28.3562 634.983 L28.3562 629.127 L64.0042 629.127 L64.0042 634.983 L28.3562 634.983 M14.479 634.983 L14.479 629.127 L21.895 629.127 L21.895 634.983 L14.479 634.983 Z" fill="#000000" fill-rule="evenodd" fill-opacity="1" /><path clip-path="url(#clip360)" d="M32.4621 603.059 Q32.4621 607.77 36.1542 610.507 Q39.8145 613.244 46.212 613.244 Q52.6095 613.244 56.3017 610.539 Q59.9619 607.802 59.9619 603.059 Q59.9619 598.38 56.2698 595.643 Q52.5777 592.906 46.212 592.906 Q39.8781 592.906 36.186 595.643 Q32.4621 598.38 32.4621 603.059 M27.4968 603.059 Q27.4968 595.42 32.4621 591.06 Q37.4273 586.699 46.212 586.699 Q54.9649 586.699 59.9619 591.06 Q64.9272 595.42 64.9272 603.059 Q64.9272 610.73 59.9619 615.09 Q54.9649 619.419 46.212 619.419 Q37.4273 619.419 32.4621 615.09 Q27.4968 610.73 27.4968 603.059 Z" fill="#000000" fill-rule="evenodd" fill-opacity="1" /><path clip-path="url(#clip360)" d="M42.4881 547.359 L64.0042 547.359 L64.0042 553.216 L42.679 553.216 Q37.6183 553.216 35.1038 555.189 Q32.5894 557.163 32.5894 561.109 Q32.5894 565.852 35.6131 568.589 Q38.6368 571.326 43.8567 571.326 L64.0042 571.326 L64.0042 577.214 L28.3562 577.214 L28.3562 571.326 L33.8944 571.326 Q30.6797 569.226 29.0883 566.393 Q27.4968 563.528 27.4968 559.804 Q27.4968 553.661 31.3163 550.51 Q35.1038 547.359 42.4881 547.359 Z" fill="#000000" fill-rule="evenodd" fill-opacity="1" /><path clip-path="url(#clip360)" d="M1055.36 12.096 L1090.11 12.096 L1090.11 18.9825 L1063.54 18.9825 L1063.54 36.8065 L1087.52 36.8065 L1087.52 43.6931 L1063.54 43.6931 L1063.54 72.576 L1055.36 72.576 L1055.36 12.096 Z" fill="#000000" fill-rule="evenodd" fill-opacity="1" /><path clip-path="url(#clip360)" d="M1096.72 27.2059 L1104.17 27.2059 L1104.17 72.576 L1096.72 72.576 L1096.72 27.2059 M1096.72 9.54393 L1104.17 9.54393 L1104.17 18.9825 L1096.72 18.9825 L1096.72 9.54393 Z" fill="#000000" fill-rule="evenodd" fill-opacity="1" /><path clip-path="url(#clip360)" d="M1149.62 49.3643 Q1149.62 41.2625 1146.26 36.8065 Q1142.94 32.3505 1136.9 32.3505 Q1130.91 32.3505 1127.54 36.8065 Q1124.22 41.2625 1124.22 49.3643 Q1124.22 57.4256 1127.54 61.8816 Q1130.91 66.3376 1136.9 66.3376 Q1142.94 66.3376 1146.26 61.8816 Q1149.62 57.4256 1149.62 49.3643 M1157.08 66.9452 Q1157.08 78.5308 1151.93 84.1616 Q1146.79 89.8329 1136.17 89.8329 Q1132.24 89.8329 1128.76 89.2252 Q1125.28 88.6581 1121.99 87.4428 L1121.99 80.1917 Q1125.28 81.9741 1128.48 82.8248 Q1131.68 83.6755 1135 83.6755 Q1142.33 83.6755 1145.98 79.8271 Q1149.62 76.0193 1149.62 68.282 L1149.62 64.5957 Q1147.31 68.6061 1143.71 70.5911 Q1140.1 72.576 1135.08 72.576 Q1126.73 72.576 1121.63 66.2161 Q1116.53 59.8562 1116.53 49.3643 Q1116.53 38.832 1121.63 32.472 Q1126.73 26.1121 1135.08 26.1121 Q1140.1 26.1121 1143.71 28.0971 Q1147.31 30.082 1149.62 34.0924 L1149.62 27.2059 L1157.08 27.2059 L1157.08 66.9452 Z" fill="#000000" fill-rule="evenodd" fill-opacity="1" /><path clip-path="url(#clip360)" d="M1222.34 19.2256 L1201.68 51.5113 L1222.34 51.5113 L1222.34 19.2256 M1220.19 12.096 L1230.48 12.096 L1230.48 51.5113 L1239.11 51.5113 L1239.11 58.3168 L1230.48 58.3168 L1230.48 72.576 L1222.34 72.576 L1222.34 58.3168 L1195.03 58.3168 L1195.03 50.4176 L1220.19 12.096 Z" fill="#000000" fill-rule="evenodd" fill-opacity="1" /><path clip-path="url(#clip360)" d="M1252.64 62.2867 L1261.18 62.2867 L1261.18 72.576 L1252.64 72.576 L1252.64 62.2867 Z" fill="#000000" fill-rule="evenodd" fill-opacity="1" /><path clip-path="url(#clip360)" d="M1280.43 65.6895 L1293.79 65.6895 L1293.79 19.5497 L1279.25 22.4663 L1279.25 15.0127 L1293.71 12.096 L1301.9 12.096 L1301.9 65.6895 L1315.26 65.6895 L1315.26 72.576 L1280.43 72.576 L1280.43 65.6895 Z" fill="#000000" fill-rule="evenodd" fill-opacity="1" /><path clip-path="url(#clip360)" d="M1331.87 12.096 L1364 12.096 L1364 18.9825 L1339.37 18.9825 L1339.37 33.8088 Q1341.15 33.2012 1342.93 32.9176 Q1344.71 32.5936 1346.5 32.5936 Q1356.62 32.5936 1362.54 38.1433 Q1368.45 43.6931 1368.45 53.1722 Q1368.45 62.9348 1362.38 68.3631 Q1356.3 73.7508 1345.24 73.7508 Q1341.43 73.7508 1337.46 73.1026 Q1333.53 72.4545 1329.32 71.1582 L1329.32 62.9348 Q1332.97 64.9198 1336.85 65.892 Q1340.74 66.8642 1345.08 66.8642 Q1352.09 66.8642 1356.18 63.1779 Q1360.27 59.4916 1360.27 53.1722 Q1360.27 46.8528 1356.18 43.1664 Q1352.09 39.4801 1345.08 39.4801 Q1341.8 39.4801 1338.52 40.2093 Q1335.27 40.9384 1331.87 42.4778 L1331.87 12.096 Z" fill="#000000" fill-rule="evenodd" fill-opacity="1" /><path clip-path="url(#clip360)" d="M1427.8 9.62495 Q1422.37 18.942 1419.74 28.0566 Q1417.1 37.1711 1417.1 46.5287 Q1417.1 55.8863 1419.74 65.0818 Q1422.41 74.2369 1427.8 83.5134 L1421.32 83.5134 Q1415.24 73.9938 1412.2 64.7983 Q1409.2 55.6027 1409.2 46.5287 Q1409.2 37.4952 1412.2 28.3401 Q1415.2 19.1851 1421.32 9.62495 L1427.8 9.62495 Z" fill="#000000" fill-rule="evenodd" fill-opacity="1" /><path clip-path="url(#clip360)" d="M1462.8 20.1573 L1451.7 50.2555 L1473.94 50.2555 L1462.8 20.1573 M1458.18 12.096 L1467.46 12.096 L1490.51 72.576 L1482 72.576 L1476.49 57.061 L1449.23 57.061 L1443.72 72.576 L1435.09 72.576 L1458.18 12.096 Z" fill="#000000" fill-rule="evenodd" fill-opacity="1" /><path clip-path="url(#clip360)" d="M1497.84 9.62495 L1504.32 9.62495 Q1510.4 19.1851 1513.39 28.3401 Q1516.43 37.4952 1516.43 46.5287 Q1516.43 55.6027 1513.39 64.7983 Q1510.4 73.9938 1504.32 83.5134 L1497.84 83.5134 Q1503.23 74.2369 1505.86 65.0818 Q1508.53 55.8863 1508.53 46.5287 Q1508.53 37.1711 1505.86 28.0566 Q1503.23 18.942 1497.84 9.62495 Z" fill="#000000" fill-rule="evenodd" fill-opacity="1" /><polyline clip-path="url(#clip362)" style="stroke:#009af9; stroke-linecap:butt; stroke-linejoin:round; stroke-width:8; stroke-opacity:1; fill:none" points="
  219.033,1047.2 221.169,1027.4 223.305,1007.74 225.441,988.199 227.576,968.795 229.712,949.526 231.848,930.394 233.984,911.403 236.12,892.555 238.256,873.852 
  240.392,855.298 242.527,836.895 244.663,818.647 246.799,800.556 248.935,782.626 251.071,764.861 253.207,747.262 255.343,729.834 257.478,712.58 259.614,695.503 
  261.75,678.607 263.886,661.895 266.022,645.372 268.158,629.04 270.294,612.903 272.429,596.965 274.565,581.229 276.701,565.7 278.837,550.382 280.973,535.277 
  283.109,520.391 285.245,505.728 287.38,491.291 289.516,477.086 291.652,463.115 293.788,449.384 295.924,435.897 298.06,422.659 300.196,409.674 302.331,396.947 
  304.467,384.483 306.603,372.287 308.739,360.365 310.875,348.721 313.011,337.36 315.147,326.289 317.282,315.513 319.418,305.038 321.554,294.869 323.69,285.012 
  325.826,275.473 327.962,266.259 330.098,257.376 332.233,248.831 334.369,240.63 336.505,232.781 338.641,225.291 340.777,218.167 342.913,211.415 345.049,205.045 
  347.184,199.063 349.32,193.476 351.456,188.293 353.592,183.523 355.728,179.171 357.864,175.248 360,171.761 362.135,168.719 364.271,166.128 366.407,163.995 
  368.543,162.331 370.679,161.147 372.815,160.452 374.951,160.256 377.086,160.568 379.222,161.397 381.358,162.75 383.494,164.636 385.63,167.061 387.766,170.034 
  389.902,173.561 392.038,177.647 394.173,182.299 396.309,187.521 398.445,193.32 400.581,199.699 402.717,206.663 404.853,214.216 406.989,222.361 409.124,231.097 
  411.26,240.421 413.396,250.332 415.532,260.828 417.668,271.905 419.804,283.557 421.94,295.775 424.075,308.548 426.211,321.865 428.347,335.708 430.483,350.06 
  432.619,364.901 434.755,380.21 436.891,395.961 439.026,412.128 441.162,428.681 443.298,445.59 445.434,462.82 447.57,480.336 449.706,498.099 451.842,516.07 
  453.977,534.204 456.113,552.458 458.249,570.784 460.385,589.154 462.521,607.525 464.657,625.844 466.793,644.057 468.928,662.115 471.064,679.971 473.2,697.582 
  475.336,714.904 477.472,731.897 479.608,748.526 481.744,764.754 483.879,780.55 486.015,795.884 488.151,810.728 490.287,825.058 492.423,838.851 494.559,852.088 
  496.695,864.75 498.83,876.822 500.966,888.293 503.102,899.152 505.238,909.391 507.374,919.006 509.51,927.993 511.646,936.352 513.781,944.096 515.917,951.241 
  518.053,957.797 520.189,963.775 522.325,969.188 524.461,974.047 526.597,978.364 528.732,982.153 530.868,985.426 533.004,988.196 535.14,990.478 537.276,992.286 
  539.412,993.633 541.548,994.534 543.683,995.005 545.819,995.06 547.955,994.716 550.091,993.988 552.227,992.894 554.363,991.448 556.499,989.662 558.634,987.546 
  560.77,985.115 562.906,982.382 565.042,979.361 567.178,976.063 569.314,972.501 571.45,968.687 573.586,964.634 575.721,960.352 577.857,955.852 579.993,951.146 
  582.129,946.243 584.265,941.154 586.401,935.889 588.537,930.457 590.672,924.867 592.808,919.129 594.944,913.25 597.08,907.239 599.216,901.104 601.352,894.852 
  603.488,888.491 605.623,882.027 607.759,875.467 609.895,868.819 612.031,862.091 614.167,855.291 616.303,848.425 618.439,841.502 620.574,834.526 622.71,827.505 
  624.846,820.445 626.982,813.352 629.118,806.232 631.254,799.091 633.39,791.935 635.525,784.77 637.661,777.601 639.797,770.434 641.933,763.274 644.069,756.127 
  646.205,748.997 648.341,741.89 650.476,734.81 652.612,727.762 654.748,720.751 656.884,713.782 659.02,706.858 661.156,699.984 663.292,693.164 665.427,686.403 
  667.563,679.706 669.699,673.076 671.835,666.519 673.971,660.039 676.107,653.64 678.243,647.327 680.378,641.103 682.514,634.974 684.65,628.941 686.786,623.011 
  688.922,617.185 691.058,611.469 693.194,605.866 695.329,600.378 697.465,595.011 699.601,589.767 701.737,584.649 703.873,579.661 706.009,574.806 708.145,570.087 
  710.28,565.507 712.416,561.069 714.552,556.775 716.688,552.629 718.824,548.632 720.96,544.788 723.096,541.1 725.231,537.568 727.367,534.196 729.503,530.983 
  731.639,527.932 733.775,525.048 735.911,522.332 738.047,519.788 740.182,517.417 742.318,515.224 744.454,513.208 746.59,511.374 748.726,509.721 750.862,508.253 
  752.998,506.969 755.134,505.872 757.269,504.962 759.405,504.24 761.541,503.707 763.677,503.362 765.813,503.206 767.949,503.239 770.085,503.46 772.22,503.87 
  774.356,504.466 776.492,505.249 778.628,506.217 780.764,507.369 782.9,508.703 785.036,510.218 787.171,511.912 789.307,513.782 791.443,515.826 793.579,518.042 
  795.715,520.427 797.851,522.978 799.987,525.692 802.122,528.567 804.258,531.599 806.394,534.784 808.53,538.116 810.666,541.59 812.802,545.203 814.938,548.949 
  817.073,552.823 819.209,556.819 821.345,560.932 823.481,565.157 825.617,569.487 827.753,573.917 829.889,578.441 832.024,583.052 834.16,587.744 836.296,592.511 
  838.432,597.346 840.568,602.242 842.704,607.192 844.84,612.189 846.975,617.226 849.111,622.296 851.247,627.39 853.383,632.502 855.519,637.623 857.655,642.745 
  859.791,647.861 861.926,652.962 864.062,658.039 866.198,663.084 868.334,668.089 870.47,673.043 872.606,677.944 874.742,682.79 876.877,687.575 879.013,692.293 
  881.149,696.936 883.285,701.499 885.421,705.976 887.557,710.362 889.693,714.651 891.828,718.838 893.964,722.919 896.1,726.888 898.236,730.743 900.372,734.478 
  902.508,738.09 904.644,741.576 906.779,744.933 908.915,748.157 911.051,751.247 913.187,754.199 915.323,757.012 917.459,759.684 919.595,762.213 921.73,764.599 
  923.866,766.839 926.002,768.934 928.138,770.883 930.274,772.686 932.41,774.343 934.546,775.854 936.682,777.219 938.817,778.441 940.953,779.519 943.089,780.455 
  945.225,781.252 947.361,781.91 949.497,782.432 951.633,782.821 953.768,783.079 955.904,783.208 958.04,783.21 960.176,783.088 962.312,782.844 964.448,782.481 
  966.584,782 968.719,781.406 970.855,780.699 972.991,779.883 975.127,778.961 977.263,777.936 979.399,776.809 981.535,775.585 983.67,774.266 985.806,772.855 
  987.942,771.354 990.078,769.768 992.214,768.099 994.35,766.351 996.486,764.526 998.621,762.628 1000.76,760.661 1002.89,758.627 1005.03,756.53 1007.16,754.374 
  1009.3,752.163 1011.44,749.899 1013.57,747.586 1015.71,745.229 1017.84,742.83 1019.98,740.393 1022.12,737.916 1024.25,735.405 1026.39,732.862 1028.52,730.29 
  1030.66,727.692 1032.8,725.072 1034.93,722.432 1037.07,719.776 1039.2,717.106 1041.34,714.425 1043.47,711.737 1045.61,709.043 1047.75,706.347 1049.88,703.651 
  1052.02,700.959 1054.15,698.272 1056.29,695.593 1058.43,692.925 1060.56,690.27 1062.7,687.63 1064.83,685.009 1066.97,682.407 1069.1,679.829 1071.24,677.275 
  1073.38,674.748 1075.51,672.25 1077.65,669.784 1079.78,667.351 1081.92,664.953 1084.06,662.592 1086.19,660.271 1088.33,657.99 1090.46,655.752 1092.6,653.559 
  1094.74,651.412 1096.87,649.314 1099.01,647.264 1101.14,645.264 1103.28,643.315 1105.41,641.419 1107.55,639.577 1109.69,637.792 1111.82,636.064 1113.96,634.396 
  1116.09,632.789 1118.23,631.243 1120.37,629.761 1122.5,628.344 1124.64,626.993 1126.77,625.708 1128.91,624.49 1131.04,623.341 1133.18,622.261 1135.32,621.25 
  1137.45,620.31 1139.59,619.441 1141.72,618.643 1143.86,617.916 1146,617.261 1148.13,616.678 1150.27,616.166 1152.4,615.727 1154.54,615.359 1156.67,615.062 
  1158.81,614.836 1160.95,614.681 1163.08,614.597 1165.22,614.582 1167.35,614.636 1169.49,614.758 1171.63,614.948 1173.76,615.204 1175.9,615.525 1178.03,615.911 
  1180.17,616.361 1182.31,616.873 1184.44,617.446 1186.58,618.081 1188.71,618.775 1190.85,619.527 1192.98,620.336 1195.12,621.201 1197.26,622.121 1199.39,623.094 
  1201.53,624.119 1203.66,625.194 1205.8,626.318 1207.94,627.49 1210.07,628.707 1212.21,629.969 1214.34,631.273 1216.48,632.618 1218.61,634.003 1220.75,635.425 
  1222.89,636.882 1225.02,638.373 1227.16,639.895 1229.29,641.448 1231.43,643.027 1233.57,644.633 1235.7,646.262 1237.84,647.913 1239.97,649.582 1242.11,651.269 
  1244.25,652.97 1246.38,654.683 1248.52,656.406 1250.65,658.137 1252.79,659.872 1254.92,661.61 1257.06,663.348 1259.2,665.083 1261.33,666.813 1263.47,668.535 
  1265.6,670.245 1267.74,671.942 1269.88,673.623 1272.01,675.284 1274.15,676.927 1276.28,678.554 1278.42,680.162 1280.55,681.749 1282.69,683.314 1284.83,684.855 
  1286.96,686.369 1289.1,687.855 1291.23,689.312 1293.37,690.737 1295.51,692.13 1297.64,693.488 1299.78,694.811 1301.91,696.097 1304.05,697.345 1306.19,698.554 
  1308.32,699.722 1310.46,700.849 1312.59,701.934 1314.73,702.976 1316.86,703.974 1319,704.927 1321.14,705.835 1323.27,706.697 1325.41,707.513 1327.54,708.282 
  1329.68,709.004 1331.82,709.678 1333.95,710.305 1336.09,710.885 1338.22,711.416 1340.36,711.9 1342.49,712.336 1344.63,712.724 1346.77,713.065 1348.9,713.36 
  1351.04,713.607 1353.17,713.809 1355.31,713.964 1357.45,714.075 1359.58,714.141 1361.72,714.164 1363.85,714.144 1365.99,714.082 1368.12,713.979 1370.26,713.835 
  1372.4,713.651 1374.53,713.428 1376.67,713.167 1378.8,712.868 1380.94,712.531 1383.08,712.159 1385.21,711.75 1387.35,711.307 1389.48,710.83 1391.62,710.319 
  1393.76,709.777 1395.89,709.203 1398.03,708.598 1400.16,707.964 1402.3,707.302 1404.43,706.612 1406.57,705.895 1408.71,705.153 1410.84,704.387 1412.98,703.597 
  1415.11,702.785 1417.25,701.952 1419.39,701.099 1421.52,700.228 1423.66,699.339 1425.79,698.434 1427.93,697.514 1430.06,696.58 1432.2,695.635 1434.34,694.678 
  1436.47,693.712 1438.61,692.738 1440.74,691.757 1442.88,690.77 1445.02,689.78 1447.15,688.788 1449.29,687.795 1451.42,686.803 1453.56,685.813 1455.7,684.826 
  1457.83,683.841 1459.97,682.857 1462.1,681.876 1464.24,680.899 1466.37,679.928 1468.51,678.962 1470.65,678.004 1472.78,677.055 1474.92,676.116 1477.05,675.186 
  1479.19,674.269 1481.33,673.364 1483.46,672.473 1485.6,671.595 1487.73,670.733 1489.87,669.888 1492,669.058 1494.14,668.247 1496.28,667.454 1498.41,666.679 
  1500.55,665.925 1502.68,665.19 1504.82,664.477 1506.96,663.785 1509.09,663.114 1511.23,662.467 1513.36,661.842 1515.5,661.24 1517.64,660.663 1519.77,660.109 
  1521.91,659.58 1524.04,659.075 1526.18,658.596 1528.31,658.142 1530.45,657.713 1532.59,657.31 1534.72,656.933 1536.86,656.582 1538.99,656.256 1541.13,655.957 
  1543.27,655.683 1545.4,655.436 1547.54,655.215 1549.67,655.019 1551.81,654.849 1553.94,654.705 1556.08,654.585 1558.22,654.491 1560.35,654.42 1562.49,654.374 
  1564.62,654.353 1566.76,654.355 1568.9,654.382 1571.03,654.433 1573.17,654.508 1575.3,654.607 1577.44,654.73 1579.58,654.875 1581.71,655.044 1583.85,655.235 
  1585.98,655.449 1588.12,655.684 1590.25,655.942 1592.39,656.221 1594.53,656.52 1596.66,656.84 1598.8,657.18 1600.93,657.54 1603.07,657.918 1605.21,658.315 
  1607.34,658.729 1609.48,659.161 1611.61,659.61 1613.75,660.074 1615.88,660.553 1618.02,661.047 1620.16,661.555 1622.29,662.076 1624.43,662.609 1626.56,663.154 
  1628.7,663.709 1630.84,664.274 1632.97,664.848 1635.11,665.43 1637.24,666.019 1639.38,666.614 1641.51,667.214 1643.65,667.818 1645.79,668.425 1647.92,669.034 
  1650.06,669.644 1652.19,670.253 1654.33,670.862 1656.47,671.467 1658.6,672.071 1660.74,672.675 1662.87,673.277 1665.01,673.877 1667.15,674.475 1669.28,675.069 
  1671.42,675.659 1673.55,676.244 1675.69,676.823 1677.82,677.396 1679.96,677.962 1682.1,678.521 1684.23,679.072 1686.37,679.614 1688.5,680.147 1690.64,680.671 
  1692.78,681.184 1694.91,681.686 1697.05,682.177 1699.18,682.657 1701.32,683.124 1703.45,683.579 1705.59,684.021 1707.73,684.449 1709.86,684.864 1712,685.265 
  1714.13,685.652 1716.27,686.024 1718.41,686.381 1720.54,686.723 1722.68,687.049 1724.81,687.36 1726.95,687.655 1729.09,687.934 1731.22,688.196 1733.36,688.443 
  1735.49,688.672 1737.63,688.885 1739.76,689.082 1741.9,689.262 1744.04,689.424 1746.17,689.57 1748.31,689.699 1750.44,689.812 1752.58,689.907 1754.72,689.986 
  1756.85,690.047 1758.99,690.093 1761.12,690.121 1763.26,690.134 1765.39,690.129 1767.53,690.109 1769.67,690.073 1771.8,690.021 1773.94,689.955 1776.07,689.876 
  1778.21,689.783 1780.35,689.677 1782.48,689.558 1784.62,689.426 1786.75,689.281 1788.89,689.124 1791.03,688.955 1793.16,688.774 1795.3,688.582 1797.43,688.378 
  1799.57,688.163 1801.7,687.937 1803.84,687.701 1805.98,687.454 1808.11,687.198 1810.25,686.932 1812.38,686.656 1814.52,686.372 1816.66,686.08 1818.79,685.779 
  1820.93,685.471 1823.06,685.155 1825.2,684.833 1827.33,684.503 1829.47,684.168 1831.61,683.827 1833.74,683.481 1835.88,683.13 1838.01,682.774 1840.15,682.415 
  1842.29,682.052 1844.42,681.687 1846.56,681.319 1848.69,680.949 1850.83,680.578 1852.96,680.206 1855.1,679.834 1857.24,679.462 1859.37,679.091 1861.51,678.722 
  1863.64,678.354 1865.78,677.989 1867.92,677.627 1870.05,677.269 1872.19,676.916 1874.32,676.567 1876.46,676.225 1878.6,675.888 1880.73,675.554 1882.87,675.224 
  1885,674.898 1887.14,674.576 1889.27,674.259 1891.41,673.947 1893.55,673.641 1895.68,673.341 1897.82,673.047 1899.95,672.76 1902.09,672.48 1904.23,672.208 
  1906.36,671.943 1908.5,671.685 1910.63,671.437 1912.77,671.196 1914.9,670.964 1917.04,670.742 1919.18,670.528 1921.31,670.323 1923.45,670.129 1925.58,669.943 
  1927.72,669.768 1929.86,669.603 1931.99,669.447 1934.13,669.302 1936.26,669.167 1938.4,669.042 1940.54,668.928 1942.67,668.824 1944.81,668.73 1946.94,668.647 
  1949.08,668.575 1951.21,668.512 1953.35,668.461 1955.49,668.419 1957.62,668.388 1959.76,668.367 1961.89,668.356 1964.03,668.355 1966.17,668.364 1968.3,668.382 
  1970.44,668.41 1972.57,668.448 1974.71,668.494 1976.84,668.55 1978.98,668.614 1981.12,668.687 1983.25,668.769 1985.39,668.858 1987.52,668.955 1989.66,669.059 
  1991.8,669.17 1993.93,669.289 1996.07,669.413 1998.2,669.544 2000.34,669.681 2002.48,669.823 2004.61,669.971 2006.75,670.124 2008.88,670.282 2011.02,670.446 
  2013.15,670.614 2015.29,670.787 2017.43,670.964 2019.56,671.146 2021.7,671.331 2023.83,671.521 2025.97,671.714 2028.11,671.91 2030.24,672.11 2032.38,672.313 
  2034.51,672.518 2036.65,672.726 2038.78,672.937 2040.92,673.149 2043.06,673.364 2045.19,673.58 2047.33,673.798 2049.46,674.017 2051.6,674.237 2053.74,674.458 
  2055.87,674.68 2058.01,674.901 2060.14,675.123 2062.28,675.345 2064.41,675.567 2066.55,675.788 2068.69,676.008 2070.82,676.227 2072.96,676.445 2075.09,676.661 
  2077.23,676.876 2079.37,677.088 2081.5,677.299 2083.64,677.506 2085.77,677.711 2087.91,677.913 2090.05,678.111 2092.18,678.306 2094.32,678.497 2096.45,678.684 
  2098.59,678.867 2100.72,679.045 2102.86,679.218 2105,679.386 2107.13,679.548 2109.27,679.705 2111.4,679.856 2113.54,680.001 2115.68,680.138 2117.81,680.27 
  2119.95,680.394 2122.08,680.51 2124.22,680.62 2126.35,680.725 2128.49,680.825 2130.63,680.921 2132.76,681.012 2134.9,681.098 2137.03,681.179 2139.17,681.254 
  2141.31,681.324 2143.44,681.389 2145.58,681.447 2147.71,681.501 2149.85,681.548 2151.99,681.589 2154.12,681.625 2156.26,681.654 2158.39,681.678 2160.53,681.695 
  2162.66,681.706 2164.8,681.711 2166.94,681.71 2169.07,681.703 2171.21,681.69 2173.34,681.67 2175.48,681.645 2177.62,681.613 2179.75,681.576 2181.89,681.532 
  2184.02,681.483 2186.16,681.428 2188.29,681.367 2190.43,681.301 2192.57,681.229 2194.7,681.152 2196.84,681.07 2198.97,680.982 2201.11,680.89 2203.25,680.793 
  2205.38,680.691 2207.52,680.585 2209.65,680.474 2211.79,680.36 2213.93,680.241 2216.06,680.12 2218.2,679.994 2220.33,679.866 2222.47,679.734 2224.6,679.6 
  2226.74,679.464 2228.88,679.325 2231.01,679.185 2233.15,679.043 2235.28,678.9 2237.42,678.756 2239.56,678.611 2241.69,678.466 2243.83,678.321 2245.96,678.177 
  2248.1,678.033 2250.23,677.891 2252.37,677.75 2254.51,677.611 2256.64,677.474 2258.78,677.336 2260.91,677.2 2263.05,677.064 2265.19,676.928 2267.32,676.794 
  2269.46,676.661 2271.59,676.529 2273.73,676.399 2275.86,676.27 2278,676.143 2280.14,676.018 2282.27,675.895 2284.41,675.774 2286.54,675.655 2288.68,675.539 
  2290.82,675.425 2292.95,675.314 2295.09,675.205 2297.22,675.099 2299.36,674.996 2301.5,674.896 2303.63,674.799 2305.77,674.705 2307.9,674.614 2310.04,674.527 
  2312.17,674.443 2314.31,674.362 2316.45,674.285 2318.58,674.211 2320.72,674.141 2322.85,674.074 2324.99,674.011 2327.13,673.952 2329.26,673.896 2331.4,673.844 
  2333.53,673.796 2335.67,673.751 2337.8,673.71 2339.94,673.673 2342.08,673.639 2344.21,673.609 2346.35,673.583 2348.48,673.56 2350.62,673.541 2352.76,673.526 
  
  "/>
<polyline clip-path="url(#clip362)" style="stroke:#e26f46; stroke-linecap:butt; stroke-linejoin:round; stroke-width:8; stroke-opacity:1; fill:none" points="
  219.033,1295.21 221.169,1302.93 223.305,1310.23 225.441,1317.11 227.576,1323.59 229.712,1329.68 231.848,1335.4 233.984,1340.76 236.12,1345.76 238.256,1350.43 
  240.392,1354.77 242.527,1358.79 244.663,1362.5 246.799,1365.91 248.935,1369.03 251.071,1371.87 253.207,1374.43 255.343,1376.72 257.478,1378.75 259.614,1380.53 
  261.75,1382.06 263.886,1383.36 266.022,1384.41 268.158,1385.24 270.294,1385.84 272.429,1386.23 274.565,1386.4 276.701,1386.36 278.837,1386.11 280.973,1385.67 
  283.109,1385.03 285.245,1384.2 287.38,1383.17 289.516,1381.97 291.652,1380.57 293.788,1379 295.924,1377.25 298.06,1375.33 300.196,1373.23 302.331,1370.96 
  304.467,1368.52 306.603,1365.92 308.739,1363.15 310.875,1360.21 313.011,1357.11 315.147,1353.86 317.282,1350.44 319.418,1346.86 321.554,1343.11 323.69,1339.21 
  325.826,1335.16 327.962,1330.94 330.098,1326.56 332.233,1322.02 334.369,1317.33 336.505,1312.47 338.641,1307.45 340.777,1302.27 342.913,1296.93 345.049,1291.42 
  347.184,1285.76 349.32,1279.92 351.456,1273.92 353.592,1267.75 355.728,1261.41 357.864,1254.9 360,1248.22 362.135,1241.37 364.271,1234.34 366.407,1227.13 
  368.543,1219.75 370.679,1212.19 372.815,1204.44 374.951,1196.51 377.086,1188.39 379.222,1180.09 381.358,1171.6 383.494,1162.92 385.63,1154.05 387.766,1145 
  389.902,1135.76 392.038,1126.33 394.173,1116.72 396.309,1106.92 398.445,1096.95 400.581,1086.79 402.717,1076.47 404.853,1065.97 406.989,1055.3 409.124,1044.46 
  411.26,1033.48 413.396,1022.34 415.532,1011.07 417.668,999.676 419.804,988.165 421.94,976.553 424.075,964.855 426.211,953.088 428.347,941.268 430.483,929.416 
  432.619,917.55 434.755,905.693 436.891,893.867 439.026,882.098 441.162,870.41 443.298,858.831 445.434,847.388 447.57,836.113 449.706,825.036 451.842,814.189 
  453.977,803.606 456.113,793.322 458.249,783.374 460.385,773.776 462.521,764.552 464.657,755.739 466.793,747.37 468.928,739.475 471.064,732.082 473.2,725.217 
  475.336,718.899 477.472,713.149 479.608,707.983 481.744,703.413 483.879,699.449 486.015,696.1 488.151,693.369 490.287,691.258 492.423,689.766 494.559,688.888 
  496.695,688.618 498.83,688.944 500.966,689.855 503.102,691.334 505.238,693.363 507.374,695.92 509.51,698.981 511.646,702.517 513.781,706.51 515.917,710.936 
  518.053,715.766 520.189,720.974 522.325,726.533 524.461,732.416 526.597,738.6 528.732,745.058 530.868,751.767 533.004,758.704 535.14,765.846 537.276,773.171 
  539.412,780.658 541.548,788.286 543.683,796.036 545.819,803.887 547.955,811.821 550.091,819.821 552.227,827.868 554.363,835.947 556.499,844.045 558.634,852.148 
  560.77,860.245 562.906,868.321 565.042,876.364 567.178,884.365 569.314,892.311 571.45,900.192 573.586,908 575.721,915.725 577.857,923.359 579.993,930.894 
  582.129,938.324 584.265,945.643 586.401,952.845 588.537,959.925 590.672,966.879 592.808,973.703 594.944,980.393 597.08,986.949 599.216,993.368 601.352,999.649 
  603.488,1005.79 605.623,1011.8 607.759,1017.66 609.895,1023.39 612.031,1028.98 614.167,1034.41 616.303,1039.69 618.439,1044.83 620.574,1049.81 622.71,1054.65 
  624.846,1059.33 626.982,1063.86 629.118,1068.24 631.254,1072.47 633.39,1076.54 635.525,1080.47 637.661,1084.25 639.797,1087.87 641.933,1091.35 644.069,1094.67 
  646.205,1097.85 648.341,1100.88 650.476,1103.77 652.612,1106.51 654.748,1109.1 656.884,1111.56 659.02,1113.87 661.156,1116.05 663.292,1118.08 665.427,1119.98 
  667.563,1121.74 669.699,1123.36 671.835,1124.85 673.971,1126.2 676.107,1127.42 678.243,1128.51 680.378,1129.47 682.514,1130.3 684.65,1131 686.786,1131.58 
  688.922,1132.03 691.058,1132.36 693.194,1132.56 695.329,1132.64 697.465,1132.6 699.601,1132.45 701.737,1132.17 703.873,1131.78 706.009,1131.28 708.145,1130.66 
  710.28,1129.93 712.416,1129.09 714.552,1128.14 716.688,1127.08 718.824,1125.92 720.96,1124.65 723.096,1123.28 725.231,1121.81 727.367,1120.24 729.503,1118.57 
  731.639,1116.81 733.775,1114.95 735.911,1113 738.047,1110.95 740.182,1108.82 742.318,1106.59 744.454,1104.28 746.59,1101.89 748.726,1099.41 750.862,1096.84 
  752.998,1094.2 755.134,1091.48 757.269,1088.69 759.405,1085.82 761.541,1082.88 763.677,1079.87 765.813,1076.8 767.949,1073.66 770.085,1070.47 772.22,1067.21 
  774.356,1063.9 776.492,1060.54 778.628,1057.12 780.764,1053.66 782.9,1050.16 785.036,1046.62 787.171,1043.04 789.307,1039.43 791.443,1035.79 793.579,1032.12 
  795.715,1028.43 797.851,1024.72 799.987,1020.99 802.122,1017.25 804.258,1013.5 806.394,1009.75 808.53,1006 810.666,1002.26 812.802,998.531 814.938,994.816 
  817.073,991.121 819.209,987.451 821.345,983.811 823.481,980.205 825.617,976.637 827.753,973.113 829.889,969.635 832.024,966.21 834.16,962.84 836.296,959.531 
  838.432,956.286 840.568,953.109 842.704,950.006 844.84,946.978 846.975,944.032 849.111,941.171 851.247,938.398 853.383,935.717 855.519,933.134 857.655,930.65 
  859.791,928.27 861.926,925.999 864.062,923.838 866.198,921.793 868.334,919.867 870.47,918.063 872.606,916.38 874.742,914.815 876.877,913.37 879.013,912.046 
  881.149,910.844 883.285,909.766 885.421,908.812 887.557,907.984 889.693,907.281 891.828,906.705 893.964,906.255 896.1,905.931 898.236,905.732 900.372,905.658 
  902.508,905.709 904.644,905.882 906.779,906.177 908.915,906.592 911.051,907.126 913.187,907.775 915.323,908.539 917.459,909.414 919.595,910.398 921.73,911.488 
  923.866,912.681 926.002,913.973 928.138,915.36 930.274,916.84 932.41,918.407 934.546,920.058 936.682,921.788 938.817,923.591 940.953,925.464 943.089,927.401 
  945.225,929.396 947.361,931.444 949.497,933.539 951.633,935.675 953.768,937.855 955.904,940.076 958.04,942.337 960.176,944.631 962.312,946.956 964.448,949.308 
  966.584,951.682 968.719,954.075 970.855,956.484 972.991,958.905 975.127,961.335 977.263,963.77 979.399,966.208 981.535,968.645 983.67,971.078 985.806,973.504 
  987.942,975.921 990.078,978.326 992.214,980.716 994.35,983.088 996.486,985.441 998.621,987.772 1000.76,990.079 1002.89,992.359 1005.03,994.611 1007.16,996.832 
  1009.3,999.022 1011.44,1001.18 1013.57,1003.3 1015.71,1005.38 1017.84,1007.42 1019.98,1009.43 1022.12,1011.39 1024.25,1013.31 1026.39,1015.19 1028.52,1017.03 
  1030.66,1018.81 1032.8,1020.55 1034.93,1022.24 1037.07,1023.89 1039.2,1025.48 1041.34,1027.02 1043.47,1028.5 1045.61,1029.94 1047.75,1031.32 1049.88,1032.64 
  1052.02,1033.91 1054.15,1035.12 1056.29,1036.28 1058.43,1037.38 1060.56,1038.43 1062.7,1039.41 1064.83,1040.34 1066.97,1041.21 1069.1,1042.03 1071.24,1042.78 
  1073.38,1043.48 1075.51,1044.12 1077.65,1044.71 1079.78,1045.24 1081.92,1045.71 1084.06,1046.13 1086.19,1046.49 1088.33,1046.8 1090.46,1047.05 1092.6,1047.26 
  1094.74,1047.41 1096.87,1047.51 1099.01,1047.56 1101.14,1047.55 1103.28,1047.5 1105.41,1047.4 1107.55,1047.24 1109.69,1047.04 1111.82,1046.79 1113.96,1046.49 
  1116.09,1046.14 1118.23,1045.74 1120.37,1045.3 1122.5,1044.82 1124.64,1044.28 1126.77,1043.71 1128.91,1043.09 1131.04,1042.43 1133.18,1041.73 1135.32,1040.99 
  1137.45,1040.21 1139.59,1039.39 1141.72,1038.53 1143.86,1037.64 1146,1036.71 1148.13,1035.75 1150.27,1034.76 1152.4,1033.74 1154.54,1032.68 1156.67,1031.6 
  1158.81,1030.49 1160.95,1029.35 1163.08,1028.19 1165.22,1027.01 1167.35,1025.81 1169.49,1024.58 1171.63,1023.34 1173.76,1022.08 1175.9,1020.8 1178.03,1019.51 
  1180.17,1018.21 1182.31,1016.9 1184.44,1015.57 1186.58,1014.24 1188.71,1012.9 1190.85,1011.55 1192.98,1010.2 1195.12,1008.85 1197.26,1007.5 1199.39,1006.14 
  1201.53,1004.79 1203.66,1003.45 1205.8,1002.1 1207.94,1000.77 1210.07,999.441 1212.21,998.123 1214.34,996.816 1216.48,995.521 1218.61,994.239 1220.75,992.972 
  1222.89,991.721 1225.02,990.488 1227.16,989.273 1229.29,988.079 1231.43,986.905 1233.57,985.754 1235.7,984.626 1237.84,983.523 1239.97,982.446 1242.11,981.396 
  1244.25,980.373 1246.38,979.38 1248.52,978.417 1250.65,977.485 1252.79,976.585 1254.92,975.718 1257.06,974.886 1259.2,974.088 1261.33,973.326 1263.47,972.601 
  1265.6,971.914 1267.74,971.265 1269.88,970.655 1272.01,970.086 1274.15,969.555 1276.28,969.061 1278.42,968.604 1280.55,968.185 1282.69,967.803 1284.83,967.46 
  1286.96,967.156 1289.1,966.89 1291.23,966.663 1293.37,966.475 1295.51,966.325 1297.64,966.215 1299.78,966.144 1301.91,966.111 1304.05,966.117 1306.19,966.161 
  1308.32,966.243 1310.46,966.362 1312.59,966.519 1314.73,966.712 1316.86,966.941 1319,967.206 1321.14,967.506 1323.27,967.839 1325.41,968.206 1327.54,968.606 
  1329.68,969.037 1331.82,969.499 1333.95,969.99 1336.09,970.51 1338.22,971.058 1340.36,971.632 1342.49,972.231 1344.63,972.854 1346.77,973.5 1348.9,974.167 
  1351.04,974.853 1353.17,975.558 1355.31,976.279 1357.45,977.016 1359.58,977.766 1361.72,978.527 1363.85,979.298 1365.99,980.078 1368.12,980.869 1370.26,981.67 
  1372.4,982.48 1374.53,983.299 1376.67,984.124 1378.8,984.954 1380.94,985.789 1383.08,986.627 1385.21,987.468 1387.35,988.31 1389.48,989.152 1391.62,989.993 
  1393.76,990.833 1395.89,991.67 1398.03,992.503 1400.16,993.331 1402.3,994.154 1404.43,994.971 1406.57,995.781 1408.71,996.582 1410.84,997.375 1412.98,998.158 
  1415.11,998.931 1417.25,999.693 1419.39,1000.44 1421.52,1001.18 1423.66,1001.91 1425.79,1002.62 1427.93,1003.31 1430.06,1003.99 1432.2,1004.66 1434.34,1005.31 
  1436.47,1005.94 1438.61,1006.56 1440.74,1007.16 1442.88,1007.74 1445.02,1008.3 1447.15,1008.85 1449.29,1009.37 1451.42,1009.88 1453.56,1010.36 1455.7,1010.83 
  1457.83,1011.28 1459.97,1011.7 1462.1,1012.11 1464.24,1012.5 1466.37,1012.87 1468.51,1013.21 1470.65,1013.54 1472.78,1013.85 1474.92,1014.13 1477.05,1014.4 
  1479.19,1014.64 1481.33,1014.86 1483.46,1015.06 1485.6,1015.24 1487.73,1015.39 1489.87,1015.53 1492,1015.64 1494.14,1015.73 1496.28,1015.8 1498.41,1015.85 
  1500.55,1015.87 1502.68,1015.88 1504.82,1015.86 1506.96,1015.83 1509.09,1015.77 1511.23,1015.69 1513.36,1015.6 1515.5,1015.48 1517.64,1015.34 1519.77,1015.19 
  1521.91,1015.02 1524.04,1014.82 1526.18,1014.62 1528.31,1014.39 1530.45,1014.15 1532.59,1013.89 1534.72,1013.62 1536.86,1013.33 1538.99,1013.02 1541.13,1012.71 
  1543.27,1012.38 1545.4,1012.04 1547.54,1011.68 1549.67,1011.32 1551.81,1010.94 1553.94,1010.56 1556.08,1010.17 1558.22,1009.77 1560.35,1009.35 1562.49,1008.93 
  1564.62,1008.5 1566.76,1008.07 1568.9,1007.62 1571.03,1007.17 1573.17,1006.72 1575.3,1006.25 1577.44,1005.79 1579.58,1005.32 1581.71,1004.84 1583.85,1004.36 
  1585.98,1003.88 1588.12,1003.4 1590.25,1002.91 1592.39,1002.42 1594.53,1001.94 1596.66,1001.45 1598.8,1000.96 1600.93,1000.48 1603.07,999.99 1605.21,999.507 
  1607.34,999.025 1609.48,998.547 1611.61,998.072 1613.75,997.601 1615.88,997.134 1618.02,996.672 1620.16,996.215 1622.29,995.764 1624.43,995.32 1626.56,994.882 
  1628.7,994.451 1630.84,994.028 1632.97,993.613 1635.11,993.206 1637.24,992.809 1639.38,992.421 1641.51,992.044 1643.65,991.676 1645.79,991.32 1647.92,990.975 
  1650.06,990.642 1652.19,990.321 1654.33,990.013 1656.47,989.717 1658.6,989.434 1660.74,989.162 1662.87,988.9 1665.01,988.65 1667.15,988.412 1669.28,988.185 
  1671.42,987.971 1673.55,987.769 1675.69,987.581 1677.82,987.404 1679.96,987.241 1682.1,987.092 1684.23,986.956 1686.37,986.833 1688.5,986.724 1690.64,986.629 
  1692.78,986.547 1694.91,986.479 1697.05,986.426 1699.18,986.386 1701.32,986.36 1703.45,986.347 1705.59,986.349 1707.73,986.364 1709.86,986.393 1712,986.435 
  1714.13,986.49 1716.27,986.559 1718.41,986.641 1720.54,986.735 1722.68,986.842 1724.81,986.961 1726.95,987.092 1729.09,987.235 1731.22,987.389 1733.36,987.555 
  1735.49,987.731 1737.63,987.917 1739.76,988.113 1741.9,988.319 1744.04,988.534 1746.17,988.758 1748.31,988.99 1750.44,989.23 1752.58,989.477 1754.72,989.73 
  1756.85,989.99 1758.99,990.255 1761.12,990.525 1763.26,990.799 1765.39,991.077 1767.53,991.359 1769.67,991.642 1771.8,991.927 1773.94,992.215 1776.07,992.507 
  1778.21,992.801 1780.35,993.097 1782.48,993.396 1784.62,993.696 1786.75,993.997 1788.89,994.299 1791.03,994.601 1793.16,994.903 1795.3,995.205 1797.43,995.506 
  1799.57,995.806 1801.7,996.105 1803.84,996.402 1805.98,996.697 1808.11,996.99 1810.25,997.281 1812.38,997.568 1814.52,997.852 1816.66,998.133 1818.79,998.41 
  1820.93,998.683 1823.06,998.951 1825.2,999.216 1827.33,999.475 1829.47,999.729 1831.61,999.979 1833.74,1000.22 1835.88,1000.46 1838.01,1000.69 1840.15,1000.92 
  1842.29,1001.14 1844.42,1001.35 1846.56,1001.56 1848.69,1001.76 1850.83,1001.95 1852.96,1002.14 1855.1,1002.32 1857.24,1002.49 1859.37,1002.65 1861.51,1002.81 
  1863.64,1002.96 1865.78,1003.1 1867.92,1003.23 1870.05,1003.35 1872.19,1003.47 1874.32,1003.58 1876.46,1003.68 1878.6,1003.77 1880.73,1003.85 1882.87,1003.93 
  1885,1004 1887.14,1004.07 1889.27,1004.12 1891.41,1004.17 1893.55,1004.21 1895.68,1004.25 1897.82,1004.28 1899.95,1004.3 1902.09,1004.31 1904.23,1004.31 
  1906.36,1004.31 1908.5,1004.3 1910.63,1004.28 1912.77,1004.26 1914.9,1004.23 1917.04,1004.19 1919.18,1004.14 1921.31,1004.09 1923.45,1004.03 1925.58,1003.96 
  1927.72,1003.88 1929.86,1003.8 1931.99,1003.71 1934.13,1003.62 1936.26,1003.52 1938.4,1003.41 1940.54,1003.29 1942.67,1003.17 1944.81,1003.05 1946.94,1002.92 
  1949.08,1002.78 1951.21,1002.64 1953.35,1002.49 1955.49,1002.34 1957.62,1002.19 1959.76,1002.03 1961.89,1001.86 1964.03,1001.69 1966.17,1001.52 1968.3,1001.35 
  1970.44,1001.17 1972.57,1000.99 1974.71,1000.81 1976.84,1000.63 1978.98,1000.44 1981.12,1000.25 1983.25,1000.07 1985.39,999.878 1987.52,999.691 1989.66,999.503 
  1991.8,999.316 1993.93,999.131 1996.07,998.946 1998.2,998.764 2000.34,998.584 2002.48,998.405 2004.61,998.227 2006.75,998.049 2008.88,997.873 2011.02,997.697 
  2013.15,997.523 2015.29,997.351 2017.43,997.181 2019.56,997.013 2021.7,996.847 2023.83,996.683 2025.97,996.523 2028.11,996.365 2030.24,996.21 2032.38,996.058 
  2034.51,995.909 2036.65,995.764 2038.78,995.622 2040.92,995.484 2043.06,995.35 2045.19,995.22 2047.33,995.094 2049.46,994.973 2051.6,994.855 2053.74,994.742 
  2055.87,994.634 2058.01,994.53 2060.14,994.43 2062.28,994.336 2064.41,994.246 2066.55,994.161 2068.69,994.081 2070.82,994.006 2072.96,993.935 2075.09,993.87 
  2077.23,993.81 2079.37,993.755 2081.5,993.705 2083.64,993.661 2085.77,993.621 2087.91,993.587 2090.05,993.557 2092.18,993.533 2094.32,993.514 2096.45,993.499 
  2098.59,993.49 2100.72,993.486 2102.86,993.486 2105,993.492 2107.13,993.502 2109.27,993.517 2111.4,993.537 2113.54,993.561 2115.68,993.59 2117.81,993.623 
  2119.95,993.661 2122.08,993.703 2124.22,993.749 2126.35,993.798 2128.49,993.85 2130.63,993.905 2132.76,993.964 2134.9,994.025 2137.03,994.089 2139.17,994.156 
  2141.31,994.226 2143.44,994.299 2145.58,994.375 2147.71,994.453 2149.85,994.534 2151.99,994.617 2154.12,994.703 2156.26,994.792 2158.39,994.882 2160.53,994.975 
  2162.66,995.07 2164.8,995.167 2166.94,995.266 2169.07,995.366 2171.21,995.469 2173.34,995.573 2175.48,995.679 2177.62,995.786 2179.75,995.894 2181.89,996.004 
  2184.02,996.115 2186.16,996.227 2188.29,996.34 2190.43,996.453 2192.57,996.567 2194.7,996.682 2196.84,996.797 2198.97,996.912 2201.11,997.028 2203.25,997.143 
  2205.38,997.258 2207.52,997.373 2209.65,997.487 2211.79,997.601 2213.93,997.714 2216.06,997.826 2218.2,997.936 2220.33,998.046 2222.47,998.154 2224.6,998.261 
  2226.74,998.365 2228.88,998.468 2231.01,998.569 2233.15,998.667 2235.28,998.763 2237.42,998.856 2239.56,998.947 2241.69,999.034 2243.83,999.118 2245.96,999.198 
  2248.1,999.275 2250.23,999.348 2252.37,999.417 2254.51,999.481 2256.64,999.542 2258.78,999.601 2260.91,999.656 2263.05,999.709 2265.19,999.759 2267.32,999.806 
  2269.46,999.85 2271.59,999.891 2273.73,999.929 2275.86,999.964 2278,999.996 2280.14,1000.03 2282.27,1000.05 2284.41,1000.07 2286.54,1000.09 2288.68,1000.11 
  2290.82,1000.12 2292.95,1000.13 2295.09,1000.14 2297.22,1000.15 2299.36,1000.15 2301.5,1000.15 2303.63,1000.14 2305.77,1000.13 2307.9,1000.12 2310.04,1000.11 
  2312.17,1000.09 2314.31,1000.08 2316.45,1000.05 2318.58,1000.03 2320.72,1000 2322.85,999.974 2324.99,999.942 2327.13,999.908 2329.26,999.871 2331.4,999.832 
  2333.53,999.791 2335.67,999.748 2337.8,999.703 2339.94,999.656 2342.08,999.608 2344.21,999.558 2346.35,999.506 2348.48,999.452 2350.62,999.398 2352.76,999.342 
  
  "/>
<path clip-path="url(#clip360)" d="
M1960.99 322.316 L2281.63 322.316 L2281.63 166.796 L1960.99 166.796  Z
  " fill="#ffffff" fill-rule="evenodd" fill-opacity="1"/>
<polyline clip-path="url(#clip360)" style="stroke:#000000; stroke-linecap:butt; stroke-linejoin:round; stroke-width:4; stroke-opacity:1; fill:none" points="
  1960.99,322.316 2281.63,322.316 2281.63,166.796 1960.99,166.796 1960.99,322.316 
  "/>
<polyline clip-path="url(#clip360)" style="stroke:#009af9; stroke-linecap:butt; stroke-linejoin:round; stroke-width:4; stroke-opacity:1; fill:none" points="
  1984.7,218.636 2126.94,218.636 
  "/>
<path clip-path="url(#clip360)" d="M2166.48 205.962 L2160.14 223.161 L2172.85 223.161 L2166.48 205.962 M2163.85 201.356 L2169.15 201.356 L2182.32 235.916 L2177.46 235.916 L2174.31 227.05 L2158.73 227.05 L2155.58 235.916 L2150.65 235.916 L2163.85 201.356 Z" fill="#000000" fill-rule="evenodd" fill-opacity="1" /><path clip-path="url(#clip360)" d="M2197.41 199.944 Q2194.31 205.268 2192.8 210.476 Q2191.3 215.684 2191.3 221.032 Q2191.3 226.379 2192.8 231.633 Q2194.33 236.865 2197.41 242.166 L2193.71 242.166 Q2190.23 236.726 2188.5 231.471 Q2186.79 226.217 2186.79 221.032 Q2186.79 215.87 2188.5 210.638 Q2190.21 205.407 2193.71 199.944 L2197.41 199.944 Z" fill="#000000" fill-rule="evenodd" fill-opacity="1" /><path clip-path="url(#clip360)" d="M2209.89 202.629 L2209.89 209.99 L2218.66 209.99 L2218.66 213.3 L2209.89 213.3 L2209.89 227.374 Q2209.89 230.545 2210.74 231.448 Q2211.62 232.351 2214.29 232.351 L2218.66 232.351 L2218.66 235.916 L2214.29 235.916 Q2209.35 235.916 2207.48 234.087 Q2205.6 232.235 2205.6 227.374 L2205.6 213.3 L2202.48 213.3 L2202.48 209.99 L2205.6 209.99 L2205.6 202.629 L2209.89 202.629 Z" fill="#000000" fill-rule="evenodd" fill-opacity="1" /><path clip-path="url(#clip360)" d="M2223.59 199.944 L2227.29 199.944 Q2230.77 205.407 2232.48 210.638 Q2234.22 215.87 2234.22 221.032 Q2234.22 226.217 2232.48 231.471 Q2230.77 236.726 2227.29 242.166 L2223.59 242.166 Q2226.67 236.865 2228.17 231.633 Q2229.7 226.379 2229.7 221.032 Q2229.7 215.684 2228.17 210.476 Q2226.67 205.268 2223.59 199.944 Z" fill="#000000" fill-rule="evenodd" fill-opacity="1" /><polyline clip-path="url(#clip360)" style="stroke:#e26f46; stroke-linecap:butt; stroke-linejoin:round; stroke-width:4; stroke-opacity:1; fill:none" points="
  1984.7,270.476 2126.94,270.476 
  "/>
<path clip-path="url(#clip360)" d="M2155.33 271.251 L2155.33 283.913 L2162.83 283.913 Q2166.6 283.913 2168.41 282.362 Q2170.23 280.788 2170.23 277.571 Q2170.23 274.33 2168.41 272.802 Q2166.6 271.251 2162.83 271.251 L2155.33 271.251 M2155.33 257.038 L2155.33 267.455 L2162.25 267.455 Q2165.67 267.455 2167.34 266.182 Q2169.03 264.885 2169.03 262.247 Q2169.03 259.631 2167.34 258.335 Q2165.67 257.038 2162.25 257.038 L2155.33 257.038 M2150.65 253.196 L2162.6 253.196 Q2167.94 253.196 2170.84 255.418 Q2173.73 257.64 2173.73 261.737 Q2173.73 264.909 2172.25 266.784 Q2170.77 268.659 2167.9 269.122 Q2171.35 269.862 2173.24 272.223 Q2175.17 274.561 2175.17 278.08 Q2175.17 282.709 2172.02 285.233 Q2168.87 287.756 2163.06 287.756 L2150.65 287.756 L2150.65 253.196 Z" fill="#000000" fill-rule="evenodd" fill-opacity="1" /><path clip-path="url(#clip360)" d="M2193.22 251.784 Q2190.12 257.108 2188.61 262.316 Q2187.11 267.524 2187.11 272.872 Q2187.11 278.219 2188.61 283.473 Q2190.14 288.705 2193.22 294.006 L2189.52 294.006 Q2186.04 288.566 2184.31 283.311 Q2182.6 278.057 2182.6 272.872 Q2182.6 267.71 2184.31 262.478 Q2186.02 257.247 2189.52 251.784 L2193.22 251.784 Z" fill="#000000" fill-rule="evenodd" fill-opacity="1" /><path clip-path="url(#clip360)" d="M2205.7 254.469 L2205.7 261.83 L2214.47 261.83 L2214.47 265.14 L2205.7 265.14 L2205.7 279.214 Q2205.7 282.385 2206.55 283.288 Q2207.43 284.191 2210.1 284.191 L2214.47 284.191 L2214.47 287.756 L2210.1 287.756 Q2205.16 287.756 2203.29 285.927 Q2201.41 284.075 2201.41 279.214 L2201.41 265.14 L2198.29 265.14 L2198.29 261.83 L2201.41 261.83 L2201.41 254.469 L2205.7 254.469 Z" fill="#000000" fill-rule="evenodd" fill-opacity="1" /><path clip-path="url(#clip360)" d="M2219.4 251.784 L2223.1 251.784 Q2226.58 257.247 2228.29 262.478 Q2230.03 267.71 2230.03 272.872 Q2230.03 278.057 2228.29 283.311 Q2226.58 288.566 2223.1 294.006 L2219.4 294.006 Q2222.48 288.705 2223.98 283.473 Q2225.51 278.219 2225.51 272.872 Q2225.51 267.524 2223.98 262.316 Q2222.48 257.108 2219.4 251.784 Z" fill="#000000" fill-rule="evenodd" fill-opacity="1" /></svg>
